<?xml version="1.0" encoding="utf-8"?>
<!-- Generator: Adobe Illustrator 17.0.0, SVG Export Plug-In . SVG Version: 6.00 Build 0)  -->
<!DOCTYPE svg PUBLIC "-//W3C//DTD SVG 1.1//EN" "http://www.w3.org/Graphics/SVG/1.1/DTD/svg11.dtd">
<svg version="1.1" id="Layer_1" xmlns="http://www.w3.org/2000/svg" xmlns:xlink="http://www.w3.org/1999/xlink" x="0px" y="0px"
	 width="458px" height="313px" viewBox="0 0 458 313" enable-background="new 0 0 458 313" xml:space="preserve">
<linearGradient id="SVGID_1_" gradientUnits="userSpaceOnUse" x1="531.286" y1="400.7148" x2="673.7789" y2="657.202" gradientTransform="matrix(1 0 0 1 -334 -299)">
	<stop  offset="0" style="stop-color:#2BC4F3"/>
	<stop  offset="0.5" style="stop-color:#00AEEE"/>
	<stop  offset="1" style="stop-color:#0095DA"/>
</linearGradient>
<ellipse fill="url(#SVGID_1_)" cx="228" cy="157" rx="142" ry="141"/>
<path fill="#FFFFFF" d="M227.752,35.962c-67.683,0-122.748,54.443-122.748,121.352c0,66.909,55.065,121.352,122.748,121.352
	S350.5,224.223,350.5,157.313C350.5,90.404,295.435,35.962,227.752,35.962z M227.752,271.582
	c-63.729,0-115.579-51.258-115.579-114.269c0-63.011,51.843-114.269,115.579-114.269s115.579,51.258,115.579,114.269
	C343.331,220.325,291.481,271.582,227.752,271.582z"/>
<g>
	<path fill="#FFFFFF" d="M201.428,100.56v21.693h52.322v-21.555c2.075-0.796,3.548-2.777,3.548-5.101
		c0-3.026-2.492-5.479-5.567-5.479s-5.567,2.453-5.567,5.479c0,2.174,1.289,4.046,3.154,4.931
		c-0.003,6.335-2.635,11.442-7.24,12.154c-5.534,0.855-10.092-5.094-11.13-12.858c-0.491-3.67-0.745-8.23-0.339-12.091
		c1.587-0.965,2.648-2.688,2.648-4.659c0-3.026-2.492-5.479-5.567-5.479c-3.074,0-5.567,2.453-5.567,5.479
		c0,1.881,0.964,3.539,2.431,4.526c0.426,3.888,0.171,8.512-0.325,12.224c-1.039,7.763-5.597,13.713-11.13,12.858
		c-4.57-0.706-7.198-5.74-7.24-12.008c2.04-0.813,3.48-2.778,3.48-5.077c0-3.026-2.492-5.479-5.567-5.479
		c-3.074,0-5.567,2.453-5.567,5.479C198.206,97.796,199.527,99.688,201.428,100.56z"/>
	<path fill="#FFFFFF" d="M187.648,127.629l-23.973,33.026l64.076,76.445l64.076-76.242l-24.401-33.23H187.648z M260.517,133.679
		l-13.523,20.917l-14.363-20.917H260.517z M241.712,157.708h-30.486l15.566-21.73L241.712,157.708z M220.918,133.679l-14.188,19.807
		l-12.307-19.807H220.918z M188.877,136.35l13.271,21.358H173.37L188.877,136.35z M174.217,163.757h30.487l15.617,55.253
		L174.217,163.757z M227.415,221.535l-16.33-57.778h31.83L227.415,221.535z M234.181,220.01l15.091-56.253h32.148L234.181,220.01z
		 M252.268,157.708l13.906-21.511l15.766,21.511H252.268z"/>
</g>
</svg>
