<?xml version="1.0" encoding="utf-8"?>
<!-- Generator: Adobe Illustrator 17.0.0, SVG Export Plug-In . SVG Version: 6.00 Build 0)  -->
<!DOCTYPE svg PUBLIC "-//W3C//DTD SVG 1.1//EN" "http://www.w3.org/Graphics/SVG/1.1/DTD/svg11.dtd">
<svg version="1.1" id="Layer_1" xmlns="http://www.w3.org/2000/svg" xmlns:xlink="http://www.w3.org/1999/xlink" x="0px" y="0px"
	 width="458px" height="313px" viewBox="0 0 458 313" enable-background="new 0 0 458 313" xml:space="preserve">
<g>
	
		<linearGradient id="SVGID_1_" gradientUnits="userSpaceOnUse" x1="417.0436" y1="262.4035" x2="765.0436" y2="730.4035" gradientTransform="matrix(1 0 0 1 -334 -299)">
		<stop  offset="0" style="stop-color:#FFF33B"/>
		<stop  offset="0.0401" style="stop-color:#FEE72E"/>
		<stop  offset="0.1171" style="stop-color:#FED51B"/>
		<stop  offset="0.1964" style="stop-color:#FDCA10"/>
		<stop  offset="0.2809" style="stop-color:#FDC70C"/>
		<stop  offset="0.6685" style="stop-color:#F3903F"/>
		<stop  offset="0.8876" style="stop-color:#ED683C"/>
		<stop  offset="1" style="stop-color:#E93E3A"/>
	</linearGradient>
	<ellipse fill="url(#SVGID_1_)" cx="227" cy="157" rx="142" ry="141"/>
	<path fill="#FFFFFF" d="M340.846,175.336c4.057-6.246,8.253-12.704,8.223-18.316c-0.033-5.606-4.3-12.014-8.427-18.211
		c-2.59-3.889-5.268-7.91-5.991-10.533s-0.483-7.433-0.251-12.085c0.369-7.426,0.753-15.104-2.098-19.948
		c-2.847-4.84-9.766-8.27-16.457-11.588c-4.201-2.082-8.544-4.236-10.494-6.153c-1.948-1.912-4.164-6.201-6.307-10.348
		c-3.416-6.611-6.948-13.447-11.852-16.221c-2.691-1.525-6.29-2.204-11.671-2.204c-2.743,0-5.63,0.174-8.422,0.343
		c-2.646,0.16-5.145,0.31-7.375,0.31c-2.131,0-3.702-0.139-4.8-0.425c-2.649-0.689-6.726-3.303-10.668-5.829
		c-6.263-4.014-12.739-8.165-18.433-8.165c-5.644,0.033-12.093,4.271-18.331,8.368c-3.914,2.571-7.961,5.23-10.605,5.95
		c-1.193,0.325-2.956,0.483-5.39,0.483c-2.085,0-4.373-0.113-6.793-0.232c-2.53-0.124-5.146-0.253-7.654-0.253
		c-5.799,0-9.624,0.72-12.404,2.335c-4.875,2.832-8.33,9.71-11.672,16.363c-2.095,4.17-4.261,8.482-6.187,10.418
		c-1.924,1.936-6.241,4.137-10.416,6.265c-6.655,3.392-13.535,6.899-16.327,11.771c-2.797,4.874-2.328,12.547-1.874,19.966
		c0.284,4.651,0.578,9.461-0.114,12.091c-0.695,2.632-3.324,6.68-5.867,10.596c-4.057,6.247-8.253,12.707-8.22,18.317
		c0.031,5.606,4.296,12.013,8.421,18.209c2.59,3.889,5.267,7.911,5.991,10.54c0.725,2.624,0.485,7.439,0.253,12.095
		c-0.37,7.42-0.751,15.093,2.099,19.935c2.847,4.836,9.765,8.266,16.454,11.584c4.202,2.084,8.547,4.238,10.498,6.156
		c1.947,1.911,4.162,6.199,6.304,10.346c3.415,6.612,6.948,13.448,11.854,16.226c2.69,1.523,6.287,2.201,11.663,2.201
		c2.743,0,5.63-0.174,8.424-0.343c2.646-0.16,5.147-0.311,7.379-0.311c2.102,0,3.717,0.143,4.8,0.425
		c2.648,0.691,6.723,3.073,10.664,5.599c6.264,4.014,12.74,7.935,18.369,7.935c0.007,0,0.059,0,0.066,0
		c5.645,0,12.096-4.039,18.334-8.137c3.915-2.572,7.961-5.116,10.605-5.834c1.193-0.325,2.957-0.426,5.392-0.426
		c2.084,0,4.366,0.141,6.784,0.259c2.527,0.124,5.14,0.266,7.645,0.266c5.809,0,9.64-0.715,12.422-2.332
		c4.877-2.833,8.333-9.709,11.674-16.361c2.094-4.167,4.259-8.475,6.183-10.41c1.924-1.934,6.24-4.134,10.414-6.261
		c6.655-3.394,13.538-6.902,16.327-11.773c2.801-4.877,2.331-12.553,1.877-19.976c-0.284-4.648-0.578-9.454,0.112-12.081
		C335.672,183.302,338.303,179.252,340.846,175.336z M334.193,171.071c-3.013,4.638-5.86,9.019-6.877,12.871
		c-1.01,3.844-0.692,9.044-0.355,14.549c0.347,5.685,0.78,12.761-0.853,15.606c-1.625,2.837-7.967,6.071-13.063,8.668
		c-4.946,2.521-9.617,4.903-12.431,7.734c-2.812,2.828-5.154,7.49-7.635,12.427c-2.56,5.094-5.745,11.435-8.589,13.087
		c-1.44,0.838-4.274,1.262-8.422,1.262c-2.31,0-4.824-0.123-7.254-0.242c-2.408-0.118-4.897-0.24-7.175-0.24
		c-3.196,0-5.575,0.242-7.484,0.762c-3.863,1.05-8.243,3.927-12.88,6.975c-4.777,3.138-10.793,7.044-14.082,7.062L227,275.526
		v-3.933c-3,0.001-9.202-3.83-14.004-6.908c-4.669-2.993-9.043-5.819-12.914-6.827c-1.788-0.466-3.934-0.683-6.791-0.683
		c-2.473,0-5.202,0.166-7.85,0.325c-2.675,0.161-5.437,0.329-7.939,0.329c-3.766,0-6.369-0.394-7.74-1.17
		c-2.858-1.618-6.112-7.919-8.729-12.982c-2.538-4.913-4.935-9.553-7.78-12.347c-2.848-2.802-7.55-5.133-12.529-7.601
		c-5.123-2.54-11.498-5.702-13.155-8.517c-1.66-2.82-1.308-9.892-1.025-15.575c0.275-5.517,0.534-10.728-0.526-14.564
		c-1.059-3.84-3.956-8.192-7.023-12.8c-3.158-4.744-7.089-10.649-7.107-13.914c-0.019-3.27,3.848-9.224,6.955-14.008
		c3.012-4.638,5.857-9.019,6.873-12.867c1.013-3.847,0.695-9.051,0.358-14.561c-0.348-5.682-0.78-12.754,0.851-15.596
		c1.626-2.837,7.966-6.069,13.061-8.666c4.947-2.522,9.621-4.904,12.435-7.735c2.814-2.828,5.158-7.495,7.639-12.435
		c2.559-5.095,5.744-11.435,8.584-13.084c1.439-0.836,4.268-1.26,8.407-1.26c2.312,0,4.829,0.123,7.262,0.243
		c2.411,0.119,4.904,0.241,7.185,0.241c3.196,0,5.575-0.243,7.484-0.763c3.862-1.051,8.242-3.928,12.88-6.975
		c4.777-3.138,10.722-7.044,14.028-7.063c3.296,0,9.273,3.831,14.074,6.909c4.671,2.994,9.082,5.821,12.955,6.829
		c1.788,0.465,3.951,0.681,6.807,0.681c2.471,0,5.209-0.165,7.856-0.325c2.674-0.161,5.44-0.328,7.942-0.328
		c3.769,0,6.376,0.394,7.751,1.173c2.856,1.615,6.112,7.916,8.727,12.978c2.539,4.913,4.937,9.554,7.783,12.348
		c2.848,2.801,7.549,5.132,12.526,7.599c5.124,2.54,11.499,5.7,13.156,8.518c1.662,2.824,1.309,9.902,1.026,15.59
		c-0.274,5.511-0.534,10.716,0.522,14.551c1.059,3.838,3.957,8.189,7.025,12.796c3.16,4.746,7.094,10.652,7.113,13.915
		C341.168,160.334,337.3,166.287,334.193,171.071z"/>
</g>
<g>
	<path fill="#FFFFFF" d="M198.355,158.237c-0.293-0.385-0.587-0.77-0.88-1.155c-0.117-0.347-0.235-0.693-0.352-1.04
		c-1.74-1.309-3.481-2.619-5.222-3.928c-0.899-0.886-1.799-1.771-2.699-2.657c-5.475-4.532-9.349-11.934-12.321-19.003
		c-0.974-2.318-1.587-4.622-2.288-7.393c-0.174-0.689-0.613-1.291-0.411-2.079c0.516-0.254,0.94,0.033,1.584-0.058
		c3.227-0.019,6.454-0.038,9.681-0.058c1.303,0,3.4,0.297,3.931-0.346c0.184-1.018-0.038-3.158-0.293-4.043
		c-0.845-0.521-4.117-0.231-5.574-0.231c-4.752-0.019-9.505-0.039-14.257-0.058c-0.827,0.639-0.3,2.914-0.059,4.043
		c0.836,3.92,1.504,7.856,3.051,11.206c5.05,10.935,9.991,19.473,19.42,26.108c0.352,0.462,0.704,0.924,1.056,1.386
		c1.604,1.116,3.614,1.711,5.222,2.83c0.58,0.404,0.947,1.185,1.76,1.386c0.269-0.132,0.504-0.26,0.645-0.52
		c0.054-0.098-1.049-1.969-1.291-2.426C198.825,159.546,198.59,158.891,198.355,158.237z"/>
	<path fill="#FFFFFF" d="M245.879,205.658c-13.239-0.019-26.482-0.038-39.72-0.058l-0.352,0.347v3.697
		c0,3.367,0.134,7.158-0.117,10.166c0.098,0.115,0.196,0.231,0.293,0.347h36.552c1.124,0,2.293-0.18,3.227,0.115
		c0.256-0.137,0.408-0.246,0.528-0.52v-10.744C246.29,207.889,246.602,206.032,245.879,205.658z"/>
	<path fill="#FFFFFF" d="M282.548,116.187c-6.434,0.038-12.869,0.077-19.303,0.115c-0.599,0.804-0.88,4.219,0.059,4.679
		c0.998-0.367,3.123-0.116,4.518-0.116h9.974c0.039,0.019,0.078,0.039,0.117,0.058c0.504,1.803-2.006,7.898-2.699,9.588
		c-3.637,8.872-8.465,16-15.196,21.776c-1.662,1.232-3.325,2.465-4.987,3.697c-0.45,1.02-0.9,2.041-1.349,3.061
		c-0.215,0.231-0.43,0.462-0.645,0.693c-0.039,0.462-0.078,0.924-0.117,1.386c-0.147,0.491-0.901,0.692-0.645,1.386v0.116
		c1.053-0.039,1.279-0.585,1.936-0.924c0.843-0.435,1.613-0.526,2.464-0.924c0.196-0.212,0.391-0.424,0.587-0.635
		c0.943-0.746,2.034-1.268,2.992-1.964c0.137-0.152,0.062-0.378,0.176-0.578c0.763-0.539,1.525-1.078,2.288-1.617
		c1.293-0.994,2.598-2.272,3.638-3.523c0.587-0.539,1.173-1.078,1.76-1.617c5.146-6.637,9.705-13.064,12.614-22.007
		c0.907-2.787,1.501-5.739,2.23-8.78c0.281-1.172,0.536-3.101-0.059-3.87H282.548z"/>
	<path fill="#FFFFFF" d="M256.792,125.948c0.807-3.618,0.286-7.912,1.115-11.61c0.059-1.656,0.117-3.312,0.176-4.967
		c0.175-1.106,0.22-4.702-0.235-4.967h-58.084c-1.624,0-3.622,0.177-5.046-0.115c-0.156,0.058-0.313,0.115-0.469,0.173
		c-0.726,1.094-0.059,5.674-0.059,7.567c0,4.602,0.382,9.119,1.115,13.227c0.404,2.264,0.458,4.502,0.939,6.585
		c0.595,2.575,0.68,4.892,1.349,7.336c1.273,4.646,2.46,9.199,3.931,13.632c0.509,1.533,1.45,3.147,2.054,4.563v1.155
		c0.607,1.202,1.666,2.249,2.171,3.466c0.332,0.866,0.665,1.733,0.997,2.599c0.296,0.524,0.96,1.113,1.173,1.617
		c0.02,0.192,0.039,0.385,0.059,0.578c1.92,2.871,4.794,6.115,7.51,8.202c0.734,0.564,3.147,1.806,3.462,2.542
		c1.33,3.106,1.626,10.743,0.645,14.382c-0.417,1.546-0.283,3.4-1.115,4.563c-0.53,0.742-2.124,0.968-2.934,1.444
		c-1.832,1.077-3.536,2.46-4.987,3.928v0.289c0.686,0.388,6.416,0.116,8.155,0.115h22.647c0.36-0.844-0.949-1.516-1.467-1.906
		c-1.242-0.936-2.452-1.867-3.872-2.657c-0.702-0.391-1.939-0.588-2.405-1.213c-0.611-0.819-0.615-2.24-0.88-3.35
		c-0.848-3.552-0.957-8.821-0.176-12.534c0.039-0.539,0.078-1.078,0.117-1.617c0.704-2.419,3.012-3.296,4.752-4.679
		c0.709-0.563,1.394-1.347,1.936-2.079c0.413-0.558,1.208-0.76,1.643-1.271c0.826-0.971,1.371-2.054,2.112-3.119
		c0.332-0.366,0.665-0.732,0.997-1.097c0.176-0.52,0.352-1.04,0.528-1.56c0.587-0.963,1.173-1.925,1.76-2.888
		c0.156-0.462,0.313-0.924,0.469-1.386c1.011-1.358,2.146-3.187,2.758-4.91c0.37-1.043,0.402-1.998,0.763-3.177
		c1.113-3.636,2.556-7.532,3.638-11.379C255.464,136.345,255.601,131.289,256.792,125.948z"/>
</g>
</svg>
