<?xml version="1.0" encoding="utf-8"?>
<!-- Generator: Adobe Illustrator 17.0.0, SVG Export Plug-In . SVG Version: 6.00 Build 0)  -->
<!DOCTYPE svg PUBLIC "-//W3C//DTD SVG 1.1//EN" "http://www.w3.org/Graphics/SVG/1.1/DTD/svg11.dtd">
<svg version="1.1" id="Layer_1" xmlns="http://www.w3.org/2000/svg" xmlns:xlink="http://www.w3.org/1999/xlink" x="0px" y="0px"
	 width="458px" height="313px" viewBox="0 0 458 313" enable-background="new 0 0 458 313" xml:space="preserve">
<linearGradient id="SVGID_1_" gradientUnits="userSpaceOnUse" x1="531.286" y1="400.7148" x2="673.7789" y2="657.202" gradientTransform="matrix(1 0 0 1 -334 -299)">
	<stop  offset="0" style="stop-color:#2BC4F3"/>
	<stop  offset="0.5" style="stop-color:#00AEEE"/>
	<stop  offset="1" style="stop-color:#0095DA"/>
</linearGradient>
<ellipse fill="url(#SVGID_1_)" cx="228" cy="157" rx="142" ry="141"/>
<g>
	<path fill="#FFFFFF" d="M227.75,35.877c-67.684,0-122.75,54.48-122.75,121.436c0,66.956,55.066,121.436,122.75,121.436
		c67.685,0,122.75-54.48,122.75-121.436C350.5,90.358,295.434,35.877,227.75,35.877z M227.75,271.662
		c-63.73,0-115.581-51.293-115.581-114.348c0-63.055,51.844-114.348,115.581-114.348c63.737,0,115.581,51.293,115.581,114.348
		C343.331,220.368,291.48,271.662,227.75,271.662z"/>
	<path fill="#FFFFFF" d="M200.135,158.339c-0.293-0.384-0.585-0.769-0.878-1.153c-0.117-0.346-0.234-0.692-0.351-1.037
		c-1.736-1.306-3.473-2.613-5.21-3.919c-0.897-0.884-1.795-1.767-2.693-2.651c-5.462-4.521-9.328-11.907-12.292-18.961
		c-0.972-2.313-1.584-4.612-2.283-7.377c-0.174-0.688-0.612-1.288-0.41-2.075c0.515-0.253,0.937,0.033,1.58-0.058
		c3.219-0.019,6.439-0.038,9.658-0.058c1.3,0,3.392,0.296,3.922-0.346c0.183-1.016-0.038-3.151-0.293-4.034
		c-0.843-0.52-4.108-0.231-5.561-0.23c-4.741-0.019-9.483-0.039-14.224-0.058c-0.825,0.638-0.299,2.908-0.059,4.034
		c0.834,3.911,1.5,7.838,3.044,11.181c5.039,10.91,9.968,19.429,19.375,26.049c0.351,0.461,0.702,0.922,1.054,1.383
		c1.6,1.114,3.606,1.707,5.21,2.824c0.579,0.403,0.945,1.182,1.756,1.383c0.269-0.132,0.503-0.26,0.644-0.519
		c0.054-0.098-1.047-1.964-1.288-2.421C200.603,159.646,200.369,158.992,200.135,158.339z"/>
	<path fill="#FFFFFF" d="M247.548,205.655c-13.208-0.019-26.42-0.038-39.629-0.058l-0.351,0.346v3.688
		c0,3.36,0.133,7.142-0.117,10.143c0.098,0.115,0.195,0.23,0.293,0.346h36.468c1.122,0,2.288-0.18,3.219,0.115
		c0.255-0.136,0.407-0.245,0.527-0.519v-10.72C247.958,207.881,248.27,206.028,247.548,205.655z"/>
	<path fill="#FFFFFF" d="M284.133,116.384c-6.419,0.038-12.839,0.077-19.258,0.115c-0.597,0.802-0.878,4.21,0.059,4.668
		c0.996-0.366,3.116-0.115,4.507-0.115h9.951c0.039,0.019,0.078,0.039,0.117,0.058c0.503,1.799-2.001,7.88-2.693,9.567
		c-3.629,8.852-8.446,15.964-15.161,21.727c-1.658,1.229-3.317,2.459-4.976,3.688c-0.449,1.018-0.898,2.036-1.346,3.054
		c-0.215,0.23-0.429,0.461-0.644,0.692c-0.039,0.461-0.078,0.922-0.117,1.383c-0.147,0.49-0.899,0.691-0.644,1.383v0.115
		c1.051-0.039,1.276-0.583,1.932-0.922c0.841-0.434,1.609-0.525,2.458-0.922c0.195-0.211,0.39-0.423,0.585-0.634
		c0.941-0.745,2.029-1.265,2.985-1.96c0.137-0.152,0.062-0.377,0.176-0.576c0.761-0.538,1.522-1.076,2.283-1.614
		c1.29-0.992,2.592-2.267,3.629-3.515c0.585-0.538,1.171-1.076,1.756-1.614c5.134-6.622,9.682-13.035,12.585-21.958
		c0.905-2.781,1.498-5.727,2.224-8.76c0.28-1.17,0.535-3.094-0.059-3.861H284.133z"/>
	<path fill="#FFFFFF" d="M258.436,126.123c0.805-3.61,0.285-7.895,1.112-11.584c0.059-1.652,0.117-3.304,0.176-4.956
		c0.175-1.103,0.22-4.692-0.234-4.956h-57.95c-1.621,0-3.614,0.177-5.034-0.115c-0.156,0.058-0.312,0.115-0.468,0.173
		c-0.724,1.091-0.059,5.662-0.059,7.55c0,4.592,0.381,9.099,1.112,13.198c0.403,2.259,0.457,4.492,0.937,6.57
		c0.593,2.57,0.679,4.881,1.346,7.319c1.27,4.636,2.455,9.179,3.922,13.601c0.508,1.529,1.446,3.14,2.049,4.553v1.153
		c0.606,1.199,1.662,2.244,2.166,3.458c0.332,0.864,0.663,1.729,0.995,2.593c0.295,0.523,0.958,1.11,1.171,1.614
		c0.02,0.192,0.039,0.384,0.059,0.576c1.915,2.864,4.783,6.102,7.493,8.184c0.733,0.563,3.139,1.802,3.454,2.536
		c1.327,3.099,1.623,10.719,0.644,14.35c-0.416,1.542-0.283,3.392-1.112,4.553c-0.529,0.74-2.119,0.966-2.927,1.441
		c-1.828,1.075-3.528,2.455-4.976,3.919v0.288c0.685,0.387,6.401,0.115,8.136,0.115h22.595c0.359-0.842-0.947-1.513-1.463-1.902
		c-1.239-0.934-2.447-1.863-3.863-2.651c-0.7-0.39-1.935-0.586-2.4-1.21c-0.609-0.818-0.613-2.235-0.878-3.343
		c-0.846-3.544-0.955-8.801-0.176-12.506c0.039-0.538,0.078-1.076,0.117-1.614c0.703-2.414,3.005-3.289,4.741-4.668
		c0.707-0.561,1.391-1.344,1.932-2.075c0.412-0.557,1.206-0.758,1.639-1.268c0.824-0.969,1.368-2.049,2.107-3.112
		c0.332-0.365,0.663-0.73,0.995-1.095c0.176-0.519,0.351-1.037,0.527-1.556c0.585-0.96,1.171-1.921,1.756-2.882
		c0.156-0.461,0.312-0.922,0.468-1.383c1.008-1.355,2.141-3.179,2.751-4.899c0.369-1.041,0.401-1.993,0.761-3.17
		c1.11-3.628,2.55-7.515,3.629-11.353C257.111,136.496,257.248,131.452,258.436,126.123z"/>
</g>
</svg>
