<?xml version="1.0" encoding="utf-8"?>
<!-- Generator: Adobe Illustrator 17.0.0, SVG Export Plug-In . SVG Version: 6.00 Build 0)  -->
<!DOCTYPE svg PUBLIC "-//W3C//DTD SVG 1.1//EN" "http://www.w3.org/Graphics/SVG/1.1/DTD/svg11.dtd">
<svg version="1.1" id="Layer_1" xmlns="http://www.w3.org/2000/svg" xmlns:xlink="http://www.w3.org/1999/xlink" x="0px" y="0px"
	 width="458px" height="313px" viewBox="0 0 458 313" enable-background="new 0 0 458 313" xml:space="preserve">
<g>
	
		<linearGradient id="SVGID_1_" gradientUnits="userSpaceOnUse" x1="417.0436" y1="262.4035" x2="765.0436" y2="730.4035" gradientTransform="matrix(1 0 0 1 -334 -299)">
		<stop  offset="0" style="stop-color:#FFF33B"/>
		<stop  offset="0.0401" style="stop-color:#FEE72E"/>
		<stop  offset="0.1171" style="stop-color:#FED51B"/>
		<stop  offset="0.1964" style="stop-color:#FDCA10"/>
		<stop  offset="0.2809" style="stop-color:#FDC70C"/>
		<stop  offset="0.6685" style="stop-color:#F3903F"/>
		<stop  offset="0.8876" style="stop-color:#ED683C"/>
		<stop  offset="1" style="stop-color:#E93E3A"/>
	</linearGradient>
	<ellipse fill="url(#SVGID_1_)" cx="227" cy="157" rx="142" ry="141"/>
	<path fill="#FFFFFF" d="M340.846,175.336c4.057-6.246,8.253-12.704,8.223-18.316c-0.033-5.606-4.3-12.014-8.427-18.211
		c-2.59-3.889-5.268-7.91-5.991-10.533s-0.483-7.433-0.251-12.085c0.369-7.426,0.753-15.104-2.098-19.948
		c-2.847-4.84-9.766-8.27-16.457-11.588c-4.201-2.082-8.544-4.236-10.494-6.153c-1.948-1.912-4.164-6.201-6.307-10.348
		c-3.416-6.611-6.948-13.447-11.852-16.221c-2.691-1.525-6.29-2.204-11.671-2.204c-2.743,0-5.63,0.174-8.422,0.343
		c-2.646,0.16-5.145,0.31-7.375,0.31c-2.131,0-3.702-0.139-4.8-0.425c-2.649-0.689-6.726-3.303-10.668-5.829
		c-6.263-4.014-12.739-8.165-18.433-8.165c-5.644,0.033-12.093,4.271-18.331,8.368c-3.914,2.571-7.961,5.23-10.605,5.95
		c-1.193,0.325-2.956,0.483-5.39,0.483c-2.085,0-4.373-0.113-6.793-0.232c-2.53-0.124-5.146-0.253-7.654-0.253
		c-5.799,0-9.624,0.72-12.404,2.335c-4.875,2.832-8.33,9.71-11.672,16.363c-2.095,4.17-4.261,8.482-6.187,10.418
		c-1.924,1.936-6.241,4.137-10.416,6.265c-6.655,3.392-13.535,6.899-16.327,11.771c-2.797,4.874-2.328,12.547-1.874,19.966
		c0.284,4.651,0.578,9.461-0.114,12.091c-0.695,2.632-3.324,6.68-5.867,10.596c-4.057,6.247-8.253,12.707-8.22,18.317
		c0.031,5.606,4.296,12.013,8.421,18.209c2.59,3.889,5.267,7.911,5.991,10.54c0.725,2.624,0.485,7.439,0.253,12.095
		c-0.37,7.42-0.751,15.093,2.099,19.935c2.847,4.836,9.765,8.266,16.454,11.584c4.202,2.084,8.547,4.238,10.498,6.156
		c1.947,1.911,4.162,6.199,6.304,10.346c3.415,6.612,6.948,13.448,11.854,16.226c2.69,1.523,6.287,2.201,11.663,2.201
		c2.743,0,5.63-0.174,8.424-0.343c2.646-0.16,5.147-0.311,7.379-0.311c2.102,0,3.717,0.143,4.8,0.425
		c2.648,0.691,6.723,3.073,10.664,5.599c6.264,4.014,12.74,7.935,18.369,7.935c0.007,0,0.059,0,0.066,0
		c5.645,0,12.096-4.039,18.334-8.137c3.915-2.572,7.961-5.116,10.605-5.834c1.193-0.325,2.957-0.426,5.392-0.426
		c2.084,0,4.366,0.141,6.784,0.259c2.527,0.124,5.14,0.266,7.645,0.266c5.809,0,9.64-0.715,12.422-2.332
		c4.877-2.833,8.333-9.709,11.674-16.361c2.094-4.167,4.259-8.475,6.183-10.41c1.924-1.934,6.24-4.134,10.414-6.261
		c6.655-3.394,13.538-6.902,16.327-11.773c2.801-4.877,2.331-12.553,1.877-19.976c-0.284-4.648-0.578-9.454,0.112-12.081
		C335.672,183.302,338.303,179.252,340.846,175.336z M334.193,171.071c-3.013,4.638-5.86,9.019-6.877,12.871
		c-1.01,3.844-0.692,9.044-0.355,14.549c0.347,5.685,0.78,12.761-0.853,15.606c-1.625,2.837-7.967,6.071-13.063,8.668
		c-4.946,2.521-9.617,4.903-12.431,7.734c-2.812,2.828-5.154,7.49-7.635,12.427c-2.56,5.094-5.745,11.435-8.589,13.087
		c-1.44,0.838-4.274,1.262-8.422,1.262c-2.31,0-4.824-0.123-7.254-0.242c-2.408-0.118-4.897-0.24-7.175-0.24
		c-3.196,0-5.575,0.242-7.484,0.762c-3.863,1.05-8.243,3.927-12.88,6.975c-4.777,3.138-10.793,7.044-14.082,7.062L227,275.526
		v-3.933c-3,0.001-9.202-3.83-14.004-6.908c-4.669-2.993-9.043-5.819-12.914-6.827c-1.788-0.466-3.934-0.683-6.791-0.683
		c-2.473,0-5.202,0.166-7.85,0.325c-2.675,0.161-5.437,0.329-7.939,0.329c-3.766,0-6.369-0.394-7.74-1.17
		c-2.858-1.618-6.112-7.919-8.729-12.982c-2.538-4.913-4.935-9.553-7.78-12.347c-2.848-2.802-7.55-5.133-12.529-7.601
		c-5.123-2.54-11.498-5.702-13.155-8.517c-1.66-2.82-1.308-9.892-1.025-15.575c0.275-5.517,0.534-10.728-0.526-14.564
		c-1.059-3.84-3.956-8.192-7.023-12.8c-3.158-4.744-7.089-10.649-7.107-13.914c-0.019-3.27,3.848-9.224,6.955-14.008
		c3.012-4.638,5.857-9.019,6.873-12.867c1.013-3.847,0.695-9.051,0.358-14.561c-0.348-5.682-0.78-12.754,0.851-15.596
		c1.626-2.837,7.966-6.069,13.061-8.666c4.947-2.522,9.621-4.904,12.435-7.735c2.814-2.828,5.158-7.495,7.639-12.435
		c2.559-5.095,5.744-11.435,8.584-13.084c1.439-0.836,4.268-1.26,8.407-1.26c2.312,0,4.829,0.123,7.262,0.243
		c2.411,0.119,4.904,0.241,7.185,0.241c3.196,0,5.575-0.243,7.484-0.763c3.862-1.051,8.242-3.928,12.88-6.975
		c4.777-3.138,10.722-7.044,14.028-7.063c3.296,0,9.273,3.831,14.074,6.909c4.671,2.994,9.082,5.821,12.955,6.829
		c1.788,0.465,3.951,0.681,6.807,0.681c2.471,0,5.209-0.165,7.856-0.325c2.674-0.161,5.44-0.328,7.942-0.328
		c3.769,0,6.376,0.394,7.751,1.173c2.856,1.615,6.112,7.916,8.727,12.978c2.539,4.913,4.937,9.554,7.783,12.348
		c2.848,2.801,7.549,5.132,12.526,7.599c5.124,2.54,11.499,5.7,13.156,8.518c1.662,2.824,1.309,9.902,1.026,15.59
		c-0.274,5.511-0.534,10.716,0.522,14.551c1.059,3.838,3.957,8.189,7.025,12.796c3.16,4.746,7.094,10.652,7.113,13.915
		C341.168,160.334,337.3,166.287,334.193,171.071z"/>
</g>
<g>
	<path fill="#FFFFFF" d="M144.022,135.31c0.358,0.612,0.55,1.286,1.021,1.883c0.692,0.702,1.385,1.405,2.078,2.107
		c1.253,1.236,2.621,2.338,4.708,3.044c1.058-0.597,1.688-2.677,1.989-3.825c0.12-0.215,0.24-0.43,0.36-0.644
		c-0.016-0.197-0.032-0.394-0.048-0.591c0.099-0.312,0.198-0.625,0.297-0.938c-0.033-0.128-0.067-0.257-0.1-0.385
		c0.074-0.197,0.147-0.393,0.221-0.59c-0.052-0.174-0.103-0.349-0.155-0.523c-0.071-2.35-0.258-4.049-1.327-6.006
		c-0.068-0.283-0.137-0.566-0.205-0.848c-0.257-0.351-0.513-0.702-0.77-1.052c-0.187-0.422-0.373-0.845-0.56-1.267
		c-0.609-0.629-1.219-1.258-1.828-1.886c-0.753-0.783-1.661-1.505-2.578-2.283c-0.397-0.337-0.657-0.712-1.271-0.963
		c-0.085-0.011-0.17-0.022-0.255-0.033c-0.537,0.34-0.608,0.764-1.074,1.479c-0.305,0.49-0.611,0.981-0.916,1.471
		c-0.04,0.236-0.079,0.473-0.119,0.709c-0.17,0.358-0.34,0.716-0.511,1.074c-0.013,0.235-0.027,0.47-0.04,0.705
		c-0.09,0.177-0.181,0.353-0.271,0.53c0.002,0.229,0.004,0.458,0.006,0.687C142.182,130.337,142.612,132.898,144.022,135.31z"/>
	<path fill="#FFFFFF" d="M144.876,155.184c1.747,1.133,4.405,2.151,6.241,2.447c0.473,0.076,1.459,0.254,1.804,0.013
		c0.282-0.197,0.512-1.092,0.507-1.418c-0.008-0.333-0.015-0.666-0.023-0.999c0.069-0.274,0.139-0.549,0.208-0.824
		c-0.062-0.356-0.123-0.712-0.185-1.068c0.041-0.211,0.082-0.421,0.124-0.631c-0.084-0.188-0.168-0.376-0.253-0.565
		c-0.139-0.664-0.1-1.24-0.246-1.893c-0.057-0.253-0.543-1.13-0.694-1.4c-0.233-0.415-0.336-1-0.569-1.422
		c-0.383-0.697-0.95-1.163-1.429-1.83c-1.61-2.24-3.851-3.994-7.452-5.475c-0.993-0.024-2.307-0.964-3.266-0.981
		c-0.419,0.292-0.987,2.895-0.967,3.426c0.011,0.297,0.164,0.595,0.13,0.93C138.366,147.824,140.864,152.582,144.876,155.184z"/>
	<path fill="#FFFFFF" d="M169.166,129.354c-0.234,0.153-0.468,0.306-0.703,0.459c-0.252,0.31-0.504,0.621-0.756,0.931
		c-0.229,0.142-0.459,0.285-0.688,0.427c-0.271,0.442-0.542,0.883-0.813,1.325c-1.103,1.372-2.49,3.427-2.846,5.511
		c-0.008,0.339-0.015,0.678-0.023,1.017c-0.107,0.448-0.214,0.897-0.322,1.345c0.05,0.237,0.1,0.474,0.15,0.711
		c0.04,1.428-0.03,3.586,0.948,4.589c1.432,0.104,2.909-0.472,4.068-1.109c0.471-0.259,1.088-0.392,1.58-0.616
		c0.196-0.182,0.391-0.365,0.587-0.547c0.503-0.349,1.316-0.672,1.758-1.11c0.222-0.272,0.445-0.545,0.667-0.817
		c0.234-0.153,0.468-0.306,0.703-0.459c0.207-0.355,0.415-0.71,0.622-1.064c0.284-0.296,0.569-0.593,0.853-0.889
		c1.58-1.879,2.095-6.024,2.072-7.782c-0.078-0.261-0.155-0.523-0.233-0.784c0.038-0.262,0.077-0.525,0.115-0.787
		c-0.053-0.517-0.784-3.468-1.091-3.738c-2.364,0.391-4.077,1.779-6.159,2.799C169.493,128.962,169.33,129.158,169.166,129.354z"/>
	<path fill="#FFFFFF" d="M191.978,184.609c-0.066-0.827,0.088-1.521-0.064-2.309c-0.095-0.193-0.19-0.386-0.285-0.578
		c-0.372-1.431-0.928-2.685-1.503-4.028c-0.24-0.242-0.48-0.485-0.72-0.727c-0.08-0.199-0.159-0.398-0.238-0.597
		c-0.188-0.156-0.376-0.313-0.564-0.47c-0.067-0.168-0.135-0.337-0.202-0.505c-0.342-0.273-0.684-0.547-1.026-0.82
		c-0.255-0.292-0.287-0.611-0.789-0.833c-0.43,0.08-0.791,0.096-1.134,0.389c-0.28,0.463-0.561,0.926-0.841,1.389
		c-0.28,0.286-0.559,0.572-0.839,0.857c-0.752,1.034-1.27,2.534-1.845,3.848c-0.444,1.015-0.562,1.998-0.635,2.846
		c-0.107,0.36-0.214,0.72-0.32,1.08c0.023,0.415,0.046,0.831,0.069,1.246c-0.065,0.352-0.13,0.705-0.195,1.057
		c0.079,0.199,0.159,0.398,0.238,0.596c-0.035,0.226-0.07,0.452-0.105,0.677c0.095,0.281,0.189,0.563,0.284,0.844
		c0.379,1.928,0.737,2.916,1.755,4.593c0.069,0.194,0.137,0.388,0.206,0.583c0.572,0.833,1.525,1.483,2.012,2.345
		c1.082,0.73,1.405-0.325,2.091-0.815c1.487-1.063,4.06-5.001,4.46-7.519c-0.025-0.264-0.05-0.529-0.075-0.793
		c0.151-0.518,0.302-1.037,0.452-1.555C192.191,185.121,191.999,184.861,191.978,184.609z"/>
	<path fill="#FFFFFF" d="M172.646,179.443c0.242,0.379,0.331,1.1,0.717,1.524c0.53,0.497,1.322-0.164,1.722-0.327
		c0.835-0.339,1.786-0.884,2.534-1.386c0.258-0.295,0.516-0.59,0.774-0.885c0.22-0.158,0.526-0.211,0.735-0.446
		c0.146-0.216,0.293-0.432,0.439-0.648c0.199-0.13,0.397-0.261,0.595-0.391c0.43-0.716,0.86-1.431,1.29-2.147
		c2.938-4.311,2.173-9.359,0.776-12.368c-0.407-0.878-0.7-2.281-1.647-2.911c-0.777,0.182-1.187,0.726-1.865,1.178
		c-0.212,0.074-0.424,0.148-0.637,0.222c-0.204,0.23-0.407,0.459-0.611,0.689C172.066,165.659,169.521,174.547,172.646,179.443z"/>
	<path fill="#FFFFFF" d="M163.837,162.511c0.002,0.229,0.004,0.458,0.006,0.687c0.109,0.161,0.218,0.322,0.327,0.482
		c0.22,0.832,0.38,1.704,0.954,2.386c0.744,0.267,2.998-1.038,3.638-1.445c0.177-0.051,0.353-0.102,0.529-0.153
		c0.211-0.188,0.422-0.377,0.633-0.565c0.197-0.068,0.393-0.136,0.59-0.203c0.193-0.234,0.386-0.469,0.578-0.703
		c0.16-0.071,0.319-0.142,0.479-0.213c0.227-0.283,0.454-0.566,0.681-0.849c0.298-0.24,0.596-0.48,0.894-0.72
		c1.361-1.603,2.817-5.06,3.136-7.136c0.057-0.372-0.137-0.716-0.12-1.04c0.047-0.195,0.095-0.391,0.142-0.586
		c0.019-0.357-0.125-0.638-0.163-0.944c-0.097-0.779,0.002-1.427-0.166-2.163c-0.1-0.182-0.199-0.364-0.299-0.546
		c-0.123-0.797-0.686-3.208-1.542-3.589c-0.165-0.033-0.331-0.066-0.496-0.098c-2.233,1.235-4.454,2.672-6.335,4.776
		c-0.26,0.446-0.521,0.892-0.781,1.339c-1.43,1.838-2.392,3.84-2.7,6.144c-0.124,0.428-0.248,0.857-0.372,1.285
		c-0.036,0.355,0.155,0.694,0.134,1.008c-0.054,0.357-0.108,0.714-0.163,1.071c0.039,0.147,0.202,0.283,0.23,0.441
		c-0.022,0.168-0.045,0.336-0.067,0.504C163.57,162.02,163.769,162.227,163.837,162.511z"/>
	<path fill="#FFFFFF" d="M158.706,119.51c-0.042,2.1,0.239,4.28,1.276,5.947c0.044,0.222,0.088,0.443,0.131,0.665
		c0.416,0.682,0.854,1.632,1.34,2.209c0.991,0.381,2.108-0.709,2.78-1.242c0.19-0.083,0.381-0.166,0.572-0.249
		c0.208-0.24,0.417-0.481,0.625-0.721c1.359-1.279,3.184-3.081,3.862-5.722c0.746-2.904,0.986-5.447,0.565-7.857
		c0.018-0.246,0.036-0.492,0.054-0.737c-0.111-0.301-0.223-0.603-0.334-0.904c-0.066-0.434-0.132-0.868-0.198-1.302
		c-0.132-0.196-0.264-0.392-0.396-0.588c-0.227-0.664-0.452-1.87-0.907-2.404c-0.049-0.034-0.099-0.068-0.148-0.101
		c-2.051,0.493-3.178,1.413-4.805,2.96c-0.236,0.127-0.471,0.254-0.707,0.382c-0.322,0.47-0.644,0.941-0.967,1.411
		c-0.936,0.963-2.188,3.066-2.536,4.807c0.006,0.307,0.013,0.614,0.019,0.921c-0.137,0.575-0.274,1.15-0.411,1.725
		C158.581,118.975,158.643,119.242,158.706,119.51z"/>
	<path fill="#FFFFFF" d="M191.978,203.889c0.008-0.81-0.849-1.142-1.565-1.697c-0.397-0.411-0.794-0.822-1.191-1.233
		c-0.267-0.152-0.534-0.305-0.8-0.457c-0.215-0.27-0.43-0.539-0.646-0.809c-0.396-0.395-0.938-0.621-1.197-1.045
		c-0.291-0.478-0.891-0.674-1.358-1.115c-0.177-0.24-0.353-0.481-0.53-0.721c-0.28-0.209-0.561-0.418-0.841-0.627
		c-0.138-0.211-0.276-0.423-0.415-0.634c-0.336-0.258-0.672-0.516-1.008-0.774c-0.173-0.277-0.347-0.554-0.52-0.831
		c-0.251-0.158-0.503-0.317-0.754-0.475c-0.144-0.227-0.289-0.453-0.433-0.68c-0.214-0.155-0.428-0.31-0.643-0.466
		c-0.213-0.265-0.314-0.623-0.571-0.891c-0.638-0.666-1.3-1.09-1.824-1.808c-0.112-0.213-0.224-0.426-0.336-0.638
		c-0.214-0.155-0.428-0.31-0.643-0.465c-0.101-0.208-0.202-0.416-0.303-0.624c-0.233-0.201-0.465-0.402-0.698-0.603
		c-0.394-0.449-0.753-1.197-1.119-1.659c-0.228-0.212-0.456-0.423-0.684-0.635c-0.056-0.164-0.113-0.327-0.169-0.491
		c-0.205-0.177-0.41-0.353-0.614-0.53c-0.096-0.219-0.193-0.438-0.289-0.656c-0.2-0.187-0.4-0.374-0.6-0.562
		c-0.311-0.464-0.634-1.098-0.925-1.575c-0.189-0.182-0.379-0.365-0.568-0.548c-0.064-0.205-0.128-0.41-0.192-0.615
		c-0.185-0.193-0.369-0.386-0.554-0.58c-0.301-0.453-0.549-1.068-0.828-1.534c-0.191-0.208-0.382-0.417-0.572-0.626
		c-0.597-1.381-1.497-2.595-2.194-3.944c-0.036-0.18-0.073-0.361-0.109-0.541c-0.489-0.816-0.885-1.624-1.352-2.443
		c-0.049-0.211-0.097-0.422-0.146-0.633c-0.287-0.592-0.599-1.072-0.744-1.726c-0.103-0.466-0.504-0.93-0.662-1.386
		c-0.025-0.176-0.051-0.351-0.076-0.527c-0.121-0.191-0.243-0.383-0.364-0.574c-0.184-0.689-0.542-1.365-0.682-2.041
		c-0.013-0.234-0.026-0.467-0.039-0.701c-0.168-0.624-0.424-1.128-0.511-1.816c-0.141-0.263-0.282-0.527-0.423-0.79
		c-0.342-1.952-0.783-3.901-1.174-5.827c-0.171-0.843,0.031-1.687-0.123-2.524c-0.098-0.533-0.282-1.449-0.283-1.985
		c-0.002-1.793,0.08-3.589,0.038-5.345c0.115-0.407,0.229-0.814,0.344-1.221c-0.04-0.347-0.08-0.694-0.12-1.04
		c0.169-0.676,0.337-1.351,0.506-2.027c-0.017-0.312-0.034-0.623-0.051-0.935c0.174-0.483,0.348-0.966,0.522-1.45
		c0.202-0.927,0.404-1.855,0.607-2.782c0.268-1.042,0.721-1.454,0.553-2.311c-0.753-0.361-1.506-0.721-2.259-1.082
		c-0.165-0.033-0.331-0.066-0.496-0.098c-0.853,0.574-1.625,4.289-1.899,5.46c-0.17,0.725-0.143,1.223-0.278,1.858
		c-0.144,0.445-0.289,0.89-0.433,1.336c0.013,0.437,0.027,0.874,0.04,1.31c-0.098,0.427-0.196,0.854-0.294,1.281
		c0.034,0.243,0.069,0.486,0.103,0.729c-0.098,0.427-0.196,0.854-0.293,1.281c-0.016,0.389,0.163,0.694,0.153,1.054
		c-0.063,0.29-0.126,0.58-0.19,0.869c0.059,0.215,0.119,0.431,0.178,0.647c-0.056,0.42-0.112,0.839-0.168,1.259
		c0.028,0.608,0.109,1.49,0.241,2.081c-0.012,0.35-0.025,0.699-0.037,1.049c0.062,0.267,0.124,0.535,0.187,0.802
		c-0.062,1.366,0.292,2.52,0.507,3.754c-0.011,0.287-0.021,0.574-0.032,0.861c0.192,0.604,0.399,1.285,0.501,1.926
		c-0.005,0.188-0.011,0.376-0.016,0.563c0.152,0.516,0.55,1.108,0.628,1.638c0.135,0.916,0.314,1.917,0.627,2.779
		c0.086,0.126,0.172,0.251,0.258,0.377c0.592,2.429,1.602,5.265,2.86,7.424c0.228,0.391,0.259,0.95,0.439,1.367
		c0.146,0.164,0.292,0.328,0.438,0.492c0.025,0.176,0.051,0.351,0.076,0.527c0.1,0.094,0.2,0.187,0.3,0.281
		c0.059,0.215,0.119,0.431,0.178,0.647c0.522,0.86,1.026,1.629,1.561,2.494c0.042,0.196,0.085,0.391,0.127,0.587
		c2.161,3.444,4.348,6.726,7.004,9.999c0.153,0.294,0.306,0.588,0.46,0.882c0.182,0.141,0.364,0.283,0.545,0.424
		c0.201,0.302,0.402,0.603,0.604,0.905c0.199,0.161,0.397,0.322,0.596,0.484c0.124,0.243,0.248,0.487,0.372,0.73
		c0.248,0.195,0.496,0.39,0.744,0.585c0.133,0.222,0.267,0.444,0.4,0.666c0.22,0.171,0.441,0.341,0.661,0.511
		c0.089,0.178,0.178,0.355,0.267,0.533c0.259,0.2,0.518,0.399,0.776,0.599c0.15,0.242,0.301,0.484,0.451,0.726
		c0.713,0.786,1.424,1.242,2.185,2.039c0.106,0.198,0.212,0.395,0.317,0.592c0.285,0.198,0.57,0.397,0.855,0.595
		c0.266,0.329,0.532,0.659,0.798,0.988c0.263,0.189,0.527,0.378,0.791,0.567c0.121,0.191,0.243,0.383,0.364,0.574
		c0.396,0.296,0.792,0.593,1.188,0.889c0.177,0.223,0.294,0.558,0.548,0.767c0.295,0.177,0.589,0.354,0.884,0.531
		c0.192,0.235,0.384,0.469,0.577,0.703c0.411,0.29,0.823,0.581,1.234,0.871c0.553,0.545,1.04,1.228,2.038,1.672
		c0.457-0.141,0.612-0.374,1.024-0.664C191.119,205.209,191.972,204.509,191.978,203.889z"/>
	<path fill="#FFFFFF" d="M145.959,170.858c0.543,0.283,1.086,0.567,1.629,0.85c3.343,2.135,8.075,2.803,10.604,1.806
		c0.073-0.3-0.084-0.459-0.071-0.715c0.062-0.316,0.123-0.632,0.185-0.947c-0.073-0.183-0.147-0.367-0.22-0.551
		c0.012-0.261,0.024-0.522,0.036-0.783c-0.078-0.464-0.309-1.065-0.494-1.505c-0.034-0.243-0.069-0.486-0.103-0.729
		c-0.129-0.484-0.552-0.912-0.787-1.364c-0.042-0.196-0.085-0.391-0.127-0.587c-0.195-0.198-0.391-0.396-0.586-0.593
		c-0.056-0.164-0.113-0.327-0.169-0.491c-0.183-0.167-0.366-0.335-0.55-0.502c-0.079-0.199-0.159-0.398-0.238-0.597
		c-0.336-0.258-0.672-0.516-1.008-0.774c-1.402-1.422-3.075-2.703-5.521-3.735c-0.827-0.278-1.655-0.557-2.482-0.836
		c-1.573-0.143-3.228-0.34-4.808-0.539c-0.922,0.665-0.411,1.176-0.389,1.849c-0.038,0.262-0.077,0.525-0.115,0.787
		c0.084,0.277,0.168,0.553,0.251,0.83c-0.027,0.178-0.054,0.357-0.081,0.536c0.079,0.567,0.486,1.174,0.586,1.734
		C141.928,166.408,143.901,169.098,145.959,170.858z"/>
	<path fill="#FFFFFF" d="M177.452,197.511c-0.194-0.172-0.388-0.344-0.582-0.516c-0.508-0.753-1.333-1.698-2.151-2.291
		c-0.532-0.279-1.064-0.558-1.596-0.836c-0.341-0.256-0.698-0.576-1.184-0.811c-0.366-0.131-0.732-0.263-1.098-0.394
		c-0.638-0.162-1.387-0.375-2.103-0.559c-0.355-0.127-0.71-0.254-1.065-0.38c-2.69-0.306-6.146-0.131-8.339,0.837
		c-0.199,0.016-0.399,0.032-0.599,0.048c-0.143,0.091-0.285,0.182-0.428,0.273c-0.142,0.002-0.285,0.005-0.427,0.007
		c-0.16,0.036-0.988,0.506-1.153,0.609c-0.293,0.945,1.485,3.056,2,3.861c1.582,2.471,5.215,5.211,9.163,5.524
		c0.55,0.122,1.1,0.243,1.65,0.365c0.129-0.059,0.257-0.118,0.386-0.177c0.336-0.097,0.654,0.121,1.052,0.147
		c0.28-0.083,0.561-0.165,0.841-0.248c0.612-0.097,1.184-0.04,1.777-0.189c0.215-0.11,0.431-0.221,0.646-0.331
		c0.929-0.245,1.906-0.415,2.736-0.881c0.206-0.178,0.413-0.355,0.619-0.533c0.475-0.308,1.008-0.053,1.132-0.998
		c-0.006-0.636-0.799-1.39-1.118-1.924C177.558,197.912,177.505,197.712,177.452,197.511z"/>
	<path fill="#FFFFFF" d="M158.837,188.697c0.186-0.072,0.372-0.145,0.558-0.217c0.371,0.032,0.742,0.064,1.113,0.097
		c0.584-0.04,1.228-0.312,1.779-0.455c0.832-0.215,2.937-0.595,3.512-1.157c0.687-0.671-0.678-3.04-1.111-3.518
		c-0.159-0.176-0.061-0.414-0.16-0.601c-0.224-0.423-0.684-0.882-0.954-1.246c-0.214-0.155-0.428-0.31-0.643-0.466
		c-0.133-0.222-0.267-0.444-0.4-0.666c-0.345-0.4-0.903-0.592-1.396-0.941c-0.245-0.232-0.49-0.463-0.734-0.695
		c-0.86-0.622-1.974-1.057-3.105-1.521c-0.364-0.105-0.729-0.211-1.093-0.316c-1.109-0.222-2.218-0.444-3.327-0.665
		c-0.24,0.049-0.48,0.099-0.72,0.148c-0.326-0.076-0.652-0.153-0.978-0.229c-0.293,0.052-0.585,0.104-0.877,0.156
		c-0.349-0.023-0.699-0.046-1.048-0.069c-0.149,0.076-0.298,0.151-0.446,0.227c-0.275-0.017-0.55-0.033-0.825-0.05
		c-0.164,0.082-0.329,0.163-0.493,0.245c-0.578,0.131-2.534,0.186-2.58,1.138c-0.028,0.73,1.077,2.56,1.46,3.25
		c0.297,0.534,0.556,1.258,0.92,1.763c0.255,0.236,0.511,0.473,0.767,0.709c0.095,0.193,0.19,0.386,0.285,0.578
		c0.336,0.258,0.672,0.516,1.008,0.774c0.247,0.266,0.501,0.647,0.84,0.892c0.711,0.368,1.422,0.736,2.133,1.104
		c0.708,0.448,1.54,0.717,2.296,0.908c0.554,0.199,1.108,0.399,1.662,0.598c0.464-0.004,0.928-0.008,1.392-0.012
		C158.058,188.541,158.448,188.619,158.837,188.697z"/>
	<path fill="#FFFFFF" d="M311.625,158.269c-1.579,0.2-3.234,0.396-4.808,0.539c-0.827,0.278-1.655,0.557-2.482,0.836
		c-2.447,1.032-4.119,2.313-5.521,3.735c-0.336,0.258-0.672,0.516-1.008,0.774c-0.079,0.199-0.159,0.398-0.238,0.597
		c-0.183,0.167-0.366,0.335-0.55,0.502c-0.057,0.164-0.113,0.327-0.169,0.491c-0.195,0.198-0.391,0.396-0.586,0.593
		c-0.042,0.196-0.085,0.391-0.127,0.587c-0.235,0.451-0.658,0.88-0.787,1.364c-0.034,0.243-0.069,0.486-0.103,0.729
		c-0.185,0.44-0.416,1.04-0.494,1.505c0.012,0.261,0.024,0.522,0.036,0.783c-0.073,0.184-0.147,0.367-0.22,0.551
		c0.062,0.316,0.124,0.632,0.185,0.947c0.013,0.256-0.144,0.415-0.071,0.715c2.529,0.996,7.261,0.329,10.604-1.806
		c0.543-0.283,1.086-0.567,1.629-0.85c2.059-1.76,4.031-4.451,4.458-6.854c0.1-0.561,0.507-1.167,0.586-1.734
		c-0.027-0.178-0.054-0.357-0.081-0.536c0.084-0.277,0.167-0.553,0.251-0.83c-0.038-0.262-0.077-0.525-0.115-0.787
		C312.035,159.445,312.546,158.933,311.625,158.269z"/>
	<path fill="#FFFFFF" d="M283.582,120.395c0.678,2.641,2.503,4.443,3.862,5.722c0.208,0.24,0.417,0.481,0.625,0.721
		c0.191,0.083,0.381,0.166,0.572,0.249c0.672,0.533,1.788,1.623,2.78,1.242c0.486-0.577,0.924-1.527,1.34-2.209
		c0.044-0.222,0.088-0.443,0.131-0.665c1.037-1.666,1.318-3.847,1.276-5.947c0.062-0.267,0.124-0.535,0.186-0.802
		c-0.137-0.575-0.274-1.15-0.411-1.725c0.006-0.307,0.013-0.614,0.019-0.921c-0.348-1.741-1.601-3.844-2.536-4.807
		c-0.322-0.47-0.645-0.941-0.967-1.411c-0.236-0.127-0.471-0.254-0.707-0.382c-1.627-1.547-2.754-2.467-4.805-2.96
		c-0.049,0.034-0.099,0.068-0.148,0.101c-0.455,0.534-0.68,1.74-0.907,2.404c-0.132,0.196-0.264,0.392-0.396,0.588
		c-0.066,0.434-0.132,0.868-0.198,1.302c-0.111,0.301-0.223,0.603-0.334,0.904c0.018,0.246,0.036,0.492,0.054,0.737
		C282.597,114.948,282.837,117.491,283.582,120.395z"/>
	<path fill="#FFFFFF" d="M305.388,176.76c-0.164-0.082-0.329-0.163-0.493-0.245c-0.275,0.016-0.55,0.033-0.825,0.05
		c-0.149-0.076-0.298-0.151-0.446-0.227c-0.349,0.023-0.699,0.046-1.048,0.069c-0.292-0.052-0.585-0.104-0.877-0.156
		c-0.326,0.076-0.652,0.153-0.978,0.229c-0.24-0.049-0.48-0.099-0.72-0.148c-1.109,0.222-2.218,0.444-3.327,0.665
		c-0.364,0.105-0.729,0.211-1.093,0.316c-1.132,0.464-2.245,0.899-3.105,1.521c-0.245,0.232-0.49,0.463-0.734,0.695
		c-0.493,0.349-1.051,0.541-1.396,0.941c-0.134,0.222-0.267,0.444-0.401,0.666c-0.214,0.155-0.428,0.31-0.643,0.466
		c-0.27,0.364-0.73,0.823-0.954,1.246c-0.099,0.186-0.001,0.425-0.16,0.601c-0.432,0.478-1.798,2.847-1.111,3.518
		c0.575,0.562,2.68,0.942,3.512,1.157c0.551,0.142,1.195,0.414,1.779,0.455c0.371-0.032,0.742-0.064,1.113-0.097
		c0.186,0.072,0.372,0.145,0.558,0.217c0.389-0.078,0.779-0.156,1.168-0.234c0.464,0.004,0.928,0.008,1.392,0.012
		c0.554-0.199,1.108-0.399,1.662-0.598c0.757-0.191,1.589-0.46,2.296-0.908c0.711-0.368,1.422-0.736,2.133-1.104
		c0.339-0.245,0.593-0.627,0.84-0.892c0.336-0.258,0.672-0.516,1.008-0.774c0.095-0.193,0.19-0.386,0.285-0.578
		c0.256-0.236,0.511-0.473,0.767-0.709c0.364-0.505,0.623-1.229,0.92-1.763c0.383-0.689,1.488-2.52,1.46-3.25
		C307.922,176.946,305.965,176.892,305.388,176.76z"/>
	<path fill="#FFFFFF" d="M314.196,142.564c0.021-0.532-0.547-3.135-0.967-3.426c-0.958,0.017-2.272,0.957-3.266,0.981
		c-3.601,1.481-5.842,3.235-7.452,5.475c-0.479,0.667-1.046,1.133-1.43,1.83c-0.232,0.422-0.336,1.007-0.569,1.422
		c-0.151,0.27-0.637,1.147-0.694,1.4c-0.146,0.653-0.108,1.229-0.246,1.893c-0.084,0.188-0.168,0.376-0.252,0.565
		c0.041,0.21,0.082,0.421,0.123,0.631c-0.062,0.356-0.123,0.712-0.185,1.068c0.069,0.274,0.139,0.549,0.208,0.824
		c-0.008,0.333-0.015,0.666-0.023,0.999c-0.004,0.325,0.226,1.22,0.507,1.418c0.345,0.242,1.331,0.064,1.804-0.013
		c1.837-0.296,4.494-1.313,6.241-2.447c4.012-2.602,6.51-7.36,6.069-11.689C314.032,143.159,314.185,142.861,314.196,142.564z"/>
	<path fill="#FFFFFF" d="M271.831,185.399c0.023-0.415,0.046-0.831,0.069-1.246c-0.107-0.36-0.214-0.72-0.32-1.08
		c-0.072-0.848-0.191-1.831-0.635-2.846c-0.575-1.314-1.093-2.815-1.845-3.848c-0.28-0.286-0.559-0.572-0.839-0.857
		c-0.28-0.463-0.561-0.926-0.841-1.389c-0.342-0.293-0.704-0.308-1.134-0.389c-0.503,0.222-0.534,0.541-0.789,0.833
		c-0.342,0.273-0.684,0.547-1.026,0.82c-0.067,0.168-0.135,0.337-0.202,0.505c-0.188,0.156-0.376,0.313-0.564,0.47
		c-0.08,0.199-0.159,0.398-0.238,0.597c-0.24,0.242-0.48,0.485-0.72,0.727c-0.575,1.343-1.131,2.597-1.503,4.028
		c-0.095,0.193-0.19,0.386-0.285,0.578c-0.151,0.787,0.002,1.482-0.064,2.309c-0.02,0.252-0.212,0.512-0.186,0.802
		c0.151,0.518,0.302,1.037,0.452,1.555c-0.025,0.264-0.05,0.529-0.075,0.793c0.4,2.518,2.973,6.456,4.46,7.519
		c0.686,0.49,1.009,1.546,2.091,0.815c0.486-0.862,1.439-1.512,2.012-2.345c0.069-0.194,0.137-0.388,0.206-0.583
		c1.019-1.677,1.376-2.665,1.755-4.593c0.095-0.281,0.189-0.563,0.284-0.844c-0.035-0.226-0.07-0.452-0.105-0.677
		c0.08-0.199,0.159-0.398,0.238-0.596C271.961,186.103,271.896,185.751,271.831,185.399z"/>
	<path fill="#FFFFFF" d="M271.42,174.737c0.43,0.716,0.86,1.431,1.29,2.147c0.198,0.13,0.397,0.261,0.595,0.391
		c0.146,0.216,0.293,0.432,0.439,0.648c0.209,0.234,0.515,0.288,0.735,0.446c0.258,0.295,0.516,0.59,0.774,0.885
		c0.748,0.502,1.7,1.047,2.534,1.386c0.401,0.163,1.192,0.824,1.722,0.327c0.385-0.423,0.475-1.145,0.717-1.524
		c3.125-4.896,0.58-13.784-4.823-17.897c-0.204-0.23-0.407-0.459-0.611-0.689c-0.212-0.074-0.424-0.148-0.636-0.222
		c-0.679-0.452-1.089-0.996-1.866-1.178c-0.947,0.631-1.24,2.034-1.647,2.911C269.248,165.378,268.482,170.426,271.42,174.737z"/>
	<path fill="#FFFFFF" d="M277.921,139.059c0.284,0.296,0.569,0.593,0.853,0.889c0.207,0.355,0.415,0.71,0.622,1.064
		c0.234,0.153,0.468,0.306,0.702,0.459c0.222,0.272,0.445,0.545,0.667,0.817c0.443,0.438,1.255,0.76,1.758,1.11
		c0.196,0.182,0.391,0.365,0.587,0.547c0.492,0.223,1.109,0.357,1.58,0.616c1.159,0.637,2.636,1.213,4.068,1.109
		c0.978-1.003,0.908-3.161,0.948-4.589c0.05-0.237,0.1-0.474,0.15-0.711c-0.107-0.448-0.214-0.897-0.322-1.345
		c-0.008-0.339-0.016-0.678-0.023-1.017c-0.356-2.084-1.742-4.139-2.846-5.511c-0.271-0.442-0.542-0.883-0.813-1.325
		c-0.229-0.142-0.459-0.285-0.688-0.427c-0.252-0.31-0.504-0.621-0.756-0.931c-0.234-0.153-0.468-0.306-0.702-0.459
		c-0.163-0.196-0.327-0.393-0.49-0.589c-2.082-1.02-3.795-2.408-6.159-2.799c-0.307,0.27-1.039,3.221-1.091,3.738
		c0.038,0.262,0.077,0.525,0.115,0.787c-0.078,0.261-0.155,0.523-0.233,0.784C275.827,133.035,276.342,137.18,277.921,139.059z"/>
	<path fill="#FFFFFF" d="M294.993,192.889c-0.142-0.003-0.285-0.005-0.427-0.007c-0.143-0.091-0.285-0.182-0.428-0.273
		c-0.2-0.016-0.399-0.032-0.599-0.048c-2.193-0.968-5.649-1.143-8.339-0.837c-0.355,0.127-0.71,0.254-1.065,0.38
		c-0.716,0.184-1.465,0.397-2.103,0.559c-0.366,0.131-0.732,0.263-1.098,0.394c-0.486,0.235-0.843,0.555-1.184,0.811
		c-0.532,0.279-1.064,0.557-1.596,0.836c-0.818,0.593-1.643,1.538-2.151,2.291c-0.194,0.172-0.388,0.344-0.582,0.516
		c-0.053,0.2-0.106,0.401-0.16,0.601c-0.319,0.535-1.113,1.288-1.118,1.924c0.124,0.945,0.656,0.69,1.132,0.998
		c0.206,0.178,0.413,0.355,0.619,0.533c0.83,0.466,1.807,0.636,2.736,0.881c0.215,0.11,0.431,0.221,0.646,0.331
		c0.593,0.149,1.165,0.092,1.777,0.189c0.28,0.083,0.56,0.165,0.841,0.248c0.399-0.026,0.717-0.244,1.052-0.147
		c0.129,0.059,0.257,0.118,0.386,0.177c0.55-0.122,1.1-0.243,1.65-0.365c3.949-0.313,7.582-3.053,9.163-5.524
		c0.515-0.805,2.293-2.916,2-3.861C295.981,193.394,295.153,192.925,294.993,192.889z"/>
	<path fill="#FFFFFF" d="M274.878,195.311c0.15-0.242,0.301-0.484,0.451-0.726c0.259-0.2,0.518-0.399,0.777-0.599
		c0.089-0.178,0.178-0.355,0.267-0.533c0.22-0.17,0.441-0.341,0.661-0.511c0.133-0.222,0.267-0.444,0.4-0.666
		c0.248-0.195,0.496-0.39,0.744-0.585c0.124-0.243,0.248-0.487,0.372-0.73c0.199-0.161,0.397-0.322,0.596-0.484
		c0.201-0.302,0.402-0.603,0.603-0.905c0.182-0.141,0.364-0.283,0.545-0.424c0.153-0.294,0.307-0.588,0.46-0.882
		c2.656-3.273,4.844-6.555,7.004-9.999c0.042-0.196,0.085-0.391,0.127-0.587c0.535-0.865,1.039-1.634,1.561-2.494
		c0.059-0.216,0.119-0.431,0.178-0.647c0.1-0.094,0.2-0.187,0.3-0.281c0.026-0.176,0.051-0.351,0.076-0.527
		c0.146-0.164,0.292-0.328,0.438-0.492c0.18-0.417,0.211-0.975,0.439-1.367c1.258-2.159,2.268-4.995,2.86-7.424
		c0.086-0.126,0.172-0.251,0.258-0.377c0.313-0.862,0.492-1.862,0.627-2.779c0.078-0.53,0.476-1.122,0.628-1.638
		c-0.006-0.188-0.011-0.376-0.017-0.563c0.103-0.641,0.31-1.322,0.501-1.926c-0.011-0.287-0.021-0.574-0.032-0.861
		c0.215-1.234,0.569-2.388,0.507-3.754c0.062-0.267,0.124-0.535,0.187-0.802c-0.012-0.35-0.025-0.699-0.037-1.049
		c0.132-0.591,0.213-1.473,0.241-2.081c-0.056-0.42-0.112-0.839-0.168-1.259c0.059-0.216,0.119-0.431,0.178-0.647
		c-0.063-0.29-0.126-0.58-0.19-0.869c-0.01-0.36,0.169-0.665,0.153-1.054c-0.098-0.427-0.196-0.854-0.294-1.281
		c0.034-0.243,0.069-0.486,0.103-0.729c-0.098-0.427-0.196-0.854-0.293-1.281c0.013-0.437,0.027-0.874,0.04-1.31
		c-0.144-0.445-0.289-0.89-0.433-1.336c-0.135-0.635-0.108-1.134-0.278-1.858c-0.275-1.172-1.046-4.886-1.899-5.46
		c-0.165,0.033-0.331,0.066-0.496,0.098c-0.753,0.361-1.506,0.721-2.258,1.082c-0.168,0.857,0.285,1.268,0.553,2.311
		c0.202,0.927,0.404,1.855,0.607,2.782c0.174,0.483,0.348,0.966,0.522,1.45c-0.017,0.312-0.034,0.623-0.051,0.935
		c0.168,0.675,0.337,1.351,0.506,2.027c-0.04,0.347-0.08,0.694-0.12,1.04c0.115,0.407,0.229,0.814,0.344,1.221
		c-0.042,1.757,0.041,3.552,0.039,5.345c-0.001,0.535-0.185,1.452-0.283,1.985c-0.154,0.837,0.048,1.682-0.123,2.524
		c-0.391,1.926-0.833,3.875-1.174,5.827c-0.141,0.263-0.282,0.527-0.423,0.79c-0.087,0.688-0.343,1.192-0.511,1.816
		c-0.013,0.234-0.026,0.467-0.039,0.701c-0.14,0.676-0.498,1.352-0.682,2.041c-0.121,0.191-0.243,0.383-0.364,0.574
		c-0.025,0.176-0.051,0.351-0.076,0.527c-0.157,0.456-0.559,0.92-0.662,1.386c-0.144,0.654-0.457,1.133-0.743,1.726
		c-0.048,0.211-0.097,0.422-0.146,0.633c-0.467,0.818-0.864,1.626-1.352,2.443c-0.036,0.18-0.073,0.361-0.109,0.541
		c-0.697,1.35-1.598,2.564-2.194,3.944c-0.191,0.209-0.382,0.417-0.572,0.626c-0.279,0.465-0.527,1.081-0.828,1.534
		c-0.185,0.193-0.369,0.386-0.554,0.58c-0.064,0.205-0.128,0.41-0.192,0.615c-0.189,0.183-0.379,0.365-0.568,0.548
		c-0.291,0.477-0.614,1.111-0.925,1.575c-0.2,0.187-0.4,0.374-0.6,0.562c-0.096,0.219-0.193,0.438-0.289,0.656
		c-0.205,0.176-0.41,0.353-0.614,0.53c-0.056,0.164-0.113,0.327-0.169,0.491c-0.228,0.212-0.456,0.423-0.684,0.635
		c-0.366,0.462-0.725,1.21-1.12,1.659c-0.233,0.201-0.465,0.402-0.698,0.603c-0.101,0.208-0.202,0.416-0.303,0.624
		c-0.214,0.155-0.428,0.31-0.643,0.465c-0.112,0.213-0.224,0.425-0.336,0.638c-0.524,0.719-1.186,1.142-1.824,1.808
		c-0.257,0.268-0.358,0.627-0.571,0.891c-0.214,0.155-0.428,0.31-0.643,0.466c-0.144,0.227-0.289,0.453-0.433,0.68
		c-0.251,0.158-0.503,0.317-0.754,0.475c-0.173,0.277-0.347,0.554-0.52,0.831c-0.336,0.258-0.672,0.516-1.008,0.774
		c-0.138,0.211-0.276,0.423-0.415,0.634c-0.28,0.209-0.561,0.418-0.841,0.627c-0.177,0.24-0.353,0.481-0.53,0.721
		c-0.468,0.44-1.067,0.637-1.358,1.115c-0.259,0.424-0.801,0.65-1.197,1.045c-0.215,0.27-0.43,0.539-0.646,0.809
		c-0.267,0.152-0.534,0.305-0.8,0.457c-0.397,0.411-0.794,0.822-1.191,1.233c-0.716,0.556-1.572,0.887-1.565,1.697
		c0.006,0.62,0.858,1.32,1.181,1.547c0.412,0.29,0.566,0.523,1.024,0.664c0.998-0.444,1.485-1.127,2.038-1.672
		c0.411-0.29,0.823-0.581,1.234-0.871c0.192-0.234,0.384-0.469,0.577-0.703c0.295-0.177,0.589-0.354,0.884-0.531
		c0.254-0.21,0.371-0.544,0.548-0.767c0.396-0.296,0.792-0.593,1.188-0.889c0.121-0.191,0.243-0.383,0.364-0.574
		c0.263-0.189,0.527-0.378,0.791-0.567c0.266-0.329,0.532-0.659,0.798-0.988c0.285-0.198,0.57-0.397,0.855-0.595
		c0.106-0.197,0.212-0.395,0.317-0.592C273.454,196.553,274.165,196.097,274.878,195.311z"/>
	<path fill="#FFFFFF" d="M298.448,136.346c0.099,0.312,0.198,0.625,0.297,0.938c-0.016,0.197-0.032,0.394-0.048,0.591
		c0.12,0.215,0.24,0.429,0.36,0.644c0.301,1.148,0.93,3.228,1.989,3.825c2.086-0.706,3.455-1.808,4.708-3.044
		c0.693-0.702,1.385-1.405,2.078-2.107c0.471-0.597,0.663-1.27,1.021-1.883c1.41-2.413,1.84-4.973,1.349-8.145
		c0.002-0.229,0.004-0.458,0.006-0.687c-0.091-0.177-0.181-0.353-0.271-0.53c-0.013-0.235-0.027-0.47-0.04-0.705
		c-0.17-0.358-0.34-0.716-0.511-1.074c-0.04-0.236-0.079-0.473-0.119-0.709c-0.305-0.49-0.611-0.981-0.916-1.471
		c-0.465-0.716-0.536-1.139-1.074-1.479c-0.085,0.011-0.17,0.022-0.255,0.033c-0.614,0.251-0.874,0.626-1.271,0.963
		c-0.917,0.778-1.825,1.5-2.578,2.283c-0.609,0.629-1.219,1.258-1.828,1.886c-0.187,0.422-0.373,0.844-0.56,1.267
		c-0.257,0.351-0.513,0.702-0.77,1.052c-0.068,0.283-0.136,0.566-0.205,0.848c-1.069,1.957-1.256,3.656-1.327,6.006
		c-0.052,0.174-0.103,0.349-0.155,0.523c0.074,0.197,0.147,0.393,0.221,0.59C298.515,136.089,298.481,136.218,298.448,136.346z"/>
	<path fill="#FFFFFF" d="M289.288,159.665c-0.021-0.315,0.171-0.654,0.134-1.008c-0.124-0.428-0.248-0.857-0.372-1.285
		c-0.308-2.304-1.27-4.306-2.7-6.144c-0.26-0.446-0.52-0.892-0.781-1.339c-1.881-2.104-4.102-3.542-6.335-4.776
		c-0.165,0.033-0.331,0.066-0.496,0.098c-0.856,0.381-1.419,2.792-1.542,3.589c-0.1,0.182-0.199,0.364-0.299,0.546
		c-0.168,0.736-0.07,1.383-0.166,2.163c-0.038,0.307-0.182,0.588-0.163,0.944c0.047,0.195,0.095,0.39,0.142,0.586
		c0.016,0.325-0.178,0.668-0.12,1.04c0.319,2.076,1.775,5.533,3.136,7.136c0.298,0.24,0.596,0.48,0.894,0.72
		c0.227,0.283,0.454,0.566,0.681,0.849c0.16,0.071,0.319,0.142,0.479,0.213c0.193,0.234,0.386,0.469,0.578,0.703
		c0.197,0.068,0.393,0.136,0.59,0.203c0.211,0.188,0.422,0.377,0.633,0.565c0.177,0.051,0.353,0.102,0.53,0.153
		c0.641,0.407,2.894,1.711,3.638,1.445c0.574-0.682,0.734-1.554,0.954-2.386c0.109-0.161,0.218-0.322,0.327-0.482
		c0.002-0.229,0.004-0.458,0.006-0.687c0.068-0.284,0.267-0.491,0.251-0.83c-0.022-0.168-0.045-0.336-0.067-0.504
		c0.028-0.158,0.191-0.293,0.23-0.441C289.396,160.379,289.342,160.022,289.288,159.665z"/>
	<path fill="#FFFFFF" d="M206.193,213.018h41.149v-27.602h-41.149V213.018z M224.308,197.007l2.48-7.734l2.872,7.734h8.18
		l-6.766,4.984l2.632,7.777l-6.788-4.683l-6.831,4.683l2.524-7.691l-6.875-5.113L224.308,197.007z"/>
	<path fill="#FFFFFF" d="M190.682,228.861c0.35,0.298,4,0.105,4.797,0.105h67.64c0.018-2.088,0.036-4.176,0.053-6.264
		c-24.161-0.017-48.329-0.035-72.49-0.053V228.861z"/>
	<path fill="#FFFFFF" d="M198.251,220.492h57.139v-42.761h-57.139V220.492z M204.007,183.257h45.519v31.918h-45.519V183.257z"/>
	<path fill="#FFFFFF" d="M186.045,108.779c2.34,8.649,5.147,16.287,9.967,22.423l1.812,1.79c0.993,1.105,2.173,2.261,3.465,3.053
		c2.133,1.307,4.341,2.047,7.196,2.737c1.35,0.035,2.701,0.07,4.051,0.105c0.533,0.491,1.066,0.982,1.599,1.474
		c1.43,1.072,2.952,1.893,4.637,2.737c0.34,1.837-0.523,5.724-0.853,7.474c-1.098,5.836-2.553,11.023-5.437,15.054
		c-1.003,1.402-2.171,3.308-3.838,4c-0.036,0.053-0.071,0.105-0.107,0.158h36.405c-0.391-0.281-0.782-0.561-1.173-0.842
		c-0.979-0.792-2.015-1.948-2.718-3c-2.914-4.362-3.86-8.843-5.49-14.527c-0.036-0.456-0.071-0.912-0.107-1.369
		c-0.375-1.668-0.381-3.486-0.693-5.369c-0.053-0.456-0.107-0.912-0.16-1.369c0.082-0.347,2.491-1.384,2.932-1.684
		c0.799-0.596,1.599-1.193,2.399-1.79c0.32-0.316,0.64-0.632,0.959-0.947c1.421-0.035,2.843-0.07,4.264-0.105
		c2.434-0.646,4.462-1.172,6.343-2.263c9.329-5.411,14.743-19.844,17.11-32.318c0.579-3.051,0.952-6.357,1.599-9.632
		c0.089-1.105,0.178-2.211,0.267-3.316c-0.184-0.273-2.944-0.158-3.571-0.158h-10.767c-0.036-0.053-0.071-0.105-0.107-0.158
		c-0.349-1.152,0.433-3.503,0.053-4.948c-19.489-0.017-38.983-0.035-58.472-0.053c-0.597,0.456-0.232,3.953-0.213,5.053
		c-0.907,0.401-2.86,0.105-3.998,0.105c-3.393,0.018-6.787,0.035-10.181,0.053c-0.399,0.769,0.183,3.996,0.373,5
		C184.425,100.54,184.962,104.776,186.045,108.779z M246.702,131.254c0.622-1.281,1.244-2.562,1.866-3.842
		c1.624-3.737,2.907-7.809,4.051-12.001c1.057-3.873,1.51-8.033,2.292-12.106c0.326-1.698,0.126-5.039,0.746-6.422
		c2.736,0.018,5.473,0.035,8.208,0.053c0.292,0.722-0.258,2.4-0.426,3.211c-0.566,2.723-0.965,5.345-1.546,7.79
		c-1.643,6.918-3.615,13.288-7.036,18.422c-1.115,1.674-2.191,3.391-3.784,4.579c-1.711,1.277-2.989,1.524-5.224,2.316h-0.32
		C245.652,132.49,246.334,131.837,246.702,131.254z M192.867,96.883h4.85c0.643,1.072,0.33,3.123,0.586,4.474
		c0.586,3.544,1.173,7.089,1.759,10.632c1.287,5.098,2.525,10.053,4.424,14.527c0.64,1.368,1.279,2.737,1.919,4.106
		c0.424,0.775,1.297,1.591,1.439,2.579c-0.053,0.018-0.107,0.035-0.16,0.053c-2.022-0.768-3.619-1.126-5.117-2.316
		c-5.606-4.454-8.318-13.481-10.554-21.317c-0.854-2.994-1.167-5.9-1.812-9.106c-0.196-1.158-0.391-2.316-0.586-3.474
		C189.71,96.825,192.432,97.038,192.867,96.883z"/>
	<path fill="#FFFFFF" d="M202.888,171.941c-0.018,1.193-0.036,2.386-0.053,3.579v0.053h47.758v-3.632H202.888z"/>
</g>
</svg>
