<?xml version="1.0" encoding="utf-8"?>
<!-- Generator: Adobe Illustrator 17.0.0, SVG Export Plug-In . SVG Version: 6.00 Build 0)  -->
<!DOCTYPE svg PUBLIC "-//W3C//DTD SVG 1.1//EN" "http://www.w3.org/Graphics/SVG/1.1/DTD/svg11.dtd">
<svg version="1.1" id="Layer_1" xmlns="http://www.w3.org/2000/svg" xmlns:xlink="http://www.w3.org/1999/xlink" x="0px" y="0px"
	 width="458px" height="313px" viewBox="0 0 458 313" enable-background="new 0 0 458 313" xml:space="preserve">
<linearGradient id="SVGID_1_" gradientUnits="userSpaceOnUse" x1="531.286" y1="400.7148" x2="673.7789" y2="657.202" gradientTransform="matrix(1 0 0 1 -334 -299)">
	<stop  offset="0" style="stop-color:#2BC4F3"/>
	<stop  offset="0.5" style="stop-color:#00AEEE"/>
	<stop  offset="1" style="stop-color:#0095DA"/>
</linearGradient>
<ellipse fill="url(#SVGID_1_)" cx="228" cy="157" rx="142" ry="141"/>
<g>
	<path fill="#FFFFFF" d="M227.752,35.962c-67.683,0-122.748,54.443-122.748,121.352c0,66.909,55.065,121.352,122.748,121.352
		S350.5,224.223,350.5,157.313C350.5,90.404,295.435,35.962,227.752,35.962z M227.752,271.582
		c-63.729,0-115.579-51.258-115.579-114.269c0-63.011,51.843-114.269,115.579-114.269s115.579,51.258,115.579,114.269
		C343.331,220.325,291.481,271.582,227.752,271.582z"/>
	<path fill="#FFFFFF" d="M145.148,135.173c0.359,0.612,0.552,1.284,1.023,1.88c0.694,0.701,1.388,1.403,2.082,2.104
		c1.256,1.234,2.627,2.335,4.719,3.04c1.061-0.596,1.692-2.673,1.993-3.82c0.12-0.214,0.241-0.429,0.361-0.643
		c-0.016-0.197-0.032-0.393-0.048-0.59c0.099-0.312,0.198-0.624,0.297-0.936c-0.034-0.128-0.067-0.257-0.1-0.385
		c0.074-0.196,0.147-0.393,0.221-0.589c-0.052-0.174-0.104-0.348-0.156-0.522c-0.071-2.347-0.259-4.043-1.33-5.998
		c-0.068-0.282-0.137-0.565-0.205-0.847c-0.257-0.35-0.514-0.701-0.772-1.051c-0.187-0.422-0.374-0.843-0.561-1.265
		c-0.611-0.628-1.222-1.256-1.832-1.884c-0.755-0.782-1.665-1.503-2.584-2.28c-0.398-0.337-0.659-0.711-1.274-0.962
		c-0.085-0.011-0.17-0.022-0.256-0.033c-0.538,0.34-0.61,0.763-1.076,1.477c-0.306,0.49-0.612,0.979-0.918,1.469
		c-0.04,0.236-0.08,0.472-0.12,0.708c-0.171,0.358-0.341,0.715-0.512,1.073c-0.013,0.235-0.027,0.47-0.04,0.704
		c-0.091,0.176-0.181,0.353-0.272,0.529c0.002,0.229,0.004,0.457,0.006,0.686C143.304,130.206,143.735,132.763,145.148,135.173z"/>
	<path fill="#FFFFFF" d="M146.005,155.019c1.751,1.132,4.415,2.148,6.256,2.443c0.474,0.076,1.463,0.254,1.808,0.013
		c0.282-0.197,0.513-1.091,0.509-1.416c-0.008-0.332-0.015-0.665-0.023-0.997c0.069-0.274,0.139-0.548,0.208-0.822
		c-0.062-0.356-0.124-0.711-0.186-1.067c0.041-0.21,0.083-0.42,0.124-0.631c-0.084-0.188-0.169-0.376-0.253-0.564
		c-0.139-0.663-0.1-1.238-0.247-1.89c-0.057-0.253-0.544-1.129-0.696-1.398c-0.233-0.415-0.337-0.999-0.57-1.421
		c-0.384-0.696-0.952-1.161-1.433-1.827c-1.614-2.237-3.86-3.988-7.469-5.467c-0.996-0.024-2.312-0.962-3.273-0.98
		c-0.42,0.291-0.99,2.891-0.969,3.422c0.011,0.296,0.165,0.594,0.131,0.929C139.48,147.669,141.983,152.42,146.005,155.019z"/>
	<path fill="#FFFFFF" d="M170.35,129.225c-0.235,0.153-0.469,0.306-0.704,0.459c-0.252,0.31-0.505,0.62-0.757,0.93
		c-0.23,0.142-0.46,0.285-0.69,0.427c-0.272,0.441-0.543,0.882-0.815,1.323c-1.106,1.37-2.495,3.423-2.852,5.504
		c-0.008,0.338-0.015,0.677-0.023,1.015c-0.108,0.448-0.215,0.896-0.322,1.343c0.05,0.237,0.1,0.473,0.15,0.71
		c0.04,1.427-0.03,3.581,0.95,4.583c1.435,0.104,2.916-0.471,4.078-1.107c0.472-0.258,1.09-0.392,1.583-0.615
		c0.196-0.182,0.392-0.364,0.588-0.546c0.504-0.349,1.319-0.671,1.762-1.108c0.223-0.272,0.446-0.544,0.669-0.816
		c0.235-0.153,0.47-0.306,0.704-0.459c0.208-0.354,0.415-0.709,0.623-1.063c0.285-0.296,0.57-0.592,0.855-0.888
		c1.583-1.876,2.1-6.015,2.077-7.771c-0.078-0.261-0.156-0.522-0.233-0.783c0.038-0.262,0.077-0.524,0.115-0.786
		c-0.053-0.516-0.786-3.463-1.094-3.733c-2.369,0.39-4.087,1.776-6.173,2.795C170.678,128.833,170.514,129.029,170.35,129.225z"/>
	<path fill="#FFFFFF" d="M193.215,184.404c-0.066-0.825,0.088-1.519-0.064-2.306c-0.095-0.193-0.19-0.385-0.286-0.578
		c-0.373-1.429-0.93-2.681-1.506-4.023c-0.241-0.242-0.481-0.484-0.722-0.726c-0.08-0.199-0.159-0.397-0.239-0.596
		c-0.188-0.156-0.377-0.313-0.565-0.469c-0.067-0.168-0.135-0.336-0.202-0.504c-0.343-0.273-0.685-0.546-1.028-0.819
		c-0.256-0.291-0.287-0.61-0.791-0.831c-0.431,0.08-0.793,0.096-1.136,0.388c-0.281,0.462-0.562,0.925-0.843,1.387
		c-0.28,0.285-0.561,0.571-0.841,0.856c-0.754,1.032-1.273,2.531-1.849,3.843c-0.445,1.013-0.564,1.996-0.636,2.842
		c-0.107,0.359-0.214,0.719-0.321,1.078c0.023,0.415,0.046,0.83,0.069,1.245c-0.065,0.352-0.13,0.704-0.196,1.056
		c0.08,0.199,0.159,0.397,0.239,0.596c-0.035,0.226-0.07,0.451-0.105,0.677c0.095,0.281,0.19,0.562,0.284,0.843
		c0.38,1.926,0.739,2.912,1.759,4.587c0.069,0.194,0.138,0.388,0.207,0.582c0.574,0.832,1.529,1.481,2.016,2.342
		c1.085,0.729,1.409-0.324,2.096-0.814c1.49-1.061,4.069-4.994,4.47-7.509c-0.025-0.264-0.05-0.528-0.075-0.792
		c0.151-0.518,0.302-1.036,0.453-1.553C193.427,184.915,193.235,184.656,193.215,184.404z"/>
	<path fill="#FFFFFF" d="M173.838,179.245c0.242,0.378,0.332,1.099,0.718,1.522c0.531,0.496,1.325-0.164,1.726-0.326
		c0.837-0.338,1.79-0.883,2.54-1.384c0.259-0.295,0.517-0.589,0.776-0.884c0.22-0.157,0.527-0.211,0.737-0.445
		c0.147-0.216,0.293-0.432,0.44-0.648c0.199-0.13,0.398-0.26,0.597-0.391c0.431-0.715,0.862-1.429,1.293-2.144
		c2.945-4.305,2.178-9.346,0.778-12.351c-0.408-0.877-0.702-2.278-1.651-2.907c-0.779,0.181-1.189,0.725-1.87,1.176
		c-0.213,0.074-0.425,0.148-0.638,0.221c-0.204,0.229-0.408,0.459-0.612,0.688C173.256,165.48,170.706,174.355,173.838,179.245z"/>
	<path fill="#FFFFFF" d="M165.009,162.336c0.002,0.229,0.004,0.457,0.006,0.686c0.109,0.161,0.219,0.321,0.328,0.482
		c0.22,0.831,0.381,1.702,0.956,2.383c0.746,0.266,3.004-1.037,3.647-1.443c0.177-0.051,0.354-0.102,0.531-0.153
		c0.212-0.188,0.423-0.376,0.635-0.564c0.197-0.068,0.394-0.135,0.591-0.203c0.193-0.234,0.387-0.468,0.58-0.702
		c0.16-0.071,0.32-0.142,0.48-0.213c0.228-0.283,0.455-0.565,0.683-0.848c0.299-0.24,0.597-0.479,0.896-0.719
		c1.364-1.6,2.823-5.053,3.143-7.126c0.057-0.372-0.137-0.715-0.121-1.039c0.047-0.195,0.095-0.39,0.142-0.585
		c0.019-0.356-0.125-0.637-0.163-0.943c-0.097-0.778,0.002-1.425-0.167-2.16c-0.1-0.182-0.2-0.364-0.3-0.546
		c-0.123-0.796-0.688-3.204-1.546-3.584c-0.166-0.033-0.331-0.066-0.497-0.098c-2.238,1.233-4.464,2.669-6.349,4.77
		c-0.261,0.446-0.522,0.891-0.783,1.337c-1.433,1.836-2.398,3.835-2.706,6.136c-0.124,0.428-0.249,0.856-0.373,1.284
		c-0.036,0.354,0.156,0.693,0.135,1.007c-0.054,0.357-0.109,0.713-0.163,1.07c0.039,0.147,0.202,0.282,0.23,0.44
		c-0.022,0.168-0.045,0.335-0.067,0.503C164.741,161.845,164.941,162.052,165.009,162.336z"/>
	<path fill="#FFFFFF" d="M159.866,119.394c-0.042,2.097,0.239,4.274,1.279,5.938c0.044,0.221,0.088,0.443,0.132,0.664
		c0.417,0.681,0.856,1.63,1.343,2.206c0.994,0.38,2.112-0.708,2.786-1.241c0.191-0.083,0.382-0.166,0.573-0.249
		c0.209-0.24,0.418-0.48,0.626-0.72c1.362-1.277,3.192-3.077,3.871-5.714c0.747-2.9,0.988-5.44,0.566-7.847
		c0.018-0.245,0.036-0.491,0.055-0.736c-0.112-0.301-0.224-0.602-0.335-0.903c-0.066-0.433-0.132-0.867-0.199-1.3
		c-0.132-0.196-0.265-0.391-0.397-0.587c-0.228-0.663-0.453-1.867-0.909-2.401c-0.049-0.034-0.099-0.067-0.148-0.101
		c-2.056,0.493-3.186,1.411-4.816,2.956c-0.236,0.127-0.472,0.254-0.708,0.381c-0.323,0.47-0.646,0.939-0.969,1.409
		c-0.938,0.962-2.193,3.062-2.542,4.801c0.006,0.306,0.013,0.613,0.019,0.919c-0.137,0.574-0.275,1.148-0.412,1.723
		C159.741,118.859,159.803,119.127,159.866,119.394z"/>
	<path fill="#FFFFFF" d="M193.214,203.657c0.008-0.809-0.851-1.14-1.568-1.695c-0.398-0.41-0.796-0.821-1.194-1.231
		c-0.267-0.152-0.535-0.304-0.802-0.456c-0.216-0.269-0.431-0.539-0.647-0.808c-0.397-0.395-0.94-0.62-1.199-1.044
		c-0.292-0.477-0.893-0.673-1.362-1.113c-0.177-0.24-0.354-0.48-0.531-0.72c-0.281-0.209-0.562-0.417-0.843-0.626
		c-0.139-0.211-0.277-0.422-0.416-0.633c-0.337-0.258-0.673-0.515-1.01-0.773c-0.174-0.277-0.348-0.554-0.522-0.83
		c-0.252-0.158-0.504-0.316-0.756-0.474c-0.145-0.226-0.289-0.453-0.434-0.679c-0.215-0.155-0.429-0.31-0.644-0.465
		c-0.213-0.264-0.315-0.622-0.572-0.89c-0.64-0.666-1.303-1.088-1.828-1.806c-0.112-0.212-0.224-0.425-0.336-0.637
		c-0.215-0.155-0.429-0.31-0.644-0.465c-0.101-0.208-0.203-0.416-0.304-0.624c-0.233-0.201-0.466-0.402-0.699-0.602
		c-0.395-0.448-0.755-1.195-1.122-1.656c-0.228-0.211-0.457-0.423-0.685-0.634c-0.057-0.163-0.113-0.327-0.17-0.49
		c-0.205-0.176-0.411-0.353-0.616-0.529c-0.097-0.218-0.193-0.437-0.29-0.655c-0.201-0.187-0.401-0.374-0.602-0.561
		c-0.312-0.464-0.635-1.096-0.927-1.573c-0.19-0.182-0.38-0.365-0.569-0.547c-0.064-0.204-0.128-0.409-0.192-0.614
		c-0.185-0.193-0.37-0.386-0.555-0.579c-0.301-0.452-0.55-1.067-0.83-1.532c-0.191-0.208-0.382-0.416-0.574-0.625
		c-0.598-1.379-1.501-2.591-2.199-3.939c-0.036-0.18-0.073-0.36-0.109-0.54c-0.49-0.815-0.887-1.622-1.356-2.44
		c-0.049-0.211-0.097-0.421-0.146-0.632c-0.287-0.591-0.601-1.07-0.745-1.723c-0.103-0.466-0.505-0.929-0.663-1.384
		c-0.025-0.175-0.051-0.351-0.077-0.526c-0.122-0.191-0.243-0.382-0.365-0.573c-0.184-0.688-0.543-1.363-0.683-2.039
		c-0.013-0.233-0.026-0.467-0.039-0.7c-0.168-0.623-0.425-1.126-0.512-1.814c-0.141-0.263-0.283-0.526-0.424-0.789
		c-0.342-1.95-0.785-3.896-1.177-5.819c-0.171-0.841,0.031-1.685-0.123-2.521c-0.098-0.532-0.283-1.447-0.284-1.982
		c-0.002-1.79,0.08-3.584,0.039-5.338c0.115-0.406,0.23-0.813,0.345-1.22c-0.04-0.346-0.081-0.693-0.121-1.039
		c0.169-0.675,0.338-1.35,0.507-2.024c-0.017-0.311-0.034-0.622-0.051-0.933c0.174-0.482,0.349-0.965,0.523-1.448
		c0.203-0.926,0.405-1.852,0.608-2.778c0.269-1.041,0.723-1.452,0.555-2.307c-0.754-0.36-1.509-0.72-2.264-1.081
		c-0.166-0.033-0.331-0.065-0.497-0.098c-0.855,0.573-1.628,4.283-1.903,5.453c-0.17,0.724-0.143,1.221-0.278,1.856
		c-0.145,0.445-0.289,0.889-0.434,1.334c0.014,0.436,0.027,0.872,0.04,1.308c-0.098,0.426-0.196,0.853-0.294,1.279
		c0.035,0.243,0.069,0.485,0.104,0.728c-0.098,0.426-0.196,0.853-0.294,1.279c-0.016,0.388,0.163,0.693,0.153,1.053
		c-0.063,0.289-0.127,0.579-0.19,0.868c0.059,0.215,0.119,0.431,0.178,0.646c-0.056,0.419-0.112,0.838-0.169,1.257
		c0.028,0.607,0.109,1.488,0.241,2.078c-0.012,0.349-0.025,0.698-0.037,1.047c0.062,0.267,0.125,0.534,0.187,0.801
		c-0.063,1.364,0.292,2.516,0.508,3.748c-0.011,0.287-0.021,0.573-0.032,0.86c0.192,0.603,0.4,1.283,0.503,1.923
		c-0.005,0.187-0.011,0.375-0.016,0.563c0.153,0.515,0.551,1.107,0.629,1.636c0.136,0.915,0.315,1.914,0.629,2.775
		c0.086,0.125,0.172,0.251,0.259,0.376c0.593,2.426,1.606,5.258,2.867,7.414c0.229,0.391,0.26,0.948,0.44,1.365
		c0.146,0.164,0.293,0.328,0.439,0.491c0.025,0.175,0.051,0.351,0.077,0.526c0.1,0.093,0.201,0.187,0.301,0.28
		c0.059,0.215,0.119,0.431,0.178,0.646c0.523,0.859,1.028,1.627,1.564,2.491c0.042,0.195,0.085,0.391,0.127,0.586
		c2.166,3.439,4.358,6.717,7.02,9.985c0.154,0.293,0.307,0.587,0.461,0.88c0.182,0.141,0.365,0.282,0.547,0.423
		c0.202,0.301,0.403,0.603,0.605,0.904c0.199,0.161,0.398,0.322,0.597,0.483c0.124,0.243,0.249,0.486,0.373,0.729
		c0.249,0.195,0.497,0.389,0.746,0.584c0.134,0.222,0.268,0.443,0.401,0.665c0.221,0.17,0.442,0.341,0.662,0.511
		c0.089,0.177,0.178,0.355,0.267,0.532c0.259,0.199,0.519,0.399,0.778,0.598c0.151,0.242,0.302,0.483,0.452,0.725
		c0.715,0.785,1.427,1.241,2.19,2.036c0.106,0.197,0.212,0.394,0.318,0.592c0.286,0.198,0.572,0.396,0.857,0.594
		c0.267,0.329,0.533,0.658,0.8,0.987c0.264,0.189,0.528,0.377,0.792,0.566c0.121,0.191,0.243,0.382,0.365,0.573
		c0.397,0.296,0.794,0.592,1.191,0.888c0.178,0.223,0.295,0.557,0.55,0.766c0.295,0.177,0.59,0.353,0.886,0.53
		c0.193,0.234,0.385,0.468,0.578,0.702c0.412,0.29,0.825,0.58,1.237,0.87c0.554,0.544,1.042,1.226,2.042,1.67
		c0.458-0.141,0.613-0.373,1.026-0.663C192.354,204.975,193.208,204.276,193.214,203.657z"/>
	<path fill="#FFFFFF" d="M147.09,170.672c0.544,0.283,1.088,0.566,1.633,0.849c3.351,2.132,8.094,2.799,10.629,1.804
		c0.074-0.299-0.084-0.458-0.071-0.714c0.062-0.315,0.124-0.631,0.186-0.946c-0.074-0.183-0.147-0.367-0.221-0.55
		c0.012-0.261,0.024-0.521,0.036-0.782c-0.078-0.463-0.31-1.064-0.495-1.503c-0.034-0.243-0.069-0.485-0.104-0.728
		c-0.129-0.484-0.553-0.911-0.789-1.362c-0.042-0.195-0.085-0.391-0.127-0.586c-0.196-0.198-0.392-0.395-0.588-0.593
		c-0.057-0.163-0.113-0.327-0.17-0.49c-0.184-0.167-0.367-0.334-0.551-0.501c-0.08-0.199-0.159-0.397-0.239-0.596
		c-0.337-0.258-0.673-0.515-1.01-0.773c-1.406-1.42-3.082-2.699-5.534-3.73c-0.829-0.278-1.659-0.556-2.488-0.834
		c-1.577-0.143-3.236-0.339-4.819-0.538c-0.924,0.664-0.412,1.174-0.39,1.846c-0.038,0.262-0.077,0.524-0.115,0.786
		c0.084,0.276,0.168,0.553,0.252,0.829c-0.027,0.178-0.054,0.357-0.081,0.535c0.079,0.567,0.487,1.172,0.587,1.732
		C143.05,166.228,145.027,168.914,147.09,170.672z"/>
	<path fill="#FFFFFF" d="M178.655,197.288c-0.194-0.172-0.389-0.343-0.583-0.515c-0.509-0.752-1.336-1.696-2.156-2.288
		c-0.533-0.278-1.067-0.557-1.6-0.835c-0.341-0.256-0.699-0.575-1.186-0.81c-0.367-0.131-0.733-0.263-1.1-0.394
		c-0.64-0.162-1.39-0.374-2.108-0.558c-0.356-0.127-0.712-0.253-1.067-0.38c-2.696-0.305-6.161-0.131-8.358,0.836
		c-0.2,0.016-0.4,0.032-0.6,0.048c-0.143,0.091-0.286,0.182-0.429,0.273c-0.143,0.002-0.285,0.005-0.428,0.007
		c-0.16,0.036-0.99,0.505-1.156,0.608c-0.294,0.944,1.488,3.052,2.005,3.856c1.585,2.468,5.227,5.203,9.184,5.516
		c0.551,0.121,1.102,0.243,1.653,0.364c0.129-0.059,0.258-0.118,0.387-0.177c0.337-0.097,0.655,0.121,1.055,0.146
		c0.281-0.083,0.562-0.165,0.843-0.248c0.614-0.097,1.187-0.04,1.781-0.189c0.216-0.11,0.432-0.221,0.648-0.331
		c0.931-0.244,1.911-0.414,2.742-0.88c0.207-0.177,0.414-0.355,0.621-0.532c0.476-0.307,1.01-0.053,1.134-0.997
		c-0.006-0.635-0.801-1.388-1.121-1.922C178.761,197.688,178.708,197.488,178.655,197.288z"/>
	<path fill="#FFFFFF" d="M159.997,188.487c0.186-0.072,0.373-0.145,0.559-0.217c0.372,0.032,0.744,0.064,1.115,0.096
		c0.585-0.04,1.231-0.312,1.783-0.454c0.834-0.215,2.943-0.594,3.52-1.155c0.689-0.67-0.68-3.036-1.114-3.513
		c-0.159-0.176-0.061-0.414-0.16-0.6c-0.225-0.422-0.686-0.881-0.957-1.244c-0.215-0.155-0.429-0.31-0.644-0.465
		c-0.134-0.222-0.268-0.443-0.401-0.665c-0.346-0.399-0.905-0.591-1.4-0.939c-0.245-0.231-0.491-0.463-0.736-0.694
		c-0.862-0.621-1.978-1.055-3.112-1.519c-0.365-0.105-0.731-0.211-1.096-0.316c-1.111-0.221-2.223-0.443-3.335-0.664
		c-0.24,0.049-0.481,0.098-0.721,0.148c-0.327-0.076-0.653-0.152-0.98-0.229c-0.293,0.052-0.586,0.104-0.879,0.156
		c-0.35-0.023-0.7-0.046-1.05-0.069c-0.149,0.076-0.298,0.151-0.447,0.227c-0.276-0.017-0.552-0.033-0.827-0.049
		c-0.165,0.082-0.329,0.163-0.494,0.245c-0.579,0.131-2.54,0.186-2.585,1.137c-0.028,0.729,1.079,2.557,1.463,3.245
		c0.298,0.534,0.557,1.256,0.922,1.761c0.256,0.236,0.512,0.472,0.768,0.708c0.095,0.192,0.19,0.385,0.286,0.578
		c0.337,0.258,0.673,0.515,1.01,0.773c0.248,0.266,0.503,0.647,0.842,0.891c0.713,0.367,1.425,0.735,2.138,1.103
		c0.709,0.448,1.543,0.716,2.302,0.907c0.555,0.199,1.111,0.398,1.666,0.597c0.465-0.004,0.93-0.008,1.395-0.012
		C159.217,188.331,159.607,188.409,159.997,188.487z"/>
	<path fill="#FFFFFF" d="M313.135,158.099c-1.583,0.199-3.242,0.396-4.819,0.538c-0.829,0.278-1.659,0.556-2.488,0.834
		c-2.452,1.03-4.128,2.31-5.534,3.73c-0.337,0.258-0.673,0.515-1.01,0.773c-0.08,0.199-0.159,0.397-0.239,0.596
		c-0.184,0.167-0.367,0.334-0.551,0.501c-0.057,0.163-0.113,0.327-0.17,0.49c-0.196,0.198-0.392,0.395-0.588,0.593
		c-0.042,0.195-0.085,0.391-0.127,0.586c-0.236,0.451-0.659,0.878-0.789,1.362c-0.035,0.242-0.069,0.485-0.104,0.728
		c-0.185,0.439-0.417,1.039-0.495,1.503c0.012,0.261,0.024,0.521,0.036,0.782c-0.074,0.183-0.147,0.367-0.221,0.55
		c0.062,0.315,0.124,0.631,0.186,0.946c0.013,0.255-0.145,0.414-0.071,0.714c2.535,0.995,7.278,0.328,10.629-1.804
		c0.544-0.283,1.088-0.566,1.633-0.849c2.063-1.758,4.04-4.444,4.469-6.845c0.1-0.56,0.508-1.165,0.587-1.732
		c-0.027-0.178-0.054-0.357-0.081-0.535c0.084-0.276,0.168-0.553,0.252-0.829c-0.038-0.262-0.077-0.524-0.115-0.786
		C313.546,159.274,314.058,158.763,313.135,158.099z"/>
	<path fill="#FFFFFF" d="M285.028,120.278c0.68,2.637,2.509,4.437,3.871,5.714c0.209,0.24,0.418,0.48,0.626,0.72
		c0.191,0.083,0.382,0.166,0.573,0.249c0.673,0.532,1.792,1.621,2.786,1.241c0.487-0.577,0.926-1.525,1.343-2.206
		c0.044-0.221,0.088-0.443,0.132-0.664c1.04-1.664,1.321-3.842,1.279-5.938c0.062-0.267,0.125-0.534,0.187-0.801
		c-0.137-0.574-0.275-1.148-0.412-1.723c0.006-0.306,0.013-0.613,0.019-0.919c-0.349-1.739-1.604-3.839-2.542-4.801
		c-0.323-0.47-0.646-0.939-0.969-1.409c-0.236-0.127-0.472-0.254-0.709-0.381c-1.631-1.545-2.76-2.463-4.816-2.956
		c-0.049,0.034-0.099,0.067-0.148,0.101c-0.457,0.533-0.682,1.738-0.909,2.401c-0.132,0.196-0.265,0.392-0.397,0.587
		c-0.066,0.433-0.132,0.867-0.199,1.3c-0.112,0.301-0.223,0.602-0.335,0.903c0.018,0.245,0.036,0.491,0.055,0.736
		C284.04,114.838,284.281,117.378,285.028,120.278z"/>
	<path fill="#FFFFFF" d="M306.883,176.566c-0.165-0.082-0.329-0.163-0.494-0.245c-0.276,0.016-0.552,0.033-0.827,0.049
		c-0.149-0.076-0.298-0.151-0.447-0.227c-0.35,0.023-0.7,0.046-1.05,0.069c-0.293-0.052-0.586-0.104-0.879-0.156
		c-0.327,0.076-0.653,0.152-0.98,0.229c-0.24-0.049-0.481-0.098-0.721-0.148c-1.112,0.221-2.223,0.443-3.335,0.664
		c-0.365,0.105-0.731,0.211-1.096,0.316c-1.134,0.464-2.251,0.898-3.112,1.519c-0.245,0.231-0.491,0.463-0.736,0.694
		c-0.494,0.348-1.053,0.54-1.4,0.939c-0.134,0.222-0.268,0.443-0.401,0.665c-0.215,0.155-0.429,0.31-0.644,0.465
		c-0.271,0.363-0.732,0.822-0.957,1.244c-0.099,0.186-0.001,0.424-0.16,0.6c-0.434,0.477-1.802,2.843-1.113,3.513
		c0.577,0.561,2.686,0.94,3.52,1.155c0.552,0.142,1.198,0.414,1.783,0.454c0.372-0.032,0.744-0.064,1.115-0.096
		c0.186,0.072,0.373,0.145,0.559,0.217c0.39-0.078,0.78-0.156,1.17-0.234c0.465,0.004,0.93,0.008,1.395,0.012
		c0.555-0.199,1.111-0.398,1.666-0.597c0.759-0.191,1.592-0.459,2.302-0.907c0.713-0.368,1.426-0.735,2.138-1.103
		c0.339-0.245,0.594-0.626,0.842-0.891c0.337-0.258,0.673-0.515,1.01-0.773c0.095-0.193,0.19-0.385,0.286-0.578
		c0.256-0.236,0.512-0.472,0.768-0.708c0.364-0.505,0.624-1.227,0.922-1.761c0.384-0.688,1.492-2.516,1.463-3.245
		C309.423,176.752,307.462,176.697,306.883,176.566z"/>
	<path fill="#FFFFFF" d="M315.712,142.417c0.021-0.531-0.549-3.13-0.969-3.422c-0.961,0.017-2.277,0.956-3.273,0.98
		c-3.609,1.479-5.855,3.231-7.469,5.467c-0.48,0.666-1.049,1.131-1.433,1.827c-0.233,0.422-0.337,1.006-0.57,1.421
		c-0.152,0.27-0.639,1.145-0.696,1.398c-0.147,0.652-0.108,1.227-0.247,1.89c-0.084,0.188-0.169,0.376-0.253,0.564
		c0.041,0.21,0.083,0.42,0.124,0.631c-0.062,0.356-0.124,0.711-0.186,1.067c0.069,0.274,0.139,0.548,0.208,0.822
		c-0.008,0.332-0.015,0.665-0.023,0.997c-0.004,0.325,0.226,1.219,0.509,1.416c0.346,0.241,1.334,0.063,1.808-0.013
		c1.841-0.295,4.504-1.312,6.255-2.443c4.022-2.599,6.525-7.35,6.083-11.673C315.547,143.011,315.7,142.713,315.712,142.417z"/>
	<path fill="#FFFFFF" d="M273.25,185.192c0.023-0.415,0.046-0.83,0.069-1.245c-0.107-0.359-0.214-0.719-0.321-1.078
		c-0.073-0.847-0.191-1.829-0.636-2.842c-0.577-1.312-1.095-2.811-1.85-3.843c-0.28-0.285-0.561-0.571-0.841-0.856
		c-0.281-0.462-0.562-0.925-0.843-1.387c-0.343-0.293-0.705-0.308-1.136-0.388c-0.504,0.222-0.535,0.54-0.791,0.831
		c-0.343,0.273-0.686,0.546-1.028,0.819c-0.067,0.168-0.135,0.336-0.202,0.504c-0.188,0.156-0.377,0.313-0.565,0.469
		c-0.08,0.199-0.159,0.397-0.239,0.596c-0.241,0.242-0.481,0.484-0.722,0.726c-0.576,1.341-1.134,2.594-1.506,4.023
		c-0.095,0.193-0.19,0.385-0.286,0.578c-0.152,0.786,0.002,1.48-0.064,2.306c-0.02,0.252-0.213,0.511-0.187,0.801
		c0.151,0.518,0.302,1.036,0.453,1.553c-0.025,0.264-0.05,0.528-0.075,0.792c0.4,2.515,2.98,6.448,4.47,7.509
		c0.687,0.49,1.011,1.543,2.096,0.814c0.487-0.86,1.443-1.51,2.016-2.342c0.069-0.194,0.138-0.388,0.206-0.582
		c1.021-1.675,1.379-2.661,1.759-4.587c0.095-0.281,0.19-0.562,0.284-0.843c-0.035-0.225-0.07-0.451-0.105-0.677
		c0.08-0.199,0.159-0.397,0.239-0.596C273.381,185.896,273.315,185.544,273.25,185.192z"/>
	<path fill="#FFFFFF" d="M272.838,174.545c0.431,0.715,0.862,1.429,1.293,2.144c0.199,0.13,0.398,0.26,0.597,0.391
		c0.147,0.216,0.293,0.432,0.44,0.648c0.209,0.234,0.516,0.288,0.737,0.445c0.259,0.295,0.517,0.589,0.776,0.884
		c0.75,0.501,1.704,1.045,2.54,1.384c0.402,0.163,1.195,0.822,1.726,0.326c0.386-0.423,0.476-1.143,0.718-1.522
		c3.133-4.89,0.582-13.765-4.834-17.872c-0.204-0.229-0.408-0.459-0.612-0.688c-0.213-0.074-0.425-0.148-0.638-0.221
		c-0.681-0.451-1.091-0.995-1.87-1.176c-0.949,0.63-1.242,2.031-1.651,2.907C270.661,165.199,269.894,170.24,272.838,174.545z"/>
	<path fill="#FFFFFF" d="M279.354,138.916c0.285,0.296,0.57,0.592,0.855,0.888c0.208,0.354,0.415,0.709,0.623,1.063
		c0.235,0.153,0.469,0.306,0.704,0.459c0.223,0.272,0.446,0.544,0.669,0.816c0.444,0.437,1.258,0.759,1.763,1.108
		c0.196,0.182,0.392,0.364,0.588,0.546c0.493,0.223,1.111,0.357,1.584,0.615c1.162,0.636,2.642,1.211,4.078,1.107
		c0.98-1.002,0.91-3.156,0.95-4.583c0.05-0.237,0.1-0.473,0.15-0.71c-0.107-0.448-0.215-0.896-0.322-1.343
		c-0.008-0.339-0.016-0.677-0.023-1.015c-0.357-2.081-1.746-4.134-2.852-5.504c-0.272-0.441-0.543-0.882-0.815-1.323
		c-0.23-0.142-0.46-0.285-0.69-0.427c-0.252-0.31-0.505-0.62-0.757-0.93c-0.235-0.153-0.469-0.306-0.704-0.459
		c-0.164-0.196-0.327-0.392-0.491-0.588c-2.086-1.018-3.804-2.404-6.173-2.795c-0.308,0.27-1.041,3.217-1.094,3.733
		c0.038,0.262,0.077,0.524,0.115,0.786c-0.078,0.261-0.156,0.522-0.233,0.783C277.255,132.9,277.771,137.04,279.354,138.916z"/>
	<path fill="#FFFFFF" d="M296.465,192.672c-0.143-0.003-0.285-0.005-0.428-0.007c-0.143-0.091-0.286-0.182-0.429-0.273
		c-0.2-0.016-0.4-0.032-0.6-0.048c-2.198-0.967-5.662-1.142-8.358-0.836c-0.356,0.127-0.712,0.253-1.068,0.38
		c-0.718,0.184-1.468,0.396-2.108,0.558c-0.367,0.131-0.733,0.263-1.1,0.394c-0.487,0.235-0.845,0.555-1.186,0.81
		c-0.533,0.278-1.067,0.557-1.6,0.835c-0.82,0.592-1.647,1.536-2.156,2.288c-0.194,0.172-0.389,0.343-0.583,0.515
		c-0.053,0.2-0.107,0.4-0.16,0.6c-0.32,0.534-1.115,1.287-1.121,1.922c0.124,0.944,0.658,0.689,1.134,0.997
		c0.207,0.177,0.414,0.355,0.621,0.532c0.832,0.465,1.811,0.635,2.742,0.88c0.216,0.11,0.432,0.221,0.648,0.331
		c0.595,0.148,1.168,0.092,1.781,0.189c0.281,0.083,0.562,0.165,0.843,0.248c0.4-0.026,0.718-0.244,1.055-0.146
		c0.129,0.059,0.258,0.118,0.387,0.177c0.551-0.121,1.102-0.243,1.653-0.364c3.958-0.313,7.599-3.049,9.184-5.516
		c0.516-0.804,2.298-2.912,2.005-3.856C297.455,193.177,296.625,192.708,296.465,192.672z"/>
	<path fill="#FFFFFF" d="M276.304,195.091c0.151-0.242,0.302-0.483,0.452-0.725c0.259-0.199,0.519-0.399,0.778-0.598
		c0.089-0.177,0.178-0.355,0.267-0.532c0.221-0.17,0.442-0.34,0.663-0.511c0.134-0.222,0.268-0.443,0.401-0.665
		c0.249-0.195,0.497-0.39,0.746-0.584c0.124-0.243,0.249-0.486,0.373-0.729c0.199-0.161,0.398-0.322,0.598-0.483
		c0.202-0.301,0.403-0.603,0.605-0.904c0.182-0.141,0.364-0.282,0.547-0.423c0.154-0.293,0.307-0.587,0.461-0.88
		c2.662-3.268,4.855-6.546,7.02-9.985c0.042-0.195,0.085-0.391,0.127-0.586c0.536-0.864,1.042-1.632,1.564-2.491
		c0.059-0.215,0.119-0.431,0.178-0.646c0.1-0.094,0.201-0.187,0.301-0.28c0.026-0.175,0.051-0.351,0.077-0.526
		c0.147-0.164,0.293-0.328,0.439-0.491c0.18-0.417,0.211-0.974,0.44-1.365c1.261-2.156,2.274-4.988,2.867-7.414
		c0.086-0.125,0.172-0.251,0.259-0.376c0.314-0.861,0.493-1.86,0.629-2.775c0.079-0.529,0.477-1.12,0.629-1.636
		c-0.006-0.188-0.011-0.375-0.017-0.563c0.103-0.64,0.31-1.32,0.503-1.923c-0.011-0.287-0.021-0.573-0.032-0.86
		c0.216-1.232,0.571-2.384,0.508-3.749c0.062-0.267,0.125-0.534,0.187-0.801c-0.013-0.349-0.025-0.698-0.037-1.047
		c0.132-0.59,0.213-1.471,0.241-2.078c-0.056-0.419-0.112-0.838-0.169-1.257c0.06-0.215,0.119-0.431,0.178-0.646
		c-0.063-0.289-0.127-0.579-0.19-0.868c-0.01-0.359,0.169-0.664,0.153-1.053c-0.098-0.427-0.196-0.853-0.294-1.279
		c0.035-0.243,0.069-0.485,0.104-0.728c-0.098-0.426-0.196-0.853-0.294-1.279c0.013-0.436,0.027-0.872,0.04-1.308
		c-0.145-0.445-0.289-0.889-0.434-1.334c-0.135-0.634-0.108-1.132-0.278-1.856c-0.275-1.17-1.048-4.88-1.903-5.453
		c-0.166,0.033-0.331,0.065-0.497,0.098c-0.755,0.36-1.509,0.72-2.264,1.081c-0.168,0.856,0.286,1.267,0.554,2.307
		c0.203,0.926,0.405,1.852,0.608,2.778c0.174,0.482,0.349,0.965,0.523,1.448c-0.017,0.311-0.034,0.622-0.051,0.933
		c0.169,0.675,0.338,1.349,0.507,2.024c-0.04,0.346-0.081,0.693-0.121,1.039c0.115,0.407,0.23,0.813,0.345,1.22
		c-0.042,1.754,0.041,3.547,0.039,5.338c-0.001,0.535-0.185,1.45-0.284,1.982c-0.154,0.836,0.048,1.679-0.123,2.521
		c-0.392,1.923-0.835,3.869-1.177,5.819c-0.141,0.263-0.283,0.526-0.424,0.789c-0.087,0.688-0.344,1.19-0.512,1.814
		c-0.013,0.233-0.026,0.467-0.039,0.7c-0.14,0.675-0.499,1.35-0.683,2.039c-0.122,0.191-0.243,0.382-0.365,0.573
		c-0.025,0.175-0.051,0.351-0.077,0.526c-0.158,0.455-0.56,0.919-0.663,1.384c-0.144,0.653-0.458,1.132-0.745,1.723
		c-0.049,0.211-0.097,0.421-0.146,0.632c-0.468,0.817-0.866,1.624-1.356,2.44c-0.036,0.18-0.073,0.36-0.109,0.54
		c-0.699,1.348-1.601,2.56-2.199,3.939c-0.191,0.208-0.382,0.417-0.574,0.625c-0.28,0.465-0.529,1.079-0.83,1.532
		c-0.185,0.193-0.37,0.386-0.555,0.579c-0.064,0.205-0.128,0.409-0.193,0.614c-0.19,0.182-0.379,0.365-0.569,0.547
		c-0.292,0.477-0.615,1.109-0.927,1.573c-0.201,0.187-0.401,0.374-0.602,0.561c-0.097,0.218-0.193,0.437-0.29,0.655
		c-0.205,0.176-0.411,0.353-0.616,0.529c-0.057,0.163-0.113,0.327-0.17,0.49c-0.228,0.211-0.457,0.423-0.685,0.634
		c-0.367,0.461-0.727,1.208-1.122,1.656c-0.233,0.201-0.466,0.402-0.699,0.602c-0.101,0.208-0.203,0.416-0.304,0.624
		c-0.215,0.155-0.429,0.31-0.644,0.465c-0.112,0.212-0.224,0.425-0.336,0.637c-0.525,0.718-1.188,1.14-1.828,1.806
		c-0.257,0.268-0.359,0.626-0.572,0.89c-0.215,0.155-0.429,0.31-0.644,0.465c-0.145,0.226-0.289,0.453-0.434,0.679
		c-0.252,0.158-0.504,0.316-0.756,0.474c-0.174,0.277-0.348,0.554-0.522,0.83c-0.337,0.258-0.673,0.515-1.01,0.773
		c-0.139,0.211-0.277,0.422-0.416,0.633c-0.281,0.209-0.562,0.417-0.843,0.626c-0.177,0.24-0.354,0.48-0.531,0.72
		c-0.469,0.44-1.069,0.636-1.362,1.113c-0.259,0.424-0.802,0.649-1.199,1.044c-0.216,0.269-0.431,0.539-0.647,0.808
		c-0.267,0.152-0.535,0.304-0.802,0.456c-0.398,0.41-0.796,0.821-1.194,1.231c-0.717,0.555-1.576,0.886-1.568,1.695
		c0.006,0.62,0.86,1.318,1.183,1.545c0.413,0.29,0.568,0.522,1.026,0.663c1-0.444,1.489-1.126,2.042-1.67
		c0.412-0.29,0.825-0.58,1.237-0.87c0.193-0.234,0.385-0.468,0.578-0.702c0.295-0.177,0.59-0.353,0.886-0.53
		c0.255-0.209,0.372-0.544,0.55-0.766c0.397-0.296,0.794-0.592,1.191-0.888c0.122-0.191,0.243-0.382,0.365-0.573
		c0.264-0.189,0.528-0.377,0.792-0.566c0.267-0.329,0.533-0.658,0.8-0.987c0.286-0.198,0.572-0.396,0.857-0.594
		c0.106-0.197,0.212-0.394,0.318-0.592C274.877,196.331,275.589,195.876,276.304,195.091z"/>
	<path fill="#FFFFFF" d="M299.928,136.207c0.099,0.312,0.198,0.624,0.297,0.936c-0.016,0.197-0.032,0.394-0.048,0.59
		c0.12,0.214,0.241,0.429,0.361,0.643c0.302,1.147,0.933,3.223,1.993,3.82c2.091-0.705,3.462-1.806,4.719-3.04
		c0.694-0.701,1.388-1.403,2.082-2.104c0.472-0.596,0.665-1.268,1.023-1.88c1.413-2.409,1.844-4.966,1.352-8.134
		c0.002-0.229,0.004-0.457,0.006-0.686c-0.091-0.176-0.181-0.353-0.272-0.529c-0.013-0.235-0.027-0.47-0.04-0.704
		c-0.171-0.357-0.341-0.715-0.512-1.073c-0.04-0.236-0.08-0.472-0.12-0.708c-0.306-0.49-0.612-0.979-0.918-1.469
		c-0.466-0.715-0.538-1.138-1.076-1.477c-0.085,0.011-0.17,0.022-0.256,0.033c-0.615,0.251-0.876,0.625-1.274,0.962
		c-0.919,0.777-1.829,1.498-2.584,2.28c-0.611,0.628-1.222,1.256-1.832,1.884c-0.187,0.422-0.374,0.843-0.561,1.265
		c-0.257,0.35-0.514,0.701-0.772,1.051c-0.068,0.282-0.137,0.565-0.205,0.847c-1.071,1.955-1.259,3.651-1.33,5.998
		c-0.052,0.174-0.104,0.348-0.156,0.522c0.074,0.196,0.147,0.393,0.221,0.589C299.995,135.951,299.961,136.079,299.928,136.207z"/>
	<path fill="#FFFFFF" d="M290.747,159.494c-0.021-0.314,0.171-0.653,0.135-1.007c-0.124-0.428-0.249-0.856-0.373-1.284
		c-0.309-2.301-1.273-4.3-2.706-6.136c-0.261-0.445-0.522-0.891-0.783-1.337c-1.885-2.101-4.111-3.537-6.349-4.77
		c-0.166,0.033-0.331,0.066-0.497,0.098c-0.858,0.38-1.422,2.788-1.546,3.584c-0.1,0.182-0.2,0.364-0.3,0.546
		c-0.168,0.735-0.07,1.381-0.167,2.16c-0.038,0.306-0.182,0.587-0.163,0.943c0.047,0.195,0.095,0.39,0.142,0.585
		c0.017,0.324-0.178,0.667-0.121,1.039c0.32,2.073,1.779,5.526,3.143,7.126c0.299,0.24,0.597,0.479,0.896,0.719
		c0.228,0.283,0.455,0.565,0.683,0.848c0.16,0.071,0.32,0.142,0.48,0.213c0.193,0.234,0.386,0.468,0.58,0.702
		c0.197,0.068,0.394,0.135,0.591,0.203c0.212,0.188,0.423,0.376,0.635,0.564c0.177,0.051,0.354,0.102,0.531,0.153
		c0.642,0.406,2.901,1.709,3.647,1.443c0.575-0.681,0.736-1.552,0.956-2.383c0.109-0.161,0.219-0.321,0.328-0.482
		c0.002-0.229,0.004-0.457,0.006-0.686c0.068-0.284,0.268-0.491,0.252-0.829c-0.022-0.168-0.045-0.335-0.067-0.503
		c0.028-0.158,0.192-0.293,0.23-0.44C290.855,160.207,290.801,159.851,290.747,159.494z"/>
	<path fill="#FFFFFF" d="M207.461,212.774h41.243v-27.565h-41.243V212.774z M225.619,196.785l2.486-7.724l2.878,7.724h8.199
		l-6.782,4.977l2.639,7.767l-6.803-4.677l-6.847,4.677l2.529-7.681l-6.891-5.106L225.619,196.785z"/>
	<path fill="#FFFFFF" d="M191.915,228.595c0.351,0.298,4.009,0.105,4.808,0.105h67.794c0.018-2.085,0.036-4.17,0.053-6.255
		c-24.216-0.017-48.44-0.035-72.656-0.053V228.595z"/>
	<path fill="#FFFFFF" d="M199.501,220.238h57.27v-42.703h-57.27V220.238z M205.271,183.054h45.624v31.875h-45.624V183.054z"/>
	<path fill="#FFFFFF" d="M187.267,108.678c2.346,8.637,5.158,16.264,9.99,22.392l1.816,1.787c0.996,1.103,2.178,2.258,3.473,3.049
		c2.138,1.305,4.35,2.044,7.212,2.733c1.353,0.035,2.707,0.07,4.06,0.105c0.534,0.49,1.068,0.981,1.603,1.472
		c1.433,1.071,2.959,1.89,4.648,2.733c0.341,1.835-0.525,5.716-0.855,7.464c-1.101,5.828-2.559,11.007-5.449,15.033
		c-1.005,1.4-2.176,3.304-3.847,3.995c-0.036,0.053-0.071,0.105-0.107,0.158H246.3c-0.392-0.28-0.784-0.561-1.175-0.841
		c-0.982-0.791-2.02-1.945-2.725-2.996c-2.921-4.356-3.868-8.831-5.503-14.507c-0.036-0.456-0.071-0.911-0.107-1.367
		c-0.376-1.666-0.382-3.482-0.694-5.361c-0.053-0.456-0.107-0.911-0.16-1.367c0.082-0.347,2.497-1.382,2.938-1.682
		c0.801-0.596,1.603-1.192,2.404-1.787c0.321-0.315,0.641-0.631,0.962-0.946c1.424-0.035,2.849-0.07,4.274-0.105
		c2.44-0.645,4.472-1.17,6.357-2.26c9.35-5.404,14.777-19.817,17.149-32.274c0.58-3.047,0.954-6.348,1.603-9.619
		c0.089-1.104,0.178-2.208,0.267-3.311c-0.184-0.273-2.951-0.158-3.579-0.158h-10.791c-0.036-0.053-0.071-0.105-0.107-0.158
		c-0.35-1.15,0.434-3.498,0.053-4.941c-19.533-0.017-39.072-0.035-58.605-0.053c-0.599,0.455-0.233,3.947-0.214,5.046
		c-0.909,0.4-2.866,0.105-4.007,0.105c-3.401,0.018-6.803,0.035-10.204,0.053c-0.4,0.768,0.183,3.99,0.374,4.993
		C185.644,100.45,186.182,104.681,187.267,108.678z M248.063,131.122c0.623-1.279,1.247-2.558,1.87-3.837
		c1.627-3.732,2.914-7.798,4.06-11.984c1.059-3.868,1.513-8.022,2.297-12.089c0.327-1.696,0.126-5.032,0.748-6.413
		c2.742,0.018,5.485,0.035,8.227,0.053c0.292,0.721-0.259,2.397-0.427,3.206c-0.567,2.719-0.967,5.338-1.549,7.779
		c-1.646,6.908-3.624,13.27-7.052,18.397c-1.118,1.672-2.196,3.386-3.793,4.573c-1.715,1.275-2.996,1.522-5.236,2.313h-0.32
		C247.011,132.356,247.695,131.704,248.063,131.122z M194.105,96.798h4.862c0.645,1.07,0.331,3.119,0.588,4.468
		c0.588,3.539,1.175,7.079,1.763,10.618c1.29,5.091,2.531,10.039,4.434,14.507c0.641,1.367,1.282,2.733,1.923,4.1
		c0.425,0.774,1.3,1.588,1.442,2.576c-0.053,0.018-0.107,0.035-0.16,0.053c-2.027-0.767-3.628-1.125-5.129-2.313
		c-5.619-4.448-8.337-13.462-10.578-21.288c-0.856-2.99-1.17-5.892-1.816-9.093c-0.196-1.156-0.392-2.313-0.588-3.469
		C190.941,96.74,193.67,96.953,194.105,96.798z"/>
	<path fill="#FFFFFF" d="M204.149,171.753c-0.018,1.191-0.036,2.383-0.053,3.574v0.053h47.867v-3.627H204.149z"/>
</g>
</svg>
