<?xml version="1.0" encoding="utf-8"?>
<!-- Generator: Adobe Illustrator 17.0.0, SVG Export Plug-In . SVG Version: 6.00 Build 0)  -->
<!DOCTYPE svg PUBLIC "-//W3C//DTD SVG 1.1//EN" "http://www.w3.org/Graphics/SVG/1.1/DTD/svg11.dtd">
<svg version="1.1" id="Layer_1" xmlns="http://www.w3.org/2000/svg" xmlns:xlink="http://www.w3.org/1999/xlink" x="0px" y="0px"
	 width="458px" height="313px" viewBox="0 0 458 313" enable-background="new 0 0 458 313" xml:space="preserve">
<g>
	
		<linearGradient id="SVGID_1_" gradientUnits="userSpaceOnUse" x1="417.0436" y1="262.4035" x2="765.0436" y2="730.4035" gradientTransform="matrix(1 0 0 1 -334 -299)">
		<stop  offset="0" style="stop-color:#FFF33B"/>
		<stop  offset="0.0401" style="stop-color:#FEE72E"/>
		<stop  offset="0.1171" style="stop-color:#FED51B"/>
		<stop  offset="0.1964" style="stop-color:#FDCA10"/>
		<stop  offset="0.2809" style="stop-color:#FDC70C"/>
		<stop  offset="0.6685" style="stop-color:#F3903F"/>
		<stop  offset="0.8876" style="stop-color:#ED683C"/>
		<stop  offset="1" style="stop-color:#E93E3A"/>
	</linearGradient>
	<ellipse fill="url(#SVGID_1_)" cx="227" cy="157" rx="142" ry="141"/>
	<path fill="#FFFFFF" d="M340.846,175.336c4.057-6.246,8.253-12.704,8.223-18.316c-0.033-5.606-4.3-12.014-8.427-18.211
		c-2.59-3.889-5.268-7.91-5.991-10.533s-0.483-7.433-0.251-12.085c0.369-7.426,0.753-15.104-2.098-19.948
		c-2.847-4.84-9.766-8.27-16.457-11.588c-4.201-2.082-8.544-4.236-10.494-6.153c-1.948-1.912-4.164-6.201-6.307-10.348
		c-3.416-6.611-6.948-13.447-11.852-16.221c-2.691-1.525-6.29-2.204-11.671-2.204c-2.743,0-5.63,0.174-8.422,0.343
		c-2.646,0.16-5.145,0.31-7.375,0.31c-2.131,0-3.702-0.139-4.8-0.425c-2.649-0.689-6.726-3.303-10.668-5.829
		c-6.263-4.014-12.739-8.165-18.433-8.165c-5.644,0.033-12.093,4.271-18.331,8.368c-3.914,2.571-7.961,5.23-10.605,5.95
		c-1.193,0.325-2.956,0.483-5.39,0.483c-2.085,0-4.373-0.113-6.793-0.232c-2.53-0.124-5.146-0.253-7.654-0.253
		c-5.799,0-9.624,0.72-12.404,2.335c-4.875,2.832-8.33,9.71-11.672,16.363c-2.095,4.17-4.261,8.482-6.187,10.418
		c-1.924,1.936-6.241,4.137-10.416,6.265c-6.655,3.392-13.535,6.899-16.327,11.771c-2.797,4.874-2.328,12.547-1.874,19.966
		c0.284,4.651,0.578,9.461-0.114,12.091c-0.695,2.632-3.324,6.68-5.867,10.596c-4.057,6.247-8.253,12.707-8.22,18.317
		c0.031,5.606,4.296,12.013,8.421,18.209c2.59,3.889,5.267,7.911,5.991,10.54c0.725,2.624,0.485,7.439,0.253,12.095
		c-0.37,7.42-0.751,15.093,2.099,19.935c2.847,4.836,9.765,8.266,16.454,11.584c4.202,2.084,8.547,4.238,10.498,6.156
		c1.947,1.911,4.162,6.199,6.304,10.346c3.415,6.612,6.948,13.448,11.854,16.226c2.69,1.523,6.287,2.201,11.663,2.201
		c2.743,0,5.63-0.174,8.424-0.343c2.646-0.16,5.147-0.311,7.379-0.311c2.102,0,3.717,0.143,4.8,0.425
		c2.648,0.691,6.723,3.073,10.664,5.599c6.264,4.014,12.74,7.935,18.369,7.935c0.007,0,0.059,0,0.066,0
		c5.645,0,12.096-4.039,18.334-8.137c3.915-2.572,7.961-5.116,10.605-5.834c1.193-0.325,2.957-0.426,5.392-0.426
		c2.084,0,4.366,0.141,6.784,0.259c2.527,0.124,5.14,0.266,7.645,0.266c5.809,0,9.64-0.715,12.422-2.332
		c4.877-2.833,8.333-9.709,11.674-16.361c2.094-4.167,4.259-8.475,6.183-10.41c1.924-1.934,6.24-4.134,10.414-6.261
		c6.655-3.394,13.538-6.902,16.327-11.773c2.801-4.877,2.331-12.553,1.877-19.976c-0.284-4.648-0.578-9.454,0.112-12.081
		C335.672,183.302,338.303,179.252,340.846,175.336z M334.193,171.071c-3.013,4.638-5.86,9.019-6.877,12.871
		c-1.01,3.844-0.692,9.044-0.355,14.549c0.347,5.685,0.78,12.761-0.853,15.606c-1.625,2.837-7.967,6.071-13.063,8.668
		c-4.946,2.521-9.617,4.903-12.431,7.734c-2.812,2.828-5.154,7.49-7.635,12.427c-2.56,5.094-5.745,11.435-8.589,13.087
		c-1.44,0.838-4.274,1.262-8.422,1.262c-2.31,0-4.824-0.123-7.254-0.242c-2.408-0.118-4.897-0.24-7.175-0.24
		c-3.196,0-5.575,0.242-7.484,0.762c-3.863,1.05-8.243,3.927-12.88,6.975c-4.777,3.138-10.793,7.044-14.082,7.062L227,275.526
		v-3.933c-3,0.001-9.202-3.83-14.004-6.908c-4.669-2.993-9.043-5.819-12.914-6.827c-1.788-0.466-3.934-0.683-6.791-0.683
		c-2.473,0-5.202,0.166-7.85,0.325c-2.675,0.161-5.437,0.329-7.939,0.329c-3.766,0-6.369-0.394-7.74-1.17
		c-2.858-1.618-6.112-7.919-8.729-12.982c-2.538-4.913-4.935-9.553-7.78-12.347c-2.848-2.802-7.55-5.133-12.529-7.601
		c-5.123-2.54-11.498-5.702-13.155-8.517c-1.66-2.82-1.308-9.892-1.025-15.575c0.275-5.517,0.534-10.728-0.526-14.564
		c-1.059-3.84-3.956-8.192-7.023-12.8c-3.158-4.744-7.089-10.649-7.107-13.914c-0.019-3.27,3.848-9.224,6.955-14.008
		c3.012-4.638,5.857-9.019,6.873-12.867c1.013-3.847,0.695-9.051,0.358-14.561c-0.348-5.682-0.78-12.754,0.851-15.596
		c1.626-2.837,7.966-6.069,13.061-8.666c4.947-2.522,9.621-4.904,12.435-7.735c2.814-2.828,5.158-7.495,7.639-12.435
		c2.559-5.095,5.744-11.435,8.584-13.084c1.439-0.836,4.268-1.26,8.407-1.26c2.312,0,4.829,0.123,7.262,0.243
		c2.411,0.119,4.904,0.241,7.185,0.241c3.196,0,5.575-0.243,7.484-0.763c3.862-1.051,8.242-3.928,12.88-6.975
		c4.777-3.138,10.722-7.044,14.028-7.063c3.296,0,9.273,3.831,14.074,6.909c4.671,2.994,9.082,5.821,12.955,6.829
		c1.788,0.465,3.951,0.681,6.807,0.681c2.471,0,5.209-0.165,7.856-0.325c2.674-0.161,5.44-0.328,7.942-0.328
		c3.769,0,6.376,0.394,7.751,1.173c2.856,1.615,6.112,7.916,8.727,12.978c2.539,4.913,4.937,9.554,7.783,12.348
		c2.848,2.801,7.549,5.132,12.526,7.599c5.124,2.54,11.499,5.7,13.156,8.518c1.662,2.824,1.309,9.902,1.026,15.59
		c-0.274,5.511-0.534,10.716,0.522,14.551c1.059,3.838,3.957,8.189,7.025,12.796c3.16,4.746,7.094,10.652,7.113,13.915
		C341.168,160.334,337.3,166.287,334.193,171.071z"/>
</g>
<g>
	<polygon fill="#FFFFFF" points="227.467,152.852 230.107,149.376 228.641,146.696 228.561,146.696 223.508,146.696 
		223.428,146.696 221.962,149.376 224.601,152.852 219.835,164.585 226.005,170.823 226.001,170.886 226.034,170.852 
		226.068,170.886 226.065,170.821 232.234,164.585 	"/>
	<path fill="#FFFFFF" d="M226.034,143.755c14.125,0,25.616-11.35,25.616-25.301s-11.492-25.301-25.616-25.301
		c-14.125,0-25.616,11.35-25.616,25.301S211.91,143.755,226.034,143.755z M226.034,97.788c11.537,0,20.923,9.27,20.923,20.666
		s-9.386,20.666-20.923,20.666c-11.537,0-20.923-9.27-20.923-20.666S214.497,97.788,226.034,97.788z"/>
	<path fill="#FFFFFF" d="M241.323,145.772c-1.247,0.891-1.431,2.294-1.626,3.78c-0.22,1.678-0.52,3.975-2.234,6.611
		c-0.776,1.194-1.913,2.09-2.488,2.401c-1.137,0.614-1.554,2.022-0.932,3.145c0.622,1.123,2.048,1.536,3.185,0.921
		c1.145-0.618,2.927-2.027,4.185-3.963c2.283-3.513,2.694-6.647,2.939-8.52c0.002-0.019,0.005-0.037,0.007-0.057
		c11.723,2.818,18.031,12.764,18.031,21.014c0,0.545-0.097,1.254-0.238,1.942h4.749c0.157-1.106,0.183-1.916,0.183-1.942
		c0-6.271-2.572-12.387-7.242-17.22c-4.217-4.365-10.004-7.507-15.877-8.621C242.705,145.025,241.833,145.407,241.323,145.772z"/>
	<path fill="#FFFFFF" d="M189.721,173.045c-0.141-0.688-0.238-1.397-0.238-1.942c0-8.249,6.308-18.195,18.031-21.014
		c0.002,0.019,0.005,0.038,0.007,0.057c0.245,1.873,0.656,5.008,2.939,8.52c1.258,1.936,3.041,3.345,4.185,3.963
		c1.137,0.616,2.563,0.202,3.185-0.921c0.622-1.123,0.205-2.531-0.932-3.145c-0.575-0.311-1.713-1.207-2.488-2.401
		c-1.714-2.636-2.014-4.933-2.234-6.611c-0.194-1.485-0.378-2.888-1.626-3.78c-0.509-0.364-1.382-0.747-2.641-0.509
		c-5.873,1.114-11.66,4.256-15.877,8.621c-4.67,4.833-7.242,10.949-7.242,17.22c0,0.026,0.025,0.836,0.183,1.942H189.721z"/>
	<polygon fill="#FFFFFF" points="277.365,185.588 277.365,207.123 266.121,207.123 266.121,210.696 303.08,210.696 289.88,198.142 
		303.08,185.588 	"/>
	<polygon fill="#FFFFFF" points="174.508,185.588 148.794,185.588 161.993,198.142 148.794,210.696 185.752,210.696 
		185.752,207.123 174.508,207.123 	"/>
	<path fill="#FFFFFF" d="M273.845,178.056h-95.622v25.494h95.622V178.056z M203.956,198.796l-5.39-3.719l-5.424,3.719l2.004-6.108
		l-5.459-4.061l6.806,0.034l1.969-6.142l2.28,6.142h6.495l-5.372,3.958L203.956,198.796z M231.381,198.796l-5.39-3.719l-5.424,3.719
		l2.004-6.108l-5.459-4.061l6.806,0.034l1.969-6.142l2.28,6.142h6.495l-5.372,3.958L231.381,198.796z M258.806,198.796l-5.39-3.719
		l-5.424,3.719l2.004-6.108l-5.459-4.061l6.806,0.034l1.969-6.142l2.28,6.142h6.495l-5.372,3.958L258.806,198.796z"/>
	<path fill="#FFFFFF" d="M296.933,137.959c-0.237,0.496-0.556,0.87-0.727,1.375c-0.103,0.306-0.102,0.705-0.206,1.006
		c-0.068,0.196-0.285,0.832-0.292,1.006c-0.019,0.449,0.075,0.824,0.062,1.279c-0.033,0.134-0.066,0.268-0.1,0.402
		c0.052,0.134,0.105,0.269,0.157,0.403c0.002,0.242,0.003,0.485,0.005,0.727c0.078,0.173,0.157,0.347,0.235,0.52
		c0.035,0.221,0.069,0.442,0.104,0.663c0.036,0.215,0.294,0.78,0.504,0.878c0.257,0.12,0.887-0.112,1.191-0.218
		c1.178-0.409,2.813-1.39,3.833-2.341c2.341-2.186,3.426-5.619,2.619-8.429c-0.062-0.218,0.003-0.433-0.025-0.63
		c-0.05-0.354-0.735-2.008-1.047-2.152c-0.631,0.123-1.387,0.896-2.041,1.027C299.003,134.872,297.731,136.291,296.933,137.959z"/>
	<path fill="#FFFFFF" d="M274.051,169.125c0.161,0.325,0.323,0.65,0.484,0.975c0.015,0.178,0.03,0.355,0.045,0.533
		c0.564,1.618,2.733,3.922,3.842,4.452c0.511,0.244,0.851,0.904,1.479,0.296c0.219-0.626,0.771-1.166,1.05-1.783
		c0.022-0.136,0.045-0.273,0.067-0.409c0.473-1.226,0.592-1.921,0.613-3.239c0.029-0.197,0.058-0.394,0.087-0.591
		c-0.05-0.145-0.1-0.29-0.15-0.435c0.029-0.141,0.058-0.281,0.087-0.422c-0.085-0.225-0.17-0.451-0.255-0.676
		c-0.034-0.277-0.069-0.554-0.103-0.832c-0.113-0.225-0.227-0.451-0.34-0.676c-0.149-0.552-0.344-1.188-0.758-1.807
		c-0.536-0.802-1.057-1.733-1.677-2.329c-0.219-0.156-0.438-0.313-0.656-0.469c-0.24-0.273-0.481-0.547-0.721-0.82
		c-0.261-0.154-0.502-0.122-0.795-0.125c-0.306,0.205-0.288,0.419-0.422,0.642c-0.193,0.22-0.387,0.441-0.58,0.661
		c-0.024,0.119-0.049,0.238-0.073,0.357c-0.105,0.125-0.211,0.251-0.317,0.376c-0.029,0.141-0.058,0.281-0.087,0.422
		c-0.13,0.188-0.26,0.376-0.389,0.564c-0.22,0.954-0.438,1.848-0.514,2.837c-0.04,0.138-0.08,0.277-0.119,0.415
		c-0.006,0.538,0.178,0.979,0.233,1.533C274.095,168.742,273.999,168.936,274.051,169.125z"/>
	<path fill="#FFFFFF" d="M290.327,170.828c-0.451,0.205-0.921,0.432-1.323,0.614c-0.226,0.129-0.452,0.259-0.678,0.388
		c-0.293,0.212-0.491,0.465-0.686,0.674c-0.318,0.246-0.637,0.492-0.955,0.738c-0.47,0.487-0.903,1.207-1.149,1.764
		c-0.108,0.136-0.215,0.272-0.323,0.408c-0.011,0.138-0.023,0.277-0.034,0.416c-0.147,0.39-0.582,0.981-0.51,1.401
		c0.194,0.61,0.516,0.38,0.867,0.528c0.158,0.093,0.315,0.187,0.473,0.28c0.604,0.212,1.27,0.211,1.913,0.265
		c0.155,0.048,0.311,0.096,0.466,0.144c0.41,0.029,0.781-0.074,1.197-0.081c0.195,0.022,0.39,0.044,0.585,0.066
		c0.26-0.063,0.444-0.244,0.678-0.219c0.092,0.024,0.184,0.048,0.276,0.072c0.349-0.144,0.698-0.288,1.047-0.432
		c2.572-0.665,4.646-2.898,5.397-4.714c0.245-0.592,1.168-2.193,0.862-2.784c-0.121-0.049-0.725-0.263-0.834-0.268
		c-0.094,0.015-0.189,0.03-0.283,0.045c-0.105-0.044-0.21-0.087-0.315-0.131c-0.134,0.013-0.267,0.025-0.401,0.038
		c-1.564-0.385-3.869-0.1-5.61,0.415C290.766,170.578,290.546,170.703,290.327,170.828z"/>
	<path fill="#FFFFFF" d="M292.952,131.688c0.072,0.121,0.144,0.243,0.216,0.364c-0.007,0.089-0.014,0.177-0.02,0.266
		c0.102,0.195,0.205,0.39,0.307,0.585c0.013,0.132,0.026,0.264,0.038,0.396c0.105,0.128,0.21,0.256,0.315,0.384
		c0.336,0.724,0.999,2.025,1.769,2.297c1.295-0.709,2.067-1.596,2.748-2.558c0.374-0.545,0.748-1.089,1.122-1.634
		c0.24-0.449,0.287-0.916,0.451-1.363c0.644-1.758,0.624-3.5-0.078-5.54c-0.026-0.152-0.052-0.303-0.078-0.455
		c-0.081-0.106-0.162-0.213-0.242-0.319c-0.037-0.154-0.074-0.308-0.111-0.461c-0.155-0.217-0.31-0.434-0.465-0.651
		c-0.054-0.152-0.109-0.303-0.163-0.455c-0.26-0.289-0.52-0.577-0.78-0.866c-0.393-0.419-0.49-0.691-0.885-0.853
		c-0.055,0.017-0.11,0.034-0.165,0.052c-0.376,0.237-0.503,0.515-0.725,0.784c-0.513,0.621-1.027,1.203-1.431,1.808
		c-0.328,0.486-0.656,0.973-0.983,1.459c-0.073,0.301-0.146,0.601-0.219,0.902c-0.128,0.262-0.256,0.523-0.383,0.785
		c-0.011,0.195-0.023,0.39-0.034,0.584c-0.473,1.418-0.395,2.562-0.162,4.123C292.979,131.446,292.965,131.567,292.952,131.688z"/>
	<path fill="#FFFFFF" d="M289.87,148.793c-0.051-0.205,0.035-0.452-0.031-0.682c-0.133-0.269-0.266-0.538-0.399-0.806
		c-0.478-1.487-1.352-2.698-2.515-3.747c-0.225-0.265-0.45-0.529-0.675-0.794c-1.493-1.172-3.132-1.864-4.754-2.421
		c-0.105,0.041-0.211,0.082-0.316,0.123c-0.52,0.351-0.605,2.01-0.592,2.551c-0.044,0.132-0.088,0.264-0.132,0.396
		c-0.024,0.506,0.119,0.922,0.148,1.449c0.011,0.207-0.05,0.41,0.005,0.643c0.054,0.124,0.109,0.247,0.163,0.371
		c0.05,0.213-0.038,0.462,0.044,0.701c0.458,1.335,1.831,3.451,2.921,4.352c0.225,0.124,0.451,0.248,0.676,0.372
		c0.184,0.161,0.367,0.321,0.551,0.482c0.114,0.028,0.228,0.057,0.342,0.085c0.155,0.132,0.311,0.265,0.466,0.397
		c0.138,0.022,0.276,0.044,0.414,0.066c0.162,0.1,0.324,0.2,0.486,0.3c0.123,0.013,0.245,0.027,0.368,0.04
		c0.472,0.194,2.116,0.795,2.576,0.532c0.298-0.517,0.3-1.112,0.346-1.688c0.053-0.119,0.106-0.238,0.159-0.357
		c-0.026-0.152-0.052-0.303-0.078-0.455c0.011-0.196,0.118-0.356,0.067-0.578c-0.035-0.108-0.07-0.217-0.104-0.325
		c0-0.108,0.091-0.216,0.099-0.318C290.027,149.252,289.949,149.022,289.87,148.793z"/>
	<path fill="#FFFFFF" d="M288.282,132.274c0.244,0.589,0.488,1.179,0.732,1.768c0.172,0.299,0.345,0.598,0.517,0.897
		c0.026,0.208,0.052,0.416,0.077,0.624c0.192,0.427,0.384,0.854,0.575,1.281c0.015,0.234,0.03,0.468,0.044,0.701
		c0.124,0.256,0.249,0.512,0.373,0.767c0.181,1.166,0.45,2.343,0.662,3.528c0.063,0.354,0.051,0.981,0.049,1.344
		c-0.002,0.571,0.232,1.106,0.219,1.683c-0.029,1.318-0.089,2.657-0.083,3.987c-0.062,0.19-0.124,0.381-0.186,0.571
		c0.024,0.465-0.085,0.827-0.122,1.26c0.019,0.156,0.039,0.312,0.058,0.468c-0.012,0.463-0.168,0.951-0.207,1.428
		c-0.057,0.141-0.115,0.281-0.172,0.422c0.004,0.119,0.008,0.238,0.012,0.357c-0.05,0.32-0.26,0.673-0.272,0.993
		c-0.017,0.449-0.167,0.802-0.286,1.227c-0.007,0.145-0.014,0.29-0.021,0.435c-0.211,0.595-0.377,1.175-0.603,1.771
		c-0.003,0.123-0.005,0.247-0.008,0.37c-0.3,0.973-0.751,1.88-0.98,2.861c-0.101,0.16-0.202,0.32-0.304,0.48
		c-0.129,0.34-0.22,0.775-0.365,1.11c-0.099,0.149-0.198,0.298-0.297,0.447c-0.018,0.143-0.036,0.286-0.054,0.428
		c-0.103,0.143-0.207,0.285-0.31,0.428c-0.136,0.349-0.273,0.805-0.424,1.148c-0.11,0.147-0.22,0.294-0.33,0.441
		c-0.038,0.156-0.075,0.312-0.113,0.467c-0.114,0.14-0.229,0.281-0.343,0.421c-0.018,0.115-0.036,0.229-0.054,0.344
		c-0.125,0.166-0.251,0.333-0.376,0.499c-0.187,0.348-0.335,0.884-0.542,1.226c-0.13,0.16-0.259,0.32-0.389,0.48
		c-0.042,0.149-0.084,0.299-0.126,0.448c-0.123,0.127-0.246,0.255-0.369,0.382c-0.049,0.154-0.097,0.307-0.146,0.461
		c-0.26,0.536-0.648,0.892-0.99,1.407c-0.138,0.207-0.162,0.456-0.271,0.655c-0.123,0.127-0.246,0.255-0.369,0.382
		c-0.068,0.166-0.137,0.333-0.205,0.5c-0.147,0.134-0.294,0.268-0.442,0.402c-0.082,0.203-0.163,0.407-0.245,0.61
		c-0.191,0.209-0.382,0.419-0.574,0.628c-0.066,0.156-0.132,0.311-0.198,0.467c-0.16,0.171-0.321,0.341-0.481,0.512
		c-0.088,0.179-0.176,0.359-0.264,0.538c-0.257,0.345-0.629,0.545-0.765,0.894c-0.12,0.31-0.452,0.522-0.666,0.83
		c-0.11,0.203-0.22,0.406-0.33,0.61c-0.158,0.132-0.316,0.263-0.474,0.395c-0.213,0.318-0.427,0.635-0.64,0.953
		c-0.407,0.45-0.933,0.769-0.832,1.303c0.078,0.409,0.724,0.773,0.964,0.886c0.307,0.144,0.436,0.28,0.755,0.32
		c0.607-0.409,0.847-0.917,1.148-1.341c0.237-0.24,0.475-0.479,0.712-0.719c0.099-0.177,0.198-0.355,0.297-0.532
		c0.174-0.151,0.347-0.302,0.521-0.453c0.143-0.168,0.18-0.403,0.271-0.571c0.226-0.242,0.453-0.484,0.679-0.726
		c0.057-0.141,0.115-0.281,0.172-0.422c0.152-0.155,0.303-0.311,0.455-0.466c0.137-0.249,0.273-0.497,0.41-0.746
		c0.165-0.164,0.33-0.328,0.494-0.492c0.046-0.143,0.093-0.286,0.139-0.428c0.408-0.615,0.823-0.999,1.201-1.601
		c0.071-0.177,0.141-0.355,0.212-0.532c0.147-0.162,0.294-0.324,0.442-0.486c0.038-0.128,0.075-0.255,0.113-0.383
		c0.125-0.138,0.251-0.276,0.376-0.415c0.062-0.162,0.124-0.324,0.185-0.487c0.141-0.158,0.281-0.315,0.422-0.473
		c0.053-0.175,0.106-0.35,0.159-0.526c0.112-0.13,0.224-0.259,0.336-0.389c0.097-0.223,0.194-0.445,0.291-0.668
		c0.103-0.114,0.207-0.229,0.31-0.343c0.066-0.212,0.133-0.424,0.199-0.636c1.365-2.471,2.42-4.894,3.438-7.421
		c0.005-0.134,0.009-0.268,0.014-0.403c0.251-0.634,0.492-1.2,0.735-1.829c0.014-0.149,0.027-0.299,0.041-0.448
		c0.055-0.073,0.11-0.147,0.165-0.22c-0.004-0.119-0.008-0.238-0.012-0.357c0.077-0.125,0.154-0.251,0.231-0.376
		c0.069-0.297,0.023-0.669,0.127-0.954c0.574-1.573,0.904-3.564,1.006-5.238c0.042-0.093,0.084-0.186,0.126-0.279
		c0.104-0.606,0.103-1.288,0.084-1.909c-0.011-0.359,0.181-0.797,0.22-1.155c-0.026-0.123-0.052-0.247-0.078-0.37
		c-0.008-0.436,0.047-0.91,0.102-1.331c-0.041-0.188-0.082-0.377-0.124-0.565c-0.005-0.841,0.092-1.644-0.112-2.539
		c0.009-0.184,0.019-0.368,0.028-0.552c-0.05-0.23-0.1-0.459-0.15-0.689c0.017-0.406-0.035-0.998-0.088-1.403
		c-0.087-0.271-0.174-0.542-0.261-0.812c0.014-0.149,0.027-0.299,0.041-0.448c-0.076-0.184-0.152-0.368-0.229-0.553
		c-0.049-0.237,0.032-0.459-0.024-0.714c-0.116-0.271-0.231-0.542-0.346-0.813c-0.006-0.165-0.012-0.329-0.018-0.494
		c-0.115-0.271-0.231-0.542-0.346-0.813c-0.043-0.29-0.086-0.58-0.129-0.871c-0.148-0.277-0.297-0.555-0.445-0.832
		c-0.164-0.404-0.206-0.737-0.405-1.196c-0.321-0.743-1.272-3.108-1.905-3.388c-0.105,0.041-0.211,0.082-0.316,0.123
		c-0.454,0.326-0.909,0.651-1.364,0.977C287.633,131.397,287.981,131.616,288.282,132.274z"/>
	<path fill="#FFFFFF" d="M280.118,118.376c0.009,1.642,0.47,3.294,1.308,5.127c0.762,1.667,2.183,2.645,3.233,3.333
		c0.166,0.135,0.332,0.269,0.499,0.404c0.136,0.033,0.272,0.066,0.407,0.098c0.507,0.274,1.375,0.865,1.984,0.498
		c0.252-0.438,0.429-1.116,0.622-1.615c0.003-0.152,0.005-0.303,0.008-0.455c0.487-1.222,0.413-2.695,0.135-4.078
		c0.009-0.184,0.019-0.368,0.028-0.552c-0.159-0.364-0.318-0.728-0.477-1.092c-0.032-0.204-0.065-0.407-0.097-0.611
		c-0.437-1.11-1.515-2.355-2.248-2.883c-0.269-0.273-0.538-0.547-0.807-0.82c-0.171-0.057-0.342-0.113-0.512-0.17
		c-1.259-0.834-2.113-1.311-3.527-1.399c-0.029,0.028-0.057,0.056-0.086,0.084c-0.237,0.406-0.242,1.229-0.313,1.694
		c-0.064,0.145-0.128,0.29-0.192,0.435c0.008,0.294,0.016,0.589,0.024,0.883c-0.038,0.212-0.076,0.424-0.113,0.636
		C280.036,118.055,280.077,118.215,280.118,118.376z"/>
	<path fill="#FFFFFF" d="M279.988,151.19c-0.502-0.22-0.838-0.532-1.373-0.562c-0.551,0.527-0.577,1.488-0.742,2.115
		c-0.565,2.151-0.47,5.576,1.985,8.084c0.369,0.423,0.739,0.846,1.108,1.269c0.147,0.063,0.293,0.126,0.44,0.189
		c0.122,0.126,0.245,0.252,0.367,0.378c0.166,0.131,0.375,0.131,0.539,0.209c0.206,0.165,0.411,0.33,0.617,0.495
		c0.554,0.245,1.248,0.495,1.839,0.622c0.284,0.061,0.886,0.406,1.177,0.016c0.204-0.325,0.177-0.812,0.292-1.09
		c1.482-3.599-1.257-9.176-5.317-11.268c-0.162-0.128-0.324-0.256-0.486-0.384C280.286,151.239,280.137,151.214,279.988,151.19z"/>
	<path fill="#FFFFFF" d="M277.673,131.046c-0.02,0.182-0.04,0.364-0.061,0.545c0.194,1.165,1.028,3.844,2.295,4.902
		c0.223,0.163,0.446,0.326,0.669,0.489c0.179,0.21,0.358,0.421,0.538,0.631c0.173,0.074,0.346,0.148,0.519,0.222
		c0.179,0.154,0.359,0.308,0.538,0.462c0.345,0.238,0.92,0.357,1.294,0.529c0.151,0.098,0.302,0.196,0.453,0.293
		c0.352,0.09,0.775,0.107,1.117,0.224c0.842,0.286,1.886,0.495,2.82,0.26c0.527-0.777,0.224-2.194,0.08-3.143
		c0.005-0.162,0.01-0.325,0.014-0.487c-0.124-0.284-0.248-0.568-0.373-0.852c-0.045-0.223-0.091-0.446-0.136-0.669
		c-0.483-1.336-1.644-2.533-2.536-3.312c-0.232-0.26-0.463-0.521-0.695-0.781c-0.169-0.068-0.337-0.135-0.506-0.203
		c-0.203-0.176-0.407-0.352-0.61-0.528c-0.173-0.074-0.346-0.148-0.519-0.222c-0.131-0.111-0.262-0.221-0.394-0.332
		c-1.497-0.432-2.794-1.151-4.403-1.135c-0.171,0.214-0.303,2.249-0.276,2.597C277.56,130.708,277.616,130.877,277.673,131.046z"/>
	<path fill="#FFFFFF" d="M305.11,146.96c-0.057-0.169-0.113-0.338-0.17-0.507c-0.066-0.447,0.211-0.844-0.477-1.177
		c-1.02,0.315-2.09,0.637-3.112,0.914c-0.514,0.28-1.027,0.56-1.541,0.84c-1.494,0.966-2.446,2.007-3.204,3.109
		c-0.191,0.209-0.382,0.419-0.574,0.628c-0.029,0.141-0.058,0.281-0.087,0.422c-0.101,0.132-0.202,0.264-0.303,0.395
		c-0.018,0.115-0.036,0.229-0.054,0.344c-0.106,0.153-0.211,0.307-0.317,0.46c-0.005,0.134-0.009,0.268-0.014,0.403
		c-0.102,0.326-0.33,0.658-0.358,0.993c0.006,0.165,0.012,0.329,0.018,0.494c-0.07,0.312-0.151,0.736-0.147,1.052
		c0.039,0.171,0.078,0.342,0.117,0.513c-0.027,0.13-0.053,0.26-0.08,0.389c0.078,0.202,0.157,0.403,0.235,0.605
		c0.039,0.168-0.046,0.291,0.038,0.481c1.79,0.365,4.837-0.626,6.792-2.425c0.325-0.25,0.65-0.501,0.975-0.751
		c1.151-1.402,2.134-3.409,2.13-5.047c-0.001-0.382,0.196-0.83,0.181-1.214c-0.039-0.115-0.078-0.23-0.117-0.344
		C305.065,147.346,305.087,147.153,305.11,146.96z"/>
	<path fill="#FFFFFF" d="M302.543,158.221c-0.118-0.035-0.237-0.07-0.355-0.105c-0.18,0.043-0.36,0.086-0.539,0.129
		c-0.107-0.033-0.215-0.065-0.322-0.098c-0.228,0.056-0.456,0.111-0.684,0.167c-0.199,0-0.399-0.001-0.598-0.001
		c-0.206,0.088-0.412,0.176-0.619,0.265c-0.164-0.005-0.329-0.009-0.493-0.014c-0.706,0.275-1.413,0.551-2.119,0.826
		c-0.228,0.112-0.457,0.224-0.685,0.336c-0.692,0.438-1.377,0.855-1.871,1.366c-0.134,0.182-0.268,0.363-0.402,0.545
		c-0.284,0.288-0.63,0.48-0.811,0.784c-0.062,0.162-0.124,0.324-0.185,0.487c-0.123,0.127-0.246,0.255-0.369,0.382
		c-0.135,0.272-0.384,0.628-0.482,0.934c-0.043,0.135,0.05,0.281-0.034,0.416c-0.229,0.366-0.849,2.09-0.315,2.454
		c0.447,0.304,1.883,0.311,2.458,0.357c0.381,0.03,0.839,0.135,1.229,0.094c0.241-0.064,0.483-0.129,0.724-0.193
		c0.131,0.026,0.263,0.053,0.394,0.079c0.248-0.097,0.496-0.194,0.744-0.29c0.307-0.051,0.614-0.102,0.921-0.154
		c0.342-0.196,0.685-0.392,1.027-0.588c0.477-0.214,0.995-0.488,1.409-0.867c0.426-0.326,0.852-0.652,1.278-0.977
		c0.195-0.201,0.317-0.483,0.449-0.687c0.191-0.209,0.382-0.419,0.574-0.628c0.04-0.138,0.08-0.277,0.119-0.415
		c0.141-0.186,0.282-0.372,0.422-0.557c0.18-0.376,0.265-0.884,0.398-1.272c0.171-0.5,0.684-1.838,0.578-2.317
		C304.239,158.05,302.94,158.241,302.543,158.221z"/>
	<path fill="#FFFFFF" d="M154.203,146.001c0.304,0.105,0.934,0.337,1.191,0.218c0.21-0.098,0.468-0.663,0.504-0.878
		c0.035-0.221,0.069-0.442,0.103-0.663c0.079-0.173,0.157-0.347,0.235-0.52c0.002-0.242,0.003-0.485,0.005-0.727
		c0.052-0.134,0.105-0.269,0.157-0.403c-0.033-0.134-0.066-0.268-0.1-0.402c-0.013-0.455,0.081-0.831,0.062-1.279
		c-0.007-0.174-0.224-0.81-0.292-1.006c-0.104-0.301-0.103-0.7-0.206-1.006c-0.17-0.505-0.489-0.879-0.727-1.375
		c-0.797-1.667-2.069-3.086-4.272-4.483c-0.654-0.131-1.41-0.905-2.041-1.027c-0.312,0.144-0.997,1.798-1.046,2.152
		c-0.028,0.197,0.038,0.412-0.025,0.63c-0.807,2.81,0.277,6.244,2.619,8.429C151.39,144.611,153.025,145.592,154.203,146.001z"/>
	<path fill="#FFFFFF" d="M152.621,131.789c0.374,0.545,0.748,1.089,1.122,1.634c0.681,0.962,1.454,1.85,2.748,2.558
		c0.77-0.272,1.434-1.573,1.769-2.297c0.105-0.128,0.21-0.256,0.315-0.384c0.013-0.132,0.026-0.264,0.038-0.396
		c0.102-0.195,0.205-0.39,0.307-0.585c-0.007-0.089-0.014-0.177-0.02-0.266c0.072-0.121,0.144-0.243,0.216-0.364
		c-0.013-0.121-0.027-0.242-0.04-0.364c0.233-1.562,0.311-2.706-0.162-4.123c-0.011-0.195-0.023-0.39-0.034-0.584
		c-0.128-0.262-0.256-0.523-0.383-0.785c-0.073-0.301-0.146-0.601-0.219-0.902c-0.328-0.486-0.656-0.973-0.983-1.459
		c-0.404-0.605-0.918-1.187-1.431-1.808c-0.222-0.269-0.35-0.547-0.725-0.784c-0.055-0.017-0.11-0.034-0.165-0.052
		c-0.395,0.162-0.493,0.434-0.885,0.853c-0.26,0.289-0.52,0.577-0.78,0.866c-0.054,0.152-0.109,0.303-0.163,0.455
		c-0.155,0.217-0.31,0.434-0.465,0.651c-0.037,0.154-0.074,0.308-0.111,0.461c-0.081,0.106-0.162,0.213-0.242,0.319
		c-0.026,0.152-0.052,0.303-0.078,0.455c-0.702,2.04-0.722,3.782-0.078,5.54C152.334,130.873,152.381,131.34,152.621,131.789z"/>
	<path fill="#FFFFFF" d="M150.195,154.895c1.955,1.799,5.002,2.79,6.792,2.425c0.084-0.19-0.001-0.313,0.038-0.481
		c0.078-0.202,0.157-0.403,0.235-0.605c-0.027-0.13-0.053-0.26-0.08-0.389c0.039-0.171,0.078-0.342,0.117-0.513
		c0.003-0.316-0.078-0.74-0.147-1.052c0.006-0.165,0.012-0.329,0.018-0.494c-0.028-0.335-0.256-0.667-0.358-0.993
		c-0.005-0.134-0.009-0.268-0.014-0.403c-0.106-0.153-0.211-0.307-0.317-0.46c-0.018-0.115-0.036-0.229-0.053-0.344
		c-0.101-0.132-0.202-0.264-0.303-0.395c-0.029-0.141-0.058-0.281-0.087-0.422c-0.191-0.209-0.382-0.419-0.574-0.628
		c-0.757-1.103-1.71-2.143-3.203-3.109c-0.514-0.28-1.027-0.56-1.541-0.84c-1.023-0.277-2.093-0.599-3.112-0.914
		c-0.688,0.332-0.411,0.73-0.477,1.177c-0.057,0.169-0.113,0.338-0.17,0.507c0.022,0.193,0.045,0.385,0.067,0.578
		c-0.039,0.115-0.078,0.23-0.117,0.344c-0.015,0.384,0.181,0.832,0.181,1.214c-0.003,1.638,0.979,3.645,2.13,5.047
		C149.545,154.394,149.87,154.644,150.195,154.895z"/>
	<path fill="#FFFFFF" d="M149.204,163.236c0.191,0.209,0.382,0.419,0.574,0.628c0.132,0.204,0.254,0.486,0.449,0.687
		c0.426,0.326,0.852,0.652,1.278,0.977c0.414,0.378,0.932,0.653,1.409,0.867c0.342,0.196,0.685,0.392,1.027,0.588
		c0.307,0.051,0.614,0.102,0.921,0.154c0.248,0.097,0.496,0.194,0.744,0.29c0.131-0.026,0.263-0.053,0.394-0.079
		c0.241,0.064,0.483,0.129,0.724,0.193c0.391,0.041,0.848-0.064,1.229-0.094c0.575-0.046,2.011-0.052,2.458-0.357
		c0.534-0.364-0.086-2.088-0.315-2.454c-0.084-0.135,0.009-0.281-0.034-0.416c-0.098-0.306-0.347-0.662-0.482-0.934
		c-0.123-0.127-0.246-0.255-0.369-0.382c-0.062-0.162-0.124-0.324-0.185-0.487c-0.181-0.304-0.526-0.496-0.811-0.784
		c-0.134-0.182-0.268-0.363-0.402-0.545c-0.494-0.511-1.178-0.927-1.871-1.366c-0.228-0.112-0.456-0.224-0.685-0.336
		c-0.706-0.275-1.413-0.551-2.119-0.826c-0.164,0.005-0.329,0.009-0.493,0.014c-0.206-0.088-0.413-0.176-0.619-0.265
		c-0.199,0-0.399,0.001-0.598,0.001c-0.228-0.056-0.456-0.111-0.684-0.167c-0.107,0.033-0.215,0.065-0.322,0.098
		c-0.18-0.043-0.36-0.086-0.539-0.129c-0.118,0.035-0.237,0.07-0.355,0.105c-0.397,0.02-1.697-0.171-1.84,0.453
		c-0.106,0.479,0.407,1.817,0.578,2.317c0.133,0.388,0.218,0.896,0.398,1.272c0.141,0.186,0.281,0.372,0.422,0.557
		C149.124,162.959,149.164,163.097,149.204,163.236z"/>
	<path fill="#FFFFFF" d="M162.107,151.514c0.046,0.575,0.048,1.17,0.346,1.688c0.46,0.262,2.104-0.338,2.576-0.532
		c0.123-0.013,0.245-0.027,0.368-0.04c0.162-0.1,0.324-0.2,0.486-0.3c0.138-0.022,0.276-0.044,0.414-0.066
		c0.155-0.132,0.311-0.265,0.466-0.397c0.114-0.028,0.228-0.057,0.342-0.085c0.184-0.161,0.367-0.321,0.551-0.482
		c0.225-0.124,0.451-0.248,0.676-0.372c1.09-0.901,2.464-3.017,2.921-4.352c0.082-0.239-0.005-0.489,0.044-0.701
		c0.054-0.123,0.109-0.247,0.163-0.371c0.055-0.233-0.006-0.436,0.005-0.643c0.029-0.526,0.171-0.943,0.148-1.449
		c-0.044-0.132-0.088-0.264-0.133-0.396c0.014-0.541-0.071-2.2-0.592-2.551c-0.105-0.041-0.211-0.082-0.316-0.123
		c-1.623,0.557-3.261,1.249-4.754,2.421c-0.225,0.265-0.45,0.529-0.675,0.794c-1.163,1.049-2.038,2.26-2.515,3.747
		c-0.133,0.269-0.266,0.538-0.399,0.806c-0.066,0.23,0.02,0.476-0.031,0.682c-0.078,0.23-0.157,0.459-0.235,0.689
		c0.008,0.102,0.1,0.21,0.099,0.318c-0.035,0.108-0.07,0.217-0.104,0.325c-0.051,0.222,0.056,0.382,0.067,0.578
		c-0.026,0.152-0.052,0.303-0.078,0.455C162.001,151.276,162.054,151.395,162.107,151.514z"/>
	<path fill="#FFFFFF" d="M169.494,129.409c-0.173,0.074-0.346,0.148-0.519,0.222c-0.203,0.176-0.407,0.352-0.61,0.528
		c-0.169,0.068-0.337,0.135-0.506,0.203c-0.232,0.26-0.463,0.521-0.695,0.781c-0.892,0.779-2.053,1.976-2.536,3.312
		c-0.045,0.223-0.091,0.446-0.136,0.669c-0.124,0.284-0.248,0.568-0.373,0.852c0.005,0.162,0.01,0.325,0.014,0.487
		c-0.144,0.949-0.446,2.366,0.08,3.143c0.934,0.235,1.978,0.026,2.82-0.26c0.342-0.116,0.766-0.133,1.117-0.224
		c0.151-0.098,0.302-0.196,0.453-0.293c0.374-0.173,0.949-0.291,1.294-0.529c0.179-0.154,0.359-0.308,0.538-0.462
		c0.173-0.074,0.346-0.148,0.519-0.222c0.179-0.21,0.358-0.421,0.538-0.631c0.223-0.163,0.446-0.326,0.669-0.489
		c1.268-1.058,2.101-3.738,2.295-4.902c-0.02-0.182-0.04-0.364-0.061-0.545c0.057-0.169,0.113-0.338,0.17-0.507
		c0.027-0.348-0.106-2.383-0.276-2.597c-1.608-0.016-2.906,0.702-4.402,1.135C169.756,129.187,169.625,129.298,169.494,129.409z"/>
	<path fill="#FFFFFF" d="M166.124,164.005c0.291,0.39,0.893,0.045,1.177-0.016c0.592-0.127,1.285-0.377,1.839-0.622
		c0.206-0.165,0.411-0.33,0.617-0.495c0.164-0.079,0.373-0.079,0.539-0.209c0.122-0.126,0.245-0.252,0.367-0.378
		c0.147-0.063,0.293-0.126,0.44-0.189c0.369-0.423,0.739-0.846,1.108-1.269c2.454-2.508,2.549-5.933,1.985-8.084
		c-0.165-0.627-0.191-1.589-0.742-2.115c-0.535,0.03-0.87,0.342-1.373,0.562c-0.149,0.024-0.298,0.048-0.447,0.073
		c-0.162,0.128-0.324,0.256-0.486,0.384c-4.06,2.091-6.799,7.669-5.317,11.268C165.946,163.193,165.919,163.68,166.124,164.005z"/>
	<path fill="#FFFFFF" d="M173.549,162.181c-0.62,0.596-1.141,1.527-1.677,2.329c-0.414,0.619-0.609,1.255-0.758,1.807
		c-0.113,0.225-0.227,0.451-0.34,0.676c-0.034,0.277-0.069,0.554-0.103,0.832c-0.085,0.225-0.17,0.451-0.255,0.676
		c0.029,0.141,0.058,0.281,0.087,0.422c-0.05,0.145-0.1,0.29-0.15,0.435c0.029,0.197,0.058,0.394,0.087,0.591
		c0.021,1.318,0.14,2.013,0.613,3.239c0.022,0.136,0.044,0.273,0.067,0.409c0.279,0.617,0.831,1.157,1.05,1.783
		c0.628,0.608,0.967-0.052,1.479-0.296c1.109-0.53,3.278-2.834,3.842-4.452c0.015-0.178,0.03-0.355,0.045-0.533
		c0.161-0.325,0.323-0.65,0.484-0.975c0.052-0.189-0.044-0.383-0.028-0.552c0.055-0.554,0.239-0.995,0.233-1.533
		c-0.04-0.138-0.08-0.277-0.119-0.415c-0.075-0.989-0.294-1.882-0.514-2.837c-0.13-0.188-0.26-0.376-0.389-0.564
		c-0.029-0.141-0.058-0.281-0.087-0.422c-0.106-0.125-0.211-0.251-0.317-0.376c-0.024-0.119-0.049-0.238-0.073-0.357
		c-0.193-0.22-0.387-0.441-0.58-0.661c-0.134-0.222-0.117-0.437-0.422-0.642c-0.294,0.003-0.534-0.029-0.795,0.125
		c-0.24,0.273-0.481,0.547-0.721,0.82C173.987,161.868,173.768,162.025,173.549,162.181z"/>
	<path fill="#FFFFFF" d="M159.129,138.832c-0.076,0.184-0.152,0.368-0.229,0.553c0.014,0.149,0.027,0.299,0.041,0.448
		c-0.087,0.271-0.174,0.542-0.261,0.812c-0.054,0.405-0.105,0.997-0.088,1.403c-0.05,0.23-0.1,0.459-0.149,0.689
		c0.009,0.184,0.018,0.368,0.028,0.552c-0.204,0.895-0.107,1.699-0.112,2.539c-0.041,0.188-0.082,0.377-0.123,0.565
		c0.055,0.421,0.111,0.895,0.102,1.331c-0.026,0.123-0.052,0.247-0.078,0.37c0.039,0.359,0.231,0.796,0.22,1.155
		c-0.02,0.621-0.021,1.303,0.084,1.909c0.042,0.093,0.084,0.186,0.126,0.279c0.102,1.674,0.432,3.665,1.006,5.238
		c0.104,0.285,0.058,0.658,0.127,0.954c0.077,0.125,0.154,0.251,0.231,0.376c-0.004,0.119-0.008,0.238-0.012,0.357
		c0.055,0.074,0.11,0.147,0.165,0.22c0.014,0.149,0.027,0.299,0.041,0.448c0.242,0.629,0.484,1.196,0.735,1.829
		c0.005,0.134,0.009,0.268,0.014,0.403c1.018,2.527,2.073,4.95,3.438,7.421c0.066,0.212,0.133,0.424,0.199,0.636
		c0.103,0.115,0.207,0.229,0.31,0.343c0.097,0.223,0.194,0.445,0.291,0.668c0.112,0.13,0.224,0.259,0.336,0.389
		c0.053,0.175,0.106,0.35,0.159,0.526c0.141,0.158,0.281,0.315,0.422,0.473c0.062,0.162,0.124,0.324,0.185,0.487
		c0.125,0.138,0.251,0.276,0.376,0.415c0.038,0.128,0.075,0.255,0.113,0.383c0.147,0.162,0.295,0.324,0.442,0.486
		c0.071,0.177,0.141,0.355,0.212,0.532c0.378,0.602,0.793,0.986,1.201,1.601c0.046,0.143,0.093,0.286,0.139,0.428
		c0.165,0.164,0.33,0.328,0.494,0.492c0.137,0.249,0.273,0.497,0.41,0.746c0.152,0.156,0.303,0.311,0.455,0.466
		c0.057,0.141,0.115,0.281,0.172,0.422c0.226,0.242,0.453,0.484,0.679,0.726c0.091,0.168,0.128,0.403,0.271,0.571
		c0.174,0.151,0.347,0.302,0.521,0.453c0.099,0.177,0.198,0.355,0.297,0.532c0.237,0.24,0.475,0.479,0.712,0.719
		c0.3,0.424,0.541,0.932,1.148,1.341c0.319-0.04,0.449-0.176,0.755-0.32c0.24-0.113,0.887-0.476,0.964-0.886
		c0.101-0.534-0.425-0.853-0.832-1.303c-0.213-0.318-0.427-0.635-0.64-0.953c-0.158-0.132-0.316-0.263-0.474-0.395
		c-0.11-0.203-0.22-0.406-0.33-0.61c-0.215-0.307-0.546-0.519-0.666-0.83c-0.136-0.35-0.508-0.549-0.765-0.894
		c-0.088-0.179-0.176-0.359-0.264-0.538c-0.16-0.171-0.321-0.341-0.481-0.512c-0.066-0.156-0.132-0.311-0.198-0.467
		c-0.191-0.209-0.382-0.419-0.574-0.628c-0.082-0.203-0.163-0.407-0.245-0.61c-0.147-0.134-0.294-0.268-0.442-0.402
		c-0.068-0.167-0.137-0.333-0.205-0.5c-0.123-0.127-0.246-0.255-0.369-0.382c-0.109-0.2-0.134-0.448-0.271-0.655
		c-0.342-0.514-0.729-0.871-0.99-1.407c-0.049-0.154-0.097-0.307-0.146-0.461c-0.123-0.127-0.246-0.255-0.369-0.382
		c-0.042-0.149-0.084-0.299-0.126-0.448c-0.13-0.16-0.259-0.32-0.389-0.48c-0.207-0.342-0.355-0.878-0.542-1.226
		c-0.125-0.166-0.251-0.333-0.376-0.499c-0.018-0.115-0.036-0.229-0.053-0.344c-0.114-0.14-0.229-0.281-0.343-0.421
		c-0.038-0.156-0.075-0.312-0.113-0.467c-0.11-0.147-0.22-0.294-0.33-0.441c-0.15-0.343-0.288-0.799-0.424-1.148
		c-0.103-0.143-0.207-0.285-0.31-0.428c-0.018-0.143-0.036-0.286-0.054-0.428c-0.099-0.149-0.198-0.298-0.297-0.447
		c-0.145-0.334-0.235-0.77-0.364-1.11c-0.101-0.16-0.202-0.32-0.304-0.48c-0.23-0.982-0.681-1.889-0.98-2.861
		c-0.002-0.123-0.005-0.247-0.008-0.37c-0.226-0.596-0.392-1.176-0.603-1.771c-0.007-0.145-0.014-0.29-0.021-0.435
		c-0.119-0.425-0.269-0.778-0.286-1.227c-0.012-0.32-0.222-0.673-0.272-0.993c0.004-0.119,0.008-0.238,0.012-0.357
		c-0.057-0.141-0.115-0.281-0.172-0.422c-0.039-0.477-0.196-0.965-0.208-1.428c0.019-0.156,0.039-0.312,0.058-0.468
		c-0.037-0.432-0.146-0.794-0.122-1.26c-0.062-0.19-0.124-0.381-0.186-0.571c0.007-1.33-0.053-2.669-0.083-3.987
		c-0.013-0.577,0.221-1.112,0.219-1.683c-0.001-0.363-0.014-0.991,0.049-1.344c0.212-1.185,0.48-2.362,0.662-3.528
		c0.124-0.256,0.249-0.512,0.373-0.767c0.015-0.234,0.029-0.468,0.044-0.701c0.192-0.427,0.384-0.854,0.575-1.281
		c0.026-0.208,0.051-0.416,0.077-0.624c0.172-0.299,0.345-0.598,0.517-0.897c0.244-0.589,0.488-1.179,0.732-1.768
		c0.301-0.658,0.649-0.877,0.641-1.463c-0.454-0.326-0.909-0.651-1.364-0.977c-0.105-0.041-0.211-0.082-0.316-0.123
		c-0.632,0.28-1.584,2.646-1.905,3.388c-0.198,0.459-0.24,0.792-0.405,1.196c-0.148,0.277-0.297,0.555-0.445,0.832
		c-0.043,0.29-0.086,0.58-0.129,0.871c-0.115,0.271-0.231,0.542-0.346,0.813c-0.006,0.164-0.012,0.329-0.018,0.494
		c-0.115,0.271-0.231,0.542-0.346,0.813C159.096,138.373,159.178,138.595,159.129,138.832z"/>
	<path fill="#FFFFFF" d="M163.889,125.767c0.003,0.152,0.005,0.303,0.008,0.455c0.193,0.499,0.37,1.178,0.622,1.615
		c0.61,0.367,1.477-0.224,1.984-0.498c0.136-0.033,0.272-0.066,0.407-0.098c0.166-0.135,0.332-0.269,0.499-0.404
		c1.05-0.688,2.471-1.666,3.233-3.333c0.838-1.833,1.3-3.486,1.308-5.127c0.041-0.16,0.082-0.321,0.124-0.481
		c-0.038-0.212-0.076-0.424-0.113-0.636c0.008-0.294,0.016-0.589,0.024-0.883c-0.064-0.145-0.128-0.29-0.192-0.435
		c-0.071-0.465-0.076-1.288-0.313-1.694c-0.029-0.028-0.057-0.056-0.086-0.084c-1.414,0.088-2.268,0.565-3.527,1.399
		c-0.171,0.057-0.342,0.113-0.512,0.17c-0.269,0.273-0.538,0.547-0.807,0.82c-0.733,0.528-1.811,1.772-2.248,2.883
		c-0.032,0.204-0.065,0.407-0.097,0.611c-0.159,0.364-0.318,0.728-0.477,1.092c0.009,0.184,0.018,0.368,0.028,0.552
		C163.476,123.071,163.402,124.545,163.889,125.767z"/>
	<path fill="#FFFFFF" d="M166.857,175.413c-0.108-0.136-0.215-0.272-0.323-0.408c-0.246-0.557-0.679-1.277-1.149-1.764
		c-0.318-0.246-0.637-0.492-0.955-0.738c-0.194-0.209-0.392-0.462-0.686-0.674c-0.226-0.129-0.452-0.259-0.678-0.388
		c-0.403-0.181-0.872-0.409-1.323-0.614c-0.219-0.125-0.439-0.25-0.658-0.375c-1.741-0.514-4.046-0.8-5.61-0.415
		c-0.134-0.013-0.267-0.025-0.401-0.038c-0.105,0.044-0.21,0.087-0.315,0.131c-0.094-0.015-0.189-0.03-0.283-0.045
		c-0.11,0.005-0.713,0.22-0.834,0.268c-0.306,0.59,0.617,2.192,0.862,2.784c0.751,1.817,2.825,4.049,5.397,4.714
		c0.349,0.144,0.698,0.288,1.047,0.432c0.092-0.024,0.184-0.048,0.276-0.072c0.233-0.025,0.418,0.156,0.678,0.219
		c0.195-0.022,0.39-0.044,0.585-0.066c0.416,0.007,0.787,0.111,1.197,0.081c0.156-0.048,0.311-0.096,0.466-0.144
		c0.643-0.054,1.309-0.053,1.913-0.265c0.158-0.094,0.315-0.187,0.473-0.28c0.351-0.148,0.672,0.082,0.867-0.528
		c0.072-0.421-0.363-1.011-0.51-1.401C166.879,175.69,166.868,175.552,166.857,175.413z"/>
</g>
</svg>
