<?xml version="1.0" encoding="utf-8"?>
<!-- Generator: Adobe Illustrator 17.0.0, SVG Export Plug-In . SVG Version: 6.00 Build 0)  -->
<!DOCTYPE svg PUBLIC "-//W3C//DTD SVG 1.1//EN" "http://www.w3.org/Graphics/SVG/1.1/DTD/svg11.dtd">
<svg version="1.1" id="Layer_1" xmlns="http://www.w3.org/2000/svg" xmlns:xlink="http://www.w3.org/1999/xlink" x="0px" y="0px"
	 width="458px" height="313px" viewBox="0 0 458 313" enable-background="new 0 0 458 313" xml:space="preserve">
<linearGradient id="SVGID_1_" gradientUnits="userSpaceOnUse" x1="531.286" y1="400.7148" x2="673.7789" y2="657.202" gradientTransform="matrix(1 0 0 1 -334 -299)">
	<stop  offset="0" style="stop-color:#2BC4F3"/>
	<stop  offset="0.5" style="stop-color:#00AEEE"/>
	<stop  offset="1" style="stop-color:#0095DA"/>
</linearGradient>
<ellipse fill="url(#SVGID_1_)" cx="228" cy="157" rx="142" ry="141"/>
<g>
	<path fill="#FFFFFF" d="M227.75,35.982C160.066,35.982,105,90.353,105,157.181s55.066,121.199,122.75,121.199
		S350.5,224.01,350.5,157.181S295.434,35.982,227.75,35.982z M227.75,271.307c-63.733,0-115.586-51.198-115.586-114.126
		S164.017,43.056,227.75,43.056s115.586,51.198,115.586,114.126S291.483,271.307,227.75,271.307z"/>
	<polygon fill="#FFFFFF" points="229.18,152.565 231.813,149.098 230.35,146.425 230.271,146.425 225.229,146.425 225.15,146.425 
		223.686,149.098 226.32,152.565 221.565,164.267 227.721,170.488 227.716,170.552 227.75,170.518 227.783,170.552 227.78,170.487 
		233.935,164.267 	"/>
	<path fill="#FFFFFF" d="M227.75,143.491c14.092,0,25.557-11.32,25.557-25.235s-11.465-25.235-25.557-25.235
		c-14.092,0-25.557,11.32-25.557,25.235S213.658,143.491,227.75,143.491z M227.75,97.645c11.51,0,20.875,9.246,20.875,20.612
		s-9.364,20.611-20.875,20.611c-11.51,0-20.875-9.246-20.875-20.611S216.24,97.645,227.75,97.645z"/>
	<path fill="#FFFFFF" d="M243.003,145.503c-1.245,0.889-1.428,2.288-1.622,3.77c-0.219,1.673-0.519,3.965-2.229,6.594
		c-0.774,1.191-1.909,2.084-2.483,2.394c-1.134,0.612-1.551,2.017-0.93,3.137c0.62,1.12,2.043,1.532,3.178,0.918
		c1.142-0.617,2.921-2.022,4.176-3.953c2.278-3.503,2.688-6.63,2.932-8.498c0.002-0.019,0.005-0.037,0.007-0.056
		c11.696,2.811,17.99,12.731,17.99,20.959c0,0.543-0.097,1.25-0.238,1.937h4.738c0.157-1.104,0.182-1.911,0.182-1.937
		c0-6.255-2.566-12.354-7.225-17.175c-4.208-4.353-9.981-7.487-15.84-8.598C244.382,144.758,243.512,145.14,243.003,145.503z"/>
	<path fill="#FFFFFF" d="M191.521,172.705c-0.141-0.687-0.238-1.394-0.238-1.937c0-8.228,6.293-18.148,17.99-20.959
		c0.002,0.019,0.005,0.038,0.007,0.056c0.245,1.868,0.654,4.994,2.932,8.498c1.255,1.931,3.034,3.336,4.176,3.953
		c1.135,0.614,2.557,0.201,3.178-0.918c0.62-1.12,0.204-2.525-0.93-3.137c-0.574-0.31-1.709-1.204-2.483-2.394
		c-1.71-2.629-2.01-4.921-2.229-6.594c-0.194-1.481-0.377-2.881-1.622-3.77c-0.508-0.363-1.378-0.745-2.635-0.508
		c-5.859,1.111-11.633,4.245-15.84,8.598c-4.659,4.821-7.225,10.92-7.225,17.175c0,0.026,0.025,0.833,0.182,1.937H191.521z"/>
	<polygon fill="#FFFFFF" points="278.962,185.215 278.962,206.693 267.744,206.693 267.744,210.257 304.617,210.257 
		291.448,197.736 304.617,185.215 	"/>
	<polygon fill="#FFFFFF" points="176.343,185.215 150.688,185.215 163.857,197.736 150.688,210.257 187.561,210.257 
		187.561,206.693 176.343,206.693 	"/>
	<path fill="#FFFFFF" d="M275.45,177.703H180.05v25.427h95.401V177.703z M205.722,198.389l-5.377-3.71l-5.412,3.71l1.999-6.092
		l-5.446-4.05l6.79,0.034l1.965-6.126l2.275,6.126h6.48l-5.36,3.948L205.722,198.389z M233.084,198.389l-5.377-3.71l-5.412,3.71
		l1.999-6.092l-5.446-4.05l6.79,0.034l1.965-6.126l2.275,6.126h6.48l-5.36,3.948L233.084,198.389z M260.446,198.389l-5.377-3.71
		l-5.412,3.71l1.999-6.092l-5.446-4.05l6.79,0.034l1.965-6.126l2.275,6.126h6.48l-5.36,3.948L260.446,198.389z"/>
	<path fill="#FFFFFF" d="M298.485,137.71c-0.237,0.495-0.555,0.868-0.725,1.371c-0.103,0.305-0.102,0.703-0.206,1.003
		c-0.068,0.195-0.284,0.83-0.291,1.003c-0.019,0.447,0.075,0.822,0.062,1.276c-0.033,0.134-0.066,0.268-0.099,0.401
		c0.052,0.134,0.104,0.268,0.156,0.402c0.002,0.242,0.003,0.484,0.005,0.725c0.078,0.173,0.157,0.346,0.235,0.519
		c0.034,0.22,0.069,0.441,0.103,0.661c0.036,0.215,0.294,0.778,0.503,0.876c0.256,0.119,0.885-0.112,1.188-0.217
		c1.176-0.408,2.807-1.386,3.824-2.335c2.336-2.18,3.418-5.605,2.613-8.407c-0.062-0.217,0.003-0.431-0.025-0.628
		c-0.049-0.353-0.733-2.003-1.044-2.146c-0.63,0.122-1.384,0.894-2.036,1.025C300.549,134.632,299.281,136.048,298.485,137.71z"/>
	<path fill="#FFFFFF" d="M275.655,168.795c0.161,0.324,0.322,0.648,0.483,0.973c0.015,0.177,0.03,0.354,0.045,0.531
		c0.562,1.614,2.726,3.911,3.833,4.44c0.51,0.244,0.849,0.902,1.475,0.295c0.218-0.624,0.769-1.163,1.048-1.779
		c0.022-0.136,0.044-0.272,0.067-0.408c0.472-1.223,0.591-1.916,0.612-3.231c0.029-0.196,0.058-0.393,0.087-0.589
		c-0.05-0.145-0.1-0.29-0.15-0.434c0.029-0.14,0.058-0.281,0.086-0.421c-0.085-0.225-0.169-0.45-0.254-0.674
		c-0.034-0.276-0.069-0.553-0.103-0.829c-0.113-0.225-0.226-0.45-0.339-0.674c-0.148-0.55-0.343-1.185-0.756-1.802
		c-0.535-0.8-1.055-1.729-1.673-2.323c-0.218-0.156-0.437-0.312-0.655-0.468c-0.24-0.273-0.48-0.545-0.719-0.818
		c-0.26-0.154-0.501-0.122-0.793-0.125c-0.305,0.205-0.288,0.418-0.421,0.64c-0.193,0.22-0.386,0.44-0.579,0.659
		c-0.024,0.119-0.049,0.237-0.073,0.356c-0.105,0.125-0.211,0.25-0.316,0.375c-0.029,0.14-0.058,0.281-0.086,0.421
		c-0.13,0.188-0.259,0.375-0.389,0.562c-0.219,0.952-0.437,1.843-0.512,2.829c-0.04,0.138-0.079,0.276-0.119,0.414
		c-0.006,0.536,0.177,0.977,0.232,1.529C275.7,168.413,275.604,168.607,275.655,168.795z"/>
	<path fill="#FFFFFF" d="M291.893,170.494c-0.45,0.204-0.918,0.431-1.32,0.612c-0.226,0.129-0.451,0.258-0.677,0.387
		c-0.292,0.211-0.49,0.464-0.684,0.672c-0.318,0.245-0.635,0.491-0.953,0.736c-0.469,0.485-0.901,1.204-1.146,1.759
		c-0.107,0.136-0.215,0.271-0.322,0.407c-0.011,0.138-0.023,0.276-0.034,0.414c-0.147,0.389-0.58,0.978-0.509,1.398
		c0.194,0.608,0.515,0.379,0.865,0.527c0.157,0.093,0.314,0.186,0.472,0.28c0.602,0.211,1.267,0.21,1.908,0.264
		c0.155,0.048,0.31,0.096,0.465,0.144c0.409,0.029,0.779-0.074,1.194-0.081c0.195,0.022,0.389,0.044,0.584,0.066
		c0.26-0.063,0.443-0.244,0.676-0.219c0.092,0.024,0.184,0.048,0.275,0.072c0.348-0.144,0.696-0.288,1.044-0.431
		c2.566-0.664,4.635-2.89,5.385-4.702c0.244-0.59,1.165-2.188,0.86-2.776c-0.121-0.049-0.723-0.262-0.832-0.268
		c-0.094,0.015-0.188,0.03-0.282,0.045c-0.105-0.043-0.21-0.087-0.315-0.13c-0.133,0.013-0.267,0.025-0.4,0.038
		c-1.56-0.384-3.86-0.099-5.597,0.413C292.331,170.245,292.112,170.37,291.893,170.494z"/>
	<path fill="#FFFFFF" d="M294.513,131.457c0.072,0.121,0.144,0.242,0.216,0.363c-0.007,0.089-0.014,0.177-0.02,0.266
		c0.102,0.195,0.205,0.389,0.307,0.584c0.013,0.132,0.026,0.263,0.038,0.395c0.105,0.128,0.209,0.255,0.314,0.383
		c0.335,0.722,0.997,2.02,1.765,2.291c1.292-0.707,2.063-1.592,2.742-2.552c0.373-0.543,0.746-1.086,1.119-1.629
		c0.239-0.448,0.286-0.914,0.45-1.359c0.643-1.753,0.623-3.491-0.078-5.525c-0.026-0.151-0.052-0.302-0.078-0.454
		c-0.081-0.106-0.161-0.212-0.242-0.318c-0.037-0.153-0.074-0.307-0.11-0.46c-0.155-0.216-0.309-0.433-0.464-0.649
		c-0.054-0.151-0.109-0.303-0.163-0.454c-0.259-0.288-0.519-0.576-0.778-0.863c-0.392-0.418-0.489-0.689-0.883-0.851
		c-0.055,0.017-0.109,0.034-0.164,0.051c-0.375,0.237-0.502,0.514-0.724,0.782c-0.512,0.619-1.025,1.2-1.428,1.804
		c-0.327,0.485-0.654,0.97-0.981,1.455c-0.073,0.3-0.146,0.6-0.219,0.9c-0.127,0.261-0.255,0.522-0.382,0.783
		c-0.011,0.194-0.023,0.389-0.034,0.583c-0.472,1.414-0.394,2.555-0.161,4.113C294.539,131.215,294.526,131.336,294.513,131.457z"/>
	<path fill="#FFFFFF" d="M291.438,148.516c-0.051-0.205,0.035-0.451-0.031-0.68c-0.133-0.268-0.265-0.536-0.398-0.804
		c-0.477-1.483-1.349-2.691-2.509-3.737c-0.225-0.264-0.449-0.528-0.674-0.792c-1.49-1.169-3.124-1.859-4.743-2.415
		c-0.105,0.041-0.21,0.082-0.315,0.122c-0.519,0.35-0.604,2.004-0.59,2.544c-0.044,0.132-0.088,0.263-0.132,0.395
		c-0.023,0.504,0.118,0.92,0.147,1.445c0.011,0.206-0.05,0.409,0.005,0.641c0.054,0.123,0.109,0.246,0.163,0.37
		c0.049,0.212-0.038,0.461,0.044,0.7c0.457,1.331,1.827,3.442,2.915,4.34c0.225,0.124,0.45,0.247,0.675,0.371
		c0.183,0.16,0.366,0.32,0.55,0.481c0.114,0.028,0.227,0.057,0.341,0.085c0.155,0.132,0.31,0.264,0.465,0.396
		c0.138,0.022,0.275,0.044,0.413,0.066c0.162,0.1,0.323,0.199,0.485,0.299c0.122,0.013,0.245,0.027,0.367,0.04
		c0.471,0.194,2.111,0.793,2.57,0.531c0.297-0.516,0.299-1.109,0.345-1.683c0.053-0.119,0.106-0.237,0.158-0.356
		c-0.026-0.151-0.052-0.302-0.078-0.454c0.011-0.195,0.118-0.355,0.067-0.576c-0.035-0.108-0.069-0.216-0.104-0.324
		c0-0.108,0.091-0.216,0.099-0.317C291.594,148.974,291.516,148.745,291.438,148.516z"/>
	<path fill="#FFFFFF" d="M289.854,132.041c0.243,0.588,0.487,1.176,0.73,1.764c0.172,0.298,0.344,0.597,0.516,0.895
		c0.026,0.207,0.051,0.415,0.077,0.622c0.191,0.426,0.383,0.852,0.574,1.277c0.015,0.233,0.029,0.466,0.044,0.7
		c0.124,0.255,0.248,0.51,0.372,0.765c0.181,1.163,0.449,2.337,0.66,3.519c0.063,0.353,0.05,0.979,0.049,1.341
		c-0.002,0.569,0.231,1.103,0.219,1.678c-0.029,1.315-0.089,2.65-0.082,3.977c-0.062,0.19-0.123,0.38-0.185,0.57
		c0.024,0.464-0.085,0.825-0.121,1.256c0.019,0.156,0.039,0.311,0.058,0.467c-0.012,0.462-0.168,0.949-0.207,1.424
		c-0.057,0.14-0.114,0.28-0.172,0.421c0.004,0.119,0.008,0.237,0.012,0.356c-0.05,0.319-0.259,0.671-0.272,0.99
		c-0.017,0.447-0.167,0.8-0.285,1.223c-0.007,0.145-0.014,0.289-0.021,0.434c-0.211,0.594-0.376,1.172-0.601,1.767
		c-0.003,0.123-0.005,0.246-0.008,0.369c-0.299,0.97-0.749,1.875-0.978,2.854c-0.101,0.159-0.202,0.319-0.303,0.479
		c-0.129,0.339-0.219,0.773-0.364,1.107c-0.099,0.149-0.198,0.297-0.296,0.446c-0.018,0.142-0.036,0.285-0.054,0.427
		c-0.103,0.142-0.206,0.284-0.309,0.427c-0.135,0.348-0.273,0.803-0.423,1.145c-0.11,0.147-0.219,0.293-0.329,0.44
		c-0.038,0.155-0.075,0.311-0.113,0.466c-0.114,0.14-0.228,0.28-0.342,0.42c-0.018,0.114-0.036,0.229-0.053,0.343
		c-0.125,0.166-0.25,0.332-0.375,0.498c-0.187,0.347-0.334,0.881-0.541,1.223c-0.129,0.159-0.259,0.319-0.388,0.478
		c-0.042,0.149-0.084,0.298-0.126,0.447c-0.123,0.127-0.246,0.254-0.368,0.381c-0.049,0.153-0.097,0.306-0.146,0.459
		c-0.26,0.534-0.646,0.89-0.988,1.403c-0.137,0.207-0.162,0.454-0.271,0.654c-0.123,0.127-0.246,0.254-0.368,0.381
		c-0.068,0.166-0.136,0.332-0.205,0.498c-0.147,0.133-0.294,0.267-0.441,0.4c-0.081,0.203-0.163,0.406-0.244,0.608
		c-0.191,0.209-0.382,0.418-0.572,0.627c-0.066,0.155-0.132,0.311-0.198,0.466c-0.16,0.17-0.32,0.34-0.48,0.51
		c-0.088,0.179-0.176,0.358-0.264,0.537c-0.256,0.344-0.628,0.543-0.763,0.892c-0.12,0.31-0.451,0.521-0.665,0.827
		c-0.11,0.203-0.22,0.405-0.33,0.608c-0.158,0.131-0.316,0.263-0.473,0.394c-0.213,0.317-0.426,0.634-0.639,0.951
		c-0.406,0.449-0.931,0.767-0.83,1.3c0.078,0.408,0.723,0.771,0.962,0.883c0.306,0.144,0.435,0.279,0.754,0.319
		c0.605-0.408,0.845-0.915,1.145-1.338c0.237-0.239,0.474-0.478,0.71-0.717c0.099-0.177,0.198-0.354,0.297-0.53
		c0.173-0.151,0.346-0.301,0.519-0.452c0.143-0.168,0.18-0.402,0.27-0.569c0.226-0.241,0.452-0.483,0.678-0.724
		c0.057-0.14,0.114-0.28,0.172-0.421c0.151-0.155,0.303-0.31,0.454-0.465c0.136-0.248,0.272-0.496,0.409-0.744
		c0.164-0.164,0.329-0.327,0.493-0.491c0.046-0.142,0.093-0.285,0.139-0.427c0.407-0.613,0.821-0.996,1.198-1.597
		c0.07-0.177,0.141-0.354,0.211-0.531c0.147-0.162,0.294-0.323,0.441-0.485c0.037-0.127,0.075-0.255,0.113-0.382
		c0.125-0.138,0.25-0.276,0.375-0.414c0.062-0.162,0.123-0.324,0.185-0.485c0.14-0.157,0.281-0.315,0.421-0.472
		c0.053-0.175,0.106-0.349,0.159-0.524c0.112-0.129,0.224-0.259,0.336-0.388c0.097-0.222,0.194-0.444,0.29-0.666
		c0.103-0.114,0.206-0.228,0.309-0.343c0.066-0.211,0.132-0.423,0.198-0.634c1.362-2.465,2.415-4.881,3.43-7.401
		c0.005-0.134,0.009-0.268,0.014-0.402c0.25-0.632,0.491-1.197,0.733-1.825c0.014-0.149,0.027-0.298,0.04-0.447
		c0.055-0.073,0.11-0.146,0.165-0.22c-0.004-0.119-0.008-0.237-0.012-0.356c0.077-0.125,0.154-0.25,0.231-0.375
		c0.069-0.296,0.023-0.667,0.127-0.952c0.573-1.569,0.902-3.555,1.004-5.225c0.042-0.093,0.084-0.185,0.125-0.278
		c0.104-0.604,0.103-1.284,0.084-1.904c-0.011-0.358,0.18-0.795,0.219-1.152c-0.026-0.123-0.052-0.246-0.078-0.369
		c-0.008-0.435,0.047-0.907,0.102-1.328c-0.041-0.188-0.082-0.376-0.123-0.564c-0.005-0.838,0.092-1.64-0.112-2.533
		c0.009-0.183,0.018-0.367,0.028-0.551c-0.05-0.229-0.099-0.458-0.149-0.687c0.017-0.405-0.035-0.996-0.088-1.399
		c-0.087-0.27-0.174-0.54-0.26-0.81c0.013-0.149,0.027-0.298,0.04-0.447c-0.076-0.184-0.152-0.367-0.228-0.551
		c-0.049-0.236,0.032-0.458-0.024-0.713c-0.115-0.27-0.23-0.54-0.346-0.81c-0.006-0.164-0.012-0.328-0.018-0.492
		c-0.115-0.27-0.23-0.54-0.346-0.81c-0.043-0.289-0.086-0.579-0.129-0.868c-0.148-0.277-0.296-0.553-0.444-0.83
		c-0.164-0.403-0.206-0.735-0.404-1.193c-0.32-0.741-1.27-3.1-1.9-3.379c-0.105,0.041-0.21,0.082-0.315,0.122
		c-0.453,0.325-0.907,0.65-1.36,0.975C289.206,131.166,289.553,131.385,289.854,132.041z"/>
	<path fill="#FFFFFF" d="M281.709,118.179c0.009,1.637,0.469,3.286,1.305,5.114c0.761,1.662,2.178,2.638,3.226,3.324
		c0.166,0.134,0.332,0.269,0.498,0.403c0.135,0.033,0.271,0.065,0.406,0.098c0.506,0.274,1.372,0.863,1.98,0.497
		c0.252-0.437,0.428-1.113,0.621-1.611c0.003-0.151,0.005-0.302,0.008-0.453c0.486-1.218,0.412-2.688,0.135-4.067
		c0.009-0.183,0.018-0.367,0.028-0.55c-0.159-0.363-0.317-0.726-0.476-1.089c-0.032-0.203-0.065-0.406-0.097-0.609
		c-0.436-1.107-1.512-2.348-2.243-2.875c-0.268-0.273-0.536-0.545-0.805-0.818c-0.17-0.057-0.341-0.113-0.511-0.17
		c-1.256-0.832-2.108-1.307-3.519-1.395c-0.029,0.028-0.057,0.056-0.086,0.084c-0.237,0.405-0.242,1.226-0.313,1.69
		c-0.064,0.145-0.128,0.289-0.191,0.434c0.008,0.294,0.016,0.587,0.024,0.881c-0.038,0.211-0.075,0.423-0.113,0.634
		C281.626,117.859,281.668,118.019,281.709,118.179z"/>
	<path fill="#FFFFFF" d="M281.579,150.907c-0.501-0.219-0.836-0.531-1.37-0.56c-0.549,0.525-0.576,1.484-0.74,2.11
		c-0.563,2.145-0.469,5.561,1.98,8.062c0.368,0.422,0.737,0.844,1.105,1.266c0.146,0.063,0.293,0.126,0.439,0.189
		c0.122,0.126,0.244,0.251,0.366,0.377c0.165,0.13,0.374,0.13,0.537,0.209c0.205,0.165,0.41,0.329,0.615,0.494
		c0.553,0.244,1.245,0.493,1.835,0.62c0.284,0.061,0.884,0.405,1.174,0.016c0.204-0.324,0.177-0.81,0.291-1.087
		c1.479-3.589-1.254-9.152-5.304-11.238c-0.161-0.128-0.323-0.256-0.484-0.383C281.876,150.956,281.728,150.932,281.579,150.907z"/>
	<path fill="#FFFFFF" d="M279.269,130.816c-0.02,0.181-0.04,0.363-0.06,0.544c0.194,1.162,1.025,3.834,2.29,4.889
		c0.223,0.162,0.445,0.325,0.668,0.487c0.179,0.21,0.358,0.42,0.536,0.63c0.173,0.074,0.345,0.148,0.518,0.221
		c0.179,0.154,0.358,0.307,0.537,0.461c0.344,0.237,0.918,0.356,1.291,0.528c0.151,0.098,0.301,0.195,0.452,0.293
		c0.351,0.09,0.773,0.107,1.115,0.223c0.84,0.286,1.882,0.494,2.814,0.26c0.526-0.774,0.224-2.189,0.08-3.135
		c0.005-0.162,0.01-0.324,0.014-0.486c-0.124-0.283-0.248-0.566-0.372-0.849c-0.045-0.222-0.091-0.445-0.136-0.667
		c-0.482-1.332-1.64-2.527-2.53-3.303c-0.231-0.26-0.462-0.519-0.693-0.779c-0.168-0.067-0.336-0.135-0.505-0.202
		c-0.203-0.175-0.406-0.351-0.609-0.526c-0.173-0.074-0.345-0.148-0.518-0.221c-0.131-0.11-0.262-0.221-0.393-0.331
		c-1.493-0.431-2.788-1.148-4.392-1.132c-0.17,0.214-0.302,2.244-0.276,2.59C279.156,130.479,279.212,130.648,279.269,130.816z"/>
	<path fill="#FFFFFF" d="M306.642,146.689c-0.056-0.169-0.113-0.337-0.169-0.506c-0.065-0.446,0.211-0.842-0.476-1.174
		c-1.017,0.314-2.085,0.636-3.105,0.912c-0.512,0.279-1.025,0.559-1.537,0.838c-1.49,0.963-2.44,2.001-3.196,3.101
		c-0.191,0.209-0.382,0.418-0.572,0.627c-0.029,0.14-0.058,0.281-0.086,0.421c-0.101,0.131-0.202,0.263-0.303,0.394
		c-0.018,0.114-0.036,0.229-0.053,0.343c-0.105,0.153-0.211,0.306-0.316,0.459c-0.005,0.134-0.009,0.268-0.014,0.402
		c-0.101,0.325-0.329,0.656-0.357,0.99c0.006,0.164,0.012,0.328,0.018,0.492c-0.07,0.311-0.15,0.734-0.147,1.049
		c0.039,0.171,0.078,0.341,0.117,0.512c-0.027,0.129-0.053,0.259-0.08,0.388c0.078,0.201,0.156,0.402,0.235,0.603
		c0.039,0.167-0.046,0.29,0.038,0.479c1.786,0.364,4.826-0.624,6.776-2.418c0.324-0.25,0.649-0.499,0.973-0.749
		c1.148-1.398,2.129-3.4,2.125-5.034c-0.001-0.381,0.196-0.828,0.18-1.211c-0.039-0.115-0.078-0.229-0.117-0.344
		C306.598,147.073,306.62,146.881,306.642,146.689z"/>
	<path fill="#FFFFFF" d="M304.081,157.92c-0.118-0.035-0.236-0.07-0.354-0.104c-0.179,0.043-0.359,0.085-0.538,0.128
		c-0.107-0.033-0.214-0.065-0.321-0.098c-0.228,0.056-0.455,0.111-0.683,0.167c-0.199,0-0.398-0.001-0.597-0.001
		c-0.206,0.088-0.411,0.176-0.617,0.264c-0.164-0.005-0.328-0.009-0.492-0.014c-0.705,0.275-1.41,0.549-2.114,0.824
		c-0.228,0.112-0.455,0.223-0.683,0.335c-0.691,0.437-1.373,0.853-1.867,1.362c-0.134,0.181-0.268,0.362-0.402,0.543
		c-0.284,0.287-0.629,0.478-0.809,0.782c-0.062,0.162-0.123,0.324-0.185,0.485c-0.123,0.127-0.246,0.254-0.368,0.381
		c-0.135,0.271-0.384,0.627-0.481,0.932c-0.043,0.134,0.05,0.28-0.034,0.414c-0.228,0.365-0.847,2.085-0.315,2.448
		c0.446,0.304,1.879,0.31,2.452,0.356c0.38,0.03,0.837,0.135,1.227,0.094c0.241-0.064,0.481-0.128,0.722-0.193
		c0.131,0.026,0.262,0.052,0.393,0.079c0.247-0.097,0.495-0.193,0.742-0.29c0.306-0.051,0.613-0.102,0.919-0.153
		c0.342-0.196,0.683-0.391,1.025-0.587c0.476-0.213,0.993-0.487,1.406-0.864c0.425-0.325,0.85-0.65,1.275-0.975
		c0.194-0.201,0.316-0.482,0.448-0.685c0.191-0.209,0.382-0.418,0.572-0.627c0.04-0.138,0.079-0.276,0.119-0.414
		c0.14-0.185,0.281-0.371,0.421-0.556c0.18-0.375,0.265-0.882,0.397-1.268c0.171-0.499,0.682-1.833,0.577-2.311
		C305.774,157.749,304.478,157.94,304.081,157.92z"/>
	<path fill="#FFFFFF" d="M156.084,145.732c0.303,0.105,0.932,0.337,1.188,0.217c0.209-0.097,0.467-0.661,0.503-0.876
		c0.034-0.22,0.069-0.441,0.103-0.661c0.078-0.173,0.157-0.346,0.235-0.519c0.002-0.242,0.003-0.484,0.005-0.725
		c0.052-0.134,0.104-0.268,0.156-0.402c-0.033-0.134-0.066-0.268-0.099-0.401c-0.013-0.454,0.081-0.829,0.062-1.276
		c-0.007-0.174-0.224-0.808-0.291-1.003c-0.104-0.301-0.103-0.698-0.206-1.003c-0.17-0.504-0.488-0.876-0.725-1.371
		c-0.796-1.663-2.064-3.078-4.262-4.471c-0.652-0.131-1.406-0.902-2.036-1.025c-0.311,0.144-0.995,1.794-1.044,2.146
		c-0.028,0.197,0.038,0.411-0.025,0.628c-0.805,2.803,0.277,6.227,2.613,8.407C153.278,144.346,154.909,145.324,156.084,145.732z"/>
	<path fill="#FFFFFF" d="M154.506,131.557c0.373,0.543,0.746,1.086,1.119,1.629c0.679,0.96,1.451,1.845,2.742,2.552
		c0.769-0.271,1.431-1.569,1.765-2.291c0.105-0.128,0.209-0.255,0.314-0.383c0.013-0.132,0.026-0.263,0.038-0.395
		c0.102-0.195,0.205-0.389,0.307-0.584c-0.007-0.089-0.014-0.177-0.02-0.266c0.072-0.121,0.144-0.242,0.215-0.363
		c-0.013-0.121-0.027-0.242-0.04-0.363c0.232-1.557,0.311-2.699-0.161-4.113c-0.011-0.194-0.023-0.389-0.034-0.583
		c-0.127-0.261-0.255-0.522-0.382-0.783c-0.073-0.3-0.146-0.6-0.219-0.9c-0.327-0.485-0.654-0.97-0.981-1.455
		c-0.403-0.604-0.916-1.184-1.428-1.804c-0.222-0.268-0.349-0.545-0.724-0.782c-0.055-0.017-0.109-0.034-0.164-0.051
		c-0.395,0.162-0.492,0.433-0.883,0.851c-0.259,0.288-0.519,0.576-0.778,0.863c-0.054,0.151-0.109,0.303-0.163,0.454
		c-0.155,0.216-0.309,0.433-0.464,0.649c-0.037,0.153-0.074,0.307-0.11,0.46c-0.081,0.106-0.161,0.212-0.242,0.318
		c-0.026,0.151-0.052,0.302-0.078,0.454c-0.7,2.034-0.72,3.772-0.078,5.525C154.22,130.643,154.267,131.109,154.506,131.557z"/>
	<path fill="#FFFFFF" d="M152.086,154.602c1.95,1.794,4.991,2.782,6.776,2.418c0.084-0.189-0.001-0.312,0.038-0.479
		c0.078-0.201,0.156-0.402,0.235-0.603c-0.027-0.129-0.053-0.259-0.08-0.388c0.039-0.171,0.078-0.341,0.117-0.512
		c0.003-0.315-0.077-0.738-0.147-1.049c0.006-0.164,0.012-0.328,0.018-0.492c-0.028-0.334-0.255-0.665-0.357-0.99
		c-0.005-0.134-0.009-0.268-0.014-0.402c-0.105-0.153-0.211-0.306-0.316-0.459c-0.018-0.114-0.036-0.229-0.053-0.343
		c-0.101-0.131-0.202-0.263-0.303-0.394c-0.029-0.14-0.058-0.281-0.086-0.421c-0.191-0.209-0.382-0.418-0.572-0.627
		c-0.756-1.1-1.706-2.138-3.196-3.101c-0.512-0.279-1.025-0.559-1.537-0.838c-1.02-0.276-2.088-0.598-3.105-0.912
		c-0.686,0.331-0.41,0.728-0.476,1.174c-0.056,0.169-0.113,0.337-0.169,0.506c0.022,0.192,0.045,0.384,0.067,0.576
		c-0.039,0.115-0.078,0.229-0.117,0.344c-0.015,0.383,0.181,0.83,0.18,1.211c-0.003,1.634,0.977,3.635,2.125,5.034
		C151.437,154.103,151.762,154.353,152.086,154.602z"/>
	<path fill="#FFFFFF" d="M151.097,162.921c0.191,0.209,0.382,0.418,0.572,0.627c0.131,0.204,0.254,0.485,0.448,0.685
		c0.425,0.325,0.85,0.65,1.275,0.975c0.413,0.377,0.93,0.651,1.406,0.864c0.342,0.196,0.683,0.391,1.025,0.587
		c0.306,0.051,0.613,0.102,0.919,0.153c0.247,0.096,0.495,0.193,0.742,0.29c0.131-0.026,0.262-0.052,0.393-0.079
		c0.241,0.064,0.481,0.128,0.722,0.193c0.39,0.041,0.846-0.064,1.226-0.094c0.574-0.046,2.007-0.052,2.452-0.356
		c0.533-0.363-0.086-2.082-0.315-2.448c-0.084-0.134,0.009-0.28-0.034-0.414c-0.098-0.305-0.346-0.66-0.481-0.932
		c-0.123-0.127-0.246-0.254-0.368-0.381c-0.062-0.162-0.123-0.324-0.185-0.485c-0.18-0.303-0.525-0.495-0.809-0.782
		c-0.134-0.181-0.268-0.362-0.402-0.543c-0.493-0.509-1.176-0.925-1.867-1.362c-0.228-0.112-0.455-0.223-0.683-0.335
		c-0.705-0.275-1.41-0.549-2.114-0.824c-0.164,0.005-0.328,0.009-0.492,0.014c-0.206-0.088-0.412-0.176-0.617-0.264
		c-0.199,0-0.398,0.001-0.597,0.001c-0.227-0.056-0.455-0.111-0.683-0.167c-0.107,0.033-0.214,0.065-0.321,0.098
		c-0.179-0.043-0.359-0.085-0.538-0.128c-0.118,0.035-0.236,0.07-0.354,0.104c-0.396,0.02-1.693-0.171-1.836,0.452
		c-0.105,0.478,0.406,1.812,0.577,2.311c0.132,0.387,0.217,0.893,0.397,1.268c0.14,0.185,0.281,0.371,0.421,0.556
		C151.018,162.645,151.057,162.783,151.097,162.921z"/>
	<path fill="#FFFFFF" d="M163.971,151.23c0.046,0.574,0.048,1.167,0.345,1.683c0.459,0.262,2.099-0.337,2.57-0.531
		c0.122-0.013,0.245-0.027,0.367-0.04c0.162-0.1,0.323-0.199,0.485-0.299c0.138-0.022,0.275-0.044,0.413-0.066
		c0.155-0.132,0.31-0.264,0.465-0.396c0.114-0.028,0.227-0.057,0.341-0.085c0.183-0.16,0.367-0.32,0.55-0.481
		c0.225-0.124,0.45-0.247,0.675-0.371c1.088-0.899,2.458-3.009,2.915-4.34c0.082-0.239-0.005-0.488,0.044-0.7
		c0.054-0.123,0.109-0.246,0.163-0.37c0.055-0.233-0.006-0.435,0.005-0.641c0.029-0.525,0.171-0.94,0.147-1.445
		c-0.044-0.132-0.088-0.263-0.132-0.395c0.014-0.54-0.071-2.194-0.59-2.544c-0.105-0.041-0.21-0.081-0.315-0.122
		c-1.619,0.555-3.254,1.246-4.743,2.415c-0.225,0.264-0.449,0.528-0.674,0.792c-1.161,1.046-2.033,2.254-2.509,3.737
		c-0.133,0.268-0.265,0.536-0.398,0.804c-0.066,0.23,0.02,0.475-0.031,0.68c-0.078,0.229-0.156,0.458-0.234,0.687
		c0.008,0.102,0.099,0.209,0.099,0.317c-0.035,0.108-0.069,0.216-0.104,0.324c-0.051,0.222,0.056,0.381,0.067,0.576
		c-0.026,0.151-0.052,0.302-0.078,0.454C163.865,150.993,163.918,151.112,163.971,151.23z"/>
	<path fill="#FFFFFF" d="M171.34,129.183c-0.173,0.074-0.345,0.148-0.518,0.221c-0.203,0.175-0.406,0.351-0.609,0.526
		c-0.168,0.067-0.336,0.135-0.505,0.202c-0.231,0.26-0.462,0.519-0.693,0.779c-0.89,0.776-2.048,1.971-2.53,3.303
		c-0.045,0.222-0.091,0.445-0.136,0.667c-0.124,0.283-0.248,0.566-0.372,0.849c0.005,0.162,0.01,0.324,0.014,0.486
		c-0.143,0.946-0.445,2.36,0.08,3.135c0.932,0.234,1.974,0.026,2.814-0.26c0.341-0.116,0.764-0.133,1.115-0.223
		c0.151-0.098,0.301-0.195,0.452-0.293c0.373-0.172,0.947-0.291,1.291-0.528c0.179-0.154,0.358-0.307,0.537-0.461
		c0.173-0.074,0.345-0.148,0.518-0.221c0.179-0.21,0.358-0.42,0.536-0.63c0.223-0.162,0.445-0.325,0.668-0.487
		c1.265-1.055,2.096-3.728,2.29-4.889c-0.02-0.181-0.04-0.363-0.06-0.544c0.056-0.169,0.113-0.337,0.169-0.506
		c0.027-0.347-0.105-2.377-0.276-2.59c-1.605-0.016-2.899,0.7-4.392,1.132C171.602,128.962,171.471,129.073,171.34,129.183z"/>
	<path fill="#FFFFFF" d="M167.978,163.689c0.29,0.389,0.891,0.045,1.174-0.016c0.59-0.127,1.282-0.376,1.835-0.62
		c0.205-0.165,0.41-0.329,0.615-0.494c0.164-0.078,0.372-0.078,0.537-0.209c0.122-0.126,0.244-0.251,0.366-0.377
		c0.146-0.063,0.293-0.126,0.439-0.189c0.368-0.422,0.737-0.844,1.105-1.266c2.449-2.501,2.543-5.917,1.98-8.062
		c-0.164-0.626-0.191-1.584-0.74-2.11c-0.534,0.03-0.868,0.341-1.37,0.56c-0.149,0.024-0.297,0.048-0.446,0.072
		c-0.161,0.128-0.323,0.256-0.484,0.383c-4.05,2.086-6.783,7.649-5.304,11.238C167.801,162.879,167.774,163.365,167.978,163.689z"/>
	<path fill="#FFFFFF" d="M175.386,161.87c-0.619,0.594-1.138,1.523-1.673,2.323c-0.413,0.617-0.608,1.252-0.756,1.802
		c-0.113,0.225-0.226,0.45-0.339,0.674c-0.034,0.276-0.069,0.553-0.103,0.829c-0.085,0.225-0.169,0.45-0.254,0.674
		c0.029,0.14,0.058,0.281,0.086,0.421c-0.05,0.145-0.1,0.29-0.15,0.434c0.029,0.196,0.058,0.393,0.087,0.589
		c0.021,1.315,0.14,2.007,0.612,3.231c0.022,0.136,0.044,0.272,0.067,0.408c0.278,0.616,0.829,1.154,1.048,1.779
		c0.627,0.607,0.965-0.051,1.475-0.295c1.106-0.528,3.27-2.826,3.833-4.44c0.015-0.177,0.03-0.354,0.045-0.531
		c0.161-0.324,0.322-0.648,0.483-0.973c0.051-0.189-0.044-0.382-0.028-0.551c0.055-0.552,0.239-0.993,0.232-1.529
		c-0.04-0.138-0.079-0.276-0.119-0.414c-0.075-0.986-0.293-1.877-0.512-2.829c-0.13-0.188-0.259-0.375-0.389-0.562
		c-0.029-0.14-0.058-0.281-0.086-0.421c-0.105-0.125-0.211-0.25-0.316-0.375c-0.024-0.119-0.049-0.237-0.073-0.356
		c-0.193-0.22-0.386-0.44-0.579-0.659c-0.134-0.222-0.116-0.436-0.421-0.64c-0.293,0.003-0.533-0.028-0.793,0.125
		c-0.24,0.273-0.48,0.545-0.719,0.818C175.823,161.557,175.604,161.714,175.386,161.87z"/>
	<path fill="#FFFFFF" d="M160.999,138.581c-0.076,0.184-0.152,0.367-0.228,0.551c0.013,0.149,0.027,0.298,0.04,0.447
		c-0.087,0.27-0.174,0.54-0.26,0.81c-0.054,0.404-0.105,0.995-0.088,1.399c-0.05,0.229-0.099,0.458-0.149,0.687
		c0.009,0.183,0.018,0.367,0.028,0.551c-0.203,0.893-0.107,1.695-0.112,2.533c-0.041,0.188-0.082,0.376-0.123,0.564
		c0.055,0.42,0.11,0.893,0.102,1.328c-0.026,0.123-0.052,0.246-0.078,0.369c0.039,0.358,0.231,0.794,0.219,1.152
		c-0.019,0.62-0.02,1.3,0.084,1.904c0.042,0.093,0.084,0.185,0.125,0.278c0.102,1.67,0.431,3.656,1.004,5.225
		c0.104,0.284,0.058,0.656,0.127,0.952c0.077,0.125,0.154,0.25,0.231,0.375c-0.004,0.119-0.008,0.238-0.012,0.356
		c0.055,0.073,0.11,0.147,0.165,0.22c0.014,0.149,0.027,0.298,0.041,0.447c0.242,0.628,0.483,1.193,0.733,1.825
		c0.005,0.134,0.009,0.268,0.014,0.402c1.015,2.52,2.068,4.937,3.43,7.401c0.066,0.211,0.132,0.423,0.198,0.634
		c0.103,0.114,0.206,0.228,0.309,0.343c0.097,0.222,0.194,0.444,0.29,0.666c0.112,0.129,0.224,0.259,0.336,0.388
		c0.053,0.175,0.106,0.349,0.159,0.524c0.14,0.157,0.281,0.315,0.421,0.472c0.062,0.162,0.123,0.324,0.185,0.485
		c0.125,0.138,0.25,0.276,0.375,0.414c0.038,0.127,0.075,0.255,0.113,0.382c0.147,0.162,0.294,0.323,0.441,0.485
		c0.07,0.177,0.141,0.354,0.211,0.531c0.377,0.601,0.791,0.984,1.198,1.597c0.046,0.142,0.093,0.285,0.139,0.427
		c0.164,0.164,0.329,0.327,0.493,0.491c0.136,0.248,0.272,0.496,0.409,0.744c0.151,0.155,0.303,0.31,0.454,0.465
		c0.057,0.14,0.114,0.28,0.172,0.421c0.226,0.241,0.452,0.482,0.678,0.724c0.09,0.167,0.128,0.402,0.27,0.569
		c0.173,0.151,0.346,0.301,0.519,0.452c0.099,0.177,0.198,0.354,0.297,0.53c0.237,0.239,0.474,0.478,0.71,0.717
		c0.3,0.423,0.54,0.93,1.145,1.338c0.318-0.04,0.448-0.176,0.754-0.319c0.239-0.112,0.885-0.475,0.962-0.883
		c0.101-0.533-0.424-0.851-0.83-1.3c-0.213-0.317-0.426-0.634-0.639-0.951c-0.158-0.131-0.316-0.263-0.473-0.394
		c-0.11-0.203-0.22-0.405-0.33-0.608c-0.214-0.306-0.544-0.518-0.665-0.827c-0.135-0.349-0.507-0.547-0.763-0.892
		c-0.088-0.179-0.176-0.358-0.264-0.537c-0.16-0.17-0.32-0.34-0.48-0.51c-0.066-0.155-0.132-0.311-0.198-0.466
		c-0.191-0.209-0.382-0.418-0.572-0.627c-0.081-0.203-0.163-0.406-0.244-0.608c-0.147-0.133-0.294-0.267-0.441-0.4
		c-0.068-0.166-0.136-0.332-0.205-0.498c-0.123-0.127-0.246-0.254-0.368-0.381c-0.109-0.199-0.133-0.447-0.271-0.654
		c-0.342-0.513-0.728-0.869-0.988-1.403c-0.049-0.153-0.097-0.306-0.146-0.459c-0.123-0.127-0.246-0.254-0.368-0.381
		c-0.042-0.149-0.084-0.298-0.126-0.447c-0.129-0.159-0.259-0.319-0.388-0.478c-0.207-0.341-0.354-0.876-0.541-1.223
		c-0.125-0.166-0.25-0.332-0.375-0.498c-0.018-0.114-0.036-0.229-0.053-0.343c-0.114-0.14-0.228-0.28-0.342-0.42
		c-0.038-0.155-0.075-0.311-0.113-0.466c-0.11-0.147-0.219-0.293-0.329-0.44c-0.15-0.342-0.288-0.797-0.423-1.145
		c-0.103-0.142-0.206-0.284-0.309-0.427c-0.018-0.142-0.036-0.285-0.054-0.427c-0.099-0.149-0.198-0.297-0.296-0.446
		c-0.144-0.333-0.235-0.768-0.364-1.107c-0.101-0.159-0.202-0.319-0.303-0.479c-0.229-0.979-0.679-1.884-0.978-2.854
		c-0.002-0.123-0.005-0.246-0.007-0.369c-0.225-0.595-0.391-1.173-0.601-1.767c-0.007-0.145-0.014-0.289-0.021-0.434
		c-0.119-0.424-0.268-0.776-0.285-1.223c-0.012-0.319-0.222-0.672-0.271-0.99c0.004-0.119,0.008-0.238,0.012-0.356
		c-0.057-0.14-0.114-0.28-0.172-0.421c-0.039-0.476-0.195-0.962-0.207-1.424c0.019-0.156,0.039-0.311,0.058-0.467
		c-0.036-0.431-0.146-0.792-0.121-1.256c-0.062-0.19-0.123-0.38-0.185-0.57c0.007-1.326-0.053-2.662-0.082-3.977
		c-0.013-0.575,0.221-1.109,0.219-1.678c-0.001-0.362-0.014-0.988,0.049-1.341c0.211-1.182,0.479-2.356,0.66-3.519
		c0.124-0.255,0.248-0.51,0.372-0.765c0.015-0.233,0.029-0.466,0.044-0.7c0.191-0.426,0.383-0.852,0.574-1.277
		c0.026-0.207,0.051-0.415,0.077-0.622c0.172-0.298,0.344-0.597,0.516-0.895c0.243-0.588,0.487-1.176,0.73-1.764
		c0.301-0.656,0.648-0.875,0.639-1.459c-0.453-0.325-0.907-0.65-1.36-0.975c-0.105-0.041-0.21-0.082-0.315-0.122
		c-0.631,0.28-1.58,2.639-1.9,3.379c-0.198,0.458-0.24,0.79-0.404,1.193c-0.148,0.277-0.296,0.553-0.444,0.83
		c-0.043,0.289-0.086,0.579-0.129,0.868c-0.115,0.27-0.23,0.54-0.346,0.81c-0.006,0.164-0.012,0.328-0.018,0.492
		c-0.115,0.27-0.23,0.54-0.346,0.81C160.967,138.123,161.048,138.345,160.999,138.581z"/>
	<path fill="#FFFFFF" d="M165.748,125.55c0.003,0.151,0.005,0.302,0.008,0.453c0.193,0.498,0.369,1.174,0.621,1.611
		c0.608,0.366,1.474-0.224,1.98-0.497c0.135-0.033,0.271-0.065,0.406-0.098c0.166-0.134,0.332-0.269,0.498-0.403
		c1.048-0.686,2.465-1.662,3.225-3.324c0.836-1.828,1.297-3.477,1.305-5.114c0.041-0.16,0.082-0.32,0.123-0.48
		c-0.038-0.211-0.075-0.423-0.113-0.634c0.008-0.294,0.016-0.587,0.024-0.881c-0.064-0.145-0.128-0.289-0.191-0.434
		c-0.071-0.464-0.076-1.285-0.313-1.69c-0.028-0.028-0.057-0.056-0.085-0.084c-1.411,0.088-2.263,0.563-3.519,1.395
		c-0.17,0.057-0.341,0.113-0.511,0.17c-0.268,0.273-0.537,0.545-0.805,0.818c-0.731,0.527-1.807,1.768-2.243,2.875
		c-0.032,0.203-0.065,0.406-0.097,0.609c-0.159,0.363-0.317,0.726-0.476,1.089c0.009,0.183,0.018,0.367,0.028,0.55
		C165.336,122.862,165.262,124.332,165.748,125.55z"/>
	<path fill="#FFFFFF" d="M168.709,175.067c-0.107-0.136-0.215-0.272-0.322-0.407c-0.245-0.555-0.677-1.274-1.146-1.759
		c-0.318-0.245-0.635-0.491-0.953-0.736c-0.194-0.208-0.392-0.461-0.684-0.672c-0.226-0.129-0.451-0.258-0.677-0.387
		c-0.402-0.181-0.87-0.408-1.32-0.612c-0.219-0.125-0.438-0.249-0.657-0.374c-1.737-0.513-4.036-0.798-5.597-0.413
		c-0.133-0.013-0.267-0.025-0.4-0.038c-0.105,0.043-0.21,0.087-0.315,0.13c-0.094-0.015-0.188-0.03-0.282-0.045
		c-0.109,0.005-0.711,0.219-0.832,0.268c-0.305,0.589,0.616,2.186,0.86,2.776c0.749,1.812,2.819,4.038,5.385,4.702
		c0.348,0.144,0.696,0.288,1.044,0.431c0.092-0.024,0.184-0.048,0.275-0.072c0.233-0.025,0.417,0.155,0.676,0.219
		c0.195-0.022,0.389-0.044,0.584-0.066c0.415,0.007,0.785,0.11,1.194,0.081c0.155-0.048,0.31-0.096,0.465-0.144
		c0.642-0.054,1.306-0.053,1.908-0.264c0.157-0.093,0.314-0.187,0.472-0.28c0.35-0.148,0.671,0.082,0.865-0.527
		c0.072-0.42-0.362-1.008-0.509-1.398C168.732,175.344,168.72,175.205,168.709,175.067z"/>
</g>
</svg>
