<?xml version="1.0" encoding="utf-8"?>
<!-- Generator: Adobe Illustrator 17.0.0, SVG Export Plug-In . SVG Version: 6.00 Build 0)  -->
<!DOCTYPE svg PUBLIC "-//W3C//DTD SVG 1.1//EN" "http://www.w3.org/Graphics/SVG/1.1/DTD/svg11.dtd">
<svg version="1.1" id="Layer_1" xmlns="http://www.w3.org/2000/svg" xmlns:xlink="http://www.w3.org/1999/xlink" x="0px" y="0px"
	 width="458px" height="313px" viewBox="0 0 458 313" enable-background="new 0 0 458 313" xml:space="preserve">
<g>
	
		<linearGradient id="SVGID_1_" gradientUnits="userSpaceOnUse" x1="364.286" y1="61.7852" x2="506.7789" y2="-194.702" gradientTransform="matrix(1 0 0 -1 -167 163.5)">
		<stop  offset="0" style="stop-color:#2BC4F3"/>
		<stop  offset="0.5" style="stop-color:#00AEEE"/>
		<stop  offset="1" style="stop-color:#0095DA"/>
	</linearGradient>
	<ellipse fill="url(#SVGID_1_)" cx="228" cy="157" rx="142" ry="141"/>
	<g>
		<path fill="#FFFFFF" d="M227.499,36c-67.546,0-122.501,54.497-122.501,121.482s54.955,121.482,122.501,121.482
			S350,224.466,350,157.482S295.045,36,227.499,36z M227.499,271.873c-63.604,0-115.351-51.317-115.351-114.391
			S163.896,43.09,227.499,43.09S342.85,94.407,342.85,157.482S291.103,271.873,227.499,271.873z"/>
		<polygon fill="#FFFFFF" points="228.985,153.414 231.548,150.319 230.124,148 230.047,148 225.141,148 225.064,148 
			223.641,150.319 226.203,153.561 221.576,164.923 227.566,170.966 227.562,171.009 227.594,170.967 227.627,170.996 
			227.624,170.93 233.612,164.851 		"/>
		<path fill="#FFFFFF" d="M227.594,144.547c13.711,0,24.866-11.062,24.866-24.66s-11.155-24.66-24.866-24.66
			s-24.866,11.062-24.866,24.66S213.883,144.547,227.594,144.547z M227.594,99.746c11.199,0,20.31,9.036,20.31,20.142
			s-9.111,20.142-20.31,20.142s-20.311-9.036-20.311-20.142C207.284,108.781,216.395,99.746,227.594,99.746z"/>
		<path fill="#FFFFFF" d="M242.435,146.513c-1.211,0.869-1.389,2.236-1.578,3.684c-0.213,1.635-0.505,3.874-2.169,6.444
			c-0.753,1.164-1.857,2.037-2.415,2.34c-1.104,0.598-1.509,1.971-0.905,3.066c0.604,1.094,1.988,1.497,3.092,0.897
			c1.111-0.603,2.842-1.976,4.063-3.863c2.216-3.424,2.615-6.479,2.853-8.304c0.002-0.018,0.005-0.036,0.007-0.055
			c11.38,2.747,17.503,12.893,17.503,20.933c0,0.531-0.094,2.345-0.231,2.345h4.61c0.153-1,0.177-2.32,0.177-2.345
			c0-6.112-2.497-12.299-7.03-17.009c-4.094-4.254-9.711-7.43-15.412-8.515C243.776,145.898,242.93,146.158,242.435,146.513z"/>
		<path fill="#FFFFFF" d="M192.344,174c-0.137,0-0.231-1.814-0.231-2.345c0-8.04,6.123-17.96,17.503-20.707
			c0.002,0.019,0.005-0.076,0.007-0.058c0.238,1.825,0.636,4.824,2.853,8.248c1.221,1.887,2.952,3.232,4.063,3.834
			c1.104,0.6,2.488,0.183,3.092-0.911c0.604-1.095,0.199-2.474-0.905-3.073c-0.558-0.303-1.662-1.18-2.415-2.344
			c-1.664-2.569-1.955-4.81-2.169-6.445c-0.189-1.448-0.367-2.816-1.578-3.685c-0.494-0.355-1.341-0.728-2.564-0.497
			c-5.701,1.086-11.318,4.148-15.412,8.402c-4.533,4.711-7.03,11.123-7.03,17.235c0,0.025,0.025,1.345,0.177,2.345L192.344,174
			L192.344,174z"/>
		<rect x="180" y="179" fill="#FFFFFF" width="93" height="25"/>
		<polygon fill="#FFFFFF" points="276,186 276,207 265,207 265,211 302.383,211 289.57,198.5 302.383,186 		"/>
		<polygon fill="#FFFFFF" points="176,186 152.616,186 165.429,198.5 152.616,211 187,211 187,207 176,207 		"/>
	</g>
</g>
</svg>
