<?xml version="1.0" encoding="utf-8"?>
<!-- Generator: Adobe Illustrator 17.0.0, SVG Export Plug-In . SVG Version: 6.00 Build 0)  -->
<!DOCTYPE svg PUBLIC "-//W3C//DTD SVG 1.1//EN" "http://www.w3.org/Graphics/SVG/1.1/DTD/svg11.dtd">
<svg version="1.1" id="Layer_1" xmlns="http://www.w3.org/2000/svg" xmlns:xlink="http://www.w3.org/1999/xlink" x="0px" y="0px"
	 width="458px" height="313px" viewBox="0 0 458 313" enable-background="new 0 0 458 313" xml:space="preserve">
<linearGradient id="SVGID_1_" gradientUnits="userSpaceOnUse" x1="364.286" y1="61.7852" x2="506.7789" y2="-194.702" gradientTransform="matrix(1 0 0 -1 -167 163.5)">
	<stop  offset="0" style="stop-color:#2BC4F3"/>
	<stop  offset="0.5" style="stop-color:#00AEEE"/>
	<stop  offset="1" style="stop-color:#0095DA"/>
</linearGradient>
<ellipse fill="url(#SVGID_1_)" cx="228" cy="157" rx="142" ry="141"/>
<g>
	<g>
		<g>
			<polygon fill="#FFFFFF" points="230.972,174.921 234.376,170.605 232.485,167.32 232.383,167.32 225.867,167.32 225.764,167.32 
				223.873,170.605 227.277,175.013 221.131,190.153 229.087,198.204 229.081,198.275 229.125,198.225 229.168,198.266 
				229.164,198.181 237.118,190.108 			"/>
			<path fill="#FFFFFF" d="M229.125,163.145c18.213,0,33.03-14.691,33.03-32.748c0-18.058-14.817-32.748-33.03-32.748
				c-18.212,0-33.03,14.691-33.03,32.748C196.095,148.455,210.912,163.145,229.125,163.145z M229.125,103.648
				c14.876,0,26.979,11.999,26.979,26.749c0,14.749-12.103,26.749-26.979,26.749s-26.978-11.999-26.978-26.749
				C202.146,115.648,214.249,103.648,229.125,103.648z"/>
			<path fill="#FFFFFF" d="M282.054,198.824c0-8.117-3.316-16.172-9.338-22.428c-5.438-5.65-12.9-9.856-20.472-11.298
				c-1.624-0.308-2.749,0.187-3.406,0.659c-1.608,1.153-1.845,2.97-2.096,4.892c-0.283,2.171-0.671,5.145-2.88,8.557
				c-1,1.545-2.467,2.705-3.208,3.107c-1.466,0.795-2.004,2.618-1.202,4.071s2.64,1.988,4.107,1.192
				c1.476-0.8,3.775-2.624,5.396-5.13c2.944-4.547,3.473-8.604,3.789-11.028c0.003-0.024,0.006-0.048,0.009-0.073
				c15.116,3.648,23.25,16.801,23.25,27.479c0,0.458-0.053,1.03-0.14,1.68H182.03c-0.022-0.835-0.034-1.476-0.034-1.68
				c0-10.677,8.134-23.691,23.25-27.339c0.003,0.025,0.006-0.021,0.009,0.003c0.316,2.424,0.845,6.447,3.789,10.993
				c1.622,2.505,3.921,4.312,5.396,5.112c1.466,0.797,3.305,0.253,4.107-1.2c0.802-1.454,0.264-3.285-1.202-4.08
				c-0.742-0.403-2.208-1.562-3.208-3.107c-2.21-3.412-2.597-6.386-2.88-8.557c-0.251-1.923-0.488-3.739-2.096-4.892
				c-0.657-0.472-1.781-0.967-3.406-0.659c-7.572,1.442-15.034,5.509-20.472,11.159c-6.022,6.256-9.338,14.451-9.338,22.568
				c0,0.034,0.024,5.688,0.227,7.915h105.784C282.081,203.399,282.054,198.857,282.054,198.824z"/>
		</g>
	</g>
	<g>
		<path fill="#FFFFFF" d="M228,35.982c-67.546,0-122.5,54.506-122.5,121.5s54.954,121.5,122.5,121.5s122.5-54.506,122.5-121.5
			S295.546,35.982,228,35.982z M228,271.891c-63.604,0-115.35-51.325-115.35-114.409S164.396,43.073,228,43.073
			s115.35,51.325,115.35,114.409S291.603,271.891,228,271.891z"/>
	</g>
</g>
</svg>
