<?xml version="1.0" encoding="utf-8"?>
<!-- Generator: Adobe Illustrator 17.0.0, SVG Export Plug-In . SVG Version: 6.00 Build 0)  -->
<!DOCTYPE svg PUBLIC "-//W3C//DTD SVG 1.1//EN" "http://www.w3.org/Graphics/SVG/1.1/DTD/svg11.dtd">
<svg version="1.1" id="Layer_1" xmlns="http://www.w3.org/2000/svg" xmlns:xlink="http://www.w3.org/1999/xlink" x="0px" y="0px"
	 width="458px" height="313px" viewBox="0 0 458 313" enable-background="new 0 0 458 313" xml:space="preserve">
<g>
	
		<linearGradient id="SVGID_1_" gradientUnits="userSpaceOnUse" x1="250.0436" y1="200.0965" x2="598.0436" y2="-267.9035" gradientTransform="matrix(1 0 0 -1 -167 163.5)">
		<stop  offset="0" style="stop-color:#FFF33B"/>
		<stop  offset="0.0401" style="stop-color:#FEE72E"/>
		<stop  offset="0.1171" style="stop-color:#FED51B"/>
		<stop  offset="0.1964" style="stop-color:#FDCA10"/>
		<stop  offset="0.2809" style="stop-color:#FDC70C"/>
		<stop  offset="0.6685" style="stop-color:#F3903F"/>
		<stop  offset="0.8876" style="stop-color:#ED683C"/>
		<stop  offset="1" style="stop-color:#E93E3A"/>
	</linearGradient>
	<ellipse fill="url(#SVGID_1_)" cx="227" cy="157" rx="142" ry="141"/>
	<path fill="#FFFFFF" d="M340.846,175.336c4.057-6.246,8.253-12.704,8.223-18.316c-0.033-5.606-4.3-12.014-8.427-18.211
		c-2.59-3.889-5.268-7.91-5.991-10.533s-0.483-7.433-0.251-12.085c0.369-7.426,0.753-15.104-2.098-19.948
		c-2.847-4.84-9.766-8.27-16.457-11.588c-4.201-2.082-8.544-4.236-10.494-6.153c-1.948-1.912-4.164-6.201-6.307-10.348
		c-3.416-6.611-6.948-13.447-11.852-16.221c-2.691-1.525-6.29-2.204-11.671-2.204c-2.743,0-5.63,0.174-8.422,0.343
		c-2.646,0.16-5.145,0.31-7.375,0.31c-2.131,0-3.702-0.139-4.8-0.425c-2.649-0.689-6.726-3.303-10.668-5.829
		c-6.263-4.014-12.739-8.165-18.433-8.165c-5.644,0.033-12.093,4.271-18.331,8.368c-3.914,2.571-7.961,5.23-10.605,5.95
		c-1.193,0.325-2.956,0.483-5.39,0.483c-2.085,0-4.373-0.113-6.793-0.232c-2.53-0.124-5.146-0.253-7.654-0.253
		c-5.799,0-9.624,0.72-12.404,2.335c-4.875,2.832-8.33,9.71-11.672,16.363c-2.095,4.17-4.261,8.482-6.187,10.418
		c-1.924,1.936-6.241,4.137-10.416,6.265c-6.655,3.392-13.535,6.899-16.327,11.771c-2.797,4.874-2.328,12.547-1.874,19.966
		c0.284,4.651,0.578,9.461-0.114,12.091c-0.695,2.632-3.324,6.68-5.867,10.596c-4.057,6.247-8.253,12.707-8.22,18.317
		c0.031,5.606,4.296,12.013,8.421,18.209c2.59,3.889,5.267,7.911,5.991,10.54c0.725,2.624,0.485,7.439,0.253,12.095
		c-0.37,7.42-0.751,15.093,2.099,19.935c2.847,4.836,9.765,8.266,16.454,11.584c4.202,2.084,8.547,4.238,10.498,6.156
		c1.947,1.911,4.162,6.199,6.304,10.346c3.415,6.612,6.948,13.448,11.854,16.226c2.69,1.523,6.287,2.201,11.663,2.201
		c2.743,0,5.63-0.174,8.424-0.343c2.646-0.16,5.147-0.311,7.379-0.311c2.102,0,3.717,0.143,4.8,0.425
		c2.648,0.691,6.723,3.073,10.664,5.599c6.264,4.014,12.74,7.935,18.369,7.935c0.007,0,0.059,0,0.066,0
		c5.645,0,12.096-4.039,18.334-8.137c3.915-2.572,7.961-5.116,10.605-5.834c1.193-0.325,2.957-0.426,5.392-0.426
		c2.084,0,4.366,0.141,6.784,0.259c2.527,0.124,5.14,0.266,7.645,0.266c5.809,0,9.64-0.715,12.422-2.332
		c4.877-2.833,8.333-9.709,11.674-16.361c2.094-4.167,4.259-8.475,6.183-10.41c1.924-1.934,6.24-4.134,10.414-6.261
		c6.655-3.394,13.538-6.902,16.327-11.773c2.801-4.877,2.331-12.553,1.877-19.976c-0.284-4.648-0.578-9.454,0.112-12.081
		C335.672,183.302,338.303,179.252,340.846,175.336z M334.193,171.071c-3.013,4.638-5.86,9.019-6.877,12.871
		c-1.01,3.844-0.692,9.044-0.355,14.549c0.347,5.685,0.78,12.761-0.853,15.606c-1.625,2.837-7.967,6.071-13.063,8.668
		c-4.946,2.521-9.617,4.903-12.431,7.734c-2.812,2.828-5.154,7.49-7.635,12.427c-2.56,5.094-5.745,11.435-8.589,13.087
		c-1.44,0.838-4.274,1.262-8.422,1.262c-2.31,0-4.824-0.123-7.254-0.242c-2.408-0.118-4.897-0.24-7.175-0.24
		c-3.196,0-5.575,0.242-7.484,0.762c-3.863,1.05-8.243,3.927-12.88,6.975c-4.777,3.138-10.793,7.044-14.082,7.062L227,275.526
		v-3.933c-3,0.001-9.202-3.83-14.004-6.908c-4.669-2.993-9.043-5.819-12.914-6.827c-1.788-0.466-3.934-0.683-6.791-0.683
		c-2.473,0-5.202,0.166-7.85,0.325c-2.675,0.161-5.437,0.329-7.939,0.329c-3.766,0-6.369-0.394-7.74-1.17
		c-2.858-1.618-6.112-7.919-8.729-12.982c-2.538-4.913-4.935-9.553-7.78-12.347c-2.848-2.802-7.55-5.133-12.529-7.601
		c-5.123-2.54-11.498-5.702-13.155-8.517c-1.66-2.82-1.308-9.892-1.025-15.575c0.275-5.517,0.534-10.728-0.526-14.564
		c-1.059-3.84-3.956-8.192-7.023-12.8c-3.158-4.744-7.089-10.649-7.107-13.914c-0.019-3.27,3.848-9.224,6.955-14.008
		c3.012-4.638,5.857-9.019,6.873-12.867c1.013-3.847,0.695-9.051,0.358-14.561c-0.348-5.682-0.78-12.754,0.851-15.596
		c1.626-2.837,7.966-6.069,13.061-8.666c4.947-2.522,9.621-4.904,12.435-7.735c2.814-2.828,5.158-7.495,7.639-12.435
		c2.559-5.095,5.744-11.435,8.584-13.084c1.439-0.836,4.268-1.26,8.407-1.26c2.312,0,4.829,0.123,7.262,0.243
		c2.411,0.119,4.904,0.241,7.185,0.241c3.196,0,5.575-0.243,7.484-0.763c3.862-1.051,8.242-3.928,12.88-6.975
		c4.777-3.138,10.722-7.044,14.028-7.063c3.296,0,9.273,3.831,14.074,6.909c4.671,2.994,9.082,5.821,12.955,6.829
		c1.788,0.465,3.951,0.681,6.807,0.681c2.471,0,5.209-0.165,7.856-0.325c2.674-0.161,5.44-0.328,7.942-0.328
		c3.769,0,6.376,0.394,7.751,1.173c2.856,1.615,6.112,7.916,8.727,12.978c2.539,4.913,4.937,9.554,7.783,12.348
		c2.848,2.801,7.549,5.132,12.526,7.599c5.124,2.54,11.499,5.7,13.156,8.518c1.662,2.824,1.309,9.902,1.026,15.59
		c-0.274,5.511-0.534,10.716,0.522,14.551c1.059,3.838,3.957,8.189,7.025,12.796c3.16,4.746,7.094,10.652,7.113,13.915
		C341.168,160.334,337.3,166.287,334.193,171.071z"/>
	<g>
		<g>
			<g>
				<polygon fill="#FFFFFF" points="229.472,174.921 232.876,170.605 230.985,167.32 230.883,167.32 224.367,167.32 224.264,167.32 
					222.373,170.605 225.777,175.013 219.631,190.153 227.587,198.204 227.581,198.275 227.625,198.225 227.668,198.266 
					227.664,198.181 235.618,190.108 				"/>
				<path fill="#FFFFFF" d="M227.625,163.145c18.213,0,33.03-14.691,33.03-32.748c0-18.058-14.817-32.748-33.03-32.748
					c-18.212,0-33.03,14.691-33.03,32.748C194.595,148.455,209.412,163.145,227.625,163.145z M227.625,103.648
					c14.876,0,26.979,11.999,26.979,26.749c0,14.749-12.103,26.749-26.979,26.749s-26.978-11.999-26.978-26.749
					C200.646,115.648,212.749,103.648,227.625,103.648z"/>
				<path fill="#FFFFFF" d="M280.554,198.824c0-8.117-3.316-16.172-9.338-22.428c-5.438-5.65-12.9-9.856-20.472-11.298
					c-1.624-0.308-2.749,0.187-3.406,0.659c-1.608,1.153-1.845,2.97-2.096,4.892c-0.283,2.171-0.671,5.145-2.88,8.557
					c-1,1.545-2.467,2.705-3.208,3.107c-1.466,0.795-2.004,2.618-1.202,4.071s2.64,1.988,4.107,1.192
					c1.476-0.8,3.775-2.624,5.396-5.13c2.944-4.547,3.473-8.604,3.789-11.028c0.003-0.024,0.006-0.048,0.009-0.073
					c15.116,3.648,23.25,16.801,23.25,27.479c0,0.458-0.053,1.03-0.14,1.68H180.53c-0.022-0.835-0.034-1.476-0.034-1.68
					c0-10.677,8.134-23.691,23.25-27.339c0.003,0.025,0.006-0.021,0.009,0.003c0.316,2.424,0.845,6.447,3.789,10.993
					c1.622,2.505,3.921,4.312,5.396,5.112c1.466,0.797,3.305,0.253,4.107-1.2c0.802-1.454,0.264-3.285-1.202-4.08
					c-0.742-0.403-2.208-1.562-3.208-3.107c-2.21-3.412-2.597-6.386-2.88-8.557c-0.251-1.923-0.488-3.739-2.096-4.892
					c-0.657-0.472-1.781-0.967-3.406-0.659c-7.572,1.442-15.034,5.509-20.472,11.159c-6.022,6.256-9.338,14.451-9.338,22.568
					c0,0.034,0.024,5.688,0.227,7.915h105.784C280.581,203.399,280.554,198.857,280.554,198.824z"/>
			</g>
		</g>
	</g>
</g>
</svg>
