<?xml version="1.0" encoding="utf-8"?>
<!-- Generator: Adobe Illustrator 17.0.0, SVG Export Plug-In . SVG Version: 6.00 Build 0)  -->
<!DOCTYPE svg PUBLIC "-//W3C//DTD SVG 1.1//EN" "http://www.w3.org/Graphics/SVG/1.1/DTD/svg11.dtd">
<svg version="1.1" id="Layer_1" xmlns="http://www.w3.org/2000/svg" xmlns:xlink="http://www.w3.org/1999/xlink" x="0px" y="0px"
	 width="458px" height="313px" viewBox="0 0 458 313" enable-background="new 0 0 458 313" xml:space="preserve">
<g>
	
		<linearGradient id="SVGID_1_" gradientUnits="userSpaceOnUse" x1="417.0436" y1="262.4035" x2="765.0436" y2="730.4035" gradientTransform="matrix(1 0 0 1 -334 -299)">
		<stop  offset="0" style="stop-color:#FFF33B"/>
		<stop  offset="0.0401" style="stop-color:#FEE72E"/>
		<stop  offset="0.1171" style="stop-color:#FED51B"/>
		<stop  offset="0.1964" style="stop-color:#FDCA10"/>
		<stop  offset="0.2809" style="stop-color:#FDC70C"/>
		<stop  offset="0.6685" style="stop-color:#F3903F"/>
		<stop  offset="0.8876" style="stop-color:#ED683C"/>
		<stop  offset="1" style="stop-color:#E93E3A"/>
	</linearGradient>
	<ellipse fill="url(#SVGID_1_)" cx="227" cy="157" rx="142" ry="141"/>
	<path fill="#FFFFFF" d="M340.846,175.336c4.057-6.246,8.253-12.704,8.223-18.316c-0.033-5.606-4.3-12.014-8.427-18.211
		c-2.59-3.889-5.268-7.91-5.991-10.533s-0.483-7.433-0.251-12.085c0.369-7.426,0.753-15.104-2.098-19.948
		c-2.847-4.84-9.766-8.27-16.457-11.588c-4.201-2.082-8.544-4.236-10.494-6.153c-1.948-1.912-4.164-6.201-6.307-10.348
		c-3.416-6.611-6.948-13.447-11.852-16.221c-2.691-1.525-6.29-2.204-11.671-2.204c-2.743,0-5.63,0.174-8.422,0.343
		c-2.646,0.16-5.145,0.31-7.375,0.31c-2.131,0-3.702-0.139-4.8-0.425c-2.649-0.689-6.726-3.303-10.668-5.829
		c-6.263-4.014-12.739-8.165-18.433-8.165c-5.644,0.033-12.093,4.271-18.331,8.368c-3.914,2.571-7.961,5.23-10.605,5.95
		c-1.193,0.325-2.956,0.483-5.39,0.483c-2.085,0-4.373-0.113-6.793-0.232c-2.53-0.124-5.146-0.253-7.654-0.253
		c-5.799,0-9.624,0.72-12.404,2.335c-4.875,2.832-8.33,9.71-11.672,16.363c-2.095,4.17-4.261,8.482-6.187,10.418
		c-1.924,1.936-6.241,4.137-10.416,6.265c-6.655,3.392-13.535,6.899-16.327,11.771c-2.797,4.874-2.328,12.547-1.874,19.966
		c0.284,4.651,0.578,9.461-0.114,12.091c-0.695,2.632-3.324,6.68-5.867,10.596c-4.057,6.247-8.253,12.707-8.22,18.317
		c0.031,5.606,4.296,12.013,8.421,18.209c2.59,3.889,5.267,7.911,5.991,10.54c0.725,2.624,0.485,7.439,0.253,12.095
		c-0.37,7.42-0.751,15.093,2.099,19.935c2.847,4.836,9.765,8.266,16.454,11.584c4.202,2.084,8.547,4.238,10.498,6.156
		c1.947,1.911,4.162,6.199,6.304,10.346c3.415,6.612,6.948,13.448,11.854,16.226c2.69,1.523,6.287,2.201,11.663,2.201
		c2.743,0,5.63-0.174,8.424-0.343c2.646-0.16,5.147-0.311,7.379-0.311c2.102,0,3.717,0.143,4.8,0.425
		c2.648,0.691,6.723,3.073,10.664,5.599c6.264,4.014,12.74,7.935,18.369,7.935c0.007,0,0.059,0,0.066,0
		c5.645,0,12.096-4.039,18.334-8.137c3.915-2.572,7.961-5.116,10.605-5.834c1.193-0.325,2.957-0.426,5.392-0.426
		c2.084,0,4.366,0.141,6.784,0.259c2.527,0.124,5.14,0.266,7.645,0.266c5.809,0,9.64-0.715,12.422-2.332
		c4.877-2.833,8.333-9.709,11.674-16.361c2.094-4.167,4.259-8.475,6.183-10.41c1.924-1.934,6.24-4.134,10.414-6.261
		c6.655-3.394,13.538-6.902,16.327-11.773c2.801-4.877,2.331-12.553,1.877-19.976c-0.284-4.648-0.578-9.454,0.112-12.081
		C335.672,183.302,338.303,179.252,340.846,175.336z M334.193,171.071c-3.013,4.638-5.86,9.019-6.877,12.871
		c-1.01,3.844-0.692,9.044-0.355,14.549c0.347,5.685,0.78,12.761-0.853,15.606c-1.625,2.837-7.967,6.071-13.063,8.668
		c-4.946,2.521-9.617,4.903-12.431,7.734c-2.812,2.828-5.154,7.49-7.635,12.427c-2.56,5.094-5.745,11.435-8.589,13.087
		c-1.44,0.838-4.274,1.262-8.422,1.262c-2.31,0-4.824-0.123-7.254-0.242c-2.408-0.118-4.897-0.24-7.175-0.24
		c-3.196,0-5.575,0.242-7.484,0.762c-3.863,1.05-8.243,3.927-12.88,6.975c-4.777,3.138-10.793,7.044-14.082,7.062L227,275.526
		v-3.933c-3,0.001-9.202-3.83-14.004-6.908c-4.669-2.993-9.043-5.819-12.914-6.827c-1.788-0.466-3.934-0.683-6.791-0.683
		c-2.473,0-5.202,0.166-7.85,0.325c-2.675,0.161-5.437,0.329-7.939,0.329c-3.766,0-6.369-0.394-7.74-1.17
		c-2.858-1.618-6.112-7.919-8.729-12.982c-2.538-4.913-4.935-9.553-7.78-12.347c-2.848-2.802-7.55-5.133-12.529-7.601
		c-5.123-2.54-11.498-5.702-13.155-8.517c-1.66-2.82-1.308-9.892-1.025-15.575c0.275-5.517,0.534-10.728-0.526-14.564
		c-1.059-3.84-3.956-8.192-7.023-12.8c-3.158-4.744-7.089-10.649-7.107-13.914c-0.019-3.27,3.848-9.224,6.955-14.008
		c3.012-4.638,5.857-9.019,6.873-12.867c1.013-3.847,0.695-9.051,0.358-14.561c-0.348-5.682-0.78-12.754,0.851-15.596
		c1.626-2.837,7.966-6.069,13.061-8.666c4.947-2.522,9.621-4.904,12.435-7.735c2.814-2.828,5.158-7.495,7.639-12.435
		c2.559-5.095,5.744-11.435,8.584-13.084c1.439-0.836,4.268-1.26,8.407-1.26c2.312,0,4.829,0.123,7.262,0.243
		c2.411,0.119,4.904,0.241,7.185,0.241c3.196,0,5.575-0.243,7.484-0.763c3.862-1.051,8.242-3.928,12.88-6.975
		c4.777-3.138,10.722-7.044,14.028-7.063c3.296,0,9.273,3.831,14.074,6.909c4.671,2.994,9.082,5.821,12.955,6.829
		c1.788,0.465,3.951,0.681,6.807,0.681c2.471,0,5.209-0.165,7.856-0.325c2.674-0.161,5.44-0.328,7.942-0.328
		c3.769,0,6.376,0.394,7.751,1.173c2.856,1.615,6.112,7.916,8.727,12.978c2.539,4.913,4.937,9.554,7.783,12.348
		c2.848,2.801,7.549,5.132,12.526,7.599c5.124,2.54,11.499,5.7,13.156,8.518c1.662,2.824,1.309,9.902,1.026,15.59
		c-0.274,5.511-0.534,10.716,0.522,14.551c1.059,3.838,3.957,8.189,7.025,12.796c3.16,4.746,7.094,10.652,7.113,13.915
		C341.168,160.334,337.3,166.287,334.193,171.071z"/>
</g>
<g>
	<path fill="#FFFFFF" d="M307.701,174.442c3.981-2.148,5.224-7.501,5.224-7.501s-6.151-0.618-9.856,2.229
		c-1.16,0.896-2.233,2.455-3.067,3.923c0.631-2.995,1.056-6.059,1.263-9.171c1.443-0.246,4.705-1.061,7.945-3.621
		c3.476-2.743,3.752-8.12,3.752-8.12s-6.041,0.441-9.125,3.813c-0.997,1.092-1.777,2.848-2.333,4.443
		c0.156-3.291,0.054-6.552-0.273-9.758c1.37-0.493,4.347-1.831,7.011-4.821c2.879-3.229,2.223-8.465,2.223-8.465
		s-5.758,1.442-8.152,5.212c-0.79,1.245-1.241,3.116-1.502,4.771c-0.5-3.325-1.231-6.584-2.167-9.744
		c1.158-0.64,3.937-2.437,6.08-5.912c2.228-3.604,0.692-8.545,0.692-8.545s-5.31,2.359-6.975,6.402
		c-0.617,1.507-0.685,3.712-0.607,5.478c-1.136-3.388-2.504-6.651-4.047-9.765c0.948-0.746,3.43-2.969,4.949-6.806
		c1.526-3.851-0.805-8.364-0.805-8.364s-4.715,3.17-5.626,7.354c-0.366,1.686,0.037,4.064,0.451,5.807
		c-1.77-3.324-3.74-6.453-5.853-9.34c0.797-0.897,2.786-3.452,3.586-7.381c0.809-3.975-2.214-7.937-2.214-7.937
		s-4.01,3.853-4.169,8.044c-0.061,1.648,0.692,3.803,1.382,5.406c-2.316-2.959-4.773-5.636-7.306-7.964
		c0.612-0.993,2.099-3.798,2.196-7.739c0.098-3.973-3.506-7.286-3.506-7.286s-3.203,4.393-2.633,8.464
		c0.234,1.684,1.436,3.757,2.406,5.202c-0.904-0.773-1.814-1.505-2.728-2.186c-2.058-1.643-4.086-3.09-6.058-4.378
		c0.361-0.853,1.492-3.95,0.868-8.02c-0.59-3.851-4.637-6.442-4.637-6.442s-2.34,4.778-1.087,8.612
		c0.592,1.818,2.499,3.912,3.71,5.115c-3.686-2.314-7.133-4.038-10.151-5.328c0.185-0.79,0.802-4.032-0.531-7.953
		c-1.231-3.616-5.585-5.437-5.585-5.437s-1.429,5.006,0.436,8.495c0.943,1.768,3.396,3.591,4.732,4.498
		c-2.072-0.849-3.913-1.484-5.454-1.963c-0.466-0.58-2.733-3.247-5.504-3.717c-2.218-0.371-5.946,1.04-5.946,1.04
		s1.787,2.407,5.397,3.633c2.421,0.822,5.093-0.319,5.897-0.711c1.872,0.639,4.203,1.52,6.85,2.739
		c-1.553-0.264-4.719-0.67-6.701-0.03c-3.788,1.228-6.275,5.815-6.275,5.815s4.41,1.677,7.835-0.084
		c3.664-1.877,5.492-4.58,5.946-5.324c2.969,1.41,6.307,3.245,9.824,5.623c-1.631-0.545-4.312-1.288-6.197-1.022
		c-4.027,0.57-7.348,4.743-7.348,4.743s4.135,2.458,7.891,1.29c3.813-1.181,6.104-3.403,6.833-4.199
		c1.558,1.096,3.145,2.291,4.751,3.614c1.431,1.102,2.852,2.32,4.249,3.646c-1.531-0.835-4.144-2.089-6.116-2.152
		c-4.152-0.135-8.232,3.48-8.232,3.48s3.713,3.193,7.699,2.677c4.081-0.525,6.792-2.385,7.638-3.041
		c2.521,2.505,4.946,5.352,7.201,8.482c-1.419-1.093-3.572-2.553-5.363-2.924c-4.149-0.864-8.896,2.051-8.896,2.051
		s3.157,3.861,7.253,4.042c4.015,0.18,6.984-1.09,8.079-1.645c1.962,2.872,3.779,5.959,5.395,9.223
		c-1.221-1.292-2.923-2.855-4.488-3.475c-4.013-1.595-9.307,0.505-9.307,0.505s2.482,4.431,6.565,5.33
		c3.84,0.85,6.955,0.187,8.262-0.193c1.453,3.178,2.716,6.506,3.737,9.946c-0.997-1.507-2.418-3.357-3.871-4.25
		c-3.745-2.306-9.442-1.124-9.442-1.124s1.699,4.889,5.641,6.509c3.708,1.526,6.957,1.407,8.34,1.255
		c0.9,3.446,1.548,6.995,1.916,10.606c-0.731-1.713-1.858-3.925-3.201-5.115c-3.352-2.971-9.29-2.782-9.29-2.782
		s0.834,5.208,4.505,7.527c3.476,2.198,6.784,2.638,8.184,2.723c0.219,3.357,0.188,6.762-0.134,10.188
		c-0.439-1.783-1.146-3.954-2.196-5.276c-2.838-3.577-8.837-4.426-8.837-4.426s-0.098,5.379,3.179,8.354
		c3.016,2.742,6.168,3.784,7.616,4.14c-0.339,3.289-0.934,6.511-1.743,9.644c-0.124-1.859-0.449-4.134-1.26-5.633
		c-2.209-4.09-8.086-5.995-8.086-5.995s-1.063,5.392,1.694,8.951c2.509,3.242,5.444,4.841,6.858,5.472
		c-0.922,3.023-2.041,5.958-3.33,8.787c0.18-1.821,0.224-3.981-0.29-5.53c-1.49-4.497-7.053-7.44-7.053-7.44s-2.033,5.23,0.1,9.291
		c1.897,3.616,4.483,5.723,5.819,6.64c-1.402,2.749-2.957,5.384-4.637,7.885c0.473-1.744,0.848-3.773,0.622-5.337
		c-0.69-4.779-5.751-8.712-5.751-8.712s-2.984,4.9-1.568,9.355c1.238,3.91,3.418,6.465,4.612,7.642
		c-1.928,2.6-3.976,5.035-6.114,7.275c0.831-1.723,1.653-3.822,1.709-5.521c0.161-4.923-4.225-9.762-4.225-9.762
		s-3.869,4.402-3.245,9.124c0.558,4.242,2.355,7.23,3.328,8.582c-2.399,2.285-4.876,4.333-7.384,6.107
		c1.165-1.598,2.406-3.609,2.769-5.336c1.043-4.919-2.494-10.551-2.494-10.551s-4.678,3.744-4.9,8.602
		c-0.198,4.327,1.058,7.627,1.794,9.171c-0.963,0.599-1.926,1.161-2.889,1.675c-1.745,1.01-3.452,1.903-5.117,2.705
		c1.372-1.354,2.808-3.024,3.44-4.579c1.928-4.763-0.614-11.042-0.614-11.042s-5.375,2.942-6.468,7.785
		c-0.953,4.22-0.332,7.702,0.132,9.426c-3.052,1.288-5.899,2.255-8.459,2.983c1.602-1.114,3.308-2.519,4.208-3.953
		c2.794-4.449,1.36-11.204,1.36-11.204s-5.926,2.014-7.891,6.691c-1.699,4.044-1.714,7.627-1.563,9.454
		c-5.67,1.269-9.047,1.497-9.047,1.497l0.127,1.245l0.129,1.245c0,0,4.322-0.27,11.341-2.111c0.934,1.54,3.084,4.497,6.94,6.822
		c4.371,2.64,10.366,0.821,10.366,0.821s-2.862-6.298-7.767-8.27c-1.36-0.547-3.191-0.728-4.924-0.75
		c2.46-0.82,5.124-1.854,7.933-3.153c1.156,1.323,3.747,3.837,7.891,5.443c4.673,1.81,10.146-0.956,10.146-0.956
		s-3.847-5.594-8.918-6.672c-1.433-0.305-3.269-0.16-4.973,0.119c0.956-0.507,1.919-1.046,2.894-1.621
		c1.538-0.84,3.084-1.792,4.617-2.841c1.37,1.091,4.281,3.035,8.496,3.875c4.822,0.962,9.627-2.628,9.627-2.628
		s-4.673-4.754-9.756-4.939c-1.375-0.051-3.045,0.358-4.586,0.886c2.172-1.738,4.305-3.672,6.368-5.777
		c1.475,0.818,4.654,2.253,8.944,2.356c4.817,0.114,8.837-4.157,8.837-4.157s-5.329-3.8-10.266-3.127
		c-1.463,0.2-3.167,0.992-4.663,1.847c1.94-2.211,3.791-4.577,5.526-7.08c1.485,0.533,4.895,1.474,9.215,0.828
		c4.671-0.699,7.816-5.498,7.816-5.498s-5.797-2.772-10.446-1.29c-1.509,0.48-3.172,1.692-4.542,2.87
		c1.638-2.618,3.145-5.364,4.488-8.219c1.528,0.263,4.978,0.594,9.027-0.753c4.388-1.461,6.594-6.622,6.594-6.622
		s-6.07-1.701-10.302,0.511c-1.348,0.708-2.723,2.123-3.832,3.467c1.165-2.839,2.167-5.772,2.972-8.783
		C300.67,176.683,304.042,176.415,307.701,174.442z"/>
	<path fill="#FFFFFF" d="M208.335,218.647c-1.965-4.677-7.891-6.691-7.891-6.691s-1.433,6.755,1.359,11.204
		c0.9,1.434,2.607,2.84,4.21,3.953c-2.56-0.728-5.407-1.695-8.459-2.983c0.463-1.724,1.084-5.206,0.13-9.426
		c-1.091-4.843-6.467-7.785-6.467-7.785s-2.543,6.279-0.614,11.042c0.631,1.555,2.067,3.225,3.44,4.579
		c-1.665-0.802-3.373-1.695-5.118-2.705c-0.962-0.515-1.923-1.076-2.886-1.675c0.737-1.544,1.99-4.844,1.794-9.171
		c-0.221-4.859-4.9-8.602-4.9-8.602s-3.538,5.633-2.494,10.551c0.366,1.727,1.604,3.738,2.769,5.337
		c-2.507-1.775-4.987-3.823-7.385-6.109c0.973-1.352,2.772-4.34,3.329-8.582c0.625-4.723-3.247-9.124-3.247-9.124
		s-4.382,4.839-4.224,9.762c0.057,1.698,0.878,3.8,1.71,5.522c-2.138-2.239-4.187-4.677-6.113-7.274
		c1.193-1.179,3.371-3.734,4.611-7.644c1.415-4.455-1.565-9.355-1.565-9.355s-5.063,3.933-5.753,8.712
		c-0.228,1.565,0.147,3.593,0.622,5.337c-1.678-2.501-3.234-5.136-4.637-7.885c1.336-0.917,3.924-3.024,5.819-6.64
		c2.133-4.061,0.1-9.291,0.1-9.291s-5.563,2.943-7.053,7.44c-0.513,1.549-0.471,3.709-0.29,5.53c-1.29-2.829-2.409-5.764-3.33-8.787
		c1.414-0.632,4.349-2.23,6.856-5.472c2.758-3.559,1.697-8.951,1.697-8.951s-5.876,1.906-8.086,5.995
		c-0.813,1.498-1.136,3.774-1.26,5.633c-0.811-3.133-1.405-6.354-1.745-9.644c1.449-0.357,4.6-1.398,7.617-4.14
		c3.275-2.975,3.178-8.354,3.178-8.354s-5.998,0.849-8.835,4.426c-1.052,1.322-1.76,3.493-2.198,5.273
		c-0.323-3.423-0.354-6.828-0.133-10.185c1.399-0.084,4.706-0.524,8.181-2.723c3.673-2.319,4.505-7.527,4.505-7.527
		s-5.937-0.189-9.291,2.782c-1.342,1.191-2.469,3.401-3.2,5.115c0.368-3.611,1.015-7.16,1.915-10.606
		c1.382,0.152,4.632,0.271,8.341-1.255c3.942-1.62,5.642-6.509,5.642-6.509s-5.699-1.181-9.445,1.124
		c-1.452,0.892-2.872,2.741-3.869,4.248c1.023-3.439,2.283-6.765,3.737-9.944c1.308,0.38,4.422,1.043,8.261,0.193
		c4.086-0.899,6.565-5.33,6.565-5.33s-5.293-2.1-9.309-0.505c-1.563,0.62-3.264,2.183-4.487,3.473
		c1.616-3.263,3.434-6.349,5.395-9.221c1.098,0.556,4.065,1.825,8.079,1.645c4.097-0.181,7.254-4.042,7.254-4.042
		s-4.747-2.916-8.896-2.051c-1.791,0.371-3.943,1.83-5.364,2.924c2.256-3.131,4.682-5.977,7.203-8.481
		c0.846,0.655,3.557,2.514,7.638,3.04c3.986,0.516,7.7-2.677,7.7-2.677s-4.082-3.615-8.237-3.48
		c-1.966,0.063-4.579,1.315-6.112,2.152c1.396-1.326,2.816-2.545,4.249-3.646c1.605-1.322,3.192-2.518,4.753-3.614
		c0.728,0.797,3.019,3.018,6.832,4.199c3.755,1.168,7.889-1.29,7.889-1.29s-3.32-4.173-7.349-4.743
		c-1.881-0.266-4.563,0.476-6.196,1.021c3.52-2.377,6.855-4.211,9.826-5.622c0.453,0.744,2.282,3.447,5.945,5.324
		c3.425,1.761,7.835,0.084,7.835,0.084s-2.487-4.586-6.274-5.815c-1.981-0.64-5.146-0.234-6.7,0.03
		c2.648-1.219,4.977-2.1,6.849-2.739c0.806,0.392,3.478,1.533,5.897,0.711c3.61-1.226,5.396-3.633,5.396-3.633
		s-3.727-1.411-5.943-1.04c-2.774,0.47-5.041,3.138-5.506,3.717c-1.542,0.48-3.382,1.115-5.455,1.963
		c1.336-0.906,3.787-2.729,4.733-4.498c1.866-3.489,0.435-8.495,0.435-8.495s-4.354,1.821-5.584,5.437
		c-1.335,3.921-0.718,7.163-0.531,7.953c-3.017,1.29-6.465,3.013-10.15,5.325c1.21-1.2,3.118-3.295,3.709-5.113
		c1.252-3.834-1.086-8.612-1.086-8.612s-4.045,2.591-4.637,6.442c-0.624,4.07,0.505,7.166,0.865,8.02
		c-1.971,1.287-3.999,2.735-6.058,4.378c-0.914,0.681-1.823,1.414-2.727,2.186c0.969-1.445,2.172-3.518,2.407-5.202
		c0.57-4.07-2.633-8.464-2.633-8.464s-3.606,3.313-3.507,7.286c0.096,3.941,1.585,6.746,2.197,7.739
		c-2.534,2.327-4.993,5.005-7.305,7.964c0.687-1.603,1.442-3.758,1.38-5.406c-0.157-4.191-4.167-8.044-4.167-8.044
		s-3.025,3.962-2.215,7.937c0.8,3.929,2.79,6.485,3.587,7.381c-2.114,2.887-4.083,6.013-5.853,9.339
		c0.417-1.744,0.818-4.12,0.45-5.806c-0.909-4.184-5.625-7.354-5.625-7.354s-2.332,4.513-0.806,8.364
		c1.52,3.838,4.002,6.06,4.949,6.806c-1.543,3.113-2.91,6.376-4.045,9.765c0.078-1.766,0.01-3.972-0.61-5.478
		c-1.663-4.043-6.973-6.402-6.973-6.402s-1.533,4.941,0.692,8.545c2.144,3.475,4.922,5.272,6.082,5.912
		c-0.937,3.16-1.669,6.417-2.17,9.741c-0.26-1.654-0.711-3.524-1.5-4.768c-2.394-3.77-8.152-5.212-8.152-5.212
		s-0.656,5.236,2.223,8.465c2.664,2.991,5.64,4.328,7.009,4.821c-0.325,3.206-0.425,6.467-0.272,9.758
		c-0.555-1.595-1.335-3.353-2.332-4.443c-3.084-3.371-9.126-3.813-9.126-3.813s0.276,5.377,3.751,8.12
		c3.24,2.56,6.503,3.374,7.947,3.621c0.207,3.112,0.633,6.176,1.262,9.171c-0.834-1.468-1.905-3.028-3.067-3.923
		c-3.704-2.847-9.856-2.229-9.856-2.229s1.243,5.353,5.227,7.501c3.658,1.973,7.029,2.241,8.562,2.244
		c0.805,3.011,1.805,5.945,2.973,8.783c-1.111-1.344-2.485-2.759-3.832-3.467c-4.234-2.212-10.303-0.511-10.303-0.511
		s2.207,5.161,6.593,6.622c4.05,1.348,7.5,1.016,9.03,0.753c1.341,2.855,2.849,5.601,4.487,8.219c-1.369-1.179-3.034-2.39-4.54-2.87
		c-4.648-1.482-10.444,1.29-10.444,1.29s3.144,4.798,7.813,5.498c4.317,0.646,7.729-0.295,9.215-0.828
		c1.734,2.503,3.586,4.87,5.525,7.08c-1.496-0.855-3.2-1.647-4.663-1.847c-4.937-0.674-10.264,3.127-10.264,3.127
		s4.019,4.272,8.837,4.157c4.291-0.104,7.469-1.538,8.946-2.356c2.061,2.106,4.194,4.039,6.365,5.777
		c-1.541-0.528-3.211-0.937-4.586-0.886c-5.08,0.186-9.755,4.939-9.755,4.939s4.804,3.589,9.626,2.628
		c4.215-0.84,7.124-2.782,8.495-3.875c1.537,1.049,3.079,2.001,4.618,2.841c0.976,0.575,1.938,1.114,2.893,1.621
		c-1.7-0.28-3.539-0.424-4.971-0.119c-5.072,1.078-8.917,6.672-8.917,6.672s5.473,2.766,10.145,0.956
		c4.145-1.607,6.736-4.12,7.893-5.443c2.808,1.299,5.472,2.333,7.932,3.153c-1.733,0.022-3.565,0.202-4.926,0.75
		c-4.904,1.972-7.766,8.27-7.766,8.27s5.993,1.819,10.366-0.821c3.855-2.325,6.006-5.282,6.94-6.822
		c7.017,1.841,11.342,2.111,11.342,2.111l0.127-1.245l0.129-1.245c0,0-3.376-0.228-9.048-1.497
		C210.05,226.274,210.036,222.69,208.335,218.647z"/>
	<polygon fill="#FFFFFF" points="242.788,161.891 268.534,142.921 236.225,142.671 225.876,113.467 216.032,142.671 
		184.228,142.422 209.469,161.641 199.878,192.093 226.634,173.372 251.118,190.595 	"/>
</g>
</svg>
