<?xml version="1.0" encoding="utf-8"?>
<!-- Generator: Adobe Illustrator 17.0.0, SVG Export Plug-In . SVG Version: 6.00 Build 0)  -->
<!DOCTYPE svg PUBLIC "-//W3C//DTD SVG 1.1//EN" "http://www.w3.org/Graphics/SVG/1.1/DTD/svg11.dtd">
<svg version="1.1" id="Layer_1" xmlns="http://www.w3.org/2000/svg" xmlns:xlink="http://www.w3.org/1999/xlink" x="0px" y="0px"
	 width="458px" height="313px" viewBox="0 0 458 313" enable-background="new 0 0 458 313" xml:space="preserve">
<linearGradient id="SVGID_1_" gradientUnits="userSpaceOnUse" x1="531.286" y1="400.7148" x2="673.7789" y2="657.202" gradientTransform="matrix(1 0 0 1 -334 -299)">
	<stop  offset="0" style="stop-color:#2BC4F3"/>
	<stop  offset="0.5" style="stop-color:#00AEEE"/>
	<stop  offset="1" style="stop-color:#0095DA"/>
</linearGradient>
<ellipse fill="url(#SVGID_1_)" cx="228" cy="157" rx="142" ry="141"/>
<path fill="#FFFFFF" d="M227.752,35.962c-67.683,0-122.748,54.443-122.748,121.352c0,66.909,55.065,121.352,122.748,121.352
	S350.5,224.223,350.5,157.313C350.5,90.404,295.435,35.962,227.752,35.962z M227.752,271.582
	c-63.729,0-115.579-51.258-115.579-114.269c0-63.011,51.843-114.269,115.579-114.269s115.579,51.258,115.579,114.269
	C343.331,220.325,291.481,271.582,227.752,271.582z"/>
<g>
	<path fill="#FFFFFF" d="M309.474,174.282c4.001-2.148,5.251-7.501,5.251-7.501s-6.182-0.618-9.906,2.229
		c-1.166,0.896-2.244,2.455-3.082,3.923c0.635-2.995,1.061-6.059,1.269-9.171c1.45-0.246,4.729-1.061,7.985-3.621
		c3.494-2.743,3.771-8.12,3.771-8.12s-6.071,0.441-9.171,3.813c-1.002,1.092-1.786,2.848-2.345,4.443
		c0.157-3.291,0.054-6.552-0.274-9.758c1.377-0.493,4.369-1.831,7.047-4.821c2.894-3.229,2.234-8.465,2.234-8.465
		s-5.787,1.442-8.193,5.212c-0.794,1.245-1.247,3.116-1.509,4.771c-0.502-3.325-1.237-6.584-2.178-9.744
		c1.164-0.64,3.957-2.437,6.111-5.912c2.239-3.604,0.696-8.545,0.696-8.545s-5.336,2.359-7.01,6.402
		c-0.62,1.507-0.688,3.712-0.61,5.478c-1.142-3.388-2.516-6.651-4.067-9.765c0.953-0.746,3.447-2.969,4.974-6.806
		c1.534-3.851-0.809-8.364-0.809-8.364s-4.739,3.17-5.655,7.354c-0.367,1.686,0.037,4.064,0.453,5.807
		c-1.779-3.324-3.758-6.453-5.883-9.34c0.801-0.897,2.801-3.452,3.604-7.381c0.814-3.975-2.225-7.937-2.225-7.937
		s-4.031,3.853-4.19,8.044c-0.061,1.648,0.696,3.803,1.389,5.406c-2.328-2.959-4.797-5.636-7.343-7.964
		c0.615-0.993,2.11-3.798,2.207-7.739c0.098-3.973-3.523-7.286-3.523-7.286s-3.22,4.393-2.646,8.464
		c0.235,1.684,1.443,3.757,2.418,5.202c-0.909-0.773-1.823-1.505-2.742-2.186c-2.068-1.643-4.107-3.09-6.089-4.378
		c0.363-0.853,1.5-3.95,0.872-8.02c-0.593-3.851-4.66-6.442-4.66-6.442s-2.352,4.778-1.093,8.612
		c0.595,1.818,2.511,3.912,3.729,5.115c-3.705-2.314-7.169-4.038-10.202-5.328c0.186-0.79,0.806-4.032-0.534-7.953
		c-1.237-3.616-5.613-5.437-5.613-5.437s-1.436,5.006,0.439,8.495c0.948,1.768,3.413,3.591,4.756,4.498
		c-2.083-0.849-3.933-1.484-5.481-1.963c-0.468-0.58-2.747-3.247-5.532-3.717c-2.23-0.371-5.976,1.04-5.976,1.04
		s1.796,2.407,5.425,3.633c2.433,0.822,5.118-0.319,5.927-0.711c1.882,0.639,4.224,1.52,6.885,2.739
		c-1.561-0.264-4.743-0.67-6.735-0.03c-3.808,1.228-6.307,5.815-6.307,5.815s4.432,1.677,7.875-0.084
		c3.682-1.877,5.52-4.58,5.976-5.324c2.984,1.41,6.339,3.245,9.874,5.623c-1.639-0.545-4.334-1.288-6.228-1.022
		c-4.048,0.57-7.385,4.743-7.385,4.743s4.156,2.458,7.931,1.29c3.832-1.181,6.135-3.403,6.868-4.199
		c1.566,1.096,3.161,2.291,4.775,3.614c1.438,1.102,2.867,2.32,4.271,3.646c-1.539-0.835-4.165-2.089-6.147-2.152
		c-4.173-0.135-8.274,3.48-8.274,3.48s3.732,3.193,7.738,2.677c4.102-0.525,6.826-2.385,7.676-3.041
		c2.534,2.505,4.971,5.352,7.238,8.482c-1.426-1.093-3.59-2.553-5.39-2.924c-4.17-0.864-8.941,2.051-8.941,2.051
		s3.173,3.861,7.289,4.042c4.035,0.18,7.02-1.09,8.12-1.645c1.972,2.872,3.798,5.959,5.422,9.223
		c-1.228-1.292-2.938-2.855-4.511-3.475c-4.033-1.595-9.355,0.505-9.355,0.505s2.494,4.431,6.598,5.33
		c3.859,0.85,6.99,0.187,8.304-0.193c1.46,3.178,2.729,6.506,3.756,9.946c-1.002-1.507-2.431-3.357-3.891-4.25
		c-3.763-2.306-9.489-1.124-9.489-1.124s1.708,4.889,5.67,6.509c3.727,1.526,6.993,1.407,8.382,1.255
		c0.904,3.446,1.556,6.994,1.926,10.606c-0.735-1.713-1.867-3.925-3.217-5.115c-3.369-2.971-9.338-2.782-9.338-2.782
		s0.838,5.208,4.528,7.527c3.494,2.198,6.819,2.638,8.225,2.723c0.221,3.357,0.189,6.762-0.135,10.188
		c-0.441-1.783-1.152-3.954-2.208-5.276c-2.852-3.577-8.882-4.426-8.882-4.426s-0.098,5.379,3.195,8.354
		c3.031,2.742,6.199,3.784,7.654,4.14c-0.341,3.289-0.938,6.511-1.752,9.644c-0.125-1.859-0.451-4.134-1.267-5.633
		c-2.22-4.09-8.127-5.995-8.127-5.995s-1.068,5.392,1.703,8.951c2.521,3.242,5.471,4.841,6.892,5.472
		c-0.926,3.023-2.051,5.958-3.347,8.787c0.181-1.821,0.225-3.981-0.292-5.53c-1.497-4.497-7.088-7.44-7.088-7.44
		s-2.043,5.23,0.1,9.291c1.906,3.616,4.506,5.723,5.849,6.64c-1.409,2.749-2.972,5.384-4.66,7.885
		c0.475-1.744,0.852-3.773,0.625-5.337c-0.693-4.779-5.78-8.712-5.78-8.712s-2.999,4.9-1.575,9.355
		c1.245,3.91,3.435,6.465,4.636,7.642c-1.938,2.6-3.996,5.035-6.145,7.275c0.835-1.723,1.661-3.822,1.718-5.521
		c0.162-4.923-4.246-9.762-4.246-9.762s-3.888,4.402-3.261,9.124c0.561,4.242,2.367,7.23,3.344,8.582
		c-2.411,2.285-4.9,4.333-7.421,6.107c1.171-1.598,2.418-3.609,2.783-5.336c1.049-4.919-2.506-10.551-2.506-10.551
		s-4.702,3.744-4.925,8.602c-0.199,4.327,1.063,7.627,1.803,9.171c-0.968,0.599-1.936,1.161-2.904,1.675
		c-1.754,1.01-3.469,1.903-5.143,2.705c1.379-1.354,2.823-3.024,3.457-4.579c1.938-4.763-0.617-11.042-0.617-11.042
		s-5.403,2.942-6.5,7.785c-0.958,4.22-0.333,7.702,0.132,9.426c-3.068,1.288-5.929,2.255-8.502,2.983
		c1.61-1.114,3.325-2.519,4.229-3.953c2.808-4.449,1.367-11.204,1.367-11.204s-5.956,2.014-7.931,6.691
		c-1.708,4.044-1.722,7.627-1.57,9.454c-5.699,1.269-9.093,1.497-9.093,1.497l0.128,1.245l0.13,1.245c0,0,4.344-0.27,11.398-2.111
		c0.938,1.54,3.099,4.497,6.976,6.822c4.393,2.64,10.418,0.821,10.418,0.821s-2.877-6.298-7.806-8.27
		c-1.367-0.547-3.207-0.728-4.949-0.75c2.472-0.82,5.15-1.854,7.973-3.153c1.161,1.323,3.766,3.837,7.931,5.443
		c4.697,1.81,10.198-0.956,10.198-0.956s-3.866-5.594-8.963-6.672c-1.441-0.305-3.286-0.16-4.998,0.119
		c0.96-0.507,1.928-1.046,2.908-1.621c1.546-0.84,3.099-1.792,4.641-2.841c1.377,1.091,4.302,3.035,8.539,3.875
		c4.846,0.962,9.676-2.628,9.676-2.628s-4.697-4.754-9.806-4.939c-1.382-0.051-3.06,0.358-4.609,0.886
		c2.183-1.738,4.327-3.672,6.4-5.777c1.482,0.818,4.677,2.253,8.99,2.356c4.842,0.114,8.882-4.157,8.882-4.157
		s-5.356-3.8-10.318-3.127c-1.47,0.2-3.183,0.992-4.687,1.847c1.95-2.211,3.81-4.577,5.554-7.08c1.492,0.533,4.92,1.474,9.262,0.828
		c4.695-0.699,7.855-5.498,7.855-5.498s-5.826-2.772-10.499-1.29c-1.517,0.48-3.188,1.692-4.565,2.87
		c1.646-2.618,3.161-5.364,4.511-8.219c1.536,0.263,5.003,0.594,9.073-0.753c4.41-1.461,6.628-6.622,6.628-6.622
		s-6.101-1.701-10.354,0.511c-1.355,0.708-2.737,2.123-3.852,3.467c1.171-2.839,2.178-5.772,2.987-8.783
		C302.408,176.522,305.797,176.255,309.474,174.282z"/>
	<path fill="#FFFFFF" d="M209.605,218.486c-1.975-4.677-7.931-6.691-7.931-6.691s-1.441,6.755,1.366,11.204
		c0.904,1.434,2.62,2.84,4.231,3.953c-2.573-0.728-5.434-1.695-8.502-2.983c0.466-1.724,1.089-5.206,0.131-9.426
		c-1.096-4.843-6.5-7.785-6.5-7.785s-2.555,6.279-0.617,11.042c0.635,1.555,2.078,3.226,3.457,4.579
		c-1.673-0.802-3.39-1.695-5.144-2.705c-0.967-0.515-1.933-1.076-2.901-1.675c0.741-1.544,2.001-4.844,1.803-9.171
		c-0.222-4.859-4.925-8.602-4.925-8.602s-3.556,5.633-2.506,10.551c0.367,1.727,1.612,3.738,2.783,5.337
		c-2.52-1.775-5.012-3.823-7.423-6.109c0.978-1.352,2.786-4.34,3.346-8.582c0.628-4.723-3.264-9.124-3.264-9.124
		s-4.404,4.839-4.245,9.762c0.058,1.698,0.882,3.8,1.719,5.522c-2.149-2.239-4.208-4.677-6.144-7.274
		c1.199-1.179,3.389-3.734,4.635-7.644c1.422-4.455-1.573-9.355-1.573-9.355s-5.089,3.933-5.782,8.712
		c-0.229,1.565,0.148,3.593,0.625,5.337c-1.687-2.501-3.25-5.136-4.66-7.885c1.343-0.917,3.944-3.024,5.849-6.64
		c2.144-4.061,0.1-9.291,0.1-9.291s-5.591,2.943-7.088,7.44c-0.516,1.549-0.473,3.709-0.292,5.53
		c-1.296-2.829-2.421-5.764-3.347-8.787c1.421-0.632,4.371-2.23,6.891-5.472c2.772-3.559,1.705-8.951,1.705-8.951
		s-5.906,1.906-8.127,5.995c-0.817,1.498-1.142,3.774-1.267,5.633c-0.815-3.133-1.412-6.354-1.754-9.644
		c1.457-0.357,4.624-1.398,7.655-4.14c3.292-2.975,3.194-8.354,3.194-8.354s-6.029,0.849-8.879,4.426
		c-1.057,1.322-1.769,3.493-2.209,5.273c-0.325-3.423-0.355-6.828-0.134-10.185c1.406-0.084,4.73-0.524,8.223-2.723
		c3.691-2.319,4.528-7.527,4.528-7.527s-5.967-0.189-9.338,2.782c-1.349,1.191-2.482,3.401-3.216,5.115
		c0.37-3.611,1.02-7.16,1.924-10.606c1.389,0.152,4.655,0.271,8.383-1.255c3.962-1.62,5.671-6.509,5.671-6.509
		s-5.727-1.181-9.493,1.124c-1.459,0.892-2.886,2.741-3.888,4.248c1.028-3.439,2.295-6.765,3.756-9.944
		c1.315,0.38,4.445,1.043,8.302,0.193c4.106-0.899,6.598-5.33,6.598-5.33s-5.319-2.1-9.356-0.505
		c-1.571,0.62-3.281,2.183-4.51,3.473c1.624-3.263,3.451-6.349,5.422-9.221c1.104,0.556,4.086,1.825,8.12,1.645
		c4.118-0.181,7.291-4.042,7.291-4.042s-4.771-2.916-8.941-2.051c-1.8,0.371-3.963,1.83-5.392,2.924
		c2.268-3.131,4.706-5.977,7.239-8.481c0.85,0.655,3.575,2.514,7.676,3.04c4.006,0.516,7.739-2.677,7.739-2.677
		s-4.103-3.615-8.279-3.48c-1.976,0.063-4.603,1.315-6.143,2.152c1.403-1.326,2.83-2.545,4.271-3.646
		c1.614-1.322,3.209-2.518,4.777-3.614c0.731,0.797,3.034,3.018,6.867,4.199c3.774,1.168,7.929-1.29,7.929-1.29
		s-3.337-4.173-7.386-4.743c-1.89-0.266-4.587,0.476-6.227,1.021c3.538-2.377,6.89-4.211,9.875-5.622
		c0.456,0.744,2.293,3.447,5.975,5.324c3.442,1.761,7.875,0.084,7.875,0.084s-2.499-4.586-6.305-5.815
		c-1.991-0.64-5.172-0.234-6.734,0.03c2.661-1.219,5.002-2.1,6.884-2.739c0.81,0.392,3.495,1.533,5.927,0.711
		c3.629-1.226,5.423-3.633,5.423-3.633s-3.746-1.411-5.973-1.04c-2.788,0.47-5.067,3.138-5.534,3.717
		c-1.55,0.48-3.4,1.115-5.482,1.963c1.343-0.906,3.806-2.729,4.757-4.498c1.876-3.489,0.437-8.495,0.437-8.495
		s-4.376,1.821-5.612,5.437c-1.341,3.921-0.722,7.163-0.534,7.953c-3.032,1.29-6.498,3.013-10.201,5.325
		c1.216-1.2,3.134-3.295,3.728-5.113c1.258-3.834-1.092-8.612-1.092-8.612s-4.066,2.591-4.66,6.442
		c-0.627,4.07,0.507,7.166,0.87,8.02c-1.981,1.287-4.019,2.735-6.089,4.378c-0.919,0.681-1.833,1.414-2.74,2.186
		c0.974-1.445,2.183-3.518,2.419-5.202c0.573-4.07-2.646-8.464-2.646-8.464s-3.624,3.313-3.525,7.286
		c0.097,3.941,1.593,6.746,2.208,7.739c-2.547,2.327-5.018,5.005-7.342,7.964c0.691-1.603,1.449-3.758,1.387-5.406
		c-0.158-4.191-4.188-8.044-4.188-8.044s-3.041,3.962-2.226,7.937c0.804,3.929,2.804,6.485,3.605,7.381
		c-2.124,2.887-4.104,6.013-5.883,9.339c0.419-1.744,0.822-4.12,0.452-5.806c-0.914-4.184-5.654-7.354-5.654-7.354
		s-2.344,4.513-0.81,8.364c1.528,3.838,4.022,6.06,4.974,6.806c-1.551,3.113-2.924,6.376-4.066,9.765
		c0.078-1.766,0.01-3.972-0.613-5.478c-1.671-4.043-7.009-6.402-7.009-6.402s-1.541,4.941,0.696,8.545
		c2.155,3.475,4.947,5.272,6.113,5.912c-0.942,3.16-1.677,6.417-2.181,9.741c-0.261-1.654-0.714-3.524-1.508-4.768
		c-2.406-3.77-8.193-5.212-8.193-5.212s-0.659,5.236,2.235,8.465c2.678,2.991,5.668,4.328,7.044,4.821
		c-0.327,3.206-0.428,6.467-0.273,9.758c-0.557-1.595-1.341-3.353-2.344-4.443c-3.099-3.371-9.172-3.813-9.172-3.813
		s0.277,5.377,3.77,8.12c3.256,2.56,6.536,3.374,7.988,3.621c0.208,3.112,0.636,6.176,1.268,9.171
		c-0.838-1.468-1.915-3.028-3.082-3.923c-3.723-2.847-9.906-2.229-9.906-2.229s1.25,5.353,5.253,7.501
		c3.676,1.973,7.065,2.241,8.605,2.244c0.809,3.011,1.814,5.945,2.988,8.783c-1.116-1.344-2.498-2.759-3.852-3.467
		c-4.256-2.212-10.355-0.511-10.355-0.511s2.219,5.161,6.626,6.622c4.071,1.348,7.538,1.016,9.075,0.753
		c1.348,2.855,2.863,5.601,4.51,8.219c-1.376-1.179-3.049-2.39-4.563-2.87c-4.671-1.482-10.496,1.29-10.496,1.29
		s3.16,4.798,7.853,5.498c4.339,0.646,7.768-0.295,9.262-0.828c1.743,2.503,3.604,4.87,5.553,7.08
		c-1.503-0.855-3.216-1.647-4.687-1.847c-4.962-0.674-10.316,3.127-10.316,3.127s4.039,4.272,8.882,4.157
		c4.312-0.104,7.507-1.538,8.991-2.356c2.071,2.106,4.215,4.039,6.397,5.777c-1.549-0.528-3.227-0.937-4.609-0.886
		c-5.106,0.186-9.804,4.939-9.804,4.939s4.828,3.589,9.674,2.628c4.236-0.84,7.161-2.782,8.538-3.875
		c1.545,1.049,3.095,2.001,4.642,2.841c0.981,0.575,1.948,1.114,2.907,1.621c-1.709-0.28-3.556-0.424-4.996-0.119
		c-5.097,1.078-8.963,6.672-8.963,6.672s5.501,2.766,10.196,0.956c4.166-1.607,6.77-4.12,7.932-5.443
		c2.823,1.299,5.499,2.333,7.973,3.153c-1.742,0.022-3.583,0.202-4.95,0.75c-4.929,1.972-7.805,8.27-7.805,8.27
		s6.024,1.819,10.418-0.821c3.875-2.325,6.036-5.282,6.976-6.822c7.053,1.84,11.399,2.111,11.399,2.111l0.128-1.245l0.13-1.245
		c0,0-3.393-0.228-9.094-1.497C211.328,226.113,211.315,222.53,209.605,218.486z"/>
	<polygon fill="#FFFFFF" points="244.233,161.73 270.109,142.76 237.636,142.511 227.235,113.307 217.341,142.511 185.376,142.261 
		210.745,161.481 201.105,191.932 227.996,173.212 252.604,190.435 	"/>
</g>
</svg>
