<?xml version="1.0" encoding="utf-8"?>
<!-- Generator: Adobe Illustrator 17.0.0, SVG Export Plug-In . SVG Version: 6.00 Build 0)  -->
<!DOCTYPE svg PUBLIC "-//W3C//DTD SVG 1.1//EN" "http://www.w3.org/Graphics/SVG/1.1/DTD/svg11.dtd">
<svg version="1.1" id="Layer_1" xmlns="http://www.w3.org/2000/svg" xmlns:xlink="http://www.w3.org/1999/xlink" x="0px" y="0px"
	 width="458px" height="313px" viewBox="0 0 458 313" enable-background="new 0 0 458 313" xml:space="preserve">
<linearGradient id="SVGID_1_" gradientUnits="userSpaceOnUse" x1="531.286" y1="400.7148" x2="673.7789" y2="657.202" gradientTransform="matrix(1 0 0 1 -334 -299)">
	<stop  offset="0" style="stop-color:#2BC4F3"/>
	<stop  offset="0.5" style="stop-color:#00AEEE"/>
	<stop  offset="1" style="stop-color:#0095DA"/>
</linearGradient>
<ellipse fill="url(#SVGID_1_)" cx="228" cy="157" rx="142" ry="141"/>
<path fill="#FFFFFF" d="M227.752,35.962c-67.683,0-122.748,54.443-122.748,121.352c0,66.909,55.065,121.352,122.748,121.352
	S350.5,224.223,350.5,157.313C350.5,90.404,295.435,35.962,227.752,35.962z M227.752,271.582
	c-63.729,0-115.579-51.258-115.579-114.269c0-63.011,51.843-114.269,115.579-114.269s115.579,51.258,115.579,114.269
	C343.331,220.325,291.481,271.582,227.752,271.582z"/>
<g>
	<polygon fill="#FFFFFF" points="256.796,127.508 286.426,111.412 257.668,96.833 194.632,96.833 164.712,111.412 195.213,127.508 	
		"/>
	<polygon fill="#FFFFFF" points="155.417,130.242 219.905,222.267 189.404,141.783 	"/>
	<polygon fill="#FFFFFF" points="204.799,142.086 227.36,225 248.372,142.086 	"/>
	<polygon fill="#FFFFFF" points="263.768,142.086 234.138,222.267 298.917,130.242 	"/>
</g>
</svg>
