<?xml version="1.0" encoding="utf-8"?>
<!-- Generator: Adobe Illustrator 17.0.0, SVG Export Plug-In . SVG Version: 6.00 Build 0)  -->
<!DOCTYPE svg PUBLIC "-//W3C//DTD SVG 1.1//EN" "http://www.w3.org/Graphics/SVG/1.1/DTD/svg11.dtd">
<svg version="1.1" id="Layer_1" xmlns="http://www.w3.org/2000/svg" xmlns:xlink="http://www.w3.org/1999/xlink" x="0px" y="0px"
	 width="458px" height="313px" viewBox="0 0 458 313" enable-background="new 0 0 458 313" xml:space="preserve">
<g>
	<g>
		<linearGradient id="SVGID_1_" gradientUnits="userSpaceOnUse" x1="83.0436" y1="-36.5965" x2="431.0436" y2="431.4035">
			<stop  offset="0" style="stop-color:#FFF33B"/>
			<stop  offset="0.0401" style="stop-color:#FEE72E"/>
			<stop  offset="0.1171" style="stop-color:#FED51B"/>
			<stop  offset="0.1964" style="stop-color:#FDCA10"/>
			<stop  offset="0.2809" style="stop-color:#FDC70C"/>
			<stop  offset="0.6685" style="stop-color:#F3903F"/>
			<stop  offset="0.8876" style="stop-color:#ED683C"/>
			<stop  offset="1" style="stop-color:#E93E3A"/>
		</linearGradient>
		<ellipse fill="url(#SVGID_1_)" cx="227" cy="157" rx="142" ry="141"/>
		<g>
			<path fill="#FFFFFF" d="M340.846,175.336c4.057-6.246,8.253-12.704,8.223-18.316c-0.033-5.606-4.3-12.014-8.427-18.211
				c-2.59-3.889-5.268-7.91-5.991-10.533c-0.723-2.623-0.483-7.433-0.251-12.085c0.369-7.426,0.753-15.104-2.098-19.948
				c-2.847-4.84-9.766-8.27-16.457-11.588c-4.201-2.082-8.544-4.236-10.494-6.153c-1.948-1.912-4.164-6.201-6.307-10.348
				c-3.416-6.611-6.948-13.447-11.852-16.221c-2.691-1.525-6.29-2.204-11.671-2.204c-2.743,0-5.63,0.174-8.422,0.343
				c-2.646,0.16-5.145,0.31-7.375,0.31c-2.131,0-3.702-0.139-4.8-0.425c-2.649-0.689-6.726-3.303-10.668-5.829
				c-6.263-4.014-12.739-8.165-18.433-8.165c-5.644,0.033-12.093,4.271-18.331,8.368c-3.914,2.571-7.961,5.23-10.605,5.95
				c-1.193,0.325-2.956,0.483-5.39,0.483c-2.085,0-4.373-0.113-6.793-0.232c-2.53-0.124-5.146-0.253-7.654-0.253
				c-5.799,0-9.624,0.72-12.404,2.335c-4.875,2.832-8.33,9.71-11.672,16.363c-2.095,4.17-4.261,8.482-6.187,10.418
				c-1.924,1.936-6.241,4.137-10.416,6.265c-6.655,3.392-13.535,6.899-16.327,11.771c-2.797,4.874-2.328,12.547-1.874,19.966
				c0.284,4.651,0.578,9.461-0.114,12.091c-0.695,2.632-3.324,6.68-5.867,10.596c-4.057,6.247-8.253,12.707-8.22,18.317
				c0.031,5.606,4.296,12.013,8.421,18.209c2.59,3.889,5.267,7.911,5.991,10.54c0.725,2.624,0.485,7.439,0.253,12.095
				c-0.37,7.42-0.751,15.093,2.099,19.935c2.847,4.836,9.765,8.266,16.454,11.584c4.202,2.084,8.547,4.238,10.498,6.156
				c1.947,1.911,4.162,6.199,6.304,10.346c3.415,6.612,6.948,13.448,11.854,16.226c2.69,1.523,6.287,2.201,11.663,2.201
				c2.743,0,5.63-0.174,8.424-0.343c2.646-0.16,5.147-0.311,7.379-0.311c2.102,0,3.717,0.143,4.8,0.425
				c2.648,0.691,6.723,3.073,10.664,5.599c6.264,4.014,12.74,7.935,18.369,7.935c0.007,0,0.059,0,0.066,0
				c5.645,0,12.096-4.039,18.334-8.137c3.915-2.572,7.961-5.116,10.605-5.834c1.193-0.325,2.957-0.426,5.392-0.426
				c2.084,0,4.366,0.141,6.784,0.259c2.527,0.124,5.14,0.266,7.645,0.266c5.809,0,9.64-0.715,12.422-2.332
				c4.877-2.833,8.333-9.709,11.674-16.361c2.094-4.167,4.259-8.475,6.183-10.41c1.924-1.934,6.24-4.134,10.414-6.261
				c6.655-3.394,13.538-6.902,16.327-11.773c2.801-4.877,2.331-12.553,1.877-19.976c-0.284-4.648-0.578-9.454,0.112-12.081
				C335.672,183.302,338.303,179.252,340.846,175.336z M334.193,171.071c-3.013,4.638-5.86,9.019-6.877,12.871
				c-1.01,3.844-0.692,9.044-0.355,14.549c0.347,5.685,0.78,12.761-0.853,15.606c-1.625,2.837-7.967,6.071-13.063,8.668
				c-4.946,2.521-9.617,4.903-12.431,7.734c-2.812,2.828-5.154,7.49-7.635,12.427c-2.56,5.094-5.745,11.435-8.589,13.087
				c-1.44,0.838-4.274,1.262-8.422,1.262c-2.31,0-4.824-0.123-7.254-0.242c-2.408-0.118-4.897-0.24-7.175-0.24
				c-3.196,0-5.575,0.242-7.484,0.762c-3.863,1.05-8.243,3.927-12.88,6.975c-4.777,3.138-10.793,7.044-14.082,7.062L227,275.526
				v-3.933c-3,0.001-9.202-3.83-14.004-6.908c-4.669-2.993-9.043-5.819-12.914-6.827c-1.788-0.466-3.934-0.683-6.791-0.683
				c-2.473,0-5.202,0.166-7.85,0.325c-2.675,0.161-5.437,0.329-7.939,0.329c-3.766,0-6.369-0.394-7.74-1.17
				c-2.858-1.618-6.112-7.919-8.729-12.982c-2.538-4.913-4.935-9.553-7.78-12.347c-2.848-2.802-7.55-5.133-12.529-7.601
				c-5.123-2.54-11.498-5.702-13.155-8.517c-1.66-2.82-1.308-9.892-1.025-15.575c0.275-5.517,0.534-10.728-0.526-14.564
				c-1.059-3.84-3.956-8.192-7.023-12.8c-3.158-4.744-7.089-10.649-7.107-13.914c-0.019-3.27,3.848-9.224,6.955-14.008
				c3.012-4.638,5.857-9.019,6.873-12.867c1.013-3.847,0.695-9.051,0.358-14.561c-0.348-5.682-0.78-12.754,0.851-15.596
				c1.626-2.837,7.966-6.069,13.061-8.666c4.947-2.522,9.621-4.904,12.435-7.735c2.814-2.828,5.158-7.495,7.639-12.435
				c2.559-5.095,5.744-11.435,8.584-13.084c1.439-0.836,4.268-1.26,8.407-1.26c2.312,0,4.829,0.123,7.262,0.243
				c2.411,0.119,4.904,0.241,7.185,0.241c3.196,0,5.575-0.243,7.484-0.763c3.862-1.051,8.242-3.928,12.88-6.975
				c4.777-3.138,10.722-7.044,14.028-7.063c3.296,0,9.273,3.831,14.074,6.909c4.671,2.994,9.082,5.821,12.955,6.829
				c1.788,0.465,3.951,0.681,6.807,0.681c2.471,0,5.209-0.165,7.856-0.325c2.674-0.161,5.44-0.328,7.942-0.328
				c3.769,0,6.376,0.394,7.751,1.173c2.856,1.615,6.112,7.916,8.727,12.978c2.539,4.913,4.937,9.554,7.783,12.348
				c2.848,2.801,7.549,5.132,12.526,7.599c5.124,2.54,11.499,5.7,13.156,8.518c1.662,2.824,1.309,9.902,1.026,15.59
				c-0.274,5.511-0.534,10.716,0.522,14.551c1.059,3.838,3.957,8.189,7.025,12.796c3.16,4.746,7.094,10.652,7.113,13.915
				C341.168,160.334,337.3,166.287,334.193,171.071z"/>
		</g>
	</g>
	<g>
		<path fill="#FFFFFF" d="M253.856,187.02c-0.034-1.284-0.068-2.567-0.103-3.851c-0.222-0.543-0.855-1.187-1.49-1.318
			c-0.496-0.017-0.993-0.034-1.489-0.051l-0.154-0.051c-0.017-5.32-0.034-10.642-0.051-15.962c0-1.855,0.417-5.01-0.411-6.182
			c-0.857-1.213-3.865-0.811-5.907-0.811c-0.514-0.017-1.027-0.034-1.541-0.051c-0.051-0.017-0.103-0.034-0.154-0.051
			c-0.624-3.354-2.478-5.647-5.753-6.334c-1.291-0.271-3.037,0.236-3.904-0.405c-0.577-0.428-0.62-6.894-0.154-8.006
			c0.518-1.235,2.156-1.689,3.441-2.179c2.449-0.932,4.859-2.513,6.831-4.003c1.827-1.381,3.517-3.178,4.879-5.016
			c0.565-0.929,1.13-1.858,1.695-2.787c0.39-0.338,1.016-0.244,1.541-0.456c1.361-0.551,2.959-1.344,4.058-2.23
			c4.883-3.934,7.996-9.662,9.964-16.468c1.028-3.554,3.682-10.497,1.079-13.884c-0.84-1.093-2.202-1.727-3.801-2.078
			c-1.952-0.017-3.904-0.034-5.855-0.051c-0.645-0.421-0.027-2.275-0.308-2.99c-0.721-1.836-1.703-0.677-3.647-1.164
			C238.585,90.661,224.543,91,210.505,91h-9.862c-1.354,0-3.197-0.515-3.955,0.1c-1.019,0.826-0.543,2.135-0.822,3.749
			c-1.181,0.665-3.591-0.254-5.085,0.025c-1.872,0.35-3.456,1.195-4.314,2.546c-1.016,1.598-0.877,3.51-0.462,5.555
			c0.737,3.631,1.492,6.817,2.568,9.922c2.066,5.965,4.852,10.698,9.245,14.335c0.884,0.732,2.19,1.473,3.287,1.923
			c0.685,0.253,1.37,0.506,2.054,0.759c0.616,0.912,1.233,1.824,1.849,2.736c1.184,1.689,2.912,3.486,4.571,4.712
			c1.735,1.282,3.588,2.69,5.599,3.648c1.609,0.767,3.605,1.286,4.366,2.888c0.235,0.496,0.37,6.542,0.154,7.449
			c-0.171,0.236-0.342,0.473-0.514,0.709c-0.793,0.575-2.615,0.07-3.75,0.304c-2.924,0.602-5.562,2.957-5.701,6.283
			c-0.382,0.199-1.091,0.152-1.695,0.152c-2.017,0-4.851-0.399-5.742,0.76c-0.877,1.141-0.298,4.262-0.298,6.233V181.7
			c0,0.696-2.612-0.336-3.349,1.419c-0.325,0.773-0.134,1.982-0.134,2.99c0,2.606-0.732,6.647,1.397,7.195
			c16.982,0.017,33.949,0.034,50.932,0.051C254.569,193.906,253.856,190.124,253.856,187.02z M255.602,108.53
			c0.222-3.108,0.445-6.216,0.668-9.324c0.103-0.068,0.205-0.135,0.308-0.203c1.917-0.021,5.76-0.503,6.472,0.861
			c0.468,1.133-0.987,6.306-1.335,7.398c-1.425,4.469-2.577,8.532-4.931,12.009c-0.702,0.895-1.404,1.791-2.106,2.686
			c-0.65,0.608-1.301,1.216-1.952,1.824c-0.253-0.051-0.196-0.033-0.308-0.203C254.266,119.199,254.676,113.815,255.602,108.53z
			 M199.873,123.174c-0.051,0.017-0.103,0.034-0.154,0.051c-0.845-0.505-1.58-1.544-2.157-2.331
			c-1.806-2.46-3.547-5.226-4.674-8.361c-0.68-1.89-1.168-3.866-1.798-5.777c-0.277-0.839-1.451-6.056-1.13-6.841
			c0.232-0.567,0.813-0.657,1.387-0.912c1.476,0.18,3.464-0.341,4.623,0.152c0.24,3.006,0.479,6.013,0.719,9.02
			c0.377,2.398,0.753,4.797,1.13,7.195c0.692,2.593,1.4,5.198,2.157,7.601C199.942,123.039,199.907,123.107,199.873,123.174z
			 M221.343,155.756c2.566-1.625,3.04-4.737,2.62-8.513c-0.149-1.338,0.23-2.721-0.103-4.054c-0.917-3.669-3.979-4.368-6.883-6.081
			c-2.547-1.502-5.211-3.156-7.037-5.371c-1.235-1.498-2.614-3.097-3.544-4.864c-4.309-8.192-6.365-19.638-6.215-32.075
			c0.068-0.068,0.137-0.135,0.205-0.203c17.171,0.017,34.347,0.034,51.517,0.051c0.485,0.833,0.105,2.899,0.051,3.952
			c-0.178,3.479-0.219,7.147-0.822,10.286c-0.435,2.265-0.272,4.392-0.925,6.486c-0.58,1.861-0.817,3.837-1.438,5.675
			c-1.646,4.869-3.844,9.412-7.294,12.516c-1.772,1.594-3.906,2.783-6.112,3.952c-2.796,1.481-5.302,1.705-6.574,4.763
			c-0.576,1.384-0.565,3.175-0.565,5.169c0,4.679,0.098,7.36,3.493,8.716c2.566,1.025,5.722-0.624,6.472,2.432
			c-0.051,0.051-0.103,0.101-0.154,0.152c-7.943,0.017-15.889,0.034-23.833,0.051c-0.051-0.051-0.103-0.101-0.154-0.152
			C214.51,155.53,219.174,157.129,221.343,155.756z M205.934,163.205c0.086-0.068,0.171-0.135,0.257-0.203
			c13.319,0.017,26.642,0.034,39.961,0.051c0.443,0.763,0.154,3.842,0.154,5.016c-0.017,4.543-0.034,8.662-0.051,13.205
			c-0.656,0.371-2.295-0.274-3.236-0.274h-36.879c-0.466-1-0.154-3.454-0.154-4.895
			C205.968,171.664,205.951,167.647,205.934,163.205z M249,188.997c0,0.345-1.918-0.997-3.054-0.997h-40.218
			c-0.921,0-2.241,0.731-2.979,0.473c-0.017-0.929-0.034-1.571-0.051-2.5c0.051-0.068,0.103,0.008,0.154-0.059
			c15.51,0.017,30.754,0.106,46.264,0.122c0.051,0.017-0.117,0.106-0.117,0.122V188.997z"/>
		<path fill="#FFFFFF" d="M211.07,178.279c1.054,0.585,4.611-0.279,6.215-0.279h15.255c2.975,0,9.46,1.815,9.46-0.405v-8.513
			c0-0.729-0.003-1.717-0.441-2.073c-1.3-1.056-5.774-1.009-8.146-1.009h-21.727c-0.531,0-1.182,0.979-1.49,1.617
			c-0.034,0.676-0.068,1.552-0.103,2.227c0.017,2.533,0.034,4.902,0.051,7.435C210.257,177.672,210.738,178.095,211.07,178.279z
			 M214.358,171.256c0.103-0.068,0.205-0.183,0.308-0.251c7.721,0.034,15.444,0.044,23.165,0.077c0.18,0.696,0.367,3.029,0,3.681
			c-0.376,0.513-4.58,0.236-5.804,0.236h-17.515C214.07,173,214.317,172.292,214.358,171.256z"/>
		<polygon fill="#FFFFFF" points="229.818,214 226.519,205.11 223.669,213.983 213.82,213.93 221.719,219.798 218.819,228.627 
			226.669,223.25 234.468,228.626 231.443,219.71 239.218,214 		"/>
		<polygon fill="#FFFFFF" points="269.506,214 266.206,205.11 263.356,213.983 253.507,213.93 261.406,219.798 258.507,228.627 
			266.356,223.25 274.156,228.626 271.131,219.71 278.905,214 		"/>
		<polygon fill="#FFFFFF" points="190.131,214 186.831,205.11 183.982,213.983 174.132,213.93 182.032,219.798 179.132,228.627 
			186.981,223.25 194.781,228.626 191.756,219.71 199.53,214 		"/>
	</g>
</g>
</svg>
