<?xml version="1.0" encoding="utf-8"?>
<!-- Generator: Adobe Illustrator 17.0.0, SVG Export Plug-In . SVG Version: 6.00 Build 0)  -->
<!DOCTYPE svg PUBLIC "-//W3C//DTD SVG 1.1//EN" "http://www.w3.org/Graphics/SVG/1.1/DTD/svg11.dtd">
<svg version="1.1" id="Layer_1" xmlns="http://www.w3.org/2000/svg" xmlns:xlink="http://www.w3.org/1999/xlink" x="0px" y="0px"
	 width="458px" height="313px" viewBox="0 0 458 313" enable-background="new 0 0 458 313" xml:space="preserve">
<linearGradient id="SVGID_1_" gradientUnits="userSpaceOnUse" x1="364.286" y1="61.7852" x2="506.7789" y2="-194.702" gradientTransform="matrix(1 0 0 -1 -167 163.5)">
	<stop  offset="0" style="stop-color:#2BC4F3"/>
	<stop  offset="0.5" style="stop-color:#00AEEE"/>
	<stop  offset="1" style="stop-color:#0095DA"/>
</linearGradient>
<ellipse fill="url(#SVGID_1_)" cx="228" cy="157" rx="142" ry="141"/>
<g>
	<path fill="#FFFFFF" d="M227.499,36c-67.547,0-122.5,54.501-122.5,121.482s54.953,121.482,122.5,121.482
		s122.5-54.501,122.5-121.482S295.045,36,227.499,36z M227.499,271.872c-63.6,0-115.345-51.312-115.345-114.391
		S163.892,43.09,227.499,43.09s115.345,51.312,115.345,114.391S291.099,271.872,227.499,271.872z"/>
	<path fill="#FFFFFF" d="M254.825,187.02c-0.034-1.284-0.068-2.567-0.103-3.851c-0.222-0.543-0.855-1.187-1.489-1.318
		c-0.496-0.017-0.993-0.034-1.489-0.051l-0.154-0.051c-0.017-5.32-0.034-10.642-0.051-15.962c0-1.855,0.417-5.01-0.411-6.182
		c-0.856-1.213-3.863-0.811-5.904-0.811c-0.513-0.017-1.027-0.034-1.54-0.051c-0.051-0.017-0.103-0.034-0.154-0.051
		c-0.623-3.354-2.477-5.647-5.75-6.334c-1.29-0.271-3.036,0.236-3.902-0.405c-0.577-0.428-0.62-6.894-0.154-8.006
		c0.518-1.235,2.155-1.689,3.44-2.179c2.448-0.932,4.857-2.513,6.829-4.003c1.826-1.381,3.516-3.178,4.877-5.016
		c0.565-0.929,1.13-1.858,1.694-2.787c0.39-0.338,1.016-0.244,1.54-0.456c1.36-0.551,2.958-1.344,4.056-2.23
		c4.881-3.934,7.993-9.662,9.96-16.468c1.027-3.554,3.68-10.497,1.078-13.884c-0.84-1.093-2.201-1.727-3.799-2.078
		c-1.951-0.017-3.902-0.034-5.853-0.051c-0.645-0.421-0.027-2.275-0.308-2.99c-0.721-1.836-1.702-0.677-3.645-1.164
		C239.56,90.661,225.524,91,211.492,91h-9.858c-1.354,0-3.196-0.515-3.953,0.1c-1.018,0.826-0.543,2.135-0.822,3.749
		c-1.181,0.665-3.59-0.254-5.083,0.025c-1.872,0.35-3.454,1.195-4.313,2.546c-1.015,1.598-0.877,3.51-0.462,5.555
		c0.737,3.631,1.492,6.817,2.567,9.922c2.066,5.965,4.85,10.698,9.242,14.335c0.884,0.732,2.189,1.473,3.286,1.923
		c0.684,0.253,1.369,0.506,2.054,0.759c0.616,0.912,1.232,1.824,1.848,2.736c1.183,1.689,2.911,3.486,4.569,4.712
		c1.735,1.282,3.586,2.69,5.596,3.648c1.609,0.767,3.604,1.286,4.364,2.888c0.235,0.496,0.37,6.542,0.154,7.449
		c-0.171,0.236-0.342,0.473-0.513,0.709c-0.792,0.575-2.614,0.07-3.748,0.304c-2.922,0.602-5.56,2.957-5.699,6.283
		c-0.382,0.199-1.09,0.152-1.694,0.152c-2.017,0-4.845-0.399-5.735,0.76c-0.877,1.141-0.293,4.262-0.293,6.233V181.7
		c0,0.696-2.616-0.336-3.353,1.419c-0.325,0.773-0.136,1.982-0.136,2.99c0,2.606-0.733,6.647,1.395,7.195
		c16.976,0.017,33.935,0.034,50.91,0.051C255.538,193.906,254.825,190.124,254.825,187.02z M256.571,108.53
		c0.222-3.108,0.445-6.216,0.667-9.324c0.103-0.068,0.205-0.135,0.308-0.203c1.916-0.021,5.758-0.503,6.469,0.861
		c0.468,1.133-0.987,6.306-1.335,7.398c-1.425,4.469-2.576,8.532-4.929,12.009c-0.702,0.895-1.403,1.791-2.105,2.686
		c-0.65,0.608-1.301,1.216-1.951,1.824c-0.252-0.051-0.196-0.033-0.308-0.203C255.234,119.199,255.645,113.815,256.571,108.53z
		 M200.864,123.174c-0.051,0.017-0.103,0.034-0.154,0.051c-0.845-0.505-1.579-1.544-2.156-2.331
		c-1.805-2.46-3.545-5.226-4.672-8.361c-0.68-1.89-1.167-3.866-1.797-5.777c-0.277-0.839-1.45-6.056-1.13-6.841
		c0.232-0.567,0.813-0.657,1.386-0.912c1.476,0.18,3.463-0.341,4.621,0.152c0.24,3.006,0.479,6.013,0.719,9.02
		c0.376,2.398,0.753,4.797,1.129,7.195c0.692,2.593,1.4,5.198,2.156,7.601C200.932,123.039,200.898,123.107,200.864,123.174z
		 M222.325,155.756c2.565-1.625,3.039-4.737,2.618-8.513c-0.149-1.338,0.23-2.721-0.103-4.054c-0.916-3.669-3.977-4.368-6.88-6.081
		c-2.546-1.502-5.209-3.156-7.034-5.371c-1.234-1.498-2.613-3.097-3.543-4.864c-4.307-8.192-6.363-19.638-6.212-32.075
		c0.068-0.068,0.137-0.135,0.205-0.203c17.164,0.017,34.333,0.034,51.496,0.051c0.485,0.833,0.105,2.899,0.051,3.952
		c-0.178,3.479-0.219,7.147-0.821,10.286c-0.435,2.265-0.272,4.392-0.924,6.486c-0.58,1.861-0.816,3.837-1.438,5.675
		c-1.645,4.869-3.842,9.412-7.291,12.516c-1.771,1.594-3.904,2.783-6.11,3.952c-2.794,1.481-5.3,1.705-6.572,4.763
		c-0.576,1.384-0.565,3.175-0.565,5.169c0,4.679,0.098,7.36,3.491,8.716c2.565,1.025,5.719-0.624,6.469,2.432
		c-0.051,0.051-0.103,0.101-0.154,0.152c-7.94,0.017-15.883,0.034-23.823,0.051c-0.051-0.051-0.103-0.101-0.154-0.152
		C215.495,155.53,220.157,157.129,222.325,155.756z M206.923,163.205c0.086-0.068,0.171-0.135,0.257-0.203
		c13.313,0.017,26.631,0.034,39.944,0.051c0.443,0.763,0.154,3.842,0.154,5.016c-0.017,4.543-0.034,8.662-0.051,13.205
		c-0.656,0.371-2.294-0.274-3.235-0.274h-36.864c-0.466-1-0.154-3.454-0.154-4.895C206.957,171.664,206.94,167.647,206.923,163.205z
		 M250,188.997c0,0.345-1.947-0.997-3.082-0.997h-40.201c-0.92,0-2.241,0.731-2.978,0.473c-0.017-0.929-0.034-1.571-0.051-2.5
		c0.051-0.068,0.103,0.008,0.154-0.059c15.504,0.017,30.756,0.106,46.26,0.122c0.051,0.017-0.102,0.106-0.102,0.122V188.997z"/>
	<path fill="#FFFFFF" d="M212.057,178.279c1.053,0.585,4.609-0.279,6.212-0.279h15.249c2.974,0,9.482,1.815,9.482-0.405v-8.513
		c0-0.729-0.016-1.717-0.454-2.073c-1.3-1.056-5.784-1.009-8.155-1.009h-21.718c-0.53,0-1.182,0.979-1.489,1.617
		c-0.034,0.676-0.068,1.552-0.103,2.227c0.017,2.533,0.034,4.902,0.051,7.435C211.243,177.672,211.725,178.095,212.057,178.279z
		 M215.343,171.256c0.103-0.068,0.205-0.183,0.308-0.251c7.718,0.034,15.438,0.044,23.155,0.077c0.18,0.696,0.367,3.029,0,3.681
		c-0.376,0.513-4.578,0.236-5.802,0.236h-17.508C215.055,173,215.302,172.292,215.343,171.256z"/>
	<polygon fill="#FFFFFF" points="230.797,214 227.499,205.11 224.65,213.983 214.805,213.93 222.701,219.798 219.802,228.627 
		227.649,223.25 235.445,228.626 232.421,219.71 240.193,214 	"/>
	<polygon fill="#FFFFFF" points="270.468,214 267.17,205.11 264.321,213.983 254.476,213.93 262.372,219.798 259.474,228.627 
		267.32,223.25 275.116,228.626 272.092,219.71 279.864,214 	"/>
	<polygon fill="#FFFFFF" points="191.126,214 187.828,205.11 184.979,213.983 175.134,213.93 183.03,219.798 180.131,228.627 
		187.978,223.25 195.774,228.626 192.75,219.71 200.521,214 	"/>
</g>
</svg>
