<?xml version="1.0" encoding="utf-8"?>
<!-- Generator: Adobe Illustrator 17.0.0, SVG Export Plug-In . SVG Version: 6.00 Build 0)  -->
<!DOCTYPE svg PUBLIC "-//W3C//DTD SVG 1.1//EN" "http://www.w3.org/Graphics/SVG/1.1/DTD/svg11.dtd">
<svg version="1.1" id="Layer_1" xmlns="http://www.w3.org/2000/svg" xmlns:xlink="http://www.w3.org/1999/xlink" x="0px" y="0px"
	 width="458px" height="313px" viewBox="0 0 458 313" enable-background="new 0 0 458 313" xml:space="preserve">
<linearGradient id="SVGID_1_" gradientUnits="userSpaceOnUse" x1="84.0436" y1="-36.5965" x2="432.0436" y2="431.4035">
	<stop  offset="0" style="stop-color:#FFF33B"/>
	<stop  offset="0.0401" style="stop-color:#FEE72E"/>
	<stop  offset="0.1171" style="stop-color:#FED51B"/>
	<stop  offset="0.1964" style="stop-color:#FDCA10"/>
	<stop  offset="0.2809" style="stop-color:#FDC70C"/>
	<stop  offset="0.6685" style="stop-color:#F3903F"/>
	<stop  offset="0.8876" style="stop-color:#ED683C"/>
	<stop  offset="1" style="stop-color:#E93E3A"/>
</linearGradient>
<ellipse fill="url(#SVGID_1_)" cx="228" cy="157" rx="142" ry="141"/>
<g>
	<g>
		<g>
			<polygon fill="#FFFFFF" points="228.666,153.063 231.291,149.611 229.833,146.949 229.754,146.949 224.729,146.949 
				224.65,146.949 223.192,149.611 225.817,153.063 221.078,164.716 227.212,170.911 227.208,170.974 227.241,170.94 
				227.275,170.974 227.272,170.91 233.405,164.716 			"/>
			<path fill="#FFFFFF" d="M227.242,144.028c14.043,0,25.468-11.272,25.468-25.128s-11.425-25.128-25.468-25.128
				c-14.043,0-25.468,11.272-25.468,25.128S213.199,144.028,227.242,144.028z M227.242,98.375c11.47,0,20.802,9.207,20.802,20.525
				s-9.332,20.525-20.802,20.525c-11.47,0-20.802-9.207-20.802-20.525S215.771,98.375,227.242,98.375z"/>
			<path fill="#FFFFFF" d="M260.853,154.087c-4.193-4.335-9.946-7.456-15.785-8.562c-1.252-0.236-2.12,0.144-2.626,0.506
				c-1.24,0.885-1.423,2.279-1.616,3.754c-0.218,1.666-0.517,3.948-2.221,6.566c-0.771,1.186-1.902,2.075-2.474,2.384
				c-1.13,0.61-1.545,2.008-0.927,3.124c0.618,1.115,2.036,1.526,3.167,0.914c1.138-0.614,2.91-2.014,4.161-3.936
				c2.27-3.489,2.678-6.602,2.922-8.462c0.002-0.019,0.005-0.037,0.007-0.056c11.655,2.799,17.927,12.677,17.927,20.87
				c0,0.541-0.096,1.245-0.237,1.929h4.721c0.156-1.099,0.182-1.903,0.182-1.929C268.053,164.961,265.496,158.888,260.853,154.087z"
				/>
			<path fill="#FFFFFF" d="M218.158,158.735c-0.572-0.309-1.703-1.199-2.474-2.384c-1.704-2.618-2.003-4.9-2.221-6.566
				c-0.193-1.475-0.376-2.869-1.616-3.754c-0.506-0.362-1.374-0.742-2.626-0.506c-5.839,1.107-11.592,4.227-15.785,8.562
				c-4.643,4.8-7.2,10.874-7.2,17.102c0,0.026,0.025,0.83,0.182,1.929h4.721c-0.141-0.684-0.237-1.388-0.237-1.929
				c0-8.193,6.272-18.071,17.927-20.87c0.002,0.019,0.005,0.038,0.007,0.056c0.244,1.86,0.652,4.973,2.922,8.462
				c1.25,1.922,3.023,3.322,4.161,3.936c1.131,0.611,2.548,0.201,3.167-0.914C219.703,160.744,219.288,159.345,218.158,158.735z"/>
		</g>
		<g>
			<polygon fill="#FFFFFF" points="303.84,185.576 278.275,185.576 278.275,206.964 267.096,206.964 267.096,210.512 
				303.84,210.512 290.717,198.044 			"/>
			<polygon fill="#FFFFFF" points="176.014,185.576 150.448,185.576 163.571,198.044 150.448,210.512 187.192,210.512 
				187.192,206.964 176.014,206.964 			"/>
		</g>
		<path fill="#FFFFFF" d="M178,180v25h96v-25H178z M219.289,198.694L213.93,195l-5.393,3.694l1.992-6.066l-5.427-4.033l6.767,0.034
			l1.958-5.415l2.267,6.786h6.458l-5.341,3.246L219.289,198.694z M246.555,198.694L241.197,195l-5.393,3.694l1.992-6.066
			l-5.427-4.033l6.767,0.034l1.958-5.415l2.267,6.786h6.458l-5.341,3.246L246.555,198.694z"/>
	</g>
</g>
<g>
	<path fill="#FFFFFF" d="M341.846,175.336c4.057-6.246,8.253-12.704,8.223-18.316c-0.033-5.606-4.3-12.014-8.427-18.211
		c-2.59-3.889-5.268-7.91-5.991-10.533c-0.723-2.623-0.483-7.433-0.251-12.085c0.369-7.426,0.753-15.104-2.098-19.948
		c-2.847-4.84-9.766-8.27-16.457-11.588c-4.201-2.082-8.544-4.236-10.494-6.153c-1.948-1.912-4.164-6.201-6.307-10.348
		c-3.416-6.611-6.948-13.447-11.852-16.221c-2.691-1.525-6.29-2.204-11.671-2.204c-2.743,0-5.63,0.174-8.422,0.343
		c-2.646,0.16-5.145,0.31-7.375,0.31c-2.131,0-3.702-0.139-4.8-0.425c-2.649-0.689-6.726-3.303-10.668-5.829
		c-6.263-4.014-12.739-8.165-18.433-8.165c-5.644,0.033-12.093,4.271-18.331,8.368c-3.914,2.571-7.961,5.23-10.605,5.95
		c-1.193,0.325-2.956,0.483-5.39,0.483c-2.085,0-4.373-0.113-6.793-0.232c-2.53-0.124-5.146-0.253-7.654-0.253
		c-5.799,0-9.624,0.72-12.404,2.335c-4.875,2.832-8.33,9.71-11.672,16.363c-2.095,4.17-4.261,8.482-6.187,10.418
		c-1.924,1.936-6.241,4.137-10.416,6.265c-6.655,3.392-13.535,6.899-16.327,11.771c-2.797,4.874-2.328,12.547-1.874,19.966
		c0.284,4.651,0.578,9.461-0.114,12.091c-0.695,2.632-3.324,6.68-5.867,10.596c-4.057,6.247-8.253,12.707-8.22,18.317
		c0.031,5.606,4.296,12.013,8.421,18.209c2.59,3.889,5.267,7.911,5.991,10.54c0.725,2.624,0.485,7.439,0.253,12.095
		c-0.37,7.42-0.751,15.093,2.099,19.935c2.847,4.836,9.765,8.266,16.454,11.584c4.202,2.084,8.547,4.238,10.498,6.156
		c1.947,1.911,4.162,6.199,6.304,10.346c3.415,6.612,6.948,13.448,11.854,16.226c2.69,1.523,6.287,2.201,11.663,2.201
		c2.743,0,5.63-0.174,8.424-0.343c2.646-0.16,5.147-0.311,7.379-0.311c2.102,0,3.717,0.143,4.8,0.425
		c2.648,0.691,6.723,3.073,10.664,5.599c6.264,4.014,12.74,7.935,18.369,7.935c0.007,0,0.059,0,0.066,0
		c5.645,0,12.096-4.039,18.334-8.137c3.915-2.572,7.961-5.116,10.605-5.834c1.193-0.325,2.957-0.426,5.392-0.426
		c2.084,0,4.366,0.141,6.784,0.259c2.527,0.124,5.14,0.266,7.645,0.266c5.809,0,9.64-0.715,12.422-2.332
		c4.877-2.833,8.333-9.709,11.674-16.361c2.094-4.167,4.259-8.475,6.183-10.41c1.924-1.934,6.24-4.134,10.414-6.261
		c6.655-3.394,13.538-6.902,16.327-11.773c2.801-4.877,2.331-12.553,1.877-19.976c-0.284-4.648-0.578-9.454,0.112-12.081
		C336.672,183.302,339.303,179.252,341.846,175.336z M335.193,171.071c-3.013,4.638-5.86,9.019-6.877,12.871
		c-1.01,3.844-0.692,9.044-0.355,14.549c0.347,5.685,0.78,12.761-0.853,15.606c-1.625,2.837-7.967,6.071-13.063,8.668
		c-4.946,2.521-9.617,4.903-12.431,7.734c-2.812,2.828-5.154,7.49-7.635,12.427c-2.56,5.094-5.745,11.435-8.589,13.087
		c-1.44,0.838-4.274,1.262-8.422,1.262c-2.31,0-4.824-0.123-7.254-0.242c-2.408-0.118-4.897-0.24-7.175-0.24
		c-3.196,0-5.575,0.242-7.484,0.762c-3.863,1.05-8.243,3.927-12.88,6.975c-4.777,3.138-10.793,7.044-14.082,7.062L228,275.526
		v-3.933c-3,0.001-9.202-3.83-14.004-6.908c-4.669-2.993-9.043-5.819-12.914-6.827c-1.788-0.466-3.934-0.683-6.791-0.683
		c-2.473,0-5.202,0.166-7.85,0.325c-2.675,0.161-5.437,0.329-7.939,0.329c-3.766,0-6.369-0.394-7.74-1.17
		c-2.858-1.618-6.112-7.919-8.729-12.982c-2.538-4.913-4.935-9.553-7.78-12.347c-2.848-2.802-7.55-5.133-12.529-7.601
		c-5.123-2.54-11.498-5.702-13.155-8.517c-1.66-2.82-1.308-9.892-1.025-15.575c0.275-5.517,0.534-10.728-0.526-14.564
		c-1.059-3.84-3.956-8.192-7.023-12.8c-3.158-4.744-7.089-10.649-7.107-13.914c-0.019-3.27,3.848-9.224,6.955-14.008
		c3.012-4.638,5.857-9.019,6.873-12.867c1.013-3.847,0.695-9.051,0.358-14.561c-0.348-5.682-0.78-12.754,0.851-15.596
		c1.626-2.837,7.966-6.069,13.061-8.666c4.947-2.522,9.621-4.904,12.435-7.735c2.814-2.828,5.158-7.495,7.639-12.435
		c2.559-5.095,5.744-11.435,8.584-13.084c1.439-0.836,4.268-1.26,8.407-1.26c2.312,0,4.829,0.123,7.262,0.243
		c2.411,0.119,4.904,0.241,7.185,0.241c3.196,0,5.575-0.243,7.484-0.763c3.862-1.051,8.242-3.928,12.88-6.975
		c4.777-3.138,10.722-7.044,14.028-7.063c3.296,0,9.273,3.831,14.074,6.909c4.671,2.994,9.082,5.821,12.955,6.829
		c1.788,0.465,3.951,0.681,6.807,0.681c2.471,0,5.209-0.165,7.856-0.325c2.674-0.161,5.44-0.328,7.942-0.328
		c3.769,0,6.376,0.394,7.751,1.173c2.856,1.615,6.112,7.916,8.727,12.978c2.539,4.913,4.937,9.554,7.783,12.348
		c2.848,2.801,7.549,5.132,12.526,7.599c5.124,2.54,11.499,5.7,13.156,8.518c1.662,2.824,1.309,9.902,1.026,15.59
		c-0.274,5.511-0.534,10.716,0.522,14.551c1.059,3.838,3.957,8.189,7.025,12.796c3.16,4.746,7.094,10.652,7.113,13.915
		C342.168,160.334,338.3,166.287,335.193,171.071z"/>
</g>
</svg>
