<?xml version="1.0" encoding="utf-8"?>
<!-- Generator: Adobe Illustrator 17.0.0, SVG Export Plug-In . SVG Version: 6.00 Build 0)  -->
<!DOCTYPE svg PUBLIC "-//W3C//DTD SVG 1.1//EN" "http://www.w3.org/Graphics/SVG/1.1/DTD/svg11.dtd">
<svg version="1.1" id="Layer_1" xmlns="http://www.w3.org/2000/svg" xmlns:xlink="http://www.w3.org/1999/xlink" x="0px" y="0px"
	 width="458px" height="313px" viewBox="0 0 458 313" enable-background="new 0 0 458 313" xml:space="preserve">
<linearGradient id="SVGID_1_" gradientUnits="userSpaceOnUse" x1="364.286" y1="61.7852" x2="506.7789" y2="-194.702" gradientTransform="matrix(1 0 0 -1 -167 163.5)">
	<stop  offset="0" style="stop-color:#2BC4F3"/>
	<stop  offset="0.5" style="stop-color:#00AEEE"/>
	<stop  offset="1" style="stop-color:#0095DA"/>
</linearGradient>
<ellipse fill="url(#SVGID_1_)" cx="228" cy="157" rx="142" ry="141"/>
<g>
	<g>
		<path fill="#FFFFFF" d="M227.531,279C159.968,279,105,224.494,105,157.5S159.968,36,227.531,36s122.531,54.506,122.531,121.5
			S295.094,279,227.531,279z M227.531,43.091c-63.62,0-115.38,51.325-115.38,114.409s51.76,114.409,115.38,114.409
			s115.38-51.325,115.38-114.409S291.151,43.091,227.531,43.091z"/>
	</g>
	<g>
		<g>
			<polygon fill="#FFFFFF" points="229.046,153.199 231.657,149.746 230.206,147.085 230.128,147.085 225.128,147.085 
				225.05,147.085 223.599,149.746 226.21,153.199 221.495,164.852 227.599,171.047 227.595,171.11 227.628,171.076 227.661,171.11 
				227.658,171.046 233.761,164.852 			"/>
			<path fill="#FFFFFF" d="M227.628,144.164c13.973,0,25.341-11.272,25.341-25.128s-11.368-25.128-25.341-25.128
				s-25.341,11.272-25.341,25.128S213.655,144.164,227.628,144.164z M227.628,98.511c11.413,0,20.699,9.207,20.699,20.525
				s-9.285,20.525-20.699,20.525c-11.413,0-20.699-9.207-20.699-20.525S216.215,98.511,227.628,98.511z"/>
			<path fill="#FFFFFF" d="M261.072,154.223c-4.172-4.335-9.897-7.456-15.706-8.562c-1.246-0.236-2.109,0.144-2.613,0.506
				c-1.234,0.885-1.416,2.279-1.608,3.754c-0.217,1.666-0.515,3.948-2.21,6.566c-0.767,1.186-1.893,2.075-2.462,2.384
				c-1.125,0.61-1.538,2.008-0.922,3.124c0.615,1.115,2.026,1.526,3.151,0.914c1.132-0.614,2.896-2.014,4.14-3.936
				c2.259-3.489,2.665-6.602,2.907-8.462c0.002-0.019,0.005-0.037,0.007-0.056c11.597,2.799,17.838,12.677,17.838,20.87
				c0,0.541-0.096,1.245-0.236,1.929h4.698c0.156-1.099,0.181-1.903,0.181-1.929C268.236,165.097,265.692,159.024,261.072,154.223z"
				/>
			<path fill="#FFFFFF" d="M218.59,158.871c-0.569-0.309-1.694-1.199-2.462-2.384c-1.695-2.618-1.993-4.9-2.21-6.566
				c-0.192-1.475-0.374-2.869-1.608-3.754c-0.504-0.362-1.367-0.742-2.613-0.506c-5.81,1.107-11.534,4.227-15.706,8.562
				c-4.62,4.8-7.164,10.874-7.164,17.102c0,0.026,0.025,0.83,0.181,1.929h4.698c-0.14-0.684-0.236-1.388-0.236-1.929
				c0-8.193,6.24-18.071,17.838-20.87c0.002,0.019,0.005,0.038,0.007,0.056c0.243,1.86,0.649,4.973,2.907,8.462
				c1.244,1.922,3.008,3.322,4.14,3.936c1.125,0.611,2.536,0.201,3.151-0.914C220.127,160.88,219.714,159.481,218.59,158.871z"/>
		</g>
		<g>
			<polygon fill="#FFFFFF" points="303.845,185.712 278.407,185.712 278.407,207.099 267.284,207.099 267.284,210.648 
				303.845,210.648 290.788,198.18 			"/>
			<polygon fill="#FFFFFF" points="176.655,185.712 151.217,185.712 164.275,198.18 151.217,210.648 187.778,210.648 
				187.778,207.099 176.655,207.099 			"/>
		</g>
		<path fill="#FFFFFF" d="M179,180v25h95v-25H179z M219.715,198.83l-5.332-3.694l-5.366,3.694l1.982-6.066l-5.4-4.033l6.733,0.034
			l1.948-5.483l2.256,6.718h6.425l-5.315,3.314L219.715,198.83z M246.845,198.83l-5.332-3.694l-5.366,3.694l1.982-6.066l-5.4-4.033
			l6.733,0.034l1.948-5.483l2.256,6.718h6.425l-5.315,3.314L246.845,198.83z"/>
	</g>
</g>
</svg>
