<?xml version="1.0" encoding="utf-8"?>
<svg xmlns="http://www.w3.org/2000/svg" xmlns:xlink="http://www.w3.org/1999/xlink" style="margin: auto; background: none; display: block; z-index: 1; position: relative; shape-rendering: auto;" width="1400" height="1400" preserveAspectRatio="xMidYMid" viewBox="0 0 1400 1400">
<g transform=""><path d="M-100 122.8C-67.39 115.08 -67.13 113.81 -36 113.81S-3.89 121.5 28 121.5S60.52 114.2 92 114.2S124.31 112.43 156 112.43S189.1 119.63 220 119.63S252.8 122.82 284 122.82S316.95 123 348 123S380.71 117.8 412 117.8S444.22 119.48 476 119.48S508.75 119.88 540 119.88S572.89 116.3 604 116.3S637.09 114.25 668 114.25S700.77 118.71 732 118.71S764.63 113.43 796 113.43S829.01 114.69 860 114.69S892.88 119.68 924 119.68S956.89 116.7 988 116.7S1020.94 116.09 1052 116.09S1084.72 114.83 1116 114.83S1149.09 119.7 1180 119.7S1212.08 113.35 1244 113.35S1276.16 120.7 1308 120.7S1340.4 113.76 1372 113.76S1404.55 121.35 1436 121.35S1468.52 118.96 1500 118.96S1532.96 117.26 1564 117.26L1500 1400 L-100 1400 Z" fill="#3db8f5" stroke-width="0">
  <animate attributeName="d" dur="12.048192771084336s" repeatCount="indefinite" values="M-100 122.8C-67.39 115.08 -67.13 113.81 -36 113.81S-3.89 121.5 28 121.5S60.52 114.2 92 114.2S124.31 112.43 156 112.43S189.1 119.63 220 119.63S252.8 122.82 284 122.82S316.95 123 348 123S380.71 117.8 412 117.8S444.22 119.48 476 119.48S508.75 119.88 540 119.88S572.89 116.3 604 116.3S637.09 114.25 668 114.25S700.77 118.71 732 118.71S764.63 113.43 796 113.43S829.01 114.69 860 114.69S892.88 119.68 924 119.68S956.89 116.7 988 116.7S1020.94 116.09 1052 116.09S1084.72 114.83 1116 114.83S1149.09 119.7 1180 119.7S1212.08 113.35 1244 113.35S1276.16 120.7 1308 120.7S1340.4 113.76 1372 113.76S1404.55 121.35 1436 121.35S1468.52 118.96 1500 118.96S1532.96 117.26 1564 117.26L1500 1400 L-100 1400 Z;M-100 118.1C-67.51 112.47 -67.02 117.78 -36 117.78S-3.67 118.59 28 118.59S60.13 115.92 92 115.92S124.2 114.27 156 114.27S189.06 117.12 220 117.12S252.18 118.6 284 118.6S316.22 122.25 348 122.25S380.98 112.29 412 112.29S444.97 115.19 476 115.19S508.89 116.21 540 116.21S572.22 117.18 604 117.18S636.81 117.14 668 117.14S700.62 116.37 732 116.37S764.04 116.46 796 116.46S828.12 116.58 860 116.58S892.67 117.79 924 117.79S957.07 118.03 988 118.03S1020.74 116.61 1052 116.61S1084.76 116.41 1116 116.41S1148.13 112.79 1180 112.79S1213.11 121.37 1244 121.37S1276.1 117.43 1308 117.43S1340.93 113.02 1372 113.02S1404.55 114.47 1436 114.47S1468.96 115.4 1500 115.4S1532.16 112.79 1564 112.79L1500 1400 L-100 1400 Z;M-100 122.8C-67.39 115.08 -67.13 113.81 -36 113.81S-3.89 121.5 28 121.5S60.52 114.2 92 114.2S124.31 112.43 156 112.43S189.1 119.63 220 119.63S252.8 122.82 284 122.82S316.95 123 348 123S380.71 117.8 412 117.8S444.22 119.48 476 119.48S508.75 119.88 540 119.88S572.89 116.3 604 116.3S637.09 114.25 668 114.25S700.77 118.71 732 118.71S764.63 113.43 796 113.43S829.01 114.69 860 114.69S892.88 119.68 924 119.68S956.89 116.7 988 116.7S1020.94 116.09 1052 116.09S1084.72 114.83 1116 114.83S1149.09 119.7 1180 119.7S1212.08 113.35 1244 113.35S1276.16 120.7 1308 120.7S1340.4 113.76 1372 113.76S1404.55 121.35 1436 121.35S1468.52 118.96 1500 118.96S1532.96 117.26 1564 117.26L1500 1400 L-100 1400 Z"></animate>
  <animateTransform attributeName="transform" type="translate" dur="12.048192771084336s" begin="0s" repeatCount="indefinite" values="0;10;0" calcMode="spline" keySplines="0.3 0 0.7 1;0.3 0 0.7 1"></animateTransform>
</path><path d="M-100 135.75C-66.07 132.83 -66.92 139.09 -34.29 139.09S-1.17 132.87 31.42 132.87S64.76 141.11 97.13 141.11S130.87 127.7 162.83 127.7S196.74 140.45 228.54 140.45S261.97 129.53 294.25 129.53S327.4 139.67 359.96 139.67S393.52 133.78 425.67 133.78S459.38 131.86 491.38 131.86S525.09 127.31 557.08 127.31S589.97 132.76 622.79 132.76S656.05 131.15 688.5 131.15S721.8 132.37 754.21 132.37S788.01 129.39 819.92 129.39S853.54 133.89 885.63 133.89S919.43 130.56 951.33 130.56S985.08 138.89 1017.04 138.89S1049.93 131.21 1082.75 131.21S1116.32 131.78 1148.46 131.78S1181.63 126.57 1214.17 126.57S1247.05 136.62 1279.88 136.62S1313.68 131.65 1345.59 131.65S1378.45 140.71 1411.29 140.71S1444.66 129.56 1477 129.56S1509.97 136.28 1542.71 136.28L1500 1400 L-100 1400 Z" fill="#48c0f3" stroke-width="0">
  <animate attributeName="d" dur="10.843373493975903s" repeatCount="indefinite" values="M-100 135.75C-66.07 132.83 -66.92 139.09 -34.29 139.09S-1.17 132.87 31.42 132.87S64.76 141.11 97.13 141.11S130.87 127.7 162.83 127.7S196.74 140.45 228.54 140.45S261.97 129.53 294.25 129.53S327.4 139.67 359.96 139.67S393.52 133.78 425.67 133.78S459.38 131.86 491.38 131.86S525.09 127.31 557.08 127.31S589.97 132.76 622.79 132.76S656.05 131.15 688.5 131.15S721.8 132.37 754.21 132.37S788.01 129.39 819.92 129.39S853.54 133.89 885.63 133.89S919.43 130.56 951.33 130.56S985.08 138.89 1017.04 138.89S1049.93 131.21 1082.75 131.21S1116.32 131.78 1148.46 131.78S1181.63 126.57 1214.17 126.57S1247.05 136.62 1279.88 136.62S1313.68 131.65 1345.59 131.65S1378.45 140.71 1411.29 140.71S1444.66 129.56 1477 129.56S1509.97 136.28 1542.71 136.28L1500 1400 L-100 1400 Z;M-100 127.84C-66.68 128.61 -66.11 136.73 -34.29 136.73S-0.95 129.33 31.42 129.33S65.2 132.75 97.13 132.75S130.73 136.63 162.83 136.63S196.29 134.97 228.54 134.97S262.07 129.18 294.25 129.18S328.15 141.28 359.96 141.28S393.61 133.6 425.67 133.6S459.08 132.85 491.38 132.85S525.09 134.86 557.08 134.86S590.57 133.09 622.79 133.09S655.66 131.06 688.5 131.06S722.02 140.72 754.21 140.72S787.68 126.15 819.92 126.15S853.02 136.87 885.63 136.87S918.96 133.47 951.33 133.47S984.9 134.41 1017.04 134.41S1051 136.24 1082.75 136.24S1115.82 137.05 1148.46 137.05S1182.24 130.45 1214.17 130.45S1247.51 133.35 1279.88 133.35S1312.86 130.58 1345.59 130.58S1379.25 136.77 1411.29 136.77S1445.16 137.11 1477 137.11S1510.2 141 1542.71 141L1500 1400 L-100 1400 Z;M-100 135.75C-66.07 132.83 -66.92 139.09 -34.29 139.09S-1.17 132.87 31.42 132.87S64.76 141.11 97.13 141.11S130.87 127.7 162.83 127.7S196.74 140.45 228.54 140.45S261.97 129.53 294.25 129.53S327.4 139.67 359.96 139.67S393.52 133.78 425.67 133.78S459.38 131.86 491.38 131.86S525.09 127.31 557.08 127.31S589.97 132.76 622.79 132.76S656.05 131.15 688.5 131.15S721.8 132.37 754.21 132.37S788.01 129.39 819.92 129.39S853.54 133.89 885.63 133.89S919.43 130.56 951.33 130.56S985.08 138.89 1017.04 138.89S1049.93 131.21 1082.75 131.21S1116.32 131.78 1148.46 131.78S1181.63 126.57 1214.17 126.57S1247.05 136.62 1279.88 136.62S1313.68 131.65 1345.59 131.65S1378.45 140.71 1411.29 140.71S1444.66 129.56 1477 129.56S1509.97 136.28 1542.71 136.28L1500 1400 L-100 1400 Z"></animate>
  <animateTransform attributeName="transform" type="translate" dur="10.843373493975903s" begin="-1.0843373493975903s" repeatCount="indefinite" values="0;10;0" calcMode="spline" keySplines="0.3 0 0.7 1;0.3 0 0.7 1"></animateTransform>
</path><path d="M-100 142.86C-66.08 143.26 -65.68 156.41 -32.49 156.41S1.82 140.1 35.02 140.1S69.67 157.01 102.53 157.01S137.35 148.62 170.04 148.62S204.19 157.12 237.55 157.12S272.34 145.28 305.06 145.28S339.01 151.65 372.57 151.65S406.65 157.46 440.08 157.46S473.95 153.16 507.59 153.16S542 147.68 575.11 147.68S609.75 155.76 642.62 155.76S676.64 141.64 710.13 141.64S744.35 154.96 777.64 154.96S811.98 157.95 845.15 157.95S879.3 150.15 912.66 150.15S946.55 150.07 980.17 150.07S1014.15 150.35 1047.68 150.35S1082.38 144.82 1115.19 144.82S1149.91 153.42 1182.7 153.42S1217.13 150.22 1250.21 150.22S1284.15 149.91 1317.72 149.91S1352.16 150.65 1385.23 150.65S1419.71 154.81 1452.74 154.81S1487.47 141.75 1520.25 141.75L1500 1400 L-100 1400 Z" fill="#55c8f2" stroke-width="0">
  <animate attributeName="d" dur="9.638554216867469s" repeatCount="indefinite" values="M-100 142.86C-66.08 143.26 -65.68 156.41 -32.49 156.41S1.82 140.1 35.02 140.1S69.67 157.01 102.53 157.01S137.35 148.62 170.04 148.62S204.19 157.12 237.55 157.12S272.34 145.28 305.06 145.28S339.01 151.65 372.57 151.65S406.65 157.46 440.08 157.46S473.95 153.16 507.59 153.16S542 147.68 575.11 147.68S609.75 155.76 642.62 155.76S676.64 141.64 710.13 141.64S744.35 154.96 777.64 154.96S811.98 157.95 845.15 157.95S879.3 150.15 912.66 150.15S946.55 150.07 980.17 150.07S1014.15 150.35 1047.68 150.35S1082.38 144.82 1115.19 144.82S1149.91 153.42 1182.7 153.42S1217.13 150.22 1250.21 150.22S1284.15 149.91 1317.72 149.91S1352.16 150.65 1385.23 150.65S1419.71 154.81 1452.74 154.81S1487.47 141.75 1520.25 141.75L1500 1400 L-100 1400 Z;M-100 140.83C-65.33 149.34 -65.72 156.51 -32.49 156.51S1.78 145.42 35.02 145.42S69.71 144.09 102.53 144.09S137.07 149.15 170.04 149.15S204.48 153.21 237.55 153.21S272.31 148.91 305.06 148.91S339.47 154.79 372.57 154.79S407.39 140.14 440.08 140.14S474.17 151.12 507.59 151.12S541.49 145.21 575.11 145.21S609.52 154.6 642.62 154.6S677.33 141.31 710.13 141.31S744.16 151.89 777.64 151.89S812.05 150.89 845.15 150.89S879.71 150.48 912.66 150.48S946.73 148.64 980.17 148.64S1014.24 156.06 1047.68 156.06S1082.28 151.13 1115.19 151.13S1150.04 158.79 1182.7 158.79S1217.2 146.5 1250.21 146.5S1284.2 157.73 1317.72 157.73S1352.08 150.41 1385.23 150.41S1419.3 149.37 1452.74 149.37S1487.33 143.2 1520.25 143.2L1500 1400 L-100 1400 Z;M-100 142.86C-66.08 143.26 -65.68 156.41 -32.49 156.41S1.82 140.1 35.02 140.1S69.67 157.01 102.53 157.01S137.35 148.62 170.04 148.62S204.19 157.12 237.55 157.12S272.34 145.28 305.06 145.28S339.01 151.65 372.57 151.65S406.65 157.46 440.08 157.46S473.95 153.16 507.59 153.16S542 147.68 575.11 147.68S609.75 155.76 642.62 155.76S676.64 141.64 710.13 141.64S744.35 154.96 777.64 154.96S811.98 157.95 845.15 157.95S879.3 150.15 912.66 150.15S946.55 150.07 980.17 150.07S1014.15 150.35 1047.68 150.35S1082.38 144.82 1115.19 144.82S1149.91 153.42 1182.7 153.42S1217.13 150.22 1250.21 150.22S1284.15 149.91 1317.72 149.91S1352.16 150.65 1385.23 150.65S1419.71 154.81 1452.74 154.81S1487.47 141.75 1520.25 141.75L1500 1400 L-100 1400 Z"></animate>
  <animateTransform attributeName="transform" type="translate" dur="9.638554216867469s" begin="-1.9277108433734937s" repeatCount="indefinite" values="0;10;0" calcMode="spline" keySplines="0.3 0 0.7 1;0.3 0 0.7 1"></animateTransform>
</path><path d="M-100 158.51C-64.65 160.79 -64.2 170.97 -30.59 170.97S5.19 157.32 38.83 157.32S74.16 159.74 108.24 159.74S143.07 161.88 177.66 161.88S212.39 161.96 247.07 161.96S282.33 164.44 316.49 164.44S351.66 171.31 385.9 171.31S421.05 157.64 455.31 157.64S491.1 178.12 524.73 178.12S560.08 165.18 594.14 165.18S629.05 170.13 663.56 170.13S698.45 160.26 732.97 160.26S768.14 160.44 802.39 160.44S837.8 164.5 871.8 164.5S906.88 172.57 941.21 172.57S976.08 154.46 1010.63 154.46S1046.01 174.84 1080.04 174.84S1115.67 161.75 1149.46 161.75S1184.8 168.58 1218.87 168.58S1253.81 155.28 1288.29 155.28S1323.03 176.32 1357.7 176.32S1393.5 161.08 1427.11 161.08S1462.01 175.54 1496.53 175.54S1532.01 161.91 1565.94 161.91L1500 1400 L-100 1400 Z" fill="#64d0f0" stroke-width="0">
  <animate attributeName="d" dur="8.433734939759036s" repeatCount="indefinite" values="M-100 158.51C-64.65 160.79 -64.2 170.97 -30.59 170.97S5.19 157.32 38.83 157.32S74.16 159.74 108.24 159.74S143.07 161.88 177.66 161.88S212.39 161.96 247.07 161.96S282.33 164.44 316.49 164.44S351.66 171.31 385.9 171.31S421.05 157.64 455.31 157.64S491.1 178.12 524.73 178.12S560.08 165.18 594.14 165.18S629.05 170.13 663.56 170.13S698.45 160.26 732.97 160.26S768.14 160.44 802.39 160.44S837.8 164.5 871.8 164.5S906.88 172.57 941.21 172.57S976.08 154.46 1010.63 154.46S1046.01 174.84 1080.04 174.84S1115.67 161.75 1149.46 161.75S1184.8 168.58 1218.87 168.58S1253.81 155.28 1288.29 155.28S1323.03 176.32 1357.7 176.32S1393.5 161.08 1427.11 161.08S1462.01 175.54 1496.53 175.54S1532.01 161.91 1565.94 161.91L1500 1400 L-100 1400 Z;M-100 159C-65.22 155.67 -64.36 172.4 -30.59 172.4S4.15 157.71 38.83 157.71S74.12 170.21 108.24 170.21S143.64 157.53 177.66 157.53S213.1 174.57 247.07 174.57S282.31 159.46 316.49 159.46S351.37 176.91 385.9 176.91S420.96 164.66 455.31 164.66S490.44 177.75 524.73 177.75S559.73 161.11 594.14 161.11S628.89 175.65 663.56 175.65S699.03 165.17 732.97 165.17S767.75 167.24 802.39 167.24S837.54 156.52 871.8 156.52S906.71 177.87 941.21 177.87S976.23 162.27 1010.63 162.27S1045.48 170.1 1080.04 170.1S1115.72 162.26 1149.46 162.26S1185.23 167.05 1218.87 167.05S1254.18 162.53 1288.29 162.53S1323.44 172.25 1357.7 172.25S1393.5 159.84 1427.11 159.84S1462.69 171.02 1496.53 171.02S1531.41 158.55 1565.94 158.55L1500 1400 L-100 1400 Z;M-100 158.51C-64.65 160.79 -64.2 170.97 -30.59 170.97S5.19 157.32 38.83 157.32S74.16 159.74 108.24 159.74S143.07 161.88 177.66 161.88S212.39 161.96 247.07 161.96S282.33 164.44 316.49 164.44S351.66 171.31 385.9 171.31S421.05 157.64 455.31 157.64S491.1 178.12 524.73 178.12S560.08 165.18 594.14 165.18S629.05 170.13 663.56 170.13S698.45 160.26 732.97 160.26S768.14 160.44 802.39 160.44S837.8 164.5 871.8 164.5S906.88 172.57 941.21 172.57S976.08 154.46 1010.63 154.46S1046.01 174.84 1080.04 174.84S1115.67 161.75 1149.46 161.75S1184.8 168.58 1218.87 168.58S1253.81 155.28 1288.29 155.28S1323.03 176.32 1357.7 176.32S1393.5 161.08 1427.11 161.08S1462.01 175.54 1496.53 175.54S1532.01 161.91 1565.94 161.91L1500 1400 L-100 1400 Z"></animate>
  <animateTransform attributeName="transform" type="translate" dur="8.433734939759036s" begin="-2.530120481927711s" repeatCount="indefinite" values="0;10;0" calcMode="spline" keySplines="0.3 0 0.7 1;0.3 0 0.7 1"></animateTransform>
</path><path d="M-100 174.41C-63.56 169.37 -63.2 188.39 -28.57 188.39S8.04 174.99 42.86 174.99S79.2 191.84 114.29 191.84S150.21 178.21 185.71 178.21S221.72 192.58 257.14 192.58S293.73 176.74 328.57 176.74S365.02 191.33 400 191.33S436.27 173.32 471.43 173.32S507.45 191.48 542.86 191.48S579.04 169.65 614.29 169.65S650.38 196.08 685.71 196.08S722.33 168.94 757.14 168.94S793.53 187.06 828.57 187.06S865.33 172.64 900 172.64S935.91 196.16 971.43 196.16S1008.02 177.84 1042.86 177.84S1078.79 195.87 1114.29 195.87S1150.66 171.22 1185.71 171.22S1221.88 194.61 1257.14 194.61S1293.51 171.13 1328.57 171.13S1364.54 190.33 1400 190.33S1436.59 178.46 1471.43 178.46S1507.76 193.58 1542.86 193.58L1500 1400 L-100 1400 Z" fill="#74d8ee" stroke-width="0">
  <animate attributeName="d" dur="7.228915662650602s" repeatCount="indefinite" values="M-100 174.41C-63.56 169.37 -63.2 188.39 -28.57 188.39S8.04 174.99 42.86 174.99S79.2 191.84 114.29 191.84S150.21 178.21 185.71 178.21S221.72 192.58 257.14 192.58S293.73 176.74 328.57 176.74S365.02 191.33 400 191.33S436.27 173.32 471.43 173.32S507.45 191.48 542.86 191.48S579.04 169.65 614.29 169.65S650.38 196.08 685.71 196.08S722.33 168.94 757.14 168.94S793.53 187.06 828.57 187.06S865.33 172.64 900 172.64S935.91 196.16 971.43 196.16S1008.02 177.84 1042.86 177.84S1078.79 195.87 1114.29 195.87S1150.66 171.22 1185.71 171.22S1221.88 194.61 1257.14 194.61S1293.51 171.13 1328.57 171.13S1364.54 190.33 1400 190.33S1436.59 178.46 1471.43 178.46S1507.76 193.58 1542.86 193.58L1500 1400 L-100 1400 Z;M-100 175.47C-63.25 170.23 -63.45 193.61 -28.57 193.61S7.88 173.39 42.86 173.39S79.23 191.16 114.29 191.16S150.12 173.06 185.71 173.06S222.24 186.57 257.14 186.57S292.9 177.49 328.57 177.49S365.08 189.67 400 189.67S436.11 195.9 471.43 195.9S508.11 187.51 542.86 187.51S578.78 169.72 614.29 169.72S650.96 187.79 685.71 187.79S722.22 169.74 757.14 169.74S793.77 186 828.57 186S864.6 175.94 900 175.94S935.98 185.83 971.43 185.83S1007.76 174.53 1042.86 174.53S1079.67 186.6 1114.29 186.6S1150.3 168.23 1185.71 168.23S1221.84 185.88 1257.14 185.88S1293.4 172.8 1328.57 172.8S1365.27 187.94 1400 187.94S1436.11 178.52 1471.43 178.52S1507.29 191.97 1542.86 191.97L1500 1400 L-100 1400 Z;M-100 174.41C-63.56 169.37 -63.2 188.39 -28.57 188.39S8.04 174.99 42.86 174.99S79.2 191.84 114.29 191.84S150.21 178.21 185.71 178.21S221.72 192.58 257.14 192.58S293.73 176.74 328.57 176.74S365.02 191.33 400 191.33S436.27 173.32 471.43 173.32S507.45 191.48 542.86 191.48S579.04 169.65 614.29 169.65S650.38 196.08 685.71 196.08S722.33 168.94 757.14 168.94S793.53 187.06 828.57 187.06S865.33 172.64 900 172.64S935.91 196.16 971.43 196.16S1008.02 177.84 1042.86 177.84S1078.79 195.87 1114.29 195.87S1150.66 171.22 1185.71 171.22S1221.88 194.61 1257.14 194.61S1293.51 171.13 1328.57 171.13S1364.54 190.33 1400 190.33S1436.59 178.46 1471.43 178.46S1507.76 193.58 1542.86 193.58L1500 1400 L-100 1400 Z"></animate>
  <animateTransform attributeName="transform" type="translate" dur="7.228915662650602s" begin="-2.8915662650602405s" repeatCount="indefinite" values="0;10;0" calcMode="spline" keySplines="0.3 0 0.7 1;0.3 0 0.7 1"></animateTransform>
</path><path d="M-100 207.14C-62.56 205.99 -62.41 206.83 -26.44 206.83S10.93 190.11 47.13 190.11S84.03 214.44 120.69 214.44S157.72 184.98 194.25 184.98S231.94 212.39 267.82 212.39S304.92 185.06 341.38 185.06S378.41 214 414.94 214S452.14 190.45 488.51 190.45S526.22 207 562.07 207S599.49 208.86 635.63 208.86S672.59 206.48 709.2 206.48S746.86 190.88 782.76 190.88S819.77 204.06 856.32 204.06S893.83 183.17 929.89 183.17S967.07 204.3 1003.45 204.3S1041.11 204.22 1077.01 204.22S1114.38 205.54 1150.57 205.54S1188.29 188.86 1224.14 188.86S1261.9 205.74 1297.7 205.74S1335.26 203.82 1371.26 203.82S1408.07 205.9 1444.83 205.9S1482.2 188.85 1518.39 188.85L1500 1400 L-100 1400 Z" fill="#84dfed" stroke-width="0">
  <animate attributeName="d" dur="6.024096385542168s" repeatCount="indefinite" values="M-100 207.14C-62.56 205.99 -62.41 206.83 -26.44 206.83S10.93 190.11 47.13 190.11S84.03 214.44 120.69 214.44S157.72 184.98 194.25 184.98S231.94 212.39 267.82 212.39S304.92 185.06 341.38 185.06S378.41 214 414.94 214S452.14 190.45 488.51 190.45S526.22 207 562.07 207S599.49 208.86 635.63 208.86S672.59 206.48 709.2 206.48S746.86 190.88 782.76 190.88S819.77 204.06 856.32 204.06S893.83 183.17 929.89 183.17S967.07 204.3 1003.45 204.3S1041.11 204.22 1077.01 204.22S1114.38 205.54 1150.57 205.54S1188.29 188.86 1224.14 188.86S1261.9 205.74 1297.7 205.74S1335.26 203.82 1371.26 203.82S1408.07 205.9 1444.83 205.9S1482.2 188.85 1518.39 188.85L1500 1400 L-100 1400 Z;M-100 185.36C-62.27 192.49 -63.22 213.65 -26.44 213.65S11.24 191.46 47.13 191.46S84.01 211.38 120.69 211.38S157.67 189.88 194.25 189.88S231.85 212.81 267.82 212.81S304.7 192.43 341.38 192.43S378.79 214.7 414.94 214.7S452.64 183.36 488.51 183.36S526.22 214.84 562.07 214.84S599.56 185.94 635.63 185.94S672.77 206.42 709.2 206.42S746.66 190.14 782.76 190.14S820.49 213.85 856.32 213.85S893.15 193.19 929.89 193.19S966.8 207.18 1003.45 207.18S1040.59 183.03 1077.01 183.03S1114.7 210.81 1150.57 210.81S1187.38 182.23 1224.14 182.23S1261.56 213.14 1297.7 213.14S1335.05 191.41 1371.26 191.41S1409.02 204.01 1444.83 204.01S1481.75 185.54 1518.39 185.54L1500 1400 L-100 1400 Z;M-100 207.14C-62.56 205.99 -62.41 206.83 -26.44 206.83S10.93 190.11 47.13 190.11S84.03 214.44 120.69 214.44S157.72 184.98 194.25 184.98S231.94 212.39 267.82 212.39S304.92 185.06 341.38 185.06S378.41 214 414.94 214S452.14 190.45 488.51 190.45S526.22 207 562.07 207S599.49 208.86 635.63 208.86S672.59 206.48 709.2 206.48S746.86 190.88 782.76 190.88S819.77 204.06 856.32 204.06S893.83 183.17 929.89 183.17S967.07 204.3 1003.45 204.3S1041.11 204.22 1077.01 204.22S1114.38 205.54 1150.57 205.54S1188.29 188.86 1224.14 188.86S1261.9 205.74 1297.7 205.74S1335.26 203.82 1371.26 203.82S1408.07 205.9 1444.83 205.9S1482.2 188.85 1518.39 188.85L1500 1400 L-100 1400 Z"></animate>
  <animateTransform attributeName="transform" type="translate" dur="6.024096385542168s" begin="-3.012048192771084s" repeatCount="indefinite" values="0;10;0" calcMode="spline" keySplines="0.3 0 0.7 1;0.3 0 0.7 1"></animateTransform>
</path><path d="M-100 205.04C-61.32 203.6 -61.79 226.54 -24.17 226.54S14.8 201.69 51.66 201.69S90.3 230.48 127.49 230.48S166.14 206.28 203.32 206.28S241.36 232.48 279.15 232.48S317.5 197.13 354.98 197.13S393.17 205.52 430.81 205.52S469.73 200.35 506.64 200.35S544.69 232.41 582.46 232.41S621.21 206.15 658.29 206.15S696.79 229.37 734.12 229.37S773.15 200.75 809.95 200.75S848.01 228.22 885.78 228.22S924.57 202.7 961.61 202.7S999.88 226.18 1037.44 226.18S1075.41 231.24 1113.27 231.24S1151.89 231.2 1189.1 231.2S1227.7 206.38 1264.93 206.38S1303.2 230.66 1340.76 230.66S1379.77 205.76 1416.59 205.76S1455.13 223.97 1492.42 223.97S1530.51 197.45 1568.25 197.45L1500 1400 L-100 1400 Z" fill="#94e6ed" stroke-width="0">
  <animate attributeName="d" dur="4.8192771084337345s" repeatCount="indefinite" values="M-100 205.04C-61.32 203.6 -61.79 226.54 -24.17 226.54S14.8 201.69 51.66 201.69S90.3 230.48 127.49 230.48S166.14 206.28 203.32 206.28S241.36 232.48 279.15 232.48S317.5 197.13 354.98 197.13S393.17 205.52 430.81 205.52S469.73 200.35 506.64 200.35S544.69 232.41 582.46 232.41S621.21 206.15 658.29 206.15S696.79 229.37 734.12 229.37S773.15 200.75 809.95 200.75S848.01 228.22 885.78 228.22S924.57 202.7 961.61 202.7S999.88 226.18 1037.44 226.18S1075.41 231.24 1113.27 231.24S1151.89 231.2 1189.1 231.2S1227.7 206.38 1264.93 206.38S1303.2 230.66 1340.76 230.66S1379.77 205.76 1416.59 205.76S1455.13 223.97 1492.42 223.97S1530.51 197.45 1568.25 197.45L1500 1400 L-100 1400 Z;M-100 205.86C-61.81 200.46 -62.04 226.36 -24.17 226.36S13.95 202.41 51.66 202.41S90.5 230.46 127.49 230.46S165.72 196.92 203.32 196.92S242.25 229.03 279.15 229.03S318.01 204.84 354.98 204.84S393.67 232.98 430.81 232.98S468.73 198.44 506.64 198.44S544.98 225.32 582.46 225.32S620.68 198.85 658.29 198.85S696.78 230.65 734.12 230.65S772.09 199.95 809.95 199.95S848.31 224.66 885.78 224.66S923.83 196.72 961.61 196.72S1000.03 226.43 1037.44 226.43S1076.09 202.52 1113.27 202.52S1152.24 222.49 1189.1 222.49S1227.24 202.29 1264.93 202.29S1303.17 223.3 1340.76 223.3S1378.89 204.77 1416.59 204.77S1454.98 228.22 1492.42 228.22S1530.64 231.48 1568.25 231.48L1500 1400 L-100 1400 Z;M-100 205.04C-61.32 203.6 -61.79 226.54 -24.17 226.54S14.8 201.69 51.66 201.69S90.3 230.48 127.49 230.48S166.14 206.28 203.32 206.28S241.36 232.48 279.15 232.48S317.5 197.13 354.98 197.13S393.17 205.52 430.81 205.52S469.73 200.35 506.64 200.35S544.69 232.41 582.46 232.41S621.21 206.15 658.29 206.15S696.79 229.37 734.12 229.37S773.15 200.75 809.95 200.75S848.01 228.22 885.78 228.22S924.57 202.7 961.61 202.7S999.88 226.18 1037.44 226.18S1075.41 231.24 1113.27 231.24S1151.89 231.2 1189.1 231.2S1227.7 206.38 1264.93 206.38S1303.2 230.66 1340.76 230.66S1379.77 205.76 1416.59 205.76S1455.13 223.97 1492.42 223.97S1530.51 197.45 1568.25 197.45L1500 1400 L-100 1400 Z"></animate>
  <animateTransform attributeName="transform" type="translate" dur="4.8192771084337345s" begin="-2.8915662650602405s" repeatCount="indefinite" values="0;10;0" calcMode="spline" keySplines="0.3 0 0.7 1;0.3 0 0.7 1"></animateTransform>
</path><path d="M-100 211.63C-59.86 213.98 -60.09 240.53 -21.76 240.53S17.96 247.66 56.48 247.66S96.25 246.08 134.72 246.08S174.56 213.05 212.96 213.05S253.07 245.87 291.2 245.87S331.38 214.12 369.44 214.12S409.49 244.92 447.68 244.92S487.31 214.28 525.92 214.28S565.05 247.16 604.16 247.16S644.39 212.45 682.4 212.45S722.06 244.92 760.64 244.92S799.98 217.95 838.88 217.95S878.63 241.36 917.11 241.36S957.28 220.95 995.35 220.95S1035.04 240.88 1073.59 240.88S1113.05 212.77 1151.83 212.77S1192.04 247.86 1230.07 247.86S1269.56 243.88 1308.31 243.88S1347.96 247.9 1386.55 247.9S1426.25 213.11 1464.79 213.11S1504.75 246.61 1543.03 246.61L1500 1400 L-100 1400 Z" fill="#a4eced" stroke-width="0">
  <animate attributeName="d" dur="3.614457831325301s" repeatCount="indefinite" values="M-100 211.63C-59.86 213.98 -60.09 240.53 -21.76 240.53S17.96 247.66 56.48 247.66S96.25 246.08 134.72 246.08S174.56 213.05 212.96 213.05S253.07 245.87 291.2 245.87S331.38 214.12 369.44 214.12S409.49 244.92 447.68 244.92S487.31 214.28 525.92 214.28S565.05 247.16 604.16 247.16S644.39 212.45 682.4 212.45S722.06 244.92 760.64 244.92S799.98 217.95 838.88 217.95S878.63 241.36 917.11 241.36S957.28 220.95 995.35 220.95S1035.04 240.88 1073.59 240.88S1113.05 212.77 1151.83 212.77S1192.04 247.86 1230.07 247.86S1269.56 243.88 1308.31 243.88S1347.96 247.9 1386.55 247.9S1426.25 213.11 1464.79 213.11S1504.75 246.61 1543.03 246.61L1500 1400 L-100 1400 Z;M-100 215.22C-59.88 219.98 -59.97 242.56 -21.76 242.56S17.89 211.94 56.48 211.94S95.7 249.61 134.72 249.61S174.37 211.54 212.96 211.54S252.77 249.01 291.2 249.01S331.29 220.75 369.44 220.75S409.55 244.85 447.68 244.85S487.86 211.46 525.92 211.46S565.28 246.41 604.16 246.41S644.15 220.32 682.4 220.32S722.57 217.37 760.64 217.37S800.73 219.44 838.88 219.44S878.57 249.09 917.11 249.09S957.18 221.11 995.35 221.11S1034.72 245.19 1073.59 245.19S1113.22 217.44 1151.83 217.44S1191.89 244.76 1230.07 244.76S1269.33 217.39 1308.31 217.39S1348.36 241.84 1386.55 241.84S1426.59 217.23 1464.79 217.23S1504.15 245.17 1543.03 245.17L1500 1400 L-100 1400 Z;M-100 211.63C-59.86 213.98 -60.09 240.53 -21.76 240.53S17.96 247.66 56.48 247.66S96.25 246.08 134.72 246.08S174.56 213.05 212.96 213.05S253.07 245.87 291.2 245.87S331.38 214.12 369.44 214.12S409.49 244.92 447.68 244.92S487.31 214.28 525.92 214.28S565.05 247.16 604.16 247.16S644.39 212.45 682.4 212.45S722.06 244.92 760.64 244.92S799.98 217.95 838.88 217.95S878.63 241.36 917.11 241.36S957.28 220.95 995.35 220.95S1035.04 240.88 1073.59 240.88S1113.05 212.77 1151.83 212.77S1192.04 247.86 1230.07 247.86S1269.56 243.88 1308.31 243.88S1347.96 247.9 1386.55 247.9S1426.25 213.11 1464.79 213.11S1504.75 246.61 1543.03 246.61L1500 1400 L-100 1400 Z"></animate>
  <animateTransform attributeName="transform" type="translate" dur="3.614457831325301s" begin="-2.5301204819277108s" repeatCount="indefinite" values="0;10;0" calcMode="spline" keySplines="0.3 0 0.7 1;0.3 0 0.7 1"></animateTransform>
</path><path d="M-100 232.06C-59.42 231.6 -59.11 265.49 -19.19 265.49S22.22 225.03 61.62 225.03S102.53 265.89 142.42 265.89S183 234.44 223.23 234.44S264.13 227.06 304.04 227.06S345.31 225.81 384.85 225.81S425.27 229.55 465.66 229.55S507.09 233.29 546.46 233.29S587.58 260.1 627.27 260.1S667.87 224.15 708.08 224.15S749.01 262.53 788.89 262.53S830.4 227.96 869.7 227.96S911.13 266.46 950.51 266.46S991.83 230.59 1031.31 230.59S1072 260.37 1112.12 260.37S1153.13 231.54 1192.93 231.54S1233.88 230.21 1273.74 230.21S1314.78 224.05 1354.55 224.05S1396.05 269.4 1435.35 269.4S1476.02 224.77 1516.16 224.77L1500 1400 L-100 1400 Z" fill="#b5f3ef" stroke-width="0">
  <animate attributeName="d" dur="2.4096385542168672s" repeatCount="indefinite" values="M-100 232.06C-59.42 231.6 -59.11 265.49 -19.19 265.49S22.22 225.03 61.62 225.03S102.53 265.89 142.42 265.89S183 234.44 223.23 234.44S264.13 227.06 304.04 227.06S345.31 225.81 384.85 225.81S425.27 229.55 465.66 229.55S507.09 233.29 546.46 233.29S587.58 260.1 627.27 260.1S667.87 224.15 708.08 224.15S749.01 262.53 788.89 262.53S830.4 227.96 869.7 227.96S911.13 266.46 950.51 266.46S991.83 230.59 1031.31 230.59S1072 260.37 1112.12 260.37S1153.13 231.54 1192.93 231.54S1233.88 230.21 1273.74 230.21S1314.78 224.05 1354.55 224.05S1396.05 269.4 1435.35 269.4S1476.02 224.77 1516.16 224.77L1500 1400 L-100 1400 Z;M-100 224.87C-59.31 229.1 -59.52 261.61 -19.19 261.61S22.24 232.35 61.62 232.35S102.46 226.38 142.42 226.38S182.89 233.87 223.23 233.87S264.04 268.66 304.04 268.66S345.46 233.76 384.85 233.76S426.3 261.61 465.66 261.61S507.04 230.79 546.46 230.79S587.13 268.29 627.27 268.29S668.79 228.41 708.08 228.41S749.41 260.21 788.89 260.21S829.37 226.54 869.7 226.54S910.49 260.18 950.51 260.18S991.71 227.67 1031.31 227.67S1072.43 261.96 1112.12 261.96S1153.19 224.66 1192.93 224.66S1234.44 260.62 1273.74 260.62S1314.23 224.96 1354.55 224.96S1395.69 268.53 1435.35 268.53S1475.89 230.15 1516.16 230.15L1500 1400 L-100 1400 Z;M-100 232.06C-59.42 231.6 -59.11 265.49 -19.19 265.49S22.22 225.03 61.62 225.03S102.53 265.89 142.42 265.89S183 234.44 223.23 234.44S264.13 227.06 304.04 227.06S345.31 225.81 384.85 225.81S425.27 229.55 465.66 229.55S507.09 233.29 546.46 233.29S587.58 260.1 627.27 260.1S667.87 224.15 708.08 224.15S749.01 262.53 788.89 262.53S830.4 227.96 869.7 227.96S911.13 266.46 950.51 266.46S991.83 230.59 1031.31 230.59S1072 260.37 1112.12 260.37S1153.13 231.54 1192.93 231.54S1233.88 230.21 1273.74 230.21S1314.78 224.05 1354.55 224.05S1396.05 269.4 1435.35 269.4S1476.02 224.77 1516.16 224.77L1500 1400 L-100 1400 Z"></animate>
  <animateTransform attributeName="transform" type="translate" dur="2.4096385542168672s" begin="-1.9277108433734937s" repeatCount="indefinite" values="0;10;0" calcMode="spline" keySplines="0.3 0 0.7 1;0.3 0 0.7 1"></animateTransform>
</path><path d="M-100 246.27C-57.64 245.81 -57.12 278.07 -16.45 278.07S25.66 238.86 67.1 238.86S109 288.22 150.65 288.22S192.68 238.42 234.2 238.42S276 280.06 317.75 280.06S359.69 239.82 401.31 239.82S444.1 277.86 484.86 277.86S527.48 248.37 568.41 248.37S610.54 277.14 651.96 277.14S694.71 246.48 735.51 246.48S778.01 284.52 819.06 284.52S861.03 246.88 902.61 246.88S945.1 280.03 986.16 280.03S1029 246.87 1069.71 246.87S1111.51 283.17 1153.26 283.17S1195.25 247.38 1236.81 247.38S1279.14 285.78 1320.37 285.78S1362.68 244.99 1403.92 244.99S1446.68 280.24 1487.47 280.24S1529.77 246.78 1571.02 246.78L1500 1400 L-100 1400 Z" fill="#c5f9f1" stroke-width="0">
  <animate attributeName="d" dur="1.2048192771084336s" repeatCount="indefinite" values="M-100 246.27C-57.64 245.81 -57.12 278.07 -16.45 278.07S25.66 238.86 67.1 238.86S109 288.22 150.65 288.22S192.68 238.42 234.2 238.42S276 280.06 317.75 280.06S359.69 239.82 401.31 239.82S444.1 277.86 484.86 277.86S527.48 248.37 568.41 248.37S610.54 277.14 651.96 277.14S694.71 246.48 735.51 246.48S778.01 284.52 819.06 284.52S861.03 246.88 902.61 246.88S945.1 280.03 986.16 280.03S1029 246.87 1069.71 246.87S1111.51 283.17 1153.26 283.17S1195.25 247.38 1236.81 247.38S1279.14 285.78 1320.37 285.78S1362.68 244.99 1403.92 244.99S1446.68 280.24 1487.47 280.24S1529.77 246.78 1571.02 246.78L1500 1400 L-100 1400 Z;M-100 248.36C-57.67 239.1 -57.12 279.62 -16.45 279.62S26.41 242.14 67.1 242.14S108.91 279.42 150.65 279.42S192.91 248.81 234.2 248.81S276.52 279.32 317.75 279.32S359.8 242.89 401.31 242.89S443.52 285.54 484.86 285.54S526.78 241.33 568.41 241.33S610.46 283.36 651.96 283.36S694.1 243.97 735.51 243.97S778.33 287.52 819.06 287.52S861.31 249.07 902.61 249.07S944.65 279.77 986.16 279.77S1028.53 246.47 1069.71 246.47S1111.95 281.86 1153.26 281.86S1195.08 248.15 1236.81 248.15S1279.13 279.99 1320.37 279.99S1362.94 248.69 1403.92 248.69S1446.37 283.34 1487.47 283.34S1530.33 242.21 1571.02 242.21L1500 1400 L-100 1400 Z;M-100 246.27C-57.64 245.81 -57.12 278.07 -16.45 278.07S25.66 238.86 67.1 238.86S109 288.22 150.65 288.22S192.68 238.42 234.2 238.42S276 280.06 317.75 280.06S359.69 239.82 401.31 239.82S444.1 277.86 484.86 277.86S527.48 248.37 568.41 248.37S610.54 277.14 651.96 277.14S694.71 246.48 735.51 246.48S778.01 284.52 819.06 284.52S861.03 246.88 902.61 246.88S945.1 280.03 986.16 280.03S1029 246.87 1069.71 246.87S1111.51 283.17 1153.26 283.17S1195.25 247.38 1236.81 247.38S1279.14 285.78 1320.37 285.78S1362.68 244.99 1403.92 244.99S1446.68 280.24 1487.47 280.24S1529.77 246.78 1571.02 246.78L1500 1400 L-100 1400 Z"></animate>
  <animateTransform attributeName="transform" type="translate" dur="1.2048192771084336s" begin="-1.0843373493975903s" repeatCount="indefinite" values="0;10;0" calcMode="spline" keySplines="0.3 0 0.7 1;0.3 0 0.7 1"></animateTransform>
</path></g>
</svg>