<?xml version="1.0" encoding="utf-8"?>
<svg xmlns="http://www.w3.org/2000/svg" xmlns:xlink="http://www.w3.org/1999/xlink" style="margin: auto; background: none; display: block; z-index: 1; position: relative; shape-rendering: auto;" width="800" height="1400" preserveAspectRatio="xMidYMid" viewBox="0 0 800 1400">
<g transform=""><path d="M-100 117.53C-79.29 113.85 -79.44 114.22 -60 114.22S-39.3 112.03 -20 112.03S0.47 121.95 20 121.95S40.85 122.75 60 122.75S80.43 117.77 100 117.77S120.89 120.32 140 120.32S161.09 116.36 180 116.36S200.68 120.93 220 120.93S240.1 113.96 260 113.96S280.14 117.97 300 117.97S321.11 112.83 340 112.83S360.73 114.8 380 114.8S400.49 114.39 420 114.39S440.6 116.98 460 116.98S480.92 114.41 500 114.41S520.26 118.31 540 118.31S560.29 121.45 580 121.45S600.39 113.42 620 113.42S640.9 122.17 660 122.17S680.5 121.36 700 121.36S720.09 115.96 740 115.96S760.12 122.68 780 122.68S800.34 114.36 820 114.36S840.42 116.73 860 116.73S880.71 114.75 900 114.75S920.36 114.29 940 114.29L900 1400 L-100 1400 Z" fill="#3db8f5" stroke-width="0">
  <animate attributeName="d" dur="12.048192771084336s" repeatCount="indefinite" values="M-100 117.53C-79.29 113.85 -79.44 114.22 -60 114.22S-39.3 112.03 -20 112.03S0.47 121.95 20 121.95S40.85 122.75 60 122.75S80.43 117.77 100 117.77S120.89 120.32 140 120.32S161.09 116.36 180 116.36S200.68 120.93 220 120.93S240.1 113.96 260 113.96S280.14 117.97 300 117.97S321.11 112.83 340 112.83S360.73 114.8 380 114.8S400.49 114.39 420 114.39S440.6 116.98 460 116.98S480.92 114.41 500 114.41S520.26 118.31 540 118.31S560.29 121.45 580 121.45S600.39 113.42 620 113.42S640.9 122.17 660 122.17S680.5 121.36 700 121.36S720.09 115.96 740 115.96S760.12 122.68 780 122.68S800.34 114.36 820 114.36S840.42 116.73 860 116.73S880.71 114.75 900 114.75S920.36 114.29 940 114.29L900 1400 L-100 1400 Z;M-100 112.73C-79.32 113.23 -79.33 120.87 -60 120.87S-38.93 120.82 -20 120.82S0.98 121.81 20 121.81S41.02 112.28 60 112.28S80.72 118.82 100 118.82S120.06 122.88 140 122.88S160.85 121.99 180 121.99S200.75 118.64 220 118.64S241.01 117.21 260 117.21S280.37 116.45 300 116.45S320.67 118.13 340 118.13S360.98 114.06 380 114.06S400.59 120.5 420 120.5S440.05 119.52 460 119.52S480.71 112.63 500 112.63S520.68 117.22 540 117.22S560.41 114.58 580 114.58S600.07 114.5 620 114.5S640.07 112.87 660 112.87S680.06 121.25 700 121.25S720.32 119.35 740 119.35S761.01 117.22 780 117.22S800.79 117.45 820 117.45S841.11 118.99 860 118.99S880.93 112.65 900 112.65S920.48 117.76 940 117.76L900 1400 L-100 1400 Z;M-100 117.53C-79.29 113.85 -79.44 114.22 -60 114.22S-39.3 112.03 -20 112.03S0.47 121.95 20 121.95S40.85 122.75 60 122.75S80.43 117.77 100 117.77S120.89 120.32 140 120.32S161.09 116.36 180 116.36S200.68 120.93 220 120.93S240.1 113.96 260 113.96S280.14 117.97 300 117.97S321.11 112.83 340 112.83S360.73 114.8 380 114.8S400.49 114.39 420 114.39S440.6 116.98 460 116.98S480.92 114.41 500 114.41S520.26 118.31 540 118.31S560.29 121.45 580 121.45S600.39 113.42 620 113.42S640.9 122.17 660 122.17S680.5 121.36 700 121.36S720.09 115.96 740 115.96S760.12 122.68 780 122.68S800.34 114.36 820 114.36S840.42 116.73 860 116.73S880.71 114.75 900 114.75S920.36 114.29 940 114.29L900 1400 L-100 1400 Z"></animate>
  <animateTransform attributeName="transform" type="translate" dur="12.048192771084336s" begin="0s" repeatCount="indefinite" values="0;10;0" calcMode="spline" keySplines="0.3 0 0.7 1;0.3 0 0.7 1"></animateTransform>
</path><path d="M-100 136.64C-78.84 130.92 -79.39 130.49 -58.93 130.49S-37.9 141.37 -17.86 141.37S2.89 132.69 23.2 132.69S44.83 134.22 64.27 134.22S85.82 134.37 105.34 134.37S126.86 135.29 146.41 135.29S167.88 136.58 187.47 136.58S208.47 131.11 228.54 131.11S250.03 136.63 269.61 136.63S290.34 132.54 310.68 132.54S331.77 130.71 351.75 130.71S372.77 127.23 392.81 127.23S413.4 137.69 433.88 137.69S454.99 137.56 474.95 137.56S496.48 141.02 516.02 141.02S537.07 133.05 557.08 133.05S577.94 136.57 598.15 136.57S618.85 133.53 639.22 133.53S660.2 131.46 680.29 131.46S701.43 133.47 721.36 133.47S742.45 136.77 762.42 136.77S782.96 134.58 803.49 134.58S825.11 134.24 844.56 134.24S865.25 136.53 885.63 136.53S906.8 133.61 926.69 133.61L900 1400 L-100 1400 Z" fill="#48c0f3" stroke-width="0">
  <animate attributeName="d" dur="10.843373493975903s" repeatCount="indefinite" values="M-100 136.64C-78.84 130.92 -79.39 130.49 -58.93 130.49S-37.9 141.37 -17.86 141.37S2.89 132.69 23.2 132.69S44.83 134.22 64.27 134.22S85.82 134.37 105.34 134.37S126.86 135.29 146.41 135.29S167.88 136.58 187.47 136.58S208.47 131.11 228.54 131.11S250.03 136.63 269.61 136.63S290.34 132.54 310.68 132.54S331.77 130.71 351.75 130.71S372.77 127.23 392.81 127.23S413.4 137.69 433.88 137.69S454.99 137.56 474.95 137.56S496.48 141.02 516.02 141.02S537.07 133.05 557.08 133.05S577.94 136.57 598.15 136.57S618.85 133.53 639.22 133.53S660.2 131.46 680.29 131.46S701.43 133.47 721.36 133.47S742.45 136.77 762.42 136.77S782.96 134.58 803.49 134.58S825.11 134.24 844.56 134.24S865.25 136.53 885.63 136.53S906.8 133.61 926.69 133.61L900 1400 L-100 1400 Z;M-100 131.54C-79.3 136.29 -79.31 131.08 -58.93 131.08S-37.7 130.7 -17.86 130.7S3.37 137.13 23.2 137.13S43.82 126.02 64.27 126.02S85.68 135.59 105.34 135.59S126.28 134.52 146.41 134.52S167.02 134.23 187.47 134.23S208.57 126.18 228.54 126.18S249.27 141 269.61 141S290.61 132.71 310.68 132.71S331.21 139.01 351.75 139.01S372.57 129.5 392.81 129.5S414.37 134 433.88 134S455.15 133.36 474.95 133.36S496.35 134.98 516.02 134.98S537.65 134.69 557.08 134.69S578.14 133.41 598.15 133.41S618.77 128.33 639.22 128.33S660.19 137.83 680.29 137.83S701.14 129.15 721.36 129.15S742.46 136.39 762.42 136.39S783.74 130.45 803.49 130.45S824.48 132.1 844.56 132.1S865.1 136.81 885.63 136.81S906.46 141.04 926.69 141.04L900 1400 L-100 1400 Z;M-100 136.64C-78.84 130.92 -79.39 130.49 -58.93 130.49S-37.9 141.37 -17.86 141.37S2.89 132.69 23.2 132.69S44.83 134.22 64.27 134.22S85.82 134.37 105.34 134.37S126.86 135.29 146.41 135.29S167.88 136.58 187.47 136.58S208.47 131.11 228.54 131.11S250.03 136.63 269.61 136.63S290.34 132.54 310.68 132.54S331.77 130.71 351.75 130.71S372.77 127.23 392.81 127.23S413.4 137.69 433.88 137.69S454.99 137.56 474.95 137.56S496.48 141.02 516.02 141.02S537.07 133.05 557.08 133.05S577.94 136.57 598.15 136.57S618.85 133.53 639.22 133.53S660.2 131.46 680.29 131.46S701.43 133.47 721.36 133.47S742.45 136.77 762.42 136.77S782.96 134.58 803.49 134.58S825.11 134.24 844.56 134.24S865.25 136.53 885.63 136.53S906.8 133.61 926.69 133.61L900 1400 L-100 1400 Z"></animate>
  <animateTransform attributeName="transform" type="translate" dur="10.843373493975903s" begin="-1.0843373493975903s" repeatCount="indefinite" values="0;10;0" calcMode="spline" keySplines="0.3 0 0.7 1;0.3 0 0.7 1"></animateTransform>
</path><path d="M-100 148.67C-78.34 149.21 -78.72 154.92 -57.81 154.92S-35.91 148.48 -15.61 148.48S5.92 158.62 26.58 158.62S48.23 146.58 68.78 146.58S90.25 149.87 110.97 149.87S133.09 146.39 153.16 146.39S175.31 158.03 195.36 158.03S217.01 144.24 237.55 144.24S259.31 151.04 279.75 151.04S300.92 144.1 321.94 144.1S343.49 150.17 364.14 150.17S386.15 140.63 406.33 140.63S427.91 156.72 448.52 156.72S470.09 142.68 490.72 142.68S512.07 150.76 532.91 150.76S554.69 150.23 575.11 150.23S597.29 154.4 617.3 154.4S638.63 149.41 659.49 149.41S680.87 149.26 701.69 149.26S723.29 148.64 743.88 148.64S765.65 154.76 786.08 154.76S807.84 149.09 828.27 149.09S850.05 157.84 870.46 157.84S892.66 149.7 912.66 149.7L900 1400 L-100 1400 Z" fill="#55c8f2" stroke-width="0">
  <animate attributeName="d" dur="9.638554216867469s" repeatCount="indefinite" values="M-100 148.67C-78.34 149.21 -78.72 154.92 -57.81 154.92S-35.91 148.48 -15.61 148.48S5.92 158.62 26.58 158.62S48.23 146.58 68.78 146.58S90.25 149.87 110.97 149.87S133.09 146.39 153.16 146.39S175.31 158.03 195.36 158.03S217.01 144.24 237.55 144.24S259.31 151.04 279.75 151.04S300.92 144.1 321.94 144.1S343.49 150.17 364.14 150.17S386.15 140.63 406.33 140.63S427.91 156.72 448.52 156.72S470.09 142.68 490.72 142.68S512.07 150.76 532.91 150.76S554.69 150.23 575.11 150.23S597.29 154.4 617.3 154.4S638.63 149.41 659.49 149.41S680.87 149.26 701.69 149.26S723.29 148.64 743.88 148.64S765.65 154.76 786.08 154.76S807.84 149.09 828.27 149.09S850.05 157.84 870.46 157.84S892.66 149.7 912.66 149.7L900 1400 L-100 1400 Z;M-100 148.45C-78.36 148 -78.25 158.87 -57.81 158.87S-36.6 148.11 -15.61 148.11S6.1 150.96 26.58 150.96S48.49 150.64 68.78 150.64S90.6 149.01 110.97 149.01S132.99 146.83 153.16 146.83S174.45 151.67 195.36 151.67S216.73 144.56 237.55 144.56S258.76 156.84 279.75 156.84S301.68 150.26 321.94 150.26S343.11 151.53 364.14 151.53S386.03 148.75 406.33 148.75S428.07 150.06 448.52 150.06S469.98 146.66 490.72 146.66S512.57 158.59 532.91 158.59S554.5 141.01 575.11 141.01S597.28 154.87 617.3 154.87S639.37 144.24 659.49 144.24S681.12 159.06 701.69 159.06S723.78 145.67 743.88 145.67S765.1 155.2 786.08 155.2S807.55 146.4 828.27 146.4S849.76 153.32 870.46 153.32S892.62 144.51 912.66 144.51L900 1400 L-100 1400 Z;M-100 148.67C-78.34 149.21 -78.72 154.92 -57.81 154.92S-35.91 148.48 -15.61 148.48S5.92 158.62 26.58 158.62S48.23 146.58 68.78 146.58S90.25 149.87 110.97 149.87S133.09 146.39 153.16 146.39S175.31 158.03 195.36 158.03S217.01 144.24 237.55 144.24S259.31 151.04 279.75 151.04S300.92 144.1 321.94 144.1S343.49 150.17 364.14 150.17S386.15 140.63 406.33 140.63S427.91 156.72 448.52 156.72S470.09 142.68 490.72 142.68S512.07 150.76 532.91 150.76S554.69 150.23 575.11 150.23S597.29 154.4 617.3 154.4S638.63 149.41 659.49 149.41S680.87 149.26 701.69 149.26S723.29 148.64 743.88 148.64S765.65 154.76 786.08 154.76S807.84 149.09 828.27 149.09S850.05 157.84 870.46 157.84S892.66 149.7 912.66 149.7L900 1400 L-100 1400 Z"></animate>
  <animateTransform attributeName="transform" type="translate" dur="9.638554216867469s" begin="-1.9277108433734937s" repeatCount="indefinite" values="0;10;0" calcMode="spline" keySplines="0.3 0 0.7 1;0.3 0 0.7 1"></animateTransform>
</path><path d="M-100 160.06C-77.2 161.18 -77.3 162.06 -56.62 162.06S-34.23 154.77 -13.23 154.77S8.7 173.4 30.15 173.4S52.62 155.84 73.54 155.84S95.8 177.59 116.92 177.59S138.82 162.52 160.3 162.52S182.84 170.63 203.69 170.63S225.87 160.91 247.07 160.91S268.87 172.65 290.46 172.65S312.68 160.29 333.84 160.29S356.42 174.35 377.22 174.35S399.46 160.14 420.61 160.14S442.59 168.89 463.99 168.89S486.41 160.53 507.38 160.53S529.96 175.03 550.76 175.03S573.52 161.67 594.14 161.67S616.31 175.99 637.53 175.99S659.92 160.06 680.91 160.06S703.17 176.04 724.3 176.04S746.78 175.55 767.68 175.55S789.81 177.88 811.06 177.88S832.98 155.4 854.45 155.4S876.41 173.44 897.83 173.44S919.74 154.43 941.21 154.43L900 1400 L-100 1400 Z" fill="#64d0f0" stroke-width="0">
  <animate attributeName="d" dur="8.433734939759036s" repeatCount="indefinite" values="M-100 160.06C-77.2 161.18 -77.3 162.06 -56.62 162.06S-34.23 154.77 -13.23 154.77S8.7 173.4 30.15 173.4S52.62 155.84 73.54 155.84S95.8 177.59 116.92 177.59S138.82 162.52 160.3 162.52S182.84 170.63 203.69 170.63S225.87 160.91 247.07 160.91S268.87 172.65 290.46 172.65S312.68 160.29 333.84 160.29S356.42 174.35 377.22 174.35S399.46 160.14 420.61 160.14S442.59 168.89 463.99 168.89S486.41 160.53 507.38 160.53S529.96 175.03 550.76 175.03S573.52 161.67 594.14 161.67S616.31 175.99 637.53 175.99S659.92 160.06 680.91 160.06S703.17 176.04 724.3 176.04S746.78 175.55 767.68 175.55S789.81 177.88 811.06 177.88S832.98 155.4 854.45 155.4S876.41 173.44 897.83 173.44S919.74 154.43 941.21 154.43L900 1400 L-100 1400 Z;M-100 159.6C-77.93 159.72 -77.91 177.45 -56.62 177.45S-34.17 154.54 -13.23 154.54S8.93 174.34 30.15 174.34S51.9 154.85 73.54 154.85S95.44 175.38 116.92 175.38S138.62 155.6 160.3 155.6S182.31 172.56 203.69 172.56S225.82 156.25 247.07 156.25S269.22 173.68 290.46 173.68S312.68 156.45 333.84 156.45S355.91 168.01 377.22 168.01S399.37 156.94 420.61 156.94S443.04 172.53 463.99 172.53S486.34 163.58 507.38 163.58S529.33 175.29 550.76 175.29S573.4 156.68 594.14 156.68S616.25 172.51 637.53 172.51S659.46 159.87 680.91 159.87S702.8 175.21 724.3 175.21S746.69 156.17 767.68 156.17S789.53 168.68 811.06 168.68S833.48 160.47 854.45 160.47S876.19 177.81 897.83 177.81S920.09 159.15 941.21 159.15L900 1400 L-100 1400 Z;M-100 160.06C-77.2 161.18 -77.3 162.06 -56.62 162.06S-34.23 154.77 -13.23 154.77S8.7 173.4 30.15 173.4S52.62 155.84 73.54 155.84S95.8 177.59 116.92 177.59S138.82 162.52 160.3 162.52S182.84 170.63 203.69 170.63S225.87 160.91 247.07 160.91S268.87 172.65 290.46 172.65S312.68 160.29 333.84 160.29S356.42 174.35 377.22 174.35S399.46 160.14 420.61 160.14S442.59 168.89 463.99 168.89S486.41 160.53 507.38 160.53S529.96 175.03 550.76 175.03S573.52 161.67 594.14 161.67S616.31 175.99 637.53 175.99S659.92 160.06 680.91 160.06S703.17 176.04 724.3 176.04S746.78 175.55 767.68 175.55S789.81 177.88 811.06 177.88S832.98 155.4 854.45 155.4S876.41 173.44 897.83 173.44S919.74 154.43 941.21 154.43L900 1400 L-100 1400 Z"></animate>
  <animateTransform attributeName="transform" type="translate" dur="8.433734939759036s" begin="-2.530120481927711s" repeatCount="indefinite" values="0;10;0" calcMode="spline" keySplines="0.3 0 0.7 1;0.3 0 0.7 1"></animateTransform>
</path><path d="M-100 169.51C-77.41 172.32 -76.64 193.82 -55.36 193.82S-31.95 173.89 -10.71 173.89S11.92 185.44 33.93 185.44S56.79 177.86 78.57 177.86S102.01 191.91 123.21 191.91S145.83 175.47 167.86 175.47S191.07 191.03 212.5 191.03S235.82 176.01 257.14 176.01S279.73 191.25 301.79 191.25S324.67 178.4 346.43 178.4S369.3 187.66 391.07 187.66S413.53 168.99 435.71 168.99S458.78 192.26 480.36 192.26S503.65 172.29 525 172.29S548.14 186.16 569.64 186.16S592.16 169.9 614.29 169.9S637.34 190.75 658.93 190.75S681.72 175.7 703.57 175.7S726.41 193.93 748.21 193.93S770.59 179.16 792.86 179.16S815.75 187.98 837.5 187.98S860 178.39 882.14 178.39S904.86 190.72 926.79 190.72L900 1400 L-100 1400 Z" fill="#74d8ee" stroke-width="0">
  <animate attributeName="d" dur="7.228915662650602s" repeatCount="indefinite" values="M-100 169.51C-77.41 172.32 -76.64 193.82 -55.36 193.82S-31.95 173.89 -10.71 173.89S11.92 185.44 33.93 185.44S56.79 177.86 78.57 177.86S102.01 191.91 123.21 191.91S145.83 175.47 167.86 175.47S191.07 191.03 212.5 191.03S235.82 176.01 257.14 176.01S279.73 191.25 301.79 191.25S324.67 178.4 346.43 178.4S369.3 187.66 391.07 187.66S413.53 168.99 435.71 168.99S458.78 192.26 480.36 192.26S503.65 172.29 525 172.29S548.14 186.16 569.64 186.16S592.16 169.9 614.29 169.9S637.34 190.75 658.93 190.75S681.72 175.7 703.57 175.7S726.41 193.93 748.21 193.93S770.59 179.16 792.86 179.16S815.75 187.98 837.5 187.98S860 178.39 882.14 178.39S904.86 190.72 926.79 190.72L900 1400 L-100 1400 Z;M-100 175.89C-77.05 178.08 -77.26 191.1 -55.36 191.1S-33 176.05 -10.71 176.05S12.57 186.18 33.93 186.18S56.45 176.48 78.57 176.48S101.39 190.9 123.21 190.9S146.3 177.11 167.86 177.11S191.1 193.68 212.5 193.68S235.43 186.97 257.14 186.97S279.78 187.35 301.79 187.35S325.06 178.26 346.43 178.26S369.72 193.02 391.07 193.02S413.46 178.33 435.71 178.33S458.73 194.38 480.36 194.38S503.16 196.22 525 196.22S548.1 196.43 569.64 196.43S592.64 170.61 614.29 170.61S636.65 186.88 658.93 186.88S681.84 169.4 703.57 169.4S726.41 191.26 748.21 191.26S771.27 168.64 792.86 168.64S815.22 192.96 837.5 192.96S860.64 177.81 882.14 177.81S905.11 191.25 926.79 191.25L900 1400 L-100 1400 Z;M-100 169.51C-77.41 172.32 -76.64 193.82 -55.36 193.82S-31.95 173.89 -10.71 173.89S11.92 185.44 33.93 185.44S56.79 177.86 78.57 177.86S102.01 191.91 123.21 191.91S145.83 175.47 167.86 175.47S191.07 191.03 212.5 191.03S235.82 176.01 257.14 176.01S279.73 191.25 301.79 191.25S324.67 178.4 346.43 178.4S369.3 187.66 391.07 187.66S413.53 168.99 435.71 168.99S458.78 192.26 480.36 192.26S503.65 172.29 525 172.29S548.14 186.16 569.64 186.16S592.16 169.9 614.29 169.9S637.34 190.75 658.93 190.75S681.72 175.7 703.57 175.7S726.41 193.93 748.21 193.93S770.59 179.16 792.86 179.16S815.75 187.98 837.5 187.98S860 178.39 882.14 178.39S904.86 190.72 926.79 190.72L900 1400 L-100 1400 Z"></animate>
  <animateTransform attributeName="transform" type="translate" dur="7.228915662650602s" begin="-2.8915662650602405s" repeatCount="indefinite" values="0;10;0" calcMode="spline" keySplines="0.3 0 0.7 1;0.3 0 0.7 1"></animateTransform>
</path><path d="M-100 190.94C-76.16 184.43 -76.84 207.21 -54.02 207.21S-30.9 191.52 -8.05 191.52S15.42 207.25 37.93 207.25S61.3 189.41 83.91 189.41S107.65 213.71 129.89 213.71S153.81 185.2 175.86 185.2S199.61 212.05 221.84 212.05S245.03 190.89 267.82 190.89S291.36 205.04 313.79 205.04S337.35 188.09 359.77 188.09S383.44 204.37 405.75 204.37S429.09 187.52 451.72 187.52S475.57 209.49 497.7 209.49S521.41 188.87 543.68 188.87S566.97 213.75 589.66 213.75S613.39 182.36 635.63 182.36S659.15 209.54 681.61 209.54S704.84 186.27 727.59 186.27S750.58 210.68 773.56 210.68S797.4 184.05 819.54 184.05S843.53 214.69 865.52 214.69S889.16 188.12 911.49 188.12L900 1400 L-100 1400 Z" fill="#84dfed" stroke-width="0">
  <animate attributeName="d" dur="6.024096385542168s" repeatCount="indefinite" values="M-100 190.94C-76.16 184.43 -76.84 207.21 -54.02 207.21S-30.9 191.52 -8.05 191.52S15.42 207.25 37.93 207.25S61.3 189.41 83.91 189.41S107.65 213.71 129.89 213.71S153.81 185.2 175.86 185.2S199.61 212.05 221.84 212.05S245.03 190.89 267.82 190.89S291.36 205.04 313.79 205.04S337.35 188.09 359.77 188.09S383.44 204.37 405.75 204.37S429.09 187.52 451.72 187.52S475.57 209.49 497.7 209.49S521.41 188.87 543.68 188.87S566.97 213.75 589.66 213.75S613.39 182.36 635.63 182.36S659.15 209.54 681.61 209.54S704.84 186.27 727.59 186.27S750.58 210.68 773.56 210.68S797.4 184.05 819.54 184.05S843.53 214.69 865.52 214.69S889.16 188.12 911.49 188.12L900 1400 L-100 1400 Z;M-100 211.11C-76.17 206.58 -76.83 213.62 -54.02 213.62S-30.56 185.72 -8.05 185.72S15.59 206.61 37.93 206.61S61.97 188.09 83.91 188.09S107.21 188.46 129.89 188.46S153.44 188.2 175.86 188.2S198.89 214.78 221.84 214.78S245.12 188.05 267.82 188.05S290.83 214.7 313.79 214.7S337.72 192.56 359.77 192.56S383.08 203.74 405.75 203.74S429.19 187.29 451.72 187.29S475.83 210.67 497.7 210.67S521.21 189.68 543.68 189.68S567.77 206.34 589.66 206.34S613.51 183.51 635.63 183.51S659.28 205.04 681.61 205.04S704.98 187.39 727.59 187.39S751.42 213 773.56 213S796.79 182.36 819.54 182.36S843.29 206.35 865.52 206.35S889.62 185.1 911.49 185.1L900 1400 L-100 1400 Z;M-100 190.94C-76.16 184.43 -76.84 207.21 -54.02 207.21S-30.9 191.52 -8.05 191.52S15.42 207.25 37.93 207.25S61.3 189.41 83.91 189.41S107.65 213.71 129.89 213.71S153.81 185.2 175.86 185.2S199.61 212.05 221.84 212.05S245.03 190.89 267.82 190.89S291.36 205.04 313.79 205.04S337.35 188.09 359.77 188.09S383.44 204.37 405.75 204.37S429.09 187.52 451.72 187.52S475.57 209.49 497.7 209.49S521.41 188.87 543.68 188.87S566.97 213.75 589.66 213.75S613.39 182.36 635.63 182.36S659.15 209.54 681.61 209.54S704.84 186.27 727.59 186.27S750.58 210.68 773.56 210.68S797.4 184.05 819.54 184.05S843.53 214.69 865.52 214.69S889.16 188.12 911.49 188.12L900 1400 L-100 1400 Z"></animate>
  <animateTransform attributeName="transform" type="translate" dur="6.024096385542168s" begin="-3.012048192771084s" repeatCount="indefinite" values="0;10;0" calcMode="spline" keySplines="0.3 0 0.7 1;0.3 0 0.7 1"></animateTransform>
</path><path d="M-100 203.76C-75.31 202.56 -75.34 229.94 -52.61 229.94S-27.92 203.92 -5.21 203.92S18.52 225.72 42.18 225.72S66.38 196.38 89.57 196.38S113.57 230.65 136.97 230.65S160.89 206.04 184.36 206.04S208.6 225.73 231.75 225.73S256.06 200.23 279.15 200.23S303.3 224.87 326.54 224.87S351.16 206.53 373.93 206.53S398.13 226.22 421.33 226.22S445.79 204.5 468.72 204.5S493.08 227.7 516.11 227.7S540.77 206.85 563.51 206.85S587.33 224.8 610.9 224.8S634.67 196.04 658.29 196.04S682.08 225.13 705.69 225.13S730.37 199.7 753.08 199.7S777.08 226.01 800.47 226.01S824.76 196.06 847.87 196.06S872.17 223.28 895.26 223.28S919.3 196.35 942.65 196.35L900 1400 L-100 1400 Z" fill="#94e6ed" stroke-width="0">
  <animate attributeName="d" dur="4.8192771084337345s" repeatCount="indefinite" values="M-100 203.76C-75.31 202.56 -75.34 229.94 -52.61 229.94S-27.92 203.92 -5.21 203.92S18.52 225.72 42.18 225.72S66.38 196.38 89.57 196.38S113.57 230.65 136.97 230.65S160.89 206.04 184.36 206.04S208.6 225.73 231.75 225.73S256.06 200.23 279.15 200.23S303.3 224.87 326.54 224.87S351.16 206.53 373.93 206.53S398.13 226.22 421.33 226.22S445.79 204.5 468.72 204.5S493.08 227.7 516.11 227.7S540.77 206.85 563.51 206.85S587.33 224.8 610.9 224.8S634.67 196.04 658.29 196.04S682.08 225.13 705.69 225.13S730.37 199.7 753.08 199.7S777.08 226.01 800.47 226.01S824.76 196.06 847.87 196.06S872.17 223.28 895.26 223.28S919.3 196.35 942.65 196.35L900 1400 L-100 1400 Z;M-100 199.83C-75.78 202 -75.3 230.37 -52.61 230.37S-27.85 202.09 -5.21 202.09S19.6 227.71 42.18 227.71S66.38 197.94 89.57 197.94S113.97 230.27 136.97 230.27S161.58 204.94 184.36 204.94S209.16 230.94 231.75 230.94S256.56 196.02 279.15 196.02S303.77 230.67 326.54 230.67S350.53 196.03 373.93 196.03S397.96 224.52 421.33 224.52S445.46 200.18 468.72 200.18S493.37 227.92 516.11 227.92S540.16 197.41 563.51 197.41S587.61 226.15 610.9 226.15S635.51 200.97 658.29 200.97S683.06 224.07 705.69 224.07S729.78 203.21 753.08 203.21S777.65 223.02 800.47 223.02S824.71 202.91 847.87 202.91S872.68 230.69 895.26 230.69S919.96 199.06 942.65 199.06L900 1400 L-100 1400 Z;M-100 203.76C-75.31 202.56 -75.34 229.94 -52.61 229.94S-27.92 203.92 -5.21 203.92S18.52 225.72 42.18 225.72S66.38 196.38 89.57 196.38S113.57 230.65 136.97 230.65S160.89 206.04 184.36 206.04S208.6 225.73 231.75 225.73S256.06 200.23 279.15 200.23S303.3 224.87 326.54 224.87S351.16 206.53 373.93 206.53S398.13 226.22 421.33 226.22S445.79 204.5 468.72 204.5S493.08 227.7 516.11 227.7S540.77 206.85 563.51 206.85S587.33 224.8 610.9 224.8S634.67 196.04 658.29 196.04S682.08 225.13 705.69 225.13S730.37 199.7 753.08 199.7S777.08 226.01 800.47 226.01S824.76 196.06 847.87 196.06S872.17 223.28 895.26 223.28S919.3 196.35 942.65 196.35L900 1400 L-100 1400 Z"></animate>
  <animateTransform attributeName="transform" type="translate" dur="4.8192771084337345s" begin="-2.8915662650602405s" repeatCount="indefinite" values="0;10;0" calcMode="spline" keySplines="0.3 0 0.7 1;0.3 0 0.7 1"></animateTransform>
</path><path d="M-100 217.78C-74.69 220.05 -75.35 248.47 -51.1 248.47S-26.23 214.18 -2.2 214.18S22.47 245.5 46.7 245.5S71.62 218.4 95.6 218.4S120.11 242.17 144.5 242.17S169 221.17 193.4 221.17S218.51 247.24 242.3 247.24S266.85 214.04 291.2 214.04S315.84 248.36 340.1 248.36S364.95 216.96 389 216.96S413.94 247.66 437.9 247.66S462.49 214.9 486.8 214.9S512.05 241.02 535.7 241.02S560.58 210.58 584.6 210.58S610.08 210.75 633.5 210.75S658.94 220.95 682.4 220.95S707.87 247.63 731.3 247.63S756.58 212.67 780.2 212.67S805.24 243.76 829.1 243.76S853.63 217.47 878 217.47S902.87 240.71 926.89 240.71L900 1400 L-100 1400 Z" fill="#a4eced" stroke-width="0">
  <animate attributeName="d" dur="3.614457831325301s" repeatCount="indefinite" values="M-100 217.78C-74.69 220.05 -75.35 248.47 -51.1 248.47S-26.23 214.18 -2.2 214.18S22.47 245.5 46.7 245.5S71.62 218.4 95.6 218.4S120.11 242.17 144.5 242.17S169 221.17 193.4 221.17S218.51 247.24 242.3 247.24S266.85 214.04 291.2 214.04S315.84 248.36 340.1 248.36S364.95 216.96 389 216.96S413.94 247.66 437.9 247.66S462.49 214.9 486.8 214.9S512.05 241.02 535.7 241.02S560.58 210.58 584.6 210.58S610.08 210.75 633.5 210.75S658.94 220.95 682.4 220.95S707.87 247.63 731.3 247.63S756.58 212.67 780.2 212.67S805.24 243.76 829.1 243.76S853.63 217.47 878 217.47S902.87 240.71 926.89 240.71L900 1400 L-100 1400 Z;M-100 213.76C-75.27 219.91 -74.69 242.35 -51.1 242.35S-26.55 217.3 -2.2 217.3S23.18 242.88 46.7 242.88S72.26 214.37 95.6 214.37S120.72 246.3 144.5 246.3S169.43 217.41 193.4 217.41S218.25 243.91 242.3 243.91S267.74 215.94 291.2 215.94S316.67 242.57 340.1 242.57S365.3 215.41 389 215.41S413.95 245.79 437.9 245.79S463.38 211.4 486.8 211.4S511.59 249.49 535.7 249.49S560.23 218.66 584.6 218.66S609.49 246.42 633.5 246.42S658.81 216.64 682.4 216.64S707.2 243.21 731.3 243.21S756.02 220.91 780.2 220.91S805.68 242.17 829.1 242.17S854.04 211.51 878 211.51S903.29 250.58 926.89 250.58L900 1400 L-100 1400 Z;M-100 217.78C-74.69 220.05 -75.35 248.47 -51.1 248.47S-26.23 214.18 -2.2 214.18S22.47 245.5 46.7 245.5S71.62 218.4 95.6 218.4S120.11 242.17 144.5 242.17S169 221.17 193.4 221.17S218.51 247.24 242.3 247.24S266.85 214.04 291.2 214.04S315.84 248.36 340.1 248.36S364.95 216.96 389 216.96S413.94 247.66 437.9 247.66S462.49 214.9 486.8 214.9S512.05 241.02 535.7 241.02S560.58 210.58 584.6 210.58S610.08 210.75 633.5 210.75S658.94 220.95 682.4 220.95S707.87 247.63 731.3 247.63S756.58 212.67 780.2 212.67S805.24 243.76 829.1 243.76S853.63 217.47 878 217.47S902.87 240.71 926.89 240.71L900 1400 L-100 1400 Z"></animate>
  <animateTransform attributeName="transform" type="translate" dur="3.614457831325301s" begin="-2.5301204819277108s" repeatCount="indefinite" values="0;10;0" calcMode="spline" keySplines="0.3 0 0.7 1;0.3 0 0.7 1"></animateTransform>
</path><path d="M-100 263.31C-74.13 269.65 -74.53 261.25 -49.49 261.25S-23.96 230.74 1.01 230.74S26.34 264.47 51.52 264.47S77.59 232.35 102.02 232.35S128.12 259.46 152.53 259.46S177.81 224.98 203.03 224.98S228.7 263.29 253.54 263.29S279.7 264.36 304.04 264.36S330.39 266.87 354.55 266.87S380.43 231.51 405.05 231.51S430.33 269.37 455.56 269.37S480.96 260.82 506.06 260.82S532.08 265.39 556.57 265.39S582.6 234.64 607.07 234.64S633.36 261.92 657.58 261.92S683.74 229.52 708.08 229.52S734.24 259.66 758.59 259.66S784.2 232.54 809.09 232.54S835.19 260.48 859.6 260.48S885.73 225.28 910.1 225.28L900 1400 L-100 1400 Z" fill="#b5f3ef" stroke-width="0">
  <animate attributeName="d" dur="2.4096385542168672s" repeatCount="indefinite" values="M-100 263.31C-74.13 269.65 -74.53 261.25 -49.49 261.25S-23.96 230.74 1.01 230.74S26.34 264.47 51.52 264.47S77.59 232.35 102.02 232.35S128.12 259.46 152.53 259.46S177.81 224.98 203.03 224.98S228.7 263.29 253.54 263.29S279.7 264.36 304.04 264.36S330.39 266.87 354.55 266.87S380.43 231.51 405.05 231.51S430.33 269.37 455.56 269.37S480.96 260.82 506.06 260.82S532.08 265.39 556.57 265.39S582.6 234.64 607.07 234.64S633.36 261.92 657.58 261.92S683.74 229.52 708.08 229.52S734.24 259.66 758.59 259.66S784.2 232.54 809.09 232.54S835.19 260.48 859.6 260.48S885.73 225.28 910.1 225.28L900 1400 L-100 1400 Z;M-100 230.04C-73.97 229.57 -73.66 261.29 -49.49 261.29S-24.05 226.21 1.01 226.21S27.03 262.25 51.52 262.25S76.99 227.05 102.02 227.05S127.78 261.85 152.53 261.85S178.05 229.24 203.03 229.24S228.58 261.35 253.54 261.35S278.95 228.97 304.04 228.97S330.34 258.8 354.55 258.8S380.82 224.04 405.05 224.04S430.62 259.69 455.56 259.69S481.74 235.16 506.06 235.16S531.93 269.57 556.57 269.57S582.35 232.02 607.07 232.02S633.21 265.46 657.58 265.46S683.38 230.01 708.08 230.01S734.28 268.85 758.59 268.85S784.72 231.7 809.09 231.7S834.7 263.86 859.6 263.86S885.65 234.81 910.1 234.81L900 1400 L-100 1400 Z;M-100 263.31C-74.13 269.65 -74.53 261.25 -49.49 261.25S-23.96 230.74 1.01 230.74S26.34 264.47 51.52 264.47S77.59 232.35 102.02 232.35S128.12 259.46 152.53 259.46S177.81 224.98 203.03 224.98S228.7 263.29 253.54 263.29S279.7 264.36 304.04 264.36S330.39 266.87 354.55 266.87S380.43 231.51 405.05 231.51S430.33 269.37 455.56 269.37S480.96 260.82 506.06 260.82S532.08 265.39 556.57 265.39S582.6 234.64 607.07 234.64S633.36 261.92 657.58 261.92S683.74 229.52 708.08 229.52S734.24 259.66 758.59 259.66S784.2 232.54 809.09 232.54S835.19 260.48 859.6 260.48S885.73 225.28 910.1 225.28L900 1400 L-100 1400 Z"></animate>
  <animateTransform attributeName="transform" type="translate" dur="2.4096385542168672s" begin="-1.9277108433734937s" repeatCount="indefinite" values="0;10;0" calcMode="spline" keySplines="0.3 0 0.7 1;0.3 0 0.7 1"></animateTransform>
</path><path d="M-100 239.93C-73.38 242.99 -73.8 280.41 -47.78 280.41S-21.28 242.97 4.44 242.97S31.53 288.24 56.66 288.24S82.93 239.82 108.88 239.82S135.31 283.92 161.1 283.92S187.4 246.78 213.32 246.78S240.18 238.32 265.54 238.32S292.12 241.64 317.75 241.64S344.86 283.94 369.97 283.94S396.21 239.4 422.19 239.4S448.54 277.27 474.41 277.27S501.04 248.92 526.63 248.92S553.14 280.4 578.85 280.4S605.3 245.94 631.07 245.94S657.74 281.74 683.29 281.74S709.87 248.79 735.51 248.79S761.91 287.99 787.73 287.99S814.55 243.3 839.95 243.3S867.17 277.32 892.17 277.32S918.59 238.56 944.39 238.56L900 1400 L-100 1400 Z" fill="#c5f9f1" stroke-width="0">
  <animate attributeName="d" dur="1.2048192771084336s" repeatCount="indefinite" values="M-100 239.93C-73.38 242.99 -73.8 280.41 -47.78 280.41S-21.28 242.97 4.44 242.97S31.53 288.24 56.66 288.24S82.93 239.82 108.88 239.82S135.31 283.92 161.1 283.92S187.4 246.78 213.32 246.78S240.18 238.32 265.54 238.32S292.12 241.64 317.75 241.64S344.86 283.94 369.97 283.94S396.21 239.4 422.19 239.4S448.54 277.27 474.41 277.27S501.04 248.92 526.63 248.92S553.14 280.4 578.85 280.4S605.3 245.94 631.07 245.94S657.74 281.74 683.29 281.74S709.87 248.79 735.51 248.79S761.91 287.99 787.73 287.99S814.55 243.3 839.95 243.3S867.17 277.32 892.17 277.32S918.59 238.56 944.39 238.56L900 1400 L-100 1400 Z;M-100 247.5C-73.25 246.39 -73.62 277.4 -47.78 277.4S-20.84 242.4 4.44 242.4S31.48 284.72 56.66 284.72S83.78 244.52 108.88 244.52S135.45 280.32 161.1 280.32S187.41 285.99 213.32 285.99S240.09 284.75 265.54 284.75S292.55 245.76 317.75 245.76S344.31 278.82 369.97 278.82S396.14 239.82 422.19 239.82S449.01 278.79 474.41 278.79S501.13 246.46 526.63 246.46S553.51 280.93 578.85 280.93S605.83 243.82 631.07 243.82S657.8 282.91 683.29 282.91S710.09 238.55 735.51 238.55S762.21 287.27 787.73 287.27S814.46 286.27 839.95 286.27S866.4 277.5 892.17 277.5S919.08 242.7 944.39 242.7L900 1400 L-100 1400 Z;M-100 239.93C-73.38 242.99 -73.8 280.41 -47.78 280.41S-21.28 242.97 4.44 242.97S31.53 288.24 56.66 288.24S82.93 239.82 108.88 239.82S135.31 283.92 161.1 283.92S187.4 246.78 213.32 246.78S240.18 238.32 265.54 238.32S292.12 241.64 317.75 241.64S344.86 283.94 369.97 283.94S396.21 239.4 422.19 239.4S448.54 277.27 474.41 277.27S501.04 248.92 526.63 248.92S553.14 280.4 578.85 280.4S605.3 245.94 631.07 245.94S657.74 281.74 683.29 281.74S709.87 248.79 735.51 248.79S761.91 287.99 787.73 287.99S814.55 243.3 839.95 243.3S867.17 277.32 892.17 277.32S918.59 238.56 944.39 238.56L900 1400 L-100 1400 Z"></animate>
  <animateTransform attributeName="transform" type="translate" dur="1.2048192771084336s" begin="-1.0843373493975903s" repeatCount="indefinite" values="0;10;0" calcMode="spline" keySplines="0.3 0 0.7 1;0.3 0 0.7 1"></animateTransform>
</path></g>
</svg>