<?xml version="1.0" encoding="utf-8"?>
<svg xmlns="http://www.w3.org/2000/svg" xmlns:xlink="http://www.w3.org/1999/xlink" style="margin: auto; background: none; display: block; z-index: 1; position: relative; shape-rendering: auto;" width="600" height="1200" preserveAspectRatio="xMidYMid" viewBox="0 0 600 1200">
<g transform=""><path d="M-100 107.88C-83.84 103.43 -84.91 107.61 -70.37 107.61S-54.48 108.07 -40.74 108.07S-25.59 107.23 -11.11 107.23S3.91 106.05 18.52 106.05S34.26 98.89 48.15 98.89S63.95 100.56 77.78 100.56S92.64 107.3 107.41 107.3S123.53 107.48 137.04 107.48S152.51 108.9 166.67 108.9S182.54 96.81 196.3 96.81S212.04 97.91 225.93 97.91S241.66 102.89 255.56 102.89S271.12 108.01 285.19 108.01S300.28 101.48 314.81 101.48S330.41 105.52 344.44 105.52S359.38 106.93 374.07 106.93S389.55 108.9 403.7 108.9S419.51 104.13 433.33 104.13S449.13 97.37 462.96 97.37S478.78 102.84 492.59 102.84S507.63 105.65 522.22 105.65S538.14 107.19 551.85 107.19S568.01 100.35 581.48 100.35S597.05 98.73 611.11 98.73S626.92 105.53 640.74 105.53S656.74 108.78 670.37 108.78S686.39 104.41 700 104.41S714.84 107.95 729.63 107.95L700 1200 L-100 1200 Z" fill="#d5fff5" stroke-width="0">
  <animate attributeName="d" dur="10.843373493975903s" repeatCount="indefinite" values="M-100 107.88C-83.84 103.43 -84.91 107.61 -70.37 107.61S-54.48 108.07 -40.74 108.07S-25.59 107.23 -11.11 107.23S3.91 106.05 18.52 106.05S34.26 98.89 48.15 98.89S63.95 100.56 77.78 100.56S92.64 107.3 107.41 107.3S123.53 107.48 137.04 107.48S152.51 108.9 166.67 108.9S182.54 96.81 196.3 96.81S212.04 97.91 225.93 97.91S241.66 102.89 255.56 102.89S271.12 108.01 285.19 108.01S300.28 101.48 314.81 101.48S330.41 105.52 344.44 105.52S359.38 106.93 374.07 106.93S389.55 108.9 403.7 108.9S419.51 104.13 433.33 104.13S449.13 97.37 462.96 97.37S478.78 102.84 492.59 102.84S507.63 105.65 522.22 105.65S538.14 107.19 551.85 107.19S568.01 100.35 581.48 100.35S597.05 98.73 611.11 98.73S626.92 105.53 640.74 105.53S656.74 108.78 670.37 108.78S686.39 104.41 700 104.41S714.84 107.95 729.63 107.95L700 1200 L-100 1200 Z;M-100 104.01C-84.21 100.97 -84.88 100.54 -70.37 100.54S-54.32 109.22 -40.74 109.22S-24.54 100.95 -11.11 100.95S4.7 110.19 18.52 110.19S33.93 107.01 48.15 107.01S63.36 105.59 77.78 105.59S93.35 105.27 107.41 105.27S122.91 105.78 137.04 105.78S152.41 99.54 166.67 99.54S182.25 110.4 196.3 110.4S212.37 100.69 225.93 100.69S241.32 110.61 255.56 110.61S271.83 99.3 285.19 99.3S301.31 103.19 314.81 103.19S329.65 106.08 344.44 106.08S359.99 101.79 374.07 101.79S389.51 96.55 403.7 96.55S419.53 104.59 433.33 104.59S449.36 100.43 462.96 100.43S477.81 100.23 492.59 100.23S508.53 105.77 522.22 105.77S537.66 102.25 551.85 102.25S566.91 105.37 581.48 105.37S597.24 97.9 611.11 97.9S627.37 102.21 640.74 102.21S656.27 104.17 670.37 104.17S686.48 106.49 700 106.49S715.57 102.3 729.63 102.3L700 1200 L-100 1200 Z;M-100 107.88C-83.84 103.43 -84.91 107.61 -70.37 107.61S-54.48 108.07 -40.74 108.07S-25.59 107.23 -11.11 107.23S3.91 106.05 18.52 106.05S34.26 98.89 48.15 98.89S63.95 100.56 77.78 100.56S92.64 107.3 107.41 107.3S123.53 107.48 137.04 107.48S152.51 108.9 166.67 108.9S182.54 96.81 196.3 96.81S212.04 97.91 225.93 97.91S241.66 102.89 255.56 102.89S271.12 108.01 285.19 108.01S300.28 101.48 314.81 101.48S330.41 105.52 344.44 105.52S359.38 106.93 374.07 106.93S389.55 108.9 403.7 108.9S419.51 104.13 433.33 104.13S449.13 97.37 462.96 97.37S478.78 102.84 492.59 102.84S507.63 105.65 522.22 105.65S538.14 107.19 551.85 107.19S568.01 100.35 581.48 100.35S597.05 98.73 611.11 98.73S626.92 105.53 640.74 105.53S656.74 108.78 670.37 108.78S686.39 104.41 700 104.41S714.84 107.95 729.63 107.95L700 1200 L-100 1200 Z"></animate>
  <animateTransform attributeName="transform" type="translate" dur="10.843373493975903s" begin="0s" repeatCount="indefinite" values="0;10;0" calcMode="spline" keySplines="0.3 0 0.7 1;0.3 0 0.7 1"></animateTransform>
</path><path d="M-100 116.22C-83.37 126.79 -83.96 125.91 -69.49 125.91S-53.3 115.5 -38.98 115.5S-22.54 118.09 -8.47 118.09S7.02 115.21 22.03 115.21S37.94 123.27 52.54 123.27S68.32 120.36 83.05 120.36S99.56 126.74 113.56 126.74S129.82 128.13 144.07 128.13S159.45 129.52 174.58 129.52S190.75 118.55 205.08 118.55S220.66 114.74 235.59 114.74S251.57 119.48 266.1 119.48S281.87 120.16 296.61 120.16S312.28 126.11 327.12 126.11S342.97 130.25 357.63 130.25S374.03 121.26 388.14 121.26S404.57 129.36 418.64 129.36S435.29 129.88 449.15 129.88S465.59 122.91 479.66 122.91S496.33 126.83 510.17 126.83S526.46 128.74 540.68 128.74S556.36 117.95 571.19 117.95S587.06 122.98 601.69 122.98S617.51 126.33 632.2 126.33S648.76 121.43 662.71 121.43S679.32 123.58 693.22 123.58S709.08 121.82 723.73 121.82L700 1200 L-100 1200 Z" fill="#c3f8f1" stroke-width="0">
  <animate attributeName="d" dur="9.638554216867469s" repeatCount="indefinite" values="M-100 116.22C-83.37 126.79 -83.96 125.91 -69.49 125.91S-53.3 115.5 -38.98 115.5S-22.54 118.09 -8.47 118.09S7.02 115.21 22.03 115.21S37.94 123.27 52.54 123.27S68.32 120.36 83.05 120.36S99.56 126.74 113.56 126.74S129.82 128.13 144.07 128.13S159.45 129.52 174.58 129.52S190.75 118.55 205.08 118.55S220.66 114.74 235.59 114.74S251.57 119.48 266.1 119.48S281.87 120.16 296.61 120.16S312.28 126.11 327.12 126.11S342.97 130.25 357.63 130.25S374.03 121.26 388.14 121.26S404.57 129.36 418.64 129.36S435.29 129.88 449.15 129.88S465.59 122.91 479.66 122.91S496.33 126.83 510.17 126.83S526.46 128.74 540.68 128.74S556.36 117.95 571.19 117.95S587.06 122.98 601.69 122.98S617.51 126.33 632.2 126.33S648.76 121.43 662.71 121.43S679.32 123.58 693.22 123.58S709.08 121.82 723.73 121.82L700 1200 L-100 1200 Z;M-100 121.54C-84.4 127.95 -83.94 119.73 -69.49 119.73S-53.29 123.62 -38.98 123.62S-23.24 116.8 -8.47 116.8S8.18 116.22 22.03 116.22S38.49 123.92 52.54 123.92S68.78 124.22 83.05 124.22S98.37 116.25 113.56 116.25S129.66 125.46 144.07 125.46S159.53 126.98 174.58 126.98S190.94 121.36 205.08 121.36S221.2 116.99 235.59 116.99S251.38 129.32 266.1 129.32S282.36 127.56 296.61 127.56S312.57 123.81 327.12 123.81S342.74 128.21 357.63 128.21S373.95 123.12 388.14 123.12S404.36 128.12 418.64 128.12S435.2 129.24 449.15 129.24S465.24 123.63 479.66 123.63S495.78 129.25 510.17 129.25S526.44 127.32 540.68 127.32S556.4 116.22 571.19 116.22S587.44 121.18 601.69 121.18S617.99 128.52 632.2 128.52S648.81 122.19 662.71 122.19S678.57 116.44 693.22 116.44S709.12 124.98 723.73 124.98L700 1200 L-100 1200 Z;M-100 116.22C-83.37 126.79 -83.96 125.91 -69.49 125.91S-53.3 115.5 -38.98 115.5S-22.54 118.09 -8.47 118.09S7.02 115.21 22.03 115.21S37.94 123.27 52.54 123.27S68.32 120.36 83.05 120.36S99.56 126.74 113.56 126.74S129.82 128.13 144.07 128.13S159.45 129.52 174.58 129.52S190.75 118.55 205.08 118.55S220.66 114.74 235.59 114.74S251.57 119.48 266.1 119.48S281.87 120.16 296.61 120.16S312.28 126.11 327.12 126.11S342.97 130.25 357.63 130.25S374.03 121.26 388.14 121.26S404.57 129.36 418.64 129.36S435.29 129.88 449.15 129.88S465.59 122.91 479.66 122.91S496.33 126.83 510.17 126.83S526.46 128.74 540.68 128.74S556.36 117.95 571.19 117.95S587.06 122.98 601.69 122.98S617.51 126.33 632.2 126.33S648.76 121.43 662.71 121.43S679.32 123.58 693.22 123.58S709.08 121.82 723.73 121.82L700 1200 L-100 1200 Z"></animate>
  <animateTransform attributeName="transform" type="translate" dur="9.638554216867469s" begin="-1.07095046854083s" repeatCount="indefinite" values="0;10;0" calcMode="spline" keySplines="0.3 0 0.7 1;0.3 0 0.7 1"></animateTransform>
</path><path d="M-100 144.82C-83.53 137.05 -82.91 139.89 -68.56 139.89S-52.2 134.76 -37.12 134.76S-20.32 146.57 -5.68 146.57S10.18 137.85 25.76 137.85S42.93 139.22 57.21 139.22S73.57 139.52 88.65 139.52S105.83 143.47 120.09 143.47S136.5 136.54 151.53 136.54S168.11 139.72 182.97 139.72S198.77 143.03 214.41 143.03S231.25 150.07 245.85 150.07S261.77 141.68 277.29 141.68S293.61 138.53 308.73 138.53S325.83 138.57 340.17 138.57S356.61 140.34 371.62 140.34S388.17 138.59 403.06 138.59S419.27 140.66 434.5 140.66S450.88 138.57 465.94 138.57S482.51 145.92 497.38 145.92S514.04 134.68 528.82 134.68S545.12 148.83 560.26 148.83S576.27 140.67 591.7 140.67S608.53 149.09 623.14 149.09S640.16 147.11 654.59 147.11S671.69 150.65 686.03 150.65S702.31 146.71 717.47 146.71L700 1200 L-100 1200 Z" fill="#b1f1ee" stroke-width="0">
  <animate attributeName="d" dur="8.433734939759036s" repeatCount="indefinite" values="M-100 144.82C-83.53 137.05 -82.91 139.89 -68.56 139.89S-52.2 134.76 -37.12 134.76S-20.32 146.57 -5.68 146.57S10.18 137.85 25.76 137.85S42.93 139.22 57.21 139.22S73.57 139.52 88.65 139.52S105.83 143.47 120.09 143.47S136.5 136.54 151.53 136.54S168.11 139.72 182.97 139.72S198.77 143.03 214.41 143.03S231.25 150.07 245.85 150.07S261.77 141.68 277.29 141.68S293.61 138.53 308.73 138.53S325.83 138.57 340.17 138.57S356.61 140.34 371.62 140.34S388.17 138.59 403.06 138.59S419.27 140.66 434.5 140.66S450.88 138.57 465.94 138.57S482.51 145.92 497.38 145.92S514.04 134.68 528.82 134.68S545.12 148.83 560.26 148.83S576.27 140.67 591.7 140.67S608.53 149.09 623.14 149.09S640.16 147.11 654.59 147.11S671.69 150.65 686.03 150.65S702.31 146.71 717.47 146.71L700 1200 L-100 1200 Z;M-100 147.65C-83.35 143.48 -83.98 145.08 -68.56 145.08S-52.53 141.67 -37.12 141.67S-20.98 139.71 -5.68 139.71S11.12 144.37 25.76 144.37S41.81 136.63 57.21 136.63S73.55 144.66 88.65 144.66S104.95 148.14 120.09 148.14S136.69 135.78 151.53 135.78S167.36 150.36 182.97 150.36S199.88 145.2 214.41 145.2S231.19 142.85 245.85 142.85S262 146.68 277.29 146.68S293.3 147.36 308.73 147.36S325.57 135.53 340.17 135.53S357.16 137.5 371.62 137.5S388.76 137.38 403.06 137.38S420.05 142.97 434.5 142.97S450.82 143.25 465.94 143.25S482.01 142.52 497.38 142.52S513.78 137.76 528.82 137.76S545.1 137.92 560.26 137.92S577.14 141.33 591.7 141.33S608.4 138.57 623.14 138.57S639.04 140.41 654.59 140.41S670.76 137.53 686.03 137.53S702.22 141.57 717.47 141.57L700 1200 L-100 1200 Z;M-100 144.82C-83.53 137.05 -82.91 139.89 -68.56 139.89S-52.2 134.76 -37.12 134.76S-20.32 146.57 -5.68 146.57S10.18 137.85 25.76 137.85S42.93 139.22 57.21 139.22S73.57 139.52 88.65 139.52S105.83 143.47 120.09 143.47S136.5 136.54 151.53 136.54S168.11 139.72 182.97 139.72S198.77 143.03 214.41 143.03S231.25 150.07 245.85 150.07S261.77 141.68 277.29 141.68S293.61 138.53 308.73 138.53S325.83 138.57 340.17 138.57S356.61 140.34 371.62 140.34S388.17 138.59 403.06 138.59S419.27 140.66 434.5 140.66S450.88 138.57 465.94 138.57S482.51 145.92 497.38 145.92S514.04 134.68 528.82 134.68S545.12 148.83 560.26 148.83S576.27 140.67 591.7 140.67S608.53 149.09 623.14 149.09S640.16 147.11 654.59 147.11S671.69 150.65 686.03 150.65S702.31 146.71 717.47 146.71L700 1200 L-100 1200 Z"></animate>
  <animateTransform attributeName="transform" type="translate" dur="8.433734939759036s" begin="-1.8741633199464525s" repeatCount="indefinite" values="0;10;0" calcMode="spline" keySplines="0.3 0 0.7 1;0.3 0 0.7 1"></animateTransform>
</path><path d="M-100 165.29C-82.63 162.6 -82.85 159.58 -67.57 159.58S-51.14 152.01 -35.14 152.01S-18.31 167.3 -2.7 167.3S14.05 156.41 29.73 156.41S46.36 154.8 62.16 154.8S79.11 152.7 94.59 152.7S111.2 161.47 127.03 161.47S143.67 152.9 159.46 152.9S177.14 164.64 191.89 164.64S209.45 154.65 224.32 154.65S241.82 161.44 256.76 161.44S274.08 158.99 289.19 158.99S305.68 156.55 321.62 156.55S338.17 161.54 354.05 161.54S370.83 170.4 386.49 170.4S403.81 156.44 418.92 156.44S436.19 152.34 451.35 152.34S467.97 155.39 483.78 155.39S500.39 167.48 516.22 167.48S533.72 163.09 548.65 163.09S565.09 169.33 581.08 169.33S597.74 156.76 613.51 156.76S630.36 169.55 645.95 169.55S663.44 166.01 678.38 166.01S695.6 170.71 710.81 170.71L700 1200 L-100 1200 Z" fill="#9feaed" stroke-width="0">
  <animate attributeName="d" dur="7.228915662650602s" repeatCount="indefinite" values="M-100 165.29C-82.63 162.6 -82.85 159.58 -67.57 159.58S-51.14 152.01 -35.14 152.01S-18.31 167.3 -2.7 167.3S14.05 156.41 29.73 156.41S46.36 154.8 62.16 154.8S79.11 152.7 94.59 152.7S111.2 161.47 127.03 161.47S143.67 152.9 159.46 152.9S177.14 164.64 191.89 164.64S209.45 154.65 224.32 154.65S241.82 161.44 256.76 161.44S274.08 158.99 289.19 158.99S305.68 156.55 321.62 156.55S338.17 161.54 354.05 161.54S370.83 170.4 386.49 170.4S403.81 156.44 418.92 156.44S436.19 152.34 451.35 152.34S467.97 155.39 483.78 155.39S500.39 167.48 516.22 167.48S533.72 163.09 548.65 163.09S565.09 169.33 581.08 169.33S597.74 156.76 613.51 156.76S630.36 169.55 645.95 169.55S663.44 166.01 678.38 166.01S695.6 170.71 710.81 170.71L700 1200 L-100 1200 Z;M-100 163.05C-83.65 161 -83.65 165.24 -67.57 165.24S-51.14 160.86 -35.14 160.86S-18.54 158.67 -2.7 158.67S14.98 159.64 29.73 159.64S46.33 170.25 62.16 170.25S78.75 160.79 94.59 160.79S111.52 161.62 127.03 161.62S144.61 160.31 159.46 160.31S176.17 168.53 191.89 168.53S209.14 162.91 224.32 162.91S241.36 162.71 256.76 162.71S274.3 163.31 289.19 163.31S306.28 162.79 321.62 162.79S338.55 156.44 354.05 156.44S370.76 160.21 386.49 160.21S402.71 158.84 418.92 158.84S436.09 163.99 451.35 163.99S468.08 153.01 483.78 153.01S501.27 167.29 516.22 167.29S533.65 152.54 548.65 152.54S565.17 164.06 581.08 164.06S597.31 164.16 613.51 164.16S630.94 156.51 645.95 156.51S663.03 155.39 678.38 155.39S695.23 158.01 710.81 158.01L700 1200 L-100 1200 Z;M-100 165.29C-82.63 162.6 -82.85 159.58 -67.57 159.58S-51.14 152.01 -35.14 152.01S-18.31 167.3 -2.7 167.3S14.05 156.41 29.73 156.41S46.36 154.8 62.16 154.8S79.11 152.7 94.59 152.7S111.2 161.47 127.03 161.47S143.67 152.9 159.46 152.9S177.14 164.64 191.89 164.64S209.45 154.65 224.32 154.65S241.82 161.44 256.76 161.44S274.08 158.99 289.19 158.99S305.68 156.55 321.62 156.55S338.17 161.54 354.05 161.54S370.83 170.4 386.49 170.4S403.81 156.44 418.92 156.44S436.19 152.34 451.35 152.34S467.97 155.39 483.78 155.39S500.39 167.48 516.22 167.48S533.72 163.09 548.65 163.09S565.09 169.33 581.08 169.33S597.74 156.76 613.51 156.76S630.36 169.55 645.95 169.55S663.44 166.01 678.38 166.01S695.6 170.71 710.81 170.71L700 1200 L-100 1200 Z"></animate>
  <animateTransform attributeName="transform" type="translate" dur="7.228915662650602s" begin="-2.4096385542168672s" repeatCount="indefinite" values="0;10;0" calcMode="spline" keySplines="0.3 0 0.7 1;0.3 0 0.7 1"></animateTransform>
</path><path d="M-100 174.39C-81.97 171 -82.24 179.01 -66.51 179.01S-49.31 175.18 -33.02 175.18S-14.87 182.09 0.47 182.09S17.85 180.51 33.95 180.51S51.69 190.22 67.44 190.22S84.76 178.94 100.93 178.94S118.49 177.39 134.42 177.39S152.4 171.19 167.91 171.19S185.41 179.43 201.4 179.43S219.44 176.83 234.88 176.83S252.41 184.3 268.37 184.3S285.5 174.2 301.86 174.2S319.51 180.77 335.35 180.77S353.12 181.68 368.84 181.68S386.99 182.75 402.33 182.75S419.68 180.18 435.81 180.18S454 190.99 469.3 190.99S486.41 171.88 502.79 171.88S519.54 188.69 536.28 188.69S553.69 171.53 569.77 171.53S586.77 188.66 603.26 188.66S620.09 172.79 636.74 172.79S653.68 177.89 670.23 177.89S688.36 178.53 703.72 178.53L700 1200 L-100 1200 Z" fill="#8de3ed" stroke-width="0">
  <animate attributeName="d" dur="6.024096385542168s" repeatCount="indefinite" values="M-100 174.39C-81.97 171 -82.24 179.01 -66.51 179.01S-49.31 175.18 -33.02 175.18S-14.87 182.09 0.47 182.09S17.85 180.51 33.95 180.51S51.69 190.22 67.44 190.22S84.76 178.94 100.93 178.94S118.49 177.39 134.42 177.39S152.4 171.19 167.91 171.19S185.41 179.43 201.4 179.43S219.44 176.83 234.88 176.83S252.41 184.3 268.37 184.3S285.5 174.2 301.86 174.2S319.51 180.77 335.35 180.77S353.12 181.68 368.84 181.68S386.99 182.75 402.33 182.75S419.68 180.18 435.81 180.18S454 190.99 469.3 190.99S486.41 171.88 502.79 171.88S519.54 188.69 536.28 188.69S553.69 171.53 569.77 171.53S586.77 188.66 603.26 188.66S620.09 172.79 636.74 172.79S653.68 177.89 670.23 177.89S688.36 178.53 703.72 178.53L700 1200 L-100 1200 Z;M-100 176.15C-82.82 183.38 -81.82 181.9 -66.51 181.9S-49.72 171.55 -33.02 171.55S-14.85 187.03 0.47 187.03S18.23 175.24 33.95 175.24S51.4 183.6 67.44 183.6S85.17 183.52 100.93 183.52S118.52 184.56 134.42 184.56S151.46 178.57 167.91 178.57S185.02 180.3 201.4 180.3S218.15 172.1 234.88 172.1S252.27 177.04 268.37 177.04S285.99 180.03 301.86 180.03S319.14 190.38 335.35 190.38S352.49 175.86 368.84 175.86S387 184.44 402.33 184.44S419.76 171.92 435.81 171.92S453.19 191.22 469.3 191.22S487.08 182.19 502.79 182.19S520.22 180.49 536.28 180.49S553.65 183.2 569.77 183.2S587.23 180.12 603.26 180.12S621.18 181.72 636.74 181.72S654.65 184.09 670.23 184.09S688.42 180.87 703.72 180.87L700 1200 L-100 1200 Z;M-100 174.39C-81.97 171 -82.24 179.01 -66.51 179.01S-49.31 175.18 -33.02 175.18S-14.87 182.09 0.47 182.09S17.85 180.51 33.95 180.51S51.69 190.22 67.44 190.22S84.76 178.94 100.93 178.94S118.49 177.39 134.42 177.39S152.4 171.19 167.91 171.19S185.41 179.43 201.4 179.43S219.44 176.83 234.88 176.83S252.41 184.3 268.37 184.3S285.5 174.2 301.86 174.2S319.51 180.77 335.35 180.77S353.12 181.68 368.84 181.68S386.99 182.75 402.33 182.75S419.68 180.18 435.81 180.18S454 190.99 469.3 190.99S486.41 171.88 502.79 171.88S519.54 188.69 536.28 188.69S553.69 171.53 569.77 171.53S586.77 188.66 603.26 188.66S620.09 172.79 636.74 172.79S653.68 177.89 670.23 177.89S688.36 178.53 703.72 178.53L700 1200 L-100 1200 Z"></animate>
  <animateTransform attributeName="transform" type="translate" dur="6.024096385542168s" begin="-2.6773761713520745s" repeatCount="indefinite" values="0;10;0" calcMode="spline" keySplines="0.3 0 0.7 1;0.3 0 0.7 1"></animateTransform>
</path><path d="M-100 201.37C-82.43 201.52 -81.33 207.84 -65.38 207.84S-47.13 199.47 -30.77 199.47S-12.49 200.61 3.85 200.61S22.12 202.75 38.46 202.75S56.75 197.09 73.08 197.09S90.54 203.9 107.69 203.9S125.07 201.39 142.31 201.39S159.7 203.4 176.92 203.4S195.59 200 211.54 200S228.85 193.2 246.15 193.2S264.75 205.33 280.77 205.33S298.95 190.83 315.38 190.83S332.97 203.81 350 203.81S368.48 192.1 384.62 192.1S401.96 197.13 419.23 197.13S437.12 203.03 453.85 203.03S471.89 205.27 488.46 205.27S505.8 200.37 523.08 200.37S541.29 202.28 557.69 202.28S575.4 199.7 592.31 199.7S610.57 197.54 626.92 197.54S645.65 199.38 661.54 199.38S679.89 198.84 696.15 198.84S714.81 189.89 730.77 189.89L700 1200 L-100 1200 Z" fill="#7bdbee" stroke-width="0">
  <animate attributeName="d" dur="4.8192771084337345s" repeatCount="indefinite" values="M-100 201.37C-82.43 201.52 -81.33 207.84 -65.38 207.84S-47.13 199.47 -30.77 199.47S-12.49 200.61 3.85 200.61S22.12 202.75 38.46 202.75S56.75 197.09 73.08 197.09S90.54 203.9 107.69 203.9S125.07 201.39 142.31 201.39S159.7 203.4 176.92 203.4S195.59 200 211.54 200S228.85 193.2 246.15 193.2S264.75 205.33 280.77 205.33S298.95 190.83 315.38 190.83S332.97 203.81 350 203.81S368.48 192.1 384.62 192.1S401.96 197.13 419.23 197.13S437.12 203.03 453.85 203.03S471.89 205.27 488.46 205.27S505.8 200.37 523.08 200.37S541.29 202.28 557.69 202.28S575.4 199.7 592.31 199.7S610.57 197.54 626.92 197.54S645.65 199.38 661.54 199.38S679.89 198.84 696.15 198.84S714.81 189.89 730.77 189.89L700 1200 L-100 1200 Z;M-100 200.36C-82.22 201.86 -81.45 206.16 -65.38 206.16S-47.19 190.38 -30.77 190.38S-13.12 206.73 3.85 206.73S22.57 197.2 38.46 197.2S56.07 211.21 73.08 211.21S90.6 194.41 107.69 194.41S126.27 201.02 142.31 201.02S159.98 192.03 176.92 192.03S194.56 201.22 211.54 201.22S229.9 196.72 246.15 196.72S264.43 199.89 280.77 199.89S298.33 202.1 315.38 202.1S333.01 201.43 350 201.43S368.17 198.49 384.62 198.49S402.06 205.62 419.23 205.62S437.67 200.55 453.85 200.55S471.56 211.08 488.46 211.08S506.27 200.44 523.08 200.44S540.47 201.07 557.69 201.07S576.44 197.21 592.31 197.21S609.92 197.12 626.92 197.12S645.33 202.19 661.54 202.19S679.55 207.84 696.15 207.84S713.48 189.57 730.77 189.57L700 1200 L-100 1200 Z;M-100 201.37C-82.43 201.52 -81.33 207.84 -65.38 207.84S-47.13 199.47 -30.77 199.47S-12.49 200.61 3.85 200.61S22.12 202.75 38.46 202.75S56.75 197.09 73.08 197.09S90.54 203.9 107.69 203.9S125.07 201.39 142.31 201.39S159.7 203.4 176.92 203.4S195.59 200 211.54 200S228.85 193.2 246.15 193.2S264.75 205.33 280.77 205.33S298.95 190.83 315.38 190.83S332.97 203.81 350 203.81S368.48 192.1 384.62 192.1S401.96 197.13 419.23 197.13S437.12 203.03 453.85 203.03S471.89 205.27 488.46 205.27S505.8 200.37 523.08 200.37S541.29 202.28 557.69 202.28S575.4 199.7 592.31 199.7S610.57 197.54 626.92 197.54S645.65 199.38 661.54 199.38S679.89 198.84 696.15 198.84S714.81 189.89 730.77 189.89L700 1200 L-100 1200 Z"></animate>
  <animateTransform attributeName="transform" type="translate" dur="4.8192771084337345s" begin="-2.6773761713520745s" repeatCount="indefinite" values="0;10;0" calcMode="spline" keySplines="0.3 0 0.7 1;0.3 0 0.7 1"></animateTransform>
</path><path d="M-100 216.64C-80.84 219.17 -81.21 228.63 -64.18 228.63S-45.45 221.32 -28.36 221.32S-9.97 224.78 7.46 224.78S26.23 211.86 43.28 211.86S61.73 227.78 79.1 227.78S97.37 214.11 114.93 214.11S132.92 226.14 150.75 226.14S170.03 218.5 186.57 218.5S205.39 226.57 222.39 226.57S240.49 219.93 258.21 219.93S276.45 226.2 294.03 226.2S312.76 211.24 329.85 211.24S348.15 227.07 365.67 227.07S383.93 212.55 401.49 212.55S420.33 227.35 437.31 227.35S456.58 221.3 473.13 221.3S491.71 230.79 508.96 230.79S528.09 220.13 544.78 220.13S563.49 224.13 580.6 224.13S598.76 208.73 616.42 208.73S634.8 224.81 652.24 224.81S671.08 212.63 688.06 212.63S706.55 218 723.88 218L700 1200 L-100 1200 Z" fill="#69d3ef" stroke-width="0">
  <animate attributeName="d" dur="3.614457831325301s" repeatCount="indefinite" values="M-100 216.64C-80.84 219.17 -81.21 228.63 -64.18 228.63S-45.45 221.32 -28.36 221.32S-9.97 224.78 7.46 224.78S26.23 211.86 43.28 211.86S61.73 227.78 79.1 227.78S97.37 214.11 114.93 214.11S132.92 226.14 150.75 226.14S170.03 218.5 186.57 218.5S205.39 226.57 222.39 226.57S240.49 219.93 258.21 219.93S276.45 226.2 294.03 226.2S312.76 211.24 329.85 211.24S348.15 227.07 365.67 227.07S383.93 212.55 401.49 212.55S420.33 227.35 437.31 227.35S456.58 221.3 473.13 221.3S491.71 230.79 508.96 230.79S528.09 220.13 544.78 220.13S563.49 224.13 580.6 224.13S598.76 208.73 616.42 208.73S634.8 224.81 652.24 224.81S671.08 212.63 688.06 212.63S706.55 218 723.88 218L700 1200 L-100 1200 Z;M-100 216C-80.9 209.28 -81.46 226.11 -64.18 226.11S-45.53 219.35 -28.36 219.35S-10.16 226.5 7.46 226.5S26.4 218.69 43.28 218.69S61.78 215.98 79.1 215.98S98.12 208.99 114.93 208.99S133.02 226.84 150.75 226.84S169.73 220.44 186.57 220.44S204.84 231.38 222.39 231.38S240.85 210.66 258.21 210.66S276.93 217.31 294.03 217.31S312.07 220.69 329.85 220.69S347.88 227.34 365.67 227.34S384.67 212.44 401.49 212.44S420.2 223.17 437.31 223.17S456.45 209.41 473.13 209.41S491.84 221.43 508.96 221.43S527.73 220.89 544.78 220.89S563.86 218.7 580.6 218.7S598.82 210.89 616.42 210.89S634.34 221.97 652.24 221.97S670.62 217.34 688.06 217.34S706.83 221.94 723.88 221.94L700 1200 L-100 1200 Z;M-100 216.64C-80.84 219.17 -81.21 228.63 -64.18 228.63S-45.45 221.32 -28.36 221.32S-9.97 224.78 7.46 224.78S26.23 211.86 43.28 211.86S61.73 227.78 79.1 227.78S97.37 214.11 114.93 214.11S132.92 226.14 150.75 226.14S170.03 218.5 186.57 218.5S205.39 226.57 222.39 226.57S240.49 219.93 258.21 219.93S276.45 226.2 294.03 226.2S312.76 211.24 329.85 211.24S348.15 227.07 365.67 227.07S383.93 212.55 401.49 212.55S420.33 227.35 437.31 227.35S456.58 221.3 473.13 221.3S491.71 230.79 508.96 230.79S528.09 220.13 544.78 220.13S563.49 224.13 580.6 224.13S598.76 208.73 616.42 208.73S634.8 224.81 652.24 224.81S671.08 212.63 688.06 212.63S706.55 218 723.88 218L700 1200 L-100 1200 Z"></animate>
  <animateTransform attributeName="transform" type="translate" dur="3.614457831325301s" begin="-2.4096385542168672s" repeatCount="indefinite" values="0;10;0" calcMode="spline" keySplines="0.3 0 0.7 1;0.3 0 0.7 1"></animateTransform>
</path><path d="M-100 231.7C-80.52 240.1 -80.33 244.2 -62.89 244.2S-43.89 226.92 -25.77 226.92S-6.98 245.72 11.34 245.72S29.92 232.14 48.45 232.14S67.09 226.92 85.57 226.92S104.46 231.97 122.68 231.97S141.53 245.91 159.79 245.91S178.49 226.86 196.91 226.86S216.07 245.1 234.02 245.1S253.39 238.79 271.13 238.79S290.25 236.05 308.25 236.05S327.72 239.39 345.36 239.39S364.75 248.99 382.47 248.99S402.14 240.24 419.59 240.24S439.01 249.88 456.7 249.88S476.63 240.66 493.81 240.66S513.81 243.9 530.93 243.9S550.09 236.69 568.04 236.69S587.31 243.02 605.15 243.02S624.24 233.01 642.27 233.01S661.15 242.87 679.38 242.87S698.75 232.42 716.49 232.42L700 1200 L-100 1200 Z" fill="#58caf1" stroke-width="0">
  <animate attributeName="d" dur="2.4096385542168672s" repeatCount="indefinite" values="M-100 231.7C-80.52 240.1 -80.33 244.2 -62.89 244.2S-43.89 226.92 -25.77 226.92S-6.98 245.72 11.34 245.72S29.92 232.14 48.45 232.14S67.09 226.92 85.57 226.92S104.46 231.97 122.68 231.97S141.53 245.91 159.79 245.91S178.49 226.86 196.91 226.86S216.07 245.1 234.02 245.1S253.39 238.79 271.13 238.79S290.25 236.05 308.25 236.05S327.72 239.39 345.36 239.39S364.75 248.99 382.47 248.99S402.14 240.24 419.59 240.24S439.01 249.88 456.7 249.88S476.63 240.66 493.81 240.66S513.81 243.9 530.93 243.9S550.09 236.69 568.04 236.69S587.31 243.02 605.15 243.02S624.24 233.01 642.27 233.01S661.15 242.87 679.38 242.87S698.75 232.42 716.49 232.42L700 1200 L-100 1200 Z;M-100 229.45C-80.63 233.93 -81.27 251.24 -62.89 251.24S-43.01 231.37 -25.77 231.37S-6.73 243.96 11.34 243.96S31.31 236.32 48.45 236.32S67.07 247.34 85.57 247.34S104.59 240.16 122.68 240.16S141.54 239.64 159.79 239.64S179.71 232.3 196.91 232.3S216.02 249.18 234.02 249.18S252.85 227.57 271.13 227.57S290.55 242.32 308.25 242.32S327.81 238.86 345.36 238.86S364.06 238.66 382.47 238.66S401.96 243.99 419.59 243.99S439.42 246.74 456.7 246.74S476.51 227.8 493.81 227.8S513.83 243.79 530.93 243.79S549.86 240.95 568.04 240.95S586.68 246.31 605.15 246.31S623.73 227.43 642.27 227.43S662.19 238.62 679.38 238.62S698.29 240.41 716.49 240.41L700 1200 L-100 1200 Z;M-100 231.7C-80.52 240.1 -80.33 244.2 -62.89 244.2S-43.89 226.92 -25.77 226.92S-6.98 245.72 11.34 245.72S29.92 232.14 48.45 232.14S67.09 226.92 85.57 226.92S104.46 231.97 122.68 231.97S141.53 245.91 159.79 245.91S178.49 226.86 196.91 226.86S216.07 245.1 234.02 245.1S253.39 238.79 271.13 238.79S290.25 236.05 308.25 236.05S327.72 239.39 345.36 239.39S364.75 248.99 382.47 248.99S402.14 240.24 419.59 240.24S439.01 249.88 456.7 249.88S476.63 240.66 493.81 240.66S513.81 243.9 530.93 243.9S550.09 236.69 568.04 236.69S587.31 243.02 605.15 243.02S624.24 233.01 642.27 233.01S661.15 242.87 679.38 242.87S698.75 232.42 716.49 232.42L700 1200 L-100 1200 Z"></animate>
  <animateTransform attributeName="transform" type="translate" dur="2.4096385542168672s" begin="-1.874163319946452s" repeatCount="indefinite" values="0;10;0" calcMode="spline" keySplines="0.3 0 0.7 1;0.3 0 0.7 1"></animateTransform>
</path><path d="M-100 259.48C-80.13 246.36 -79.49 261 -61.5 261S-41.86 249.89 -22.99 249.89S-2.81 269.63 15.51 269.63S36.15 252.48 54.01 252.48S74.56 260.9 92.51 260.9S112.67 258.92 131.02 258.92S151.51 265.67 169.52 265.67S188.86 264.7 208.02 264.7S228.02 267.9 246.52 267.9S266.17 259.01 285.03 259.01S304.48 268.54 323.53 268.54S343.85 249.77 362.03 249.77S382.53 268.92 400.53 268.92S421.08 251.14 439.04 251.14S458.79 261.44 477.54 261.44S497.67 250.53 516.04 250.53S536.19 265.79 554.55 265.79S574.85 251.52 593.05 251.52S613.4 269.8 631.55 269.8S650.81 249.7 670.05 249.7S690.04 260.63 708.56 260.63L700 1200 L-100 1200 Z" fill="#49c1f3" stroke-width="0">
  <animate attributeName="d" dur="1.2048192771084336s" repeatCount="indefinite" values="M-100 259.48C-80.13 246.36 -79.49 261 -61.5 261S-41.86 249.89 -22.99 249.89S-2.81 269.63 15.51 269.63S36.15 252.48 54.01 252.48S74.56 260.9 92.51 260.9S112.67 258.92 131.02 258.92S151.51 265.67 169.52 265.67S188.86 264.7 208.02 264.7S228.02 267.9 246.52 267.9S266.17 259.01 285.03 259.01S304.48 268.54 323.53 268.54S343.85 249.77 362.03 249.77S382.53 268.92 400.53 268.92S421.08 251.14 439.04 251.14S458.79 261.44 477.54 261.44S497.67 250.53 516.04 250.53S536.19 265.79 554.55 265.79S574.85 251.52 593.05 251.52S613.4 269.8 631.55 269.8S650.81 249.7 670.05 249.7S690.04 260.63 708.56 260.63L700 1200 L-100 1200 Z;M-100 260C-79.88 253.24 -80.71 267.98 -61.5 267.98S-42.16 253.08 -22.99 253.08S-2.88 268.96 15.51 268.96S35.22 268.74 54.01 268.74S74.7 260.38 92.51 260.38S112.66 247.93 131.02 247.93S150.84 264.95 169.52 264.95S189.19 247.39 208.02 247.39S228.64 258.07 246.52 258.07S266.34 258.03 285.03 258.03S304.33 266.18 323.53 266.18S342.85 245.85 362.03 245.85S381.75 264.6 400.53 264.6S419.84 251.77 439.04 251.77S459.48 260.47 477.54 260.47S497.61 259.5 516.04 259.5S535.76 268.77 554.55 268.77S574.38 258.99 593.05 258.99S612.44 266.89 631.55 266.89S650.92 251.75 670.05 251.75S690.12 268.98 708.56 268.98L700 1200 L-100 1200 Z;M-100 259.48C-80.13 246.36 -79.49 261 -61.5 261S-41.86 249.89 -22.99 249.89S-2.81 269.63 15.51 269.63S36.15 252.48 54.01 252.48S74.56 260.9 92.51 260.9S112.67 258.92 131.02 258.92S151.51 265.67 169.52 265.67S188.86 264.7 208.02 264.7S228.02 267.9 246.52 267.9S266.17 259.01 285.03 259.01S304.48 268.54 323.53 268.54S343.85 249.77 362.03 249.77S382.53 268.92 400.53 268.92S421.08 251.14 439.04 251.14S458.79 261.44 477.54 261.44S497.67 250.53 516.04 250.53S536.19 265.79 554.55 265.79S574.85 251.52 593.05 251.52S613.4 269.8 631.55 269.8S650.81 249.7 670.05 249.7S690.04 260.63 708.56 260.63L700 1200 L-100 1200 Z"></animate>
  <animateTransform attributeName="transform" type="translate" dur="1.2048192771084336s" begin="-1.07095046854083s" repeatCount="indefinite" values="0;10;0" calcMode="spline" keySplines="0.3 0 0.7 1;0.3 0 0.7 1"></animateTransform>
</path></g>
</svg>