<?xml version="1.0" encoding="utf-8"?>
<svg xmlns="http://www.w3.org/2000/svg" xmlns:xlink="http://www.w3.org/1999/xlink" style="margin: auto; background: none; display: block; z-index: 1; position: relative; shape-rendering: auto;" width="2000" height="800" preserveAspectRatio="xMidYMid" viewBox="0 0 2000 800">
<g transform=""><path d="M-100 174.5C-64.15 167.83 -63.18 171.49 -29.03 171.49S7.6 185.94 41.94 185.94S77.47 166.85 112.9 166.85S149.94 173.78 183.87 173.78S219.52 160.32 254.84 160.32S291.33 180.48 325.81 180.48S362.81 173.49 396.77 173.49S433.44 171.61 467.74 171.61S506.01 179.89 538.71 179.89S574.75 176.89 609.68 176.89S645.29 184.21 680.65 184.21S717.99 176.17 751.61 176.17S787.35 165.41 822.58 165.41S860.58 180.76 893.55 180.76S930.06 167.41 964.52 167.41S1001.6 170.06 1035.48 170.06S1073.55 176.89 1106.45 176.89S1143.29 187.03 1177.42 187.03S1215.33 186.45 1248.39 186.45S1284.74 180.39 1319.35 180.39S1355.18 173.95 1390.32 173.95S1427.36 170.23 1461.29 170.23S1498 187.43 1532.26 187.43S1569.5 182.2 1603.23 182.2S1640.06 184.26 1674.19 184.26S1711.35 172.22 1745.16 172.22S1782.03 170.5 1816.13 170.5S1853.97 187.35 1887.1 187.35S1924.61 163.35 1958.06 163.35S1994.29 171.95 2029.03 171.95S2065.11 166.53 2100 166.53S2137.33 165.68 2170.97 165.68L2100 800 L-100 800 Z" fill="#3db8f5" stroke-width="0">
  <animate attributeName="d" dur="12.048192771084336s" repeatCount="indefinite" values="M-100 174.5C-64.15 167.83 -63.18 171.49 -29.03 171.49S7.6 185.94 41.94 185.94S77.47 166.85 112.9 166.85S149.94 173.78 183.87 173.78S219.52 160.32 254.84 160.32S291.33 180.48 325.81 180.48S362.81 173.49 396.77 173.49S433.44 171.61 467.74 171.61S506.01 179.89 538.71 179.89S574.75 176.89 609.68 176.89S645.29 184.21 680.65 184.21S717.99 176.17 751.61 176.17S787.35 165.41 822.58 165.41S860.58 180.76 893.55 180.76S930.06 167.41 964.52 167.41S1001.6 170.06 1035.48 170.06S1073.55 176.89 1106.45 176.89S1143.29 187.03 1177.42 187.03S1215.33 186.45 1248.39 186.45S1284.74 180.39 1319.35 180.39S1355.18 173.95 1390.32 173.95S1427.36 170.23 1461.29 170.23S1498 187.43 1532.26 187.43S1569.5 182.2 1603.23 182.2S1640.06 184.26 1674.19 184.26S1711.35 172.22 1745.16 172.22S1782.03 170.5 1816.13 170.5S1853.97 187.35 1887.1 187.35S1924.61 163.35 1958.06 163.35S1994.29 171.95 2029.03 171.95S2065.11 166.53 2100 166.53S2137.33 165.68 2170.97 165.68L2100 800 L-100 800 Z;M-100 171.08C-62.62 185.67 -63.28 162.31 -29.03 162.31S7.49 184.91 41.94 184.91S79.63 162.55 112.9 162.55S150.22 167.88 183.87 167.88S219.9 179.73 254.84 179.73S292.59 174.41 325.81 174.41S362.34 161.29 396.77 161.29S433.97 179.49 467.74 179.49S503.56 182.62 538.71 182.62S574.72 166.43 609.68 166.43S645.55 164.02 680.65 164.02S717.96 160.29 751.61 160.29S787.77 172.41 822.58 172.41S858.18 162.25 893.55 162.25S929.62 166.37 964.52 166.37S1000.11 163.96 1035.48 163.96S1071.77 162.5 1106.45 162.5S1142.45 177.37 1177.42 177.37S1214.68 162.41 1248.39 162.41S1284.39 167.51 1319.35 167.51S1354.91 185.41 1390.32 185.41S1426.35 184.25 1461.29 184.25S1498.37 163.44 1532.26 163.44S1570.11 174.96 1603.23 174.96S1641.25 169.52 1674.19 169.52S1711.34 170.22 1745.16 170.22S1782.64 169.72 1816.13 169.72S1853.88 168.16 1887.1 168.16S1922.98 179.89 1958.06 179.89S1994.28 171.1 2029.03 171.1S2064.85 163.84 2100 163.84S2136.05 178.83 2170.97 178.83L2100 800 L-100 800 Z;M-100 174.5C-64.15 167.83 -63.18 171.49 -29.03 171.49S7.6 185.94 41.94 185.94S77.47 166.85 112.9 166.85S149.94 173.78 183.87 173.78S219.52 160.32 254.84 160.32S291.33 180.48 325.81 180.48S362.81 173.49 396.77 173.49S433.44 171.61 467.74 171.61S506.01 179.89 538.71 179.89S574.75 176.89 609.68 176.89S645.29 184.21 680.65 184.21S717.99 176.17 751.61 176.17S787.35 165.41 822.58 165.41S860.58 180.76 893.55 180.76S930.06 167.41 964.52 167.41S1001.6 170.06 1035.48 170.06S1073.55 176.89 1106.45 176.89S1143.29 187.03 1177.42 187.03S1215.33 186.45 1248.39 186.45S1284.74 180.39 1319.35 180.39S1355.18 173.95 1390.32 173.95S1427.36 170.23 1461.29 170.23S1498 187.43 1532.26 187.43S1569.5 182.2 1603.23 182.2S1640.06 184.26 1674.19 184.26S1711.35 172.22 1745.16 172.22S1782.03 170.5 1816.13 170.5S1853.97 187.35 1887.1 187.35S1924.61 163.35 1958.06 163.35S1994.29 171.95 2029.03 171.95S2065.11 166.53 2100 166.53S2137.33 165.68 2170.97 165.68L2100 800 L-100 800 Z"></animate>
  <animateTransform attributeName="transform" type="translate" dur="12.048192771084336s" begin="0s" repeatCount="indefinite" values="0;10;0" calcMode="spline" keySplines="0.3 0 0.7 1;0.3 0 0.7 1"></animateTransform>
</path><path d="M-100 184.02C-61.85 190.61 -61.07 177.15 -27.15 177.15S11.55 176.09 45.7 176.09S83.62 178.57 118.54 178.57S155.68 185.4 191.39 185.4S230.56 189.57 264.24 189.57S301.93 177.4 337.09 177.4S376.09 177.92 409.93 177.92S448.56 187.12 482.78 187.12S519.76 197.93 555.63 197.93S592.61 180.4 628.48 180.4S666.19 190.97 701.32 190.97S737.86 180.73 774.17 180.73S813.2 195.69 847.02 195.69S886.06 187.17 919.87 187.17S958.19 179.41 992.72 179.41S1031.36 191.26 1065.56 191.26S1103.83 186.79 1138.41 186.79S1175.36 176.09 1211.26 176.09S1248.64 186.71 1284.11 186.71S1321.04 178.72 1356.95 178.72S1395.05 198.51 1429.8 198.51S1466.56 188.62 1502.65 188.62S1541.04 182.95 1575.5 182.95S1612.91 174.36 1648.34 174.36S1685.87 188.66 1721.19 188.66S1757.7 177.24 1794.04 177.24S1831.09 190.5 1866.89 190.5S1904.56 171.16 1939.74 171.16S1978.48 190.94 2012.58 190.94S2049.44 198.35 2085.43 198.35S2122.47 197.98 2158.28 197.98L2100 800 L-100 800 Z" fill="#48c0f3" stroke-width="0">
  <animate attributeName="d" dur="10.843373493975903s" repeatCount="indefinite" values="M-100 184.02C-61.85 190.61 -61.07 177.15 -27.15 177.15S11.55 176.09 45.7 176.09S83.62 178.57 118.54 178.57S155.68 185.4 191.39 185.4S230.56 189.57 264.24 189.57S301.93 177.4 337.09 177.4S376.09 177.92 409.93 177.92S448.56 187.12 482.78 187.12S519.76 197.93 555.63 197.93S592.61 180.4 628.48 180.4S666.19 190.97 701.32 190.97S737.86 180.73 774.17 180.73S813.2 195.69 847.02 195.69S886.06 187.17 919.87 187.17S958.19 179.41 992.72 179.41S1031.36 191.26 1065.56 191.26S1103.83 186.79 1138.41 186.79S1175.36 176.09 1211.26 176.09S1248.64 186.71 1284.11 186.71S1321.04 178.72 1356.95 178.72S1395.05 198.51 1429.8 198.51S1466.56 188.62 1502.65 188.62S1541.04 182.95 1575.5 182.95S1612.91 174.36 1648.34 174.36S1685.87 188.66 1721.19 188.66S1757.7 177.24 1794.04 177.24S1831.09 190.5 1866.89 190.5S1904.56 171.16 1939.74 171.16S1978.48 190.94 2012.58 190.94S2049.44 198.35 2085.43 198.35S2122.47 197.98 2158.28 197.98L2100 800 L-100 800 Z;M-100 188.69C-62.16 183.88 -62.93 184.33 -27.15 184.33S11.2 173.8 45.7 173.8S83.71 184.17 118.54 184.17S156.66 187.12 191.39 187.12S228.4 185.98 264.24 185.98S301.4 175.98 337.09 175.98S375.04 176.37 409.93 176.37S447.58 182.52 482.78 182.52S521.61 176.54 555.63 176.54S594.78 180.31 628.48 180.31S666.23 187.21 701.32 187.21S739.35 193.17 774.17 193.17S812.44 173.13 847.02 173.13S885.76 192.69 919.87 192.69S958.53 183.83 992.72 183.83S1031.46 185.79 1065.56 185.79S1103.76 173.68 1138.41 173.68S1176.02 193.58 1211.26 193.58S1248.56 179.8 1284.11 179.8S1321.89 192.64 1356.95 192.64S1394.87 178.9 1429.8 178.9S1468.47 183.01 1502.65 183.01S1539.75 189.55 1575.5 189.55S1613.59 189.39 1648.34 189.39S1685.43 192.82 1721.19 192.82S1757.63 177.14 1794.04 177.14S1833.25 176.93 1866.89 176.93S1904.28 179.93 1939.74 179.93S1976.71 185.27 2012.58 185.27S2050.57 180.56 2085.43 180.56S2124.61 186.97 2158.28 186.97L2100 800 L-100 800 Z;M-100 184.02C-61.85 190.61 -61.07 177.15 -27.15 177.15S11.55 176.09 45.7 176.09S83.62 178.57 118.54 178.57S155.68 185.4 191.39 185.4S230.56 189.57 264.24 189.57S301.93 177.4 337.09 177.4S376.09 177.92 409.93 177.92S448.56 187.12 482.78 187.12S519.76 197.93 555.63 197.93S592.61 180.4 628.48 180.4S666.19 190.97 701.32 190.97S737.86 180.73 774.17 180.73S813.2 195.69 847.02 195.69S886.06 187.17 919.87 187.17S958.19 179.41 992.72 179.41S1031.36 191.26 1065.56 191.26S1103.83 186.79 1138.41 186.79S1175.36 176.09 1211.26 176.09S1248.64 186.71 1284.11 186.71S1321.04 178.72 1356.95 178.72S1395.05 198.51 1429.8 198.51S1466.56 188.62 1502.65 188.62S1541.04 182.95 1575.5 182.95S1612.91 174.36 1648.34 174.36S1685.87 188.66 1721.19 188.66S1757.7 177.24 1794.04 177.24S1831.09 190.5 1866.89 190.5S1904.56 171.16 1939.74 171.16S1978.48 190.94 2012.58 190.94S2049.44 198.35 2085.43 198.35S2122.47 197.98 2158.28 197.98L2100 800 L-100 800 Z"></animate>
  <animateTransform attributeName="transform" type="translate" dur="10.843373493975903s" begin="-1.0843373493975903s" repeatCount="indefinite" values="0;10;0" calcMode="spline" keySplines="0.3 0 0.7 1;0.3 0 0.7 1"></animateTransform>
</path><path d="M-100 181.32C-60.5 191.56 -60.13 184.09 -25.17 184.09S14.29 190.45 49.66 190.45S88.48 202.56 124.49 202.56S163.61 187.51 199.32 187.51S237.45 205.47 274.15 205.47S311.67 184.5 348.98 184.5S387.25 207.46 423.81 207.46S461.69 199.48 498.64 199.48S537.9 188.43 573.47 188.43S610.89 185.32 648.3 185.32S686.82 205.12 723.13 205.12S761.76 199.17 797.96 199.17S835.53 191.35 872.79 191.35S912.03 179.41 947.62 179.41S986.7 189.08 1022.45 189.08S1062.37 185.36 1097.28 185.36S1136.78 187.72 1172.11 187.72S1212.16 193.21 1246.94 193.21S1285.47 205.87 1321.77 205.87S1360.59 203.43 1396.6 203.43S1435.83 188.77 1471.43 188.77S1509.96 184.41 1546.26 184.41S1584.56 177.81 1621.09 177.81S1659.65 177.96 1695.92 177.96S1733.43 187.02 1770.75 187.02S1809.3 204.93 1845.58 204.93S1883.08 192.39 1920.41 192.39S1957.89 180.31 1995.24 180.31S2034.11 194.11 2070.07 194.11S2108.24 192.19 2144.9 192.19L2100 800 L-100 800 Z" fill="#55c8f2" stroke-width="0">
  <animate attributeName="d" dur="9.638554216867469s" repeatCount="indefinite" values="M-100 181.32C-60.5 191.56 -60.13 184.09 -25.17 184.09S14.29 190.45 49.66 190.45S88.48 202.56 124.49 202.56S163.61 187.51 199.32 187.51S237.45 205.47 274.15 205.47S311.67 184.5 348.98 184.5S387.25 207.46 423.81 207.46S461.69 199.48 498.64 199.48S537.9 188.43 573.47 188.43S610.89 185.32 648.3 185.32S686.82 205.12 723.13 205.12S761.76 199.17 797.96 199.17S835.53 191.35 872.79 191.35S912.03 179.41 947.62 179.41S986.7 189.08 1022.45 189.08S1062.37 185.36 1097.28 185.36S1136.78 187.72 1172.11 187.72S1212.16 193.21 1246.94 193.21S1285.47 205.87 1321.77 205.87S1360.59 203.43 1396.6 203.43S1435.83 188.77 1471.43 188.77S1509.96 184.41 1546.26 184.41S1584.56 177.81 1621.09 177.81S1659.65 177.96 1695.92 177.96S1733.43 187.02 1770.75 187.02S1809.3 204.93 1845.58 204.93S1883.08 192.39 1920.41 192.39S1957.89 180.31 1995.24 180.31S2034.11 194.11 2070.07 194.11S2108.24 192.19 2144.9 192.19L2100 800 L-100 800 Z;M-100 180.29C-60.48 201.55 -59.99 207.73 -25.17 207.73S12.83 179.98 49.66 179.98S89.3 198.42 124.49 198.42S163.58 206.42 199.32 206.42S237.02 199.47 274.15 199.47S311.59 184.53 348.98 184.53S387.19 185.68 423.81 185.68S461.7 198.76 498.64 198.76S538.42 202.64 573.47 202.64S612.36 192.27 648.3 192.27S687.15 199.37 723.13 199.37S761.87 200.76 797.96 200.76S838.01 201.49 872.79 201.49S912.9 193.43 947.62 193.43S987.13 191.61 1022.45 191.61S1062.15 190.03 1097.28 190.03S1137.46 186.79 1172.11 186.79S1211.39 204.99 1246.94 204.99S1285.67 199.55 1321.77 199.55S1360.41 192.73 1396.6 192.73S1436.64 186.98 1471.43 186.98S1510.39 200.4 1546.26 200.4S1585.2 199.09 1621.09 199.09S1659.69 198.78 1695.92 198.78S1735.74 202.3 1770.75 202.3S1810.8 208.61 1845.58 208.61S1885.56 209.19 1920.41 209.19S1958.35 203.19 1995.24 203.19S2033.95 187.21 2070.07 187.21S2109.63 198.1 2144.9 198.1L2100 800 L-100 800 Z;M-100 181.32C-60.5 191.56 -60.13 184.09 -25.17 184.09S14.29 190.45 49.66 190.45S88.48 202.56 124.49 202.56S163.61 187.51 199.32 187.51S237.45 205.47 274.15 205.47S311.67 184.5 348.98 184.5S387.25 207.46 423.81 207.46S461.69 199.48 498.64 199.48S537.9 188.43 573.47 188.43S610.89 185.32 648.3 185.32S686.82 205.12 723.13 205.12S761.76 199.17 797.96 199.17S835.53 191.35 872.79 191.35S912.03 179.41 947.62 179.41S986.7 189.08 1022.45 189.08S1062.37 185.36 1097.28 185.36S1136.78 187.72 1172.11 187.72S1212.16 193.21 1246.94 193.21S1285.47 205.87 1321.77 205.87S1360.59 203.43 1396.6 203.43S1435.83 188.77 1471.43 188.77S1509.96 184.41 1546.26 184.41S1584.56 177.81 1621.09 177.81S1659.65 177.96 1695.92 177.96S1733.43 187.02 1770.75 187.02S1809.3 204.93 1845.58 204.93S1883.08 192.39 1920.41 192.39S1957.89 180.31 1995.24 180.31S2034.11 194.11 2070.07 194.11S2108.24 192.19 2144.9 192.19L2100 800 L-100 800 Z"></animate>
  <animateTransform attributeName="transform" type="translate" dur="9.638554216867469s" begin="-1.9277108433734937s" repeatCount="indefinite" values="0;10;0" calcMode="spline" keySplines="0.3 0 0.7 1;0.3 0 0.7 1"></animateTransform>
</path><path d="M-100 204.57C-61.24 187.93 -59.82 196.07 -23.08 196.07S17.79 195.76 53.85 195.76S93.73 207.17 130.77 207.17S171.9 194.63 207.69 194.63S248.92 203.02 284.62 203.02S324.23 190.39 361.54 190.39S402.73 212.77 438.46 212.77S478.52 217.86 515.38 217.86S553.93 218.46 592.31 218.46S633.26 201.7 669.23 201.7S709.2 219.31 746.15 219.31S786.33 192.53 823.08 192.53S862.12 210.51 900 210.51S940.11 195.75 976.92 195.75S1016.92 211.29 1053.85 211.29S1092.74 194.29 1130.77 194.29S1171.02 211.37 1207.69 211.37S1248.89 208.26 1284.62 208.26S1325.59 197.33 1361.54 197.33S1401.59 206.85 1438.46 206.85S1477.58 205.44 1515.38 205.44S1556.48 190.5 1592.31 190.5S1632.37 211.28 1669.23 211.28S1710.36 188.28 1746.15 188.28S1785.27 206.47 1823.08 206.47S1864.04 209.93 1900 209.93S1939.63 198.23 1976.92 198.23S2016.77 193.89 2053.85 193.89S2094.81 203.29 2130.77 203.29L2100 800 L-100 800 Z" fill="#64d0f0" stroke-width="0">
  <animate attributeName="d" dur="8.433734939759036s" repeatCount="indefinite" values="M-100 204.57C-61.24 187.93 -59.82 196.07 -23.08 196.07S17.79 195.76 53.85 195.76S93.73 207.17 130.77 207.17S171.9 194.63 207.69 194.63S248.92 203.02 284.62 203.02S324.23 190.39 361.54 190.39S402.73 212.77 438.46 212.77S478.52 217.86 515.38 217.86S553.93 218.46 592.31 218.46S633.26 201.7 669.23 201.7S709.2 219.31 746.15 219.31S786.33 192.53 823.08 192.53S862.12 210.51 900 210.51S940.11 195.75 976.92 195.75S1016.92 211.29 1053.85 211.29S1092.74 194.29 1130.77 194.29S1171.02 211.37 1207.69 211.37S1248.89 208.26 1284.62 208.26S1325.59 197.33 1361.54 197.33S1401.59 206.85 1438.46 206.85S1477.58 205.44 1515.38 205.44S1556.48 190.5 1592.31 190.5S1632.37 211.28 1669.23 211.28S1710.36 188.28 1746.15 188.28S1785.27 206.47 1823.08 206.47S1864.04 209.93 1900 209.93S1939.63 198.23 1976.92 198.23S2016.77 193.89 2053.85 193.89S2094.81 203.29 2130.77 203.29L2100 800 L-100 800 Z;M-100 212.95C-59.49 192.77 -60.62 203.51 -23.08 203.51S17.16 194.44 53.85 194.44S92.96 204.99 130.77 204.99S171.7 198.54 207.69 198.54S247.1 215.26 284.62 215.26S324.25 208.48 361.54 208.48S401.58 207.06 438.46 207.06S477.99 211.64 515.38 211.64S556.1 215.19 592.31 215.19S632.86 187.76 669.23 187.76S709.21 197.01 746.15 197.01S787.37 186.73 823.08 186.73S862.69 213.83 900 213.83S940.96 210.99 976.92 210.99S1015.52 208.19 1053.85 208.19S1093.54 211.38 1130.77 211.38S1170.55 217.18 1207.69 217.18S1248.78 187.59 1284.62 187.59S1324.29 213.49 1361.54 213.49S1401.48 204.11 1438.46 204.11S1477.69 215.24 1515.38 215.24S1556.21 197.68 1592.31 197.68S1632.57 211.37 1669.23 211.37S1709.04 214.06 1746.15 214.06S1786.98 193.06 1823.08 193.06S1863.67 192.19 1900 192.19S1938.87 195.18 1976.92 195.18S2016.75 203.69 2053.85 203.69S2094.38 206.81 2130.77 206.81L2100 800 L-100 800 Z;M-100 204.57C-61.24 187.93 -59.82 196.07 -23.08 196.07S17.79 195.76 53.85 195.76S93.73 207.17 130.77 207.17S171.9 194.63 207.69 194.63S248.92 203.02 284.62 203.02S324.23 190.39 361.54 190.39S402.73 212.77 438.46 212.77S478.52 217.86 515.38 217.86S553.93 218.46 592.31 218.46S633.26 201.7 669.23 201.7S709.2 219.31 746.15 219.31S786.33 192.53 823.08 192.53S862.12 210.51 900 210.51S940.11 195.75 976.92 195.75S1016.92 211.29 1053.85 211.29S1092.74 194.29 1130.77 194.29S1171.02 211.37 1207.69 211.37S1248.89 208.26 1284.62 208.26S1325.59 197.33 1361.54 197.33S1401.59 206.85 1438.46 206.85S1477.58 205.44 1515.38 205.44S1556.48 190.5 1592.31 190.5S1632.37 211.28 1669.23 211.28S1710.36 188.28 1746.15 188.28S1785.27 206.47 1823.08 206.47S1864.04 209.93 1900 209.93S1939.63 198.23 1976.92 198.23S2016.77 193.89 2053.85 193.89S2094.81 203.29 2130.77 203.29L2100 800 L-100 800 Z"></animate>
  <animateTransform attributeName="transform" type="translate" dur="8.433734939759036s" begin="-2.530120481927711s" repeatCount="indefinite" values="0;10;0" calcMode="spline" keySplines="0.3 0 0.7 1;0.3 0 0.7 1"></animateTransform>
</path><path d="M-100 208.46C-58.41 223.02 -60.1 222.84 -20.86 222.84S20.87 219.26 58.27 219.26S98.53 222.44 137.41 222.44S178.26 198.17 216.55 198.17S258.5 208.2 295.68 208.2S337.87 197.42 374.82 197.42S414.88 198.71 453.96 198.71S493.94 201.8 533.09 201.8S575.43 229.98 612.23 229.98S654.24 196.03 691.37 196.03S732.62 205.59 770.5 205.59S812.51 199.4 849.64 199.4S889.33 196.69 928.78 196.69S968.87 205.45 1007.91 205.45S1049.95 229.87 1087.05 229.87S1129.09 222.6 1166.19 222.6S1207.79 210.46 1245.32 210.46S1285.68 229.27 1324.46 229.27S1366.47 204.58 1403.6 204.58S1443.53 198.79 1482.73 198.79S1523.63 228.24 1561.87 228.24S1602.48 204.31 1641.01 204.31S1682.42 218.35 1720.14 218.35S1761.37 214.71 1799.28 214.71S1840.89 226.04 1878.42 226.04S1919.6 215.2 1957.55 215.2S1999.33 227.35 2036.69 227.35S2076.83 199.12 2115.83 199.12L2100 800 L-100 800 Z" fill="#74d8ee" stroke-width="0">
  <animate attributeName="d" dur="7.228915662650602s" repeatCount="indefinite" values="M-100 208.46C-58.41 223.02 -60.1 222.84 -20.86 222.84S20.87 219.26 58.27 219.26S98.53 222.44 137.41 222.44S178.26 198.17 216.55 198.17S258.5 208.2 295.68 208.2S337.87 197.42 374.82 197.42S414.88 198.71 453.96 198.71S493.94 201.8 533.09 201.8S575.43 229.98 612.23 229.98S654.24 196.03 691.37 196.03S732.62 205.59 770.5 205.59S812.51 199.4 849.64 199.4S889.33 196.69 928.78 196.69S968.87 205.45 1007.91 205.45S1049.95 229.87 1087.05 229.87S1129.09 222.6 1166.19 222.6S1207.79 210.46 1245.32 210.46S1285.68 229.27 1324.46 229.27S1366.47 204.58 1403.6 204.58S1443.53 198.79 1482.73 198.79S1523.63 228.24 1561.87 228.24S1602.48 204.31 1641.01 204.31S1682.42 218.35 1720.14 218.35S1761.37 214.71 1799.28 214.71S1840.89 226.04 1878.42 226.04S1919.6 215.2 1957.55 215.2S1999.33 227.35 2036.69 227.35S2076.83 199.12 2115.83 199.12L2100 800 L-100 800 Z;M-100 207.06C-57.92 222.72 -59.63 215.61 -20.86 215.61S19.7 202.33 58.27 202.33S98.49 218.02 137.41 218.02S178.92 209.56 216.55 209.56S257.51 210.27 295.68 210.27S336.89 212.36 374.82 212.36S414.73 205.75 453.96 205.75S494.4 197.93 533.09 197.93S574.7 220.3 612.23 220.3S653.43 213.95 691.37 213.95S733.02 226.5 770.5 226.5S811.21 216.99 849.64 216.99S891.97 217.36 928.78 217.36S968.82 214.49 1007.91 214.49S1049.22 231.66 1087.05 231.66S1129.16 200.83 1166.19 200.83S1208.49 221.62 1245.32 221.62S1285.08 218.17 1324.46 218.17S1365.76 214.67 1403.6 214.67S1445.68 215.13 1482.73 215.13S1524.2 229.1 1561.87 229.1S1602.72 216.14 1641.01 216.14S1680.91 215.2 1720.14 215.2S1761.62 219.3 1799.28 219.3S1841.19 222.35 1878.42 222.35S1919.76 214.44 1957.55 214.44S1999.89 233.12 2036.69 233.12S2077.76 218.97 2115.83 218.97L2100 800 L-100 800 Z;M-100 208.46C-58.41 223.02 -60.1 222.84 -20.86 222.84S20.87 219.26 58.27 219.26S98.53 222.44 137.41 222.44S178.26 198.17 216.55 198.17S258.5 208.2 295.68 208.2S337.87 197.42 374.82 197.42S414.88 198.71 453.96 198.71S493.94 201.8 533.09 201.8S575.43 229.98 612.23 229.98S654.24 196.03 691.37 196.03S732.62 205.59 770.5 205.59S812.51 199.4 849.64 199.4S889.33 196.69 928.78 196.69S968.87 205.45 1007.91 205.45S1049.95 229.87 1087.05 229.87S1129.09 222.6 1166.19 222.6S1207.79 210.46 1245.32 210.46S1285.68 229.27 1324.46 229.27S1366.47 204.58 1403.6 204.58S1443.53 198.79 1482.73 198.79S1523.63 228.24 1561.87 228.24S1602.48 204.31 1641.01 204.31S1682.42 218.35 1720.14 218.35S1761.37 214.71 1799.28 214.71S1840.89 226.04 1878.42 226.04S1919.6 215.2 1957.55 215.2S1999.33 227.35 2036.69 227.35S2076.83 199.12 2115.83 199.12L2100 800 L-100 800 Z"></animate>
  <animateTransform attributeName="transform" type="translate" dur="7.228915662650602s" begin="-2.8915662650602405s" repeatCount="indefinite" values="0;10;0" calcMode="spline" keySplines="0.3 0 0.7 1;0.3 0 0.7 1"></animateTransform>
</path><path d="M-100 239.14C-57.05 240.5 -57.99 225.23 -18.52 225.23S22.7 223.54 62.96 223.54S104.5 243.8 144.44 243.8S187.87 212.14 225.93 212.14S268.45 220.02 307.41 220.02S350.5 211.25 388.89 211.25S429.91 235.05 470.37 235.05S511.79 205.43 551.85 205.43S593.36 228.54 633.33 228.54S674.5 212 714.81 212S757.48 223.22 796.3 223.22S837.77 218.52 877.78 218.52S920.09 235.63 959.26 235.63S1001.95 243.03 1040.74 243.03S1083.54 204.67 1122.22 204.67S1164.94 212.3 1203.7 212.3S1246.48 227.34 1285.19 227.34S1327.46 220.17 1366.67 220.17S1409.16 234.61 1448.15 234.61S1489.46 209.36 1529.63 209.36S1570.39 227.7 1611.11 227.7S1654.6 212.74 1692.59 212.74S1734.15 244.19 1774.07 244.19S1816.99 229.17 1855.56 229.17S1896.44 234.89 1937.04 234.89S1978.6 205.91 2018.52 205.91S2059.92 234.97 2100 234.97S2142.72 228.06 2181.48 228.06L2100 800 L-100 800 Z" fill="#84dfed" stroke-width="0">
  <animate attributeName="d" dur="6.024096385542168s" repeatCount="indefinite" values="M-100 239.14C-57.05 240.5 -57.99 225.23 -18.52 225.23S22.7 223.54 62.96 223.54S104.5 243.8 144.44 243.8S187.87 212.14 225.93 212.14S268.45 220.02 307.41 220.02S350.5 211.25 388.89 211.25S429.91 235.05 470.37 235.05S511.79 205.43 551.85 205.43S593.36 228.54 633.33 228.54S674.5 212 714.81 212S757.48 223.22 796.3 223.22S837.77 218.52 877.78 218.52S920.09 235.63 959.26 235.63S1001.95 243.03 1040.74 243.03S1083.54 204.67 1122.22 204.67S1164.94 212.3 1203.7 212.3S1246.48 227.34 1285.19 227.34S1327.46 220.17 1366.67 220.17S1409.16 234.61 1448.15 234.61S1489.46 209.36 1529.63 209.36S1570.39 227.7 1611.11 227.7S1654.6 212.74 1692.59 212.74S1734.15 244.19 1774.07 244.19S1816.99 229.17 1855.56 229.17S1896.44 234.89 1937.04 234.89S1978.6 205.91 2018.52 205.91S2059.92 234.97 2100 234.97S2142.72 228.06 2181.48 228.06L2100 800 L-100 800 Z;M-100 230.48C-57.36 225.34 -56.52 241.85 -18.52 241.85S24.3 219.77 62.96 219.77S105.58 236.85 144.44 236.85S187.49 224.43 225.93 224.43S269.41 220.2 307.41 220.2S348.89 211.07 388.89 211.07S432.36 232.46 470.37 232.46S513.73 212.2 551.85 212.2S593.17 225.77 633.33 225.77S676.58 228.64 714.81 228.64S758.16 242.45 796.3 242.45S838.53 231.59 877.78 231.59S921.29 221.04 959.26 221.04S1001.74 212.37 1040.74 212.37S1082.63 234.03 1122.22 234.03S1163.99 221.48 1203.7 221.48S1246.88 239.68 1285.19 239.68S1328.01 239.86 1366.67 239.86S1410.16 230.8 1448.15 230.8S1489.36 210.31 1529.63 210.31S1571.39 220.25 1611.11 220.25S1654.46 205.11 1692.59 205.11S1733.52 231.38 1774.07 231.38S1815.93 218.94 1855.56 218.94S1896.95 236.7 1937.04 236.7S1979.88 228.12 2018.52 228.12S2060.93 235.48 2100 235.48S2142.23 223.46 2181.48 223.46L2100 800 L-100 800 Z;M-100 239.14C-57.05 240.5 -57.99 225.23 -18.52 225.23S22.7 223.54 62.96 223.54S104.5 243.8 144.44 243.8S187.87 212.14 225.93 212.14S268.45 220.02 307.41 220.02S350.5 211.25 388.89 211.25S429.91 235.05 470.37 235.05S511.79 205.43 551.85 205.43S593.36 228.54 633.33 228.54S674.5 212 714.81 212S757.48 223.22 796.3 223.22S837.77 218.52 877.78 218.52S920.09 235.63 959.26 235.63S1001.95 243.03 1040.74 243.03S1083.54 204.67 1122.22 204.67S1164.94 212.3 1203.7 212.3S1246.48 227.34 1285.19 227.34S1327.46 220.17 1366.67 220.17S1409.16 234.61 1448.15 234.61S1489.46 209.36 1529.63 209.36S1570.39 227.7 1611.11 227.7S1654.6 212.74 1692.59 212.74S1734.15 244.19 1774.07 244.19S1816.99 229.17 1855.56 229.17S1896.44 234.89 1937.04 234.89S1978.6 205.91 2018.52 205.91S2059.92 234.97 2100 234.97S2142.72 228.06 2181.48 228.06L2100 800 L-100 800 Z"></animate>
  <animateTransform attributeName="transform" type="translate" dur="6.024096385542168s" begin="-3.012048192771084s" repeatCount="indefinite" values="0;10;0" calcMode="spline" keySplines="0.3 0 0.7 1;0.3 0 0.7 1"></animateTransform>
</path><path d="M-100 230.43C-56.05 224.22 -57.54 233.62 -16.03 233.62S26.59 240.37 67.94 240.37S111.43 242.34 151.91 242.34S194.68 218.8 235.88 218.8S279.76 246.76 319.85 246.76S362.68 223.54 403.82 223.54S447.22 226.98 487.79 226.98S530.29 212.86 571.76 212.86S614.52 235.98 655.73 235.98S699.6 242.34 739.69 242.34S781.72 254.47 823.66 254.47S866.1 224.23 907.63 224.23S951.61 240.15 991.6 240.15S1035.48 238.34 1075.57 238.34S1119.81 231.33 1159.54 231.33S1201.77 216.51 1243.51 216.51S1287.03 254.59 1327.48 254.59S1371.23 239.4 1411.45 239.4S1454.44 254.37 1495.42 254.37S1539.92 239.41 1579.39 239.41S1623.64 214.16 1663.36 214.16S1707.29 232.12 1747.33 232.12S1790.99 248.75 1831.3 248.75S1873.78 233.01 1915.27 233.01S1957.76 235.85 1999.24 235.85S2041.51 238.65 2083.21 238.65S2125.95 239.74 2167.18 239.74L2100 800 L-100 800 Z" fill="#94e6ed" stroke-width="0">
  <animate attributeName="d" dur="4.8192771084337345s" repeatCount="indefinite" values="M-100 230.43C-56.05 224.22 -57.54 233.62 -16.03 233.62S26.59 240.37 67.94 240.37S111.43 242.34 151.91 242.34S194.68 218.8 235.88 218.8S279.76 246.76 319.85 246.76S362.68 223.54 403.82 223.54S447.22 226.98 487.79 226.98S530.29 212.86 571.76 212.86S614.52 235.98 655.73 235.98S699.6 242.34 739.69 242.34S781.72 254.47 823.66 254.47S866.1 224.23 907.63 224.23S951.61 240.15 991.6 240.15S1035.48 238.34 1075.57 238.34S1119.81 231.33 1159.54 231.33S1201.77 216.51 1243.51 216.51S1287.03 254.59 1327.48 254.59S1371.23 239.4 1411.45 239.4S1454.44 254.37 1495.42 254.37S1539.92 239.41 1579.39 239.41S1623.64 214.16 1663.36 214.16S1707.29 232.12 1747.33 232.12S1790.99 248.75 1831.3 248.75S1873.78 233.01 1915.27 233.01S1957.76 235.85 1999.24 235.85S2041.51 238.65 2083.21 238.65S2125.95 239.74 2167.18 239.74L2100 800 L-100 800 Z;M-100 236.05C-56.62 225.37 -57.67 238.69 -16.03 238.69S28.72 229.42 67.94 229.42S110.87 230.93 151.91 230.93S194.44 232.75 235.88 232.75S279.87 245.41 319.85 245.41S363.85 236.69 403.82 236.69S446.19 236.52 487.79 236.52S531.72 219.64 571.76 219.64S614.74 227.88 655.73 227.88S698.03 229.99 739.69 229.99S781.96 250.21 823.66 250.21S867.98 226.49 907.63 226.49S952.21 227.05 991.6 227.05S1035.69 248.39 1075.57 248.39S1117.7 254.05 1159.54 254.05S1203.27 230.11 1243.51 230.11S1287.68 232.26 1327.48 232.26S1371.1 245.72 1411.45 245.72S1455.65 233.79 1495.42 233.79S1537.55 233.82 1579.39 233.82S1621.48 250.14 1663.36 250.14S1707.73 222.24 1747.33 222.24S1792.09 230.31 1831.3 230.31S1873.56 236.97 1915.27 236.97S1957.69 225.74 1999.24 225.74S2041.31 226.35 2083.21 226.35S2125.86 238.08 2167.18 238.08L2100 800 L-100 800 Z;M-100 230.43C-56.05 224.22 -57.54 233.62 -16.03 233.62S26.59 240.37 67.94 240.37S111.43 242.34 151.91 242.34S194.68 218.8 235.88 218.8S279.76 246.76 319.85 246.76S362.68 223.54 403.82 223.54S447.22 226.98 487.79 226.98S530.29 212.86 571.76 212.86S614.52 235.98 655.73 235.98S699.6 242.34 739.69 242.34S781.72 254.47 823.66 254.47S866.1 224.23 907.63 224.23S951.61 240.15 991.6 240.15S1035.48 238.34 1075.57 238.34S1119.81 231.33 1159.54 231.33S1201.77 216.51 1243.51 216.51S1287.03 254.59 1327.48 254.59S1371.23 239.4 1411.45 239.4S1454.44 254.37 1495.42 254.37S1539.92 239.41 1579.39 239.41S1623.64 214.16 1663.36 214.16S1707.29 232.12 1747.33 232.12S1790.99 248.75 1831.3 248.75S1873.78 233.01 1915.27 233.01S1957.76 235.85 1999.24 235.85S2041.51 238.65 2083.21 238.65S2125.95 239.74 2167.18 239.74L2100 800 L-100 800 Z"></animate>
  <animateTransform attributeName="transform" type="translate" dur="4.8192771084337345s" begin="-2.8915662650602405s" repeatCount="indefinite" values="0;10;0" calcMode="spline" keySplines="0.3 0 0.7 1;0.3 0 0.7 1"></animateTransform>
</path><path d="M-100 251.5C-55.49 260.18 -54.59 231.83 -13.39 231.83S32.26 241.31 73.23 241.31S118.07 252.31 159.84 252.31S205.78 222.34 246.46 222.34S292.41 252.67 333.07 252.67S378.2 222.71 419.69 222.71S465.41 261.34 506.3 261.34S551.62 258.87 592.91 258.87S636.71 258.59 679.53 258.59S723.2 244.51 766.14 244.51S809.72 243.31 852.76 243.31S898.27 240.59 939.37 240.59S984.48 239.03 1025.98 239.03S1069.51 233.4 1112.6 233.4S1157.01 245.75 1199.21 245.75S1244.75 243.49 1285.83 243.49S1329.29 260.94 1372.44 260.94S1417.95 238.04 1459.06 238.04S1503.64 250.14 1545.67 250.14S1590.64 260.08 1632.28 260.08S1675.96 247.15 1718.9 247.15S1764.15 226.21 1805.51 226.21S1849.48 257.57 1892.13 257.57S1936.12 245.21 1978.74 245.21S2023.37 242.62 2065.35 242.62S2110.63 243.01 2151.97 243.01L2100 800 L-100 800 Z" fill="#a4eced" stroke-width="0">
  <animate attributeName="d" dur="3.614457831325301s" repeatCount="indefinite" values="M-100 251.5C-55.49 260.18 -54.59 231.83 -13.39 231.83S32.26 241.31 73.23 241.31S118.07 252.31 159.84 252.31S205.78 222.34 246.46 222.34S292.41 252.67 333.07 252.67S378.2 222.71 419.69 222.71S465.41 261.34 506.3 261.34S551.62 258.87 592.91 258.87S636.71 258.59 679.53 258.59S723.2 244.51 766.14 244.51S809.72 243.31 852.76 243.31S898.27 240.59 939.37 240.59S984.48 239.03 1025.98 239.03S1069.51 233.4 1112.6 233.4S1157.01 245.75 1199.21 245.75S1244.75 243.49 1285.83 243.49S1329.29 260.94 1372.44 260.94S1417.95 238.04 1459.06 238.04S1503.64 250.14 1545.67 250.14S1590.64 260.08 1632.28 260.08S1675.96 247.15 1718.9 247.15S1764.15 226.21 1805.51 226.21S1849.48 257.57 1892.13 257.57S1936.12 245.21 1978.74 245.21S2023.37 242.62 2065.35 242.62S2110.63 243.01 2151.97 243.01L2100 800 L-100 800 Z;M-100 223.24C-55.48 242.88 -55.87 245.18 -13.39 245.18S31.87 224.41 73.23 224.41S117.92 260.51 159.84 260.51S204.92 233.36 246.46 233.36S289.86 252.83 333.07 252.83S378.58 221.62 419.69 221.62S464.62 264.59 506.3 264.59S550.02 239.35 592.91 239.35S638.35 248.66 679.53 248.66S724.47 226.99 766.14 226.99S810.43 263 852.76 263S897.48 232.2 939.37 232.2S983.5 262.93 1025.98 262.93S1070.33 248.72 1112.6 248.72S1157.32 244 1199.21 244S1244.14 229.79 1285.83 229.79S1331.09 249.83 1372.44 249.83S1415.95 229.91 1459.06 229.91S1505.01 252.37 1545.67 252.37S1590.22 241.6 1632.28 241.6S1677.29 247.02 1718.9 247.02S1764.15 248.89 1805.51 248.89S1850.14 250.98 1892.13 250.98S1935.86 232.62 1978.74 232.62S2023.78 239.44 2065.35 239.44S2109 249.07 2151.97 249.07L2100 800 L-100 800 Z;M-100 251.5C-55.49 260.18 -54.59 231.83 -13.39 231.83S32.26 241.31 73.23 241.31S118.07 252.31 159.84 252.31S205.78 222.34 246.46 222.34S292.41 252.67 333.07 252.67S378.2 222.71 419.69 222.71S465.41 261.34 506.3 261.34S551.62 258.87 592.91 258.87S636.71 258.59 679.53 258.59S723.2 244.51 766.14 244.51S809.72 243.31 852.76 243.31S898.27 240.59 939.37 240.59S984.48 239.03 1025.98 239.03S1069.51 233.4 1112.6 233.4S1157.01 245.75 1199.21 245.75S1244.75 243.49 1285.83 243.49S1329.29 260.94 1372.44 260.94S1417.95 238.04 1459.06 238.04S1503.64 250.14 1545.67 250.14S1590.64 260.08 1632.28 260.08S1675.96 247.15 1718.9 247.15S1764.15 226.21 1805.51 226.21S1849.48 257.57 1892.13 257.57S1936.12 245.21 1978.74 245.21S2023.37 242.62 2065.35 242.62S2110.63 243.01 2151.97 243.01L2100 800 L-100 800 Z"></animate>
  <animateTransform attributeName="transform" type="translate" dur="3.614457831325301s" begin="-2.5301204819277108s" repeatCount="indefinite" values="0;10;0" calcMode="spline" keySplines="0.3 0 0.7 1;0.3 0 0.7 1"></animateTransform>
</path><path d="M-100 231.82C-53.75 238.43 -54.32 256.77 -10.57 256.77S35.23 252.58 78.86 252.58S126.04 259.25 168.29 259.25S213.48 263.46 257.72 263.46S304.04 255.91 347.15 255.91S392.43 231.6 436.59 231.6S482.66 265.96 526.02 265.96S573.26 244.2 615.45 244.2S662.11 263.93 704.88 263.93S751.03 253.09 794.31 253.09S841.52 275.35 883.74 275.35S928.59 235.26 973.17 235.26S1018.59 266.92 1062.6 266.92S1107.73 276.78 1152.03 276.78S1198.42 273.02 1241.46 273.02S1287.2 254.94 1330.89 254.94S1378.12 274.68 1420.33 274.68S1466.85 253.51 1509.76 253.51S1555.45 256.28 1599.19 256.28S1644.47 269.55 1688.62 269.55S1734.07 264.18 1778.05 264.18S1823.12 248.09 1867.48 248.09S1912.55 253.29 1956.91 253.29S2001.93 241.58 2046.34 241.58S2093.25 266 2135.77 266L2100 800 L-100 800 Z" fill="#b5f3ef" stroke-width="0">
  <animate attributeName="d" dur="2.4096385542168672s" repeatCount="indefinite" values="M-100 231.82C-53.75 238.43 -54.32 256.77 -10.57 256.77S35.23 252.58 78.86 252.58S126.04 259.25 168.29 259.25S213.48 263.46 257.72 263.46S304.04 255.91 347.15 255.91S392.43 231.6 436.59 231.6S482.66 265.96 526.02 265.96S573.26 244.2 615.45 244.2S662.11 263.93 704.88 263.93S751.03 253.09 794.31 253.09S841.52 275.35 883.74 275.35S928.59 235.26 973.17 235.26S1018.59 266.92 1062.6 266.92S1107.73 276.78 1152.03 276.78S1198.42 273.02 1241.46 273.02S1287.2 254.94 1330.89 254.94S1378.12 274.68 1420.33 274.68S1466.85 253.51 1509.76 253.51S1555.45 256.28 1599.19 256.28S1644.47 269.55 1688.62 269.55S1734.07 264.18 1778.05 264.18S1823.12 248.09 1867.48 248.09S1912.55 253.29 1956.91 253.29S2001.93 241.58 2046.34 241.58S2093.25 266 2135.77 266L2100 800 L-100 800 Z;M-100 250.76C-53.56 233.32 -54.93 238.74 -10.57 238.74S35.98 235.63 78.86 235.63S125.45 277.82 168.29 277.82S215.32 247.41 257.72 247.41S304.97 276.52 347.15 276.52S391.96 237.74 436.59 237.74S481.61 267.33 526.02 267.33S570.88 255.87 615.45 255.87S661.29 253.75 704.88 253.75S750.08 253.31 794.31 253.31S840.14 258.75 883.74 258.75S930.35 232.63 973.17 232.63S1017.91 262.28 1062.6 262.28S1109.05 234.06 1152.03 234.06S1197.98 269.16 1241.46 269.16S1287.67 278.04 1330.89 278.04S1376.37 257.33 1420.33 257.33S1465.46 233.76 1509.76 233.76S1554.6 276.83 1599.19 276.83S1643.95 272.82 1688.62 272.82S1733.46 277.08 1778.05 277.08S1823.71 232.07 1867.48 232.07S1914.33 247.01 1956.91 247.01S2002.92 241.43 2046.34 241.43S2091.21 259.95 2135.77 259.95L2100 800 L-100 800 Z;M-100 231.82C-53.75 238.43 -54.32 256.77 -10.57 256.77S35.23 252.58 78.86 252.58S126.04 259.25 168.29 259.25S213.48 263.46 257.72 263.46S304.04 255.91 347.15 255.91S392.43 231.6 436.59 231.6S482.66 265.96 526.02 265.96S573.26 244.2 615.45 244.2S662.11 263.93 704.88 263.93S751.03 253.09 794.31 253.09S841.52 275.35 883.74 275.35S928.59 235.26 973.17 235.26S1018.59 266.92 1062.6 266.92S1107.73 276.78 1152.03 276.78S1198.42 273.02 1241.46 273.02S1287.2 254.94 1330.89 254.94S1378.12 274.68 1420.33 274.68S1466.85 253.51 1509.76 253.51S1555.45 256.28 1599.19 256.28S1644.47 269.55 1688.62 269.55S1734.07 264.18 1778.05 264.18S1823.12 248.09 1867.48 248.09S1912.55 253.29 1956.91 253.29S2001.93 241.58 2046.34 241.58S2093.25 266 2135.77 266L2100 800 L-100 800 Z"></animate>
  <animateTransform attributeName="transform" type="translate" dur="2.4096385542168672s" begin="-1.9277108433734937s" repeatCount="indefinite" values="0;10;0" calcMode="spline" keySplines="0.3 0 0.7 1;0.3 0 0.7 1"></animateTransform>
</path><path d="M-100 283.88C-53.23 277.53 -53.73 239.48 -7.56 239.48S40.78 267.05 84.87 267.05S132.3 267.05 177.31 267.05S224.56 264.72 269.75 264.72S317.36 271.46 362.18 271.46S410.79 261.26 454.62 261.26S502.8 279.14 547.06 279.14S593.4 239.85 639.5 239.85S687.04 274.34 731.93 274.34S778.42 262.52 824.37 262.52S871.12 285.69 916.81 285.69S964.99 246.12 1009.24 246.12S1057.09 266.41 1101.68 266.41S1148.38 239.49 1194.12 239.49S1241.18 277.38 1286.55 277.38S1335.17 288.23 1378.99 288.23S1426.05 260.8 1471.43 260.8S1517.95 245.94 1563.87 245.94S1610.79 281.97 1656.3 281.97S1702.86 255.47 1748.74 255.47S1796.67 289 1841.18 289S1889.81 257.55 1933.61 257.55S1981.53 287.89 2026.05 287.89S2073.79 251.85 2118.49 251.85L2100 800 L-100 800 Z" fill="#c5f9f1" stroke-width="0">
  <animate attributeName="d" dur="1.2048192771084336s" repeatCount="indefinite" values="M-100 283.88C-53.23 277.53 -53.73 239.48 -7.56 239.48S40.78 267.05 84.87 267.05S132.3 267.05 177.31 267.05S224.56 264.72 269.75 264.72S317.36 271.46 362.18 271.46S410.79 261.26 454.62 261.26S502.8 279.14 547.06 279.14S593.4 239.85 639.5 239.85S687.04 274.34 731.93 274.34S778.42 262.52 824.37 262.52S871.12 285.69 916.81 285.69S964.99 246.12 1009.24 246.12S1057.09 266.41 1101.68 266.41S1148.38 239.49 1194.12 239.49S1241.18 277.38 1286.55 277.38S1335.17 288.23 1378.99 288.23S1426.05 260.8 1471.43 260.8S1517.95 245.94 1563.87 245.94S1610.79 281.97 1656.3 281.97S1702.86 255.47 1748.74 255.47S1796.67 289 1841.18 289S1889.81 257.55 1933.61 257.55S1981.53 287.89 2026.05 287.89S2073.79 251.85 2118.49 251.85L2100 800 L-100 800 Z;M-100 256.22C-52.13 246.29 -51.9 256.36 -7.56 256.36S41.23 266.45 84.87 266.45S131.27 248.52 177.31 248.52S225.48 283.18 269.75 283.18S317.6 286.93 362.18 286.93S408.61 247.43 454.62 247.43S503.11 279.65 547.06 279.65S594.64 241.7 639.5 241.7S687.64 276.67 731.93 276.67S778.79 256.12 824.37 256.12S870.69 288.71 916.81 288.71S964.95 253.56 1009.24 253.56S1056.74 288.71 1101.68 288.71S1148.96 268.01 1194.12 268.01S1242.87 279.35 1286.55 279.35S1333.81 253.4 1378.99 253.4S1426.94 267.06 1471.43 267.06S1519.27 281.11 1563.87 281.11S1611.72 256.11 1656.3 256.11S1704.94 254.07 1748.74 254.07S1796.69 278.16 1841.18 278.16S1889.14 256.81 1933.61 256.81S1981.95 263.34 2026.05 263.34S2074.17 274.28 2118.49 274.28L2100 800 L-100 800 Z;M-100 283.88C-53.23 277.53 -53.73 239.48 -7.56 239.48S40.78 267.05 84.87 267.05S132.3 267.05 177.31 267.05S224.56 264.72 269.75 264.72S317.36 271.46 362.18 271.46S410.79 261.26 454.62 261.26S502.8 279.14 547.06 279.14S593.4 239.85 639.5 239.85S687.04 274.34 731.93 274.34S778.42 262.52 824.37 262.52S871.12 285.69 916.81 285.69S964.99 246.12 1009.24 246.12S1057.09 266.41 1101.68 266.41S1148.38 239.49 1194.12 239.49S1241.18 277.38 1286.55 277.38S1335.17 288.23 1378.99 288.23S1426.05 260.8 1471.43 260.8S1517.95 245.94 1563.87 245.94S1610.79 281.97 1656.3 281.97S1702.86 255.47 1748.74 255.47S1796.67 289 1841.18 289S1889.81 257.55 1933.61 257.55S1981.53 287.89 2026.05 287.89S2073.79 251.85 2118.49 251.85L2100 800 L-100 800 Z"></animate>
  <animateTransform attributeName="transform" type="translate" dur="1.2048192771084336s" begin="-1.0843373493975903s" repeatCount="indefinite" values="0;10;0" calcMode="spline" keySplines="0.3 0 0.7 1;0.3 0 0.7 1"></animateTransform>
</path></g>
</svg>