<?xml version="1.0" encoding="utf-8"?>
<svg xmlns="http://www.w3.org/2000/svg" xmlns:xlink="http://www.w3.org/1999/xlink" style="margin: auto; background: none; display: block; z-index: 1; position: relative; shape-rendering: auto;" width="1900" height="1200" preserveAspectRatio="xMidYMid" viewBox="0 0 1900 1200">
<g transform=""><path d="M-100 179C-60.55 170.71 -59.45 161.52 -22.22 161.52S17.98 174.32 55.56 174.32S95.32 161.06 133.33 161.06S174.26 169.39 211.11 169.39S251.92 159.09 288.89 159.09S328.18 176.72 366.67 176.72S407.61 165.48 444.44 165.48S485.14 162.35 522.22 162.35S562.15 165.07 600 165.07S641.06 161.07 677.78 161.07S716.73 169.85 755.56 169.85S796.03 169.59 833.33 169.59S872.44 157.72 911.11 157.72S951.33 165.61 988.89 165.61S1029.36 178.67 1066.67 178.67S1106 157.87 1144.44 157.87S1184.68 170.46 1222.22 170.46S1261.82 170.08 1300 170.08S1340.53 175.99 1377.78 175.99S1417.6 175.07 1455.56 175.07S1495.91 167.75 1533.33 167.75S1574.45 162.4 1611.11 162.4S1651.68 156.54 1688.89 156.54S1728.55 165.02 1766.67 165.02S1806.43 168.08 1844.44 168.08S1883.64 158.64 1922.22 158.64S1962.38 167.47 2000 167.47S2040.81 173.41 2077.78 173.41L2000 1200 L-100 1200 Z" fill="#d5fff5" stroke-width="0">
  <animate attributeName="d" dur="10.843373493975903s" repeatCount="indefinite" values="M-100 179C-60.55 170.71 -59.45 161.52 -22.22 161.52S17.98 174.32 55.56 174.32S95.32 161.06 133.33 161.06S174.26 169.39 211.11 169.39S251.92 159.09 288.89 159.09S328.18 176.72 366.67 176.72S407.61 165.48 444.44 165.48S485.14 162.35 522.22 162.35S562.15 165.07 600 165.07S641.06 161.07 677.78 161.07S716.73 169.85 755.56 169.85S796.03 169.59 833.33 169.59S872.44 157.72 911.11 157.72S951.33 165.61 988.89 165.61S1029.36 178.67 1066.67 178.67S1106 157.87 1144.44 157.87S1184.68 170.46 1222.22 170.46S1261.82 170.08 1300 170.08S1340.53 175.99 1377.78 175.99S1417.6 175.07 1455.56 175.07S1495.91 167.75 1533.33 167.75S1574.45 162.4 1611.11 162.4S1651.68 156.54 1688.89 156.54S1728.55 165.02 1766.67 165.02S1806.43 168.08 1844.44 168.08S1883.64 158.64 1922.22 158.64S1962.38 167.47 2000 167.47S2040.81 173.41 2077.78 173.41L2000 1200 L-100 1200 Z;M-100 160.89C-60.9 173 -59.01 159.9 -22.22 159.9S19.04 171.05 55.56 171.05S95.29 173.91 133.33 173.91S174.53 174.98 211.11 174.98S251.89 165.51 288.89 165.51S329.12 169.45 366.67 169.45S406.41 160.7 444.44 160.7S483.98 173.35 522.22 173.35S561.79 178.76 600 178.76S640.79 171.96 677.78 171.96S717.5 173.14 755.56 173.14S796.67 178.65 833.33 178.65S873.77 160.9 911.11 160.9S950.05 179.16 988.89 179.16S1028.87 178.23 1066.67 178.23S1106.57 164.92 1144.44 164.92S1185.63 166.2 1222.22 166.2S1262.67 171.51 1300 171.51S1339.88 172.91 1377.78 172.91S1419 164.07 1455.56 164.07S1494.59 167.52 1533.33 167.52S1573.48 176.16 1611.11 176.16S1652.26 167.89 1688.89 167.89S1729.12 168.59 1766.67 168.59S1807.41 161.39 1844.44 161.39S1885.61 177.75 1922.22 177.75S1961.68 170.19 2000 170.19S2040.82 162.53 2077.78 162.53L2000 1200 L-100 1200 Z;M-100 179C-60.55 170.71 -59.45 161.52 -22.22 161.52S17.98 174.32 55.56 174.32S95.32 161.06 133.33 161.06S174.26 169.39 211.11 169.39S251.92 159.09 288.89 159.09S328.18 176.72 366.67 176.72S407.61 165.48 444.44 165.48S485.14 162.35 522.22 162.35S562.15 165.07 600 165.07S641.06 161.07 677.78 161.07S716.73 169.85 755.56 169.85S796.03 169.59 833.33 169.59S872.44 157.72 911.11 157.72S951.33 165.61 988.89 165.61S1029.36 178.67 1066.67 178.67S1106 157.87 1144.44 157.87S1184.68 170.46 1222.22 170.46S1261.82 170.08 1300 170.08S1340.53 175.99 1377.78 175.99S1417.6 175.07 1455.56 175.07S1495.91 167.75 1533.33 167.75S1574.45 162.4 1611.11 162.4S1651.68 156.54 1688.89 156.54S1728.55 165.02 1766.67 165.02S1806.43 168.08 1844.44 168.08S1883.64 158.64 1922.22 158.64S1962.38 167.47 2000 167.47S2040.81 173.41 2077.78 173.41L2000 1200 L-100 1200 Z"></animate>
  <animateTransform attributeName="transform" type="translate" dur="10.843373493975903s" begin="0s" repeatCount="indefinite" values="0;10;0" calcMode="spline" keySplines="0.3 0 0.7 1;0.3 0 0.7 1"></animateTransform>
</path><path d="M-100 188.6C-58.21 174.93 -58.56 189.36 -19.92 189.36S21.48 195.45 60.17 195.45S100.26 183.35 140.25 183.35S180.44 178.05 220.34 178.05S262.05 183.54 300.42 183.54S341.8 187.47 380.51 187.47S420.82 192.72 460.59 192.72S501.85 175.33 540.68 175.33S581.07 180.83 620.76 180.83S661.07 176.63 700.85 176.63S742.16 198.52 780.93 198.52S822.5 184.55 861.02 184.55S902.15 198.01 941.1 198.01S981.16 174.95 1021.19 174.95S1062.29 199.8 1101.27 199.8S1142.08 176.53 1181.36 176.53S1221.83 184.76 1261.44 184.76S1303.59 186.56 1341.53 186.56S1382.24 189.19 1421.61 189.19S1462.84 181.27 1501.69 181.27S1542.94 177.92 1581.78 177.92S1622.56 185.51 1661.86 185.51S1703.86 191.56 1741.95 191.56S1783.36 175.93 1822.03 175.93S1863.65 177.59 1902.12 177.59S1944.33 177.95 1982.2 177.95S2022.62 187.4 2062.29 187.4L2000 1200 L-100 1200 Z" fill="#c3f8f1" stroke-width="0">
  <animate attributeName="d" dur="9.638554216867469s" repeatCount="indefinite" values="M-100 188.6C-58.21 174.93 -58.56 189.36 -19.92 189.36S21.48 195.45 60.17 195.45S100.26 183.35 140.25 183.35S180.44 178.05 220.34 178.05S262.05 183.54 300.42 183.54S341.8 187.47 380.51 187.47S420.82 192.72 460.59 192.72S501.85 175.33 540.68 175.33S581.07 180.83 620.76 180.83S661.07 176.63 700.85 176.63S742.16 198.52 780.93 198.52S822.5 184.55 861.02 184.55S902.15 198.01 941.1 198.01S981.16 174.95 1021.19 174.95S1062.29 199.8 1101.27 199.8S1142.08 176.53 1181.36 176.53S1221.83 184.76 1261.44 184.76S1303.59 186.56 1341.53 186.56S1382.24 189.19 1421.61 189.19S1462.84 181.27 1501.69 181.27S1542.94 177.92 1581.78 177.92S1622.56 185.51 1661.86 185.51S1703.86 191.56 1741.95 191.56S1783.36 175.93 1822.03 175.93S1863.65 177.59 1902.12 177.59S1944.33 177.95 1982.2 177.95S2022.62 187.4 2062.29 187.4L2000 1200 L-100 1200 Z;M-100 174.84C-57.77 176.57 -59.95 176.98 -19.92 176.98S20.59 178.58 60.17 178.58S101.78 186.66 140.25 186.66S180.92 196.11 220.34 196.11S260.74 176.55 300.42 176.55S341.27 196.89 380.51 196.89S421.57 189.89 460.59 189.89S502.49 196.13 540.68 196.13S582.28 185.5 620.76 185.5S662.84 196.88 700.85 196.88S743.16 176.65 780.93 176.65S821.04 182.58 861.02 182.58S901.58 183.02 941.1 183.02S981.67 189.29 1021.19 189.29S1062.93 195.12 1101.27 195.12S1142.85 181.37 1181.36 181.37S1223.46 181.11 1261.44 181.11S1301.68 181.22 1341.53 181.22S1382.44 194.3 1421.61 194.3S1464.05 179.36 1501.69 179.36S1542.05 176.44 1581.78 176.44S1623.28 193.72 1661.86 193.72S1703.13 185.83 1741.95 185.83S1783.03 180.4 1822.03 180.4S1862.34 192.35 1902.12 192.35S1944.5 175.82 1982.2 175.82S2022.83 188.35 2062.29 188.35L2000 1200 L-100 1200 Z;M-100 188.6C-58.21 174.93 -58.56 189.36 -19.92 189.36S21.48 195.45 60.17 195.45S100.26 183.35 140.25 183.35S180.44 178.05 220.34 178.05S262.05 183.54 300.42 183.54S341.8 187.47 380.51 187.47S420.82 192.72 460.59 192.72S501.85 175.33 540.68 175.33S581.07 180.83 620.76 180.83S661.07 176.63 700.85 176.63S742.16 198.52 780.93 198.52S822.5 184.55 861.02 184.55S902.15 198.01 941.1 198.01S981.16 174.95 1021.19 174.95S1062.29 199.8 1101.27 199.8S1142.08 176.53 1181.36 176.53S1221.83 184.76 1261.44 184.76S1303.59 186.56 1341.53 186.56S1382.24 189.19 1421.61 189.19S1462.84 181.27 1501.69 181.27S1542.94 177.92 1581.78 177.92S1622.56 185.51 1661.86 185.51S1703.86 191.56 1741.95 191.56S1783.36 175.93 1822.03 175.93S1863.65 177.59 1902.12 177.59S1944.33 177.95 1982.2 177.95S2022.62 187.4 2062.29 187.4L2000 1200 L-100 1200 Z"></animate>
  <animateTransform attributeName="transform" type="translate" dur="9.638554216867469s" begin="-1.07095046854083s" repeatCount="indefinite" values="0;10;0" calcMode="spline" keySplines="0.3 0 0.7 1;0.3 0 0.7 1"></animateTransform>
</path><path d="M-100 213.29C-58.17 199.2 -58.12 212.07 -17.47 212.07S25 211.93 65.07 211.93S107.49 213.44 147.6 213.44S189.24 201.67 230.13 201.67S273 219.53 312.66 219.53S355.28 215.66 395.2 215.66S437.88 196.41 477.73 196.41S519.06 193.74 560.26 193.74S603.17 218.89 642.79 218.89S686.42 215.24 725.33 215.24S767.61 199.12 807.86 199.12S850.16 202.89 890.39 202.89S932.93 207.97 972.93 207.97S1015.75 212.91 1055.46 212.91S1098.15 206.56 1137.99 206.56S1180.16 210.5 1220.52 210.5S1263.65 218.68 1303.06 218.68S1346.04 214.24 1385.59 214.24S1427.42 214.72 1468.12 214.72S1509.85 210.55 1550.66 210.55S1593.42 198.02 1633.19 198.02S1676.06 200.36 1715.72 200.36S1758.91 218.58 1798.25 218.58S1840.14 207.96 1880.79 207.96S1923.38 199.87 1963.32 199.87S2005.16 208.11 2045.85 208.11L2000 1200 L-100 1200 Z" fill="#b1f1ee" stroke-width="0">
  <animate attributeName="d" dur="8.433734939759036s" repeatCount="indefinite" values="M-100 213.29C-58.17 199.2 -58.12 212.07 -17.47 212.07S25 211.93 65.07 211.93S107.49 213.44 147.6 213.44S189.24 201.67 230.13 201.67S273 219.53 312.66 219.53S355.28 215.66 395.2 215.66S437.88 196.41 477.73 196.41S519.06 193.74 560.26 193.74S603.17 218.89 642.79 218.89S686.42 215.24 725.33 215.24S767.61 199.12 807.86 199.12S850.16 202.89 890.39 202.89S932.93 207.97 972.93 207.97S1015.75 212.91 1055.46 212.91S1098.15 206.56 1137.99 206.56S1180.16 210.5 1220.52 210.5S1263.65 218.68 1303.06 218.68S1346.04 214.24 1385.59 214.24S1427.42 214.72 1468.12 214.72S1509.85 210.55 1550.66 210.55S1593.42 198.02 1633.19 198.02S1676.06 200.36 1715.72 200.36S1758.91 218.58 1798.25 218.58S1840.14 207.96 1880.79 207.96S1923.38 199.87 1963.32 199.87S2005.16 208.11 2045.85 208.11L2000 1200 L-100 1200 Z;M-100 203.37C-56.85 207.95 -58 199.13 -17.47 199.13S23.9 214.24 65.07 214.24S108.64 197.16 147.6 197.16S190.17 194.16 230.13 194.16S271.78 210.64 312.66 210.64S356.29 206.46 395.2 206.46S436.57 202.84 477.73 202.84S520.64 210.47 560.26 210.47S602.86 196.79 642.79 196.79S685.39 195.25 725.33 195.25S767.01 209.7 807.86 209.7S850.75 197.38 890.39 197.38S932.1 213.78 972.93 213.78S1015.54 209.23 1055.46 209.23S1098.36 204.28 1137.99 204.28S1179.39 216.73 1220.52 216.73S1262.24 200.8 1303.06 200.8S1346.57 209.57 1385.59 209.57S1427.11 217.72 1468.12 217.72S1511.16 210.45 1550.66 210.45S1593.57 210.63 1633.19 210.63S1676.04 213.16 1715.72 213.16S1757.9 211.56 1798.25 211.56S1840.98 212.08 1880.79 212.08S1924.15 199.61 1963.32 199.61S2004.76 194.83 2045.85 194.83L2000 1200 L-100 1200 Z;M-100 213.29C-58.17 199.2 -58.12 212.07 -17.47 212.07S25 211.93 65.07 211.93S107.49 213.44 147.6 213.44S189.24 201.67 230.13 201.67S273 219.53 312.66 219.53S355.28 215.66 395.2 215.66S437.88 196.41 477.73 196.41S519.06 193.74 560.26 193.74S603.17 218.89 642.79 218.89S686.42 215.24 725.33 215.24S767.61 199.12 807.86 199.12S850.16 202.89 890.39 202.89S932.93 207.97 972.93 207.97S1015.75 212.91 1055.46 212.91S1098.15 206.56 1137.99 206.56S1180.16 210.5 1220.52 210.5S1263.65 218.68 1303.06 218.68S1346.04 214.24 1385.59 214.24S1427.42 214.72 1468.12 214.72S1509.85 210.55 1550.66 210.55S1593.42 198.02 1633.19 198.02S1676.06 200.36 1715.72 200.36S1758.91 218.58 1798.25 218.58S1840.14 207.96 1880.79 207.96S1923.38 199.87 1963.32 199.87S2005.16 208.11 2045.85 208.11L2000 1200 L-100 1200 Z"></animate>
  <animateTransform attributeName="transform" type="translate" dur="8.433734939759036s" begin="-1.8741633199464525s" repeatCount="indefinite" values="0;10;0" calcMode="spline" keySplines="0.3 0 0.7 1;0.3 0 0.7 1"></animateTransform>
</path><path d="M-100 231.73C-55.86 223.22 -57.23 235.64 -14.86 235.64S29.34 234.97 70.27 234.97S115.22 222.53 155.41 222.53S198.83 234.23 240.54 234.23S284.51 235.64 325.68 235.64S369.69 214.85 410.81 214.85S453.83 232.48 495.95 232.48S539.71 230.27 581.08 230.27S624.37 232.18 666.22 232.18S710.68 220.97 751.35 220.97S795.84 230.53 836.49 230.53S879.42 221.66 921.62 221.66S965.71 223.89 1006.76 223.89S1049.68 236.84 1091.89 236.84S1136.15 239.54 1177.03 239.54S1220.54 226.53 1262.16 226.53S1304.98 231.5 1347.3 231.5S1392.21 235.66 1432.43 235.66S1475.88 235.49 1517.57 235.49S1560.78 220.13 1602.7 220.13S1647.39 233.76 1687.84 233.76S1730.93 224.6 1772.97 224.6S1816.92 231.17 1858.11 231.17S1901.7 221.93 1943.24 221.93S1987.32 232.88 2028.38 232.88L2000 1200 L-100 1200 Z" fill="#9feaed" stroke-width="0">
  <animate attributeName="d" dur="7.228915662650602s" repeatCount="indefinite" values="M-100 231.73C-55.86 223.22 -57.23 235.64 -14.86 235.64S29.34 234.97 70.27 234.97S115.22 222.53 155.41 222.53S198.83 234.23 240.54 234.23S284.51 235.64 325.68 235.64S369.69 214.85 410.81 214.85S453.83 232.48 495.95 232.48S539.71 230.27 581.08 230.27S624.37 232.18 666.22 232.18S710.68 220.97 751.35 220.97S795.84 230.53 836.49 230.53S879.42 221.66 921.62 221.66S965.71 223.89 1006.76 223.89S1049.68 236.84 1091.89 236.84S1136.15 239.54 1177.03 239.54S1220.54 226.53 1262.16 226.53S1304.98 231.5 1347.3 231.5S1392.21 235.66 1432.43 235.66S1475.88 235.49 1517.57 235.49S1560.78 220.13 1602.7 220.13S1647.39 233.76 1687.84 233.76S1730.93 224.6 1772.97 224.6S1816.92 231.17 1858.11 231.17S1901.7 221.93 1943.24 221.93S1987.32 232.88 2028.38 232.88L2000 1200 L-100 1200 Z;M-100 220.51C-57.26 228.16 -56.72 232.67 -14.86 232.67S29.95 226.14 70.27 226.14S113.83 224.56 155.41 224.56S198.2 225.76 240.54 225.76S283.48 237.54 325.68 237.54S370.33 235.02 410.81 235.02S454.64 212.29 495.95 212.29S540.76 212.73 581.08 212.73S623.81 229.15 666.22 229.15S710.47 216.79 751.35 216.79S794.86 232.71 836.49 232.71S880.82 213.91 921.62 213.91S964.89 238.03 1006.76 238.03S1049.52 218.02 1091.89 218.02S1135.62 227.91 1177.03 227.91S1221.29 235.39 1262.16 235.39S1305.59 223.72 1347.3 223.72S1391.42 232.91 1432.43 232.91S1475.04 239.64 1517.57 239.64S1561.58 222.23 1602.7 222.23S1645.45 234.98 1687.84 234.98S1730.46 226.78 1772.97 226.78S1817.12 223.93 1858.11 223.93S1901.65 228.31 1943.24 228.31S1986.69 231.66 2028.38 231.66L2000 1200 L-100 1200 Z;M-100 231.73C-55.86 223.22 -57.23 235.64 -14.86 235.64S29.34 234.97 70.27 234.97S115.22 222.53 155.41 222.53S198.83 234.23 240.54 234.23S284.51 235.64 325.68 235.64S369.69 214.85 410.81 214.85S453.83 232.48 495.95 232.48S539.71 230.27 581.08 230.27S624.37 232.18 666.22 232.18S710.68 220.97 751.35 220.97S795.84 230.53 836.49 230.53S879.42 221.66 921.62 221.66S965.71 223.89 1006.76 223.89S1049.68 236.84 1091.89 236.84S1136.15 239.54 1177.03 239.54S1220.54 226.53 1262.16 226.53S1304.98 231.5 1347.3 231.5S1392.21 235.66 1432.43 235.66S1475.88 235.49 1517.57 235.49S1560.78 220.13 1602.7 220.13S1647.39 233.76 1687.84 233.76S1730.93 224.6 1772.97 224.6S1816.92 231.17 1858.11 231.17S1901.7 221.93 1943.24 221.93S1987.32 232.88 2028.38 232.88L2000 1200 L-100 1200 Z"></animate>
  <animateTransform attributeName="transform" type="translate" dur="7.228915662650602s" begin="-2.4096385542168672s" repeatCount="indefinite" values="0;10;0" calcMode="spline" keySplines="0.3 0 0.7 1;0.3 0 0.7 1"></animateTransform>
</path><path d="M-100 230.94C-55.41 243.46 -55.07 249.65 -12.09 249.65S32.57 248.93 75.81 248.93S120.43 240.33 163.72 240.33S208.47 240.25 251.63 240.25S295.86 237.95 339.53 237.95S385.6 240.24 427.44 240.24S473.37 258 515.35 258S560.73 241.79 603.26 241.79S648.73 255.04 691.16 255.04S736.39 243.7 779.07 243.7S823.3 248 866.98 248S911.17 256.19 954.88 256.19S1001.04 244.43 1042.79 244.43S1088.13 237.87 1130.7 237.87S1175.17 246.43 1218.6 246.43S1262.62 247.78 1306.51 247.78S1350.64 246.89 1394.42 246.89S1439.73 254.35 1482.33 254.35S1526.69 259.03 1570.23 259.03S1615.22 249.67 1658.14 249.67S1704.02 254.22 1746.05 254.22S1790.73 251.52 1833.95 251.52S1878.66 247.39 1921.86 247.39S1967.12 242.27 2009.77 242.27L2000 1200 L-100 1200 Z" fill="#8de3ed" stroke-width="0">
  <animate attributeName="d" dur="6.024096385542168s" repeatCount="indefinite" values="M-100 230.94C-55.41 243.46 -55.07 249.65 -12.09 249.65S32.57 248.93 75.81 248.93S120.43 240.33 163.72 240.33S208.47 240.25 251.63 240.25S295.86 237.95 339.53 237.95S385.6 240.24 427.44 240.24S473.37 258 515.35 258S560.73 241.79 603.26 241.79S648.73 255.04 691.16 255.04S736.39 243.7 779.07 243.7S823.3 248 866.98 248S911.17 256.19 954.88 256.19S1001.04 244.43 1042.79 244.43S1088.13 237.87 1130.7 237.87S1175.17 246.43 1218.6 246.43S1262.62 247.78 1306.51 247.78S1350.64 246.89 1394.42 246.89S1439.73 254.35 1482.33 254.35S1526.69 259.03 1570.23 259.03S1615.22 249.67 1658.14 249.67S1704.02 254.22 1746.05 254.22S1790.73 251.52 1833.95 251.52S1878.66 247.39 1921.86 247.39S1967.12 242.27 2009.77 242.27L2000 1200 L-100 1200 Z;M-100 244.92C-55.98 249.42 -55.74 258.76 -12.09 258.76S32.49 233.52 75.81 233.52S120.4 253.19 163.72 253.19S208.44 242.97 251.63 242.97S296.74 236.62 339.53 236.62S383.91 233.03 427.44 233.03S473.48 260.21 515.35 260.21S561.39 235.06 603.26 235.06S649.58 247.31 691.16 247.31S737.14 247.75 779.07 247.75S824.22 249.17 866.98 249.17S912.11 251.67 954.88 251.67S1000.24 249.53 1042.79 249.53S1088.5 237.3 1130.7 237.3S1175.09 248.96 1218.6 248.96S1264.2 234.79 1306.51 234.79S1352.76 259.99 1394.42 259.99S1440.48 232.66 1482.33 232.66S1527.14 244.49 1570.23 244.49S1615.22 246.07 1658.14 246.07S1702.24 257.86 1746.05 257.86S1792.22 232.32 1833.95 232.32S1878.68 242.73 1921.86 242.73S1967.23 250.54 2009.77 250.54L2000 1200 L-100 1200 Z;M-100 230.94C-55.41 243.46 -55.07 249.65 -12.09 249.65S32.57 248.93 75.81 248.93S120.43 240.33 163.72 240.33S208.47 240.25 251.63 240.25S295.86 237.95 339.53 237.95S385.6 240.24 427.44 240.24S473.37 258 515.35 258S560.73 241.79 603.26 241.79S648.73 255.04 691.16 255.04S736.39 243.7 779.07 243.7S823.3 248 866.98 248S911.17 256.19 954.88 256.19S1001.04 244.43 1042.79 244.43S1088.13 237.87 1130.7 237.87S1175.17 246.43 1218.6 246.43S1262.62 247.78 1306.51 247.78S1350.64 246.89 1394.42 246.89S1439.73 254.35 1482.33 254.35S1526.69 259.03 1570.23 259.03S1615.22 249.67 1658.14 249.67S1704.02 254.22 1746.05 254.22S1790.73 251.52 1833.95 251.52S1878.66 247.39 1921.86 247.39S1967.12 242.27 2009.77 242.27L2000 1200 L-100 1200 Z"></animate>
  <animateTransform attributeName="transform" type="translate" dur="6.024096385542168s" begin="-2.6773761713520745s" repeatCount="indefinite" values="0;10;0" calcMode="spline" keySplines="0.3 0 0.7 1;0.3 0 0.7 1"></animateTransform>
</path><path d="M-100 256.1C-52.95 260.05 -53.23 265.21 -9.13 265.21S38.56 265.55 81.73 265.55S127.76 266.7 172.6 266.7S219.62 252.01 263.46 252.01S310.23 279.02 354.33 279.02S400.08 271.98 445.19 271.98S491.47 260.55 536.06 260.55S583.76 258.08 626.92 258.08S673.75 259.54 717.79 259.54S764.55 255.22 808.65 255.22S854.91 273.77 899.52 273.77S946.8 262.85 990.38 262.85S1036.97 266.99 1081.25 266.99S1127.5 251.11 1172.12 251.11S1217.75 258.72 1262.98 258.72S1308.96 273.91 1353.85 273.91S1399.78 276.01 1444.71 276.01S1492.29 264.57 1535.58 264.57S1582.08 265.54 1626.44 265.54S1672.49 257.55 1717.31 257.55S1764.47 263.83 1808.17 263.83S1854.65 259.51 1899.04 259.51S1945.07 258.65 1989.9 258.65S2036.48 257.74 2080.77 257.74L2000 1200 L-100 1200 Z" fill="#7bdbee" stroke-width="0">
  <animate attributeName="d" dur="4.8192771084337345s" repeatCount="indefinite" values="M-100 256.1C-52.95 260.05 -53.23 265.21 -9.13 265.21S38.56 265.55 81.73 265.55S127.76 266.7 172.6 266.7S219.62 252.01 263.46 252.01S310.23 279.02 354.33 279.02S400.08 271.98 445.19 271.98S491.47 260.55 536.06 260.55S583.76 258.08 626.92 258.08S673.75 259.54 717.79 259.54S764.55 255.22 808.65 255.22S854.91 273.77 899.52 273.77S946.8 262.85 990.38 262.85S1036.97 266.99 1081.25 266.99S1127.5 251.11 1172.12 251.11S1217.75 258.72 1262.98 258.72S1308.96 273.91 1353.85 273.91S1399.78 276.01 1444.71 276.01S1492.29 264.57 1535.58 264.57S1582.08 265.54 1626.44 265.54S1672.49 257.55 1717.31 257.55S1764.47 263.83 1808.17 263.83S1854.65 259.51 1899.04 259.51S1945.07 258.65 1989.9 258.65S2036.48 257.74 2080.77 257.74L2000 1200 L-100 1200 Z;M-100 250.99C-53.5 265.49 -54.15 257.79 -9.13 257.79S36.39 264.53 81.73 264.53S128.54 277.26 172.6 277.26S219.08 260.26 263.46 260.26S310.31 267.02 354.33 267.02S399.89 270.07 445.19 270.07S491.88 273.98 536.06 273.98S583.27 257.04 626.92 257.04S674.34 263.3 717.79 263.3S764.1 259.17 808.65 259.17S856.33 270.44 899.52 270.44S945.05 252.02 990.38 252.02S1036.8 274.12 1081.25 274.12S1128.73 265.68 1172.12 265.68S1219.5 259.81 1262.98 259.81S1310.13 252.09 1353.85 252.09S1399.64 252.45 1444.71 252.45S1490.67 271.97 1535.58 271.97S1581.56 276.88 1626.44 276.88S1672.62 255.6 1717.31 255.6S1763.31 252.46 1808.17 252.46S1853.92 256.27 1899.04 256.27S1946.69 259.28 1989.9 259.28S2035.78 250.5 2080.77 250.5L2000 1200 L-100 1200 Z;M-100 256.1C-52.95 260.05 -53.23 265.21 -9.13 265.21S38.56 265.55 81.73 265.55S127.76 266.7 172.6 266.7S219.62 252.01 263.46 252.01S310.23 279.02 354.33 279.02S400.08 271.98 445.19 271.98S491.47 260.55 536.06 260.55S583.76 258.08 626.92 258.08S673.75 259.54 717.79 259.54S764.55 255.22 808.65 255.22S854.91 273.77 899.52 273.77S946.8 262.85 990.38 262.85S1036.97 266.99 1081.25 266.99S1127.5 251.11 1172.12 251.11S1217.75 258.72 1262.98 258.72S1308.96 273.91 1353.85 273.91S1399.78 276.01 1444.71 276.01S1492.29 264.57 1535.58 264.57S1582.08 265.54 1626.44 265.54S1672.49 257.55 1717.31 257.55S1764.47 263.83 1808.17 263.83S1854.65 259.51 1899.04 259.51S1945.07 258.65 1989.9 258.65S2036.48 257.74 2080.77 257.74L2000 1200 L-100 1200 Z"></animate>
  <animateTransform attributeName="transform" type="translate" dur="4.8192771084337345s" begin="-2.6773761713520745s" repeatCount="indefinite" values="0;10;0" calcMode="spline" keySplines="0.3 0 0.7 1;0.3 0 0.7 1"></animateTransform>
</path><path d="M-100 290.15C-51.23 280.35 -51.68 297.06 -5.97 297.06S42.8 285.09 88.06 285.09S135.15 274.9 182.09 274.9S231.2 280.71 276.12 280.71S325.2 291.79 370.15 291.79S418.36 278.52 464.18 278.52S511.97 292.03 558.21 292.03S607.3 288.18 652.24 288.18S699.29 284.64 746.27 284.64S794.41 277.15 840.3 277.15S887.51 294.05 934.33 294.05S982.71 288.07 1028.36 288.07S1077.31 292.48 1122.39 292.48S1171.73 272.99 1216.42 272.99S1265.17 287.37 1310.45 287.37S1359.78 284.22 1404.48 284.22S1452.56 280.72 1498.51 280.72S1547.53 272.19 1592.54 272.19S1641.55 298.39 1686.57 298.39S1734.35 274.28 1780.6 274.28S1828.17 295.18 1874.63 295.18S1923.27 291.33 1968.66 291.33S2017.25 285.37 2062.69 285.37L2000 1200 L-100 1200 Z" fill="#69d3ef" stroke-width="0">
  <animate attributeName="d" dur="3.614457831325301s" repeatCount="indefinite" values="M-100 290.15C-51.23 280.35 -51.68 297.06 -5.97 297.06S42.8 285.09 88.06 285.09S135.15 274.9 182.09 274.9S231.2 280.71 276.12 280.71S325.2 291.79 370.15 291.79S418.36 278.52 464.18 278.52S511.97 292.03 558.21 292.03S607.3 288.18 652.24 288.18S699.29 284.64 746.27 284.64S794.41 277.15 840.3 277.15S887.51 294.05 934.33 294.05S982.71 288.07 1028.36 288.07S1077.31 292.48 1122.39 292.48S1171.73 272.99 1216.42 272.99S1265.17 287.37 1310.45 287.37S1359.78 284.22 1404.48 284.22S1452.56 280.72 1498.51 280.72S1547.53 272.19 1592.54 272.19S1641.55 298.39 1686.57 298.39S1734.35 274.28 1780.6 274.28S1828.17 295.18 1874.63 295.18S1923.27 291.33 1968.66 291.33S2017.25 285.37 2062.69 285.37L2000 1200 L-100 1200 Z;M-100 279.77C-50.86 277.93 -51.2 277.01 -5.97 277.01S43.17 288.92 88.06 288.92S135.52 299.29 182.09 299.29S231.41 288.06 276.12 288.06S324.02 281.88 370.15 281.88S418.38 284.77 464.18 284.77S513.16 295.48 558.21 295.48S606.95 296.05 652.24 296.05S699.62 295.73 746.27 295.73S794.28 287.67 840.3 287.67S889.22 289.66 934.33 289.66S981.99 275.89 1028.36 275.89S1076.75 283.43 1122.39 283.43S1169.68 283.23 1216.42 283.23S1263.64 290.83 1310.45 290.83S1358.37 270.22 1404.48 270.22S1453.39 277.19 1498.51 277.19S1546.53 282.53 1592.54 282.53S1640.97 280.19 1686.57 280.19S1734.61 281.96 1780.6 281.96S1828.5 286.44 1874.63 286.44S1922.87 274.1 1968.66 274.1S2017.65 297.63 2062.69 297.63L2000 1200 L-100 1200 Z;M-100 290.15C-51.23 280.35 -51.68 297.06 -5.97 297.06S42.8 285.09 88.06 285.09S135.15 274.9 182.09 274.9S231.2 280.71 276.12 280.71S325.2 291.79 370.15 291.79S418.36 278.52 464.18 278.52S511.97 292.03 558.21 292.03S607.3 288.18 652.24 288.18S699.29 284.64 746.27 284.64S794.41 277.15 840.3 277.15S887.51 294.05 934.33 294.05S982.71 288.07 1028.36 288.07S1077.31 292.48 1122.39 292.48S1171.73 272.99 1216.42 272.99S1265.17 287.37 1310.45 287.37S1359.78 284.22 1404.48 284.22S1452.56 280.72 1498.51 280.72S1547.53 272.19 1592.54 272.19S1641.55 298.39 1686.57 298.39S1734.35 274.28 1780.6 274.28S1828.17 295.18 1874.63 295.18S1923.27 291.33 1968.66 291.33S2017.25 285.37 2062.69 285.37L2000 1200 L-100 1200 Z"></animate>
  <animateTransform attributeName="transform" type="translate" dur="3.614457831325301s" begin="-2.4096385542168672s" repeatCount="indefinite" values="0;10;0" calcMode="spline" keySplines="0.3 0 0.7 1;0.3 0 0.7 1"></animateTransform>
</path><path d="M-100 296.25C-51.26 302.95 -49.97 318.5 -2.58 318.5S46.29 308.07 94.85 308.07S145.82 307.22 192.27 307.22S242.86 308.38 289.69 308.38S339.71 312.39 387.11 312.39S437.43 298.42 484.54 298.42S533.75 309.36 581.96 309.36S631.91 299.56 679.38 299.56S728.44 320.22 776.8 320.22S827.47 304.25 874.23 304.25S922.94 306.53 971.65 306.53S1020.86 294.81 1069.07 294.81S1118.21 305.15 1166.49 305.15S1217.45 287.06 1263.92 287.06S1314.92 298.52 1361.34 298.52S1411.07 291.8 1458.76 291.8S1508.56 316.3 1556.19 316.3S1606.29 305.01 1653.61 305.01S1702.69 298.57 1751.03 298.57S1800.8 289.87 1848.45 289.87S1898.46 310.96 1945.88 310.96S1995.51 303.21 2043.3 303.21L2000 1200 L-100 1200 Z" fill="#58caf1" stroke-width="0">
  <animate attributeName="d" dur="2.4096385542168672s" repeatCount="indefinite" values="M-100 296.25C-51.26 302.95 -49.97 318.5 -2.58 318.5S46.29 308.07 94.85 308.07S145.82 307.22 192.27 307.22S242.86 308.38 289.69 308.38S339.71 312.39 387.11 312.39S437.43 298.42 484.54 298.42S533.75 309.36 581.96 309.36S631.91 299.56 679.38 299.56S728.44 320.22 776.8 320.22S827.47 304.25 874.23 304.25S922.94 306.53 971.65 306.53S1020.86 294.81 1069.07 294.81S1118.21 305.15 1166.49 305.15S1217.45 287.06 1263.92 287.06S1314.92 298.52 1361.34 298.52S1411.07 291.8 1458.76 291.8S1508.56 316.3 1556.19 316.3S1606.29 305.01 1653.61 305.01S1702.69 298.57 1751.03 298.57S1800.8 289.87 1848.45 289.87S1898.46 310.96 1945.88 310.96S1995.51 303.21 2043.3 303.21L2000 1200 L-100 1200 Z;M-100 317.47C-50.69 311.5 -50.52 299.99 -2.58 299.99S47.88 305.57 94.85 305.57S145.29 302.46 192.27 302.46S242.7 304.18 289.69 304.18S340.16 299.01 387.11 299.01S438.2 301.85 484.54 301.85S535.06 319.11 581.96 319.11S632.14 300.1 679.38 300.1S729.8 308.46 776.8 308.46S826.71 299.52 874.23 299.52S924.45 315.74 971.65 315.74S1020.53 299.07 1069.07 299.07S1118.56 315.54 1166.49 315.54S1216.43 301.65 1263.92 301.65S1314.35 298.1 1361.34 298.1S1412.02 291.71 1458.76 291.71S1508.44 304.02 1556.19 304.02S1606.73 294.83 1653.61 294.83S1704.2 299.68 1751.03 299.68S1800.26 302.2 1848.45 302.2S1899.35 317.54 1945.88 317.54S1996.62 289.26 2043.3 289.26L2000 1200 L-100 1200 Z;M-100 296.25C-51.26 302.95 -49.97 318.5 -2.58 318.5S46.29 308.07 94.85 308.07S145.82 307.22 192.27 307.22S242.86 308.38 289.69 308.38S339.71 312.39 387.11 312.39S437.43 298.42 484.54 298.42S533.75 309.36 581.96 309.36S631.91 299.56 679.38 299.56S728.44 320.22 776.8 320.22S827.47 304.25 874.23 304.25S922.94 306.53 971.65 306.53S1020.86 294.81 1069.07 294.81S1118.21 305.15 1166.49 305.15S1217.45 287.06 1263.92 287.06S1314.92 298.52 1361.34 298.52S1411.07 291.8 1458.76 291.8S1508.56 316.3 1556.19 316.3S1606.29 305.01 1653.61 305.01S1702.69 298.57 1751.03 298.57S1800.8 289.87 1848.45 289.87S1898.46 310.96 1945.88 310.96S1995.51 303.21 2043.3 303.21L2000 1200 L-100 1200 Z"></animate>
  <animateTransform attributeName="transform" type="translate" dur="2.4096385542168672s" begin="-1.874163319946452s" repeatCount="indefinite" values="0;10;0" calcMode="spline" keySplines="0.3 0 0.7 1;0.3 0 0.7 1"></animateTransform>
</path><path d="M-100 321.32C-47.32 327.17 -47.96 330.01 1.07 330.01S52.74 326.32 102.14 326.32S154.06 338.02 203.21 338.02S255.41 317.97 304.28 317.97S357.01 332.22 405.35 332.22S457.83 306.19 506.42 306.19S557.09 324.07 607.49 324.07S659.43 328.06 708.56 328.06S760.63 316.46 809.63 316.46S860.79 315.84 910.7 315.84S962.4 332.99 1011.76 332.99S1064.18 307.89 1112.83 307.89S1163.62 323.5 1213.9 323.5S1265.47 320.49 1314.97 320.49S1367.29 327.02 1416.04 327.02S1468.54 323.23 1517.11 323.23S1567.77 335.89 1618.18 335.89S1669.62 315.96 1719.25 315.96S1771.92 334.54 1820.32 334.54S1871.3 313.32 1921.39 313.32S1972.31 322.67 2022.46 322.67L2000 1200 L-100 1200 Z" fill="#49c1f3" stroke-width="0">
  <animate attributeName="d" dur="1.2048192771084336s" repeatCount="indefinite" values="M-100 321.32C-47.32 327.17 -47.96 330.01 1.07 330.01S52.74 326.32 102.14 326.32S154.06 338.02 203.21 338.02S255.41 317.97 304.28 317.97S357.01 332.22 405.35 332.22S457.83 306.19 506.42 306.19S557.09 324.07 607.49 324.07S659.43 328.06 708.56 328.06S760.63 316.46 809.63 316.46S860.79 315.84 910.7 315.84S962.4 332.99 1011.76 332.99S1064.18 307.89 1112.83 307.89S1163.62 323.5 1213.9 323.5S1265.47 320.49 1314.97 320.49S1367.29 327.02 1416.04 327.02S1468.54 323.23 1517.11 323.23S1567.77 335.89 1618.18 335.89S1669.62 315.96 1719.25 315.96S1771.92 334.54 1820.32 334.54S1871.3 313.32 1921.39 313.32S1972.31 322.67 2022.46 322.67L2000 1200 L-100 1200 Z;M-100 309.86C-47.93 328.82 -49.11 336.09 1.07 336.09S52.96 305.44 102.14 305.44S155 328.78 203.21 328.78S254.22 321.68 304.28 321.68S356.07 318.11 405.35 318.11S457.82 319.41 506.42 319.41S559.18 330.5 607.49 330.5S658.75 328.97 708.56 328.97S759.87 326.37 809.63 326.37S862.27 313.96 910.7 313.96S961.57 321.91 1011.76 321.91S1064.59 319.32 1112.83 319.32S1163.37 333.98 1213.9 333.98S1265.1 313.99 1314.97 313.99S1366.31 337.01 1416.04 337.01S1468.83 323.35 1517.11 323.35S1569 331.05 1618.18 331.05S1669.99 327.28 1719.25 327.28S1771.19 312.39 1820.32 312.39S1872.1 315.81 1921.39 315.81S1973.52 339.73 2022.46 339.73L2000 1200 L-100 1200 Z;M-100 321.32C-47.32 327.17 -47.96 330.01 1.07 330.01S52.74 326.32 102.14 326.32S154.06 338.02 203.21 338.02S255.41 317.97 304.28 317.97S357.01 332.22 405.35 332.22S457.83 306.19 506.42 306.19S557.09 324.07 607.49 324.07S659.43 328.06 708.56 328.06S760.63 316.46 809.63 316.46S860.79 315.84 910.7 315.84S962.4 332.99 1011.76 332.99S1064.18 307.89 1112.83 307.89S1163.62 323.5 1213.9 323.5S1265.47 320.49 1314.97 320.49S1367.29 327.02 1416.04 327.02S1468.54 323.23 1517.11 323.23S1567.77 335.89 1618.18 335.89S1669.62 315.96 1719.25 315.96S1771.92 334.54 1820.32 334.54S1871.3 313.32 1921.39 313.32S1972.31 322.67 2022.46 322.67L2000 1200 L-100 1200 Z"></animate>
  <animateTransform attributeName="transform" type="translate" dur="1.2048192771084336s" begin="-1.07095046854083s" repeatCount="indefinite" values="0;10;0" calcMode="spline" keySplines="0.3 0 0.7 1;0.3 0 0.7 1"></animateTransform>
</path></g>
</svg>