<?xml version="1.0" encoding="utf-8"?>
<svg xmlns="http://www.w3.org/2000/svg" xmlns:xlink="http://www.w3.org/1999/xlink" style="margin: auto; background: none; display: block; z-index: 1; position: relative; shape-rendering: auto;" width="1200" height="1200" preserveAspectRatio="xMidYMid" viewBox="0 0 1200 1200">
<g transform=""><path d="M-100 101.46C-72.99 101.84 -73.04 107.1 -48.15 107.1S-22.05 100.27 3.7 100.27S30.98 104.71 55.56 104.71S81.92 100.04 107.41 100.04S134.58 111.01 159.26 111.01S185.48 101.38 211.11 101.38S237.58 100.53 262.96 100.53S289.93 99.6 314.81 99.6S340.87 104.54 366.67 104.54S393.1 106.9 418.52 106.9S445.96 105.04 470.37 105.04S497.08 109.59 522.22 109.59S548.66 97.34 574.07 97.34S600.26 103.01 625.93 103.01S652.22 103.92 677.78 103.92S704.23 104.03 729.63 104.03S756.1 96.14 781.48 96.14S807.84 103.85 833.33 103.85S860.28 106.18 885.19 106.18S912.57 102.59 937.04 102.59S963.84 102.87 988.89 102.87S1014.91 97.19 1040.74 97.19S1067.84 99.18 1092.59 99.18S1118.72 98.72 1144.44 98.72S1170.39 108.65 1196.3 108.65S1222.45 107.95 1248.15 107.95S1274.12 104.92 1300 104.92S1327.34 111.19 1351.85 111.19L1300 1200 L-100 1200 Z" fill="#d5fff5" stroke-width="0">
  <animate attributeName="d" dur="10.843373493975903s" repeatCount="indefinite" values="M-100 101.46C-72.99 101.84 -73.04 107.1 -48.15 107.1S-22.05 100.27 3.7 100.27S30.98 104.71 55.56 104.71S81.92 100.04 107.41 100.04S134.58 111.01 159.26 111.01S185.48 101.38 211.11 101.38S237.58 100.53 262.96 100.53S289.93 99.6 314.81 99.6S340.87 104.54 366.67 104.54S393.1 106.9 418.52 106.9S445.96 105.04 470.37 105.04S497.08 109.59 522.22 109.59S548.66 97.34 574.07 97.34S600.26 103.01 625.93 103.01S652.22 103.92 677.78 103.92S704.23 104.03 729.63 104.03S756.1 96.14 781.48 96.14S807.84 103.85 833.33 103.85S860.28 106.18 885.19 106.18S912.57 102.59 937.04 102.59S963.84 102.87 988.89 102.87S1014.91 97.19 1040.74 97.19S1067.84 99.18 1092.59 99.18S1118.72 98.72 1144.44 98.72S1170.39 108.65 1196.3 108.65S1222.45 107.95 1248.15 107.95S1274.12 104.92 1300 104.92S1327.34 111.19 1351.85 111.19L1300 1200 L-100 1200 Z;M-100 105.01C-72.61 111.47 -73.93 97.85 -48.15 97.85S-20.68 107.76 3.7 107.76S30.68 98.94 55.56 98.94S81.87 105.76 107.41 105.76S134.39 96.17 159.26 96.17S185.27 107.04 211.11 107.04S237.24 104.7 262.96 104.7S289.77 107.4 314.81 107.4S341.4 103.77 366.67 103.77S393.15 108.62 418.52 108.62S444.68 107.11 470.37 107.11S497.67 103.99 522.22 103.99S548.4 109.95 574.07 109.95S600.7 96.63 625.93 96.63S653.06 98.64 677.78 98.64S704.13 111.16 729.63 111.16S756.19 98.29 781.48 98.29S808.77 107.13 833.33 107.13S860.65 102.73 885.19 102.73S911.36 110.2 937.04 110.2S964.35 98.34 988.89 98.34S1016.19 103.77 1040.74 103.77S1067.49 99 1092.59 99S1119.13 105.31 1144.44 105.31S1171.1 111.38 1196.3 111.38S1222.48 108.59 1248.15 108.59S1274.83 108.53 1300 108.53S1326.91 103.84 1351.85 103.84L1300 1200 L-100 1200 Z;M-100 101.46C-72.99 101.84 -73.04 107.1 -48.15 107.1S-22.05 100.27 3.7 100.27S30.98 104.71 55.56 104.71S81.92 100.04 107.41 100.04S134.58 111.01 159.26 111.01S185.48 101.38 211.11 101.38S237.58 100.53 262.96 100.53S289.93 99.6 314.81 99.6S340.87 104.54 366.67 104.54S393.1 106.9 418.52 106.9S445.96 105.04 470.37 105.04S497.08 109.59 522.22 109.59S548.66 97.34 574.07 97.34S600.26 103.01 625.93 103.01S652.22 103.92 677.78 103.92S704.23 104.03 729.63 104.03S756.1 96.14 781.48 96.14S807.84 103.85 833.33 103.85S860.28 106.18 885.19 106.18S912.57 102.59 937.04 102.59S963.84 102.87 988.89 102.87S1014.91 97.19 1040.74 97.19S1067.84 99.18 1092.59 99.18S1118.72 98.72 1144.44 98.72S1170.39 108.65 1196.3 108.65S1222.45 107.95 1248.15 107.95S1274.12 104.92 1300 104.92S1327.34 111.19 1351.85 111.19L1300 1200 L-100 1200 Z"></animate>
  <animateTransform attributeName="transform" type="translate" dur="10.843373493975903s" begin="0s" repeatCount="indefinite" values="0;10;0" calcMode="spline" keySplines="0.3 0 0.7 1;0.3 0 0.7 1"></animateTransform>
</path><path d="M-100 115.02C-72.22 115.81 -72.73 128.8 -46.61 128.8S-19.52 126.94 6.78 126.94S34.25 129.53 60.17 129.53S88.12 118.75 113.56 118.75S140.49 132.13 166.95 132.13S194.88 119.71 220.34 119.71S247.2 125.19 273.73 125.19S301.35 120.14 327.12 120.14S353.96 118.39 380.51 118.39S408.8 129.76 433.9 129.76S460.71 128.88 487.29 128.88S514.29 117.11 540.68 117.11S568.27 121.78 594.07 121.78S621.37 126.87 647.46 126.87S675.69 116.18 700.85 116.18S727.72 116.54 754.24 116.54S780.97 121.43 807.63 121.43S834.43 115.19 861.02 115.19S888.56 116.61 914.41 116.61S942.46 116.12 967.8 116.12S995.68 127.85 1021.19 127.85S1048.89 128.67 1074.58 128.67S1101.47 117.73 1127.97 117.73S1155.75 128.11 1181.36 128.11S1209 126.29 1234.75 126.29S1261.82 117.53 1288.14 117.53S1316.34 124.52 1341.53 124.52L1300 1200 L-100 1200 Z" fill="#c3f8f1" stroke-width="0">
  <animate attributeName="d" dur="9.638554216867469s" repeatCount="indefinite" values="M-100 115.02C-72.22 115.81 -72.73 128.8 -46.61 128.8S-19.52 126.94 6.78 126.94S34.25 129.53 60.17 129.53S88.12 118.75 113.56 118.75S140.49 132.13 166.95 132.13S194.88 119.71 220.34 119.71S247.2 125.19 273.73 125.19S301.35 120.14 327.12 120.14S353.96 118.39 380.51 118.39S408.8 129.76 433.9 129.76S460.71 128.88 487.29 128.88S514.29 117.11 540.68 117.11S568.27 121.78 594.07 121.78S621.37 126.87 647.46 126.87S675.69 116.18 700.85 116.18S727.72 116.54 754.24 116.54S780.97 121.43 807.63 121.43S834.43 115.19 861.02 115.19S888.56 116.61 914.41 116.61S942.46 116.12 967.8 116.12S995.68 127.85 1021.19 127.85S1048.89 128.67 1074.58 128.67S1101.47 117.73 1127.97 117.73S1155.75 128.11 1181.36 128.11S1209 126.29 1234.75 126.29S1261.82 117.53 1288.14 117.53S1316.34 124.52 1341.53 124.52L1300 1200 L-100 1200 Z;M-100 117.59C-72.37 127.6 -72.16 126.6 -46.61 126.6S-19.3 123 6.78 123S34.05 127.43 60.17 127.43S87.21 115.31 113.56 115.31S140.27 129.78 166.95 129.78S194.1 118.88 220.34 118.88S248.26 124.67 273.73 124.67S300.86 124 327.12 124S354.15 124.18 380.51 124.18S408.58 115.52 433.9 115.52S460.74 131.95 487.29 131.95S514.09 123.89 540.68 123.89S568.36 121.99 594.07 121.99S621.91 117.04 647.46 117.04S675.21 130.62 700.85 130.62S727.88 115.67 754.24 115.67S782.24 131.4 807.63 131.4S835.17 116.01 861.02 116.01S888.94 118.35 914.41 118.35S942.46 116.86 967.8 116.86S994.89 117.09 1021.19 117.09S1048.08 123.64 1074.58 123.64S1102.24 128.65 1127.97 128.65S1155.16 124.73 1181.36 124.73S1208.46 117.44 1234.75 117.44S1261.63 127.07 1288.14 127.07S1315.44 123.56 1341.53 123.56L1300 1200 L-100 1200 Z;M-100 115.02C-72.22 115.81 -72.73 128.8 -46.61 128.8S-19.52 126.94 6.78 126.94S34.25 129.53 60.17 129.53S88.12 118.75 113.56 118.75S140.49 132.13 166.95 132.13S194.88 119.71 220.34 119.71S247.2 125.19 273.73 125.19S301.35 120.14 327.12 120.14S353.96 118.39 380.51 118.39S408.8 129.76 433.9 129.76S460.71 128.88 487.29 128.88S514.29 117.11 540.68 117.11S568.27 121.78 594.07 121.78S621.37 126.87 647.46 126.87S675.69 116.18 700.85 116.18S727.72 116.54 754.24 116.54S780.97 121.43 807.63 121.43S834.43 115.19 861.02 115.19S888.56 116.61 914.41 116.61S942.46 116.12 967.8 116.12S995.68 127.85 1021.19 127.85S1048.89 128.67 1074.58 128.67S1101.47 117.73 1127.97 117.73S1155.75 128.11 1181.36 128.11S1209 126.29 1234.75 126.29S1261.82 117.53 1288.14 117.53S1316.34 124.52 1341.53 124.52L1300 1200 L-100 1200 Z"></animate>
  <animateTransform attributeName="transform" type="translate" dur="9.638554216867469s" begin="-1.07095046854083s" repeatCount="indefinite" values="0;10;0" calcMode="spline" keySplines="0.3 0 0.7 1;0.3 0 0.7 1"></animateTransform>
</path><path d="M-100 144.65C-72.29 140.91 -71.13 140.74 -44.98 140.74S-15.89 138.93 10.04 138.93S38.2 138.72 65.07 138.72S93.92 145.74 120.09 145.74S148.18 145.7 175.11 145.7S203.42 134.52 230.13 134.52S258.85 145.49 285.15 145.49S313.19 146.4 340.17 146.4S368.7 143.69 395.2 143.69S424.19 136.61 450.22 136.61S478.03 142.22 505.24 142.22S532.77 144.49 560.26 144.49S588.44 144.66 615.28 144.66S643.65 145.03 670.31 145.03S699.14 142.28 725.33 142.28S754.16 135.5 780.35 135.5S809.15 149.1 835.37 149.1S863.96 136.78 890.39 136.78S918.42 149.84 945.41 149.84S973.96 143.9 1000.44 143.9S1029.15 143.35 1055.46 143.35S1084.23 148.84 1110.48 148.84S1139.31 140.69 1165.5 140.69S1193.09 148.07 1220.52 148.07S1248.19 147.6 1275.55 147.6S1303.31 140.04 1330.57 140.04L1300 1200 L-100 1200 Z" fill="#b1f1ee" stroke-width="0">
  <animate attributeName="d" dur="8.433734939759036s" repeatCount="indefinite" values="M-100 144.65C-72.29 140.91 -71.13 140.74 -44.98 140.74S-15.89 138.93 10.04 138.93S38.2 138.72 65.07 138.72S93.92 145.74 120.09 145.74S148.18 145.7 175.11 145.7S203.42 134.52 230.13 134.52S258.85 145.49 285.15 145.49S313.19 146.4 340.17 146.4S368.7 143.69 395.2 143.69S424.19 136.61 450.22 136.61S478.03 142.22 505.24 142.22S532.77 144.49 560.26 144.49S588.44 144.66 615.28 144.66S643.65 145.03 670.31 145.03S699.14 142.28 725.33 142.28S754.16 135.5 780.35 135.5S809.15 149.1 835.37 149.1S863.96 136.78 890.39 136.78S918.42 149.84 945.41 149.84S973.96 143.9 1000.44 143.9S1029.15 143.35 1055.46 143.35S1084.23 148.84 1110.48 148.84S1139.31 140.69 1165.5 140.69S1193.09 148.07 1220.52 148.07S1248.19 147.6 1275.55 147.6S1303.31 140.04 1330.57 140.04L1300 1200 L-100 1200 Z;M-100 144.41C-70.93 142.93 -72.17 144.88 -44.98 144.88S-16.81 138.05 10.04 138.05S37.84 140.89 65.07 140.89S92.59 147.28 120.09 147.28S148.62 142.31 175.11 142.31S202.73 140.64 230.13 140.64S258.63 142.14 285.15 142.14S313.65 149.23 340.17 149.23S368.54 147.42 395.2 147.42S422.71 143.36 450.22 143.36S479.17 147.27 505.24 147.27S533.2 141.19 560.26 141.19S587.9 143.5 615.28 143.5S642.89 144.98 670.31 144.98S698.69 151.29 725.33 151.29S753.86 147.48 780.35 147.48S809.26 146.57 835.37 146.57S863.68 139.9 890.39 139.9S918.49 141.16 945.41 141.16S973.12 133.43 1000.44 133.43S1028.9 140.99 1055.46 140.99S1083.34 135.22 1110.48 135.22S1139.32 138.15 1165.5 138.15S1193.6 147.01 1220.52 147.01S1249.05 152.21 1275.55 152.21S1303.18 137.72 1330.57 137.72L1300 1200 L-100 1200 Z;M-100 144.65C-72.29 140.91 -71.13 140.74 -44.98 140.74S-15.89 138.93 10.04 138.93S38.2 138.72 65.07 138.72S93.92 145.74 120.09 145.74S148.18 145.7 175.11 145.7S203.42 134.52 230.13 134.52S258.85 145.49 285.15 145.49S313.19 146.4 340.17 146.4S368.7 143.69 395.2 143.69S424.19 136.61 450.22 136.61S478.03 142.22 505.24 142.22S532.77 144.49 560.26 144.49S588.44 144.66 615.28 144.66S643.65 145.03 670.31 145.03S699.14 142.28 725.33 142.28S754.16 135.5 780.35 135.5S809.15 149.1 835.37 149.1S863.96 136.78 890.39 136.78S918.42 149.84 945.41 149.84S973.96 143.9 1000.44 143.9S1029.15 143.35 1055.46 143.35S1084.23 148.84 1110.48 148.84S1139.31 140.69 1165.5 140.69S1193.09 148.07 1220.52 148.07S1248.19 147.6 1275.55 147.6S1303.31 140.04 1330.57 140.04L1300 1200 L-100 1200 Z"></animate>
  <animateTransform attributeName="transform" type="translate" dur="8.433734939759036s" begin="-1.8741633199464525s" repeatCount="indefinite" values="0;10;0" calcMode="spline" keySplines="0.3 0 0.7 1;0.3 0 0.7 1"></animateTransform>
</path><path d="M-100 155.91C-71.16 167.86 -71.06 161.93 -43.24 161.93S-13.29 161.24 13.51 161.24S42.47 168.42 70.27 168.42S98.75 160.59 127.03 160.59S156.28 163.16 183.78 163.16S212.54 153.16 240.54 153.16S270.5 159.77 297.3 159.77S327.08 158.68 354.05 158.68S383.93 166.22 410.81 166.22S440.15 167.78 467.57 167.78S496.7 166.69 524.32 166.69S553.11 167.46 581.08 167.46S610.76 161.76 637.84 161.76S666.58 167.23 694.59 167.23S724.19 157.99 751.35 157.99S781.29 153.15 808.11 153.15S838.05 163.19 864.86 163.19S894.76 167.15 921.62 167.15S950.65 168.48 978.38 168.48S1008.15 160.48 1035.14 160.48S1064.87 169.19 1091.89 169.19S1121.15 166.44 1148.65 166.44S1178.52 171.28 1205.41 171.28S1235.1 162.98 1262.16 162.98S1290.96 159.02 1318.92 159.02L1300 1200 L-100 1200 Z" fill="#9feaed" stroke-width="0">
  <animate attributeName="d" dur="7.228915662650602s" repeatCount="indefinite" values="M-100 155.91C-71.16 167.86 -71.06 161.93 -43.24 161.93S-13.29 161.24 13.51 161.24S42.47 168.42 70.27 168.42S98.75 160.59 127.03 160.59S156.28 163.16 183.78 163.16S212.54 153.16 240.54 153.16S270.5 159.77 297.3 159.77S327.08 158.68 354.05 158.68S383.93 166.22 410.81 166.22S440.15 167.78 467.57 167.78S496.7 166.69 524.32 166.69S553.11 167.46 581.08 167.46S610.76 161.76 637.84 161.76S666.58 167.23 694.59 167.23S724.19 157.99 751.35 157.99S781.29 153.15 808.11 153.15S838.05 163.19 864.86 163.19S894.76 167.15 921.62 167.15S950.65 168.48 978.38 168.48S1008.15 160.48 1035.14 160.48S1064.87 169.19 1091.89 169.19S1121.15 166.44 1148.65 166.44S1178.52 171.28 1205.41 171.28S1235.1 162.98 1262.16 162.98S1290.96 159.02 1318.92 159.02L1300 1200 L-100 1200 Z;M-100 152.02C-71.5 155.25 -70.41 167.79 -43.24 167.79S-14.02 160.49 13.51 160.49S42.82 159.16 70.27 159.16S99.15 164.21 127.03 164.21S156.52 164.76 183.78 164.76S212.28 157.14 240.54 157.14S269.79 159.01 297.3 159.01S326.24 155.5 354.05 155.5S383.87 170.37 410.81 170.37S440.73 156.72 467.57 156.72S496.37 165.69 524.32 165.69S553.65 167.22 581.08 167.22S610.58 171.69 637.84 171.69S667.01 165.51 694.59 165.51S723.19 168.14 751.35 168.14S781.04 165.77 808.11 165.77S837.71 162.54 864.86 162.54S893.27 152.13 921.62 152.13S951.34 171.12 978.38 171.12S1007.95 160.2 1035.14 160.2S1064.97 162.91 1091.89 162.91S1120.85 167.2 1148.65 167.2S1177.35 159.86 1205.41 159.86S1234.53 165.49 1262.16 165.49S1291.71 162.14 1318.92 162.14L1300 1200 L-100 1200 Z;M-100 155.91C-71.16 167.86 -71.06 161.93 -43.24 161.93S-13.29 161.24 13.51 161.24S42.47 168.42 70.27 168.42S98.75 160.59 127.03 160.59S156.28 163.16 183.78 163.16S212.54 153.16 240.54 153.16S270.5 159.77 297.3 159.77S327.08 158.68 354.05 158.68S383.93 166.22 410.81 166.22S440.15 167.78 467.57 167.78S496.7 166.69 524.32 166.69S553.11 167.46 581.08 167.46S610.76 161.76 637.84 161.76S666.58 167.23 694.59 167.23S724.19 157.99 751.35 157.99S781.29 153.15 808.11 153.15S838.05 163.19 864.86 163.19S894.76 167.15 921.62 167.15S950.65 168.48 978.38 168.48S1008.15 160.48 1035.14 160.48S1064.87 169.19 1091.89 169.19S1121.15 166.44 1148.65 166.44S1178.52 171.28 1205.41 171.28S1235.1 162.98 1262.16 162.98S1290.96 159.02 1318.92 159.02L1300 1200 L-100 1200 Z"></animate>
  <animateTransform attributeName="transform" type="translate" dur="7.228915662650602s" begin="-2.4096385542168672s" repeatCount="indefinite" values="0;10;0" calcMode="spline" keySplines="0.3 0 0.7 1;0.3 0 0.7 1"></animateTransform>
</path><path d="M-100 185.61C-70.48 177.22 -70.4 182.77 -41.4 182.77S-11.86 179.99 17.21 179.99S47.51 188.98 75.81 188.98S106.42 185.34 134.42 185.34S163.75 189.5 193.02 189.5S223.37 181.53 251.63 181.53S281.45 187.66 310.23 187.66S340.11 172.27 368.84 172.27S398.94 188.23 427.44 188.23S457.49 186.15 486.05 186.15S515.84 184.43 544.65 184.43S574.52 177.56 603.26 177.56S633.19 186.92 661.86 186.92S692.01 176.02 720.47 176.02S750.41 191.1 779.07 191.1S809.77 185.76 837.67 185.76S867.34 182.92 896.28 182.92S926.86 183.98 954.88 183.98S984.27 183.41 1013.49 183.41S1043.44 176.74 1072.09 176.74S1101.69 184.32 1130.7 184.32S1161.05 174.3 1189.3 174.3S1219.65 188.61 1247.91 188.61S1277.32 179.01 1306.51 179.01L1300 1200 L-100 1200 Z" fill="#8de3ed" stroke-width="0">
  <animate attributeName="d" dur="6.024096385542168s" repeatCount="indefinite" values="M-100 185.61C-70.48 177.22 -70.4 182.77 -41.4 182.77S-11.86 179.99 17.21 179.99S47.51 188.98 75.81 188.98S106.42 185.34 134.42 185.34S163.75 189.5 193.02 189.5S223.37 181.53 251.63 181.53S281.45 187.66 310.23 187.66S340.11 172.27 368.84 172.27S398.94 188.23 427.44 188.23S457.49 186.15 486.05 186.15S515.84 184.43 544.65 184.43S574.52 177.56 603.26 177.56S633.19 186.92 661.86 186.92S692.01 176.02 720.47 176.02S750.41 191.1 779.07 191.1S809.77 185.76 837.67 185.76S867.34 182.92 896.28 182.92S926.86 183.98 954.88 183.98S984.27 183.41 1013.49 183.41S1043.44 176.74 1072.09 176.74S1101.69 184.32 1130.7 184.32S1161.05 174.3 1189.3 174.3S1219.65 188.61 1247.91 188.61S1277.32 179.01 1306.51 179.01L1300 1200 L-100 1200 Z;M-100 183.58C-69.3 182.7 -69.51 190.43 -41.4 190.43S-11.03 172.02 17.21 172.02S47.06 191.76 75.81 191.76S105.85 184.98 134.42 184.98S163.84 185.95 193.02 185.95S222.54 177.16 251.63 177.16S282.44 184.95 310.23 184.95S340.64 183.1 368.84 183.1S398.41 188.16 427.44 188.16S456.99 181.73 486.05 181.73S516.9 191.52 544.65 191.52S575.4 184.91 603.26 184.91S634.04 189.74 661.86 189.74S691.75 184.37 720.47 184.37S750.43 188.54 779.07 188.54S809.96 177.58 837.67 177.58S868.2 183 896.28 183S926.99 177.51 954.88 177.51S985.3 181.95 1013.49 181.95S1044.35 182.66 1072.09 182.66S1102.22 174.24 1130.7 174.24S1161.41 186.32 1189.3 186.32S1220.13 177.89 1247.91 177.89S1277.69 177.62 1306.51 177.62L1300 1200 L-100 1200 Z;M-100 185.61C-70.48 177.22 -70.4 182.77 -41.4 182.77S-11.86 179.99 17.21 179.99S47.51 188.98 75.81 188.98S106.42 185.34 134.42 185.34S163.75 189.5 193.02 189.5S223.37 181.53 251.63 181.53S281.45 187.66 310.23 187.66S340.11 172.27 368.84 172.27S398.94 188.23 427.44 188.23S457.49 186.15 486.05 186.15S515.84 184.43 544.65 184.43S574.52 177.56 603.26 177.56S633.19 186.92 661.86 186.92S692.01 176.02 720.47 176.02S750.41 191.1 779.07 191.1S809.77 185.76 837.67 185.76S867.34 182.92 896.28 182.92S926.86 183.98 954.88 183.98S984.27 183.41 1013.49 183.41S1043.44 176.74 1072.09 176.74S1101.69 184.32 1130.7 184.32S1161.05 174.3 1189.3 174.3S1219.65 188.61 1247.91 188.61S1277.32 179.01 1306.51 179.01L1300 1200 L-100 1200 Z"></animate>
  <animateTransform attributeName="transform" type="translate" dur="6.024096385542168s" begin="-2.6773761713520745s" repeatCount="indefinite" values="0;10;0" calcMode="spline" keySplines="0.3 0 0.7 1;0.3 0 0.7 1"></animateTransform>
</path><path d="M-100 211.53C-68.22 207.48 -68.87 212 -39.42 212S-7.99 194.2 21.15 194.2S51.83 209.61 81.73 209.61S113.26 204.29 142.31 204.29S173.44 204.19 202.88 204.19S233.34 192.27 263.46 192.27S294.29 197.94 324.04 197.94S354.44 195.13 384.62 195.13S415.9 209.7 445.19 209.7S476.85 189.54 505.77 189.54S537.3 206.18 566.35 206.18S597.01 208 626.92 208S657.49 199.01 687.5 199.01S719.34 199.17 748.08 199.17S778.42 198.06 808.65 198.06S839.01 202.56 869.23 202.56S900.93 201.39 929.81 201.39S960.56 192.75 990.38 192.75S1022.1 197.94 1050.96 197.94S1081.78 193.55 1111.54 193.55S1141.9 197.32 1172.12 197.32S1203.69 201.7 1232.69 201.7S1264.47 196.98 1293.27 196.98S1324 191.59 1353.85 191.59L1300 1200 L-100 1200 Z" fill="#7bdbee" stroke-width="0">
  <animate attributeName="d" dur="4.8192771084337345s" repeatCount="indefinite" values="M-100 211.53C-68.22 207.48 -68.87 212 -39.42 212S-7.99 194.2 21.15 194.2S51.83 209.61 81.73 209.61S113.26 204.29 142.31 204.29S173.44 204.19 202.88 204.19S233.34 192.27 263.46 192.27S294.29 197.94 324.04 197.94S354.44 195.13 384.62 195.13S415.9 209.7 445.19 209.7S476.85 189.54 505.77 189.54S537.3 206.18 566.35 206.18S597.01 208 626.92 208S657.49 199.01 687.5 199.01S719.34 199.17 748.08 199.17S778.42 198.06 808.65 198.06S839.01 202.56 869.23 202.56S900.93 201.39 929.81 201.39S960.56 192.75 990.38 192.75S1022.1 197.94 1050.96 197.94S1081.78 193.55 1111.54 193.55S1141.9 197.32 1172.12 197.32S1203.69 201.7 1232.69 201.7S1264.47 196.98 1293.27 196.98S1324 191.59 1353.85 191.59L1300 1200 L-100 1200 Z;M-100 198.84C-68.64 203.95 -68.47 205.86 -39.42 205.86S-8.6 203.1 21.15 203.1S51.87 203.33 81.73 203.33S112.61 195.94 142.31 195.94S172.84 198.57 202.88 198.57S234.02 195.35 263.46 195.35S294.48 202.62 324.04 202.62S354.56 204.17 384.62 204.17S415.67 200.51 445.19 200.51S476.26 204.88 505.77 204.88S536.1 212.14 566.35 212.14S597.36 195.22 626.92 195.22S658.18 199.11 687.5 199.11S718.8 191.19 748.08 191.19S778.73 208.98 808.65 208.98S839.05 201.41 869.23 201.41S900.22 203.96 929.81 203.96S960.72 203.33 990.38 203.33S1020.68 210.51 1050.96 210.51S1081.98 197.89 1111.54 197.89S1142.09 209.99 1172.12 209.99S1202.43 201.76 1232.69 201.76S1263.52 202.75 1293.27 202.75S1324.39 191.68 1353.85 191.68L1300 1200 L-100 1200 Z;M-100 211.53C-68.22 207.48 -68.87 212 -39.42 212S-7.99 194.2 21.15 194.2S51.83 209.61 81.73 209.61S113.26 204.29 142.31 204.29S173.44 204.19 202.88 204.19S233.34 192.27 263.46 192.27S294.29 197.94 324.04 197.94S354.44 195.13 384.62 195.13S415.9 209.7 445.19 209.7S476.85 189.54 505.77 189.54S537.3 206.18 566.35 206.18S597.01 208 626.92 208S657.49 199.01 687.5 199.01S719.34 199.17 748.08 199.17S778.42 198.06 808.65 198.06S839.01 202.56 869.23 202.56S900.93 201.39 929.81 201.39S960.56 192.75 990.38 192.75S1022.1 197.94 1050.96 197.94S1081.78 193.55 1111.54 193.55S1141.9 197.32 1172.12 197.32S1203.69 201.7 1232.69 201.7S1264.47 196.98 1293.27 196.98S1324 191.59 1353.85 191.59L1300 1200 L-100 1200 Z"></animate>
  <animateTransform attributeName="transform" type="translate" dur="4.8192771084337345s" begin="-2.6773761713520745s" repeatCount="indefinite" values="0;10;0" calcMode="spline" keySplines="0.3 0 0.7 1;0.3 0 0.7 1"></animateTransform>
</path><path d="M-100 221.94C-67.26 211.19 -67.38 221.39 -37.31 221.39S-5.12 216.71 25.37 216.71S57.89 220.1 88.06 220.1S120.08 209.08 150.75 209.08S182.48 222.05 213.43 222.05S245.35 211.14 276.12 211.14S308.14 225.31 338.81 225.31S370.75 221.32 401.49 221.32S433.87 230.61 464.18 230.61S496.68 227.61 526.87 227.61S558.93 224.43 589.55 224.43S621.32 218.55 652.24 218.55S683.66 223.48 714.93 223.48S746.81 208.75 777.61 208.75S810.34 221.45 840.3 221.45S872.12 214.2 902.99 214.2S935.59 224.66 965.67 224.66S998.15 223.34 1028.36 223.34S1060.06 230.77 1091.04 230.77S1122.97 221.95 1153.73 221.95S1185.41 229.72 1216.42 229.72S1248.48 218.8 1279.1 218.8S1311.94 219.53 1341.79 219.53L1300 1200 L-100 1200 Z" fill="#69d3ef" stroke-width="0">
  <animate attributeName="d" dur="3.614457831325301s" repeatCount="indefinite" values="M-100 221.94C-67.26 211.19 -67.38 221.39 -37.31 221.39S-5.12 216.71 25.37 216.71S57.89 220.1 88.06 220.1S120.08 209.08 150.75 209.08S182.48 222.05 213.43 222.05S245.35 211.14 276.12 211.14S308.14 225.31 338.81 225.31S370.75 221.32 401.49 221.32S433.87 230.61 464.18 230.61S496.68 227.61 526.87 227.61S558.93 224.43 589.55 224.43S621.32 218.55 652.24 218.55S683.66 223.48 714.93 223.48S746.81 208.75 777.61 208.75S810.34 221.45 840.3 221.45S872.12 214.2 902.99 214.2S935.59 224.66 965.67 224.66S998.15 223.34 1028.36 223.34S1060.06 230.77 1091.04 230.77S1122.97 221.95 1153.73 221.95S1185.41 229.72 1216.42 229.72S1248.48 218.8 1279.1 218.8S1311.94 219.53 1341.79 219.53L1300 1200 L-100 1200 Z;M-100 213.41C-67.16 222.46 -67.74 227.97 -37.31 227.97S-5.48 221.31 25.37 221.31S56.79 227.31 88.06 227.31S120.9 222.64 150.75 222.64S182.42 224.64 213.43 224.64S246.11 209.59 276.12 209.59S308.45 223.93 338.81 223.93S370.27 217.02 401.49 217.02S434.04 218.44 464.18 218.44S495.75 218.27 526.87 218.27S559.35 232.76 589.55 232.76S621.51 211.98 652.24 211.98S685.09 217.65 714.93 217.65S746.51 209.07 777.61 209.07S810.46 217.77 840.3 217.77S872.6 220 902.99 220S935.02 226.85 965.67 226.85S997.31 217.2 1028.36 217.2S1060.95 220.45 1091.04 220.45S1123.59 210.46 1153.73 210.46S1186.66 225.23 1216.42 225.23S1248.21 215.17 1279.1 215.17S1310.7 222.58 1341.79 222.58L1300 1200 L-100 1200 Z;M-100 221.94C-67.26 211.19 -67.38 221.39 -37.31 221.39S-5.12 216.71 25.37 216.71S57.89 220.1 88.06 220.1S120.08 209.08 150.75 209.08S182.48 222.05 213.43 222.05S245.35 211.14 276.12 211.14S308.14 225.31 338.81 225.31S370.75 221.32 401.49 221.32S433.87 230.61 464.18 230.61S496.68 227.61 526.87 227.61S558.93 224.43 589.55 224.43S621.32 218.55 652.24 218.55S683.66 223.48 714.93 223.48S746.81 208.75 777.61 208.75S810.34 221.45 840.3 221.45S872.12 214.2 902.99 214.2S935.59 224.66 965.67 224.66S998.15 223.34 1028.36 223.34S1060.06 230.77 1091.04 230.77S1122.97 221.95 1153.73 221.95S1185.41 229.72 1216.42 229.72S1248.48 218.8 1279.1 218.8S1311.94 219.53 1341.79 219.53L1300 1200 L-100 1200 Z"></animate>
  <animateTransform attributeName="transform" type="translate" dur="3.614457831325301s" begin="-2.4096385542168672s" repeatCount="indefinite" values="0;10;0" calcMode="spline" keySplines="0.3 0 0.7 1;0.3 0 0.7 1"></animateTransform>
</path><path d="M-100 236.28C-65.96 226.96 -67.1 237.72 -35.05 237.72S-1.01 239.75 29.9 239.75S63.5 241.03 94.85 241.03S128.65 241.46 159.79 241.46S192.45 249.78 224.74 249.78S258.48 229.68 289.69 229.68S322.7 245.08 354.64 245.08S388.44 232.59 419.59 232.59S452.52 239.82 484.54 239.82S517.94 242.34 549.48 242.34S583.17 238.74 614.43 238.74S647.43 240.93 679.38 240.93S712.88 242.16 744.33 242.16S777.14 242.44 809.28 242.44S843.27 242.26 874.23 242.26S908.1 235.94 939.18 235.94S973.07 238.74 1004.12 238.74S1036.96 239.84 1069.07 239.84S1102.48 248.18 1134.02 248.18S1167.87 232.43 1198.97 232.43S1231.48 238.12 1263.92 238.12S1296.53 228.05 1328.87 228.05L1300 1200 L-100 1200 Z" fill="#58caf1" stroke-width="0">
  <animate attributeName="d" dur="2.4096385542168672s" repeatCount="indefinite" values="M-100 236.28C-65.96 226.96 -67.1 237.72 -35.05 237.72S-1.01 239.75 29.9 239.75S63.5 241.03 94.85 241.03S128.65 241.46 159.79 241.46S192.45 249.78 224.74 249.78S258.48 229.68 289.69 229.68S322.7 245.08 354.64 245.08S388.44 232.59 419.59 232.59S452.52 239.82 484.54 239.82S517.94 242.34 549.48 242.34S583.17 238.74 614.43 238.74S647.43 240.93 679.38 240.93S712.88 242.16 744.33 242.16S777.14 242.44 809.28 242.44S843.27 242.26 874.23 242.26S908.1 235.94 939.18 235.94S973.07 238.74 1004.12 238.74S1036.96 239.84 1069.07 239.84S1102.48 248.18 1134.02 248.18S1167.87 232.43 1198.97 232.43S1231.48 238.12 1263.92 238.12S1296.53 228.05 1328.87 228.05L1300 1200 L-100 1200 Z;M-100 235.37C-66.45 230.35 -66.23 238.64 -35.05 238.64S-1.91 228.96 29.9 228.96S63.79 246.57 94.85 246.57S128.49 238.98 159.79 238.98S193.52 248.35 224.74 248.35S258.15 234.73 289.69 234.73S322.67 252.71 354.64 252.71S387.84 237.92 419.59 237.92S453.44 241.28 484.54 241.28S517.71 230.96 549.48 230.96S583.44 250.93 614.43 250.93S647.17 229.3 679.38 229.3S712.77 250.41 744.33 250.41S776.95 227.87 809.28 227.87S843.03 239.14 874.23 239.14S906.95 237.1 939.18 237.1S971.78 243.58 1004.12 243.58S1036.99 236.09 1069.07 236.09S1102.5 240.71 1134.02 240.71S1167.58 233.99 1198.97 233.99S1232.64 245.3 1263.92 245.3S1296.59 234.86 1328.87 234.86L1300 1200 L-100 1200 Z;M-100 236.28C-65.96 226.96 -67.1 237.72 -35.05 237.72S-1.01 239.75 29.9 239.75S63.5 241.03 94.85 241.03S128.65 241.46 159.79 241.46S192.45 249.78 224.74 249.78S258.48 229.68 289.69 229.68S322.7 245.08 354.64 245.08S388.44 232.59 419.59 232.59S452.52 239.82 484.54 239.82S517.94 242.34 549.48 242.34S583.17 238.74 614.43 238.74S647.43 240.93 679.38 240.93S712.88 242.16 744.33 242.16S777.14 242.44 809.28 242.44S843.27 242.26 874.23 242.26S908.1 235.94 939.18 235.94S973.07 238.74 1004.12 238.74S1036.96 239.84 1069.07 239.84S1102.48 248.18 1134.02 248.18S1167.87 232.43 1198.97 232.43S1231.48 238.12 1263.92 238.12S1296.53 228.05 1328.87 228.05L1300 1200 L-100 1200 Z"></animate>
  <animateTransform attributeName="transform" type="translate" dur="2.4096385542168672s" begin="-1.874163319946452s" repeatCount="indefinite" values="0;10;0" calcMode="spline" keySplines="0.3 0 0.7 1;0.3 0 0.7 1"></animateTransform>
</path><path d="M-100 256.52C-65.84 245.52 -65.66 261.57 -32.62 261.57S2.45 255.39 34.76 255.39S68.59 267.93 102.14 267.93S136.98 255.6 169.52 255.6S204.27 264.55 236.9 264.55S271.96 259.67 304.28 259.67S339.16 247.89 371.66 247.89S405.67 252.07 439.04 252.07S473.55 247.49 506.42 247.49S540.96 259.65 573.8 259.65S607.91 262.89 641.18 262.89S676.1 252.35 708.56 252.35S743.4 271.64 775.94 271.64S811.2 246.77 843.32 246.77S877.94 261.92 910.7 261.92S945.54 246.23 978.07 246.23S1012.58 262.07 1045.45 262.07S1079.7 249.89 1112.83 249.89S1147.27 258.55 1180.21 258.55S1215.05 260.27 1247.59 260.27S1281.67 267.06 1314.97 267.06L1300 1200 L-100 1200 Z" fill="#49c1f3" stroke-width="0">
  <animate attributeName="d" dur="1.2048192771084336s" repeatCount="indefinite" values="M-100 256.52C-65.84 245.52 -65.66 261.57 -32.62 261.57S2.45 255.39 34.76 255.39S68.59 267.93 102.14 267.93S136.98 255.6 169.52 255.6S204.27 264.55 236.9 264.55S271.96 259.67 304.28 259.67S339.16 247.89 371.66 247.89S405.67 252.07 439.04 252.07S473.55 247.49 506.42 247.49S540.96 259.65 573.8 259.65S607.91 262.89 641.18 262.89S676.1 252.35 708.56 252.35S743.4 271.64 775.94 271.64S811.2 246.77 843.32 246.77S877.94 261.92 910.7 261.92S945.54 246.23 978.07 246.23S1012.58 262.07 1045.45 262.07S1079.7 249.89 1112.83 249.89S1147.27 258.55 1180.21 258.55S1215.05 260.27 1247.59 260.27S1281.67 267.06 1314.97 267.06L1300 1200 L-100 1200 Z;M-100 267.33C-64.97 266.43 -65.16 264.77 -32.62 264.77S2.29 255.94 34.76 255.94S68.93 272.17 102.14 272.17S136.99 250.32 169.52 250.32S203.6 268.86 236.9 268.86S270.66 250.76 304.28 250.76S338.73 260.25 371.66 260.25S405.7 252.34 439.04 252.34S473.66 264.6 506.42 264.6S540.75 256.09 573.8 256.09S608.75 263.23 641.18 263.23S676.39 254.98 708.56 254.98S743.46 266.16 775.94 266.16S810.96 252.15 843.32 252.15S878.54 257.87 910.7 257.87S945.87 249.96 978.07 249.96S1012.23 270.01 1045.45 270.01S1080.61 247.37 1112.83 247.37S1147.03 268.09 1180.21 268.09S1215 249.83 1247.59 249.83S1281.59 261.2 1314.97 261.2L1300 1200 L-100 1200 Z;M-100 256.52C-65.84 245.52 -65.66 261.57 -32.62 261.57S2.45 255.39 34.76 255.39S68.59 267.93 102.14 267.93S136.98 255.6 169.52 255.6S204.27 264.55 236.9 264.55S271.96 259.67 304.28 259.67S339.16 247.89 371.66 247.89S405.67 252.07 439.04 252.07S473.55 247.49 506.42 247.49S540.96 259.65 573.8 259.65S607.91 262.89 641.18 262.89S676.1 252.35 708.56 252.35S743.4 271.64 775.94 271.64S811.2 246.77 843.32 246.77S877.94 261.92 910.7 261.92S945.54 246.23 978.07 246.23S1012.58 262.07 1045.45 262.07S1079.7 249.89 1112.83 249.89S1147.27 258.55 1180.21 258.55S1215.05 260.27 1247.59 260.27S1281.67 267.06 1314.97 267.06L1300 1200 L-100 1200 Z"></animate>
  <animateTransform attributeName="transform" type="translate" dur="1.2048192771084336s" begin="-1.07095046854083s" repeatCount="indefinite" values="0;10;0" calcMode="spline" keySplines="0.3 0 0.7 1;0.3 0 0.7 1"></animateTransform>
</path></g>
</svg>