<svg id="Capa_1" enable-background="new 0 0 512 512" height="512" viewBox="0 0 512 512" width="512" xmlns="http://www.w3.org/2000/svg"><g><path d="m456.403 0h-376.758c-17.396 0-31.548 14.153-31.548 31.548v8.532h-8.532c-8.556 0-15.516 6.96-15.516 15.516v16.032c0 8.556 6.96 15.516 15.516 15.516h8.532v81.193h-8.532c-8.556 0-15.516 6.96-15.516 15.516v16.032c0 8.556 6.96 15.516 15.516 15.516h8.532v81.193h-8.532c-8.556 0-15.516 6.96-15.516 15.516v16.032c0 8.556 6.96 15.516 15.516 15.516h8.532v81.194h-8.532c-8.556 0-15.516 6.96-15.516 15.516v16.032c0 8.556 6.96 15.516 15.516 15.516h8.532v8.532c0 17.396 14.152 31.548 31.548 31.548h376.758c17.396 0 31.548-14.152 31.548-31.548v-448.9c.001-17.395-14.152-31.548-31.548-31.548zm-417.355 71.629v-16.032c0-.285.231-.516.516-.516h32.064c.285 0 .516.231.516.516v16.032c0 .285-.231.516-.516.516h-32.064c-.284 0-.516-.231-.516-.516zm0 128.258v-16.032c0-.285.231-.516.516-.516h32.064c.285 0 .516.231.516.516v16.032c0 .285-.231.516-.516.516h-32.064c-.284 0-.516-.231-.516-.516zm0 128.258v-16.032c0-.285.231-.516.516-.516h32.064c.285 0 .516.231.516.516v16.032c0 .285-.231.516-.516.516h-32.064c-.284 0-.516-.231-.516-.516zm0 128.258v-16.032c0-.285.231-.516.516-.516h32.064c.285 0 .516.231.516.516v16.032c0 .285-.231.516-.516.516h-32.064c-.284 0-.516-.231-.516-.516zm433.904 24.049c0 9.125-7.423 16.548-16.548 16.548h-337.195v-417.351c0-4.142-3.358-7.5-7.5-7.5s-7.5 3.358-7.5 7.5v417.351h-24.564c-9.125 0-16.548-7.423-16.548-16.548v-8.532h8.532c8.556 0 15.516-6.96 15.516-15.516v-16.032c0-8.556-6.96-15.516-15.516-15.516h-8.532v-81.194h8.532c8.556 0 15.516-6.96 15.516-15.516v-16.032c0-8.556-6.96-15.516-15.516-15.516h-8.532v-81.193h8.532c8.556 0 15.516-6.96 15.516-15.516v-16.032c0-8.556-6.96-15.516-15.516-15.516h-8.532v-81.196h8.532c8.556 0 15.516-6.96 15.516-15.516v-16.032c0-8.556-6.96-15.516-15.516-15.516h-8.532v-8.532c0-9.125 7.423-16.549 16.548-16.549h24.564v32.583c0 4.142 3.358 7.5 7.5 7.5s7.5-3.358 7.5-7.5v-32.583h337.194c9.125 0 16.548 7.424 16.548 16.548v448.904z"/><path d="m256.516 223.936c0 21.816 17.749 39.564 39.564 39.564s39.564-17.749 39.564-39.564c0-21.816-17.749-39.565-39.564-39.565s-39.564 17.748-39.564 39.565zm64.129 0c0 13.545-11.02 24.564-24.564 24.564s-24.564-11.02-24.564-24.564 11.02-24.565 24.564-24.565 24.564 11.02 24.564 24.565z"/><path d="m387.04 177.201c-3.292 2.514-3.922 7.221-1.408 10.513 15.172 19.863 23.191 43.476 23.191 68.286 0 37.867-18.766 71.434-47.487 91.889l-12.578-37.737c-4.301-12.903-16.329-21.572-29.93-21.572h-45.495c-13.601 0-25.629 8.669-29.929 21.572l-12.579 37.736c-28.72-20.455-47.486-54.022-47.486-91.889 0-62.166 50.576-112.742 112.742-112.742 24.811 0 48.423 8.019 68.286 23.191 3.292 2.513 7.998 1.885 10.513-1.408 2.514-3.292 1.884-7.998-1.408-10.513-22.5-17.186-49.262-26.27-77.391-26.27-70.437 0-127.742 57.305-127.742 127.742s57.305 127.742 127.742 127.742c70.438 0 127.742-57.305 127.742-127.742 0-28.129-9.084-54.89-26.27-77.391-2.515-3.291-7.221-3.921-10.513-1.407zm-143.088 178.741 13.682-41.047c2.256-6.768 8.564-11.315 15.699-11.315h45.495c7.134 0 13.443 4.547 15.699 11.315l13.682 41.046c-15.599 8.169-33.332 12.8-52.128 12.8s-36.529-4.629-52.129-12.799z"/></g></svg>