<svg width="16" height="8" viewBox="0 0 16 8" fill="none" xmlns="http://www.w3.org/2000/svg">
<path d="M15.4286 4.25893C15.4286 4.17857 15.3929 4.10714 15.3393 4.05357L11.9107 0.928571C11.8214 0.857142 11.7054 0.839285 11.5982 0.883928C11.4911 0.928571 11.4286 1.02678 11.4286 1.14286V3.14286H0.285714C0.125 3.14286 0 3.26786 0 3.42857V5.14286C0 5.30357 0.125 5.42857 0.285714 5.42857H11.4286V7.42857C11.4286 7.54464 11.5 7.64286 11.5982 7.6875C11.7054 7.73214 11.8214 7.71429 11.9107 7.63393L15.3393 4.47321C15.3929 4.41964 15.4286 4.33929 15.4286 4.25893Z" fill="black"/>
</svg>
