<svg width="20" height="20" viewBox="0 0 20 20" fill="none" xmlns="http://www.w3.org/2000/svg">
<path fill-rule="evenodd" clip-rule="evenodd" d="M20 6.99962C20 7.18369 19.8508 7.33293 19.6667 7.33293H18.6668V17.3323H19.6667C19.8508 17.3323 20 17.4815 20 17.6656V19.6654C20 19.8495 19.8508 19.9987 19.6667 19.9987H0.334644C0.150573 19.9987 0.00133324 19.8495 0.00133324 19.6654V17.6656C0.00133324 17.4815 0.150573 17.3323 0.334644 17.3323H1.33458V7.33293H0.333311C0.14924 7.33293 0 7.18369 0 6.99962V5.66637C0 5.66421 0.000583294 5.66229 0.00116659 5.66037C0.00174988 5.65846 0.00233318 5.65654 0.00233318 5.65437C0.00362476 5.61796 0.0109159 5.58204 0.0239984 5.54805C0.0269982 5.54405 0.0269982 5.53938 0.0269982 5.53538C0.0432055 5.49901 0.0657456 5.4658 0.0936604 5.43739C0.103535 5.42864 0.113909 5.42039 0.124658 5.41272C0.139574 5.3986 0.15574 5.38589 0.172988 5.37472L9.83901 0.0417472C9.93913 -0.0139157 10.0609 -0.0139157 10.161 0.0417472L19.827 5.37472C19.8443 5.38589 19.8604 5.3986 19.8753 5.41272C19.8861 5.42039 19.8965 5.42864 19.9063 5.43739C19.9343 5.4658 19.9568 5.49901 19.973 5.53538C19.976 5.53938 19.976 5.54405 19.976 5.54805C19.9891 5.58204 19.9964 5.61796 19.9977 5.65437C19.9977 5.65654 19.9982 5.65846 19.9988 5.66037C19.9994 5.66229 20 5.66421 20 5.66637V6.99962ZM18.3724 5.33306L10.0007 0.714036L1.62889 5.33306H18.3724ZM19.3334 19.3321V17.9989H0.667955V19.3321H19.3334ZM2.0012 7.33293V17.3323H3.33444V7.33293H2.0012ZM16.6669 7.33293V17.3323H18.0001V7.33293H16.6669ZM0.667955 5.99968V6.66631H19.3334V5.99968H0.667955ZM10.0004 7.9987C7.60733 7.9987 5.66738 9.93866 5.66738 12.3317C5.66738 14.7248 7.60733 16.6648 10.0004 16.6648C12.3935 16.6648 14.3335 14.7248 14.3335 12.3317C14.3307 9.93983 12.3923 8.00145 10.0004 7.9987ZM10.0007 12.0006C9.63252 12.0006 9.33408 11.7021 9.33408 11.3339C9.33408 10.9658 9.63252 10.6673 10.0007 10.6673C10.3689 10.6673 10.6673 10.9658 10.6673 11.3339H11.3339C11.3317 10.7279 10.9209 10.1996 10.334 10.048V9.66739H9.66739V10.048C8.95573 10.2312 8.5273 10.9566 8.71045 11.6683C8.86194 12.2568 9.39295 12.6679 10.0007 12.6672C10.3689 12.6672 10.6673 12.9656 10.6673 13.3338C10.6673 13.702 10.3689 14.0004 10.0007 14.0004C9.63252 14.0004 9.33408 13.702 9.33408 13.3338H8.66746C8.66975 13.9399 9.08055 14.4682 9.66739 14.6197V15.0004H10.334V14.6197C11.0457 14.4366 11.4741 13.7112 11.2909 12.9995C11.1395 12.4109 10.6084 11.9998 10.0007 12.0006Z" fill="black"/>
</svg>
