<svg width="21" height="20" viewBox="0 0 21 20" fill="none" xmlns="http://www.w3.org/2000/svg">
<circle cx="10" cy="10" r="2" fill="#384250"/>
<path d="M10.0132 20C4.50076 20 0 15.5052 0 10C0 4.49484 4.50076 0 10.0132 0C15.5255 0 20.0263 4.49484 20.0263 10C20.0263 12.3505 19.2005 14.6186 17.6933 16.4124C17.5488 16.5773 17.2804 16.6186 17.1153 16.4536C16.9501 16.3093 16.9088 16.0412 17.074 15.8763C18.4572 14.2268 19.2211 12.1443 19.2211 9.97938C19.2211 4.92784 15.092 0.804124 10.0338 0.804124C4.97561 0.804124 0.846471 4.92784 0.846471 9.97938C0.846471 15.0309 4.97561 19.1546 10.0338 19.1546C12.0158 19.1546 13.9152 18.5361 15.5049 17.3402C15.6907 17.1959 15.9385 17.2371 16.083 17.4227C16.2275 17.6082 16.1862 17.8557 16.0004 18C14.2455 19.3196 12.1809 20 10.0132 20Z" fill="#384250"/>
<path d="M10.0134 16.1443C8.67144 16.1443 7.51528 15.7319 6.87526 15.0103H1.83772C1.61062 15.0103 1.4248 14.8247 1.4248 14.5979C1.4248 14.3711 1.61062 14.1855 1.83772 14.1855H7.08172C7.20559 14.1855 7.32947 14.2474 7.41205 14.3505C7.84561 14.9278 8.87789 15.3196 10.0341 15.3196C11.1902 15.3196 12.2018 14.9484 12.656 14.3505C12.7386 14.2474 12.8625 14.1855 12.9864 14.1855H18.2304C18.4575 14.1855 18.6433 14.3711 18.6433 14.5979C18.6433 14.8247 18.4575 15.0103 18.2304 15.0103H13.1928C12.4909 15.7113 11.3554 16.1443 10.0134 16.1443Z" fill="#384250"/>
<path d="M13.1924 6.76314C13.0272 6.59819 12.7795 6.59819 12.6143 6.74252L10.8801 8.41262C10.6323 8.26829 10.3433 8.18582 10.013 8.18582C9.02198 8.18582 8.2168 8.98994 8.2168 9.97963C8.2168 10.9693 9.02198 11.7734 10.013 11.7734C11.004 11.7734 11.8091 10.9693 11.8091 9.97963C11.8091 9.58788 11.6853 9.23736 11.4788 8.9487L13.1718 7.31984C13.3369 7.17551 13.3576 6.92808 13.1924 6.76314ZM10.013 10.9693C9.47619 10.9693 9.04262 10.5363 9.04262 10.0002C9.04262 9.46417 9.47619 9.03118 10.013 9.03118C10.5498 9.03118 10.9833 9.46417 10.9833 10.0002C10.9833 10.5363 10.5498 10.9693 10.013 10.9693Z" fill="#384250"/>
<path d="M17.3838 10.4121H16.3309C16.1038 10.4121 15.918 10.2266 15.918 9.99977C15.918 9.77297 16.1038 9.5874 16.3309 9.5874H17.3838C17.6109 9.5874 17.7967 9.77297 17.7967 9.99977C17.7967 10.2266 17.6109 10.4121 17.3838 10.4121Z" fill="#384250"/>
<path d="M3.69534 9.56689H3.07597H2.25014C2.25014 9.71122 2.22949 9.83494 2.22949 9.97927C2.22949 11.0514 2.43595 12.103 2.86951 13.072C2.95209 13.2782 3.19984 13.3813 3.4063 13.2782C3.61276 13.1958 3.71598 12.9483 3.61276 12.7422C3.28242 11.9999 3.09661 11.1958 3.05532 10.3916H3.67469C3.90179 10.3916 4.0876 10.2061 4.0876 9.97927C4.10825 9.77308 3.92244 9.56689 3.69534 9.56689Z" fill="#384250"/>
<path d="M5.84264 5.25798L5.38844 4.80437L4.81036 4.22705C3.55097 5.36107 2.6632 6.88685 2.35352 8.6188H3.19999C3.44774 7.40231 4.02582 6.30953 4.81036 5.40231L5.26456 5.85592C5.34715 5.93839 5.45038 5.97963 5.5536 5.97963C5.65683 5.97963 5.76006 5.93839 5.84264 5.85592C6.00781 5.69097 6.00781 5.42293 5.84264 5.25798Z" fill="#384250"/>
<path d="M5.57422 3.62911L6.17294 4.22705C7.16394 3.56726 8.34074 3.15489 9.60013 3.07241V3.69097C9.60013 3.91777 9.78594 4.10334 10.013 4.10334C10.2401 4.10334 10.426 3.91777 10.426 3.69097V3.07241V2.63942V2.24767C10.2814 2.24767 10.1576 2.22705 10.013 2.22705C8.36139 2.22705 6.83361 2.74251 5.57422 3.62911Z" fill="#384250"/>
<path d="M11.3965 2.3501V3.19546C12.6146 3.44288 13.7294 4.0202 14.6379 4.82432L14.2043 5.25731C14.0391 5.42226 14.0391 5.66969 14.2043 5.83463C14.2869 5.91711 14.3901 5.95835 14.4933 5.95835C14.5966 5.95835 14.6998 5.91711 14.7824 5.83463L15.2159 5.40164L15.794 4.82432C14.6585 3.54597 13.1307 2.65938 11.3965 2.3501Z" fill="#384250"/>
<path d="M16.95 10.4127H17.7758C17.7758 10.2684 17.7964 10.1447 17.7964 10.0004C17.7964 8.35089 17.2803 6.82511 16.4132 5.56738L15.8145 6.16532C16.537 7.2581 16.9706 8.57769 16.9706 10.0004C16.9706 10.1241 16.95 10.2684 16.95 10.4127Z" fill="#384250"/>
<path d="M16.8259 11.3815C16.7227 11.8969 16.5575 12.3711 16.351 12.8454C16.2478 13.0516 16.351 13.299 16.5575 13.3815C16.6194 13.4021 16.6607 13.4227 16.7227 13.4227C16.8878 13.4227 17.0323 13.3402 17.0943 13.1753C17.3627 12.598 17.5485 11.9794 17.6517 11.3608H16.8259V11.3815Z" fill="#384250"/>
</svg>
