<svg width="16" height="18" viewBox="0 0 16 18" fill="none" xmlns="http://www.w3.org/2000/svg">
<path d="M13.4395 0.0104177C14.1169 0.0117199 14.7658 0.187778 15.2442 0.500048C15.721 0.808671 15.9923 1.22699 15.9993 1.66474V16.5495C16.0123 16.9133 15.8339 17.2692 15.4938 17.5579C15.0096 17.9636 14.1695 18.1093 13.4395 17.9142C12.7997 17.7316 12.2693 17.4177 11.9292 17.0204L7.99988 12.9408L4.07054 17.0204C3.7304 17.4177 3.20004 17.7316 2.56024 17.9142C1.83301 18.1069 0.997783 17.9614 0.515576 17.5579C0.171999 17.27 -0.00982934 16.9141 0.000409978 16.5495V1.66474C0.00240984 1.22371 0.272792 0.801118 0.75236 0.48963C1.23153 0.176892 1.8818 0.000781325 2.56024 0V0.0104177H13.4395Z" fill="#9EA9B9"/>
</svg>
