<svg width="30" height="30" viewBox="0 0 30 30" fill="none" xmlns="http://www.w3.org/2000/svg">
<circle cx="15" cy="15" r="15" fill="#384250"/>
<path fill-rule="evenodd" clip-rule="evenodd" d="M11.1717 8.7852L10.9998 9.6279H18.8555L18.6836 8.7852C18.5908 8.33024 18.18 8 17.7068 8H12.1484C11.6753 8 11.2645 8.33024 11.1717 8.7852ZM7.49414 10H22.5059C23.3297 10 24 10.6573 24 11.4651V19.9302C24 20.7381 23.3297 21.3953 22.5059 21.3953H7.49414C6.67027 21.3953 6 20.7381 6 19.9302V11.4651C6 10.6573 6.67027 10 7.49414 10ZM18.75 13.0605H20.3438C20.6188 13.0605 20.8418 12.8418 20.8418 12.5721C20.8418 12.3024 20.6188 12.0837 20.3438 12.0837H18.75C18.4749 12.0837 18.252 12.3024 18.252 12.5721C18.252 12.8418 18.4749 13.0605 18.75 13.0605ZM14.5 19.3116C16.5322 19.3116 18.1855 17.6904 18.1855 15.6977C18.1855 13.7049 16.5322 12.0837 14.5 12.0837C12.4678 12.0837 10.8145 13.7049 10.8145 15.6977C10.8145 17.6904 12.4678 19.3116 14.5 19.3116ZM14.5 18.3348C13.0147 18.3348 11.8106 17.1541 11.8106 15.6976C11.8106 14.2411 13.0147 13.0604 14.5 13.0604C15.9854 13.0604 17.1895 14.2411 17.1895 15.6976C17.1895 17.1541 15.9854 18.3348 14.5 18.3348Z" fill="white"/>
</svg>
