<svg width="17" height="14" viewBox="0 0 17 14" fill="none" xmlns="http://www.w3.org/2000/svg">
<path d="M14.75 2.75222H12.7679C12.5173 2.75222 12.282 2.66096 12.1047 2.49554L10.9621 1.42779C10.667 1.152 10.2746 1 9.8571 1H7.14287C6.72539 1 6.33293 1.152 6.03782 1.42779L4.89525 2.49554C4.71794 2.66096 4.48266 2.75222 4.23211 2.75222H2.25001C1.56059 2.75222 1 3.2761 1 3.92034V11.5133C1 12.1575 1.56059 12.6814 2.25001 12.6814H14.75C15.4394 12.6814 16 12.1575 16 11.5133V3.92034C16 3.2761 15.4394 2.75222 14.75 2.75222ZM8.49999 10.9292C6.43213 10.9292 4.74999 9.35722 4.74999 7.42477C4.74999 5.49233 6.43213 3.92034 8.49999 3.92034C10.5678 3.92034 12.25 5.49233 12.25 7.42477C12.25 9.35722 10.5678 10.9292 8.49999 10.9292ZM13.5 5.67256C13.1555 5.67256 12.875 5.41046 12.875 5.08849C12.875 4.76652 13.1555 4.50443 13.5 4.50443C13.8445 4.50443 14.125 4.76652 14.125 5.08849C14.125 5.41046 13.8445 5.67256 13.5 5.67256Z" fill="#22AAEC"/>
<path d="M12.1047 2.49554L11.7633 2.86086L11.7636 2.86114L12.1047 2.49554ZM10.9621 1.42779L10.6208 1.7931L10.9621 1.42779ZM6.03782 1.42779L6.37921 1.7931L6.03782 1.42779ZM4.89525 2.49554L5.23633 2.86114L5.23664 2.86086L4.89525 2.49554ZM16 3.92034H16.5V3.92032L16 3.92034ZM14.75 2.25222H12.7679V3.25222H14.75V2.25222ZM12.7679 2.25222C12.6397 2.25222 12.5275 2.20614 12.4458 2.12995L11.7636 2.86114C12.0366 3.11579 12.395 3.25222 12.7679 3.25222V2.25222ZM12.4461 2.13023L11.3035 1.06248L10.6208 1.7931L11.7633 2.86086L12.4461 2.13023ZM11.3035 1.06248C10.9125 0.697049 10.3967 0.5 9.8571 0.5V1.5C10.1524 1.5 10.4216 1.60696 10.6208 1.7931L11.3035 1.06248ZM9.8571 0.5H7.14287V1.5H9.8571V0.5ZM7.14287 0.5C6.60325 0.5 6.08746 0.697049 5.69643 1.06248L6.37921 1.7931C6.57839 1.60696 6.84753 1.5 7.14287 1.5V0.5ZM5.69643 1.06248L4.55386 2.13023L5.23664 2.86086L6.37921 1.7931L5.69643 1.06248ZM4.55416 2.12995C4.47249 2.20614 4.3603 2.25222 4.23211 2.25222V3.25222C4.60502 3.25222 4.96339 3.11579 5.23633 2.86114L4.55416 2.12995ZM4.23211 2.25222H2.25001V3.25222H4.23211V2.25222ZM2.25001 2.25222C1.3169 2.25222 0.5 2.96859 0.5 3.92034H1.5C1.5 3.58361 1.80429 3.25222 2.25001 3.25222V2.25222ZM0.5 3.92034V11.5133H1.5V3.92034H0.5ZM0.5 11.5133C0.5 12.465 1.31688 13.1814 2.25001 13.1814V12.1814C1.80431 12.1814 1.5 11.85 1.5 11.5133H0.5ZM2.25001 13.1814H14.75V12.1814H2.25001V13.1814ZM14.75 13.1814C15.6831 13.1814 16.5 12.465 16.5 11.5133H15.5C15.5 11.85 15.1957 12.1814 14.75 12.1814V13.1814ZM16.5 11.5133V3.92034H15.5V11.5133H16.5ZM16.5 3.92032C16.5 2.9686 15.6831 2.25222 14.75 2.25222V3.25222C15.1957 3.25222 15.5 3.58361 15.5 3.92036L16.5 3.92032ZM8.49999 10.4292C6.67584 10.4292 5.24999 9.04972 5.24999 7.42477H4.24999C4.24999 9.66472 6.18842 11.4292 8.49999 11.4292V10.4292ZM5.24999 7.42477C5.24999 5.79982 6.67584 4.42034 8.49999 4.42034V3.42034C6.18842 3.42034 4.24999 5.18483 4.24999 7.42477H5.24999ZM8.49999 4.42034C10.3241 4.42034 11.75 5.79982 11.75 7.42477H12.75C12.75 5.18483 10.8116 3.42034 8.49999 3.42034V4.42034ZM11.75 7.42477C11.75 9.04972 10.3241 10.4292 8.49999 10.4292V11.4292C10.8116 11.4292 12.75 9.66472 12.75 7.42477H11.75ZM13.5 5.17256C13.4554 5.17256 13.4209 5.15582 13.3997 5.13595C13.3789 5.11658 13.375 5.09948 13.375 5.08849H12.375C12.375 5.71796 12.9117 6.17256 13.5 6.17256V5.17256ZM13.375 5.08849C13.375 5.0775 13.3789 5.06041 13.3997 5.04104C13.4209 5.02117 13.4554 5.00443 13.5 5.00443V4.00443C12.9117 4.00443 12.375 4.45903 12.375 5.08849H13.375ZM13.5 5.00443C13.5446 5.00443 13.579 5.02117 13.6003 5.04104C13.621 5.06041 13.625 5.07751 13.625 5.08849H14.625C14.625 4.45903 14.0882 4.00443 13.5 4.00443V5.00443ZM13.625 5.08849C13.625 5.09948 13.621 5.11657 13.6003 5.13595C13.579 5.15582 13.5446 5.17256 13.5 5.17256V6.17256C14.0882 6.17256 14.625 5.71796 14.625 5.08849H13.625Z" fill="white"/>
</svg>
