<svg width="24" height="24" xmlns="http://www.w3.org/2000/svg">

 <g>
  <title>background</title>
  <rect fill="none" id="canvas_background" height="26" width="26" y="-1" x="-1"/>
 </g>
 <g>
  <title>Layer 1</title>
  <g stroke="null" id="svg_4">
   <path stroke="null" id="svg_1" d="m7.8918,15.38462l0.00106,0c0.00088,0 0.00176,-0.00018 0.00264,-0.00018l12.2723,0c0.30213,0 0.56778,-0.20042 0.6508,-0.49092l2.70755,-9.47643c0.05835,-0.2043 0.01745,-0.42394 -0.11035,-0.59351c-0.12797,-0.16957 -0.32804,-0.26935 -0.54045,-0.26935l-16.54463,0l-0.48387,-2.1775c-0.06892,-0.30971 -0.34356,-0.53005 -0.66085,-0.53005l-4.06133,0c-0.37388,0 -0.67689,0.30301 -0.67689,0.67689s0.30301,0.67689 0.67689,0.67689l3.51841,0c0.08567,0.38586 2.31552,10.42038 2.44385,10.99767c-0.71937,0.31271 -1.22404,1.02996 -1.22404,1.8632c0,1.11969 0.91098,2.03066 2.03066,2.03066l12.27424,0c0.37388,0 0.67689,-0.30301 0.67689,-0.67689s-0.30301,-0.67689 -0.67689,-0.67689l-12.27424,0c-0.37317,0 -0.67689,-0.30372 -0.67689,-0.67689c0,-0.37264 0.30266,-0.67583 0.67513,-0.67671zm14.08615,-9.47661l-2.32081,8.12266l-11.22065,0l-1.80503,-8.12266l15.3465,0zm0,0"/>
   <path stroke="null" id="svg_2" d="m7.21668,20.12266c0,1.11969 0.91098,2.03066 2.03066,2.03066s2.03066,-0.91098 2.03066,-2.03066s-0.91098,-2.03066 -2.03066,-2.03066s-2.03066,0.91098 -2.03066,2.03066zm2.03066,-0.67689c0.37317,0 0.67689,0.30372 0.67689,0.67689s-0.30372,0.67689 -0.67689,0.67689s-0.67689,-0.30372 -0.67689,-0.67689s0.30372,-0.67689 0.67689,-0.67689zm0,0"/>
   <path stroke="null" id="svg_3" d="m16.78336,20.12266c0,1.11969 0.91098,2.03066 2.03066,2.03066s2.03066,-0.91098 2.03066,-2.03066s-0.91098,-2.03066 -2.03066,-2.03066s-2.03066,0.91098 -2.03066,2.03066zm2.03066,-0.67689c0.37317,0 0.67689,0.30372 0.67689,0.67689s-0.30372,0.67689 -0.67689,0.67689s-0.67689,-0.30372 -0.67689,-0.67689s0.30372,-0.67689 0.67689,-0.67689zm0,0"/>
  </g>
 </g>
</svg>