<svg width="13" height="18" viewBox="0 0 13 18" fill="none" xmlns="http://www.w3.org/2000/svg">
<path d="M11.5893 13.0893C11.5893 12.8661 11.5 12.6429 11.3393 12.4821L8.71429 9.85714L11.3393 7.23214C11.5 7.07143 11.5893 6.84821 11.5893 6.625C11.5893 6.40178 11.5 6.17857 11.3393 6.01786L10.125 4.80357C9.96429 4.64286 9.74107 4.55357 9.51786 4.55357C9.29464 4.55357 9.07143 4.64286 8.91072 4.80357L6.28571 7.42857L3.66071 4.80357C3.5 4.64286 3.27679 4.55357 3.05357 4.55357C2.83036 4.55357 2.60714 4.64286 2.44643 4.80357L1.23214 6.01786C1.07143 6.17857 0.982143 6.40178 0.982143 6.625C0.982143 6.84821 1.07143 7.07143 1.23214 7.23214L3.85714 9.85714L1.23214 12.4821C1.07143 12.6429 0.982143 12.8661 0.982143 13.0893C0.982143 13.3125 1.07143 13.5357 1.23214 13.6964L2.44643 14.9107C2.60714 15.0714 2.83036 15.1607 3.05357 15.1607C3.27679 15.1607 3.5 15.0714 3.66071 14.9107L6.28571 12.2857L8.91072 14.9107C9.07143 15.0714 9.29464 15.1607 9.51786 15.1607C9.74107 15.1607 9.96429 15.0714 10.125 14.9107L11.3393 13.6964C11.5 13.5357 11.5893 13.3125 11.5893 13.0893Z" fill="#9EA9B9"/>
</svg>
