<svg width="35" height="35" viewBox="0 0 35 35" fill="none" xmlns="http://www.w3.org/2000/svg">
<rect x="0.5" y="0.5" width="34" height="34" rx="6.5" stroke="#22AAEC"/>
<path fill-rule="evenodd" clip-rule="evenodd" d="M6.03413 15.7231H6.73588C7.32368 15.696 7.79638 15.1953 8.3433 14.6161L8.34353 14.6158C8.70894 14.2288 9.10018 13.8145 9.57147 13.5074V9.33335C9.57147 8.59814 10.1696 8 10.9048 8H26.8312C27.5664 8 28.1645 8.59814 28.1645 9.33335V12.7204C28.1645 12.9901 27.9459 13.2087 27.6762 13.2087C27.4065 13.2087 27.1879 12.9901 27.1879 12.7204V9.33335C27.1879 9.13999 27.0246 8.97656 26.8312 8.97656H21.4279V13.2967C21.4279 13.4742 21.3316 13.6377 21.1764 13.7238C21.1027 13.7647 21.0211 13.785 20.9397 13.785C20.8497 13.785 20.7599 13.7601 20.6809 13.7108L18.8674 12.5773L17.0552 13.7107C16.9047 13.8048 16.715 13.8099 16.5597 13.7239C16.4044 13.6378 16.308 13.4743 16.308 13.2968V8.97656H10.9047C10.7114 8.97656 10.548 9.13994 10.548 9.33335V13.0934C10.7068 13.0601 10.8736 13.0402 11.0499 13.0371L11.0585 13.037H12.2955H13.2563H13.8096L13.8172 13.0371C14.4058 13.0462 14.7083 13.313 14.8584 13.5352C15.0913 13.8802 15.1129 14.3473 14.9194 14.8501C14.8743 14.9675 14.8194 15.0785 14.7561 15.1828H18.4587C19.2542 15.1828 19.9014 15.8301 19.9014 16.6256C19.9014 16.7891 19.874 16.9465 19.8238 17.0931H19.9534C20.7489 17.0931 21.3961 17.7404 21.3961 18.5359C21.3961 19.3315 20.7489 19.9787 19.9534 19.9787H19.8241C19.8742 20.125 19.9014 20.2818 19.9014 20.4449C19.9014 21.2156 19.2953 21.8471 18.5352 21.887C18.5857 22.0339 18.6132 22.1914 18.6132 22.3552C18.6132 23.1508 17.9659 23.798 17.1704 23.798H11.1209C10.9126 23.798 10.7229 23.7725 10.5481 23.7289V25.2589C10.5481 25.453 10.7115 25.617 10.9049 25.617H22.2149C22.1191 25.2758 22.0668 24.9167 22.0668 24.5454C22.0668 22.3581 23.8462 20.5786 26.0335 20.5786C26.435 20.5786 26.8226 20.639 27.1881 20.7505V17.1104C27.1881 16.8408 27.4067 16.6222 27.6764 16.6222C27.946 16.6222 28.1646 16.8408 28.1646 17.1104V21.2024C29.267 21.9078 30 23.1423 30 24.5454C30 26.7335 28.2206 28.5136 26.0333 28.5136C24.5947 28.5136 23.3326 27.7434 22.6371 26.5936H10.9047C10.1696 26.5936 9.57143 25.9948 9.57143 25.2589V23.2485C9.46361 23.1715 9.36054 23.0924 9.26059 23.0154L9.26051 23.0153C8.82934 22.683 8.45699 22.3961 7.86406 22.3961H6.03408C5.46391 22.3961 5 21.9328 5 21.3634V16.7573C5.00005 16.187 5.46391 15.7231 6.03413 15.7231ZM17.2846 12.4154L18.6084 11.5874C18.7667 11.4885 18.9676 11.4884 19.1261 11.5874L20.4514 12.4157V8.97656H17.2846V12.4154ZM26.0333 27.5371C27.6821 27.5371 29.0234 26.195 29.0234 24.5454C29.0234 22.8966 27.6821 21.5552 26.0333 21.5552C24.3845 21.5552 23.0432 22.8966 23.0432 24.5454C23.0432 26.195 24.3845 27.5371 26.0333 27.5371ZM5.97661 21.3634C5.97661 21.3933 6.00346 21.4196 6.03413 21.4196H7.8641C8.78974 21.4196 9.35658 21.8564 9.85673 22.2418L9.85674 22.2418C10.277 22.5657 10.6089 22.8215 11.1209 22.8215H17.1703C17.4274 22.8215 17.6365 22.6124 17.6365 22.3553C17.6365 22.0982 17.4274 21.8891 17.1703 21.8891H15.5495C15.2799 21.8891 15.0613 21.6705 15.0613 21.4008C15.0613 21.1311 15.2799 20.9125 15.5495 20.9125H18.4586C18.7157 20.9125 18.9248 20.7028 18.9248 20.4449C18.9248 20.1879 18.7156 19.9787 18.4586 19.9787H15.5495C15.2799 19.9787 15.0613 19.7601 15.0613 19.4905C15.0613 19.2208 15.2799 19.0022 15.5495 19.0022H19.9533C20.2104 19.0022 20.4195 18.793 20.4195 18.536C20.4195 18.2789 20.2104 18.0698 19.9533 18.0698H15.5495C15.2799 18.0698 15.0613 17.8512 15.0613 17.5815C15.0613 17.3118 15.2799 17.0932 15.5495 17.0932H18.4586C18.7157 17.0932 18.9248 16.8834 18.9248 16.6256C18.9248 16.3685 18.7156 16.1595 18.4586 16.1595H13.0103H11.9506H11.2427C10.973 16.1595 10.7544 15.9409 10.7544 15.6712C10.7544 15.4015 10.973 15.1829 11.2427 15.1829H11.9506H13.0103C13.457 15.1829 13.8484 14.9149 14.0078 14.4997C14.1007 14.2584 14.0754 14.1208 14.049 14.0818C14.0225 14.0426 13.9272 14.0159 13.8055 14.0136H12.2955H11.063C10.2396 14.0301 9.66338 14.6404 9.05335 15.2864L9.05335 15.2864L9.05326 15.2865L9.0532 15.2866C8.41503 15.9625 7.75518 16.6614 6.76479 16.6993C6.75859 16.6996 6.75234 16.6997 6.74609 16.6997H6.03403C6.00288 16.6997 5.97651 16.7261 5.97651 16.7572L5.97661 21.3634ZM27.6766 15.4042C27.4069 15.4042 27.1883 15.1843 27.1883 14.9146C27.1883 14.6449 27.4069 14.4263 27.6766 14.4263C27.9462 14.4263 28.1648 14.6449 28.1648 14.9146V14.9174C28.1648 15.187 27.9462 15.4042 27.6766 15.4042ZM26.6419 23.3369C26.815 23.1302 27.123 23.1029 27.3297 23.2761C27.5364 23.4493 27.5637 23.7572 27.3906 23.964L25.8544 25.7981C25.7709 25.8977 25.6511 25.96 25.5216 25.971C25.5077 25.9723 25.4939 25.9728 25.48 25.9728C25.3649 25.9728 25.2529 25.9321 25.1644 25.8571L24.3484 25.1659C24.1427 24.9916 24.1172 24.6834 24.2915 24.4777C24.4659 24.2719 24.7739 24.2464 24.9797 24.4207L25.421 24.7946L26.6419 23.3369Z" fill="#22AAEC"/>
</svg>
