<svg width="100" height="100" viewBox="0 0 100 100" fill="none" xmlns="http://www.w3.org/2000/svg">
<path d="M41.9984 43.4551C42.1451 43.5134 42.2951 43.5651 42.4417 43.6201C42.4151 43.6101 42.3901 43.5984 42.3634 43.5884C42.2434 43.5434 42.1184 43.5034 41.9984 43.4551Z" fill="white"/>
<path d="M37.0801 40.6968C37.0584 40.6801 37.0367 40.6651 37.0167 40.6484C37.0384 40.6651 37.0584 40.6818 37.0801 40.6968Z" fill="white"/>
<path d="M38.7567 41.829C38.6967 41.7924 38.6367 41.7574 38.5784 41.7207C38.6367 41.7574 38.6967 41.7924 38.7567 41.829Z" fill="white"/>
<path d="M61.4233 41.7207C61.3633 41.7574 61.3033 41.7924 61.245 41.829C61.3033 41.7924 61.3633 41.7574 61.4233 41.7207Z" fill="white"/>
<path d="M62.9834 40.6504C62.9617 40.6671 62.9417 40.6821 62.92 40.6987C62.9417 40.6821 62.9617 40.6654 62.9834 40.6504Z" fill="white"/>
<path d="M40.58 42.8213C40.465 42.7663 40.35 42.7129 40.235 42.6562C40.35 42.7146 40.4667 42.7663 40.58 42.8213Z" fill="white"/>
<path d="M59.7633 42.6562C59.65 42.7146 59.5333 42.7663 59.4183 42.8213C59.5333 42.7663 59.65 42.7146 59.7633 42.6562Z" fill="white"/>
<path d="M51.9684 44.9076C52.0217 44.9026 52.0767 44.8992 52.1301 44.8926C52.1034 44.8959 52.0751 44.8942 52.0484 44.8976C52.0217 44.8992 51.9951 44.9059 51.9684 44.9076Z" fill="white"/>
<path d="M55.7516 44.2102C55.8799 44.1752 56.0099 44.1418 56.1383 44.1035C56.0583 44.1268 55.9749 44.1435 55.8949 44.1668C55.8466 44.1802 55.7999 44.1968 55.7516 44.2102Z" fill="white"/>
<path d="M57.5566 43.6201C57.705 43.5651 57.855 43.5134 58 43.4551C57.88 43.5034 57.755 43.5434 57.6333 43.5884C57.61 43.6001 57.5833 43.6117 57.5566 43.6201Z" fill="white"/>
<path d="M53.8866 44.6412C53.9849 44.6229 54.0816 44.6079 54.1799 44.5879C54.1266 44.5979 54.0716 44.6029 54.0199 44.6129C53.9749 44.6212 53.9316 44.6329 53.8866 44.6412Z" fill="white"/>
<path d="M47.87 44.8926C47.9233 44.8976 47.9783 44.9026 48.0317 44.9076C48.005 44.9059 47.9783 44.8992 47.9517 44.8976C47.925 44.8942 47.8967 44.8959 47.87 44.8926Z" fill="white"/>
<path d="M43.8617 44.1035C43.99 44.1418 44.12 44.1752 44.2484 44.2102C44.2 44.1968 44.1534 44.1802 44.105 44.1668C44.0234 44.1435 43.9417 44.1285 43.8617 44.1035Z" fill="white"/>
<path d="M45.8199 44.5879C45.9166 44.6079 46.0149 44.6229 46.1133 44.6412C46.0683 44.6329 46.0249 44.6212 45.9799 44.6129C45.9266 44.6029 45.8733 44.5979 45.8199 44.5879Z" fill="white"/>
<path d="M52.7783 44.8026C53.15 44.7542 53.5217 44.7092 53.8867 44.6426C53.6 44.6959 53.305 44.7259 53.0133 44.7676C52.935 44.7776 52.8583 44.7926 52.7783 44.8026Z" fill="white"/>
<path d="M44.105 44.166C44.1533 44.1793 44.2 44.196 44.2483 44.2093C44.3866 44.2477 44.53 44.2743 44.67 44.311C44.4816 44.2627 44.2916 44.2193 44.105 44.166Z" fill="white"/>
<path d="M53.015 44.7666C53.3067 44.7249 53.6 44.6949 53.8883 44.6416C53.9333 44.6333 53.9767 44.6216 54.0217 44.6133C53.6883 44.6749 53.35 44.7199 53.015 44.7666Z" fill="white"/>
<path d="M46.1134 44.6426C46.4784 44.7092 46.8501 44.7559 47.2217 44.8026C47.1434 44.7926 47.0651 44.7776 46.9867 44.7659C46.6951 44.7259 46.4001 44.6942 46.1134 44.6426Z" fill="white"/>
<path d="M55.33 44.311C55.47 44.276 55.6133 44.2477 55.7516 44.2093C55.8 44.196 55.8466 44.1793 55.895 44.166C55.7083 44.2193 55.5183 44.2627 55.33 44.311Z" fill="white"/>
<path d="M50 44.9998C50.665 44.9998 51.32 44.9648 51.9683 44.9065C51.995 44.9048 52.0217 44.8982 52.0483 44.8965C51.3733 44.9598 50.6917 44.9998 50 44.9998Z" fill="white"/>
<path d="M54.9218 44.4157C55.2001 44.3507 55.4768 44.2857 55.7518 44.209C55.6134 44.2473 55.4701 44.274 55.3301 44.3107C55.1934 44.3457 55.0601 44.384 54.9218 44.4157Z" fill="white"/>
<path d="M44.2484 44.209C44.5217 44.2857 44.8001 44.3507 45.0784 44.4157C44.9417 44.384 44.8067 44.3457 44.6701 44.3107C44.5301 44.2757 44.3867 44.2473 44.2484 44.209Z" fill="white"/>
<path d="M57.4501 43.6562C57.4851 43.6429 57.5217 43.6329 57.5567 43.6196C57.5834 43.6096 57.6084 43.5979 57.6351 43.5879C57.5734 43.6129 57.5117 43.6346 57.4501 43.6562Z" fill="white"/>
<path d="M41.2267 43.1325C41.1284 43.0891 41.035 43.0375 40.9384 42.9941C41.035 43.0391 41.1284 43.0891 41.2267 43.1325Z" fill="white"/>
<path d="M56.905 43.8558C57.125 43.7808 57.3417 43.7008 57.5567 43.6191C57.5217 43.6325 57.485 43.6425 57.45 43.6558C57.2684 43.7225 57.0884 43.7941 56.905 43.8558Z" fill="white"/>
<path d="M48.0317 44.9065C48.68 44.9648 49.335 44.9998 50 44.9998C49.3083 44.9998 48.6267 44.9598 47.9517 44.8965C47.9783 44.8982 48.005 44.9048 48.0317 44.9065Z" fill="white"/>
<path d="M59.0634 42.9941C58.9667 43.0391 58.8717 43.0891 58.775 43.1325C58.8717 43.0891 58.965 43.0391 59.0634 42.9941Z" fill="white"/>
<path d="M45.98 44.6133C46.025 44.6216 46.0683 44.6333 46.1133 44.6416C46.4 44.6949 46.695 44.7249 46.9866 44.7666C46.65 44.7199 46.3116 44.6749 45.98 44.6133Z" fill="white"/>
<path d="M42.4434 43.6191C42.66 43.7008 42.8767 43.7808 43.095 43.8558C42.9117 43.7941 42.7317 43.7225 42.55 43.6558C42.515 43.6441 42.4784 43.6325 42.4434 43.6191Z" fill="white"/>
<path d="M51.9683 44.9082C51.32 44.9665 50.665 45.0015 50 45.0015C50.665 45.0015 51.32 44.9665 51.9683 44.9082Z" fill="white"/>
<path d="M42.365 43.5898C42.3917 43.5998 42.4167 43.6115 42.4433 43.6215C42.4783 43.6348 42.515 43.6448 42.55 43.6582C42.4883 43.6348 42.4267 43.6132 42.365 43.5898Z" fill="white"/>
<path d="M49.9999 45.0015C49.3349 45.0015 48.6799 44.9665 48.0316 44.9082C48.6799 44.9665 49.3349 45.0015 49.9999 45.0015Z" fill="white"/>
<path d="M41.7217 43.332C41.815 43.3704 41.9033 43.417 41.9983 43.4554C42.1183 43.5037 42.2433 43.5437 42.365 43.5887C42.1483 43.507 41.935 43.4204 41.7217 43.332Z" fill="white"/>
<path d="M57.635 43.5906C57.7567 43.5456 57.88 43.504 58.0017 43.4573C58.095 43.419 58.185 43.3723 58.2783 43.334C58.065 43.4207 57.8517 43.5073 57.635 43.5906Z" fill="white"/>
<path d="M58.0016 43.4545C58.2616 43.3511 58.5199 43.2461 58.7733 43.1328C58.6116 43.2045 58.4416 43.2628 58.2766 43.3311C58.1849 43.3711 58.0949 43.4178 58.0016 43.4545Z" fill="white"/>
<path d="M47.3917 44.8223C47.5517 44.8423 47.7084 44.8739 47.8701 44.8906C47.8967 44.8939 47.9251 44.8923 47.9517 44.8956C47.7634 44.8773 47.5784 44.8456 47.3917 44.8223Z" fill="white"/>
<path d="M41.2267 43.1328C41.4817 43.2461 41.74 43.3511 41.9984 43.4545C41.905 43.4161 41.815 43.3695 41.7217 43.3311C41.5584 43.2628 41.3884 43.2061 41.2267 43.1328Z" fill="white"/>
<path d="M36.6666 40.3873V40.3623C36.2883 40.0656 35.91 39.7689 35.5516 39.4473C36.0216 39.8689 36.51 40.2689 37.015 40.6489C36.9816 40.6239 36.9533 40.5956 36.92 40.5706C36.8383 40.5073 36.7483 40.4506 36.6666 40.3873Z" fill="white"/>
<path d="M56.1383 44.1041C56.3966 44.0274 56.65 43.9424 56.905 43.8574C56.7716 43.9024 56.6333 43.9391 56.4983 43.9824C56.3766 44.0208 56.26 44.0691 56.1383 44.1041Z" fill="white"/>
<path d="M43.095 43.8574C43.35 43.9424 43.6033 44.0291 43.8616 44.1041C43.74 44.0674 43.6233 44.0208 43.5033 43.9824C43.3666 43.9391 43.2283 43.9024 43.095 43.8574Z" fill="white"/>
<path d="M50 1.66602C38.0334 1.66602 28.3334 11.366 28.3334 23.3327C28.3334 29.7393 31.1317 35.4793 35.5517 39.4477C35.91 39.7693 36.2884 40.066 36.6667 40.3627V35.5043C36.6667 33.106 37.865 30.8677 39.86 29.5377C41.0384 28.751 42.4217 28.3327 43.8384 28.3327H50C46.465 28.3327 40 23.856 40 18.3327C40 12.8093 41.6667 6.66602 50 6.66602C58.3334 6.66602 60 12.8093 60 18.3327C60 23.856 53.535 28.3327 50 28.3327H56.1617C57.5767 28.3327 58.9617 28.751 60.14 29.5377C62.135 30.8677 63.3334 33.106 63.3334 35.5043V40.3627C63.7117 40.066 64.09 39.7693 64.4484 39.4477C68.8684 35.4793 71.6667 29.7393 71.6667 23.3327C71.6667 17.7743 69.555 12.721 66.115 8.88435C62.1467 4.46435 56.4067 1.66602 50 1.66602Z" fill="#9EA9B9"/>
<path d="M63.3333 40.3623V40.3873C63.2516 40.4523 63.1616 40.5073 63.0783 40.5706C63.0449 40.5956 63.0166 40.6239 62.9833 40.6489C63.4899 40.2689 63.9766 39.8689 64.4466 39.4473C64.0899 39.7689 63.7116 40.0656 63.3333 40.3623Z" fill="white"/>
<path d="M62.62 40.902C62.7183 40.832 62.8233 40.7703 62.92 40.697C62.9417 40.6803 62.9633 40.6653 62.9833 40.6486C63.0167 40.6236 63.045 40.5953 63.0783 40.5703C62.9283 40.6853 62.7733 40.792 62.62 40.902Z" fill="white"/>
<path d="M61.5683 41.6189C61.5183 41.6506 61.4733 41.6873 61.4233 41.7189C61.9383 41.3989 62.435 41.0573 62.92 40.6973C62.8233 40.7689 62.7183 40.8306 62.62 40.9023C62.275 41.1489 61.9283 41.3906 61.5683 41.6189Z" fill="white"/>
<path d="M55.895 44.1674C55.975 44.1441 56.0584 44.1291 56.1384 44.1041C56.26 44.0674 56.3767 44.0208 56.4967 43.9824C56.2984 44.0458 56.0984 44.1091 55.895 44.1674Z" fill="white"/>
<path d="M59.0634 42.9939C59.1834 42.9389 59.3017 42.8789 59.42 42.8223C59.3817 42.8406 59.34 42.8573 59.3017 42.8756C59.22 42.9123 59.1434 42.9556 59.0634 42.9939Z" fill="white"/>
<path d="M59.2999 42.8744C59.3383 42.856 59.3799 42.841 59.4183 42.821C59.5333 42.766 59.6483 42.7127 59.7633 42.656C59.8333 42.621 59.8983 42.5777 59.9683 42.541C59.7483 42.656 59.5249 42.7677 59.2999 42.8744Z" fill="white"/>
<path d="M60.985 41.9725C61.07 41.9225 61.16 41.8791 61.2433 41.8275C61.3033 41.7908 61.3633 41.7558 61.4217 41.7191C61.4717 41.6875 61.5183 41.6508 61.5667 41.6191C61.3767 41.7408 61.1817 41.8558 60.985 41.9725Z" fill="white"/>
<path d="M59.9683 42.5415C59.8983 42.5781 59.8333 42.6198 59.7633 42.6565C60.27 42.3998 60.7616 42.1215 61.2433 41.8281C61.16 41.8798 61.07 41.9231 60.985 41.9731C60.6516 42.1698 60.3133 42.3615 59.9683 42.5415Z" fill="white"/>
<path d="M54.1801 44.5877C54.4301 44.5394 54.6751 44.4743 54.9217 44.416C54.8234 44.4393 54.7234 44.4593 54.6251 44.481C54.4751 44.5127 54.3301 44.5577 54.1801 44.5877Z" fill="white"/>
<path d="M52.13 44.8927C52.3483 44.8711 52.5617 44.8311 52.7783 44.8027C52.7217 44.8094 52.665 44.8177 52.6083 44.8244C52.4483 44.8444 52.2917 44.8777 52.13 44.8927Z" fill="white"/>
<path d="M43.5016 43.9824C43.6233 44.0208 43.7383 44.0691 43.8599 44.1041C43.9399 44.1274 44.0233 44.1441 44.1033 44.1674C43.9016 44.1091 43.7016 44.0458 43.5016 43.9824Z" fill="white"/>
<path d="M52.0483 44.8956C52.075 44.8923 52.1033 44.8939 52.13 44.8906C52.2917 44.8739 52.4467 44.8423 52.6083 44.8223C52.4217 44.8456 52.2367 44.8773 52.0483 44.8956Z" fill="white"/>
<path d="M40.58 42.8223C40.6983 42.8789 40.8166 42.9389 40.9366 42.9939C40.8566 42.9573 40.7783 42.9139 40.6983 42.8756C40.66 42.8573 40.62 42.8423 40.58 42.8223Z" fill="white"/>
<path d="M45.0782 44.416C45.3249 44.4743 45.5699 44.5377 45.8199 44.5877C45.6699 44.5577 45.5249 44.5143 45.3749 44.481C45.2766 44.4593 45.1766 44.4393 45.0782 44.416Z" fill="white"/>
<path d="M40.0316 42.541C40.1016 42.5777 40.1666 42.6193 40.2366 42.656C40.35 42.7143 40.4666 42.766 40.5816 42.821C40.62 42.8394 40.6616 42.856 40.7 42.8744C40.475 42.7677 40.2516 42.656 40.0316 42.541Z" fill="white"/>
<path d="M39.015 41.9731C38.93 41.9231 38.84 41.8798 38.7567 41.8281C39.2384 42.1215 39.73 42.3998 40.2367 42.6565C40.1667 42.6215 40.1017 42.5781 40.0317 42.5415C39.6867 42.3615 39.3484 42.1698 39.015 41.9731Z" fill="white"/>
<path d="M47.2217 44.8027C47.4383 44.8311 47.6517 44.8711 47.87 44.8927C47.7083 44.8761 47.5533 44.8444 47.3917 44.8244C47.335 44.8177 47.2783 44.8111 47.2217 44.8027Z" fill="white"/>
<path d="M45.375 44.4824C45.525 44.5158 45.67 44.5591 45.82 44.5891C45.8733 44.5991 45.9283 44.6041 45.98 44.6141C45.7767 44.5758 45.5767 44.5258 45.375 44.4824Z" fill="white"/>
<path d="M37.38 40.9023C37.2816 40.8323 37.1766 40.7706 37.08 40.6973C37.565 41.0589 38.0616 41.3989 38.5766 41.7189C38.5266 41.6873 38.48 41.6506 38.4316 41.6189C38.0716 41.3923 37.725 41.1506 37.38 40.9023Z" fill="white"/>
<path d="M36.9218 40.5723C36.9551 40.5973 36.9834 40.6256 37.0168 40.6506C37.0384 40.6673 37.0584 40.6823 37.0801 40.6989C37.1768 40.7706 37.2818 40.8323 37.3801 40.9039C37.2268 40.7923 37.0718 40.6856 36.9218 40.5723Z" fill="white"/>
<path d="M54.02 44.6141C54.0734 44.6041 54.1284 44.6008 54.18 44.5891C54.33 44.5591 54.475 44.5158 54.625 44.4824C54.4234 44.5258 54.2234 44.5758 54.02 44.6141Z" fill="white"/>
<path d="M38.4318 41.6191C38.4818 41.6508 38.5268 41.6875 38.5768 41.7191C38.6368 41.7558 38.6968 41.7908 38.7551 41.8275C38.8384 41.8791 38.9284 41.9225 39.0134 41.9725C38.8184 41.8558 38.6234 41.7408 38.4318 41.6191Z" fill="white"/>
<path d="M63.3332 40.3883V40.3633C63.2466 40.4316 63.1666 40.5066 63.0782 40.5733C63.1616 40.5083 63.2516 40.4516 63.3332 40.3883Z" fill="white"/>
<path d="M46.985 44.7676C47.0633 44.7792 47.1417 44.7926 47.22 44.8042C47.2767 44.8109 47.3333 44.8192 47.39 44.8259C47.255 44.8092 47.1217 44.7859 46.985 44.7676Z" fill="white"/>
<path d="M44.67 44.3105C44.8067 44.3455 44.94 44.3839 45.0784 44.4155C45.1767 44.4389 45.2767 44.4589 45.375 44.4805C45.1384 44.4289 44.9034 44.3705 44.67 44.3105Z" fill="white"/>
<path d="M62.62 40.9004C62.2767 41.1487 61.9267 41.3904 61.5684 41.6187C61.9284 41.3904 62.275 41.1487 62.62 40.9004Z" fill="white"/>
<path d="M42.5499 43.6582C42.7316 43.7249 42.9116 43.7965 43.0949 43.8582C43.2283 43.9032 43.3666 43.9399 43.5016 43.9832C43.1816 43.8815 42.8633 43.7749 42.5499 43.6582Z" fill="white"/>
<path d="M52.6083 44.822C52.6649 44.8153 52.7216 44.807 52.7783 44.8003C52.8566 44.7903 52.9349 44.7753 53.0133 44.7637C52.8783 44.7837 52.7449 44.807 52.6083 44.822Z" fill="white"/>
<path d="M39.015 41.9746C39.3483 42.1729 39.6867 42.3629 40.0317 42.5429C39.6867 42.3629 39.3483 42.1729 39.015 41.9746Z" fill="white"/>
<path d="M54.625 44.4805C54.7233 44.4589 54.8233 44.4389 54.9217 44.4155C55.0583 44.3839 55.1933 44.3455 55.33 44.3105C55.0967 44.3705 54.8617 44.4289 54.625 44.4805Z" fill="white"/>
<path d="M60.9851 41.9746C60.6517 42.1729 60.3134 42.3629 59.9684 42.5429C60.3134 42.3629 60.6517 42.1713 60.9851 41.9746Z" fill="white"/>
<path d="M52.6083 44.824C52.745 44.8073 52.8783 44.7857 53.0133 44.7656C53.35 44.719 53.6866 44.674 54.0183 44.6123C54.2216 44.574 54.4216 44.5257 54.6233 44.4806C54.86 44.429 55.095 44.3707 55.3283 44.3107C55.5166 44.2623 55.7066 44.2173 55.8933 44.1657C56.0966 44.1073 56.2966 44.044 56.4966 43.9807C56.8166 43.879 57.135 43.7723 57.4483 43.6557C57.51 43.6323 57.5716 43.6107 57.6333 43.5873C57.85 43.5057 58.0633 43.419 58.275 43.3306C58.62 43.1873 58.9616 43.0357 59.2983 42.874C59.5233 42.7657 59.7466 42.6557 59.9666 42.5407C60.3116 42.3607 60.65 42.169 60.9833 41.9723C61.1783 41.8557 61.375 41.7407 61.5666 41.619C61.925 41.3907 62.2733 41.149 62.6183 40.9007C62.7716 40.7907 62.9266 40.684 63.0766 40.5706C63.165 40.504 63.245 40.429 63.3316 40.3607V35.5023C63.3316 33.104 62.1333 30.8657 60.1383 29.5357C58.9616 28.7523 57.5783 28.334 56.1616 28.334H50L53.3333 36.6673L50 40.0007L46.6666 36.6673L50 28.334H43.8383C42.4233 28.334 41.0383 28.7523 39.86 29.539C37.865 30.869 36.6666 33.1073 36.6666 35.5057V40.364C36.7533 40.4323 36.8333 40.5073 36.9216 40.574C37.0716 40.6873 37.2266 40.794 37.38 40.904C37.7233 41.1523 38.0733 41.394 38.4316 41.6223C38.6233 41.744 38.82 41.859 39.015 41.9756C39.3483 42.174 39.6866 42.364 40.0316 42.544C40.2516 42.659 40.475 42.769 40.7 42.8773C41.0366 43.039 41.3766 43.1907 41.7233 43.334C41.9366 43.4223 42.15 43.509 42.365 43.5906C42.4266 43.614 42.4883 43.6357 42.55 43.659C42.8633 43.7757 43.1816 43.8823 43.5016 43.984C43.7016 44.0473 43.9016 44.1107 44.105 44.169C44.2916 44.2223 44.4816 44.2656 44.67 44.314C44.9033 44.374 45.1383 44.4307 45.375 44.484C45.5766 44.529 45.7766 44.5773 45.98 44.6156C46.3116 44.6773 46.6483 44.7223 46.985 44.769C47.12 44.7873 47.255 44.8106 47.39 44.8273C47.5766 44.8507 47.7616 44.8823 47.95 44.899C48.6266 44.9606 49.3083 45.0007 50 45.0007C50.6916 45.0007 51.3733 44.9606 52.0483 44.8973C52.2366 44.879 52.4216 44.8473 52.6083 44.824Z" fill="white"/>
<path d="M40.7001 42.875C40.7801 42.9133 40.8567 42.9567 40.9384 42.9933C41.0351 43.0383 41.1301 43.0883 41.2267 43.1317C41.3884 43.2033 41.5584 43.2617 41.7234 43.33C41.3767 43.1883 41.0351 43.0367 40.7001 42.875Z" fill="white"/>
<path d="M37.38 40.9004C37.725 41.1487 38.0717 41.3904 38.4317 41.6187C38.0733 41.3904 37.7233 41.1487 37.38 40.9004Z" fill="white"/>
<path d="M58.2783 43.332C58.4433 43.2636 58.6117 43.2053 58.775 43.1336C58.8733 43.0903 58.9667 43.0386 59.0633 42.9953C59.1433 42.9586 59.2217 42.9153 59.3017 42.877C58.965 43.037 58.6233 43.1886 58.2783 43.332Z" fill="white"/>
<path d="M56.4984 43.9832C56.6334 43.9399 56.7718 43.9032 56.9051 43.8582C57.0884 43.7965 57.2684 43.7249 57.4501 43.6582C57.1368 43.7749 56.8184 43.8815 56.4984 43.9832Z" fill="white"/>
<path d="M36.9216 40.5713C36.8333 40.5047 36.7533 40.4297 36.6666 40.3613V40.3863C36.7483 40.4513 36.8383 40.508 36.9216 40.5713Z" fill="white"/>
<path d="M60 18.334L51.6667 13.334C50 18.334 40 18.334 40 18.334C40 23.8573 46.465 28.334 50 28.334C53.535 28.334 60 23.8573 60 18.334Z" fill="white"/>
<path d="M51.6667 13.3327L60 18.3327C60 12.8093 58.3333 6.66602 50 6.66602C41.6667 6.66602 40 12.8093 40 18.3327C40 18.3327 50 18.3327 51.6667 13.3327Z" fill="white"/>
<path d="M50 40.0007L53.3333 36.6673L50 28.334L46.6666 36.6673L50 40.0007Z" fill="white"/>
<path d="M80.6866 97.9473C80.2783 98.0239 79.8633 98.0839 79.4449 98.1373C79.8616 98.0823 80.2766 98.0239 80.6866 97.9473Z" fill="white"/>
<path d="M67.8933 96.4665C67.795 96.4231 67.7016 96.3715 67.605 96.3281C67.7016 96.3731 67.795 96.4231 67.8933 96.4665Z" fill="white"/>
<path d="M73.8883 98.1353C73.4716 98.082 73.0566 98.022 72.6466 97.9453C73.0566 98.0236 73.4716 98.082 73.8883 98.1353Z" fill="white"/>
<path d="M78.715 98.2305C78.04 98.2938 77.3583 98.3338 76.6666 98.3338C77.3583 98.3338 78.04 98.2938 78.715 98.2305Z" fill="white"/>
<path d="M82.5616 97.5C82.2399 97.59 81.9166 97.6733 81.5883 97.75C81.9166 97.6733 82.2399 97.5917 82.5616 97.5Z" fill="white"/>
<path d="M76.6666 98.3338C75.975 98.3338 75.2933 98.2938 74.6183 98.2305C75.2933 98.2938 75.975 98.3338 76.6666 98.3338Z" fill="white"/>
<path d="M84.3017 96.9238C84.0583 97.0155 83.8183 97.1088 83.5717 97.1905C83.8183 97.1072 84.06 97.0155 84.3017 96.9238Z" fill="white"/>
<path d="M69.7616 97.1905C69.5149 97.1072 69.2733 97.0138 69.0316 96.9238C69.2733 97.0155 69.5149 97.1072 69.7616 97.1905Z" fill="white"/>
<path d="M71.7449 97.75C71.4183 97.6733 71.0933 97.59 70.7716 97.5C71.0933 97.5917 71.4166 97.6733 71.7449 97.75Z" fill="white"/>
<path d="M85.73 96.3281C85.6333 96.3731 85.5383 96.4231 85.4417 96.4665C85.5383 96.4231 85.6317 96.3731 85.73 96.3281Z" fill="white"/>
<path d="M74.6183 98.2298C74.3716 98.2064 74.1316 98.1664 73.8883 98.1348C74.1316 98.1664 74.3716 98.2064 74.6183 98.2298Z" fill="white"/>
<path d="M79.445 98.1348C79.2016 98.1664 78.96 98.2064 78.715 98.2298C78.9616 98.2064 79.2016 98.1664 79.445 98.1348Z" fill="white"/>
<path d="M85.44 96.4668C85.0683 96.6335 84.685 96.7768 84.3016 96.9235C84.685 96.7785 85.0683 96.6318 85.44 96.4668Z" fill="white"/>
<path d="M83.5717 97.1895C83.24 97.3028 82.9016 97.4028 82.5616 97.4995C82.9016 97.4028 83.2383 97.3011 83.5717 97.1895Z" fill="white"/>
<path d="M81.5883 97.75C81.2883 97.82 80.9899 97.8883 80.6849 97.945C80.9899 97.8883 81.2899 97.82 81.5883 97.75Z" fill="white"/>
<path d="M70.7716 97.4995C70.4316 97.4028 70.0949 97.3028 69.7616 97.1895C70.0949 97.3011 70.4316 97.4028 70.7716 97.4995Z" fill="white"/>
<path d="M72.6466 97.947C72.3433 97.8903 72.0433 97.822 71.7433 97.752C72.0433 97.8203 72.3433 97.8886 72.6466 97.947Z" fill="white"/>
<path d="M69.0316 96.9235C68.6483 96.7785 68.265 96.6335 67.8933 96.4668C68.265 96.6318 68.6483 96.7785 69.0316 96.9235Z" fill="white"/>
<path d="M76.6667 55C64.7 55 55 64.7 55 76.6667C55 85.3933 60.17 92.895 67.6033 96.3283C66.0783 95.62 64.6433 94.7483 63.3333 93.7217V88.8383C63.3333 86.44 64.5317 84.2017 66.5267 82.8717C67.705 82.085 69.0883 81.6667 70.505 81.6667H76.6667C73.1317 81.6667 66.6667 77.19 66.6667 71.6667C66.6667 66.1433 68.3333 60 76.6667 60C85 60 86.6667 66.1433 86.6667 71.6667C86.6667 77.19 80.2017 81.6667 76.6667 81.6667H82.8283C84.2433 81.6667 85.6283 82.085 86.8067 82.8717C88.8017 84.2017 90 86.44 90 88.8383V93.7217C88.69 94.7483 87.255 95.62 85.73 96.3283C93.1633 92.895 98.3333 85.3933 98.3333 76.6667C98.3333 64.7 88.6333 55 76.6667 55Z" fill="#9EA9B9"/>
<path d="M90 88.8377C90 86.4394 88.8017 84.201 86.8067 82.871C85.6284 82.0843 84.245 81.666 82.8284 81.666H76.6667L80 89.9993L76.6667 93.3327L73.3334 89.9993L76.6667 81.666H70.505C69.09 81.666 67.705 82.0843 66.5267 82.871C64.5317 84.201 63.3334 86.4394 63.3334 88.8377V93.721C64.6434 94.7477 66.0784 95.6194 67.6034 96.3277C67.7 96.3727 67.795 96.4227 67.8917 96.466C68.2634 96.6327 68.6467 96.776 69.03 96.9227C69.2734 97.0143 69.5134 97.1077 69.76 97.1893C70.0917 97.3027 70.43 97.4027 70.77 97.4993C71.0917 97.5893 71.415 97.6727 71.7434 97.7494C72.0434 97.8194 72.3417 97.8877 72.6467 97.9443C73.055 98.021 73.47 98.081 73.8884 98.1343C74.1317 98.166 74.3734 98.206 74.6184 98.2293C75.2934 98.2927 75.975 98.3327 76.6667 98.3327C77.3584 98.3327 78.04 98.2927 78.715 98.2293C78.9617 98.206 79.2017 98.166 79.445 98.1343C79.8617 98.081 80.2767 98.021 80.6867 97.9443C80.99 97.8877 81.29 97.8194 81.59 97.7494C81.9167 97.6727 82.2417 97.5893 82.5634 97.4993C82.9034 97.4027 83.24 97.3027 83.5734 97.1893C83.82 97.106 84.0617 97.0127 84.3034 96.9227C84.6867 96.7777 85.07 96.6327 85.4417 96.466C85.54 96.4227 85.6334 96.371 85.73 96.3277C87.255 95.6194 88.69 94.7477 90 93.721V88.8377Z" fill="white"/>
<path d="M78.3333 66.6667L86.6666 71.6667C86.6666 66.1433 85 60 76.6666 60C68.3333 60 66.6666 66.1433 66.6666 71.6667C66.6666 71.6667 76.6666 71.6667 78.3333 66.6667Z" fill="white"/>
<path d="M86.6666 71.666L78.3333 66.666C76.6666 71.666 66.6666 71.666 66.6666 71.666C66.6666 77.1893 73.1316 81.666 76.6666 81.666C80.2016 81.666 86.6666 77.1893 86.6666 71.666Z" fill="white"/>
<path d="M76.6667 93.3327L80 89.9993L76.6667 81.666L73.3334 89.9993L76.6667 93.3327Z" fill="white"/>
<path d="M22.9383 83.6133C22.3433 83.8883 21.7316 84.1383 21.0983 84.3333C21.7316 84.1366 22.3416 83.8883 22.9383 83.6133Z" fill="white"/>
<path d="M8.33329 78.3333C8.33329 73.7317 12.065 70 16.6666 70C13.905 70 11.6666 67.7617 11.6666 65C11.6666 62.2383 13.905 60 16.6666 60C19.4283 60 21.6666 62.2383 21.6666 65C21.6666 67.7617 19.4283 70 16.6666 70C21.2683 70 25 73.7317 25 78.3333V82.47C24.465 82.8283 23.8983 83.14 23.3183 83.43C28.26 80.9767 31.6666 75.8917 31.6666 70C31.6666 61.715 24.9516 55 16.6666 55C8.38163 55 1.66663 61.715 1.66663 70C1.66663 75.8917 5.07329 80.9767 10.015 83.43C9.43496 83.1417 8.86829 82.8283 8.33329 82.47V78.3333Z" fill="#9EA9B9"/>
<path d="M12.235 84.3333C11.6 84.1366 10.99 83.8883 10.395 83.6133C10.9917 83.8883 11.6017 84.1366 12.235 84.3333Z" fill="white"/>
<path d="M21.0884 84.334C20.4701 84.5257 19.8284 84.6606 19.1801 84.7723C19.8301 84.6623 20.4701 84.5257 21.0884 84.334Z" fill="white"/>
<path d="M16.6666 84.999C17.355 84.999 18.0283 84.9357 18.6933 84.8457C18.0283 84.9357 17.355 84.999 16.6666 84.999Z" fill="white"/>
<path d="M16.6667 84.999C15.9783 84.999 15.305 84.9357 14.64 84.8457C15.305 84.9357 15.9783 84.999 16.6667 84.999Z" fill="white"/>
<path d="M14.1533 84.7723C13.5033 84.6623 12.8633 84.5257 12.245 84.334C12.8633 84.5257 13.5033 84.6623 14.1533 84.7723Z" fill="white"/>
<path d="M16.6666 70C19.428 70 21.6666 67.7614 21.6666 65C21.6666 62.2386 19.428 60 16.6666 60C13.9052 60 11.6666 62.2386 11.6666 65C11.6666 67.7614 13.9052 70 16.6666 70Z" fill="white"/>
<path d="M21.0983 84.334C21.095 84.3357 21.0916 84.3357 21.09 84.3357C21.0916 84.3357 21.095 84.3357 21.0983 84.334Z" fill="white"/>
<path d="M19.18 84.7734C19.0184 84.8001 18.8567 84.8251 18.6934 84.8484C18.8567 84.8251 19.0184 84.8001 19.18 84.7734Z" fill="white"/>
<path d="M23.3184 83.4297C23.1917 83.493 23.0667 83.553 22.9384 83.613C23.0667 83.553 23.1917 83.4914 23.3184 83.4297Z" fill="white"/>
<path d="M14.64 84.8465C14.4767 84.8248 14.315 84.7998 14.1533 84.7715C14.315 84.7998 14.4767 84.8248 14.64 84.8465Z" fill="white"/>
<path d="M10.395 83.613C10.2667 83.5547 10.14 83.493 10.015 83.4297C10.1417 83.4914 10.2667 83.553 10.395 83.613Z" fill="white"/>
<path d="M12.245 84.3357C12.2417 84.334 12.2384 84.334 12.2367 84.334C12.2384 84.3357 12.2417 84.3357 12.245 84.3357Z" fill="white"/>
<path d="M19.18 84.7733C19.83 84.6633 20.47 84.5267 21.0883 84.335C21.0917 84.3333 21.095 84.3333 21.0967 84.3333C21.7317 84.1367 22.3417 83.8883 22.9367 83.6133C23.065 83.555 23.1917 83.4933 23.3167 83.43C23.8967 83.1417 24.4633 82.8283 24.9983 82.47V78.3333C24.9983 73.7317 21.2667 70 16.665 70C12.0633 70 8.33167 73.7317 8.33167 78.3333V82.47C8.86667 82.8283 9.43333 83.14 10.0133 83.43C10.14 83.4933 10.265 83.5533 10.3933 83.6133C10.9883 83.8883 11.6 84.1383 12.2333 84.3333C12.2367 84.335 12.24 84.335 12.2417 84.335C12.86 84.5267 13.5017 84.6617 14.15 84.7733C14.3117 84.8 14.4733 84.825 14.6367 84.8483C15.305 84.9367 15.9783 85 16.6667 85C17.355 85 18.0283 84.9367 18.6933 84.8467C18.8567 84.825 19.0183 84.8 19.18 84.7733Z" fill="white"/>
<path d="M36.6667 98.3307C38.5077 98.3307 40 96.8383 40 94.9974C40 93.1564 38.5077 91.6641 36.6667 91.6641C34.8258 91.6641 33.3334 93.1564 33.3334 94.9974C33.3334 96.8383 34.8258 98.3307 36.6667 98.3307Z" fill="white"/>
<path d="M4.99996 8.33073C6.84091 8.33073 8.33329 6.83835 8.33329 4.9974C8.33329 3.15645 6.84091 1.66406 4.99996 1.66406C3.15901 1.66406 1.66663 3.15645 1.66663 4.9974C1.66663 6.83835 3.15901 8.33073 4.99996 8.33073Z" fill="white"/>
<path d="M91.6667 41.6634C95.3486 41.6634 98.3333 38.6786 98.3333 34.9967C98.3333 31.3148 95.3486 28.3301 91.6667 28.3301C87.9848 28.3301 85 31.3148 85 34.9967C85 38.6786 87.9848 41.6634 91.6667 41.6634Z" fill="white"/>
<path d="M95 8.33073C96.8409 8.33073 98.3333 6.83835 98.3333 4.9974C98.3333 3.15645 96.8409 1.66406 95 1.66406C93.159 1.66406 91.6666 3.15645 91.6666 4.9974C91.6666 6.83835 93.159 8.33073 95 8.33073Z" fill="white"/>
<path d="M90.3067 6.66667C90.9967 8.60167 92.83 10 95 10C97.7567 10 100 7.75667 100 5C100 2.24333 97.7567 0 95 0C92.83 0 90.9967 1.39833 90.3067 3.33333H70C69.5567 3.33333 69.1333 3.50833 68.8217 3.82167L66.13 6.51333C61.935 2.49 56.2583 0 50 0C37.6967 0 27.6117 9.57833 26.7517 21.6667H12.7483L7.30333 9.41167C8.89833 8.575 10 6.92167 10 5C10 2.24333 7.75667 0 5 0C2.24333 0 0 2.24333 0 5C0 7.36 1.64833 9.33167 3.85167 9.85333L10.1433 24.01C10.4117 24.6117 11.0067 25 11.6667 25H26.7517C27.15 30.595 29.5183 35.645 33.18 39.4633L19.11 53.5333C18.31 53.415 17.4983 53.3333 16.6667 53.3333C7.47667 53.3333 0 60.81 0 70C0 75.7517 2.92833 80.83 7.37167 83.8267C7.38333 83.835 7.39333 83.8467 7.405 83.855C7.47167 83.9 7.54667 83.93 7.615 83.975C8.14333 84.3183 8.695 84.6267 9.26167 84.9083C9.44 84.9967 9.61667 85.085 9.79833 85.1667C10.4383 85.4583 11.0933 85.72 11.7733 85.93C11.855 85.955 11.94 85.97 12.0233 85.995C12.6383 86.1733 13.27 86.3117 13.9117 86.4183C14.1 86.45 14.2867 86.48 14.475 86.505C14.65 86.5283 14.8217 86.5633 14.9983 86.5817V95C14.9983 95.92 15.7433 96.6667 16.665 96.6667H31.9717C32.6617 98.6017 34.495 100 36.665 100C39.4217 100 41.665 97.7567 41.665 95C41.665 92.2433 39.4217 90 36.665 90C34.495 90 32.6617 91.3983 31.9717 93.3333H18.3333V86.5817C18.51 86.5633 18.6817 86.5283 18.8567 86.505C19.0467 86.48 19.2333 86.45 19.42 86.4183C20.0617 86.31 20.6933 86.1733 21.3083 85.995C21.3917 85.9717 21.475 85.9567 21.5583 85.93C22.2383 85.72 22.8933 85.4583 23.535 85.1667C23.715 85.085 23.8933 84.9967 24.0717 84.9083C24.6383 84.625 25.19 84.3167 25.7183 83.9733C25.7867 83.93 25.8617 83.9 25.9283 83.8533C25.94 83.845 25.95 83.8333 25.9617 83.825C30.405 80.83 33.3333 75.7517 33.3333 70C33.3333 62.9883 28.975 56.985 22.8283 54.5283L35.6483 41.7083C35.8133 41.8367 35.9867 41.9483 36.1533 42.0717C36.49 42.32 36.8217 42.5733 37.1717 42.8033C37.515 43.0317 37.87 43.2333 38.2233 43.4417C38.5483 43.6333 38.8733 43.825 39.2083 44C39.7317 44.275 40.26 44.535 40.8 44.7683C40.98 44.8467 41.165 44.91 41.3483 44.9833C41.8367 45.18 42.33 45.365 42.8317 45.5267C43.0367 45.5933 43.245 45.6517 43.4533 45.7133C43.945 45.8567 44.44 45.985 44.9417 46.0967C45.1633 46.1467 45.385 46.1933 45.6083 46.2367C46.1233 46.335 46.6433 46.4117 47.1683 46.475C47.3783 46.5 47.585 46.5333 47.795 46.5533C48.5233 46.6233 49.2583 46.6667 50 46.6667C50.7417 46.6667 51.4767 46.6233 52.2067 46.555C52.4183 46.535 52.6233 46.5033 52.8333 46.4767C53.3567 46.4133 53.8783 46.3367 54.3933 46.2383C54.6167 46.195 54.8383 46.1483 55.0583 46.0983C55.56 45.9867 56.055 45.8583 56.5467 45.715C56.755 45.6533 56.9633 45.595 57.1683 45.5283C57.67 45.365 58.1633 45.1817 58.6517 44.985C58.8333 44.9117 59.02 44.8467 59.2 44.77C59.7417 44.5367 60.2717 44.2767 60.795 44C61.1267 43.825 61.4483 43.6367 61.77 43.4467C62.125 43.2367 62.4817 43.0333 62.8267 42.805C63.1767 42.5733 63.5083 42.3217 63.845 42.0733C64.0117 41.95 64.1867 41.8383 64.35 41.71L76.0083 53.37C63.4483 53.7183 53.3333 64.0217 53.3333 76.6667C53.3333 84.1017 56.8417 90.7217 62.2767 94.9967C62.29 95.0067 62.2933 95.0233 62.3067 95.0333C62.475 95.165 62.6517 95.2767 62.8217 95.4033C63.1583 95.6517 63.49 95.905 63.84 96.135C64.1833 96.3633 64.5383 96.565 64.8917 96.7733C65.2167 96.965 65.5417 97.1567 65.8767 97.3317C66.4 97.6067 66.9283 97.8667 67.4683 98.1C67.6483 98.1783 67.8333 98.2417 68.0167 98.315C68.505 98.5117 68.9983 98.6967 69.5 98.8583C69.705 98.925 69.9133 98.9833 70.1217 99.045C70.6133 99.1883 71.1083 99.3167 71.61 99.4283C71.8317 99.4783 72.0533 99.525 72.2767 99.5683C72.7917 99.6667 73.3117 99.7433 73.8367 99.8067C74.0467 99.8317 74.2533 99.865 74.4633 99.885C75.19 99.9567 75.925 100 76.6667 100C77.4083 100 78.1433 99.9567 78.8733 99.8883C79.085 99.8683 79.29 99.8367 79.5 99.81C80.0233 99.7467 80.545 99.67 81.06 99.5717C81.2833 99.5283 81.505 99.4817 81.725 99.4317C82.2267 99.32 82.7217 99.1917 83.2133 99.0483C83.4217 98.9867 83.63 98.9283 83.835 98.8617C84.3367 98.6983 84.83 98.515 85.3183 98.3183C85.5 98.245 85.6867 98.18 85.8667 98.1033C86.4083 97.87 86.9383 97.61 87.4617 97.3333C87.7933 97.1583 88.115 96.97 88.4367 96.78C88.7917 96.57 89.1483 96.3667 89.4933 96.1383C89.8433 95.9067 90.175 95.655 90.5117 95.4067C90.6817 95.28 90.8583 95.1683 91.0267 95.0367C91.04 95.0267 91.045 95.01 91.0567 95C96.4917 90.7217 100 84.1017 100 76.6667C100 65.3267 91.8667 55.8617 81.1283 53.7717L66.82 39.4617C70.4817 35.645 72.85 30.5933 73.2483 24.9983H90V26.8333C86.2017 27.6083 83.3333 30.9733 83.3333 34.9983C83.3333 39.5933 87.0717 43.3317 91.6667 43.3317C96.2617 43.3317 100 39.5933 100 34.9983C100 30.975 97.1317 27.6083 93.3333 26.8333V23.3333C93.3333 22.4133 92.5883 21.6667 91.6667 21.6667H73.2483C72.91 16.905 71.1433 12.54 68.365 8.99167L70.69 6.66667H90.3067ZM95 3.33333C95.92 3.33333 96.6667 4.08167 96.6667 5C96.6667 5.91833 95.92 6.66667 95 6.66667C94.08 6.66667 93.3333 5.91833 93.3333 5C93.3333 4.08167 94.08 3.33333 95 3.33333ZM5 3.33333C5.92 3.33333 6.66667 4.08167 6.66667 5C6.66667 5.91833 5.92 6.66667 5 6.66667C4.08 6.66667 3.33333 5.91833 3.33333 5C3.33333 4.08167 4.08 3.33333 5 3.33333ZM36.6667 93.3333C37.5867 93.3333 38.3333 94.0817 38.3333 95C38.3333 95.9183 37.5867 96.6667 36.6667 96.6667C35.7467 96.6667 35 95.9183 35 95C35 94.0817 35.7467 93.3333 36.6667 93.3333ZM13.3333 65C13.3333 63.1617 14.8283 61.6667 16.6667 61.6667C18.505 61.6667 20 63.1617 20 65C20 66.8383 18.505 68.3333 16.6667 68.3333C14.8283 68.3333 13.3333 66.8383 13.3333 65ZM16.6667 71.6667C20.3433 71.6667 23.3333 74.6567 23.3333 78.3333V81.53C23.2817 81.56 23.2333 81.5933 23.1833 81.6217C19.2067 83.8533 14.1283 83.8533 10.1517 81.6217C10.1 81.5917 10.0517 81.5583 10 81.53V78.3333C10 74.6567 12.99 71.6667 16.6667 71.6667ZM30 70C30 73.3683 28.735 76.44 26.6667 78.79V78.3333C26.6667 74.5667 24.5733 71.2833 21.4883 69.5783C22.625 68.3817 23.3333 66.775 23.3333 65C23.3333 61.3233 20.3433 58.3333 16.6667 58.3333C12.99 58.3333 10 61.3233 10 65C10 66.775 10.7083 68.3817 11.845 69.5783C8.76 71.2833 6.66667 74.5667 6.66667 78.3333V78.79C4.59833 76.44 3.33333 73.3683 3.33333 70C3.33333 62.6483 9.315 56.6667 16.6667 56.6667C24.0183 56.6667 30 62.6483 30 70ZM96.6667 35C96.6667 37.7567 94.4233 40 91.6667 40C88.91 40 86.6667 37.7567 86.6667 35C86.6667 32.2433 88.91 30 91.6667 30C94.4233 30 96.6667 32.2433 96.6667 35ZM52.2983 15.6567L58.255 19.2317C57.5867 23.3117 52.5583 26.6667 50 26.6667C47.585 26.6667 42.9733 23.68 41.8983 19.9133C44.7517 19.6783 49.9033 18.8133 52.2983 15.6567ZM41.7583 16.57C42.205 10.985 44.84 8.33333 50 8.33333C54.73 8.33333 57.3283 10.57 58.0783 15.2367L52.525 11.905C52.0917 11.645 51.5633 11.5967 51.09 11.77C50.615 11.945 50.2467 12.3267 50.0867 12.8067C49.2433 15.3367 44.69 16.2917 41.7583 16.57ZM50 32.82L51.3767 36.265L50 37.6433L48.6233 36.265L50 32.82ZM47.5383 30L45.12 36.0467C44.8733 36.6667 45.0167 37.3733 45.49 37.845L48.8233 41.1783C49.1467 41.5033 49.5733 41.6667 50 41.6667C50.4267 41.6667 50.8533 41.5033 51.1783 41.1783L54.5117 37.845C54.9833 37.3733 55.1283 36.6667 54.8817 36.0467L52.4617 30H56.1617C57.2517 30 58.3067 30.32 59.215 30.925C60.75 31.9467 61.6667 33.66 61.6667 35.505V39.5383C61.3017 39.8017 60.9317 40.055 60.5533 40.2917C60.4333 40.3667 60.3133 40.4383 60.1933 40.5117C59.7917 40.75 59.385 40.9767 58.97 41.1867C58.8233 41.26 58.6733 41.33 58.525 41.4017C58.125 41.5917 57.72 41.7717 57.3083 41.935C57.1267 42.0067 56.9417 42.07 56.7567 42.1367C56.3667 42.2783 55.975 42.4133 55.5783 42.53C55.345 42.5983 55.105 42.6533 54.8683 42.7133C54.53 42.7983 54.19 42.885 53.8467 42.9533C53.81 42.96 53.7717 42.9683 53.735 42.975C53.425 43.0333 53.1083 43.075 52.7933 43.1183C52.57 43.15 52.3467 43.1883 52.1217 43.2117C52.035 43.22 51.9483 43.2333 51.8617 43.2417C51.2467 43.2967 50.6283 43.3333 50 43.3333C49.3717 43.3333 48.7533 43.2967 48.14 43.2383C48.0533 43.23 47.9667 43.2167 47.88 43.2083C47.655 43.1833 47.4317 43.1467 47.2083 43.115C46.8933 43.07 46.5767 43.03 46.2667 42.9717C46.23 42.965 46.1917 42.9567 46.155 42.95C45.8117 42.8817 45.4717 42.7967 45.1333 42.71C44.895 42.65 44.6567 42.595 44.4233 42.5267C44.025 42.41 43.6333 42.275 43.245 42.1333C43.06 42.0667 42.875 42.0033 42.6933 41.9317C42.2817 41.7683 41.8767 41.59 41.4767 41.3983C41.3283 41.3283 41.1783 41.2583 41.0317 41.1833C40.6167 40.9733 40.2083 40.7483 39.8083 40.5083C39.6867 40.4367 39.5667 40.3633 39.4483 40.2883C39.0683 40.0517 38.6983 39.7983 38.335 39.535V35.5017C38.335 33.6567 39.2517 31.945 40.7867 30.9217C41.6933 30.32 42.7467 30 43.8383 30H47.5383ZM78.965 68.99L84.9217 72.565C84.2533 76.645 79.225 80 76.6667 80C74.2517 80 69.64 77.0133 68.565 73.2467C71.4183 73.0117 76.57 72.1467 78.965 68.99ZM68.425 69.9033C68.8717 64.3183 71.5067 61.6667 76.6667 61.6667C81.3967 61.6667 83.995 63.9033 84.745 68.57L79.1917 65.2383C78.7567 64.9783 78.2283 64.93 77.7567 65.1033C77.2817 65.2783 76.9133 65.66 76.7533 66.14C75.91 68.67 71.3567 69.625 68.425 69.9033ZM76.6667 86.1533L78.0433 89.5983L76.6667 90.9767L75.29 89.5983L76.6667 86.1533ZM74.205 83.3333L71.7867 89.38C71.54 90 71.6833 90.7067 72.1567 91.1783L75.49 94.5117C75.8133 94.8367 76.24 95 76.6667 95C77.0933 95 77.52 94.8367 77.845 94.5117L81.1783 91.1783C81.65 90.7067 81.795 90 81.5483 89.38L79.1283 83.3333H82.8283C83.9183 83.3333 84.9733 83.6533 85.8817 84.2583C87.4167 85.28 88.3333 86.9933 88.3333 88.8383V92.8783C88.285 92.9133 88.24 92.95 88.1917 92.9833C87.9117 93.1817 87.6267 93.3683 87.34 93.5517C87.1133 93.695 86.885 93.835 86.6517 93.97C86.4017 94.115 86.1517 94.2583 85.8967 94.3917C85.5533 94.5717 85.2017 94.7383 84.8467 94.8983C84.68 94.9733 84.5167 95.0567 84.35 95.1267C83.8033 95.355 83.2433 95.5617 82.6733 95.7417C82.5717 95.7733 82.4683 95.7983 82.3667 95.8283C81.8883 95.9717 81.4033 96.0967 80.91 96.2033C80.74 96.24 80.57 96.2717 80.4 96.3033C79.9533 96.3883 79.5017 96.4567 79.045 96.51C78.8733 96.53 78.7017 96.555 78.5283 96.57C77.9133 96.63 77.295 96.6667 76.6667 96.6667C76.0383 96.6667 75.42 96.63 74.8067 96.5717C74.6333 96.555 74.4617 96.5317 74.29 96.5117C73.8333 96.4567 73.3817 96.3883 72.935 96.305C72.765 96.2733 72.595 96.2417 72.425 96.205C71.9317 96.0983 71.4467 95.9717 70.9683 95.83C70.8667 95.8 70.7617 95.7767 70.6617 95.7433C70.0917 95.5633 69.5333 95.3567 68.985 95.1283C68.8167 95.0583 68.6533 94.975 68.4883 94.9C68.1333 94.74 67.7817 94.5733 67.4383 94.3933C67.1833 94.26 66.9333 94.1167 66.6833 93.9717C66.4517 93.8367 66.2217 93.6967 65.995 93.5533C65.7083 93.37 65.4217 93.185 65.1433 92.985C65.095 92.9517 65.05 92.9133 65.0017 92.88V88.84C65.0017 86.995 65.9183 85.2833 67.4533 84.26C68.36 83.6533 69.4133 83.3333 70.505 83.3333H74.205ZM96.6667 76.6667C96.6667 81.72 94.7683 86.3267 91.6667 89.8517V88.8383C91.6667 85.8767 90.195 83.1267 87.7317 81.485C86.5867 80.7217 85.29 80.2517 83.9383 80.0817C86.4117 77.94 88.3333 74.9383 88.3333 71.6667C88.3333 60.6467 81.9883 58.3333 76.6667 58.3333C71.345 58.3333 65 60.6467 65 71.6667C65 74.9383 66.9217 77.94 69.395 80.0817C68.0433 80.2517 66.7483 80.7217 65.6017 81.485C63.1383 83.1267 61.6667 85.875 61.6667 88.8383V89.8517C58.565 86.3267 56.6667 81.72 56.6667 76.6667C56.6667 65.6383 65.6383 56.6667 76.6667 56.6667C87.695 56.6667 96.6667 65.6383 96.6667 76.6667ZM65 36.5183V35.505C65 32.5433 63.5283 29.7933 61.065 28.1517C59.92 27.3883 58.6233 26.9183 57.2717 26.7483C59.745 24.6067 61.6667 21.605 61.6667 18.3333C61.6667 7.31333 55.3217 5 50 5C44.6783 5 38.3333 7.31333 38.3333 18.3333C38.3333 21.605 40.255 24.6067 42.7283 26.7483C41.3767 26.9183 40.0817 27.3883 38.935 28.1517C36.4717 29.7933 35 32.5417 35 35.505V36.5183C31.8983 32.9933 30 28.3867 30 23.3333C30 12.305 38.9717 3.33333 50 3.33333C61.0283 3.33333 70 12.305 70 23.3333C70 28.3867 68.1017 32.9933 65 36.5183Z" fill="black"/>
</svg>
