<svg width="15" height="15" viewBox="0 0 15 15" fill="none" xmlns="http://www.w3.org/2000/svg">
<path fill-rule="evenodd" clip-rule="evenodd" d="M9.92376 1.33003L13.6679 5.07421L14.6054 4.13087C14.8573 3.88184 14.995 3.5479 14.995 3.19039C14.995 2.83597 14.8573 2.50191 14.6054 2.25003L12.7451 0.389672C12.4961 0.137673 12.162 0 11.8046 0C11.4501 0 11.1161 0.137673 10.8641 0.389672L9.92376 1.33003ZM0.132742 14.8682C0.217658 14.9531 0.33187 15 0.452033 15C0.493003 15 0.534087 14.9942 0.575057 14.9824L4.70009 13.8076L1.19613 10.3037L0.0184156 14.4229C-0.0283909 14.581 0.0155545 14.751 0.132742 14.8682ZM1.67083 9.58006L5.41786 13.3271L13.0673 5.67475L9.32317 1.93058L1.67083 9.58006Z" fill="#22AAEC"/>
</svg>
