<svg width="17" height="13" viewBox="0 0 17 13" fill="none" xmlns="http://www.w3.org/2000/svg">
<path fill-rule="evenodd" clip-rule="evenodd" d="M4.25 10.2598C5.38527 11.3951 6.89368 12.0196 8.5 12.0196C10.1037 12.0196 11.6147 11.3951 12.75 10.2598L17 6.00981L12.75 1.75981C11.6147 0.624532 10.1063 0 8.5 0C6.89368 0 5.38527 0.624532 4.25 1.75981L0 6.00981L4.25 10.2598ZM5.69238 6.00991C5.69238 4.45916 6.94939 3.20215 8.50014 3.20215C10.0482 3.20215 11.3052 4.45916 11.3079 6.00991C11.3079 7.56065 10.0509 8.81765 8.50014 8.81765C6.94939 8.81765 5.69238 7.56065 5.69238 6.00991Z" fill="#9EA9B9"/>
</svg>
