<svg width="32" height="134" viewBox="0 0 32 134" fill="none" xmlns="http://www.w3.org/2000/svg">
<g clip-path="url(#clip0)">
<path d="M31.6343 71.4655C31.6709 71.6553 31.6709 71.8451 31.7074 71.9969C32.256 68.7323 31.9634 65.4298 31.7074 62.1652C31.6343 62.6207 31.5611 63.0762 31.5246 63.4938C31.5246 63.0383 31.5977 62.5828 31.7074 62.1652C31.7074 58.7488 31.744 55.2564 30.7931 52.0298C29.952 49.1448 29.9154 46.3357 29.8789 43.4508C29.8789 41.9323 29.952 40.4139 29.8057 38.8955C29.4766 35.7068 29.8057 32.4423 28.8914 29.2915C28.3429 27.3176 27.4286 25.951 25.1246 25.9131C23.6251 25.9131 22.0891 25.7612 20.6629 25.1159C19.0903 24.4326 18.3589 23.4077 18.8343 21.5476C19.2366 19.8774 19.9314 18.359 20.7726 16.8406C21.5771 15.3601 22.3817 13.8417 22.7474 12.1714C23.3691 9.36237 22.7474 6.85699 20.6994 4.92101C19.9314 4.19976 19.4194 3.63036 19.2731 2.49155C19.0537 1.0111 17.9566 0.251889 16.6034 0.0241268C15.2869 -0.203635 13.6046 0.062087 13.2754 1.3907C12.7269 3.55444 11.1543 4.76917 10.0937 6.47738C8.448 9.17257 8.85029 11.8678 10.2034 14.5629C11.2274 16.5748 12.6171 18.359 13.2389 20.5986C14.0069 23.3697 13.2389 24.8122 10.5326 25.4955C9.54514 25.7612 8.48457 25.8372 7.46057 25.951C4.16914 26.2927 3.36457 26.976 2.816 30.3165C1.93829 35.8966 2.12114 41.5148 2.08457 47.1329C2.08457 47.7782 2.15771 48.4236 1.97486 49.0309C-0.219428 56.0156 0.0365714 63.2281 0 70.4406C0 73.2876 0.329143 76.2105 2.66971 78.5641C2.74286 77.9947 2.70629 77.3493 2.85257 77.3114C4.49829 76.7799 3.29143 76.0587 2.99886 75.4513C2.59657 74.6921 1.93829 74.0468 1.792 73.1357C1.71886 72.7561 1.75543 72.3006 2.19429 72.1867C2.52343 72.1108 2.66971 72.4904 2.85257 72.7182C3.328 73.2117 2.88914 74.2745 3.87657 74.6162C4.02286 72.908 3.73029 71.3516 2.816 70.023C1.792 68.5805 1.60914 67.0621 1.97486 65.3539C3.47429 58.4071 5.15657 51.4983 5.96114 44.3998C6.21714 42.0842 6.4 39.7306 6.83886 37.3771C8.66743 41.7805 10.6057 46.07 10.496 50.9669C10.4594 52.3714 10.1303 53.5862 9.17943 54.5731C7.13143 56.6609 6.10743 59.2802 5.77829 62.1652C4.90057 69.4536 5.77829 76.666 6.69257 83.8785C7.168 87.6366 8.11886 91.3947 7.46057 95.1907C6.50971 100.619 6.80229 106.009 7.46057 111.4C8.00914 116.031 8.74057 120.662 8.00914 125.369C7.75314 127.191 7.13143 128.899 6.69257 130.684C6.43657 131.671 5.96114 132.885 7.20457 133.569C8.33829 134.176 9.61829 134.252 10.752 133.72C11.9223 133.189 11.7394 131.936 11.6297 130.873C11.5566 130 11.4834 129.089 11.2274 128.254C10.2034 124.876 10.5326 121.535 11.0811 118.119C11.7029 114.247 12.9463 110.527 13.056 106.579C13.2754 105.06 13.2023 103.542 13.056 102.062C12.5074 98.0757 13.0194 94.1658 13.4949 90.2179C14.1531 84.334 14.1531 78.4122 15.2869 72.5663C15.3966 72.0728 15.3234 71.3896 15.9086 71.3516C16.6766 71.2757 16.6034 72.0728 16.7131 72.5663C17.3714 75.9828 17.5543 79.4371 17.92 82.8915C18.2491 86.27 18.0297 89.6864 18.9074 92.989C18.944 93.2168 18.944 93.4445 18.9806 93.7102C19.0691 94.3533 18.9994 94.4419 19.2731 95.7221C19.2731 96.785 19.2731 97.8479 19.2731 98.8728C19.2731 99.8978 18.9629 100.264 18.9994 101.1C18.7434 103.111 18.3704 104.707 18.963 107.733C19.219 109.466 19.4926 110.83 19.8583 112.539C20.9554 118.157 22.4914 123.737 20.5166 129.507C20.2606 130.304 20.3703 131.253 20.4069 132.126C20.4069 132.885 20.736 133.569 21.4674 133.758C22.7109 134.1 24.064 134.252 25.1246 133.341C26.0389 132.582 25.5269 131.481 25.3074 130.532C25.2343 130.228 25.1977 129.924 25.088 129.621C23.5886 125.483 23.6617 121.231 24.0274 116.904C24.3931 112.577 25.2709 108.287 25.2343 103.922C25.2343 102.897 25.2343 101.91 25.2343 100.885C25.2709 99.9737 25.2343 99.2838 24.9417 98.1516C24.5394 96.5948 24.7223 96.1777 24.5394 95.2286C24.5394 93.7102 24.5394 92.1918 24.5394 90.6734C24.576 90.3318 24.576 89.9901 24.6126 89.6485C25.0514 87.9782 25.088 86.27 25.2343 84.5998C25.2709 84.2581 25.3074 83.9165 25.344 83.5748C26.5143 77.1216 26.9897 70.5924 26.5509 64.0253C26.2949 60.3431 25.2709 57.0026 22.6743 54.2694C21.8697 53.4343 21.6869 52.3335 21.6137 51.1187C21.3577 46.1459 23.4789 41.8564 25.0514 37.3771C25.4903 37.6428 25.5269 37.9465 25.5269 38.2881C25.4903 43.0332 26.6606 47.6643 27.2457 52.3335C27.7577 56.3193 28.9646 60.1913 29.8423 64.1391C30.3177 66.3788 30.464 68.5805 28.928 70.6304C28.0869 71.7312 27.904 73.1737 28.3063 74.768C28.7817 74.3505 28.8549 74.0088 28.928 73.6292C29.0377 73.0219 29.2937 72.1108 29.9154 72.3386C30.7566 72.6802 30.0983 73.5153 29.952 74.1607C29.9154 74.2745 29.8423 74.3884 29.7691 74.5023C28.6354 76.5142 28.6354 76.5142 29.8057 78.4881C31.0857 76.5522 32 74.5403 31.8537 72.1488C31.6709 71.8451 31.6343 71.6553 31.6343 71.4655ZM25.088 82.5879C25.088 82.5499 25.088 82.5119 25.088 82.5119C25.088 82.474 25.088 82.474 25.1246 82.436C25.088 82.5119 25.088 82.5499 25.088 82.5879ZM23.808 87.6745C23.7714 87.6745 23.7714 87.7125 23.808 87.6745V87.6745Z" fill="#A3CEF8"/>
</g>
<defs>
<clipPath id="clip0">
<rect width="32" height="134" fill="white"/>
</clipPath>
</defs>
</svg>
