<svg width="44" height="125" viewBox="0 0 44 125" fill="none" xmlns="http://www.w3.org/2000/svg">
<path d="M25.7224 106.198C24.3382 101.243 24.2229 96.2887 24.3382 91.2191C24.4535 85.919 23.3001 80.8493 22.0313 75.7796C21.4545 75.7796 21.5699 76.2405 21.4545 76.471C20.0704 82.3472 18.8015 88.1082 19.3783 94.2148C19.8397 98.7084 18.8015 102.971 17.6481 107.235C16.4946 111.728 16.7253 116.107 18.2248 120.485C18.4555 121.176 18.5709 121.752 18.8015 122.444C19.1476 123.596 18.8016 124.402 17.5327 124.633C16.0332 124.748 14.5337 125.324 13.0342 124.748C11.8807 124.402 11.4193 123.826 11.5347 122.444C11.65 121.291 12.1114 120.254 12.3421 119.217C12.9189 116.798 12.8035 114.378 12.2268 111.959C11.65 109.193 10.6119 106.659 10.0352 103.893C8.18964 98.8236 7.95895 93.7539 9.45846 88.6842C10.0352 86.8407 9.11241 85.1124 8.99706 83.3841C8.53567 78.084 6.80548 73.0144 5.42132 67.9447C5.53666 66.7925 5.19062 65.7555 5.07527 64.7186C4.95993 63.3359 5.19062 62.0685 5.30596 60.8011C5.8827 58.0358 7.03617 55.501 9.11242 53.427C9.8045 52.8509 10.0352 52.1596 9.80449 51.2378C9.3431 49.1639 8.99706 46.9747 8.65102 44.6703C7.84359 45.9377 7.26687 46.9747 7.38221 48.3574C7.49756 51.0074 6.45944 53.427 5.65201 55.8466C5.19062 57.2293 4.72924 58.6119 4.26785 59.8793C3.69111 61.3772 3.69111 62.875 4.72923 64.1425C5.19062 65.5251 5.30597 67.0229 5.42132 68.4056C5.65201 68.8665 5.53666 69.2121 5.07527 69.3273C4.61389 69.4426 4.49854 69.0969 4.26785 68.7512C4.03716 68.4056 4.03714 67.9447 3.46041 67.4838C3.57575 68.9817 4.61389 69.7882 4.84458 70.9404C4.84458 71.2861 4.61388 71.5165 4.38319 71.4013C3.57576 71.0556 3.9218 71.747 3.80645 71.9774C3.57576 72.4383 3.34507 72.3231 3.11438 71.9774C2.88369 71.5165 2.53763 71.1709 2.30694 70.8252C0.807428 68.5208 0 66.1012 0 63.3359C0.115347 59.8793 0.11535 56.3075 0.346044 52.8509C0.461391 50.6618 1.26883 48.5878 2.1916 46.6291C2.53764 45.8225 2.65298 45.016 2.65298 44.2094C2.53764 40.4072 2.76834 36.6049 3.34507 32.8027C3.92181 29.1157 6.11339 26.9265 9.22775 25.4286C10.958 24.6221 12.9189 24.1612 14.7644 23.8156C17.0713 23.3547 18.1095 21.7416 17.8788 19.4372C17.6481 17.8241 16.8407 16.4415 16.3793 15.0589C15.2258 11.8327 14.6491 8.60656 16.7253 5.49563C17.6481 4.11299 19.1476 3.07601 19.7243 1.2325C20.0704 0.0803011 21.4545 -0.150138 22.7234 0.080301C24.1075 0.31074 24.6842 1.2325 24.9149 2.3847C25.1456 3.19123 25.4917 3.65211 26.1838 4.22821C28.26 5.84129 28.7214 8.14568 28.606 10.5653C28.606 12.4088 28.0293 14.2523 27.2219 15.8654C26.5298 17.1328 26.0684 18.4002 25.9531 19.7829C25.7224 21.7416 26.7605 23.2395 28.606 23.5851C30.913 24.046 33.3353 24.5069 35.4115 25.7743C38.4105 27.5026 40.2561 29.807 40.7175 33.3788C41.1788 37.181 41.5249 40.9833 41.2942 44.7855C41.2942 45.4769 41.5249 46.1682 41.8709 46.7443C43.1397 49.6248 43.8318 52.6205 43.7165 55.8466C43.6011 59.188 44.4086 62.4142 43.7165 65.7555C43.7165 65.986 43.7165 66.3316 43.4858 66.5621C43.0244 67.4838 42.9091 68.5208 42.3323 69.3273C42.1016 69.3273 42.1016 69.4426 42.217 69.5578C42.217 69.7882 42.1016 70.0187 41.9863 70.1339C41.7556 70.4795 41.7556 71.1709 41.0635 70.9404C40.4868 70.8252 39.91 70.4795 40.1407 69.673C40.1407 69.5578 40.2561 69.4426 40.2561 69.3273C40.6021 68.9817 40.7175 68.5208 40.6021 68.0599C40.4868 67.7143 40.2561 67.7143 40.0254 68.0599C39.7947 68.4056 39.7947 68.8665 39.564 69.0969C38.9873 69.7882 38.6412 69.673 38.4105 68.7512C38.4105 68.2904 38.4105 67.9447 38.5259 67.4838C38.7566 66.9077 38.6412 66.2164 38.6412 65.5251C38.6412 65.4099 38.6412 65.2946 38.6412 65.2946C40.1407 62.9903 40.0254 60.6859 39.1026 58.2662C39.1026 57.6901 39.1026 56.9988 38.6412 56.538C37.4877 54.0031 36.565 51.3531 36.565 48.4726C36.565 46.9747 35.7575 45.7073 35.1808 44.0942C34.8348 46.7443 34.4887 49.2791 34.0273 51.6987C33.912 52.39 34.1427 52.8509 34.6041 53.3118C35.1808 53.8879 35.6422 54.464 35.9882 55.1553C36.2189 55.9619 36.6803 56.538 37.1417 57.114C38.2952 59.3032 39.1026 61.7228 38.7566 64.2577C38.4105 65.2946 38.6412 66.3316 38.4105 67.3686C38.2952 67.7143 38.1798 68.0599 38.2952 68.4056C38.2952 68.636 38.2952 68.8665 38.0645 68.9817C37.6031 70.0187 37.7184 71.1709 37.1417 72.2078C35.5269 75.5492 35.5268 79.3515 34.6041 82.8081C33.7966 86.3799 34.1427 89.8364 34.9501 93.4083C35.1808 94.6757 35.2962 96.0583 34.8348 97.3257C34.4887 96.404 34.8348 95.4822 34.6041 94.5605C34.7194 95.4822 34.4887 96.404 34.8348 97.3257C34.7194 99.9758 33.912 102.511 33.1046 105.045C32.0665 108.732 30.6823 112.304 30.913 116.222C31.0283 117.835 31.1437 119.333 31.7204 120.831C32.6432 123.481 32.1818 125.094 28.3753 124.748C27.914 124.748 27.4526 124.633 26.9912 124.633C24.9149 124.518 24.3382 123.711 24.9149 121.752C25.1456 120.946 25.3763 120.139 25.607 119.333C27.1065 115.07 26.8758 110.576 25.7224 106.198Z" fill="#FAAF3B"/>
</svg>
