<svg width="37" height="132" viewBox="0 0 37 132" fill="none" xmlns="http://www.w3.org/2000/svg">
<path d="M8.15173 56.0157C9.23112 54.0705 11.0301 52.3684 11.15 49.8153C11.3899 47.0191 10.6703 44.466 10.1906 41.7914C10.1906 41.5482 9.95071 41.3051 9.71084 41.0619C9.47098 40.8188 9.23112 40.3325 8.87132 40.4541C8.39159 40.5756 8.51153 41.0619 8.3916 41.4267C6.71255 48.9643 5.03351 56.6235 3.23454 64.1612C2.75481 66.3495 3.35447 68.1731 4.43385 69.8752C4.67372 70.1183 4.55378 70.4831 4.55378 70.7262C4.43385 71.4557 4.67371 72.1851 4.07406 72.793C3.95412 72.5499 3.95413 72.3067 3.8342 72.1851C3.59433 71.5773 3.59433 70.7262 2.75481 70.9694C2.27508 71.2125 2.51495 72.0635 2.75481 72.6714C2.99467 73.2793 3.35447 73.7656 3.71426 74.2519C4.19399 75.1029 4.19399 75.1029 3.71426 75.4676C2.75481 75.7108 3.71426 76.4402 3.4744 76.9265C2.99467 77.2913 2.87474 76.9265 2.63488 76.6834C0.476111 72.9146 -0.483342 69.0242 0.236248 64.5259C0.835906 60.7571 0.596042 56.7451 1.1957 52.9763C1.31563 52.3684 1.31563 51.639 1.67542 51.0311C2.99467 48.5996 2.87474 46.0465 2.87474 43.3719C2.87474 39.603 2.75481 35.9558 3.23454 32.187C3.35447 31.5791 3.4744 30.9712 3.59433 30.3633C3.8342 29.6339 3.95413 28.9044 4.43385 28.2966C5.51324 26.4729 7.19228 26.1082 8.99125 25.9866C10.3105 25.7435 11.5098 25.3788 12.7091 24.7709C15.2277 23.1904 15.4676 22.5825 14.5081 19.6647C14.0284 18.0843 12.949 16.6254 12.3493 15.0449C11.27 12.1271 11.0301 9.08773 12.5892 6.2915C13.6686 4.8326 14.748 3.61685 15.4676 1.79323C16.3071 -0.395119 20.3848 -1.00299 21.9439 2.40111C22.4236 3.13055 21.704 4.3463 22.9033 4.71103C25.6617 7.02095 25.9016 11.5192 24.7023 14.6802C24.1026 16.3822 23.0233 18.0843 22.3037 19.7863C21.2243 22.2178 21.8239 23.5551 24.3425 24.6493C25.7817 25.3788 27.3408 25.8651 29.0198 26.1082C31.8982 26.5945 33.2174 28.5397 33.5772 31.2144C34.2968 36.0774 34.1769 41.0619 34.1769 46.0465C34.1769 47.3838 34.2968 48.5996 34.8965 49.8153C35.736 51.5174 36.0958 53.4626 36.0958 55.2862C36.2157 59.2982 36.4556 63.1886 36.9353 67.2006C37.2951 70.3615 36.0958 73.0361 34.7765 75.8324C34.5367 76.3187 34.1769 76.6834 33.6972 76.9265C33.3374 77.1697 33.2174 76.805 33.2174 76.4402C33.5772 75.9539 34.2968 75.4677 32.9776 75.3461C32.7377 75.3461 32.6178 74.9813 32.8576 74.7382C33.2174 73.7656 34.2968 73.1577 34.2968 71.942C34.2968 71.5772 34.4168 71.2125 34.057 71.091C33.5772 70.8478 33.4573 71.3341 33.2174 71.6988C33.0975 71.942 33.0975 72.3067 32.9776 72.5499C32.8576 72.9146 32.9776 73.644 32.3779 73.4009C31.8982 73.2793 32.1381 72.6714 32.1381 72.4283C32.258 71.091 32.4979 69.8752 33.2174 68.6595C33.8171 67.6869 34.057 66.5927 33.937 65.3769C33.5772 61.7297 32.0181 58.3256 31.5384 54.7999C30.8188 50.3016 29.3796 45.9249 28.66 41.4267C28.4202 40.3325 28.0604 40.3325 27.4607 41.0619C27.2209 41.4267 26.7411 41.6698 26.7411 42.1561C26.3813 44.5876 25.6617 47.1407 25.7817 49.6938C25.9016 51.5174 26.7411 52.9763 27.7006 54.4352C27.9405 54.7999 28.3002 55.0431 28.3002 55.5294C28.5401 56.0157 28.8999 56.502 29.1398 56.9883C30.2191 58.9335 30.5789 61.2434 30.6989 63.4317C30.8188 67.6869 30.9387 71.8204 30.459 76.0755C30.2191 78.0207 29.9793 79.9659 29.7394 81.9111C28.78 86.8957 28.1803 91.7587 29.1398 96.7433C29.8594 100.391 29.3796 104.038 29.0198 107.563C28.5401 111.94 27.9404 116.195 27.9404 120.572C27.9404 123.125 28.5401 125.557 29.2597 127.988C30.2191 131.149 29.6195 132 26.3813 132C25.9016 132 25.4219 132 24.9422 131.878C22.6635 131.514 22.3037 130.906 22.7834 128.596C23.9827 122.882 23.9827 117.289 22.6635 111.575C21.4641 106.591 20.6246 101.485 21.3442 96.257C21.8239 92.3666 20.7446 88.4762 20.5047 84.5858C20.1449 80.2091 19.4253 75.9539 18.8256 71.5773C18.8256 71.4557 18.8256 71.2125 18.4658 71.091C17.8662 73.1577 17.7463 75.3461 17.5064 77.4128C16.9067 81.9111 16.427 86.4094 15.8274 91.0292C15.5875 93.096 15.4676 95.1628 15.8274 97.108C16.427 101.728 15.5875 106.226 14.5081 110.603C13.0689 116.56 12.8291 122.517 14.1483 128.596C14.628 130.663 14.1483 131.392 12.1095 131.757C11.15 132 10.0706 131.878 9.11119 131.757C7.55207 131.514 6.95242 130.663 7.43215 129.204C8.75139 125.07 9.47098 120.937 8.99125 116.56C8.63146 112.791 8.27167 109.144 7.79194 105.375C7.43214 101.971 7.31221 98.4453 7.91187 95.0412C8.63146 91.5155 8.27166 87.9899 7.672 84.4642C6.59262 77.656 5.87303 70.8478 6.11289 64.0396C6.23283 61.6081 6.59262 59.2982 7.55207 57.1098C7.79194 56.8667 7.91187 56.3804 8.15173 56.0157Z" fill="#B7E250"/>
</svg>
