<svg width="58" height="122" viewBox="0 0 58 122" fill="none" xmlns="http://www.w3.org/2000/svg">
<path d="M48.6662 73.1088C48.1002 76.263 47.3077 79.3045 45.6095 82.1207C45.6095 82.2333 45.4963 82.346 45.4963 82.346C46.2888 85.3875 44.3641 88.3163 45.1566 91.4705C46.0623 95.1879 45.1567 98.9053 42.666 102.059C41.4206 103.749 40.2885 105.439 40.8546 107.692C41.081 108.706 40.7414 109.832 39.9489 110.733C39.496 111.297 39.496 111.86 39.6092 112.536C39.8356 113.888 40.1753 115.239 40.5149 116.591C41.5339 120.759 40.6281 121.097 37.345 121.773C35.6468 122.111 33.9486 121.886 32.2504 121.322C31.2315 120.984 30.7786 120.308 31.2315 119.295C32.1372 116.816 32.3636 114.225 32.7032 111.635C32.8164 110.846 32.8165 110.17 32.4768 109.382C32.2504 108.706 32.1372 107.917 32.4768 107.241C33.3825 105.326 32.8165 103.411 32.59 101.496C32.1372 98.7926 32.024 96.0891 31.6843 93.2729C31.6843 92.9349 31.5711 92.4843 31.6843 92.1464C32.3636 90.1187 32.024 88.2037 31.6843 86.176C31.4579 84.7116 30.8918 83.3598 30.439 81.8954C29.9861 80.431 29.6465 78.9665 29.1936 77.5021C28.9672 77.3895 28.9672 77.1642 28.9672 76.9389C28.854 77.2768 28.854 77.7274 28.6276 78.0653C28.0615 80.093 27.0426 82.1207 26.8162 84.0357C26.4766 86.176 25.0048 88.2037 26.1369 90.4567C26.8162 92.1464 26.4766 93.9488 26.2501 95.6385C25.9105 98.7926 25.5708 102.059 25.0048 105.214C25.0048 105.439 24.8916 105.664 25.0048 105.889C26.2501 108.368 25.118 111.071 25.6841 113.662C26.0237 115.465 26.2501 117.38 26.8162 119.182C27.1558 120.083 26.9294 120.872 26.0237 121.21C23.0802 122.224 20.2499 122.449 17.4195 120.759C16.8535 119.295 16.9667 117.83 17.4195 116.366C17.7592 115.239 18.0988 114 18.212 112.874C18.3252 111.973 18.3252 111.071 17.7592 110.283C17.3063 109.607 17.0799 108.706 17.3063 107.917C17.7592 105.777 16.627 104.2 15.4949 102.623C13.3439 99.6938 12.2117 96.427 12.5514 92.8223C12.6646 91.4705 12.7778 90.0061 13.0042 88.6543C13.1174 87.7531 13.2307 86.8519 12.7778 85.9507C12.5514 85.3875 12.325 84.8242 12.4382 84.261C12.891 82.4586 11.7589 81.1068 10.9664 79.6424C9.83429 77.6147 9.38144 75.3618 9.26822 73.2215C9.0418 69.9547 8.70216 66.6879 7.79646 63.5337C7.23039 61.506 7.45682 59.4784 7.57003 57.338C7.79646 55.5357 8.13608 53.8459 8.47572 52.1562C9.155 50.1285 9.72107 48.1009 10.4004 46.0732C10.74 45.6226 10.9664 45.0594 11.0796 44.4961C11.0796 44.3835 11.0796 44.3835 11.1928 44.2708C11.1928 44.1582 11.306 44.0455 11.306 43.9329C11.0796 43.9329 11.1928 44.1582 11.0796 44.2708C10.9664 44.6088 10.8532 44.8341 10.74 45.172C10.4003 45.7352 10.2871 46.4111 9.83429 46.8617C8.92859 47.5376 9.04179 48.4388 8.92858 49.4526C8.81537 50.1285 8.70215 50.8044 8.58894 51.4803C8.47573 52.0436 8.24931 52.4942 8.1361 53.0574C8.02288 53.8459 7.68323 54.5218 7.34359 55.1977C6.43789 56.7748 6.21147 58.5772 5.98505 60.3795C5.87183 61.0554 6.21147 61.7313 6.55111 62.2946C7.11717 63.4211 7.34361 64.6602 7.57003 65.8993C7.68325 66.4626 7.68323 67.0258 6.77753 66.6879C6.66432 66.5752 6.66432 66.5752 6.55111 66.4626C6.09826 66.012 6.21147 65.3361 5.6454 64.8855C5.41898 64.7728 5.30577 64.6602 5.07934 64.6602C4.51328 65.2234 4.62649 65.7867 5.07934 66.3499C5.41898 66.9131 5.64541 67.4764 5.98505 68.0396C6.09826 68.2649 6.21147 68.6029 6.21147 68.8282C5.98504 69.7294 5.07935 68.2649 4.96614 69.0535C4.73971 70.6305 4.17364 69.3914 3.94721 69.1661C1.79617 67.0258 1.00369 64.2096 0.890473 61.2807C0.890473 59.7037 0.437633 58.1266 0.777271 56.3242C1.0037 55.0851 0.211201 53.508 0.097988 52.0436C-0.128437 50.2412 -0.0152213 48.5515 1.00369 46.9744C1.34333 46.4111 1.34333 45.7353 1.34333 45.0594C1.34333 41.6799 1.45653 38.3005 2.24902 35.0337C3.72079 28.9506 7.57002 25.3459 13.3439 23.6562C15.1553 23.0929 16.9667 22.755 18.8913 22.417C20.0234 22.3044 20.9291 21.9664 21.8348 20.9526C22.9669 19.8261 22.7405 19.0376 22.2877 17.9111C21.4952 15.9961 20.4763 14.1937 20.2499 12.0534C19.797 8.56128 21.2688 6.08301 23.8727 4.16799C24.5519 3.60475 25.0048 3.15416 25.2312 2.36562C25.6841 0.788539 26.8162 0 28.6276 0C30.5522 0.112648 31.9108 0.901187 32.3636 2.59091C32.4768 3.2668 32.8165 3.60475 33.4957 3.94269C36.5525 5.51977 37.911 8.11069 37.4582 11.4901C37.2318 13.2925 36.8921 15.2075 35.9864 16.7846C34.8543 18.6996 35.5336 20.2767 36.6657 21.7411C37.0053 22.0791 37.345 22.0791 37.7978 22.1917C39.8356 22.417 41.8735 22.8676 43.9113 23.3182C51.2701 25.1206 55.3458 29.7392 56.5911 37.0613C56.8175 38.1878 56.9308 39.3143 56.9308 40.4408C56.9308 43.3696 57.3836 46.1858 57.8365 49.1147C58.1761 51.255 57.9497 53.508 57.4968 55.6483C57.4968 55.8736 57.2704 56.0989 57.3836 56.3242C58.4025 58.9151 57.2704 61.506 57.044 63.9843C56.8175 66.012 55.7986 67.927 54.2136 69.3914C53.9872 69.6167 53.5344 69.9547 53.5344 69.6167C53.5344 68.0396 52.5155 69.5041 52.1758 69.0535C51.9494 68.6029 52.1758 68.1523 52.2891 67.7017C52.4023 67.0258 52.8551 66.5752 53.0815 66.012C53.0815 65.7867 53.3079 65.5614 53.0815 65.3361C52.9683 65.2234 52.8551 65.4487 52.7419 65.5614C52.7419 65.674 52.6287 65.7867 52.6287 65.7867C52.289 66.3499 52.0626 67.1385 51.2701 66.8005C50.5909 66.4626 50.7041 65.7867 50.8173 65.1108C51.0437 63.8716 51.3833 62.6325 52.0626 61.506C52.5155 60.7175 52.5155 59.9289 51.9494 59.2531C51.4965 58.5772 51.3833 57.9013 51.3833 57.1127C51.3833 55.5357 50.2512 54.2965 50.0248 52.7195C49.7984 51.3677 49.4587 50.0159 49.3455 48.5515C49.0059 47.425 47.7605 46.7491 47.5341 45.6226C47.4209 45.2847 47.4209 44.8341 47.3077 44.4961C47.3077 43.9329 47.1945 43.4823 46.8548 43.0317C46.8548 43.5949 46.968 43.9329 47.0813 44.3835C47.3077 44.8341 47.3077 45.3973 47.5341 45.8479C48.553 47.9882 49.0059 50.3538 49.7984 52.4942C50.0248 53.2827 50.138 54.0712 50.3644 54.8598C51.0437 57.9013 51.1569 60.9428 50.5909 63.8716C50.4776 64.3222 50.4776 64.7728 50.2512 65.1108C49.4587 66.5752 49.2323 68.2649 49.2323 69.9547C49.0059 70.9685 49.2323 72.095 48.6662 73.1088Z" fill="#FE5D7C"/>
</svg>
