<svg width="49" height="123" viewBox="0 0 49 123" fill="none" xmlns="http://www.w3.org/2000/svg">
<path d="M23.8954 73.0188C22.9952 77.5471 21.7573 82.0754 22.0949 86.7169C22.545 93.2829 21.8698 99.6225 19.9568 105.962C18.6063 110.151 19.3941 114.226 20.9696 118.302C21.3072 119.321 21.8698 120.339 21.5322 121.472C21.3072 121.698 21.0821 121.924 20.7445 122.038C18.0437 122.604 15.2303 122.717 12.5295 121.698C11.8543 120.679 12.3044 119.66 12.642 118.755C14.5551 113.547 13.7674 108.453 12.3044 103.358C11.1791 99.6225 9.82868 95.9999 9.49108 92.0376C9.37854 90.2263 9.6036 88.5282 9.94121 86.8301C10.7289 82.6414 9.71614 78.566 8.92841 74.4905C8.36574 71.7735 7.80307 69.0565 7.578 66.2263C7.2404 62.7169 7.578 59.2075 8.92841 56.0377C10.729 51.849 10.2788 47.5471 9.26601 43.2452C8.70334 43.5849 8.81588 44.0377 8.70334 44.4905C8.14067 47.2075 7.12785 49.8113 7.12785 52.7547C7.12785 54.9056 6.00252 56.9433 5.32732 58.9811C4.53958 61.0188 4.42704 62.8301 5.32732 64.8679C6.00252 66.2263 6.56518 67.9245 5.66491 69.5094C4.87717 69.0565 4.98972 68.2641 4.76465 67.5848C4.65211 67.4716 4.6521 67.3584 4.53957 67.2452C4.3145 67.0188 4.08943 66.566 3.75183 66.6792C3.30169 66.9056 3.41424 67.4716 3.63931 67.9245C4.08944 68.7169 4.53957 69.5094 4.87717 70.415C4.87717 72.1131 3.9769 70.7546 3.52677 70.8679C3.3017 70.9811 3.3017 71.2075 3.3017 71.3207C3.3017 71.6603 3.30169 71.9999 2.85155 71.9999C2.51395 71.9999 2.40142 71.6603 2.28888 71.4339C2.06381 71.0943 1.95128 70.7546 1.72621 70.5282C0.150735 67.9245 -0.0743233 65.3207 0.488347 62.3773C0.938484 59.8867 0.713419 57.3962 0.263282 54.7924C-0.186854 52.3018 -0.0743268 49.9245 0.713412 47.5471C1.16355 46.3018 0.938487 45.0566 0.825953 43.8113C0.713419 40.0754 0.938484 36.4528 2.17636 32.9434C2.6265 31.5849 3.3017 30.2264 4.08944 28.9811C4.65211 28.1886 5.21477 27.6226 6.00251 27.0566C8.81586 25.0188 12.0794 24.2264 15.3428 23.5471C19.169 22.7547 19.9567 19.4717 18.3813 16.7547C16.5807 13.6981 16.2431 10.5283 17.2559 7.24528C17.7061 5.66037 18.6063 4.5283 20.0693 3.73585C20.6319 3.50943 20.7445 3.0566 20.857 2.60377C21.1946 0.90566 22.32 0.113207 24.008 0C25.8085 0 27.0464 0.792452 27.384 2.37736C27.6091 3.0566 27.8341 3.50943 28.5093 3.84905C31.3227 5.54716 32.3355 9.05659 31.0976 12.9056C30.6475 14.4906 29.9723 15.9622 29.2971 17.4339C28.0592 20.1509 29.072 22.3019 31.8854 23.0943C33.6859 23.5471 35.4865 23.7736 37.287 24.1132C42.351 25.0188 45.2769 27.9622 46.5148 32.9434C47.3025 36.1132 47.7527 39.1698 47.8652 42.4528C47.8652 44.7169 47.8652 46.8679 48.5404 49.132C49.4407 52.0754 48.6529 55.0188 48.2028 57.9622C48.0903 59.2075 48.0903 60.3396 48.3153 61.5848C48.9906 62.6037 48.9905 63.849 48.9905 64.9811C49.1031 67.4716 48.2028 69.6226 46.7399 71.5471C46.1772 72.2263 45.7271 71.9999 45.6145 71.2075C45.502 70.3018 45.2769 71.0943 45.0518 71.0943C44.039 71.0943 43.814 70.8679 44.1516 69.7358C44.3767 68.9433 45.1644 68.3773 45.1644 67.2452C44.3767 67.4716 44.3767 68.0377 44.039 68.4905C43.814 68.9433 43.7015 69.5094 43.0262 69.3962C42.4636 69.2829 42.5761 68.6037 42.4636 68.1509C42.351 66.9056 42.6886 65.6603 43.2513 64.415C44.0391 62.7169 43.9265 61.0188 43.2513 59.3207C42.8012 58.0754 42.2385 56.8301 41.5633 55.5848C40.8881 54.1132 40.438 52.6415 40.438 51.0565C40.5505 49.5849 39.6502 48.3396 39.4251 46.9811C39.3126 46.0754 39.0875 45.1698 38.8625 44.1509C38.5249 44.6037 38.6374 44.9433 38.6374 45.1698C38.1873 48.3396 38.4123 51.3962 39.7627 54.3396C42.0134 58.8679 42.2385 63.6226 41.3382 68.4905C40.8881 70.6414 39.9878 72.566 39.5377 74.7169C38.5249 79.132 37.287 83.4339 38.5249 88.0754C39.0876 90.4527 38.8625 92.9433 38.2998 95.3207C37.3995 98.7169 36.3867 102 35.3739 105.396C34.5862 108.226 34.3611 111.17 34.5862 114.113C34.6987 115.924 35.3739 117.509 35.8241 119.207C36.3867 121.585 36.0491 121.811 33.7984 122.604C31.4352 123.396 29.1845 122.83 26.9339 122.377C26.2587 121.811 26.1461 121.132 26.4837 120.339C26.8213 119.321 27.0464 118.302 27.4965 117.283C28.2843 115.924 28.6219 114.34 29.072 112.868C29.6347 110.83 29.072 108.906 28.7344 106.868C27.9467 104.377 27.1589 101.773 26.3712 99.2829C25.4709 96.4527 25.4709 93.5093 25.8085 90.6791C26.3712 86.1508 25.3584 81.7358 24.7957 77.2075C24.6832 76.0754 24.3456 74.9433 24.1205 73.698C24.008 73.698 24.5707 72.9056 23.8954 73.0188Z" fill="#FE703D"/>
</svg>
