<svg width="43" height="129" viewBox="0 0 43 129" fill="none" xmlns="http://www.w3.org/2000/svg">
<path d="M3.27642 75.0711C3.03587 74.5952 2.79532 74.1193 2.55477 73.6434C0.991221 70.9069 0.149317 68.0514 0.26959 64.839C0.389863 61.6266 0.149311 58.4142 0.029038 55.2017C-0.091235 53.0601 0.149315 51.0375 0.991226 49.2528C1.95341 47.2302 1.95341 45.0886 1.71286 42.947C1.35204 39.7345 1.59259 36.5221 2.31423 33.3097C3.03587 29.9783 5.5616 28.1936 8.32788 26.6469C10.2523 25.5761 12.4172 24.9812 14.4618 24.2673C15.0632 24.0294 15.7848 23.9104 16.2659 23.4345C16.747 22.9586 16.747 22.2447 17.1078 21.7688C17.4686 19.1513 15.9051 17.1286 15.0632 14.7491C13.8604 11.4177 13.6199 8.20526 16.0254 5.2308C16.0254 5.11182 16.1456 4.99284 16.2659 4.99284C17.7092 4.27897 18.3106 2.97021 18.9119 1.54247C19.5133 0.233708 20.8363 -0.242206 22.3998 0.114729C23.7228 0.352686 24.4445 1.30451 24.5648 2.4943C24.685 3.32715 25.1661 3.80306 25.7675 4.27897C27.5716 5.34978 28.4135 7.13446 28.5338 9.15709C28.7743 11.8936 28.1729 14.5111 26.8499 17.0097C26.008 18.4374 25.6472 19.9841 25.6472 21.6498C25.6472 22.8396 26.008 23.4345 27.331 23.6725C30.6987 24.1484 33.8258 25.1002 36.5921 27.2418C38.9975 29.1455 40.4408 31.525 40.9219 34.4995C41.6435 38.4258 41.2827 42.3521 41.1624 46.2784C41.1624 47.1112 41.403 47.8251 41.7638 48.5389C42.9665 51.5134 43.2071 54.4879 42.8463 57.5813C42.6057 60.7937 42.726 63.8872 42.726 67.0996C42.726 68.5273 42.4854 69.9551 41.6435 71.1448C41.403 71.3828 41.2827 71.7397 41.1624 72.0967C40.9219 72.5726 40.9219 73.2865 40.2003 73.1675C39.4786 73.0485 38.9975 72.5726 39.2381 71.7397H39.1178C38.9975 71.5018 39.1178 71.3828 39.2381 71.1448C39.4786 70.7879 39.5989 70.5499 39.5989 70.193C39.5989 70.074 39.5989 69.9551 39.3583 69.9551C39.2381 69.9551 39.2381 70.193 39.1178 70.312C39.1178 70.431 38.9975 70.55 38.9975 70.6689C38.757 71.1448 38.6367 71.8587 37.9151 71.6208C37.3137 71.3828 37.434 70.7879 37.5542 70.312C37.6745 69.8361 37.5542 69.2412 37.6745 68.7653C37.7948 68.4083 37.9151 68.0514 38.0353 67.6945C38.0353 67.5755 38.1556 67.4565 38.2759 67.3375C39.5989 65.5529 39.2381 63.6492 38.8773 61.7456C38.2759 58.2952 36.9529 54.9638 36.3515 51.5134C36.3515 48.42 35.7501 45.3265 34.6677 42.2331C32.9839 44.2557 32.0217 46.1594 32.7433 48.7769C33.7055 52.1083 34.9082 55.2017 36.4718 58.2952C36.8326 59.485 37.1934 60.6747 37.434 61.8645C37.434 64.839 37.6745 67.8135 37.3137 70.6689C36.9529 73.4054 36.5921 76.023 35.7502 78.6405C34.6677 80.1872 34.6677 81.9719 34.4271 83.6376C34.1866 85.1843 34.0663 86.731 34.0663 88.2777C34.0663 90.6573 34.5474 92.9179 34.788 95.2975C35.3893 98.5099 34.9082 101.841 34.5474 105.054C34.0663 109.575 33.3447 114.096 33.5852 118.617C33.7055 121.116 34.3069 123.495 35.0285 125.875C35.6299 127.66 35.3893 128.254 33.465 128.611C32.142 128.849 30.6987 129.087 29.3757 128.968C27.4513 128.73 26.8499 128.017 27.4513 126.232C28.1729 123.614 28.7743 120.997 29.0149 118.26C29.2554 115.881 28.654 113.501 27.9324 111.241C27.2108 108.504 26.3688 105.768 25.6472 103.031C24.8053 99.8186 25.1661 96.6062 25.0458 93.3938C24.9256 88.8726 24.2039 84.3514 23.362 79.9492C22.7607 77.8076 22.6404 75.5471 21.9187 73.4054C21.9187 73.2865 21.9187 73.1675 21.9187 73.0485C21.7985 73.1675 21.9187 73.2865 21.9187 73.4054C21.4377 74.5952 21.4376 75.904 21.0768 77.0938C19.5133 82.9237 18.3106 88.7537 18.4308 94.9405C18.4308 98.3909 18.3105 101.722 17.3484 105.054C16.5065 108.266 15.424 111.36 14.8226 114.572C14.3415 117.071 14.5821 119.569 15.0632 122.068C15.424 123.971 16.0254 125.756 16.2659 127.66C15.7848 128.73 14.7024 128.849 13.8604 128.968C12.6577 128.849 11.3347 128.849 10.132 128.611C8.32788 128.373 7.60625 127.303 8.20761 125.637C10.6131 119.807 9.89143 113.858 9.04952 107.909C8.20761 102.198 8.08733 96.4873 9.04952 90.7763C9.65088 87.088 9.04953 83.3996 8.08734 79.8303C7.24543 76.8558 6.88461 73.8813 6.40352 70.9069C6.0427 70.193 6.28324 69.3602 6.04269 68.6463C6.04269 68.5273 5.92242 68.2894 5.92242 68.1704C5.68187 64.72 5.80215 61.2696 7.24542 57.9382C7.3657 57.5813 7.60625 57.1054 7.60625 56.7485C8.56843 54.2499 9.77116 51.7514 10.3725 49.1338C10.8536 47.1112 10.9739 45.3265 9.77116 43.5419C9.53061 42.709 9.04952 41.9951 8.44815 41.0433C8.08733 41.7572 8.32788 42.3521 8.20761 42.947C6.88461 49.4908 6.16297 56.1536 4.11832 62.5784C3.75751 64.0061 3.75751 65.4339 4.59942 66.7426C4.96024 67.3375 5.32105 68.0514 5.44133 68.7653C5.68187 69.4791 5.5616 70.193 5.5616 70.9069C5.5616 71.2638 5.56161 71.7397 5.08051 71.7397C4.59942 71.8587 4.47914 71.3828 4.2386 71.0259C3.99805 70.6689 3.99805 70.193 3.51696 69.7171C3.27641 71.0259 4.47915 71.7397 4.59942 72.8105C4.59942 73.0485 4.71969 73.4054 4.47915 73.4054C3.39669 73.5244 4.11833 74.1193 3.99805 74.5952C3.99805 75.4281 3.63724 75.4281 3.27642 75.0711Z" fill="#F5E663"/>
</svg>
