<svg width="34" height="30" viewBox="0 0 34 30" fill="none" xmlns="http://www.w3.org/2000/svg">
<path d="M12.9914 21.7949L8.20512 24.2735C7.77777 24.4444 7.43589 24.2735 7.43589 23.8462V18.9744C7.43589 18.547 7.77777 18.2906 8.20512 18.547L12.9914 21.0256C13.4188 21.2821 13.4188 21.6239 12.9914 21.7949ZM33.7607 10.4273V26.3248C33.7607 28.6325 32.3077 30 30 30H1.96581C0.854703 30 0 29.1453 0 28.0342V15.1282C0 14.0171 0.854703 13.1624 1.96581 13.1624H17.265C18.3761 13.1624 19.2308 14.0171 19.2308 15.1282V28.0342C19.2308 28.0342 19.2308 28.0342 19.2308 28.1197H30C31.282 28.1197 31.7949 27.6068 31.7949 26.4103V11.5385H25.812C23.5043 11.5385 22.0513 10.0855 22.0513 7.77778V1.96581H12.5641C11.282 1.96581 10.7692 2.56411 10.7692 3.76069V10C10.7692 10.5128 10.3419 10.9402 9.82906 10.9402C9.31624 10.9402 8.88888 10.5128 8.88888 10V3.76069C8.88888 1.453 10.3419 0 12.6496 0H23.3333C23.5897 0 23.8461 0.0854727 24.0171 0.256413L33.5043 9.65812C33.5897 9.91453 33.7607 10.1709 33.7607 10.4273ZM30.5983 9.57265L24.0171 2.99145V7.69231C24.0171 8.97436 24.6154 9.48718 25.812 9.48718H30.5983V9.57265ZM17.265 27.094C17.265 27.0085 17.1795 26.9231 17.094 26.9231H15.641C15.5556 26.9231 15.4701 27.0085 15.4701 27.094V28.3761C15.4701 28.4615 15.5556 28.547 15.641 28.547H17.094C17.1795 28.547 17.265 28.4615 17.265 28.3761V27.094ZM16.2393 25.5556C16.7521 25.5556 17.1795 25.1282 17.1795 24.6154L17.094 18.3761C17.094 17.8632 16.6667 17.4359 16.1539 17.4359H2.90598C2.39316 17.4359 1.96581 17.8632 1.96581 18.3761L2.05128 24.6154C2.05128 25.1282 2.47863 25.5556 2.99145 25.5556H16.2393ZM15.3846 15.9829C15.3846 16.0684 15.4701 16.1539 15.5556 16.1539H17.0086C17.094 16.1539 17.1795 16.0684 17.1795 15.9829V14.7008C17.1795 14.6154 17.094 14.5299 17.0086 14.5299H15.5556C15.4701 14.5299 15.3846 14.6154 15.3846 14.7008V15.9829ZM10.9402 14.7008V15.9829C10.9402 16.0684 11.0256 16.1539 11.1111 16.1539H12.5641C12.6496 16.1539 12.735 16.0684 12.735 15.9829V14.7008C12.735 14.6154 12.6496 14.5299 12.5641 14.5299H11.1111C11.0256 14.5299 10.9402 14.6154 10.9402 14.7008ZM6.41026 15.9829C6.41026 16.0684 6.49572 16.1539 6.58119 16.1539H8.03418C8.11965 16.1539 8.20512 16.0684 8.20512 15.9829V14.7008C8.20512 14.6154 8.11965 14.5299 8.03418 14.5299H6.58119C6.49572 14.5299 6.41026 14.6154 6.41026 14.7008V15.9829ZM1.96581 15.9829C1.96581 16.0684 2.05128 16.1539 2.13675 16.1539H3.58974C3.67521 16.1539 3.76068 16.0684 3.76068 15.9829V14.7008C3.76068 14.6154 3.67521 14.5299 3.58974 14.5299H2.13675C2.05128 14.5299 1.96581 14.6154 1.96581 14.7008V15.9829ZM3.84615 28.3761V27.094C3.84615 27.0085 3.76069 26.9231 3.67522 26.9231H2.22221C2.13674 26.9231 2.05128 27.0085 2.05128 27.094V28.3761C2.05128 28.4615 2.13674 28.547 2.22221 28.547H3.67522C3.76069 28.547 3.84615 28.4615 3.84615 28.3761ZM8.2906 28.3761V27.094C8.2906 27.0085 8.20513 26.9231 8.11966 26.9231H6.66667C6.5812 26.9231 6.49572 27.0085 6.49572 27.094V28.3761C6.49572 28.4615 6.5812 28.547 6.66667 28.547H8.11966C8.20513 28.547 8.2906 28.4615 8.2906 28.3761ZM12.735 28.3761V27.094C12.735 27.0085 12.6496 26.9231 12.5641 26.9231H11.1111C11.0256 26.9231 10.9402 27.0085 10.9402 27.094V28.3761C10.9402 28.4615 11.0256 28.547 11.1111 28.547H12.5641C12.6496 28.547 12.735 28.4615 12.735 28.3761ZM14.359 7.35043H18.8034C19.2308 7.35043 19.5727 7.00854 19.5727 6.58119C19.5727 6.15384 19.2308 5.81197 18.8034 5.81197H14.359C13.9316 5.81197 13.5897 6.15384 13.5897 6.58119C13.5897 7.00854 13.9316 7.35043 14.359 7.35043ZM14.359 10.7692H18.8034C19.2308 10.7692 19.5727 10.4273 19.5727 10C19.5727 9.57265 19.2308 9.23077 18.8034 9.23077H14.359C13.9316 9.23077 13.5897 9.57265 13.5897 10C13.5897 10.4273 13.9316 10.7692 14.359 10.7692ZM22.0513 20.2564H28.1197C28.547 20.2564 28.8889 19.9145 28.8889 19.4872C28.8889 19.0598 28.547 18.718 28.1197 18.718H22.0513C21.6239 18.718 21.2821 19.0598 21.2821 19.4872C21.2821 19.9145 21.6239 20.2564 22.0513 20.2564ZM28.1197 22.3932H22.1368C21.7094 22.3932 21.3675 22.735 21.3675 23.1624C21.3675 23.5897 21.7094 23.9316 22.1368 23.9316H28.1197C28.547 23.9316 28.8889 23.5897 28.8889 23.1624C28.8889 22.735 28.547 22.3932 28.1197 22.3932ZM22.0513 16.7521H28.1197C28.547 16.7521 28.8889 16.4102 28.8889 15.9829C28.8889 15.5555 28.547 15.2137 28.1197 15.2137H22.0513C21.6239 15.2137 21.2821 15.5555 21.2821 15.9829C21.2821 16.4102 21.6239 16.7521 22.0513 16.7521Z" fill="#384250"/>
</svg>
