<svg width="35" height="30" viewBox="0 0 35 30" fill="none" xmlns="http://www.w3.org/2000/svg">
<path d="M11.453 18.6325C11.453 19.9145 10.4273 20.9402 9.23076 20.9402C8.03418 20.9402 7.00854 19.9145 7.00854 18.6325C7.00854 17.3504 8.03418 16.3248 9.23076 16.3248C10.5128 16.3248 11.453 17.3504 11.453 18.6325ZM14.7008 7.35043H19.1453C19.5726 7.35043 19.9145 7.00854 19.9145 6.58119C19.9145 6.15384 19.5726 5.81197 19.1453 5.81197H14.7008C14.2735 5.81197 13.9316 6.15384 13.9316 6.58119C13.9316 7.00854 14.2735 7.35043 14.7008 7.35043ZM14.7008 10.7692H19.1453C19.5726 10.7692 19.9145 10.4273 19.9145 10C19.9145 9.57265 19.5726 9.23077 19.1453 9.23077H14.7008C14.2735 9.23077 13.9316 9.57265 13.9316 10C13.9316 10.4273 14.2735 10.7692 14.7008 10.7692ZM28.4615 22.3932H22.3077C21.8803 22.3932 21.5385 22.735 21.5385 23.1624C21.5385 23.5897 21.8803 23.9316 22.3077 23.9316H28.4615C28.8889 23.9316 29.2308 23.5897 29.2308 23.1624C29.2308 22.735 28.8889 22.3932 28.4615 22.3932ZM34.0171 10.4273V26.3248C34.0171 28.6325 32.5641 30 30.2564 30H1.45299C0.598288 30 0 29.3162 0 28.3761V15.1282C0 14.2735 0.683757 13.5043 1.53846 13.5043H17.6923C18.547 13.5043 19.1453 14.188 19.1453 15.1282V28.1197H30.3419C31.6239 28.1197 32.1367 27.6068 32.1367 26.4103V11.5385H26.1538C23.8461 11.5385 22.3932 10.0855 22.3932 7.77778V1.96581H12.9914C11.7094 1.96581 11.1966 2.56411 11.1966 3.76069V10.5128C11.1966 11.0256 10.7692 11.453 10.2564 11.453C9.74359 11.453 9.31623 11.0256 9.31623 10.5128V3.76069C9.31623 1.453 10.7692 0 13.0769 0H23.6752C23.9316 0 24.188 0.0854727 24.359 0.256413L33.8461 9.65812C33.9316 9.91453 34.0171 10.1709 34.0171 10.4273ZM30.9402 9.57265L24.359 2.99145V7.69231C24.359 8.97436 24.9573 9.48718 26.1538 9.48718H30.9402V9.57265ZM15.7265 19.9145C16.4102 20.5983 17.6068 21.7949 17.6068 21.7949V15.9829C17.6068 15.5555 17.265 15.2137 16.8376 15.2137H2.30769C1.88034 15.2137 1.53846 15.5555 1.53846 15.9829V26.8376C1.53846 26.8376 4.61538 23.3333 5.55555 22.3932C6.15384 21.7094 6.49573 22.0513 6.83761 22.3077C7.35043 22.8205 11.453 27.0085 11.453 27.0085C11.5385 27.094 11.6239 27.094 11.7094 27.094C11.7949 27.094 11.8803 27.094 11.9658 27.0085C12.0513 26.8376 12.0513 26.6667 11.9658 26.4957L9.57265 24.0171C10.8547 22.906 14.2735 20 14.5299 19.8291C14.7863 19.6581 15.2991 19.4872 15.7265 19.9145ZM22.2222 16.7521H28.4615C28.8889 16.7521 29.2308 16.4102 29.2308 15.9829C29.2308 15.5555 28.8889 15.2137 28.4615 15.2137H22.2222C21.7949 15.2137 21.453 15.5555 21.453 15.9829C21.453 16.4102 21.7949 16.7521 22.2222 16.7521ZM22.2222 20.3419H28.4615C28.8889 20.3419 29.2308 20 29.2308 19.5727C29.2308 19.1453 28.8889 18.8034 28.4615 18.8034H22.2222C21.7949 18.8034 21.453 19.1453 21.453 19.5727C21.453 20 21.7949 20.3419 22.2222 20.3419Z" fill="#384250"/>
</svg>
