<svg width="40" height="30" viewBox="0 0 40 30" fill="none" xmlns="http://www.w3.org/2000/svg">
<rect x="40" y="30" width="40" height="30" rx="7" transform="rotate(-180 40 30)" fill="#384250"/>
<path d="M6.43637 20.8569C6.06569 20.8569 5.63324 20.8092 5.139 20.7138C5.21623 20.0141 5.27801 19.052 5.32434 17.8275C5.37068 16.5872 5.39384 15.4183 5.39384 14.3211C5.39384 11.2997 5.26256 9.24037 5 8.14312C5.80313 8.25443 7.04644 8.31009 8.72993 8.31009C10.537 8.31009 11.9734 8.25443 13.039 8.14312C13.039 8.57248 12.9927 9.03364 12.9 9.52661C12.8228 10.0196 12.707 10.3615 12.5525 10.5523C12.2127 10.3456 11.788 10.1865 11.2783 10.0752C10.7841 9.96392 10.2821 9.90826 9.77246 9.90826C8.96933 9.90826 8.22025 9.97187 7.52523 10.0991C7.46345 11.5939 7.42484 12.7865 7.4094 13.6771L7.94224 13.7009C8.43648 13.7327 8.80716 13.7486 9.05427 13.7486C9.7184 13.7486 10.2204 13.7327 10.5601 13.7009C10.9154 13.6532 11.3401 13.5817 11.8343 13.4862C11.8961 13.8043 11.927 14.0985 11.927 14.3688C11.927 14.6232 11.8961 14.9254 11.8343 15.2752L10.815 15.2275C9.85741 15.148 8.96933 15.1083 8.15075 15.1083C7.78007 15.1083 7.51751 15.1162 7.36306 15.1321C7.36306 18.1853 7.48662 20.0459 7.73374 20.7138C7.31673 20.8092 6.88427 20.8569 6.43637 20.8569Z" fill="#F2C94C"/>
<path d="M18.4298 20.9761C16.8853 20.9761 15.5416 20.6899 14.3987 20.1174C14.3987 19.7835 14.4296 19.4893 14.4913 19.2349C14.5531 18.9804 14.6535 18.718 14.7925 18.4477C15.1478 18.8294 15.6343 19.1315 16.2521 19.3541C16.8699 19.5609 17.5417 19.6642 18.2676 19.6642C19.1016 19.6642 19.7349 19.4972 20.1673 19.1633C20.6152 18.8294 20.8392 18.3523 20.8392 17.7321C20.8392 17.2073 20.623 16.77 20.1905 16.4202C19.758 16.0703 19.0862 15.6648 18.1749 15.2037C17.3718 14.7743 16.7308 14.4086 16.2521 14.1064C15.7887 13.7884 15.3871 13.3829 15.0474 12.8899C14.7076 12.381 14.5377 11.7847 14.5377 11.1009C14.5377 10.1786 14.9547 9.43119 15.7887 8.85872C16.6382 8.28624 17.7734 8 19.1943 8C20.4762 8 21.5651 8.19083 22.4609 8.57248C22.4609 8.92233 22.3991 9.31988 22.2756 9.76514C22.152 10.2104 22.0053 10.5602 21.8354 10.8147C21.1867 10.3376 20.5148 9.94006 19.8198 9.62202C19.1402 9.30398 18.5842 9.14495 18.1518 9.14495C17.8274 9.20856 17.5108 9.39939 17.2019 9.71743C16.893 10.0355 16.7386 10.4171 16.7386 10.8624C16.7386 11.4349 16.9625 11.904 17.4104 12.2697C17.8583 12.6355 18.5456 13.0569 19.4723 13.5339C20.2446 13.9315 20.8623 14.2813 21.3257 14.5835C21.789 14.8856 22.1829 15.2752 22.5072 15.7523C22.847 16.2294 23.0169 16.7939 23.0169 17.4459C23.0169 18.5749 22.6308 19.4495 21.8585 20.0697C21.1017 20.674 19.9588 20.9761 18.4298 20.9761Z" fill="#F2C94C"/>
<path d="M29.9495 21C29.1464 21 28.3355 20.9364 27.517 20.8092C26.7138 20.6979 26.0497 20.5468 25.5246 20.356C25.5864 19.6563 25.6327 18.6226 25.6636 17.255C25.7099 15.8875 25.7331 14.5596 25.7331 13.2716C25.7331 10.759 25.6018 9.22447 25.3392 8.66789C25.8953 8.47707 26.5826 8.32599 27.4011 8.21468C28.2352 8.08746 29.0537 8.02385 29.8569 8.02385C31.3241 8.02385 32.4516 8.31804 33.2393 8.90642C34.027 9.4789 34.4208 10.3058 34.4208 11.3872C34.4208 11.9755 34.2509 12.5083 33.9111 12.9853C33.5714 13.4624 33.0926 13.852 32.4748 14.1541C33.2625 14.4245 33.8802 14.8379 34.3281 15.3945C34.7761 15.9352 35 16.5633 35 17.2789C35 18.4716 34.5598 19.3939 33.6795 20.0459C32.8146 20.682 31.5712 21 29.9495 21ZM27.7255 13.9872C28.2969 13.8281 29.0074 13.7486 29.8569 13.7486C30.3048 13.7486 30.6291 13.7645 30.8299 13.7963C31.7566 13.1443 32.2199 12.4287 32.2199 11.6495C32.2199 10.2661 31.3473 9.57431 29.602 9.57431C28.9688 9.57431 28.3896 9.65382 27.8645 9.81284C27.8027 10.9896 27.7564 12.381 27.7255 13.9872ZM29.6947 19.9266C31.7489 19.9266 32.7759 19.044 32.7759 17.2789C32.7759 16.6905 32.6138 16.1737 32.2894 15.7284C31.9805 15.2832 31.5249 14.9413 30.9226 14.7028C30.2121 14.7028 29.1387 14.9254 27.7023 15.3706C27.7023 17.263 27.7486 18.6783 27.8413 19.6165C28.3973 19.8232 29.0151 19.9266 29.6947 19.9266Z" fill="#F2C94C"/>
</svg>
