<svg width="20" height="20" viewBox="0 0 20 20" fill="none" xmlns="http://www.w3.org/2000/svg">
<path d="M17.8182 0C16.6149 0 15.6364 0.978545 15.6364 2.18182C15.6364 2.55818 15.732 2.91236 15.9004 3.22182L12.3262 6.796C11.8335 6.41236 11.2167 6.18182 10.5455 6.18182C9.87418 6.18182 9.25745 6.41236 8.76436 6.79564L5.97564 4.00691C6.10364 3.79055 6.18182 3.54182 6.18182 3.27273C6.18182 2.47055 5.52945 1.81818 4.72727 1.81818C3.92509 1.81818 3.27273 2.47055 3.27273 3.27273C3.27273 4.07491 3.92509 4.72727 4.72727 4.72727C4.99636 4.72727 5.24509 4.64909 5.46145 4.52109L8.25018 7.30982C7.86691 7.80291 7.63636 8.41964 7.63636 9.09091C7.63636 9.76218 7.86691 10.3789 8.25018 10.8716L3.64509 15.4771C3.25745 15.1255 2.74509 14.9091 2.18182 14.9091C0.978545 14.9091 0 15.8876 0 17.0909C0 18.2942 0.978545 19.2727 2.18182 19.2727C3.38509 19.2727 4.36364 18.2942 4.36364 17.0909C4.36364 16.7145 4.268 16.3604 4.09964 16.0509L8.76473 11.3858C9.16691 11.6985 9.652 11.908 10.1822 11.9745V15.6691C9.152 15.8429 8.364 16.7389 8.364 17.8182C8.364 19.0215 9.34255 20 10.5458 20C11.7491 20 12.7276 19.0215 12.7276 17.8182C12.7276 16.7393 11.9396 15.8433 10.9095 15.6691V11.9745C11.4396 11.908 11.9247 11.6985 12.3269 11.3858L15.1156 14.1745C14.9873 14.3913 14.9091 14.64 14.9091 14.9091C14.9091 15.7113 15.5615 16.3636 16.3636 16.3636C17.1658 16.3636 17.8182 15.7113 17.8182 14.9091C17.8182 14.1069 17.1658 13.4545 16.3636 13.4545C16.0945 13.4545 15.8458 13.5327 15.6295 13.6607L12.8407 10.872C13.224 10.3789 13.4545 9.76218 13.4545 9.09091C13.4545 8.41964 13.224 7.80291 12.8407 7.31018L16.3553 3.79564C16.7425 4.14727 17.2549 4.36364 17.8182 4.36364C19.0215 4.36364 20 3.38509 20 2.18182C20 0.978545 19.0215 0 17.8182 0Z" fill="#9EA9B9"/>
</svg>
