<svg width="21" height="19" viewBox="0 0 21 19" fill="none" xmlns="http://www.w3.org/2000/svg">
<path fill-rule="evenodd" clip-rule="evenodd" d="M14.3672 5.10603C13.7603 3.28958 12.8729 1.56892 11.7342 0.000488281C14.465 0.239643 16.9731 1.53332 18.6733 3.57958L18.3149 3.79094C17.0936 4.4532 15.756 4.89883 14.3672 5.10603ZM10.8085 6.77286C11.6468 6.77278 12.4845 6.72724 13.3175 6.63652C13.4944 7.35335 13.6072 8.08316 13.6544 8.81808H7.96267C8.00993 8.08316 8.12262 7.35335 8.29958 6.63652C9.13249 6.72724 9.97015 6.77274 10.8085 6.77286ZM10.8086 13.5902C10.1023 13.5908 9.39649 13.6256 8.69391 13.6945C9.21075 15.1622 9.92135 16.5616 10.8086 17.8592C11.6959 16.5616 12.4064 15.1622 12.9233 13.6945C12.2207 13.6256 11.5149 13.5908 10.8086 13.5902ZM14.7405 12.5716C14.9244 11.7854 15.0387 10.9858 15.0824 10.1814H20.8086C20.7021 11.6306 20.2469 13.0371 19.4781 14.2923L19.0731 14.0524C17.7346 13.3144 16.2667 12.8127 14.7405 12.5716ZM19.4781 4.70808L19.0731 4.94807C17.7348 5.68723 16.267 6.19002 14.7405 6.43221C14.9241 7.21715 15.0385 8.01526 15.0824 8.81829H20.8086C20.702 7.36938 20.2468 5.96317 19.4781 4.70808ZM8.30092 12.363C8.12346 11.6462 8.01026 10.9164 7.96259 10.1814H13.6543C13.6076 10.9163 13.4953 11.6461 13.3188 12.363C11.6516 12.1819 9.96813 12.1819 8.30092 12.363ZM2.54406 4.94807L2.13903 4.70808C1.37038 5.96317 0.915197 7.36938 0.808594 8.81829H6.53478C6.57871 8.01526 6.69309 7.21711 6.87672 6.43221C5.35022 6.19002 3.88235 5.68723 2.54406 4.94807ZM3.30257 15.2095C4.52397 14.5477 5.86154 14.1024 7.25024 13.8951C7.85701 15.7114 8.74436 17.4318 9.88322 19C7.1525 18.7614 4.64418 17.4679 2.94416 15.4215L3.30257 15.2095ZM10.8086 1.14101C9.92148 2.43844 9.21092 3.83762 8.69391 5.30506C9.39644 5.37433 10.1023 5.40912 10.8086 5.40936C11.5149 5.40912 12.2207 5.37429 12.9233 5.30506C12.4063 3.83762 11.6958 2.43844 10.8086 1.14101ZM14.3671 13.895C15.7558 14.1023 17.0934 14.5477 18.3147 15.2094L18.671 15.4214C16.971 17.4678 14.4627 18.7613 11.732 18.9999C12.8716 17.4319 13.7597 15.7115 14.3671 13.895ZM2.94615 3.57967L3.30242 3.79102C4.52364 4.45328 5.86126 4.89888 7.25008 5.10611C7.85765 3.2895 8.74576 1.56888 9.8852 0.000573231C7.15448 0.239688 4.64633 1.53337 2.94615 3.57967ZM0.808594 10.1814H6.53478C6.57842 10.9858 6.69279 11.7853 6.87672 12.5716C5.35047 12.8128 3.88264 13.3144 2.5441 14.0524L2.13907 14.2923C1.37025 13.0371 0.915071 11.6306 0.808594 10.1814Z" fill="white"/>
</svg>
