<svg width="20" height="20" viewBox="0 0 20 20" fill="none" xmlns="http://www.w3.org/2000/svg">
<rect width="20" height="20" rx="3" fill="#6FCF97"/>
<path fill-rule="evenodd" clip-rule="evenodd" d="M7 9.5C7 10.3284 6.32843 11 5.5 11C4.67157 11 4 10.3284 4 9.5C4 8.67157 4.67157 8 5.5 8C6.32843 8 7 8.67157 7 9.5ZM11.3846 9.5C11.3846 10.3284 10.713 11 9.88461 11C9.05619 11 8.38461 10.3284 8.38461 9.5C8.38461 8.67157 9.05619 8 9.88461 8C10.713 8 11.3846 8.67157 11.3846 9.5ZM14.2692 11C15.0977 11 15.7692 10.3284 15.7692 9.5C15.7692 8.67157 15.0977 8 14.2692 8C13.4408 8 12.7692 8.67157 12.7692 9.5C12.7692 10.3284 13.4408 11 14.2692 11Z" fill="white"/>
</svg>
