<?xml version="1.0" encoding="UTF-8"?>
<svg width="50" height="35" viewBox="0 0 50 35" fill="none">
  <rect x="0.5" y="0.5" width="49" height="34" rx="17" stroke="#9EA9B9"></rect>
  <g clip-path="url(#clip0)">
    <path d="M31.75 21.875H30.0856C29.815 20.9744 28.9875 20.3125 28 20.3125C27.0125 20.3125 26.1856 20.9744 25.9144 21.875H18C17.655 21.875 17.375 22.155 17.375 22.5C17.375 22.845 17.655 23.125 18 23.125H25.9144C26.185 24.0256 27.0125 24.6875 28 24.6875C28.9875 24.6875 29.8144 24.0256 30.0856 23.125H31.75C32.0956 23.125 32.375 22.845 32.375 22.5C32.375 22.155 32.0956 21.875 31.75 21.875ZM28 23.4375C27.4831 23.4375 27.0625 23.0169 27.0625 22.5C27.0625 21.9831 27.4831 21.5625 28 21.5625C28.5169 21.5625 28.9375 21.9831 28.9375 22.5C28.9375 23.0169 28.5169 23.4375 28 23.4375Z" fill="#9EA9B9"></path>
    <path d="M31.75 11.875H30.0856C29.8144 10.9744 28.9875 10.3125 28 10.3125C27.0125 10.3125 26.1856 10.9744 25.9144 11.875H18C17.655 11.875 17.375 12.155 17.375 12.5C17.375 12.845 17.655 13.125 18 13.125H25.9144C26.1856 14.0256 27.0125 14.6875 28 14.6875C28.9875 14.6875 29.8144 14.0256 30.0856 13.125H31.75C32.0956 13.125 32.375 12.845 32.375 12.5C32.375 12.155 32.0956 11.875 31.75 11.875ZM28 13.4375C27.4831 13.4375 27.0625 13.0169 27.0625 12.5C27.0625 11.9831 27.4831 11.5625 28 11.5625C28.5169 11.5625 28.9375 11.9831 28.9375 12.5C28.9375 13.0169 28.5169 13.4375 28 13.4375Z" fill="#9EA9B9"></path>
    <path d="M31.75 16.8751H23.8356C23.5644 15.9744 22.7375 15.3126 21.75 15.3126C20.7625 15.3126 19.9356 15.9744 19.6644 16.8751H18C17.655 16.8751 17.375 17.155 17.375 17.5C17.375 17.845 17.655 18.125 18 18.125H19.6644C19.9356 19.0257 20.7625 19.6875 21.75 19.6875C22.7375 19.6875 23.5644 19.0257 23.8356 18.125H31.75C32.0956 18.125 32.375 17.845 32.375 17.5C32.375 17.155 32.0956 16.8751 31.75 16.8751ZM21.75 18.4375C21.2331 18.4375 20.8125 18.0169 20.8125 17.5C20.8125 16.9832 21.2331 16.5625 21.75 16.5625C22.2669 16.5625 22.6875 16.9832 22.6875 17.5C22.6875 18.0169 22.2669 18.4375 21.75 18.4375Z" fill="#9EA9B9"></path>
  </g>
</svg>
