<svg width="21" height="18" viewBox="0 0 21 18" fill="none" xmlns="http://www.w3.org/2000/svg">
<path d="M21 13.125C21 12.5039 20.4961 12 19.875 12H18.75V9.75C18.75 8.92969 18.0703 8.25 17.25 8.25H11.25V6H12.375C12.9961 6 13.5 5.49609 13.5 4.875V1.125C13.5 0.503906 12.9961 0 12.375 0H8.625C8.00391 0 7.5 0.503906 7.5 1.125V4.875C7.5 5.49609 8.00391 6 8.625 6H9.75V8.25H3.75C2.92969 8.25 2.25 8.92969 2.25 9.75V12H1.125C0.503906 12 0 12.5039 0 13.125V16.875C0 17.4961 0.503906 18 1.125 18H4.875C5.49609 18 6 17.4961 6 16.875V13.125C6 12.5039 5.49609 12 4.875 12H3.75V9.75H9.75V12H8.625C8.00391 12 7.5 12.5039 7.5 13.125V16.875C7.5 17.4961 8.00391 18 8.625 18H12.375C12.9961 18 13.5 17.4961 13.5 16.875V13.125C13.5 12.5039 12.9961 12 12.375 12H11.25V9.75H17.25V12H16.125C15.5039 12 15 12.5039 15 13.125V16.875C15 17.4961 15.5039 18 16.125 18H19.875C20.4961 18 21 17.4961 21 16.875V13.125Z" fill="#9EA9B9"/>
</svg>
