<?xml version="1.0" encoding="iso-8859-1"?>
<!-- Generator: Adobe Illustrator 19.0.0, SVG Export Plug-In . SVG Version: 6.00 Build 0)  -->
<svg version="1.1" id="Layer_1" xmlns="http://www.w3.org/2000/svg" xmlns:xlink="http://www.w3.org/1999/xlink" x="0px" y="0px"
	 viewBox="0 0 511.999 511.999" style="enable-background:new 0 0 511.999 511.999;" xml:space="preserve">
<g>
	<g>
		<path d="M506.626,222.942l-74.319-54.415c0.121-0.717,0.198-1.448,0.198-2.199V43.487c0-7.251-5.879-13.128-13.128-13.128h-72.205
			c-7.249,0-13.128,5.877-13.128,13.128v53.094l-70.29-51.465c-4.619-3.381-10.892-3.381-15.51,0L5.374,222.943
			c-5.85,4.284-7.121,12.498-2.837,18.348c4.284,5.85,12.499,7.121,18.348,2.837l35.608-26.071v250.455
			c0,7.251,5.879,13.128,13.128,13.128h133.124c0.45,0,0.894-0.024,1.333-0.067c0.438,0.045,0.882,0.067,1.333,0.067
			c7.249,0,13.128-5.877,13.128-13.128V358.63c0-20.656,16.805-37.463,37.463-37.463s37.463,16.805,37.463,37.463v109.881
			c0,7.251,5.879,13.128,13.128,13.128c0.45,0,0.894-0.024,1.333-0.067c0.438,0.045,0.882,0.067,1.333,0.067h133.124
			c7.249,0,13.128-5.877,13.128-13.128V255.998c0-7.251-5.879-13.128-13.128-13.128c-7.249,0-13.128,5.878-13.128,13.128v199.384
			H319.717v-96.753c0-35.135-28.584-63.719-63.719-63.719c-35.135,0-63.719,28.584-63.719,63.719v96.753H82.747V198.83
			L255.998,71.979l235.116,172.147c2.337,1.712,5.053,2.536,7.744,2.536c4.042,0,8.031-1.862,10.602-5.373
			C513.746,235.44,512.476,227.225,506.626,222.942z M406.249,149.447L360.3,115.805V56.614h45.949V149.447z"/>
	</g>
</g>
<g>
</g>
<g>
</g>
<g>
</g>
<g>
</g>
<g>
</g>
<g>
</g>
<g>
</g>
<g>
</g>
<g>
</g>
<g>
</g>
<g>
</g>
<g>
</g>
<g>
</g>
<g>
</g>
<g>
</g>
</svg>
