<svg height="512pt" viewBox="0 0 512 512" width="512pt" xmlns="http://www.w3.org/2000/svg"><path d="m110.199219 471.839844h348.386719c-8.25 23.265625-30.472657 39.976562-56.53125 39.976562h-291.855469c-33.066407 0-59.96875-26.902344-59.96875-59.96875v-209.894531l-23.285157 21.242187-26.945312-29.535156 256.128906-233.660156 209.339844 190.976562h-59.320312l-150.019532-136.859374-165.917968 151.363281v246.367187c0 11.023438 8.964843 19.992188 19.988281 19.992188zm401.800781-139.933594c0 55.113281-44.835938 99.953125-99.949219 99.953125-31.535156 0-61.191406-15.066406-79.933593-39.980469h-149.9375l-51.988282-49.390625v-20.007812l51.835938-50.542969h150.089844c18.742187-24.914062 48.398437-39.980469 79.933593-39.980469 55.113281 0 99.949219 44.835938 99.949219 99.949219zm-39.980469 0c0-33.066406-26.902343-59.96875-59.96875-59.96875-21.324219 0-41.226562 11.496094-51.933593 30.003906l-5.777344 9.976563h-156.046875l-20.84375 20.320312 20.691406 19.660157h28.652344l26.113281-27.488282 28.929688 27.488282h72.507812l5.773438 9.976562c10.710937 18.507812 30.609374 30.003906 51.933593 30.003906 33.066407 0 59.96875-26.902344 59.96875-59.972656zm-39.980469-19.988281c-11.039062 0-19.988281 8.949219-19.988281 19.988281 0 11.042969 8.949219 19.992188 19.988281 19.992188 11.042969 0 19.992188-8.949219 19.992188-19.992188 0-11.039062-8.949219-19.988281-19.992188-19.988281zm0 0"/></svg>