<svg width="25" height="30" viewBox="0 0 25 30" fill="none" xmlns="http://www.w3.org/2000/svg">
<path d="M25 21.905C23.9411 21.5805 22.9899 20.8233 22.1644 19.6334C21.3388 18.4435 20.9261 17.0913 20.9261 15.613C20.9261 14.2428 21.3209 12.9988 22.0926 11.881C22.5233 11.25 23.2053 10.5469 24.1385 9.75361C23.5284 8.99639 22.9002 8.38341 22.2721 7.95072C21.1594 7.17548 19.8851 6.77885 18.4494 6.77885C17.57 6.77885 16.5291 6.99519 15.3446 7.39183C14.1601 7.80649 13.2986 8.00481 12.7782 8.00481C12.3654 8.00481 11.5398 7.82452 10.3015 7.46394C9.04523 7.10337 8.00431 6.92308 7.12491 6.92308C5.06102 6.92308 3.37401 7.78846 2.028 9.51923C0.681981 11.268 0 13.5036 0 16.262C0 19.2187 0.897344 22.2296 2.63819 25.3305C4.41493 28.4315 6.19167 30 8.0402 30C8.63245 30 9.42211 29.8017 10.4092 29.387C11.3783 28.9904 12.2398 28.7921 12.9576 28.7921C13.6935 28.7921 14.6088 28.9724 15.6676 29.369C16.7444 29.7476 17.57 29.9459 18.1802 29.9459C19.7057 29.9459 21.2491 28.774 22.7925 26.4123C23.8335 24.8438 24.5513 23.3293 25 21.905ZM18.252 0.757213C18.252 0.631011 18.234 0.522838 18.234 0.396636C18.2161 0.288462 18.1802 0.16226 18.1443 0C16.0625 0.486779 14.5549 1.37019 13.6576 2.66827C12.7602 3.96635 12.2936 5.51683 12.2577 7.30168C13.1012 7.22957 13.7114 7.1214 14.1242 6.99519C14.7703 6.77885 15.4164 6.34615 16.0625 5.69712C16.8162 4.9399 17.3726 4.11058 17.7315 3.20913C18.0725 2.32572 18.252 1.49639 18.252 0.757213Z" fill="#384250"/>
</svg>
