<svg width="27" height="30" viewBox="0 0 27 30" fill="none" xmlns="http://www.w3.org/2000/svg">
<path fill-rule="evenodd" clip-rule="evenodd" d="M0.531061 0.459053C0.193829 0.821498 0 1.37935 0 2.10424V27.8883C0 28.6132 0.193829 29.171 0.543668 29.5209L0.635067 29.5981L15.0825 15.1507V14.8261L0.62246 0.381836L0.531061 0.459053Z" fill="#1FC6FF"/>
<path fill-rule="evenodd" clip-rule="evenodd" d="M19.961 19.9812L15.1421 15.1607V14.8235L19.9626 10.0029L20.0666 10.0675L25.768 13.3075C27.4006 14.2278 27.4006 15.7437 25.768 16.6767L20.0666 19.9166C20.065 19.9166 19.961 19.9812 19.961 19.9812Z" fill="#FFBD00"/>
<path fill-rule="evenodd" clip-rule="evenodd" d="M19.993 19.9226L15.07 14.998L0.53125 29.5368C1.06231 30.1073 1.95582 30.1719 2.95491 29.614L19.993 19.9226Z" fill="#FF3A44"/>
<path fill-rule="evenodd" clip-rule="evenodd" d="M19.993 10.0744L2.95491 0.395583C1.95739 -0.174874 1.06231 -0.0976577 0.53125 0.4728L15.0685 14.9974L19.993 10.0744Z" fill="#15CF74"/>
<path opacity="0.2" fill-rule="evenodd" clip-rule="evenodd" d="M19.8886 19.8174L2.96711 29.4316C2.0216 29.9753 1.17852 29.9375 0.634856 29.4442L0.543457 29.5356L0.634856 29.6129C1.17852 30.1045 2.0216 30.1439 2.96711 29.6003L20.0052 19.9214L19.8886 19.8174Z" fill="black"/>
<path opacity="0.12" fill-rule="evenodd" clip-rule="evenodd" d="M25.694 16.514L19.876 19.8186L19.98 19.9226L25.6814 16.6826C26.4977 16.2162 26.8995 15.6079 26.8995 14.998C26.8475 15.5559 26.4331 16.087 25.694 16.514Z" fill="black"/>
<path opacity="0.25" fill-rule="evenodd" clip-rule="evenodd" d="M2.95472 0.564023L25.6942 13.4828C26.4333 13.8973 26.8477 14.441 26.9124 14.9988C26.9124 14.3905 26.5105 13.7807 25.6942 13.3142L2.95472 0.395408C1.32214 -0.537495 0 0.239399 0 2.1052V2.27382C0 0.408014 1.32214 -0.356273 2.95472 0.564023Z" fill="white"/>
</svg>
