<svg width="30" height="30" viewBox="0 0 30 30" fill="none" xmlns="http://www.w3.org/2000/svg">
<path fill-rule="evenodd" clip-rule="evenodd" d="M29 15C29 22.732 22.732 29 15 29C7.26801 29 1 22.732 1 15C1 7.26801 7.26801 1 15 1C22.732 1 29 7.26801 29 15ZM30 15C30 23.2843 23.2843 30 15 30C6.71573 30 0 23.2843 0 15C0 6.71573 6.71573 0 15 0C23.2843 0 30 6.71573 30 15ZM11.7894 8H18.2101C20.2997 8 21.9997 9.70001 21.9997 11.7897V18.2104C21.9997 20.3 20.2997 22 18.2102 22H11.7894C9.69977 22 7.99976 20.3 7.99976 18.2104V11.7897C7.99976 9.70001 9.69977 8 11.7894 8ZM11.1717 15C11.1717 17.1108 12.8889 18.828 14.9997 18.828C17.1105 18.828 18.8278 17.1108 18.8278 15C18.8278 12.8892 17.1105 11.172 14.9997 11.172C12.8889 11.172 11.1717 12.8892 11.1717 15ZM17.7882 10.9436C17.7882 11.5674 18.2955 12.0747 18.9193 12.0747C19.5431 12.0747 20.0505 11.5674 20.0505 10.9436C20.0505 10.3198 19.5431 9.81237 18.9193 9.81237C18.2955 9.81237 17.7882 10.3198 17.7882 10.9436ZM14.9998 11.9999C13.3457 11.9999 11.9998 13.3457 11.9998 14.9999C11.9998 16.6541 13.3457 17.9999 14.9998 17.9999C16.654 17.9999 17.9998 16.6541 17.9998 14.9999C17.9998 13.3457 16.654 11.9999 14.9998 11.9999ZM18.6089 10.9436C18.6089 10.7725 18.7481 10.6332 18.9193 10.6332C19.0905 10.6332 19.2298 10.7724 19.2298 10.9436C19.2298 11.1148 19.0905 11.254 18.9193 11.254C18.7481 11.254 18.6089 11.1147 18.6089 10.9436Z" fill="#384250"/>
</svg>
