<svg width="45" height="131" viewBox="0 0 45 131" fill="none" xmlns="http://www.w3.org/2000/svg">
<path d="M26.5187 96.1072C25.9059 89.0955 23.9856 82.3125 23.2094 75.3008C23.1276 74.5006 22.9642 73.7003 22.8008 72.9001C22.0654 72.9763 22.1471 73.4336 22.1062 73.7384C21.4117 79.7212 20.3085 85.6278 19.0828 91.5344C18.5926 93.9351 19.2463 96.4883 18.0206 98.8128C17.4486 99.9179 17.898 101.137 17.7754 102.281C17.7346 102.509 17.7754 102.623 17.7754 102.433C17.7346 102.166 17.6937 101.823 18.0614 101.633C19.6548 107.196 20.3085 112.76 18.9603 118.514C18.1431 122.02 18.9603 125.564 19.7774 129.032C20.1451 130.594 19.8183 131.127 18.0206 130.975C16.2229 130.823 14.3435 131.051 12.5458 130.937C10.8298 130.861 10.4212 130.175 11.4018 128.879C13.5672 126.021 13.7715 122.973 12.9544 119.619C11.8104 114.97 10.0535 110.512 9.2364 105.786C8.74612 102.966 9.03212 100.108 9.03212 97.2504C9.44069 96.5645 9.03212 95.9167 8.90955 95.2689C8.95041 94.0494 9.56325 92.83 8.99126 91.5725C8.86869 91.0009 8.82784 90.4293 8.62355 89.8958C8.50098 89.5147 8.46012 89.1336 8.46012 88.7145C8.46012 88.0285 8.33755 87.3045 8.13327 86.6186C8.13327 84.9038 7.643 83.2271 7.60214 81.5123C7.60214 80.8644 7.60214 80.1785 7.76556 79.5307C8.17413 76.5583 8.13328 73.586 7.80642 70.6137C7.643 70.0802 7.64299 69.5086 7.64299 68.9751C7.64299 68.4416 7.68385 67.9081 7.80642 67.3746C8.41927 62.6493 9.76754 58.0384 10.5438 53.3512C10.5847 53.0845 10.5847 52.8558 10.7072 52.5891C12.5049 48.3592 12.0555 44.1294 10.9524 39.8614C10.8707 39.5184 11.075 39.1374 11.075 39.1374C8.5827 46.6444 9.19554 54.9517 5.60016 62.4588C5.51845 62.7636 5.43674 63.0685 5.31417 63.3352C4.17018 65.6598 3.59819 67.7938 5.31417 70.3088C6.58072 72.1379 6.21301 74.6149 6.1313 76.8251C6.09044 77.854 5.68187 78.8448 6.29472 79.8737C6.53986 80.2928 6.4173 80.8263 5.8453 80.9788C5.31417 81.1312 4.57875 81.3979 4.57875 80.4072C3.84333 78.7686 2.08649 77.9683 0.983365 76.6346C0.370516 75.9105 -0.0380474 75.2246 0.00280915 74.2338C0.125379 64.0212 0.0028091 53.8466 2.24992 43.7483C3.18962 39.4422 4.00675 35.0599 3.84333 30.5633C3.6799 26.7526 6.1313 24.6948 10.0944 24.0851C12.7909 23.6659 15.0789 22.1417 17.5303 21.1509C18.756 20.6555 19.0828 19.0931 18.6334 17.9499C18.1431 16.6162 17.2034 15.3967 16.3863 14.2154C15.3649 12.7293 14.5886 11.1669 15.5692 9.45206C15.9777 8.68992 15.61 8.08021 15.4466 7.43239C14.5478 3.6217 16.754 0.573148 20.9214 0.115865C22.8008 -0.112777 24.6802 -0.0365629 26.5596 0.649362C28.439 1.33529 29.011 2.85956 29.8281 4.26952C29.7056 5.03166 29.9098 5.7938 29.869 6.55593C29.7056 7.85157 29.4196 9.07099 30.0324 10.4047C30.4818 11.3955 29.9915 12.653 29.3378 13.4533C28.439 14.5203 28.0304 15.7778 27.295 16.8829C25.9468 18.9407 26.5187 20.9222 28.9293 21.6844C31.585 22.5227 33.9546 24.047 36.8963 24.4281C39.3886 24.771 41.1045 27.248 41.268 29.7249C40.7777 31.2111 41.3088 32.7354 41.0228 34.2216C41.268 32.964 40.7777 31.6303 41.3497 30.4109C41.4314 30.6395 41.554 30.9063 41.554 31.1349C41.3905 37.956 43.3517 44.5104 44.3731 51.1791C44.9042 54.5707 45.1085 57.9622 44.9451 61.3918C44.4139 63.7544 45.0676 66.1171 44.9859 68.4797C44.9042 70.9185 45.0676 73.3574 44.9042 75.8343C43.3517 77.9683 41.1045 79.4545 39.0209 81.779C38.8983 79.9499 40.0423 79.1877 40.5326 78.1969C40.6551 77.9302 40.7777 77.6635 41.0637 77.4729C40.8186 77.4729 40.696 77.7016 40.4917 77.7397C38.98 77.8159 39.1843 76.7108 39.3886 76.0249C40.1648 73.586 39.4703 70.8042 41.5948 68.6702C42.2077 68.0224 41.9625 66.8792 41.5948 66.1171C37.3457 57.4668 37.264 47.9401 34.7309 38.9087C34.2406 38.6039 34.1589 39.023 34.0364 39.2898C32.6472 43.4815 32.5247 47.5971 33.6686 51.9794C35.0986 57.4287 36.6103 62.9161 36.8146 68.594C36.406 69.0132 36.6103 69.5086 36.6103 69.7753C36.6103 69.6991 36.5286 69.4324 36.8555 69.2418C37.7135 74.6911 37.3049 80.1023 36.5695 85.5135C35.9566 89.972 35.4255 94.3543 36.1609 98.9271C36.8555 103.195 35.9566 107.501 34.5266 111.655C33.5869 114.437 32.9741 117.295 32.1978 120.115C31.3398 123.239 31.7892 126.135 33.7912 128.803C34.8126 130.175 34.5266 130.785 32.7698 130.899C30.6044 131.013 28.439 131.013 26.2736 130.975C25.2113 130.975 25.1296 130.213 25.3339 129.451C26.9273 123.963 26.4779 118.438 25.4565 112.912C25.0888 111.045 25.3339 109.102 25.865 107.234C26.9273 103.652 27.4584 100.032 26.6005 96.374C27.0499 95.1545 26.5596 93.8589 26.8456 92.6395C26.6005 93.8208 26.9682 95.0021 26.5187 96.1072Z" fill="#F5E663"/>
</svg>
