<svg width="56" height="131" viewBox="0 0 56 131" fill="none" xmlns="http://www.w3.org/2000/svg">
<path d="M5.47768 68.8682C7.5235 71.1891 6.89722 74.0807 6.43796 76.4776C6.1457 77.9615 6.43797 78.7224 7.10599 79.7497C7.3565 80.1682 7.56525 80.5867 7.02249 80.9292C6.43797 81.2716 5.89518 80.9672 5.51942 80.6248C2.72208 78.1137 -0.409276 75.7547 0.384001 71.5695C0.467504 71.5315 0.551012 71.5315 0.676266 71.4934C1.17728 72.4066 1.17729 72.4066 1.05204 73.5099C1.01029 73.7763 1.38604 73.4719 1.09378 73.5099C1.05203 73.5099 1.01029 73.4339 1.05204 73.3578C1.80356 72.0642 0.50926 70.8466 0.885023 69.553C0.926775 69.4008 1.01027 69.2106 1.13552 69.0584C3.05609 67.4604 1.21904 66.5854 0.34226 65.52C0.258757 65.3298 0.217011 65.1776 0.217011 64.9874C0.509271 63.2752 -0.0752493 61.6012 0.00825356 59.889C0.0917564 58.253 -0.117016 56.655 0.801515 55.0951C1.51129 53.9156 0.467499 52.6601 0.50925 51.4045C2.59682 45.3169 2.93085 38.887 5.35243 32.8374C7.94102 26.2933 12.5337 22.0701 20.0907 20.5862C20.7587 20.4721 21.4267 20.2438 22.0112 19.9394C22.9715 19.4068 23.4308 18.5697 22.554 17.7327C21.1762 16.4391 21.1345 14.4987 19.7149 13.2051C19.3809 12.9007 19.3809 12.2539 19.2139 11.7973C19.4227 11.1505 19.4644 10.5418 19.2139 9.933C19.2974 9.24815 19.2139 8.5633 19.0469 7.87845C18.1701 4.45419 19.5062 2.32355 23.0968 1.14408C24.1823 0.801658 24.9338 -0.301712 26.3116 0.0787602C27.5642 0.383138 28.775 0.307044 30.0275 0.116807C34.1609 0.725563 37.668 3.27473 36.3737 8.4872C36.0397 9.81886 37 11.1886 36.165 12.5583C35.1629 14.1562 34.4114 15.9445 33.2841 17.4664C32.3238 18.798 32.6996 19.597 34.0774 20.1677C34.9959 20.5482 36.0397 20.7384 37.0417 21.0047C42.8034 22.4505 47.0203 25.5324 49.2749 30.6687C51.1537 34.892 52.6985 39.2294 53.2413 43.795C53.6171 46.8769 54.9114 49.8065 55.6211 52.8122C55.7881 53.4971 56.0387 54.1439 55.9552 54.8668C55.9134 57.0355 55.7464 59.1661 55.9552 61.3348C55.9969 62.7806 56.1221 64.2264 55.6211 65.6342C55.2454 65.2156 55.2454 64.7971 55.3706 64.6449C55.3706 65.4059 55.1619 66.4332 55.5376 67.4224C56.0387 70.0857 55.1201 72.6729 55.0366 75.2982C54.9949 76.6679 53.6588 77.3908 52.6568 78.2659C51.8218 79.0268 51.112 79.8638 50.2769 80.5867C49.8594 80.9672 49.2332 81.3857 48.6487 80.8911C48.1476 80.5106 48.4816 79.978 48.7739 79.5214C49.2332 78.8746 49.6924 78.2659 50.1517 77.6571C50.2352 76.9722 50.778 76.4396 50.9032 75.7547C51.112 74.9557 50.5692 74.1568 50.8197 73.3578C50.8197 73.0914 50.4022 73.3578 50.6945 73.3197C50.8615 74.7655 51.5295 76.3635 49.2749 77.0103C49.4002 74.4231 48.1476 71.7217 50.1517 69.2487C50.9867 68.2594 50.5275 67.0419 50.3605 65.9385C49.4837 60.5358 46.7698 55.5897 45.4338 50.2631C44.8493 48.0183 43.1792 46.3062 42.1772 44.0233C41.4257 45.355 41.7179 46.3062 42.2607 47.3334C44.39 51.3665 45.392 55.6658 45.559 60.1554C45.225 61.5251 45.3085 62.9328 45.559 64.3406C45.2668 66.6995 46.2688 68.9062 46.3941 71.2271C46.2688 73.3578 46.2688 75.5265 46.3941 77.6571C46.3106 81.1194 45.0998 84.3534 43.8472 87.5494C43.054 89.4898 42.6782 91.3541 43.0957 93.4467C44.2647 99.4582 43.4297 105.279 40.9664 110.91C39.6721 113.916 38.8371 117.036 37.7098 120.08C37.668 120.042 37.5428 120.004 37.5428 119.966C37.501 119.813 37.334 119.737 37.2505 119.851C36.5407 121.031 37.2088 122.325 36.8747 123.542C36.7077 124.075 37.6263 124.874 36.4155 125.178C36.0397 125.292 36.4155 125.368 36.4572 125.444C37.2923 126.243 38.7953 128.831 39.0876 130.01C38.336 130.543 39.5886 130.314 39.3798 130.619C36.833 131.38 34.1609 130.733 31.5723 130.923C30.779 130.999 30.445 130.429 30.6538 129.782C32.5326 123.846 31.113 118.063 29.6935 112.318C29.6517 112.09 29.6935 111.824 29.6935 111.557C30.0693 111.063 29.777 110.454 29.944 109.769C29.7352 110.264 29.9858 110.682 29.61 110.91C28.775 107.106 28.7332 103.187 29.4847 99.4201C30.3198 95.1969 29.61 91.1258 29.109 87.0167C28.775 84.2773 28.4409 81.576 27.8564 78.8366C27.2719 86.0655 24.7668 93.1804 26.3534 100.562C26.3534 103.491 26.3534 106.383 26.3534 109.312C26.4786 112.584 25.1009 115.666 24.6416 118.824C24.0988 122.248 23.9318 125.635 24.9756 128.983C25.3931 130.429 25.1008 131.113 23.222 130.961C21.3432 130.809 19.4644 130.999 17.5856 130.923C15.832 130.847 15.3728 130.162 16.333 128.907C18.6711 125.939 18.7546 122.781 17.7943 119.319C16.7506 115.514 14.9552 111.9 13.8697 108.133C13.9532 106.535 13.0347 105.127 13.16 103.758C13.327 103.91 13.2852 104.214 12.9094 104.518C11.6569 100.714 12.1579 96.871 12.7842 93.0282C13.0347 91.3922 12.9094 89.9083 12.2832 88.3864C10.3208 83.5925 8.52554 78.6844 9.31881 73.586C10.4461 66.319 9.2353 58.8618 11.7821 51.785C12.3249 50.3011 12.8677 48.7792 13.6609 47.3715C14.2872 46.2681 14.4125 45.2408 13.7027 44.0614C9.65283 50.7957 7.774 58.1389 5.60293 65.3678C5.47767 65.7864 5.56117 66.2429 5.51942 66.6995C5.76993 67.3463 5.64468 68.1072 5.47768 68.8682Z" fill="#FE703D"/>
</svg>
