<svg width="43" height="134" viewBox="0 0 43 134" fill="none" xmlns="http://www.w3.org/2000/svg">
<path d="M37.5629 79.4044C37.9505 76.3643 37.5242 73.1683 39.4619 70.44C39.927 69.7775 39.7719 68.959 39.6557 68.1795C39.0356 63.7362 36.9429 59.6438 36.3615 55.2006C35.7027 50.1337 34.5788 45.1449 33.5325 40.156C33.3775 39.3765 33.4162 38.0903 32.5636 38.0513C31.6335 37.9734 31.6723 39.2985 31.401 40.0391C29.3857 46.0023 29.812 52.0825 31.1685 58.0458C33.61 68.92 33.1837 79.7942 31.8273 90.7073C31.556 93.0069 31.556 95.3454 32.021 97.684C33.1449 103.141 32.2148 108.519 31.0522 113.859C30.3159 117.289 29.6958 120.719 29.3857 124.187C29.1145 127.383 30.1996 130.073 32.2923 132.333C33.1837 133.269 32.7961 133.775 31.8273 133.853C30.0446 133.97 28.2619 133.931 26.4792 133.814C25.7816 133.775 25.4715 133.035 25.3165 132.372C24.929 130.852 24.3477 129.254 24.8515 127.773C26.0529 124.109 25.2778 120.407 25.0065 116.782C24.774 113.781 24.7352 110.819 25.1615 107.857C26.0141 101.854 25.239 96.047 23.9601 90.2007C22.875 85.3287 22.7587 80.3009 22.0224 75.3899C21.9449 74.9222 22.2162 74.1427 21.4411 74.1817C20.7823 74.2207 20.8598 74.9222 20.821 75.4289C20.0847 81.5091 19.4259 87.6283 18.302 93.6695C17.3719 98.7363 16.9068 103.998 17.9144 109.299C18.767 113.703 17.7207 118.224 17.5656 122.667C17.5269 123.993 17.6044 125.24 17.9144 126.487C18.147 127.383 18.2245 128.319 18.0307 129.176C17.6819 130.657 17.9919 132.801 16.5968 133.425C14.9303 134.165 12.8376 134.048 10.9386 133.853C10.241 133.775 9.73724 133.269 10.3573 132.684C15.2404 127.929 13.4577 122.278 12.5276 116.782C11.7137 112.066 10.4736 107.428 10.4736 102.595C10.4736 101.504 10.5511 100.373 10.7836 99.321C12.3725 92.5782 10.3186 85.9133 10.2023 79.2095C10.086 73.0124 10.086 66.8932 11.3649 60.852C12.14 57.0324 12.7988 53.2128 13.0314 49.3153C13.2639 45.7295 12.3338 42.2607 11.2874 38.8308C11.1712 38.4021 11.0161 37.8175 10.4736 37.8954C9.77599 37.9734 9.77599 38.7139 9.65973 39.2595C8.4971 44.7161 7.48948 50.1727 6.48186 55.6293C5.82304 59.293 4.5829 62.8788 3.65279 66.5035C3.18773 68.2964 3.26524 70.0113 4.27286 71.7262C5.47425 73.7919 4.93168 76.2864 5.39674 78.547C5.47425 78.8588 5.35798 79.2485 4.93168 79.2485C4.5829 79.2485 4.38912 78.9367 4.31161 78.6249C4.04033 77.6505 3.84656 76.6761 3.42026 75.7797C2.68393 78.7029 5.35798 80.3009 6.17183 82.6004C5.513 83.1071 5.24172 82.5614 4.97044 82.2886C3.69154 81.0024 2.4514 79.6772 1.1725 78.3911C0.242396 77.4946 -0.145148 76.4812 0.048624 75.234C0.70745 71.3754 0.474923 67.4779 0.629941 63.5803C0.823713 58.2017 1.52129 52.979 3.03272 47.8732C4.23411 43.8197 4.38912 39.7273 4.31161 35.5569C4.2341 30.607 6.63688 26.6315 10.9774 25.2283C13.1864 24.5268 15.0078 23.3185 16.9843 22.2662C18.8058 21.2918 18.9996 19.2651 17.9144 17.5501C16.8681 15.8742 15.2791 14.2762 15.1629 12.3274C15.0078 9.63809 14.8916 6.9098 14.8141 4.22048C14.7753 2.54453 17.5656 0.322924 19.7359 0.0890703C21.2473 -0.0668321 22.7975 -0.0278565 24.3477 0.283948C27.3318 0.946534 28.7269 4.37639 28.1068 6.7539C27.7968 8.00112 27.4093 9.20936 28.1456 10.4956C28.4556 11.0022 28.3006 11.7818 28.0293 12.4054C27.2155 14.2762 26.2466 16.108 25.0452 17.745C24.0764 19.1092 24.1151 21.1749 25.5878 21.9934C27.603 23.0847 29.3857 24.5657 31.711 25.1894C35.7802 26.2807 38.8418 30.0223 38.6093 34.3096C38.2605 41.2083 40.0045 47.6783 41.5546 54.2262C42.3297 57.4222 42.1747 60.6572 42.4848 63.8921C42.8335 67.7507 42.7948 71.6483 42.9886 75.5458C43.0661 76.7541 42.756 77.6895 41.8647 78.508C40.2757 79.9501 38.7256 81.5091 37.0204 83.1071C36.9816 81.8209 37.873 81.1193 38.2993 80.2619C38.8806 79.0147 39.5394 77.7674 39.6169 76.4033C39.5007 77.1828 39.3456 78.0403 38.9968 78.7808C38.7256 79.2875 38.4543 80.067 37.5629 79.4044Z" fill="#A3CEF8"/>
</svg>
