<svg width="46" height="131" viewBox="0 0 46 131" fill="none" xmlns="http://www.w3.org/2000/svg">
<path d="M0.653019 67.1548C-0.478593 60.1381 -0.0259416 53.1976 1.14339 46.1809C2.16184 40.0793 4.08558 34.2829 5.82072 28.3721C6.46197 26.1221 8.08395 24.9018 10.0454 24.101C12.4218 23.1476 14.8736 22.3468 17.3254 21.5079C19.1737 20.8596 19.3623 19.4486 18.6457 17.6181C17.5518 14.7962 14.9491 12.3174 16.1561 8.80907C16.2315 8.65653 16.1561 8.42772 16.1184 8.23705C15.0999 4.46174 16.1938 1.75419 19.9281 0.34321C21.6633 -0.0381345 23.4361 0.266941 25.1713 0C28.1135 0.495748 29.5468 2.3262 29.6977 5.26256C29.7732 6.02525 29.396 6.78794 29.6977 7.51249C29.5846 9.30482 30.5653 11.2115 29.3582 12.8895C28.3021 14.3767 28.1135 16.2834 27.0573 17.7707C26.152 19.0291 26.7555 20.7833 28.2266 21.3172C30.2258 22.0799 32.225 22.8426 34.2619 23.4527C37.5059 24.4061 39.4296 26.3509 40.5612 29.7449C43.0885 37.2955 44.6727 45.0368 45.6912 52.8544C46.3324 57.5831 45.8798 62.3499 45.2008 67.0404C45.0122 66.9642 45.0877 66.6591 44.8613 66.6209C45.2008 67.9938 44.635 69.4429 45.1631 70.7776C46.2193 75.4682 42.8244 77.8706 40.1463 80.6544C39.92 80.8832 39.6182 81.1121 39.3164 80.8833C38.9392 80.6163 39.0901 80.1587 39.2787 79.8536C40.0709 78.7096 39.92 77.68 39.7691 76.3071C39.5805 74.4385 39.6182 71.9979 40.6366 70.2437C42.1077 67.6887 41.8814 65.21 41.0893 62.7312C39.6936 58.2314 38.6752 53.6934 37.4681 49.1554C36.94 47.0961 35.1672 45.5707 34.3751 43.3589C33.7338 44.6174 34.0733 45.5326 34.5637 46.4859C36.412 50.0324 37.8831 53.884 37.4304 57.7738C36.8269 62.8838 37.7322 67.8031 37.8076 72.7987C37.9208 78.2138 37.7699 83.5527 35.8462 88.739C35.054 90.8363 35.0918 93.0481 35.5067 95.2981C36.5629 101.133 35.5067 106.777 33.8093 112.344C33.0171 115.014 32.3382 117.721 31.6215 120.391C30.7916 123.327 31.3574 126.034 32.9794 128.551C34.1487 130.382 33.9224 130.878 31.8101 130.954C30.0372 130.992 28.3021 130.954 26.5292 130.992C25.4353 130.992 25.0581 130.572 25.3599 129.467C26.9064 123.899 26.0766 118.293 25.3222 112.726C25.0958 111.124 25.1336 109.522 25.5108 107.997C26.2652 104.984 26.3029 101.972 26.2652 98.9209C26.0011 95.1837 25.7371 91.4465 26.5292 87.7475C26.5292 88.6245 26.831 89.5398 26.0389 90.2643C25.0581 89.616 25.9257 88.2432 24.9827 87.6331C23.9265 84.4298 23.587 81.1121 22.8326 77.7944C20.7957 87.7856 18.0798 97.7387 20.079 108.111C20.0036 110.132 20.0413 112.154 20.079 114.175C19.9659 115.052 19.8904 115.929 19.7773 116.806C19.0983 120.963 19.2492 125.119 20.2299 129.2C20.5694 130.611 20.1545 131.068 18.7588 130.992C17.0237 130.916 15.2508 130.992 13.478 130.954C11.856 130.878 11.4411 130.229 12.3463 128.971C14.4964 125.92 14.6473 122.717 13.6666 119.208C12.4218 114.823 11.0639 110.476 10.1586 106.014C9.96996 105.061 9.89452 104.145 9.93224 103.192C10.0077 101.018 9.93224 98.8827 9.96996 96.7091C11.2147 91.9423 8.98923 87.6331 8.31027 83.1332C7.36726 76.8791 7.4427 70.6251 8.64975 64.4091C8.76291 63.9134 8.91379 63.4177 8.76291 62.9219C6.95233 57.2017 8.68747 51.9392 10.9507 46.7529C11.4033 45.6851 11.9691 44.7318 11.4411 43.7021C7.66902 47.8588 7.32953 53.4264 5.82072 58.4983C5.06631 61.0533 4.04786 63.5321 3.9347 66.2396C3.89698 67.4218 4.23646 68.4133 4.65138 69.5192C5.59439 72.1123 6.46196 74.8199 5.36807 77.6418C5.02859 78.4808 5.93388 78.7859 6.12248 79.396C6.31108 79.8918 6.91461 80.4638 6.3488 80.9214C5.85844 81.3027 5.48124 80.6544 5.14176 80.3112C4.61367 79.7774 4.1233 79.1672 3.55749 78.7096C1.10567 76.6503 0.0117764 74.0572 0.539862 70.8539C1.03023 69.6336 0.615305 68.3751 0.766187 67.1167C0.766187 67.0023 0.766187 66.8498 0.766187 66.7354C0.803907 66.8879 0.8039 67.0786 0.653019 67.1548Z" fill="#FAAF3B"/>
</svg>
