<svg width="63" height="130" viewBox="0 0 63 130" fill="none" xmlns="http://www.w3.org/2000/svg">
<path d="M53.2806 56.9091C53.2806 58.2298 53.3235 59.5505 53.3235 60.8335C53.3235 62.7201 52.9803 64.4559 52.2083 66.3049C51.1361 68.7576 51.7794 71.5121 51.6079 74.1158C51.1361 75.8893 51.6078 77.625 51.6507 79.3985C51.6507 81.5116 50.8358 83.4738 49.7207 85.2473C47.9193 88.1905 47.9193 91.2092 48.3911 94.3411C48.5626 95.3977 48.5626 96.4542 48.6484 97.5108C48.6055 99.2843 48.6055 101.02 48.6484 102.794C48.048 106.227 46.5039 109.397 45.0885 112.604C44.0592 114.868 42.9011 117.095 42.2149 119.472C41.3571 122.34 41.6573 125.057 43.8447 127.471C44.3165 128 44.9599 128.528 44.531 129.32C44.1021 130.113 43.2014 129.962 42.4722 129.962C40.2848 129.962 38.0545 129.924 35.8671 129.962C34.7091 129.962 34.2802 129.434 34.5375 128.528C36.2531 123.132 35.0951 117.849 33.7655 112.567C32.779 108.642 32.5646 104.605 33.1221 100.605C33.7655 96.0392 32.779 91.6243 31.7497 86.9453C30.2056 91.813 29.9054 96.5297 30.2056 101.322C30.1198 103.699 30.1627 106.076 30.2056 108.454C30.2914 111.623 29.0047 114.604 28.4471 117.736C27.8466 121.208 27.7609 124.604 28.7473 128C29.2191 129.585 28.6615 130.037 26.903 129.962C24.8443 129.849 22.7856 129.962 20.6839 130C19.9548 130 19.1828 130.037 18.8397 129.32C18.5394 128.717 18.8826 128.226 19.3115 127.773C22.1422 124.868 22.1422 121.585 20.7268 118.189C19.483 115.17 18.1963 112.189 16.7381 109.246C14.2933 104.303 13.9073 99.1711 14.9795 93.9261C15.58 90.9451 15.2798 88.1151 13.65 85.3227C11.5912 81.889 11.0765 78.191 11.5483 74.3422C11.8914 71.7008 12.063 68.9085 11.0765 66.4935C10.1329 64.154 10.0472 61.8523 9.96137 59.475C9.91848 57.9657 10.2616 56.4941 10.5618 54.9847C10.6905 54.7206 10.5619 54.4187 10.6476 54.1546C10.3474 54.1546 10.3474 54.4564 10.1329 54.5319C9.18936 56.6827 8.24577 58.8713 7.34507 61.0221C6.7875 62.3805 6.87329 63.5503 7.7311 64.9087C9.06069 67.0218 8.03132 69.4368 8.20288 71.7008C8.24577 72.1913 7.55953 72.2668 7.00196 72.2291C6.44438 71.5876 6.18705 70.8329 6.01548 70.0405C5.9297 69.7764 5.84392 69.4745 5.9297 69.3236C5.75814 69.6632 6.01546 70.0783 6.10124 70.4933C6.18702 71.1725 6.53016 71.7385 7.00196 72.2291C7.55953 73.0215 8.15999 73.8139 8.71757 74.6063C8.93202 74.9082 9.14648 75.2855 8.80335 75.6629C8.37445 76.1157 7.73108 75.927 7.47374 75.6251C5.37211 73.3611 1.76935 72.0781 1.94091 68.267C2.02669 66.3426 1.12599 64.3427 0.568412 62.3805C-0.975639 56.9091 0.954409 51.7773 2.45557 46.6455C3.01314 44.7588 3.61361 42.8721 3.82806 40.9477C4.29986 36.3442 6.27282 32.1934 8.63178 28.1559C10.0043 25.8164 12.1059 24.1939 14.9367 23.326C17.939 22.3826 20.9413 21.4015 24.0294 20.5714C25.4877 20.1563 26.0023 19.4394 25.8308 18.2319C25.5734 16.7225 24.9301 15.3641 23.9865 14.1189C23.0429 12.8737 22.3567 11.5907 22.7427 10.0814C22.9571 9.25124 22.7427 8.49656 22.5711 7.66642C21.842 4.57224 23.5147 2.57234 26.7744 1.17619C29.0904 0.195106 31.235 -0.182233 33.7226 0.0819041C37.7114 0.534711 41.6573 3.21382 40.585 8.11922C40.199 9.89271 41.2284 11.8549 39.7701 13.402C38.8265 14.4208 38.4834 15.5905 37.9258 16.7225C36.7249 19.0998 37.2396 19.9677 39.9417 20.7601C42.8582 21.5902 45.689 22.5713 48.5626 23.4769C51.6507 24.458 53.6237 26.4579 54.9962 28.9483C57.1836 32.9104 59.0279 36.9856 59.371 41.476C59.5854 44.457 60.7864 47.2493 61.73 50.0416C63.5742 55.5507 63.3169 60.9467 61.5584 66.3803C61.4726 66.6822 61.2582 66.9841 61.3011 67.2859C61.7729 70.9461 58.6847 72.8328 56.3687 75.0969C55.8969 75.5874 55.2535 76.1157 54.5673 75.7383C53.6666 75.2478 54.3957 74.6063 54.7388 74.1158C55.2964 73.2856 55.468 72.7574 55.1249 71.5499C54.5673 69.55 54.0955 66.9841 55.3822 65.0219C56.3687 63.5126 56.3687 62.2296 55.7253 60.758C55.0391 59.1732 54.3099 57.5883 53.5808 56.0412C53.1519 55.8148 53.0661 55.3998 52.8946 55.0224C52.723 54.6451 52.6372 54.23 52.4657 53.8904C52.2512 53.4376 52.1654 52.9471 51.7794 52.5697C51.6507 52.1547 51.4792 51.7773 51.2647 51.4C50.9645 50.3812 51.0932 49.2869 50.2782 48.4945C50.7071 49.4756 51.0074 50.5698 51.3505 51.6641C51.6507 52.0792 51.6507 52.6452 52.0796 53.0225C52.2512 53.4376 52.3799 53.815 52.5515 54.23C52.6801 54.6451 52.8517 55.0224 53.0232 55.4375C53.3235 55.8903 53.0232 56.4186 53.2806 56.9091Z" fill="#FE5D7C"/>
</svg>
