<svg width="38" height="134" viewBox="0 0 38 134" fill="none" xmlns="http://www.w3.org/2000/svg">
<path d="M0.0820033 49.4223C0.485742 48.5328 0.85103 46.4252 0.601096 45.0524C0.351163 43.6602 0.0820034 36.6413 0.85103 34.7851C1.62006 32.9288 0.697225 29.5257 2.75437 26.1613C4.81152 22.7969 9.50258 22.9322 9.50258 22.9322C9.50258 22.9322 13.9053 21.4821 14.5205 20.5926C15.1357 19.7032 14.8281 15.8167 14.8281 15.8167C13.6361 14.9272 13.5015 12.2976 13.5015 12.2976C13.5015 12.2976 13.4054 12.7616 12.944 12.4522C12.4826 12.1429 12.3288 9.02981 12.4633 8.75911C12.5787 8.48841 13.0978 8.56575 13.0978 8.56575C13.0978 8.56575 12.3672 4.50524 13.6169 2.39764C14.8665 0.309372 17.8465 0 19.0001 0C20.1728 0 23.1336 0.309372 24.3832 2.39764C25.6329 4.4859 24.9023 8.56575 24.9023 8.56575C24.9023 8.56575 25.4214 8.46907 25.5368 8.75911C25.6521 9.02981 25.4983 12.1429 25.0561 12.4522C24.5947 12.7616 24.4986 12.2976 24.4986 12.2976C24.4986 12.2976 24.3832 14.9079 23.172 15.8167C23.172 15.8167 22.8644 19.7032 23.4796 20.5926C24.0949 21.4821 28.4975 22.9322 28.4975 22.9322C28.4975 22.9322 33.1886 22.8162 35.2457 26.1613C37.3029 29.5257 36.3801 32.9482 37.1491 34.7851C37.9181 36.6413 37.6297 43.6602 37.399 45.0524C37.1491 46.4445 37.5144 48.5328 37.9181 49.4223C38.3218 50.3117 37.0914 64.9489 37.2837 66.9598C37.4759 68.9707 38.1104 74.3461 37.8604 74.8101C37.6105 75.2742 35.9955 79.3927 34.3037 79.6441C34.3037 79.6441 33.0732 80.5335 32.6503 80.2628C32.2273 79.9921 32.7464 79.3734 32.7464 79.3734C32.7464 79.3734 32.4003 79.4314 32.1889 79.2187C31.9774 79.006 33.8038 77.2078 33.8038 77.2078C33.8038 77.2078 32.881 77.6138 32.5734 77.2464C32.2658 76.8791 34.9381 75.4676 35.3995 74.4041C35.861 73.3406 35.2457 72.6832 35.2457 72.6832L34.4767 73.0506C34.4767 73.0506 33.7461 75.4869 33.227 75.5062C32.708 75.5449 32.3619 75.5449 32.8041 72.6639C32.8041 72.6639 32.1889 70.5369 32.6887 69.5895C33.1694 68.642 33.7269 68.3907 33.7269 67.3659C33.7269 66.3411 32.2273 61.0431 31.7274 58.1234C31.2468 55.2037 32.1504 49.4996 31.6698 48.3781C31.1891 47.276 30.5931 44.6463 30.5739 42.7707C30.5355 40.8952 30.0548 38.4009 29.5934 37.7821C29.132 37.1634 29.8049 41.3592 28.7667 44.0469C27.7477 46.7346 28.4591 51.3752 28.9397 53.3861C29.4396 55.397 31.0545 66.6311 31.2083 70.7303C31.3622 74.8295 30.1894 90.0274 30.3432 92.2123C30.497 94.3973 31.5352 97.491 31.5352 103.775C31.5352 110.059 30.497 110.581 29.6126 113.211C28.7282 115.821 27.8439 122.647 27.9208 123.904C27.9208 123.904 28.4591 124.793 28.4783 125.315C28.4975 125.837 28.4783 126.495 28.6513 127.133C28.8436 127.771 30.7085 132.334 30.1509 132.991C29.5934 133.63 26.3443 133.707 25.2099 133.61C25.2099 133.61 24.9408 134.132 23.8065 133.958C22.6722 133.765 22.826 129.762 23.172 127.674C23.5181 125.586 22.5376 125.064 22.826 123.73C23.1336 122.395 23.7103 121.815 23.768 121.235C23.8257 120.655 24.2871 113.849 23.4989 110.543C22.7106 107.236 22.826 102.228 23.595 100.005C24.364 97.781 23.2297 96.5629 22.403 93.8752C21.5763 91.1875 21.1533 84.6907 21.1533 81.829C21.1533 78.9673 20.2113 76.9564 19.7499 75.2935C19.2884 73.6307 19.3461 71.233 19.3461 71.233L18.9808 71.0783L18.6155 71.233C18.6155 71.233 18.6732 73.6307 18.2118 75.2935C17.7504 76.9564 16.8083 78.9673 16.8083 81.829C16.8083 84.6907 16.3854 91.1875 15.5587 93.8752C14.732 96.5629 13.5976 97.781 14.3667 100.005C15.1357 102.228 15.2511 107.256 14.4628 110.543C13.6745 113.83 14.1167 120.655 14.1936 121.235C14.2513 121.815 14.8281 122.415 15.1357 123.73C15.4433 125.064 14.4628 125.586 14.7896 127.674C15.1357 129.762 15.2703 133.784 14.1552 133.958C13.0209 134.152 12.7517 133.61 12.7517 133.61C11.6174 133.707 8.36826 133.649 7.81072 132.991C7.25318 132.353 9.13729 127.79 9.31032 127.133C9.50258 126.495 9.46413 125.837 9.48335 125.315C9.50258 124.793 10.0409 123.904 10.0409 123.904C10.137 122.647 9.25264 115.821 8.34904 113.211C7.46466 110.601 6.42647 110.059 6.42647 103.775C6.42647 97.491 7.46466 94.4166 7.61846 92.2123C7.77227 90.0274 6.5995 74.8295 6.75331 70.7303C6.90711 66.6311 8.52207 55.3777 9.02194 53.3861C9.5218 51.3752 10.2139 46.7346 9.19497 44.0469C8.17601 41.3592 8.82968 37.1827 8.36826 37.7821C7.90685 38.4009 7.42621 40.8952 7.38775 42.7707C7.3493 44.6463 6.77253 47.276 6.29189 48.3781C5.79202 49.4803 6.71486 55.1843 6.23422 58.1234C5.75357 61.0431 4.23475 66.3411 4.23475 67.3659C4.23475 68.3907 4.79229 68.6227 5.27293 69.5895C5.75357 70.5369 5.15758 72.6639 5.15758 72.6639C5.58054 75.5256 5.25371 75.5256 4.73461 75.5062C4.21552 75.4675 3.48495 73.0506 3.48495 73.0506L2.71592 72.6832C2.71592 72.6832 2.1007 73.36 2.56211 74.4041C3.02353 75.4482 5.6959 76.8597 5.38829 77.2464C5.08068 77.6138 4.15784 77.2078 4.15784 77.2078C4.15784 77.2078 6.00351 78.9867 5.7728 79.2187C5.56132 79.4314 5.21526 79.3734 5.21526 79.3734C5.21526 79.3734 5.73435 79.9921 5.31138 80.2628C4.88842 80.5335 3.65798 79.6441 3.65798 79.6441C1.96612 79.3927 0.351163 75.2742 0.101229 74.8101C-0.148705 74.3461 0.504968 68.9514 0.677999 66.9598C0.908707 64.9489 -0.321736 50.3117 0.0820033 49.4223Z" fill="#B7E250"/>
</svg>
