<svg width="15" height="17" viewBox="0 0 15 17" fill="none" xmlns="http://www.w3.org/2000/svg">
<path fill-rule="evenodd" clip-rule="evenodd" d="M14.9952 15.0777V9.86233C14.9952 9.85799 14.9952 9.84931 15 9.84497V1.50126C15 0.67253 14.2522 0 13.3307 0H5.07559H4.61724H1.66935C0.747829 0 0 0.67253 0 1.50126V15.0777C0 15.9064 0.752654 16.5789 1.67417 16.5789H13.3258C14.2473 16.5789 14.9952 15.9064 14.9952 15.0777ZM4.61724 0.728935H1.66935C1.19653 0.728935 0.81055 1.07605 0.81055 1.50126V15.0777C0.81055 15.5029 1.19653 15.85 1.67417 15.85H13.3307C13.8035 15.85 14.1895 15.5029 14.1895 15.0777V10.127V10.1096V1.50126C14.1895 1.07605 13.8035 0.728935 13.3307 0.728935H5.07559H4.61724ZM10.3636 10.8681C10.5204 10.8681 10.6725 10.8016 10.7818 10.6875C10.8911 10.5735 10.9481 10.4166 10.9291 10.2598C10.8531 8.8912 10.0024 7.73644 8.81914 7.2137C9.46543 6.7575 9.88362 6.01141 9.88362 5.16553C9.88362 3.78266 8.75737 2.66116 7.37925 2.66116C6.00113 2.66116 4.87487 3.78266 4.87487 5.16553C4.87487 6.01141 5.29781 6.7575 5.93935 7.2137C4.75607 7.74119 3.91019 8.8912 3.82941 10.2598C3.8199 10.4166 3.87693 10.5735 3.98623 10.6875C4.09552 10.8016 4.24759 10.8681 4.40441 10.8681H10.3636ZM11.3524 12.6402C11.5758 12.6402 11.7516 12.4644 11.7516 12.2411C11.7516 12.0225 11.571 11.8419 11.3524 11.8419H3.42113C3.20253 11.8419 3.02195 12.0225 3.02195 12.2411C3.02195 12.4644 3.20253 12.6402 3.42113 12.6402H11.3524ZM11.7516 13.82C11.7516 14.0434 11.5758 14.2192 11.3524 14.2192H3.42113C3.20253 14.2192 3.02195 14.0434 3.02195 13.82C3.02195 13.6014 3.20253 13.4208 3.42113 13.4208H11.3524C11.571 13.4208 11.7516 13.6014 11.7516 13.82Z" fill="white"/>
</svg>
