<svg width="19" height="20" viewBox="0 0 19 20" fill="none" xmlns="http://www.w3.org/2000/svg">
<path fill-rule="evenodd" clip-rule="evenodd" d="M2.12191 0H10.9954C12.1682 0 13.1173 1.025 13.1173 2.29167V7.925C13.0556 7.91667 12.9861 7.91667 12.9244 7.91667C9.83796 7.91667 7.33025 10.625 7.33025 13.9583C7.33025 15.2833 7.72377 16.5 8.40278 17.5H2.12191C0.949074 17.5 0 16.475 0 15.2083V2.29167C0 1.025 0.949074 0 2.12191 0ZM6.17284 3.33333H3.08642C2.66204 3.33333 2.31481 3.70833 2.31481 4.16667C2.31481 4.625 2.66204 5 3.08642 5H6.17284C6.59722 5 6.94444 4.625 6.94444 4.16667C6.94444 3.70833 6.59722 3.33333 6.17284 3.33333ZM3.08642 11.6667H6.94444C7.36883 11.6667 7.71605 11.2917 7.71605 10.8333C7.71605 10.375 7.36883 10 6.94444 10H3.08642C2.66204 10 2.31481 10.375 2.31481 10.8333C2.31481 11.2917 2.66204 11.6667 3.08642 11.6667ZM3.08642 8.33333H10.0309C10.4552 8.33333 10.8025 7.95833 10.8025 7.5C10.8025 7.04167 10.4552 6.66667 10.0309 6.66667H3.08642C2.66204 6.66667 2.31481 7.04167 2.31481 7.5C2.31481 7.95833 2.66204 8.33333 3.08642 8.33333ZM12.9244 18.3334C10.6906 18.3334 8.87343 16.3709 8.87343 13.9584C8.87343 11.5459 10.6906 9.58337 12.9244 9.58337C15.1582 9.58337 16.9753 11.5459 16.9753 13.9584C16.9753 14.8641 16.7192 15.7064 16.281 16.4053L18.2924 18.5776C18.5941 18.9034 18.5941 19.4301 18.2924 19.7559C18.142 19.9184 17.9444 20.0001 17.7469 20.0001C17.5494 20.0001 17.3518 19.9184 17.2014 19.7559L15.19 17.5836C14.5429 18.0568 13.763 18.3334 12.9244 18.3334ZM15.4321 13.9584C15.4321 14.6771 15.1715 15.3314 14.7469 15.8168C14.7286 15.8332 14.7108 15.8507 14.6937 15.8693C14.6765 15.8878 14.6603 15.907 14.6451 15.9268C14.1957 16.3853 13.5899 16.6667 12.9244 16.6667C11.5416 16.6667 10.4166 15.4517 10.4166 13.9584C10.4166 12.465 11.5416 11.25 12.9244 11.25C14.3071 11.25 15.4321 12.465 15.4321 13.9584Z" fill="#22AAEC"/>
</svg>
