<svg width="72" height="99" viewBox="0 0 72 99" fill="none" xmlns="http://www.w3.org/2000/svg">
<path d="M40.6658 37.1446C40.9914 36.4941 41.2861 34.9528 41.0845 33.9487C40.8829 32.9306 40.6658 27.7974 41.2861 26.4398C41.9064 25.0823 41.162 22.5935 42.8214 20.1329C44.4808 17.6723 48.2647 17.7713 48.2647 17.7713C48.2647 17.7713 51.8161 16.7108 52.3124 16.0603C52.8086 15.4098 52.5605 12.5674 52.5605 12.5674C51.599 11.9169 51.4904 9.99374 51.4904 9.99374C51.4904 9.99374 51.4129 10.3331 51.0407 10.1069C50.6685 9.88061 50.5444 7.60389 50.653 7.40592C50.746 7.20794 51.1648 7.2645 51.1648 7.2645C51.1648 7.2645 50.5754 4.29487 51.5835 2.7535C52.5915 1.22626 54.9953 1 55.9257 1C56.8717 1 59.26 1.22626 60.268 2.7535C61.276 4.28073 60.6867 7.2645 60.6867 7.2645C60.6867 7.2645 61.1055 7.1938 61.1985 7.40592C61.2915 7.60389 61.1675 9.88061 60.8108 10.1069C60.4386 10.3331 60.3611 9.99374 60.3611 9.99374C60.3611 9.99374 60.268 11.9028 59.291 12.5674C59.291 12.5674 59.0429 15.4098 59.5391 16.0603C60.0354 16.7108 63.5868 17.7713 63.5868 17.7713C63.5868 17.7713 67.3707 17.6865 69.0301 20.1329C70.6895 22.5935 69.9451 25.0964 70.5654 26.4398C71.1857 27.7974 70.9531 32.9306 70.767 33.9487C70.5654 34.9669 70.8601 36.4941 71.1857 37.1446C71.5114 37.7951 70.5189 48.4999 70.674 49.9706C70.829 51.4413 71.3408 55.3725 71.1392 55.7119C70.9376 56.0513 69.6349 59.0633 68.2702 59.2472C68.2702 59.2472 67.2777 59.8977 66.9365 59.6997C66.5953 59.5017 67.014 59.0492 67.014 59.0492C67.014 59.0492 66.7349 59.0916 66.5643 58.9361C66.3937 58.7805 67.867 57.4654 67.867 57.4654C67.867 57.4654 67.1226 57.7623 66.8745 57.4937C66.6263 57.225 68.782 56.1927 69.1542 55.4149C69.5264 54.6372 69.0301 54.1564 69.0301 54.1564L68.4098 54.4251C68.4098 54.4251 67.8205 56.2068 67.4017 56.221C66.983 56.2493 66.7039 56.2493 67.0606 54.1422C67.0606 54.1422 66.5643 52.5867 66.9675 51.8938C67.3552 51.2009 67.805 51.0171 67.805 50.2676C67.805 49.5181 66.5953 45.6434 66.1921 43.5081C65.8044 41.3728 66.5333 37.2012 66.1456 36.381C65.7579 35.575 65.2771 33.6518 65.2616 32.2801C65.2306 30.9084 64.8429 29.0842 64.4707 28.6317C64.0985 28.1792 64.6413 31.2478 63.8039 33.2134C62.9819 35.179 63.5557 38.5729 63.9434 40.0436C64.3466 41.5142 65.6493 49.7302 65.7734 52.7281C65.8975 55.726 64.9515 66.8409 65.0755 68.4389C65.1996 70.0368 66.037 72.2994 66.037 76.8952C66.037 81.4911 65.1996 81.8729 64.4862 83.7961C63.7728 85.7051 63.0595 90.697 63.1215 91.6161C63.1215 91.6161 63.5557 92.2666 63.5712 92.6484C63.5868 93.0302 63.5712 93.511 63.7108 93.9777C63.8659 94.4443 65.3702 97.7816 64.9204 98.2624C64.4707 98.7291 61.8498 98.7857 60.9349 98.715C60.9349 98.715 60.7177 99.0968 59.8028 98.9695C58.8878 98.8281 59.0119 95.9009 59.291 94.3736C59.5702 92.8464 58.7792 92.4646 59.0119 91.4889C59.26 90.5131 59.7252 90.0889 59.7718 89.6647C59.8183 89.2404 60.1905 84.2628 59.5546 81.8446C58.9188 79.4265 59.0119 75.764 59.6322 74.1377C60.2525 72.5115 59.3375 71.6206 58.6707 69.655C58.0038 67.6894 57.6627 62.938 57.6627 60.8451C57.6627 58.7522 56.9028 57.2816 56.5306 56.0654C56.1584 54.8493 56.2049 53.0958 56.2049 53.0958L55.9102 52.9827L55.6156 53.0958C55.6156 53.0958 55.6621 54.8493 55.2899 56.0654C54.9177 57.2816 54.1578 58.7522 54.1578 60.8451C54.1578 62.938 53.8166 67.6894 53.1498 69.655C52.4829 71.6206 51.568 72.5115 52.1883 74.1377C52.8086 75.764 52.9017 79.4406 52.2658 81.8446C51.63 84.2486 51.9867 89.2404 52.0487 89.6647C52.0952 90.0889 52.5605 90.5273 52.8086 91.4889C53.0567 92.4646 52.2658 92.8464 52.5295 94.3736C52.8086 95.9009 52.9172 98.8422 52.0177 98.9695C51.1027 99.1109 50.8856 98.715 50.8856 98.715C49.9706 98.7857 47.3498 98.7432 46.9 98.2624C46.4503 97.7958 47.9701 94.4585 48.1097 93.9777C48.2647 93.511 48.2337 93.0302 48.2492 92.6484C48.2647 92.2666 48.699 91.6161 48.699 91.6161C48.7765 90.697 48.0631 85.7051 47.3342 83.7961C46.6209 81.8871 45.7834 81.4911 45.7834 76.8952C45.7834 72.2994 46.6209 70.051 46.7449 68.4389C46.869 66.8409 45.923 55.726 46.0471 52.7281C46.1711 49.7302 47.4738 41.5001 47.877 40.0436C48.2802 38.5729 48.8385 35.179 48.0166 33.2134C47.1947 31.2478 47.7219 28.1933 47.3498 28.6317C46.9776 29.0842 46.5899 30.9084 46.5588 32.2801C46.5278 33.6518 46.0626 35.575 45.6749 36.381C45.2717 37.1871 46.0161 41.3587 45.6284 43.5081C45.2407 45.6434 44.0155 49.5181 44.0155 50.2676C44.0155 51.0171 44.4652 51.1867 44.8529 51.8938C45.2407 52.5867 44.7599 54.1422 44.7599 54.1422C45.1011 56.2351 44.8374 56.2351 44.4187 56.221C44 56.1927 43.4107 54.4251 43.4107 54.4251L42.7904 54.1564C42.7904 54.1564 42.2941 54.6513 42.6663 55.4149C43.0385 56.1785 45.1941 57.2108 44.946 57.4937C44.6979 57.7623 43.9535 57.4654 43.9535 57.4654C43.9535 57.4654 45.4423 58.7664 45.2562 58.9361C45.0856 59.0916 44.8064 59.0492 44.8064 59.0492C44.8064 59.0492 45.2251 59.5017 44.884 59.6997C44.5428 59.8977 43.5503 59.2472 43.5503 59.2472C42.1856 59.0633 40.8829 56.0513 40.6813 55.7119C40.4797 55.3725 41.0069 51.4271 41.1465 49.9706C41.3326 48.4999 40.3401 37.7951 40.6658 37.1446Z" fill="#B7E250"/>
<path d="M27.6974 41.2219C27.5939 39.2375 27.0765 37.9145 26.2487 36.1336C26.3521 32.4191 26.2487 27.8905 25.99 24.227C25.9382 23.2093 25.4208 20.4107 23.0408 19.8001C21.9542 19.5457 16.8319 18.5789 16.8319 16.5945C16.8319 14.203 18.7981 12.473 19.3155 10.0306C19.8329 7.58819 19.4189 4.58609 17.2976 3.31401C17.1941 3.26313 17.0906 3.21224 16.9872 3.16136C17.1424 2.09282 16.625 0.97339 15.6419 0.362793C14.8141 -0.146038 13.624 -0.095155 12.7962 0.362793C11.8131 0.871623 11.2957 2.04193 11.4509 3.16136C11.3475 3.21224 11.244 3.26313 11.1405 3.31401C9.01916 4.58609 8.55349 7.58819 9.12264 10.0306C9.64004 12.473 11.6062 14.1012 11.6062 16.8489C11.6062 18.8333 5.65604 19.6984 5.39734 19.8001C3.32773 20.1563 2.49989 23.1584 2.44815 24.227C2.18945 27.9414 2.08597 32.4191 2.18945 36.1336C1.3616 37.9145 0.792459 39.2375 0.740719 41.2219C0.0680954 54.8077 -0.708008 50.737 1.20638 55.9271C1.6203 56.843 2.18944 57.5045 2.3964 58.0642C2.96555 57.8607 2.55163 56.8939 2.49989 56.7412C2.03423 55.978 2.03422 56.2324 2.03422 55.8762C2.39641 56.4359 3.37947 57.0974 3.37947 57.0974C3.68991 56.7921 3.48295 56.5886 2.34467 55.0112C1.82726 54.248 1.82726 53.5356 2.1377 53.0777C2.44815 53.0777 2.75859 53.6374 2.96555 53.9935C3.01729 54.248 3.01729 54.5533 3.06903 54.8077C3.06903 54.9603 3.48295 55.4692 3.63817 55.4183C3.63817 55.2656 4.00036 53.0268 2.75859 51.5003C2.49989 51.1441 2.34467 50.737 2.34467 50.2791C2.34467 48.7017 2.34467 48.9561 2.49989 47.9385C3.06903 44.4784 4.72472 41.1201 4.67298 37.4057C4.67298 37.4057 4.67298 38.3724 5.29386 35.8792C5.96649 33.2841 6.38041 31.4523 6.63911 30.0785C6.89781 30.4347 7.25999 30.7909 7.82913 31.2488C7.82913 31.2488 8.70872 35.065 8.70872 36.9477C8.70872 39.3392 7.36347 40.4587 6.58737 41.7307C5.13864 44.1731 4.72472 46.4629 4.8282 49.3123C4.67298 51.7038 4.87994 54.7059 5.13864 57.0974C5.50082 60.4557 5.863 62.3384 6.27692 65.6967C6.43214 66.9179 6.63911 66.9178 6.58737 68.1899C6.53563 69.3093 6.17344 71.65 6.01822 72.7185C4.98342 79.9439 8.65698 88.7467 6.06997 95.7177C5.81126 96.43 5.65604 97.1424 5.6043 97.8039C5.55256 98.6689 6.63911 98.9742 7.51869 98.9742C7.51869 98.9742 11.5027 99.3304 11.0888 97.3968C10.2609 93.6315 10.3644 92.8682 10.1574 90.5276C9.89874 86.8131 11.8131 81.4704 12.2271 77.7051C12.5375 74.703 11.8131 72.0062 12.1236 69.0041C12.2271 67.6811 12.5375 66.2564 12.641 64.9334C12.7445 63.6105 13.7793 56.1306 14.2967 52.6197L14.3484 52.5688L14.4001 52.6197C14.8658 56.1306 15.9524 63.6105 16.0558 64.9334C16.1593 66.2564 16.4698 67.6811 16.5732 69.0041C16.8837 72.0062 16.1076 74.703 16.4698 77.7051C16.8837 81.4704 18.7463 86.7623 18.5394 90.5276C18.3841 92.8682 18.4359 93.6315 17.608 97.3968C17.1941 99.2795 21.1781 98.9742 21.1781 98.9742C22.006 98.9742 23.1442 98.6689 23.0925 97.8039C23.0408 97.0915 22.8855 96.3792 22.6268 95.7177C20.0398 88.6958 23.7134 79.9439 22.6786 72.7185C22.5234 71.5991 22.2129 69.2585 22.1094 68.1899C22.006 66.9178 22.2647 66.9687 22.4199 65.6967C22.8338 62.3384 23.196 60.4557 23.5582 57.0974C23.8169 54.7568 23.9721 51.7547 23.8686 49.3123C23.9721 46.4629 23.5582 44.1731 22.1094 41.7307C21.3851 40.4587 19.9881 39.3392 19.9881 36.9477C19.9881 35.065 20.8677 31.2488 20.8677 31.2488C21.4368 30.8418 21.8507 30.4347 22.0577 30.0785C22.2647 31.4523 22.6786 33.2841 23.4029 35.8792C24.0756 38.3216 24.0238 37.4057 24.0238 37.4057C23.9721 41.1201 25.6278 44.4784 26.1969 47.9385C26.3521 48.9561 26.3521 48.7017 26.3521 50.2791C26.3521 50.737 26.1969 51.1441 25.9382 51.5003C24.6965 53.0268 25.0586 55.2656 25.0586 55.4183C25.2139 55.52 25.576 55.0112 25.6278 54.8077C25.6795 54.5533 25.6795 54.248 25.7313 53.9935C25.9382 53.6374 26.3004 53.0777 26.5591 53.0777C26.8695 53.5356 26.9213 54.248 26.3521 55.0112C25.2139 56.6395 25.0069 56.843 25.3173 57.0974C25.3173 57.0974 26.3004 56.4359 26.6626 55.8762C26.6108 56.2324 26.6108 56.0289 26.1969 56.7412C26.0934 56.8939 25.7313 57.9115 26.3004 58.0642C26.5591 57.5045 27.0765 56.843 27.4904 55.9271C29.1461 50.737 28.3183 54.8077 27.6974 41.2219ZM13.831 52.7724C13.831 52.7724 13.831 52.8232 13.831 52.7724V52.7724ZM14.4519 52.7724C14.4519 52.7724 14.5036 52.7724 14.4519 52.7724C14.5036 52.8232 14.5036 52.7724 14.4519 52.7724Z" fill="#B7E250"/>
</svg>
