<svg width="101" height="99" viewBox="0 0 101 99" fill="none" xmlns="http://www.w3.org/2000/svg">
<path d="M42.3847 45.9942C42.768 44.1211 42.6038 41.4102 41.7824 39.685C41.8919 36.0868 41.9467 32.0942 40.3039 27.7074C38.7707 23.7149 36.7994 22.1376 29.0786 21.2503C25.136 20.8067 25.136 18.1943 25.136 18.1943C25.136 17.8 25.136 17.8 25.136 17.8C25.2455 16.5677 30.8308 9.61776 24.9717 6.01955C24.6979 5.82238 24.3694 5.77309 24.0408 5.67451C24.1503 4.6887 23.548 3.6536 22.4528 3.16069C22.0148 3.06211 21.5767 3.01282 21.0839 3.01282C20.6458 2.96353 20.153 3.06211 19.7149 3.20998C18.6198 3.6536 18.0174 4.6887 18.127 5.7238C17.7984 5.82238 17.4699 5.92096 17.1961 6.06884C14.6772 7.3011 14.1844 11.0472 14.8415 13.4131C15.17 14.744 15.8271 15.5819 16.3199 16.5184C17.0318 17.9971 16.8128 19.2787 15.6629 20.4617C15.4438 20.7081 13.6368 21.2503 12.4869 21.4968C5.6969 22.9755 3.50659 24.5035 1.97336 28.496C0.275867 32.8829 0.768685 35.8403 0.823443 39.4385C0.00207397 41.1637 -0.216961 43.8254 0.221103 45.7477C1.64481 52.402 -1.31212 53.0427 1.04247 57.0846C1.48054 57.9718 2.13763 58.5633 2.35666 59.1055C2.46618 59.0562 2.41142 59.1055 2.46618 59.1548C2.5757 59.1055 2.57569 59.1055 2.57569 59.1055C3.01375 58.3168 2.3019 57.3803 2.3019 57.0353C2.6852 57.5775 3.88989 58.5633 3.88989 58.5633C4.16368 58.2675 4.21844 57.7746 3.01376 56.1973C2.46618 55.458 2.84948 55.0144 3.17803 54.5707C3.45182 54.5707 4.10892 55.3594 4.32795 55.7537C4.38271 56.0002 4.43746 56.2466 4.49222 56.5424C4.49222 56.6902 4.76602 57.0846 5.25884 57.0846C5.25884 56.9367 5.36835 54.5707 4.32795 52.9442C3.94464 52.3034 3.78037 51.0711 4.10892 50.1346C5.53263 46.2899 6.40876 45.5506 6.29924 41.9524C6.29924 41.8045 6.29924 41.7552 6.24448 41.7552C6.24448 41.7552 6.24448 41.7059 6.29924 41.7059C7.12061 39.9314 7.61343 37.1712 7.94198 36.2347C10.9537 46.5364 5.86118 45.797 6.62779 54.1271C6.46352 56.6902 8.21576 62.1615 8.65383 65.4147C8.8181 66.5976 9.03714 67.0412 8.98238 68.2735C8.92762 69.3086 8.54431 71.576 8.4348 72.6604C7.3944 79.6103 14.6225 86.5603 11.2822 95.4819C11.0084 96.172 10.8441 96.8127 10.7894 97.5028C10.7346 98.3407 12.7059 98.6365 15.2795 98.6365C15.2795 98.6365 19.4959 98.9322 18.9483 97.1578C18.0722 94.3975 17.0866 92.6723 16.9223 90.405C16.7033 86.8068 19.0578 81.7791 19.4959 78.1809C19.8245 75.2728 19.0578 72.0689 19.3864 69.1607C19.4959 67.8792 19.8245 67.4356 19.934 66.154C19.9887 65.5625 20.5363 61.9643 21.1934 59.4505C21.8505 62.0629 22.4528 65.809 22.5076 66.4498C22.6171 67.7313 22.8909 68.1749 23.0552 69.4565C23.329 72.3646 22.6171 75.5685 22.9457 78.4767C23.3837 82.0749 26.1764 86.7082 25.9026 90.3064C25.7383 92.5738 24.3146 94.7425 23.4385 97.5028C22.8909 99.2773 27.1073 98.9815 27.1073 98.9815C29.6809 98.9815 31.6522 98.6858 31.5974 97.8478C31.5427 97.1578 31.3784 96.4677 31.1046 95.8269C27.7644 86.9053 34.9924 79.9554 33.952 73.0054C33.7877 71.9703 33.4592 69.7029 33.4044 68.6185C33.2949 67.3863 33.5687 66.9427 33.733 65.7597C34.1163 62.5065 36.7994 57.0353 36.6351 54.4722C37.347 45.1562 31.5427 45.797 34.3901 36.5797C34.6639 37.5162 35.2114 40.2765 36.0328 42.0509C36.0328 42.1002 36.0328 42.1002 36.0876 42.1002C36.0876 42.1002 36.0328 42.1495 36.0328 42.2974C35.978 45.8956 37.5113 46.635 38.935 50.4796C39.2635 51.4161 39.0992 52.6484 38.7159 53.2892C37.6755 54.9651 37.7851 57.2817 37.7851 57.4296C38.2779 57.4296 38.4969 57.0353 38.5517 56.8874C38.6064 56.6409 38.6612 56.3945 38.7159 56.0987C38.935 55.7537 39.5921 54.9158 39.8659 54.9158C40.1944 55.3594 40.523 55.803 40.0301 56.5424C38.8802 58.1197 38.8802 58.6619 39.154 58.9083C39.154 58.9083 40.3039 57.9225 40.742 57.3803C40.742 57.7253 40.0301 58.6619 40.4682 59.4505C40.4682 59.4505 40.4682 59.4505 40.5777 59.4998C40.6325 59.4998 40.5777 59.4505 40.6872 59.4505C40.9063 58.9083 41.5634 58.2675 42.0014 57.4296C43.9727 53.2892 40.961 52.6977 42.3847 45.9942Z" fill="#FE703D"/>
<path d="M100.033 48.3034C100.083 47.8481 100.033 47.3474 100.108 46.8238C100.815 41.7935 101.118 39.062 100.386 36.8313C100.386 36.6493 100.361 36.4899 100.336 36.3761C100.083 25.6325 94.6047 17.5292 88.8737 16.1407C87.9395 15.8676 86.7529 15.5944 85.6673 15.344C85.4906 15.2985 85.3139 15.253 85.1371 15.2302C85.1119 15.2302 85.0866 15.2075 85.0361 15.2075C84.9099 15.1847 84.8089 15.162 84.6827 15.1392C83.8748 14.9571 83.2184 14.775 82.9659 14.6384C81.9813 14.0921 81.6278 13.2727 81.5773 12.385C81.956 11.9753 82.2085 11.5428 82.3347 11.2014C82.461 10.8599 82.6125 10.5185 82.7387 10.1543C82.7639 10.1316 82.7892 10.1088 82.8144 10.086C83.2941 9.58527 83.6476 9.01622 83.8748 8.40165C84.0768 7.90089 83.8496 7.67327 84.1273 7.19526C84.3545 6.83107 84.4807 6.44412 84.405 6.05717C84.3292 5.67021 84.5817 5.37431 84.6069 5.03288C84.6574 4.66869 84.4555 4.32726 84.3797 3.98583C84.304 3.62164 84.4302 3.30297 84.2787 2.93878C84.1778 2.66563 83.8243 2.46077 83.6476 2.23315C83.4203 1.93725 83.3446 1.70963 83.1174 1.43649C82.8397 1.14058 82.4862 1.07229 82.1075 0.912961C81.5773 0.662579 81.3754 0.412197 80.7947 0.298388C79.8101 0.116292 78.9012 -0.02028 77.8408 0.00248193H77.8156H77.7903C76.7552 -0.02028 75.8463 0.116292 74.8365 0.298388C74.2558 0.412197 74.0538 0.662579 73.5236 0.912961C73.1449 1.09506 72.7915 1.14058 72.5137 1.43649C72.2613 1.70963 72.1855 1.93725 71.9836 2.23315C71.8068 2.46077 71.4534 2.66563 71.3524 2.93878C71.2009 3.30297 71.3271 3.62164 71.2514 3.98583C71.1757 4.32726 70.9737 4.66869 71.0242 5.03288C71.0747 5.37431 71.3019 5.69297 71.2262 6.05717C71.1504 6.44412 71.2767 6.83107 71.5039 7.19526C71.8068 7.67327 71.5544 7.90089 71.7563 8.40165C72.0088 8.99346 72.337 9.58527 72.8167 10.086C72.842 10.1088 72.8672 10.1316 72.8924 10.1543C73.0439 10.5185 73.1954 10.8599 73.2964 11.2014C73.4226 11.5656 73.6751 11.9753 74.0538 12.385C74.0033 13.2727 73.6498 14.0921 72.6652 14.6384C72.3875 14.7978 71.7563 14.9571 70.9484 15.1392C70.8222 15.162 70.696 15.2075 70.5697 15.2302C70.5445 15.2302 70.5445 15.2302 70.5192 15.2302C70.3173 15.2758 70.1153 15.3213 69.9133 15.3668C69.3579 15.5034 68.752 15.6172 68.1965 15.7538C68.1965 15.7538 68.1965 15.7538 68.1713 15.7538C67.6664 15.8676 67.1867 16.0041 66.7575 16.1407C61.0265 17.5292 55.5732 25.6325 55.2954 36.3761C55.2954 36.4899 55.2702 36.6493 55.2449 36.8313C54.5128 39.062 54.841 41.7935 55.5227 46.8238C55.5984 47.3474 55.5479 47.8709 55.5984 48.3034C55.5732 48.4172 55.5479 48.531 55.5731 48.6676C55.2197 49.9878 55.7246 51.3762 56.3558 52.4916C57.9211 55.223 60.4458 56.2701 60.9002 55.7921C61.3294 55.3141 60.5468 54.8361 59.8651 53.8801C58.8047 52.3778 59.3602 51.4673 59.2087 50.7844C59.6631 51.2624 59.8651 51.0121 60.673 52.4916C61.0012 53.1062 62.2383 53.1289 62.2131 53.0606C62.0616 52.4688 61.8091 51.8542 61.5819 51.1941C60.8245 49.0318 60.0418 48.9635 59.5622 48.4172C59.8399 47.666 62.0868 41.4293 61.6324 37.7873C61.5819 37.2866 61.5062 36.8541 61.4557 36.4444C62.6423 34.8283 64.2328 31.414 65.4699 28.2501C65.4699 28.2728 65.4699 28.2728 65.4699 28.2956C65.4951 28.4549 65.5204 28.637 65.5709 28.7964C65.5709 28.8419 65.5961 28.8874 65.5961 28.9329C65.6214 29.0012 65.6466 29.0923 65.6466 29.1606C65.6719 29.2288 65.6971 29.2971 65.6971 29.3427C65.7224 29.4109 65.7476 29.4792 65.7729 29.5475C65.7729 29.5475 65.7729 29.5475 65.7729 29.5703C65.8233 29.7069 65.8738 29.8434 65.9243 29.98C65.9243 30.0028 65.9243 30.0028 65.9243 30.0255C65.9243 30.0483 65.9496 30.0938 65.9496 30.1166V30.1393C65.9496 30.1621 65.9496 30.2076 65.9496 30.2304C65.9496 30.2531 65.9496 30.2531 65.9496 30.2759C65.9496 30.3214 65.9496 30.3442 65.9496 30.3897C65.9496 30.4125 65.9496 30.4352 65.9496 30.458C65.9496 30.5035 65.9496 30.549 65.9243 30.5718C65.9243 30.5946 65.9243 30.6173 65.8991 30.6629C65.8991 30.7084 65.8738 30.7539 65.8738 30.7994C65.8738 30.8222 65.8486 30.8677 65.8486 30.8905C65.8486 30.936 65.8233 30.9815 65.7981 31.0498C65.7981 31.0953 65.7729 31.1181 65.7729 31.1636C65.7476 31.2091 65.7476 31.2774 65.7224 31.323C65.7224 31.3685 65.6971 31.3912 65.6971 31.4368C65.6719 31.5278 65.6214 31.6416 65.5961 31.7554C65.5709 31.801 65.5709 31.8692 65.5456 31.9148C65.5204 31.9603 65.5204 32.0058 65.4951 32.0513C65.4699 32.1196 65.4446 32.1879 65.4194 32.279C65.4194 32.3017 65.3942 32.3245 65.3942 32.37C64.5358 34.7145 63.0209 38.4702 62.8947 43.0681C62.8947 43.0909 62.8947 43.1137 62.8947 43.1364C62.8947 43.3185 62.8947 43.5234 62.8947 43.7282C62.8947 43.751 62.8947 43.7965 62.8947 43.8193C62.8947 44.0241 62.8947 44.229 62.92 44.4111V44.4338C62.92 44.6387 62.92 44.8663 62.92 45.0712C62.92 45.185 62.92 45.3216 62.92 45.4354C62.92 45.4581 62.92 45.4581 62.92 45.4809C62.92 45.663 62.92 45.8451 62.92 46.0272C62.92 46.0499 62.92 46.0499 62.92 46.0727V46.0955C62.92 46.3231 62.9452 46.5735 62.9452 46.8011C62.9452 46.8011 62.9452 46.8011 62.9452 46.8238C62.9452 46.8694 62.9452 46.8921 62.9452 46.9377C62.9452 46.9604 62.9452 47.0059 62.9452 47.0287C62.9705 47.2563 62.9705 47.4839 62.9957 47.7116C62.9957 47.7571 62.9957 47.8026 62.9957 47.8254C62.9957 47.8481 62.9957 47.8709 62.9957 47.8937V47.9164C63.0462 48.5082 63.1219 49.1 63.1977 49.7146V49.7374V49.7601C63.1977 49.7829 63.1977 49.8057 63.1977 49.8284C63.2229 50.1016 63.2734 50.352 63.3239 50.6251C63.3239 50.6479 63.3239 50.6479 63.3239 50.6706C63.3239 50.7161 63.3492 50.7617 63.3492 50.8072C63.3492 50.83 63.3492 50.83 63.3492 50.8527C63.3744 51.0803 63.4249 51.308 63.4754 51.5356C63.4754 51.5583 63.4754 51.5583 63.4754 51.5811C63.4754 51.6266 63.5006 51.6721 63.5006 51.7177C63.5511 52.0136 63.6016 52.3095 63.6774 52.6282C64.5863 57.2261 66.0506 61.6419 67.2372 64.5099C68.651 67.9697 68.4238 68.903 68.651 70.5873C68.8782 72.2945 68.5248 74.1155 68.0956 77.7574C67.6159 81.809 70.4183 88.8425 71.0494 92.0519C71.1252 92.4161 70.2668 93.9411 70.1658 94.624C69.9891 95.8759 69.1307 96.6043 68.9539 97.3327C68.7015 98.4708 71.9331 98.8122 72.8167 98.8805C73.5489 98.926 76.4017 99.4268 76.4522 97.97C76.4775 97.4692 75.8463 96.1035 75.6948 94.6923C75.5434 93.2128 75.4424 92.4388 75.3919 91.7105C75.1899 88.6148 76.9824 83.3341 77.1844 78.7134C77.3611 75.117 76.6037 73.4326 76.4522 71.5434C76.326 69.9728 77.0329 69.2444 76.5532 65.8529C76.4522 65.1245 77.4874 59.0243 77.6388 52.9013C77.6388 52.9013 77.6388 52.9013 77.6388 52.8785C77.6388 52.4916 77.6641 52.0819 77.6641 51.6949C77.6641 52.1046 77.6641 52.5143 77.6893 52.9013C77.8156 59.047 78.8759 65.1245 78.7749 65.8529C78.2953 69.2444 79.0022 69.9728 78.8759 71.5434C78.7245 73.4554 77.967 75.117 78.1438 78.7134C78.371 83.3568 80.1383 88.6148 79.9363 91.7105C79.8858 92.4388 79.7848 93.2128 79.6333 94.6923C79.4819 96.1263 78.8759 97.4692 78.8759 97.97C78.9264 99.4268 81.7793 98.926 82.5115 98.8805C83.3951 98.835 86.6267 98.4708 86.3742 97.3327C86.2227 96.6043 85.3644 95.8759 85.1624 94.624C85.0614 93.9184 84.2282 92.4161 84.2787 92.0519C84.9099 88.8425 87.6871 81.7862 87.2326 77.7574C86.8034 74.1155 86.45 72.2945 86.6772 70.5873C86.9044 68.903 86.6772 67.9697 88.091 64.5099C89.3534 61.4598 90.9439 56.657 91.8023 51.7404C91.8023 51.6949 91.8275 51.6494 91.8275 51.6039C91.8275 51.5811 91.8275 51.5811 91.8275 51.5583C91.878 51.3307 91.9033 51.1031 91.9538 50.8755C91.9538 50.8527 91.9538 50.8527 91.9538 50.83C91.9538 50.7844 91.979 50.7389 91.979 50.6934C91.979 50.6706 91.979 50.6706 91.979 50.6479C92.0295 50.3747 92.0547 50.1243 92.1052 49.8512C92.1052 49.8284 92.1052 49.8057 92.1052 49.7829V49.7601C92.1052 49.7601 92.1052 49.7601 92.1052 49.7374C92.181 49.1228 92.2567 48.531 92.3072 47.9392V47.9164C92.3072 47.8937 92.3072 47.8709 92.3072 47.8481C92.3072 47.8026 92.3072 47.7571 92.3072 47.7343C92.3325 47.5067 92.3325 47.2791 92.3577 47.0515C92.3577 47.0287 92.3577 46.9832 92.3577 46.9604C92.3577 46.9149 92.3577 46.8921 92.3577 46.8466C92.3577 46.8466 92.3577 46.8466 92.3577 46.8238C92.383 46.3686 92.4082 45.9361 92.4082 45.5037V45.4809C92.4082 45.3443 92.4082 45.2305 92.4082 45.0939C92.4082 44.8663 92.4082 44.6387 92.4082 44.4338C92.4082 44.229 92.4082 44.0241 92.4334 43.7965C92.4334 43.7738 92.4334 43.751 92.4334 43.751C92.4334 43.5461 92.4334 43.3413 92.4334 43.1364C92.4334 43.1137 92.4334 43.1137 92.4334 43.0909C92.3072 38.2426 90.6409 34.3048 89.8078 32.0058C89.8078 31.983 89.7825 31.9603 89.7825 31.9375C89.732 31.8237 89.7068 31.7327 89.6816 31.6189C89.6563 31.5733 89.6563 31.5506 89.6563 31.505C89.6311 31.4368 89.6058 31.3912 89.6058 31.323C89.5806 31.2774 89.5806 31.2319 89.5553 31.1864C89.5301 31.1409 89.5301 31.0953 89.5301 31.0498C89.5048 31.0043 89.5048 30.9588 89.5048 30.9132C89.5048 30.8677 89.4796 30.8449 89.4796 30.7994C89.4796 30.7539 89.4543 30.7084 89.4543 30.6856C89.4543 30.6629 89.4543 30.6173 89.4291 30.5946C89.4291 30.549 89.4038 30.5263 89.4038 30.4808C89.4038 30.458 89.4038 30.4352 89.4038 30.3897C89.4038 30.3669 89.4038 30.3214 89.4038 30.2987C89.4038 30.2759 89.4038 30.2531 89.4038 30.2304C89.4038 30.2076 89.4038 30.1849 89.4038 30.1621V30.1393C89.4038 30.0938 89.4291 30.0483 89.4291 30.0028C89.4796 29.8662 89.5301 29.7296 89.5806 29.593C89.6058 29.502 89.6311 29.4337 89.6563 29.3427C89.6815 29.2971 89.6816 29.2516 89.7068 29.1833C89.732 29.0923 89.7573 29.024 89.7825 28.9329C89.7825 28.8874 89.8078 28.8647 89.8078 28.8191C89.8583 28.637 89.8835 28.4549 89.9088 28.2728V28.2956C91.1459 31.4595 92.7364 34.8738 93.923 36.4899C93.8725 36.8769 93.7968 37.3093 93.7463 37.8101C93.2918 41.452 95.5388 47.6888 95.8165 48.44C95.3368 48.9862 94.5542 49.0545 93.7968 51.2169C93.5696 51.877 93.3171 52.4916 93.1656 53.0834C93.1404 53.1289 94.3774 53.1289 94.7057 52.5143C95.5136 51.0576 95.7408 51.308 96.17 50.8072C96.0185 51.4901 96.5739 52.4005 95.5136 53.9028C94.8319 54.8588 94.0493 55.3368 94.4784 55.8148C94.9329 56.2928 97.4323 55.2458 99.0229 52.5143C99.6793 51.3762 100.159 50.0105 99.8055 48.6903C100.083 48.531 100.083 48.3944 100.033 48.3034Z" fill="#FE703D"/>
</svg>
