<svg width="114" height="98" viewBox="0 0 114 98" fill="none" xmlns="http://www.w3.org/2000/svg">
<path d="M51.3346 45.9978C51.2221 45.7457 50.997 45.5439 50.7719 45.3926C50.7719 45.3422 50.7719 45.2413 50.7719 45.1909C51.2221 44.6866 51.4472 42.2154 51.4472 41.5093C51.4472 39.8955 51.1658 37.4747 50.5469 36.3148C50.5469 32.7845 50.8282 29.809 48.4086 25.0179C46.3266 20.9328 40.7559 18.4616 32.9345 17.806C32.7657 17.806 32.5969 17.7051 32.428 17.6043C32.3718 17.1504 32.203 16.6965 31.8091 16.3434C31.5277 16.0913 31.1901 15.8895 30.8525 15.7382C30.8525 15.5869 30.8525 15.4356 30.8525 15.1835C30.8525 14.9818 30.9088 16.5452 30.965 16.3939C31.1901 15.5869 31.6965 13.9731 32.0904 13.1662C32.5968 12.208 32.8782 11.1489 33.047 10.0898C33.7222 7.71945 33.1595 4.13874 28.8268 2.82749C28.9393 1.81883 28.2641 0.759748 27.0824 0.305854C26.6323 0.154556 24.7754 -0.299338 24.0439 0.305854C23.7063 0.356287 23.3686 0.507585 23.1436 0.709315C22.8059 1.01191 22.5809 1.41537 22.5246 1.86927C22.3558 2.17186 22.2432 2.47446 22.2995 2.82749C22.412 2.77705 22.4683 2.77705 22.2995 2.82749C20.7802 3.38225 19.8799 4.2396 19.3172 5.24825C19.0921 5.44998 18.8671 5.70215 18.6983 5.95431C18.0793 6.8621 17.9105 7.97162 17.9105 9.0307C17.9668 10.0898 18.2481 11.1993 18.7545 12.1575C19.261 13.1662 20.0487 14.9313 20.4989 15.94C20.724 16.4947 20.8928 15.3852 20.8365 15.9904C20.6677 16.0408 20.5552 16.0913 20.3863 16.1417C19.5986 16.4443 18.9233 17.0999 18.7545 17.8564C10.8768 18.4616 5.30609 20.9832 3.28039 25.0683C0.860794 29.8594 1.25468 33.6923 1.25468 37.2226C0.804521 38.0799 -0.545943 38.9877 0.241832 43.224C0.354371 43.9301 0.41063 44.737 0.917057 45.2413C0.917057 45.2413 0.917057 45.2413 0.917057 45.2918C0.298091 46.0987 0.185555 47.2587 0.691982 48.1664H0.748255C0.691985 50.0325 0.860797 51.9993 2.21127 54.1175C2.66143 54.9748 3.67427 55.7313 4.12443 56.2861C4.79967 55.7313 3.67426 54.8236 3.67426 54.4705C4.06815 55.0253 5.3061 55.7818 5.3061 55.7818C5.64371 55.5296 5.69998 55.0757 4.40578 53.4619C3.84308 52.7558 4.12444 52.3019 4.46205 51.848C4.79967 51.848 5.13727 52.2515 5.36235 52.6045C5.6437 54.1175 6.43148 53.7645 6.54402 53.6636C6.54402 53.5123 6.43149 52.2011 5.58745 50.3855C5.19356 49.5281 4.85593 49.276 4.85593 48.5195C4.85593 48.3682 4.85593 48.2673 4.85593 48.116C5.30609 47.7125 5.53117 47.0569 5.41863 46.4517C5.41863 46.4013 5.36235 46.3509 5.36235 46.25C6.15013 44.2831 7.61314 42.0641 7.66941 38.2312C8.00703 38.9373 9.92021 35.407 10.3704 34.0453C9.7514 39.2399 4.12442 46.25 8.23211 54.6723C8.11957 57.2443 8.06331 61.985 11.2144 66.4735C10.8768 67.583 10.9893 68.7934 11.6646 69.802C11.6646 70.0038 11.6646 70.1551 11.6646 70.3568C11.6083 71.4159 11.3269 72.7776 11.2144 73.8367C10.4266 80.9477 14.3655 81.9563 15.6034 85.6883C15.5472 85.8396 15.4909 85.9909 15.4346 86.1927C15.3221 86.8987 15.4346 87.6048 15.6597 88.3108C15.7722 88.6639 15.9411 89.0169 16.2224 89.2691C16.2787 89.3195 16.2787 89.3195 16.3349 89.3195C16.3912 90.7316 16.1661 92.1437 15.5472 93.6063C15.2658 94.2619 15.2095 94.9175 15.2095 95.6236C15.2095 96.4305 14.6469 97.4896 18.5295 97.9939C18.5295 97.9939 24.6066 98.1956 23.8751 96.2792C22.8059 93.5054 22.6371 90.8829 22.3558 88.563C22.5246 88.3108 22.6371 87.9578 22.6371 87.6552C22.6371 86.9996 22.4683 86.344 22.187 85.7388C22.2432 82.6624 22.9747 80.7964 23.1436 77.8208C23.3686 74.8453 23.8751 74.1897 22.6934 71.8194C23.3124 70.3568 23.5937 70.0542 23.4812 68.1378C24.5503 66.3726 25.2818 63.7501 25.7882 61.4302C26.2947 63.7501 27.0262 66.3222 28.0953 68.1378C28.039 70.1046 28.2641 70.3568 28.8831 71.8194C27.7014 74.1897 28.2078 74.8453 28.4329 77.8208C28.6017 80.5442 29.2769 82.158 29.3895 84.9823C29.2207 85.3353 29.0519 85.6379 28.9393 85.9909C28.658 86.8483 28.7143 87.8569 29.2207 88.563C28.9393 90.8325 28.7705 93.455 27.7014 96.2288C26.9699 98.1452 32.8782 97.9435 32.8782 97.9435C36.7045 97.4391 36.3106 96.4305 36.3106 95.5731C36.3106 94.8671 36.2544 94.2114 35.973 93.5558C35.3541 92.1437 35.1852 90.7316 35.1852 89.3699C35.973 88.8656 36.3669 87.8569 36.3669 86.8987C36.3669 86.2935 36.2544 85.6883 36.0856 85.0831C37.3798 81.5024 41.0373 80.7964 40.2495 73.7862C40.137 72.7271 39.8556 71.3655 39.7994 70.3064C39.7994 70.2559 39.7994 70.1551 39.7994 70.1046C40.5871 69.3986 40.7559 68.2891 40.5309 67.2804C40.4746 67.0282 40.3621 66.7257 40.2495 66.4735C43.4006 61.985 43.3444 57.2443 43.2318 54.6218C47.2832 46.1996 41.7125 39.1894 41.0936 33.9949C41.5437 35.407 43.4569 38.8868 43.7945 38.1808C43.8508 41.7111 45.0887 43.8797 45.8765 45.6952C45.8202 45.897 45.7077 46.0483 45.7077 46.25C45.6514 46.8048 45.8765 47.4604 46.3829 47.763C46.4392 47.8134 46.4954 47.8134 46.5517 47.8638C46.5517 48.0656 46.608 48.2673 46.608 48.469C46.608 49.2255 46.2704 49.4777 45.8765 50.335C45.0324 52.1002 44.9762 53.4619 44.9199 53.6132C45.0887 53.6636 46.1016 53.8653 46.1016 52.5541C46.3266 52.2011 46.7205 51.7976 47.0019 51.7976C47.3395 52.2515 47.6208 52.6549 47.0581 53.4114C45.8202 54.9748 45.8765 55.4287 46.1578 55.7313C46.1578 55.7313 47.3958 54.9748 47.7897 54.4201C47.7334 54.7731 46.6643 55.6809 47.3395 56.2357C47.7896 55.6809 48.8025 54.9244 49.2527 54.0671C50.7157 51.7472 50.7719 49.629 50.6594 47.6117C51.3909 47.2082 51.616 46.5526 51.3346 45.9978ZM28.7142 2.77705C28.6017 2.77705 28.658 2.77705 28.7142 2.77705V2.77705Z" fill="#FE5D7C"/>
<path d="M113.68 47.2688C113.68 47.2242 113.705 47.1796 113.705 47.1127C113.729 46.6445 113.583 46.1094 113.583 45.5296C113.632 40.4905 113.583 37.7703 112.586 35.6743C112.562 35.5406 112.538 35.4291 112.538 35.3176C112.246 24.5035 105.753 17.9705 99.5038 16.8779C99.4795 16.8779 99.4309 16.8556 99.4065 16.8556C99.3093 16.8333 99.1877 16.7887 99.0661 16.7664C99.0661 16.7664 99.0661 16.7664 99.0418 16.7664C98.9202 16.7441 98.8229 16.6996 98.7014 16.655H98.677C98.5555 16.6104 98.4339 16.5881 98.3123 16.5435H98.288C98.1664 16.4989 98.0448 16.4543 97.9232 16.4097C97.9232 16.4097 97.9232 16.4097 97.8989 16.4097C97.7773 16.3651 97.6314 16.3205 97.5098 16.2759C97.1208 16.1421 96.7074 15.986 96.3426 15.83C95.4429 15.4509 94.6648 15.0273 94.2514 14.6482C93.6435 14.0685 93.3031 13.4888 93.0842 12.9536C93.3274 12.6192 93.5219 12.307 93.6192 12.0172C93.8137 11.482 94.0569 10.9692 94.1785 10.3449C94.446 9.98814 94.6405 9.60909 94.8107 9.23004C95.0052 8.73951 94.7621 8.51654 95.0782 8.0483C95.297 7.69155 95.4186 7.3125 95.3457 6.93345C95.2727 6.5544 95.5159 6.26453 95.5645 5.93008C95.6131 5.57333 95.3943 5.23887 95.3213 4.90441C95.2484 4.54766 95.37 4.2355 95.2241 3.87875C95.1025 3.61119 94.7621 3.41051 94.5919 3.18754C94.373 2.89768 94.3001 2.67471 94.0569 2.40715C93.7894 2.11728 93.4247 2.05039 93.0599 1.89431C92.5493 1.64905 92.3304 1.40378 91.7468 1.29229C90.7498 1.11392 89.8501 0.980134 88.8045 1.00243H88.7316C87.6859 0.980134 86.7862 1.11392 85.7893 1.29229C85.2057 1.40378 84.9868 1.64905 84.4762 1.89431C84.1114 2.07269 83.7467 2.11728 83.4792 2.40715C83.236 2.67471 83.1631 2.89768 82.9442 3.18754C82.774 3.41051 82.4336 3.61119 82.312 3.87875C82.1661 4.2355 82.2877 4.54766 82.2147 4.90441C82.1418 5.23887 81.9472 5.57333 81.9716 5.93008C82.0202 6.26453 82.2633 6.57669 82.1904 6.93345C82.1174 7.3125 82.239 7.69155 82.4579 8.0483C82.7497 8.51654 82.5065 8.73951 82.7254 9.23004C82.8956 9.60909 83.0901 9.98814 83.3576 10.3449C83.4792 10.9692 83.7223 11.4597 83.9169 12.0172C84.0141 12.307 84.1844 12.6415 84.4518 12.9536C84.233 13.4888 83.8926 14.0685 83.2846 14.6482C82.8956 15.0273 82.0931 15.4509 81.1934 15.83C80.6828 16.0529 80.1478 16.2536 79.6372 16.432C79.5156 16.4766 79.394 16.5212 79.2481 16.5658C79.2481 16.5658 79.2481 16.5658 79.2238 16.5658C79.1022 16.6104 78.9806 16.655 78.859 16.6773C78.859 16.6773 78.859 16.6773 78.8347 16.6773C78.7131 16.7218 78.5915 16.7441 78.4943 16.7887C78.4943 16.7887 78.4943 16.7887 78.47 16.7887C78.3484 16.8333 78.2511 16.8556 78.1295 16.8779C78.1052 16.8779 78.0566 16.9002 78.0323 16.9002C71.7829 17.9928 65.2661 24.5258 64.9986 35.3399C64.9986 35.4291 64.9743 35.5406 64.9499 35.6966C63.9286 37.7926 63.9043 40.5128 63.953 45.5519C63.953 46.1317 63.8314 46.6668 63.8314 47.135C63.8314 47.1796 63.8314 47.2242 63.8557 47.2911C63.345 48.6289 63.6368 50.1005 64.1475 51.3269C65.3633 54.337 67.7463 55.6971 68.257 55.2511C68.7676 54.8052 68.0381 54.2255 67.4789 53.1552C66.6035 51.4829 67.3086 50.5688 67.2357 49.8553C67.6248 50.4127 67.8679 50.1674 68.4758 51.7728C68.7433 52.4417 69.9592 52.5978 69.9348 52.5309C69.8619 51.9066 69.6917 51.2377 69.5458 50.5242C69.1567 48.6289 68.5731 48.183 68.1597 47.737C68.1841 47.6924 68.2084 47.6479 68.2327 47.6033C68.2327 47.6033 68.257 47.0681 68.3786 46.6445C69.0838 44.0357 71.5884 41.4493 71.6127 37.6142C71.6127 36.7 71.564 35.9865 71.4911 35.4068C72.3422 34.3365 73.3392 32.7757 74.3118 31.1257C74.3118 31.1703 74.3118 31.2149 74.3118 31.2595C74.3118 31.2818 74.3118 31.3041 74.3118 31.3041C74.3118 31.3264 74.3118 31.371 74.3118 31.3933C74.3118 31.4156 74.3118 31.4379 74.3118 31.4602C74.3118 31.5048 74.3118 31.5271 74.2875 31.5717C74.2875 31.594 74.2875 31.6163 74.2632 31.6386C74.2632 31.6832 74.2389 31.7278 74.2389 31.7724C74.2389 31.7947 74.2146 31.8169 74.2146 31.8615C74.1902 31.9284 74.1902 31.973 74.1659 32.0399C74.1659 32.0622 74.1659 32.0845 74.1416 32.0845C74.1173 32.1291 74.1173 32.196 74.093 32.2406C74.0687 32.2852 74.0687 32.3298 74.0443 32.3967C74.0443 32.3967 74.0443 32.3967 74.0443 32.419C74.02 32.5082 73.9957 32.575 73.9714 32.6642C73.9228 32.798 73.8741 32.9318 73.8255 33.0656C73.023 35.3622 71.5397 39.2419 71.4425 43.8797C71.4182 44.1695 71.4181 44.4594 71.4181 44.7715C71.4181 44.8384 71.4181 44.9053 71.4181 44.9499C71.4181 45.1729 71.4181 45.3736 71.4181 45.5965C71.4181 45.708 71.4181 45.8195 71.4181 45.9533C71.4181 46.1094 71.4182 46.2654 71.4425 46.4215C71.4425 46.5776 71.4668 46.7337 71.4668 46.8675C71.4668 46.9566 71.4668 47.0235 71.4911 47.1127C71.5884 48.6289 71.7829 50.1897 72.0261 51.7505C72.9258 57.1464 74.6036 62.3862 75.6006 64.2814C76.7678 66.5111 77.862 67.6483 78.3241 70.4131C78.5915 72.0854 78.1538 74.3151 78.1782 76.9462C78.2511 80.9373 80.8287 87.1359 82.4092 91.1494C82.5551 91.5061 81.6554 93 81.5582 93.669C81.388 94.8953 80.5612 95.6088 80.391 96.3223C80.1478 97.4371 83.2603 97.7716 84.1114 97.8385C84.8166 97.8831 87.9534 98.4851 87.9778 97.0358C88.0021 96.5453 87.3942 95.2074 87.2483 93.825C87.1024 92.3757 87.0051 91.6176 86.9565 90.9041C86.7619 87.8717 88.0993 82.6096 88.3182 78.061C88.4884 74.5381 87.7589 72.8881 87.613 71.0375C87.4914 69.499 88.1723 68.7854 87.7103 65.4632C87.613 64.7497 88.61 58.7741 88.7559 52.7762C88.7559 52.3971 88.7802 52.3971 88.7802 52.7762C88.9018 58.7964 89.9231 64.7497 89.8258 65.4632C89.3638 68.7854 90.0447 69.499 89.9231 71.0375C89.7772 72.9104 89.0477 74.5381 89.2179 78.061C89.4367 82.6096 90.7741 87.8717 90.5796 90.9041C90.531 91.6176 90.4337 92.3757 90.2878 93.825C90.1419 95.2297 89.5583 96.5453 89.5583 97.0358C89.607 98.4628 92.7438 97.8831 93.4247 97.8385C94.2757 97.7939 97.3883 97.4371 97.1451 96.3223C96.9992 95.6088 96.1724 94.8953 95.9779 93.669C95.8806 92.9777 95.0052 91.4838 95.1268 91.1494C96.7074 87.1359 99.3093 80.9373 99.3579 76.9462C99.4065 74.3151 98.9445 72.0854 99.212 70.4131C99.674 67.6483 100.744 66.5111 101.935 64.2814C102.932 62.3862 104.61 57.1464 105.51 51.7505C105.777 50.1897 105.972 48.6066 106.045 47.0904C106.045 47.0235 106.045 46.9343 106.069 46.8675C106.069 46.7114 106.094 46.5553 106.094 46.3992C106.094 46.2431 106.118 46.0871 106.118 45.931C106.118 45.8195 106.118 45.708 106.118 45.5742C106.118 45.3513 106.118 45.1283 106.118 44.9276C106.118 44.8607 106.118 44.8161 106.118 44.7492C106.118 44.4371 106.094 44.1472 106.094 43.8574C105.972 39.2196 104.513 35.3399 103.711 33.0433C103.662 32.9095 103.613 32.7757 103.565 32.6419C103.54 32.5528 103.492 32.4413 103.467 32.3521C103.443 32.3075 103.443 32.2852 103.419 32.2406C103.394 32.1737 103.37 32.1291 103.37 32.0622C103.37 32.0399 103.37 32.0176 103.346 32.0176C103.322 31.9507 103.322 31.8838 103.297 31.8392C103.297 31.8169 103.273 31.7947 103.273 31.7501C103.249 31.7055 103.249 31.6609 103.249 31.594C103.249 31.5717 103.249 31.5494 103.224 31.5271C103.224 31.4825 103.2 31.4379 103.2 31.4156C103.2 31.3933 103.2 31.371 103.2 31.3487C103.2 31.3264 103.2 31.2818 103.2 31.2595C103.2 31.2372 103.2 31.2149 103.2 31.2149C103.2 31.1703 103.2 31.1257 103.2 31.0811C104.173 32.7534 105.17 34.2919 106.021 35.3622C105.948 35.9419 105.899 36.6554 105.899 37.5696C105.923 41.4047 108.404 43.9911 109.133 46.5999C109.255 47.0235 109.279 47.5587 109.279 47.5587C109.303 47.6033 109.328 47.6479 109.352 47.6924C108.939 48.1384 108.355 48.5843 107.966 50.4796C107.82 51.1931 107.65 51.862 107.577 52.4863C107.577 52.5532 108.793 52.3971 109.036 51.7282C109.668 50.1228 109.911 50.3681 110.276 49.8107C110.227 50.5242 110.908 51.4161 110.033 53.1106C109.474 54.1809 108.744 54.7606 109.255 55.2066C109.765 55.6525 112.148 54.2924 113.364 51.2823C113.899 50.0782 114.191 48.6066 113.68 47.2688Z" fill="#FE5D7C"/>
</svg>
