<svg width="89" height="99" viewBox="0 0 89 99" fill="none" xmlns="http://www.w3.org/2000/svg">
<path d="M36.9993 43.5055C36.9993 41.5608 35.8493 38.9678 34.9731 37.2226C35.0826 33.5824 35.1921 31.2388 34.2064 26.5515C33.7136 24.158 30.6469 20.9666 24.0208 20.2187C22.7065 20.0691 21.8304 18.4235 21.8304 18.4235C21.7756 17.8251 21.9399 17.1769 21.9399 17.1769C22.2685 14.7335 23.4732 14.0853 24.0208 11.6918C24.5684 9.29825 24.1303 6.35623 21.9946 5.10961C21.7208 4.96001 21.447 4.86028 21.1732 4.76055C21.2827 3.76326 20.7351 2.66623 19.8042 2.21744C19.4209 2.01799 19.0375 1.96812 18.6542 2.01799C18.2709 1.96812 17.8328 2.06785 17.5042 2.21744C16.5733 2.66623 16.0804 3.71339 16.1352 4.76055C15.8614 4.86028 15.5876 4.96001 15.3138 5.10961C13.1781 6.35623 12.74 9.29825 13.2876 11.6918C13.8352 14.0853 15.04 15.0826 15.3685 17.4761C15.3685 17.4761 15.4233 17.875 15.259 18.3737C15.259 18.3737 14.6019 20.0691 13.0685 20.3184C6.11384 21.3157 3.54006 24.1081 3.04721 26.5016C2.0615 31.1391 2.22577 33.5326 2.28054 37.1727C1.45912 38.918 0.254375 41.511 0.254375 43.4557C0.254375 50.7858 -0.84086 52.0324 1.51388 56.1214C1.95197 57.0189 2.93768 58.116 3.21149 58.6645C3.7591 58.465 3.37577 57.5176 3.26625 57.368C2.82816 56.62 2.82816 56.8693 2.7734 56.5203C3.15673 57.0688 4.14244 57.717 4.14244 57.717C4.41624 57.4178 4.25195 57.2184 3.10196 55.6227C2.55434 54.8747 2.60911 54.1766 2.88291 53.7278C3.15672 53.7278 3.48529 54.2764 3.70434 54.6254C3.7591 54.8747 3.7591 55.1739 3.81386 55.4232C3.81386 55.5728 4.25196 56.0715 4.36148 56.0216C4.36148 55.872 4.7448 53.0796 3.43053 51.5837C3.15672 51.2346 2.60911 50.4368 3.15672 48.6915C4.41623 44.7023 5.89479 42.5083 5.84003 38.8681C5.84003 38.7185 5.84004 38.6687 5.78528 38.6687C5.78528 38.6687 5.78527 38.6188 5.84003 38.6188C6.16859 37.8708 7.59239 35.3277 7.81144 34.7293C7.37335 34.2805 7.26383 33.9814 7.37336 35.4773C7.70192 36.7738 8.3043 40.8627 8.79715 43.0069C5.73052 45.1012 4.25195 48.8411 4.47099 52.581C4.63528 55.3235 5.4567 57.8168 6.49717 60.3599C6.49717 60.4097 6.49717 60.4097 6.55193 60.4596C7.04479 62.6537 7.53764 64.7978 7.70193 66.2439C7.86621 67.4407 8.35905 69.7345 8.35905 69.7345C8.30429 70.8315 7.5924 73.4743 7.42812 74.5215C6.38765 81.6023 12.8495 88.733 10.2209 95.6143C9.94713 96.3124 9.78285 97.0105 9.72809 97.6588C9.67333 98.5065 11.7543 99.3542 13.2328 98.8057C13.2328 98.8057 16.5733 99.1049 15.9709 97.2599C15.0947 94.4674 14.4376 92.8219 14.2733 90.4782C14.0542 86.8381 15.9709 82.4999 16.3542 78.8099C16.6828 75.8678 16.0804 73.8234 16.3542 70.8814C16.4637 69.5849 16.7923 68.1887 16.8471 66.8922C16.9018 66.1442 17.7233 63.1523 18.4899 59.961C19.2566 63.1024 20.078 66.1442 20.1328 66.8922C20.2423 68.1887 20.5161 69.5849 20.6256 70.8814C20.8994 73.8234 20.297 75.8678 20.6256 78.8099C21.0637 82.4999 22.9804 86.7882 22.7065 90.4782C22.5423 92.772 21.8304 94.4176 21.0089 97.2599C20.4613 99.055 23.747 98.8057 23.747 98.8057C25.2256 99.4041 27.3065 98.5065 27.2517 97.6588C27.197 96.9607 27.0327 96.2626 26.7589 95.6143C24.1303 88.733 30.5922 81.6023 29.5517 74.5215C29.3874 73.4245 28.7303 70.7816 28.6208 69.7345C28.6208 69.7345 29.1136 67.4407 29.2779 66.2439C29.4422 64.8477 29.9351 62.6537 30.4279 60.4596C30.4279 60.4097 30.4279 60.4097 30.4827 60.3599C31.4684 57.8168 32.3445 55.3235 32.5088 52.581C32.7279 48.8411 31.2493 45.1012 28.1827 43.0069C28.6755 40.9126 29.2779 35.7765 29.6065 34.48C29.2779 35.7765 29.1684 35.8264 29.497 35.228C29.716 35.8264 30.7565 37.8708 31.085 38.6188C31.085 38.6687 31.085 38.6687 31.1398 38.6687C31.1398 38.6687 31.085 38.7185 31.085 38.8681C31.0303 42.5083 32.5636 44.7522 33.7683 48.6915C34.316 50.4368 33.7683 51.2845 33.4945 51.5837C32.235 53.0796 32.6184 55.872 32.5636 56.0216C32.7279 56.1214 33.1112 55.6227 33.1112 55.4232C33.166 55.1739 33.166 54.8747 33.2207 54.6254C33.4398 54.2764 33.7683 53.7278 34.0421 53.7278C34.3707 54.1766 34.3707 54.8747 33.8231 55.6227C32.6731 57.2184 32.4541 57.4178 32.7826 57.717C32.7826 57.717 33.7683 57.0688 34.1517 56.5203C34.1517 56.8693 34.1517 56.6699 33.6588 57.368C33.5493 57.5176 33.166 58.5149 33.7136 58.6645C33.9326 58.116 34.9731 57.0189 35.4112 56.1214C38.0945 52.0823 36.9993 50.8357 36.9993 43.5055Z" fill="#FBB03B"/>
<path d="M88.0728 36.3727C88.0728 36.2135 88.0481 36.077 88.0481 35.9861C87.9003 33.5068 87.5799 29.1851 86.619 26.9333C85.7319 24.8634 85.6826 23.9764 85.4116 22.4297C84.5492 17.5849 80.7299 16.1974 78.4876 15.8789C78.4876 15.8562 78.4876 15.8562 78.4876 15.8334C78.4876 15.8334 76.0975 15.2648 75.8757 15.1966V15.2193C74.9147 14.9464 74.1016 14.6279 73.6581 14.0593C73.1653 13.3769 73.0174 13.0585 72.9435 12.4443C72.9435 12.3761 72.9189 12.3079 72.9189 12.2396C72.9189 12.2169 72.9189 12.1941 72.9189 12.1941C72.9189 12.1259 72.9188 12.0804 72.8942 12.0122C72.8942 11.9894 72.8942 11.9667 72.8942 11.9439C72.8942 11.9212 72.8942 11.8984 72.8942 11.8757C73.1406 11.5345 73.2885 11.2161 73.387 10.9659C73.4609 10.7384 73.5349 10.5337 73.5841 10.3062C73.6581 10.238 73.732 10.1698 73.7813 10.1015C74.2248 9.60113 74.5451 9.00975 74.7669 8.41836C74.964 7.91796 74.7422 7.6905 75.0133 7.21284C75.2104 6.84891 75.3336 6.46224 75.2597 6.07556C75.1858 5.68889 75.4075 5.39319 75.4568 5.02926C75.5061 4.66533 75.309 4.32415 75.2351 3.98296C75.1611 3.61903 75.2843 3.3006 75.1365 2.93667C75.0379 2.66372 74.7176 2.45901 74.5698 2.23155C74.3726 1.93586 74.2987 1.7084 74.077 1.43545C73.8306 1.13976 73.5102 1.07152 73.1653 0.912305C72.6971 0.662103 72.5 0.411901 71.9579 0.298173C71.0462 0.116208 70.233 -0.0202655 69.2721 0.00248015C68.3111 -0.0202655 67.4979 0.116208 66.5862 0.298173C66.0195 0.36641 65.8224 0.639358 65.3296 0.866814C64.9846 1.04878 64.6643 1.09427 64.4179 1.38996C64.1961 1.66291 64.1222 1.89037 63.9251 2.18606C63.7526 2.41352 63.4569 2.61823 63.3583 2.89117C63.2351 3.2551 63.3337 3.57354 63.2598 3.93747C63.1859 4.27866 63.0134 4.61984 63.038 4.98377C63.0873 5.3477 63.2844 5.6434 63.2351 6.03007C63.1612 6.41675 63.2844 6.80342 63.4815 7.16735C63.7526 7.64501 63.5308 7.87247 63.7279 8.37287C63.9497 8.96426 64.2454 9.55564 64.7136 10.056C64.7875 10.1243 64.8368 10.1925 64.9107 10.2608C64.9846 10.4655 65.0585 10.6929 65.1078 10.9204C65.1817 11.1933 65.3542 11.5118 65.6006 11.8302C65.6006 11.853 65.6006 11.8757 65.6006 11.8984C65.6006 11.9212 65.6006 11.9439 65.6006 11.9667C65.6006 12.0349 65.6006 12.0804 65.576 12.1486C65.576 12.1714 65.576 12.1941 65.576 12.1941C65.576 12.2624 65.5513 12.3306 65.5513 12.3988C65.4774 13.013 65.3296 13.3542 64.8368 14.0138C64.4179 14.6052 63.5801 14.9236 62.6191 15.1738V15.1511C62.3727 15.2193 60.0072 15.7879 60.0072 15.7879C60.0072 15.8107 60.0072 15.8107 60.0072 15.8334C57.7649 16.1519 53.9457 17.5394 53.0832 22.3842C52.8122 23.9536 52.7629 24.8407 51.8759 26.8878C50.9149 29.1396 50.5946 33.4613 50.4467 35.9406C50.4467 36.0315 50.4221 36.168 50.4221 36.3272C49.2147 38.9202 49.3872 42.3548 50.151 48.0867C50.225 48.6326 50.1757 49.133 50.2249 49.5879C50.0771 50.748 50.4221 51.9307 50.8656 52.9315C52.2455 55.9567 54.7342 57.2305 55.227 56.7756C55.7198 56.2979 54.9559 55.7293 54.3399 54.683C53.3789 52.9998 53.65 52.2947 53.5514 51.5668C53.9703 52.1127 54.1921 51.8625 54.9066 53.4774C55.2023 54.1371 55.8183 53.9324 55.8183 53.8641C55.7198 53.2272 55.498 52.5449 55.3255 51.8398C54.6602 49.2468 53.7978 49.3605 53.3789 48.5416C53.3543 48.3142 53.3543 48.0412 53.4036 47.6773C53.7978 44.9478 55.3748 42.4913 55.3748 38.3061C55.3748 37.9422 55.3502 37.0096 55.153 36.0543C56.0647 34.3711 57.1982 31.6644 58.1099 29.0032C58.1345 29.1169 58.1592 29.2306 58.1838 29.3443C58.9723 32.6879 58.1592 36.1225 57.8389 38.1924C57.7649 38.5791 57.691 39.1022 57.5678 39.7391C57.5678 39.7618 57.5678 39.7618 57.5678 39.7846C57.5678 39.8528 57.5432 39.9211 57.5432 39.9893C57.5432 40.0575 57.5185 40.103 57.5185 40.1713C57.5185 40.2395 57.4939 40.3077 57.4939 40.3987C57.4939 40.4669 57.4693 40.5352 57.4693 40.6034C57.4693 40.6489 57.4446 40.6944 57.4446 40.7399C57.42 40.8536 57.42 40.9674 57.3953 41.0811V41.1038C57.3707 41.2176 57.3707 41.3313 57.3461 41.4678C57.3461 41.4905 57.3461 41.536 57.3214 41.5587C57.2968 41.6952 57.2968 41.8089 57.2721 41.9454C57.2475 42.0819 57.2228 42.2184 57.2228 42.3776C57.2228 42.4003 57.2228 42.4231 57.2228 42.4231C57.1982 42.5595 57.1982 42.696 57.1736 42.8325C57.1736 42.8325 57.1736 42.8325 57.1736 42.8552C57.1489 43.0145 57.1489 43.1509 57.1243 43.3102C57.1243 43.3102 57.1243 43.3102 57.1243 43.3329C57.0996 43.4921 57.0997 43.6286 57.075 43.7878V43.8106C57.075 43.9015 57.0504 43.9698 57.0504 44.0608C57.0257 44.3792 57.0011 44.6976 56.9764 45.0161V45.0388C56.9518 45.3573 56.9272 45.6757 56.9272 46.0169C56.9272 46.0169 56.9272 46.0169 56.9272 46.0396C56.9025 46.3581 56.9025 46.6992 56.9025 47.0177C56.9025 47.0632 56.8779 47.1314 56.8779 47.1769V47.1996C56.8779 47.2679 56.8532 47.3134 56.8532 47.3589C56.8286 47.5408 56.8286 47.7228 56.804 47.9048C56.804 47.9503 56.804 47.9957 56.804 48.0412C56.804 48.2232 56.7793 48.3824 56.7793 48.5644C56.7793 48.5871 56.7793 48.5871 56.7793 48.6099C56.7793 48.8146 56.7793 49.0193 56.7793 49.224C56.7793 49.2695 56.7793 49.315 56.7793 49.3377C56.7793 49.5425 56.7793 49.7244 56.7793 49.9291V49.9519C56.7793 50.1793 56.7793 50.4068 56.804 50.6342C56.804 50.657 56.804 50.6797 56.804 50.7025C56.804 50.9299 56.8286 51.1574 56.8286 51.3848C57.0504 55.2971 57.8881 59.9145 58.8984 63.5538C59.4898 65.7146 60.9682 69.6951 60.7711 71.4238C60.574 73.1297 60.1551 74.9948 60.2044 77.6788C60.2783 81.7503 62.3234 85.1848 62.3974 92.0313C62.3974 92.418 61.6335 93.9192 61.5349 94.6015C61.3625 95.8525 60.5247 96.5804 60.3522 97.3083C60.1058 98.4455 63.7279 98.7867 64.5904 98.855C65.3049 98.9005 67.0791 99.4691 67.1037 97.9906C67.1283 97.4902 66.5123 96.1255 66.3645 94.7153C66.2166 93.2368 66.1181 92.4634 66.0688 91.7356C65.8717 88.6422 67.7443 83.297 67.9661 78.6569C68.1386 75.063 67.3994 73.3799 67.2515 71.492C67.1283 69.9225 67.8183 68.808 67.6951 66.1468C67.6704 65.3734 67.4979 64.5318 67.6458 63.6902C68.2372 60.3694 68.9024 56.3434 69.0503 52.9543C69.0503 52.9088 69.0503 52.8861 69.0503 52.8406C69.0503 52.6586 69.0749 52.4766 69.0749 52.2947C69.0749 52.0672 69.0749 51.8625 69.0749 51.635C69.0996 51.635 69.0996 51.635 69.1242 51.635C69.1735 51.635 69.2228 51.635 69.2721 51.635C69.2967 51.635 69.2967 51.635 69.3213 51.635C69.346 51.635 69.346 51.635 69.3706 51.635C69.4199 51.635 69.4692 51.635 69.5185 51.635C69.5431 51.635 69.5431 51.635 69.5677 51.635C69.5677 51.8398 69.5677 52.0672 69.5677 52.2947C69.5677 52.4994 69.5677 52.7041 69.5924 52.9088C69.5924 52.9315 69.5924 52.9315 69.5924 52.9543C69.7402 56.3434 70.4055 60.3694 70.9969 63.6902C71.1447 64.5318 70.9723 65.3507 70.9476 66.1468C70.8244 68.808 71.4897 69.9225 71.3911 71.492C71.2433 73.4026 70.5041 75.063 70.6766 78.6569C70.8983 83.297 72.771 88.6194 72.5739 91.7356C72.5246 92.4634 72.426 93.2368 72.2782 94.7153C72.1304 96.1482 71.539 97.4902 71.539 97.9906C71.5883 99.4464 73.3624 98.9005 74.0523 98.855C74.9147 98.8095 78.5369 98.4455 78.2905 97.3083C78.1426 96.5804 77.3049 95.8525 77.1077 94.6015C77.0092 93.8964 76.2453 92.3952 76.2453 92.0313C76.3192 85.1848 78.389 81.7503 78.4383 77.6788C78.4876 74.9948 78.0687 73.1297 77.8716 71.4238C77.6745 69.7178 79.1283 65.7146 79.7443 63.5538C80.6313 60.3694 81.3705 56.4571 81.7155 52.9088V52.8861C81.7402 52.6586 81.7648 52.4084 81.7648 52.1809C81.7648 52.1582 81.7648 52.1582 81.7648 52.1355C81.7894 51.8853 81.7894 51.6578 81.8141 51.4076C81.8141 51.3848 81.8141 51.3848 81.8141 51.3621C81.8141 51.1574 81.8387 50.9299 81.8387 50.7252C81.8387 50.7025 81.8387 50.657 81.8387 50.6342C81.8387 50.4068 81.8633 50.1793 81.8633 49.9746C81.8633 49.9519 81.8633 49.9291 81.8633 49.9291C81.8633 49.7472 81.8633 49.5424 81.8633 49.3605C81.8633 49.315 81.8633 49.2695 81.8633 49.224C81.8633 49.0193 81.8633 48.8146 81.8633 48.6326C81.8633 48.6099 81.8633 48.5871 81.8633 48.5871C81.8633 48.4052 81.8387 48.246 81.8387 48.064C81.8387 48.0185 81.8387 47.973 81.8387 47.9275C81.8387 47.7455 81.8141 47.5636 81.7894 47.3816C81.7894 47.3361 81.7894 47.2679 81.7648 47.2224C81.7648 47.1997 81.7648 47.1997 81.7648 47.1769C81.7648 47.1314 81.7401 47.0859 81.7401 47.0404C81.7401 47.0404 81.7401 47.0404 81.7401 47.0177C81.7401 47.0177 81.7401 47.0177 81.7401 46.9949C81.7401 46.6765 81.7155 46.3581 81.7155 46.0169C81.7155 46.0169 81.7155 46.0169 81.7155 45.9941C81.6909 45.6757 81.6909 45.3345 81.6662 45.0161C81.6662 45.0161 81.6662 45.0161 81.6662 44.9933C81.6416 44.6749 81.617 44.3564 81.5923 44.038C81.3952 41.9682 81.0749 40.103 80.8777 38.8975C80.8531 38.8293 80.8531 38.7383 80.8285 38.67V38.6473C80.8285 38.5791 80.8038 38.5108 80.8038 38.4426C80.8038 38.4198 80.8038 38.3971 80.8038 38.3971C80.8038 38.3289 80.7792 38.2606 80.7792 38.1924C80.4342 36.1225 79.6211 32.6879 80.4342 29.3443C80.4588 29.2306 80.4835 29.1169 80.5081 29.0032C81.4198 31.6416 82.5533 34.3711 83.465 36.0543C83.2679 37.0096 83.2432 37.9649 83.2432 38.3061C83.2432 42.4913 84.8202 44.9706 85.2145 47.6773C85.2637 48.0412 85.2637 48.3142 85.2391 48.5416C84.8449 49.3605 83.9578 49.2468 83.2925 51.8398C83.12 52.5449 82.9229 53.25 82.7997 53.8641C82.7997 53.9324 83.4157 54.1371 83.7114 53.4774C84.426 51.8625 84.6477 52.1127 85.0666 51.5668C84.9681 52.2947 85.2391 53.0225 84.2781 54.683C83.6621 55.752 82.8983 56.2979 83.3911 56.7756C83.8839 57.2532 86.3726 55.9567 87.7524 52.9315C88.2206 51.908 88.5409 50.7252 88.3931 49.5879C88.4424 49.133 88.3931 48.6326 88.467 48.0867C89.1077 42.4003 89.2555 38.9657 88.0728 36.3727Z" fill="#FAAF3B"/>
</svg>
