<svg width="31" height="26" viewBox="0 0 31 26" fill="none" xmlns="http://www.w3.org/2000/svg">
<path d="M1.00391 1H15.6843" stroke="#384250" stroke-miterlimit="10" stroke-linecap="round"/>
<path d="M1 3.55273H8.65935" stroke="#384250" stroke-miterlimit="10" stroke-linecap="round"/>
<path d="M10.6875 3.55273H13.8789" stroke="#384250" stroke-miterlimit="10" stroke-linecap="round"/>
<path d="M28.0867 4.82968C29.1442 4.82968 30.0016 3.97237 30.0016 2.91484C30.0016 1.8573 29.1442 1 28.0867 1C27.0292 1 26.1719 1.8573 26.1719 2.91484C26.1719 3.97237 27.0292 4.82968 28.0867 4.82968Z" stroke="#384250" stroke-miterlimit="10"/>
<path d="M29.4091 19.1537C29.4091 17.1612 28.2957 15.9306 26.3033 15.7548L25.0726 12.2387H25.1898C25.4828 12.2387 25.7172 12.0043 25.7172 11.7113C25.7172 11.4183 25.4828 11.1839 25.1898 11.1839H20.8533V10.9494C20.8533 10.0118 20.0915 9.25 19.1538 9.25H6.43726C5.49964 9.25 4.73781 10.0118 4.73781 10.9494V13.0591H1.51472C1.22171 13.0591 0.987305 13.2935 0.987305 13.5865C0.987305 13.8795 1.22171 14.1139 1.51472 14.1139H4.73781V15.2274H2.33514C2.04213 15.2274 1.80773 15.4618 1.80773 15.7548C1.80773 16.0478 2.04213 16.2822 2.33514 16.2822H4.73781V17.6301H2.86256C2.56955 17.6301 2.33514 17.8645 2.33514 18.1575C2.33514 18.4505 2.56955 18.6849 2.86256 18.6849H4.73781V22.201H4.269V23.2558H6.96468C7.25769 24.4864 8.37112 25.4241 9.71896 25.4241C11.0668 25.4241 12.1802 24.4864 12.4732 23.2558H21.9667C22.2597 24.4864 23.3732 25.4241 24.721 25.4241C26.0689 25.4241 27.1823 24.4864 27.4753 23.2558H29.9952V22.201H29.5264V19.1537H29.4091ZM23.9592 12.2387L25.1898 15.6962H20.8533V12.2387H23.9592ZM9.66036 24.3106C8.66413 24.3106 7.84371 23.4902 7.84371 22.494C7.84371 21.4978 8.66413 20.6773 9.66036 20.6773C10.6566 20.6773 11.477 21.4978 11.477 22.494C11.477 23.4902 10.6566 24.3106 9.66036 24.3106ZM9.66036 19.6811C8.25392 19.6811 7.08189 20.7359 6.84748 22.1424H5.79265V18.6263H6.61307C6.90608 18.6263 7.14049 18.3919 7.14049 18.0989C7.14049 17.8058 6.90608 17.5714 6.61307 17.5714H5.79265V16.2236H7.84371C8.13672 16.2236 8.37112 15.9892 8.37112 15.6962C8.37112 15.4032 8.13672 15.2274 7.84371 15.2274H5.79265V11.0081C5.79265 10.6564 6.08565 10.3634 6.43726 10.3634H19.1538C19.5055 10.3634 19.7985 10.6564 19.7985 11.0081V22.1424H12.4732C12.2974 20.7359 11.1254 19.6811 9.66036 19.6811ZM24.6038 24.3106C23.6076 24.3106 22.7872 23.4902 22.7872 22.494C22.7872 21.4978 23.6076 20.6773 24.6038 20.6773C25.6 20.6773 26.4205 21.4978 26.4205 22.494C26.4205 23.4902 25.6 24.3106 24.6038 24.3106ZM24.6038 19.6811C23.1974 19.6811 22.0253 20.7359 21.7909 22.1424H20.7947V16.751H25.6586C27.4167 16.751 28.2957 17.5128 28.2957 19.1537V22.1424H27.2995C27.2409 20.7359 26.0688 19.6811 24.6038 19.6811Z" fill="#384250"/>
<path d="M9.67088 21.3203C9.02622 21.3203 8.49878 21.8478 8.49878 22.4924C8.49878 23.1371 9.02622 23.6645 9.67088 23.6645C10.3155 23.6645 10.843 23.1371 10.843 22.4924C10.843 21.8478 10.3155 21.3203 9.67088 21.3203ZM9.55367 22.4924C9.55367 22.4338 9.61227 22.3752 9.67088 22.3752C9.72948 22.3752 9.78809 22.4338 9.78809 22.4924C9.8467 22.6682 9.55367 22.6682 9.55367 22.4924Z" fill="#384250"/>
<path d="M24.6091 21.3203C23.9645 21.3203 23.437 21.8478 23.437 22.4924C23.437 23.1371 23.9645 23.6645 24.6091 23.6645C25.2538 23.6645 25.7812 23.1371 25.7812 22.4924C25.7812 21.8478 25.2538 21.3203 24.6091 21.3203ZM24.4919 22.4924C24.4919 22.4338 24.5505 22.3752 24.6091 22.3752C24.6677 22.3752 24.7263 22.4338 24.7263 22.4924C24.7849 22.6682 24.4919 22.6682 24.4919 22.4924Z" fill="#384250"/>
<path d="M1.34792 17.5713H0.527446C0.234421 17.5713 0 17.8057 0 18.0987C0 18.3918 0.234421 18.6262 0.527446 18.6262H1.34792C1.64094 18.6262 1.87536 18.3918 1.87536 18.0987C1.87536 17.8057 1.58234 17.5713 1.34792 17.5713Z" fill="#384250"/>
</svg>
