<svg width="17" height="21" viewBox="0 0 17 21" fill="none" xmlns="http://www.w3.org/2000/svg">
<path d="M5.92871 16.7163C5.69892 17.0164 5.32004 17.2781 4.82757 17.4362C4.31814 17.5852 3.76625 17.4542 3.48658 17.1929C3.26556 16.9858 3.1788 16.7613 3.1838 16.5621L3.18396 16.5621V16.5495V1.6659C3.18528 1.41763 3.32138 1.13317 3.65049 0.894256L3.65049 0.894257L3.65142 0.893579C3.9327 0.688396 4.31747 0.548453 4.74364 0.510418H4.97433H14.7078C15.224 0.511624 15.6977 0.662705 16.0284 0.903976L16.0301 0.905169C16.3566 1.14139 16.4941 1.42256 16.4988 1.66884V16.5495V16.5575L16.499 16.5654C16.5054 16.7639 16.4208 16.9873 16.2034 17.1941C15.922 17.4566 15.3669 17.5874 14.8558 17.4364C14.363 17.2783 13.9839 17.0165 13.754 16.7163L13.7453 16.7049L13.7359 16.694L10.2201 12.6144L9.84138 12.1749L9.46262 12.6144L5.9469 16.694L5.93748 16.7049L5.92871 16.7163Z" fill="white" stroke="#9EA9B9"/>
<path d="M12.0248 3.01042C12.6309 3.01172 13.2115 3.18778 13.6395 3.50005C14.0662 3.80867 14.3089 4.22699 14.3152 4.66474V19.5495C14.3268 19.9133 14.1672 20.2692 13.8629 20.5579C13.4297 20.9636 12.6779 21.1093 12.0248 20.9142C11.4524 20.7316 10.9778 20.4177 10.6735 20.0204L7.15778 15.9408L3.64206 20.0204C3.33773 20.4177 2.86319 20.7316 2.29074 20.9142C1.64006 21.1069 0.892754 20.9614 0.461305 20.5579C0.153894 20.27 -0.00879467 19.9141 0.000366822 19.5495V4.66474C0.00215618 4.22371 0.244077 3.80112 0.673164 3.48963C1.10189 3.17689 1.68372 3.00078 2.29074 3V3.01042H12.0248Z" fill="#9EA9B9"/>
<path d="M7.20846 11.5064L5 9.47875L5.41899 9.01941L7.1032 10.5671L9.5614 7L10.0691 7.35381L7.20846 11.5064Z" fill="white" stroke="white" stroke-linecap="round" stroke-linejoin="round"/>
</svg>
