<svg width="35" height="35" viewBox="0 0 35 35" fill="none" xmlns="http://www.w3.org/2000/svg">
<rect x="0.5" y="0.5" width="34" height="34" rx="6.5" stroke="#22AAEC"/>
<path d="M20.2537 13.924L21.7015 15.1837C21.8001 15.2695 21.9248 15.3161 22.0532 15.3161C22.0686 15.3161 22.0841 15.3155 22.0996 15.3141C22.244 15.3014 22.3774 15.2302 22.4703 15.1161L25.1948 11.7737C25.3876 11.5372 25.3571 11.1851 25.1267 10.9872C24.8963 10.7894 24.5533 10.8206 24.3606 11.0571L21.9873 13.9686L20.9572 13.0722C20.7281 12.8728 20.3848 12.9018 20.1906 13.1371C19.9963 13.3724 20.0246 13.7246 20.2537 13.924Z" fill="#22AAEC"/>
<path d="M27.985 13.0424C27.9933 10.2748 25.8142 8.02426 23.1179 8.01577C20.4217 8.00727 18.2292 10.244 18.2209 13.0117C18.2127 15.7793 20.3917 18.0298 23.088 18.0383C25.7843 18.0468 27.9767 15.8101 27.985 13.0424Z" stroke="#22AAEC" stroke-miterlimit="10" stroke-linecap="round" stroke-linejoin="round"/>
<path fill-rule="evenodd" clip-rule="evenodd" d="M8.39622 28H23.393C23.611 28 23.7893 27.8269 23.7893 27.6154V18.4251H22.9968V27.2308H8.79243V12.0192L12.1405 8.76923H18.0089V8H11.9622C11.8631 8 11.7641 8.03846 11.6848 8.13462L8.11887 11.5962C8.03962 11.6731 8 11.7692 8 11.8654V27.6154C8 27.8269 8.1783 28 8.39622 28ZM9.18799 13.2778H12.7539C12.9719 13.2778 13.1502 13.0951 13.1502 12.8718V9.21794H12.3577V12.4658H9.18799V13.2778Z" fill="#22AAEC"/>
<path d="M12.0415 19.2712H10.6745C10.4566 19.2712 10.2783 19.0885 10.2783 18.8652V17.4443C10.2783 17.221 10.4566 17.0383 10.6745 17.0383H12.0415C12.2594 17.0383 12.4377 17.221 12.4377 17.4443V18.8652C12.4377 19.0885 12.2594 19.2712 12.0415 19.2712ZM11.0509 18.4592H11.6255V17.8502H11.0509V18.4592Z" fill="#22AAEC"/>
<path d="M21.3724 19.3729H13.9631V20.1849H21.3724V19.3729Z" fill="#22AAEC"/>
<path d="M17.7422 16.8889H13.9631V17.7009H17.7422V16.8889Z" fill="#22AAEC"/>
<path d="M12.0415 23.9199H10.6745C10.4566 23.9199 10.2783 23.7373 10.2783 23.514V22.1133C10.2783 21.89 10.4566 21.7073 10.6745 21.7073H12.0415C12.2594 21.7073 12.4377 21.89 12.4377 22.1133V23.514C12.4377 23.7373 12.2594 23.9199 12.0415 23.9199ZM11.0509 23.108H11.6255V22.5193H11.0509V23.108Z" fill="#22AAEC"/>
<path d="M21.3724 21.7073H13.9631V22.5193H21.3724V21.7073Z" fill="#22AAEC"/>
<path d="M21.3724 24.0217H13.9631V24.8336H21.3724V24.0217Z" fill="#22AAEC"/>
</svg>
