<svg width="35" height="35" viewBox="0 0 35 35" fill="none" xmlns="http://www.w3.org/2000/svg">
<rect width="35" height="35" rx="7" fill="#22AAEC"/>
<path d="M20.2537 13.9241L21.7015 15.1838C21.8001 15.2696 21.9248 15.3162 22.0532 15.3162C22.0686 15.3162 22.0841 15.3155 22.0996 15.3142C22.244 15.3015 22.3774 15.2302 22.4703 15.1162L25.1948 11.7737C25.3876 11.5373 25.3571 11.1852 25.1267 10.9873C24.8963 10.7895 24.5533 10.8207 24.3606 11.0572L21.9873 13.9686L20.9572 13.0723C20.7281 12.8729 20.3848 12.9018 20.1906 13.1372C19.9963 13.3724 20.0246 13.7247 20.2537 13.9241V13.9241Z" fill="white"/>
<path d="M27.9851 13.0422C27.9934 10.2745 25.8143 8.02401 23.118 8.01552C20.4218 8.00703 18.2293 10.2438 18.221 13.0114C18.2128 15.7791 20.3918 18.0296 23.0881 18.0381C25.7843 18.0466 27.9768 15.8098 27.9851 13.0422Z" stroke="white" stroke-miterlimit="10" stroke-linecap="round" stroke-linejoin="round"/>
<path fill-rule="evenodd" clip-rule="evenodd" d="M8.39622 28H23.393C23.611 28 23.7893 27.8269 23.7893 27.6154V18.4251H22.9968V27.2308H8.79243V12.0192L12.1405 8.76923H18.0089V8H11.9622C11.8631 8 11.7641 8.03846 11.6848 8.13462L8.11887 11.5962C8.03962 11.6731 8 11.7692 8 11.8654V27.6154C8 27.8269 8.1783 28 8.39622 28ZM9.18799 13.2778H12.7539C12.9719 13.2778 13.1502 13.0951 13.1502 12.8718V9.21794H12.3577V12.4658H9.18799V13.2778Z" fill="white"/>
<path d="M12.0415 19.2712H10.6745C10.4566 19.2712 10.2783 19.0885 10.2783 18.8653V17.4443C10.2783 17.221 10.4566 17.0383 10.6745 17.0383H12.0415C12.2594 17.0383 12.4377 17.221 12.4377 17.4443V18.8653C12.4377 19.0885 12.2594 19.2712 12.0415 19.2712ZM11.0509 18.4593H11.6255V17.8503H11.0509V18.4593Z" fill="white"/>
<path d="M21.3722 19.373H13.9629V20.185H21.3722V19.373Z" fill="white"/>
<path d="M17.742 16.8889H13.9629V17.7009H17.742V16.8889Z" fill="white"/>
<path d="M12.0415 23.9199H10.6745C10.4566 23.9199 10.2783 23.7372 10.2783 23.5139V22.1133C10.2783 21.89 10.4566 21.7073 10.6745 21.7073H12.0415C12.2594 21.7073 12.4377 21.89 12.4377 22.1133V23.5139C12.4377 23.7372 12.2594 23.9199 12.0415 23.9199ZM11.0509 23.1079H11.6255V22.5192H11.0509V23.1079Z" fill="white"/>
<path d="M21.3722 21.7073H13.9629V22.5192H21.3722V21.7073Z" fill="white"/>
<path d="M21.3722 24.0217H13.9629V24.8337H21.3722V24.0217Z" fill="white"/>
</svg>
