<svg width="35" height="35" viewBox="0 0 35 35" fill="none" xmlns="http://www.w3.org/2000/svg">
<rect width="35" height="35" rx="7" fill="#22AAEC"/>
<path d="M29.4949 20.0842C29.4949 18.367 28.5354 17.3064 26.8182 17.1549L25.7576 14.1246H25.8586C26.1111 14.1246 26.3131 13.9226 26.3131 13.67C26.3131 13.4175 26.1111 13.2155 25.8586 13.2155H22.1212V11.4646C22.1212 10.6566 21.4646 10 20.6566 10H9.69697C8.88889 10 8.23232 10.6566 8.23232 11.4646V14.8316H5.45454C5.20202 14.8316 5 15.0337 5 15.2862C5 15.5387 5.20202 15.7407 5.45454 15.7407H8.23232V16.7003H6.16161C5.90909 16.7003 5.70707 16.9024 5.70707 17.1549C5.70707 17.4074 5.90909 17.6094 6.16161 17.6094H8.23232V18.771H7.47797C7.22544 18.771 7.02342 18.9731 7.02342 19.2256C7.02342 19.4781 7.22544 19.6801 7.47797 19.6801H8.23232V22.7104H7.82828V23.6195H10.1515C10.404 24.6801 11.3636 25.4882 12.5252 25.4882C13.6869 25.4882 14.6465 24.6801 14.899 23.6195H23.0808C23.3333 24.6801 24.2929 25.4882 25.4545 25.4882C26.6162 25.4882 27.5758 24.6801 27.8283 23.6195H30V22.7104H29.596V20.0842H29.4949ZM24.798 14.1246L25.8586 17.1044H22.1212V14.1246H24.798ZM12.4747 24.5286C11.6162 24.5286 10.9091 23.8215 10.9091 22.963C10.9091 22.1044 11.6162 21.3973 12.4747 21.3973C13.3333 21.3973 14.0404 22.1044 14.0404 22.963C14.0404 23.8215 13.3333 24.5286 12.4747 24.5286ZM12.4747 20.5387C11.2626 20.5387 10.2525 21.4478 10.0505 22.6599H9.14141V19.6296H9.84848C10.101 19.6296 10.303 19.4276 10.303 19.1751C10.303 18.9226 10.101 18.7205 9.84848 18.7205H9.14141V17.5589H10.9091C11.1616 17.5589 11.3636 17.3569 11.3636 17.1044C11.3636 16.8519 11.1616 16.7003 10.9091 16.7003H9.14141V11.5152C9.14141 11.2121 9.39394 10.9596 9.69697 10.9596H20.6566C20.9596 10.9596 21.2121 11.2121 21.2121 11.5152V22.6599H14.899C14.7475 21.4478 13.7374 20.5387 12.4747 20.5387ZM25.3535 24.5286C24.4949 24.5286 23.7879 23.8215 23.7879 22.963C23.7879 22.1044 24.4949 21.3973 25.3535 21.3973C26.2121 21.3973 26.9192 22.1044 26.9192 22.963C26.9192 23.8215 26.2121 24.5286 25.3535 24.5286ZM25.3535 20.5387C24.1414 20.5387 23.1313 21.4478 22.9293 22.6599H22.0707V18.0135H26.2626C27.7778 18.0135 28.5354 18.67 28.5354 20.0842V22.6599H27.6768C27.6263 21.4478 26.6162 20.5387 25.3535 20.5387Z" fill="white"/>
<path d="M12.4848 21.9519C11.9292 21.9519 11.4746 22.4065 11.4746 22.9621C11.4746 23.5176 11.9292 23.9722 12.4848 23.9722C13.0404 23.9722 13.4949 23.5176 13.4949 22.9621C13.4949 22.4065 13.0404 21.9519 12.4848 21.9519ZM12.3838 22.9621C12.3838 22.9116 12.4343 22.861 12.4848 22.861C12.5353 22.861 12.5858 22.9116 12.5858 22.9621C12.6363 23.1136 12.3838 23.1136 12.3838 22.9621Z" fill="white"/>
<path d="M25.3588 21.9519C24.8032 21.9519 24.3486 22.4065 24.3486 22.9621C24.3486 23.5176 24.8032 23.9722 25.3588 23.9722C25.9144 23.9722 26.3689 23.5176 26.3689 22.9621C26.3689 22.4065 25.9144 21.9519 25.3588 21.9519ZM25.2578 22.9621C25.2578 22.9116 25.3083 22.861 25.3588 22.861C25.4093 22.861 25.4598 22.9116 25.4598 22.9621C25.5103 23.1136 25.2578 23.1136 25.2578 22.9621Z" fill="white"/>
<path d="M6.17242 18.7209H5.46531C5.21277 18.7209 5.01074 18.923 5.01074 19.1755C5.01074 19.4281 5.21277 19.6301 5.46531 19.6301H6.17242C6.42496 19.6301 6.627 19.4281 6.627 19.1755C6.627 18.923 6.37446 18.7209 6.17242 18.7209Z" fill="white"/>
</svg>
