<svg width="85" height="98" viewBox="0 0 85 98" fill="none" xmlns="http://www.w3.org/2000/svg">
<path d="M34.5249 35.6665C34.6377 31.9857 35.3145 30.1201 34.2429 25.3804C33.7354 22.9602 31.2539 18.876 22.738 17.8171C20.9897 17.6155 21.6101 15.3465 21.6101 15.3465C21.9485 12.8758 23.302 12.2203 23.866 9.80005C24.4299 7.37979 23.9787 4.4049 21.6665 3.14435C21.3845 2.99308 21.1025 2.89224 20.7641 2.79139C20.8769 1.78296 20.313 0.673672 19.2978 0.219874C18.903 0.0181862 18.4519 -0.0322358 18.0571 0.0181862C17.6059 -0.0322358 17.2111 0.0686082 16.8164 0.219874C15.8012 0.673672 15.2373 1.78296 15.35 2.79139C15.0681 2.89224 14.7297 2.99308 14.4477 3.14435C12.1354 4.4049 11.6279 7.37979 12.2482 9.80005C12.8122 12.2203 14.1657 13.2287 14.5041 15.649C14.5041 15.649 14.6733 17.7667 12.7558 18.2709C4.74746 20.2374 2.4352 22.9602 1.92763 25.3804C0.912488 30.0697 1.53285 31.9353 1.64565 35.6665C0.743298 37.4313 -0.102649 39.5994 0.0101441 41.5659C0.686905 51.0956 -0.666615 51.1461 1.87124 55.3311C2.32241 56.2387 2.94277 56.8942 3.16835 57.4488C3.78872 57.2471 3.33755 56.2891 3.28116 56.1379C2.77358 55.3815 2.77358 55.6336 2.77358 55.2807C3.16836 55.8353 4.2399 56.4908 4.2399 56.4908C4.57828 56.1883 4.35269 55.9866 3.11196 54.3731C2.548 53.6168 2.54799 52.9108 2.88637 52.457C3.22475 52.457 3.56314 53.0117 3.78872 53.3646C3.84512 53.6168 3.84512 53.9193 3.90151 54.1714C3.90151 54.3227 4.35269 54.8269 4.52188 54.7765C4.52188 54.6252 4.91665 52.4066 3.61953 50.7931C2.88637 49.8351 3.05556 48.3224 3.22476 47.314C3.84512 43.8853 5.64981 40.5575 5.59342 36.8767C5.59342 36.3724 5.64982 35.8682 5.81901 35.364C6.43937 33.3471 6.83415 32.4395 7.05973 30.7252C7.39811 31.8345 8.07487 32.9437 9.03362 33.8513C9.03362 33.8513 9.71038 35.4648 9.03362 37.28C7.84929 40.5575 7.90568 40.86 7.11612 42.1205C5.53702 44.5408 4.86026 46.5577 4.97306 49.3813C4.80387 51.7511 5.42423 54.6756 6.04459 57.9026C6.72135 61.2305 6.83414 60.4741 7.28532 63.802C7.45451 65.0121 7.6801 66.4239 7.6237 67.6845C7.5673 68.7938 7.17252 71.1132 7.00333 72.172C5.8754 79.332 9.87957 87.7524 7.05973 94.7107C6.77775 95.4166 6.60855 96.1225 6.55216 96.778C6.49576 97.6351 9.4284 97.9377 10.3307 97.9377C10.3307 97.9377 13.9401 98.2402 13.3198 96.3746C12.4174 93.551 12.079 91.887 11.9098 89.5172C11.6279 85.8364 14.5605 80.0883 15.0117 76.4075C15.35 73.4326 15.0117 71.4661 15.35 68.4912C15.4628 67.1803 15.8012 65.7684 15.914 64.4575C16.0268 63.2978 17.8879 58.2556 18.1699 53.7176C18.4519 57.7514 20.2002 62.4406 20.2002 64.4575C20.2002 65.7684 20.6513 66.5752 20.7641 67.8862C21.1025 70.8611 20.7077 73.483 21.0461 76.4579C21.4973 80.1891 24.4299 85.8364 24.2043 89.5676C24.0351 91.887 23.7532 93.6014 22.7944 96.425C22.174 98.2402 25.7834 97.9881 25.7834 97.9881C26.6858 97.9881 29.6184 97.6856 29.562 96.8284C29.5056 96.1225 29.3364 95.4166 29.0544 94.7611C26.2346 87.8028 30.2388 79.3824 29.1108 72.2225C28.9417 71.1132 28.6033 68.7938 28.4905 67.7349C28.3777 66.4744 28.6597 65.0625 28.8289 63.8524C29.28 60.5246 29.7876 60.9279 30.4644 57.6001C31.0847 54.3227 31.3103 51.8016 31.1411 49.3813C31.2539 46.5073 30.5772 44.5408 28.998 42.1205C28.2085 40.86 28.2649 40.5575 27.0806 37.28C26.4602 35.5153 27.0806 33.8513 27.0806 33.8513C28.4341 32.4395 28.9417 31.3302 29.0544 30.4731C29.28 32.0361 29.6748 33.3975 30.2952 35.4144C30.4644 35.9186 30.5208 36.4229 30.5208 36.9271C30.4644 40.6079 32.2691 43.9357 32.8894 47.3644C33.0586 48.3729 33.2842 49.8855 32.4946 50.8435C31.1975 52.457 31.5923 54.6756 31.5923 54.8269C31.7615 54.9277 32.1563 54.4235 32.2127 54.2218C32.2691 53.9697 32.2691 53.6672 32.3255 53.4151C32.551 53.0621 32.9458 52.5075 33.2278 52.5075C33.5662 52.9613 33.6226 53.6672 33.0022 54.4235C31.7615 56.037 31.5359 56.2387 31.8743 56.5412C31.8743 56.5412 32.9458 55.8857 33.3406 55.3311C33.2842 55.684 33.2842 55.4824 32.833 56.1883C32.7202 56.3395 32.3255 57.348 32.9458 57.4992C33.2278 56.9446 33.7918 56.2891 34.2429 55.3815C36.7808 51.1965 35.3709 51.1965 36.104 41.6163C36.2732 39.5994 35.4273 37.4313 34.5249 35.6665Z" fill="#F5E664"/>
<path d="M83.835 47.0706C84.4167 41.28 84.6349 38.5086 83.3261 36.1428C83.3503 33.6644 83.3503 29.3834 82.5505 27.1077C81.8234 25.0123 81.6537 24.1561 81.6779 22.5789C81.7022 20.506 81.2901 19.5147 81.0478 18.8387C80.1995 16.3377 77.0971 15.9096 75.4247 15.842C75.4247 15.842 75.4247 15.842 75.4005 15.842C75.4005 15.842 75.4005 15.842 75.3763 15.842C75.2793 15.8195 75.2066 15.7744 75.1096 15.7519C74.9885 15.7068 74.8915 15.6843 74.7703 15.6392C74.5037 15.5717 74.2371 15.4815 73.9705 15.4139C73.9463 15.4139 73.8978 15.3914 73.8735 15.3914C73.7281 15.3463 73.5585 15.3238 73.413 15.2787C73.3888 15.2787 73.3646 15.2562 73.3403 15.2562C73.2676 15.2337 73.1707 15.2112 73.098 15.1886C71.9588 14.9182 70.9166 14.6028 70.4319 13.9719C69.8017 13.0932 69.729 12.7327 69.6805 11.5836C69.8259 11.3808 69.9471 11.1555 70.0198 10.8626C70.0683 10.6598 70.141 10.457 70.1895 10.2317C70.2622 10.1641 70.3349 10.074 70.3834 10.0064C70.7954 9.51071 71.062 8.92489 71.2802 8.33908C71.4498 7.84338 71.2559 7.61807 71.4983 7.14491C71.6922 6.78441 71.7892 6.40138 71.7164 6.01834C71.668 5.63531 71.8619 5.3424 71.8861 4.9819C71.9103 4.62139 71.7649 4.28342 71.6922 3.94545C71.6195 3.58495 71.7407 3.26951 71.5953 2.90901C71.4983 2.63863 71.2075 2.43585 71.062 2.21053C70.8681 1.91763 70.8197 1.69231 70.6015 1.42194C70.3834 1.12903 70.0683 1.06143 69.7532 0.903713C69.317 0.655867 69.1473 0.408022 68.6626 0.295365C67.8385 0.115114 67.0871 -0.0200746 66.2146 0.00245679C65.3421 -0.0200746 64.5907 0.115114 63.7666 0.295365C63.2819 0.408022 63.1122 0.655867 62.676 0.903713C62.3609 1.08396 62.07 1.12903 61.8277 1.42194C61.6095 1.69231 61.5611 1.91763 61.3672 2.21053C61.2217 2.43585 60.9309 2.63863 60.8339 2.90901C60.7128 3.26951 60.8097 3.58495 60.737 3.94545C60.6643 4.28342 60.5189 4.62139 60.5431 4.9819C60.5673 5.3424 60.7855 5.63531 60.7128 6.01834C60.6643 6.40138 60.7612 6.78441 60.9309 7.14491C61.1733 7.61807 60.9794 7.84338 61.149 8.33908C61.3429 8.92489 61.6338 9.51071 62.0458 10.0064C62.1185 10.074 62.167 10.1641 62.2397 10.2317C62.2882 10.4345 62.3366 10.6598 62.4094 10.8626C62.5063 11.1555 62.6033 11.3808 62.7487 11.5836C62.7487 11.6512 62.7487 11.7188 62.7487 11.7864C62.7002 12.7778 62.6033 13.1383 62.0216 13.9719C61.5611 14.6253 60.4946 14.9182 59.3555 15.1886C59.2828 15.2112 59.1858 15.2337 59.1131 15.2562C59.0889 15.2562 59.0646 15.2562 59.0404 15.2787C58.895 15.3238 58.7253 15.3463 58.5799 15.3914C58.5556 15.3914 58.5072 15.4139 58.4829 15.4139C58.2163 15.4815 57.9497 15.5491 57.6831 15.6392C57.5619 15.6843 57.465 15.7068 57.3438 15.7519C57.2468 15.7744 57.1499 15.8195 57.0772 15.842C57.0772 15.842 57.0772 15.842 57.0529 15.842C57.0529 15.842 57.0529 15.842 57.0287 15.842C55.3563 15.9096 52.254 16.3377 51.4057 18.8387C51.1633 19.5147 50.7513 20.506 50.7755 22.5789C50.7997 24.1561 50.6301 25.0123 49.903 27.1077C49.1274 29.3834 49.1274 33.6644 49.1274 36.1428C47.8428 38.5086 48.0367 41.2575 48.6184 47.0706C48.6669 47.6564 48.5942 48.1971 48.6669 48.6703C48.1579 50.0447 48.4972 51.5318 49.0062 52.7935C50.2665 55.8127 52.666 57.1646 53.175 56.6915C53.684 56.2408 52.9326 55.655 52.3752 54.596C51.4784 52.9062 51.7692 52.2077 51.6965 51.4867C52.0843 52.05 52.3267 51.8022 52.9811 53.4019C53.2477 54.0778 53.8779 53.875 53.8536 53.8074C53.7567 53.1766 53.587 52.5006 53.4416 51.7796C52.8841 49.211 52.0116 49.3012 51.6238 48.4675C51.5996 48.2422 51.6238 47.9718 51.6723 47.6113C52.1328 44.9301 53.6113 41.5278 53.7324 37.3821C53.7324 37.1117 53.7567 36.5935 53.7082 36.0527C54.5565 34.0699 55.4533 30.4649 56.035 27.3105C56.035 27.333 56.035 27.333 56.035 27.3556C56.0592 27.4908 56.1077 27.626 56.1319 27.7386V27.7611C56.1319 27.7611 56.1319 27.7611 56.1319 27.7837C56.1804 27.9189 56.2046 28.0541 56.2531 28.1892V28.2118V28.2343C56.2531 28.2568 56.2774 28.2794 56.2774 28.2794C56.3016 28.392 56.3501 28.4821 56.3743 28.5948C56.3743 28.6173 56.3985 28.6399 56.3985 28.6624V28.6849V28.7075C56.447 28.8427 56.4955 28.9778 56.5682 29.0905C57.974 32.2224 57.4407 36.1879 57.4892 38.1031C57.5377 39.7704 57.2468 39.7929 56.9318 40.6942C56.8106 41.0547 56.7136 41.3926 56.6167 41.7081C56.6167 41.7081 56.6167 41.7081 56.6167 41.7306V41.7531C56.5924 41.8433 56.5682 41.9334 56.544 42.0235V42.0461V42.0686C56.5197 42.1587 56.4955 42.2714 56.4712 42.3615C56.4712 42.3615 56.4712 42.3615 56.4712 42.384C56.447 42.4742 56.4228 42.5643 56.3985 42.6544C56.3985 42.6544 56.3985 42.6544 56.3985 42.6769V42.6995C56.3985 42.722 56.3985 42.7445 56.3743 42.7671C56.3501 42.8347 56.3501 42.9248 56.3258 42.9924C56.3258 42.9924 56.3258 42.9924 56.3258 43.0149C56.3258 43.06 56.3016 43.105 56.3016 43.1501C56.3016 43.2177 56.2774 43.2628 56.2774 43.3303C56.2774 43.3303 56.2774 43.3303 56.2774 43.3529C56.2531 43.4205 56.2531 43.5106 56.2289 43.5782C56.2046 43.781 56.1562 43.9838 56.1319 44.2091C56.1319 44.2091 56.1319 44.2091 56.1319 44.2316C56.1077 44.3443 56.1077 44.4569 56.0835 44.5696V44.5921C56.0592 44.7048 56.0592 44.8399 56.035 44.9526C56.0107 45.0878 56.0107 45.2005 55.9865 45.3582C55.9865 45.4934 55.9623 45.6285 55.9623 45.7637V45.7863C55.9623 45.8088 55.9623 45.8088 55.9623 45.8313C55.9623 45.9665 55.938 46.0792 55.938 46.2144V46.2369C55.938 46.2594 55.938 46.2594 55.938 46.282V46.3045C55.938 46.4397 55.9138 46.5974 55.9138 46.7551C55.9138 46.7776 55.9138 46.8002 55.9138 46.8002C55.8896 47.0255 55.8653 47.2283 55.8653 47.4311C55.8653 47.4987 55.8411 47.5888 55.8411 47.6564C55.8168 47.7916 55.8168 47.9268 55.7926 48.0619C55.7926 48.1295 55.7684 48.2197 55.7684 48.2873C55.7441 48.4224 55.7441 48.5802 55.7199 48.7153C55.7199 48.7829 55.7199 48.828 55.6957 48.8956C55.6714 49.3012 55.6229 49.6842 55.5987 50.0672C55.5987 50.1123 55.5987 50.1348 55.5987 50.1574C55.5987 50.3151 55.5745 50.4728 55.5745 50.6305C55.5745 50.6756 55.5745 50.7206 55.5745 50.7657C55.5745 50.9234 55.5502 51.0811 55.5502 51.2163C55.5502 51.2389 55.5502 51.2839 55.5502 51.329C55.3563 54.9791 55.526 57.9532 56.3743 62.8876C56.7379 65.0506 58.4102 68.9711 58.2163 70.6835C58.0224 72.3733 57.6104 74.2209 57.6589 76.8796C57.7316 80.9127 59.7433 84.315 59.816 91.0969C59.816 91.4799 59.0646 92.967 58.9677 93.643C58.798 94.8822 57.974 95.6032 57.8043 96.3242C57.5619 97.4508 60.6643 97.7887 61.5126 97.8563C62.2155 97.9014 63.9605 98.4647 63.9848 97.0001C64.009 96.5044 63.4031 95.1526 63.2577 93.7556C63.1122 92.2911 63.0153 91.525 62.9668 90.804C62.7729 87.7397 64.6149 82.4449 64.8331 77.8484C65.0027 74.2885 64.2756 72.6212 64.1302 70.7511C64.009 69.1964 64.6877 68.0924 64.5665 65.4562C64.5422 64.6901 64.3726 63.8565 64.518 63.0228C65.1724 59.2826 65.3905 54.5285 65.3663 50.946C65.439 50.9685 65.536 50.991 65.6087 51.0135C65.6329 51.0135 65.6329 51.0136 65.6571 51.0361C65.7541 51.0586 65.8268 51.0811 65.9238 51.0811C65.9965 51.0811 66.0692 51.1037 66.1419 51.1037C66.2146 51.1037 66.2873 51.1037 66.36 51.0811C66.5539 51.0586 66.7236 51.0136 66.9175 50.946C66.8932 54.5285 67.1114 59.3051 67.7658 63.0228C67.9112 63.8565 67.7415 64.6676 67.7173 65.4562C67.5961 68.0924 68.2505 69.1964 68.1536 70.7511C68.0082 72.6437 67.281 74.2885 67.4507 77.8484C67.6688 82.4449 69.5109 87.7172 69.317 90.804C69.2685 91.525 69.1715 92.2911 69.0261 93.7556C68.8807 95.1751 68.299 96.5044 68.299 97.0001C68.3475 98.4422 70.0926 97.9014 70.7712 97.8563C71.6195 97.8113 74.7219 97.4508 74.4795 96.3242C74.3341 95.6032 73.51 94.8822 73.3161 93.643C73.2191 92.9445 72.4678 91.4574 72.4678 91.0969C72.5405 84.315 74.5764 80.9127 74.6249 76.8796C74.6734 74.2209 74.2613 72.3733 74.0675 70.6835C73.8736 68.9936 75.5217 65.0731 75.9095 62.8876C76.7093 58.2236 76.9032 55.2945 76.7578 51.8923C76.7578 51.8697 76.7578 51.8472 76.7578 51.8247C76.7578 51.667 76.7335 51.5092 76.7335 51.3515C76.7335 51.3065 76.7335 51.2614 76.7335 51.2163C76.7335 51.0811 76.7093 50.946 76.7093 50.7882C76.7093 50.7432 76.7093 50.6756 76.7093 50.6305C76.7093 50.4728 76.6851 50.3376 76.6851 50.1799C76.6851 50.1348 76.6851 50.0898 76.6851 50.0447C76.6608 49.6617 76.6366 49.2786 76.5881 48.8731C76.5881 48.8055 76.5881 48.7379 76.5639 48.6928C76.5639 48.5576 76.5396 48.4224 76.5154 48.2647C76.5154 48.1971 76.4912 48.107 76.4912 48.0394C76.4669 47.9042 76.4669 47.7465 76.4427 47.6113C76.4427 47.5437 76.4185 47.4761 76.4185 47.4085C76.3942 47.2057 76.37 46.9804 76.3457 46.7551C76.3457 46.7326 76.3457 46.7101 76.3457 46.7101C76.3457 46.5523 76.3215 46.4171 76.3215 46.282C76.3215 46.2594 76.3215 46.2594 76.3215 46.2369V46.2144C76.3215 46.0566 76.2973 45.9215 76.2973 45.7863V45.7637C76.2973 45.7412 76.2973 45.7187 76.2973 45.6961C76.2973 45.561 76.273 45.4483 76.273 45.3131C76.273 45.3131 76.273 45.3131 76.273 45.2906C76.2488 45.0202 76.2246 44.7724 76.2003 44.547C76.1518 44.1865 76.1034 43.8486 76.0549 43.5331C76.0307 43.4655 76.0307 43.3754 76.0064 43.3078C76.0064 43.3078 76.0064 43.3078 76.0064 43.2853C76.0064 43.2177 75.9822 43.1726 75.9822 43.105C75.9822 43.06 75.9579 43.0149 75.9579 42.9698C75.9579 42.9698 75.9579 42.9698 75.9579 42.9473C75.9337 42.8797 75.9337 42.7896 75.9095 42.722C75.9095 42.6995 75.9095 42.6769 75.8852 42.6544V42.6319C75.8852 42.6319 75.8852 42.6319 75.8852 42.6093C75.861 42.5192 75.8368 42.4291 75.8125 42.339C75.8125 42.339 75.8125 42.339 75.8125 42.3164C75.7883 42.2263 75.7641 42.1136 75.7398 42.0235V42.001V41.9785C75.7156 41.8883 75.6913 41.7982 75.6671 41.7081V41.6856C75.6671 41.6856 75.6671 41.6856 75.6671 41.663C75.5702 41.3476 75.4732 41.0096 75.352 40.6491C75.0369 39.7478 74.7703 39.7253 74.7946 38.058C74.843 36.1203 74.3098 32.1773 75.7156 29.0454C75.7641 28.9102 75.8125 28.7976 75.8852 28.6624V28.6399V28.6173C75.8852 28.5948 75.9095 28.5723 75.9095 28.5497C75.958 28.4596 75.9822 28.347 76.0064 28.2343C76.0064 28.2118 76.0307 28.1892 76.0307 28.1667V28.1442V28.1216C76.0791 27.9865 76.1276 27.8513 76.1519 27.7161C76.1519 27.7161 76.1519 27.7161 76.1519 27.6936C76.1519 27.671 76.1519 27.671 76.1519 27.6485C76.1761 27.5133 76.2246 27.4006 76.2488 27.2655C76.2488 27.2429 76.2488 27.2429 76.2488 27.2204C76.8305 30.3748 77.7273 33.9798 78.5756 35.9626C78.5271 36.5259 78.5513 37.0216 78.5513 37.2919C78.6725 41.4377 80.151 44.8399 80.6115 47.5212C80.6842 47.8817 80.6842 48.1521 80.66 48.3774C80.2964 49.211 79.4239 49.1209 78.8422 51.6895C78.6968 52.4105 78.5029 53.0864 78.4301 53.7173C78.4301 53.7849 79.0361 53.9652 79.3027 53.3118C79.9571 51.6895 80.1752 51.9373 80.5873 51.3966C80.5145 52.1176 80.7812 52.8161 79.9086 54.5059C79.3512 55.5649 78.5998 56.1507 79.1088 56.6013C79.6178 57.052 82.0173 55.7226 83.2776 52.7034C83.7866 51.4416 84.1259 49.9546 83.6169 48.5802C83.835 48.1971 83.7623 47.6338 83.835 47.0706Z" fill="#F5E664"/>
</svg>
