<svg width="31" height="28" viewBox="0 0 31 28" fill="none" xmlns="http://www.w3.org/2000/svg">
<path d="M2.14453 1H17.144" stroke="#384250" stroke-miterlimit="10"/>
<path d="M2.14453 3.07129H9.64427" stroke="#384250" stroke-miterlimit="10"/>
<path d="M10.7139 3.07129H13.928" stroke="#384250" stroke-miterlimit="10"/>
<path d="M27.8567 5.14271C29.0401 5.14271 29.9994 4.21534 29.9994 3.07136C29.9994 1.92738 29.0401 1 27.8567 1C26.6732 1 25.7139 1.92738 25.7139 3.07136C25.7139 4.21534 26.6732 5.14271 27.8567 5.14271Z" stroke="#384250" stroke-miterlimit="10"/>
<path d="M5.85938 12.5107L15.4468 16.2392L25.0342 12.5107" stroke="#384250" stroke-miterlimit="10" stroke-linejoin="round"/>
<path d="M10.1221 14.1083L19.7095 10.3799" stroke="#384250" stroke-miterlimit="10" stroke-linecap="round" stroke-linejoin="round"/>
<path d="M5.85938 22.0985V23.1638L15.4468 26.8922L25.0342 23.1638V11.9784L15.4468 8.25L5.85938 11.9784V15.7069" stroke="#384250" stroke-miterlimit="10" stroke-linejoin="round"/>
<path d="M5.85938 19.4355V21.0335" stroke="#384250" stroke-miterlimit="10" stroke-linejoin="round"/>
<path d="M5.85938 16.7725V18.3704" stroke="#384250" stroke-miterlimit="10" stroke-linejoin="round"/>
<path d="M0 15.707H7.45688" stroke="#384250" stroke-miterlimit="10" stroke-linejoin="round"/>
<path d="M3.19629 18.3701H9.58791" stroke="#384250" stroke-miterlimit="10" stroke-linejoin="round"/>
<path d="M1.59668 21.0332H7.9883" stroke="#384250" stroke-miterlimit="10" stroke-linejoin="round"/>
<path d="M15.4453 16.2393V26.892" stroke="#384250" stroke-miterlimit="10" stroke-linejoin="round"/>
<path d="M23.4364 22.0986H22.3711" stroke="#384250" stroke-miterlimit="10" stroke-linejoin="round"/>
<path d="M21.8397 22.6309H20.7744" stroke="#384250" stroke-miterlimit="10" stroke-linejoin="round"/>
</svg>
