<svg width="35" height="35" viewBox="0 0 35 35" fill="none" xmlns="http://www.w3.org/2000/svg">
<rect x="0.5" y="0.5" width="34" height="34" rx="6.5" stroke="#22AAEC"/>
<path d="M18 11.5C17.7239 11.5 17.5 11.7239 17.5 12C17.5 12.2761 17.7239 12.5 18 12.5V11.5ZM7.5 19.4539V24.7824H8.5V19.4539H7.5ZM7.5 24.7824C7.5 25.8853 8.42068 26.7869 9.56535 26.7869V25.7869C8.949 25.7869 8.5 25.3094 8.5 24.7824H7.5ZM9.56535 26.7869H26.2624V25.7869H9.56535V26.7869ZM26.2624 26.7869C27.3606 26.7869 28.3277 25.9299 28.3277 24.7824H27.3277C27.3277 25.3274 26.8599 25.7869 26.2624 25.7869V26.7869ZM28.3277 24.7824V13.5045H27.3277V24.7824H28.3277ZM28.3277 13.5045C28.3277 12.4016 27.407 11.5 26.2624 11.5V12.5C26.8787 12.5 27.3277 12.9775 27.3277 13.5045H28.3277ZM26.2624 11.5H18V12.5H26.2624V11.5Z" fill="#22AAEC"/>
<path fill-rule="evenodd" clip-rule="evenodd" d="M9.74316 23.3428H10.7977V22.3428H9.74316V23.3428ZM11.7208 23.3428H12.7753V22.3428H11.7208V23.3428ZM14.7519 23.3428H13.6974V22.3428H14.7519V23.3428ZM15.6749 23.3428H16.7295V22.3428H15.6749V23.3428Z" fill="#22AAEC"/>
<path d="M25.6208 14.2065H21.6553V17.5368H25.6208V14.2065Z" stroke="#22AAEC" stroke-miterlimit="10" stroke-linejoin="round"/>
<path fill-rule="evenodd" clip-rule="evenodd" d="M8 14.4295C8 11.9862 9.87834 10.0225 12.1744 10.0225C14.4726 10.0225 16.3489 11.9563 16.3489 14.4295C16.3489 16.8727 14.4705 18.8365 12.1744 18.8365C9.87834 18.8365 8 16.8727 8 14.4295ZM12.1744 9.02246C9.27671 9.02246 7 11.4846 7 14.4295C7 17.3743 9.27671 19.8365 12.1744 19.8365C15.0722 19.8365 17.3489 17.3743 17.3489 14.4295C17.3489 11.4504 15.0701 9.02246 12.1744 9.02246ZM11.8996 16.5732V17.2788H12.3273V16.5411C13.03 16.4129 13.3966 15.8997 13.3966 15.3224C13.3966 14.681 13.0605 14.3282 12.3578 14.0395C11.7774 13.783 11.5329 13.5905 11.5329 13.2377C11.5329 12.9491 11.7163 12.6284 12.2356 12.6284C12.6634 12.6284 12.9383 12.7887 13.0911 12.8849L13.2744 12.4359C13.0605 12.3076 12.7856 12.1794 12.3884 12.1794V11.5059H11.9301V12.1794C11.3191 12.2756 10.9219 12.7246 10.9219 13.3019C10.9219 13.9112 11.3496 14.232 12.0218 14.5206C12.5106 14.713 12.7856 14.9696 12.7856 15.3545C12.7856 15.7714 12.4801 16.0601 11.9912 16.0601C11.6246 16.0601 11.2885 15.9318 11.0441 15.7714L10.8914 16.2525C11.1052 16.4449 11.5024 16.5732 11.8996 16.5732Z" fill="#22AAEC"/>
<path d="M21.5759 24.1229C21.5117 24.1874 21.4241 24.2235 21.3331 24.2235C21.2421 24.2235 21.1545 24.1874 21.0903 24.1229L19.151 22.1832C18.9497 21.9819 18.9497 21.6556 19.151 21.4547L19.3938 21.2119C19.5951 21.0106 19.921 21.0106 20.1223 21.2119L21.3331 22.4226L24.6048 19.151C24.8061 18.9497 25.1324 18.9497 25.3333 19.151L25.5761 19.3938C25.7774 19.5951 25.7774 19.9214 25.5761 20.1223L21.5759 24.1229Z" fill="#22AAEC"/>
</svg>
