<svg width="35" height="35" viewBox="0 0 35 35" fill="none" xmlns="http://www.w3.org/2000/svg">
<rect width="35" height="35" rx="7" fill="#22AAEC"/>
<path d="M8.17236 19.1446V24.4731C8.17236 25.288 8.8572 25.9776 9.73771 25.9776H26.4347C27.2826 25.9776 28.0001 25.3193 28.0001 24.4731V13.1952C28.0001 12.3802 27.3152 11.6907 26.4347 11.6907H20.4656" stroke="white" stroke-miterlimit="10"/>
<path fill-rule="evenodd" clip-rule="evenodd" d="M9.74316 23.3203H10.7977V22.3203H9.74316V23.3203ZM11.7208 23.3203H12.7753V22.3203H11.7208V23.3203ZM14.7519 23.3203H13.6974V22.3203H14.7519V23.3203ZM15.6749 23.3203H16.7295V22.3203H15.6749V23.3203ZM19.8932 23.3203H18.8716V22.3203H19.8932V23.3203ZM20.8484 23.3203H21.87V22.3203H20.8484V23.3203ZM23.8476 23.3203H22.826V22.3203H23.8476V23.3203ZM24.8028 23.3203H25.8244V22.3203H24.8028V23.3203Z" fill="white"/>
<path d="M25.6208 14.1841H21.6553V17.5144H25.6208V14.1841Z" stroke="white" stroke-miterlimit="10" stroke-linejoin="round"/>
<path fill-rule="evenodd" clip-rule="evenodd" d="M10.4141 14.407C10.4141 11.9638 12.2924 10 14.5885 10C16.8867 10 18.7629 11.9339 18.7629 14.407C18.7629 16.8502 16.8846 18.814 14.5885 18.814C12.2924 18.814 10.4141 16.8502 10.4141 14.407ZM14.5885 9C11.6908 9 9.41406 11.4622 9.41406 14.407C9.41406 17.3519 11.6908 19.814 14.5885 19.814C17.4862 19.814 19.7629 17.3519 19.7629 14.407C19.7629 11.4279 17.4841 9 14.5885 9ZM14.3136 16.5508V17.2563H14.7414V16.5187C15.444 16.3904 15.8107 15.8772 15.8107 15.2999C15.8107 14.6585 15.4746 14.3057 14.7719 14.0171C14.1914 13.7605 13.947 13.5681 13.947 13.2153C13.947 12.9266 14.1303 12.6059 14.6497 12.6059C15.0774 12.6059 15.3524 12.7663 15.5052 12.8625L15.6885 12.4135C15.4746 12.2852 15.1996 12.1569 14.8025 12.1569V11.4834H14.3442V12.1569C13.7331 12.2531 13.336 12.7021 13.336 13.2794C13.336 13.8888 13.7637 14.2095 14.4358 14.4982C14.9247 14.6906 15.1996 14.9472 15.1996 15.332C15.1996 15.749 14.8941 16.0376 14.4053 16.0376C14.0387 16.0376 13.7026 15.9093 13.4582 15.749L13.3054 16.23C13.5193 16.4225 13.9165 16.5508 14.3136 16.5508Z" fill="white"/>
<path d="M7.63638 13.1707H5" stroke="white" stroke-miterlimit="10" stroke-linejoin="round"/>
<path d="M8.95425 10.8098H6.31787" stroke="white" stroke-miterlimit="10" stroke-linejoin="round"/>
<path d="M8.95425 15.6199H6.31787" stroke="white" stroke-miterlimit="10" stroke-linejoin="round"/>
</svg>
