<svg width="17" height="14" viewBox="0 0 17 14" fill="none" xmlns="http://www.w3.org/2000/svg">
<path fill-rule="evenodd" clip-rule="evenodd" d="M0.999985 13.4399L14.4728 -0.00012207L15.0341 0.559878L1.56135 13.9999L0.999985 13.4399ZM8.5 0.997778C9.11492 0.997778 9.71548 1.08908 10.2863 1.26531L8.34802 3.19883C8.22331 3.18619 8.09679 3.17971 7.96876 3.17971C5.91486 3.17971 4.25 4.84052 4.25 6.88942C4.25 7.01717 4.25647 7.1434 4.26911 7.26782L2.27231 9.25976L0 6.99297L4.25 2.7533C5.38527 1.62079 6.89368 0.997778 8.5 0.997778ZM14.4911 4.49014L11.6638 7.31052C11.4699 9.02292 10.1075 10.382 8.39088 10.5755L6.36169 12.5997C7.03538 12.8549 7.75722 12.9881 8.5 12.9881C10.1037 12.9881 11.6147 12.3651 12.75 11.2326L17 6.99297L14.4911 4.49014Z" fill="#E3E8ED"/>
</svg>
