<svg width="18" height="18" viewBox="0 0 18 18" fill="none" xmlns="http://www.w3.org/2000/svg">
<path fill-rule="evenodd" clip-rule="evenodd" d="M14.0278 1.55658C12.0121 0.196526 9.58206 -0.271671 7.20583 0.149623C5.61584 0.440218 4.16757 1.16825 2.93143 2.21162L2.92868 1.97203C2.94935 1.7671 2.75453 1.63634 2.5807 1.65095C2.40688 1.66555 2.23322 1.8553 2.23339 2.03045L2.2419 3.65522C2.22123 3.86014 2.41605 3.9909 2.58988 3.9763L4.25161 3.82265C4.37677 3.81914 4.46709 3.74849 4.52959 3.65917C4.57125 3.59961 4.61292 3.54006 4.60592 3.4916C4.62658 3.28668 4.43176 3.15592 4.25794 3.17052L3.74053 3.21952C4.81878 2.27615 6.09345 1.73817 7.45753 1.44741C8.55311 1.25977 9.65908 1.28888 10.7164 1.53783C10.7614 1.56148 10.8102 1.57866 10.8621 1.58823C12.2579 1.93512 13.4222 2.67497 14.4285 3.62914C15.8533 5.09605 16.6726 7.01512 16.6593 9.08828C16.6549 9.77498 16.5633 10.4498 16.3885 11.0968C16.3593 11.1939 16.3276 11.2903 16.2935 11.3859C16.2644 11.4468 16.2486 11.5087 16.2441 11.57C15.8622 12.6907 15.2221 13.7114 14.3464 14.543C13.4248 15.4238 12.2873 16.1495 11.0317 16.4819C10.6577 16.5411 10.4863 16.9579 10.5687 17.2678C10.6155 17.4942 10.7713 17.6254 10.9516 17.6971C11.0718 17.7449 11.192 17.7926 11.4458 17.6856C12.8706 17.2819 14.2374 16.5088 15.3171 15.4137C16.9911 13.7234 17.9817 11.4844 17.9972 9.06576C18.0054 7.78836 17.741 6.55722 17.2427 5.42855C16.5737 3.88551 15.484 2.53904 14.0278 1.55658ZM0.53452 10.0599C0.192486 10.1328 -0.0596062 10.4544 0.0123138 10.7921L0.0123164 10.7921L0.0123171 10.7921C0.084236 11.1299 0.156155 11.4676 0.264062 11.8586C0.389994 12.1605 0.731971 12.3189 1.07401 12.246L1.23604 12.1384C1.45209 11.9949 1.56017 11.6919 1.50621 11.4964C1.38028 11.1945 1.30836 10.8568 1.27243 10.5722C1.20051 10.2345 0.876555 9.98697 0.53452 10.0599ZM2.61278 13.6124C2.90069 14.0381 3.29662 14.392 3.69255 14.7459C3.92651 14.976 3.9804 15.4029 3.74634 15.6354C3.7643 15.7776 3.71029 15.8135 3.65628 15.8494C3.44023 15.9928 3.11622 15.9767 2.86424 15.8356C2.43232 15.4285 1.96441 14.9682 1.60453 14.4361C1.3886 14.1169 1.46069 13.7606 1.69476 13.5281C1.96481 13.3488 2.37883 13.3823 2.61278 13.6124ZM8.39664 16.7173C7.5146 16.6861 6.66861 16.4769 5.80466 16.1253C5.46268 15.9669 5.10262 16.1289 4.94053 16.4678C4.77844 16.8067 4.94036 17.1618 5.28234 17.3203C6.23629 17.6891 7.26228 17.9331 8.32432 17.9989C8.46833 17.9804 8.61234 17.9619 8.72036 17.8901C8.8824 17.7825 9.00844 17.6217 9.0085 17.3904C9.02658 17.07 8.72065 16.7334 8.39664 16.7173Z" fill="#384250"/>
</svg>
