<svg width="19" height="18" viewBox="0 0 19 18" fill="none" xmlns="http://www.w3.org/2000/svg">
<path fill-rule="evenodd" clip-rule="evenodd" d="M14.1261 1.63984C12.1279 0.248793 9.70604 -0.258084 7.32802 0.124396C5.8969 0.362376 4.57633 0.955618 3.41847 1.81623L3.41474 1.4875C3.43517 1.28302 3.24256 1.15254 3.07071 1.16712C2.89887 1.18169 2.72719 1.37103 2.72735 1.5458L2.73576 3.16707C2.71533 3.37155 2.90794 3.50203 3.07978 3.48746L4.72262 3.33414C4.84636 3.33064 4.93566 3.26014 4.99745 3.17101C5.03864 3.11158 5.07983 3.05216 5.07291 3.00381C5.09334 2.79933 4.90073 2.66885 4.72888 2.68342L4.3755 2.71719C5.3366 2.04922 6.4204 1.64976 7.565 1.42478C9.60059 1.10961 11.6637 1.54139 13.3764 2.73371C13.8574 3.06852 14.2953 3.4491 14.6834 3.86791C15.1048 4.34571 15.4674 4.87293 15.7837 5.43453C16.7116 7.25321 16.9288 9.32689 16.3062 11.3042C15.6837 13.2816 14.3347 14.9232 12.4951 15.8405C11.3567 16.4127 10.0579 16.7734 8.76221 16.7238C8.68121 16.7123 8.60435 16.7197 8.53349 16.7415C8.46811 16.7099 8.39857 16.69 8.32799 16.6854C7.44737 16.64 6.60473 16.4173 5.74573 16.0523C5.40592 15.8885 5.0445 16.0445 4.87885 16.3804C4.71319 16.7163 4.87097 17.0736 5.21077 17.2374C6.15948 17.6213 7.18152 17.8815 8.24154 17.9644C8.30665 17.9571 8.37177 17.9497 8.43362 17.9375C8.51373 17.9839 8.61946 18.0141 8.80319 17.9953C10.2813 18.0263 11.8128 17.6873 13.165 16.9566C15.2594 15.831 16.8631 13.981 17.5894 11.6741C17.7855 11.0509 17.9101 10.4185 17.9659 9.7854C18.0322 9.07426 18.0109 8.34881 17.8921 7.63218C17.7395 6.65851 17.4264 5.7076 16.963 4.81265C16.4701 3.87304 15.8095 3.04937 15.0216 2.35051C14.7412 2.09761 14.4426 1.86013 14.1261 1.63984ZM0.0110416 10.6388C-0.0570425 10.3002 0.198313 9.98309 0.540743 9.91578C0.883172 9.84847 1.20399 10.1009 1.27207 10.4394C1.3048 10.7242 1.37288 11.0628 1.49531 11.3663C1.54703 11.5625 1.43572 11.8635 1.21834 12.0033L1.05531 12.1081C0.712881 12.1754 0.373076 12.0117 0.250648 11.7081C0.14721 11.3158 0.0791262 10.9773 0.0110425 10.6388L0.0110416 10.6388ZM3.6565 14.6416C3.26497 14.2817 2.87345 13.9218 2.59061 13.492C2.3595 13.2583 1.94636 13.2182 1.67464 13.3929C1.43827 13.6214 1.36231 13.9761 1.57444 14.2985C1.92798 14.8357 2.39022 15.3031 2.81709 15.7167C3.0672 15.8617 3.39064 15.883 3.60802 15.7432C3.66236 15.7083 3.71671 15.6733 3.70034 15.5309C3.93671 15.3024 3.88761 14.8752 3.6565 14.6416Z" fill="#384250"/>
</svg>
