<svg width="19" height="18" viewBox="0 0 19 18" fill="none" xmlns="http://www.w3.org/2000/svg">
<path fill-rule="evenodd" clip-rule="evenodd" d="M2.88203 2.45636C2.87661 2.46149 2.8712 2.46662 2.86579 2.47176C2.87126 2.47596 2.87672 2.48019 2.88218 2.48445L2.88666 3.35054C2.86511 3.56683 3.06827 3.70485 3.24953 3.68944L4.98239 3.52727C5.1129 3.52356 5.2071 3.44899 5.27227 3.35471C5.31572 3.29185 5.35916 3.22899 5.35186 3.17785C5.37341 2.96156 5.17025 2.82354 4.98899 2.83895L4.54224 2.88177C6.30342 1.6012 8.59878 1.08905 10.8707 1.67386C14.9124 2.71717 17.3421 6.85156 16.3017 10.9047C15.2614 14.9578 11.1386 17.3944 7.09693 16.3511C4.61541 15.7084 2.62964 13.8541 1.81643 11.4226C1.70005 11.0576 1.31152 10.8613 0.947577 10.978C0.583638 11.0947 0.387876 11.4843 0.504258 11.8493C0.506161 11.8529 0.508064 11.8564 0.506402 11.8619C0.667279 12.3363 0.864052 12.8007 1.10004 13.244C3.43499 17.6221 8.8634 19.2738 13.2349 16.943C17.6118 14.6139 19.2769 9.16967 16.9562 4.78395C14.6372 0.392754 9.20833 -1.27709 4.83497 1.05014C4.40039 1.28001 3.99071 1.54434 3.60584 1.83922L3.60284 1.57395C3.62439 1.35765 3.42123 1.21963 3.23997 1.23505C3.0587 1.25047 2.87761 1.45075 2.87779 1.63561L2.88203 2.45636ZM0.798948 7.27416C0.455656 7.23917 0.121484 7.46826 0.0866935 7.81157L0.0866924 7.81158L0.0866917 7.81159C0.0519022 8.1549 0.0171128 8.49821 0 8.90313C0.0267976 9.2288 0.299946 9.48389 0.643238 9.51888L0.828002 9.46594C1.07435 9.39536 1.26767 9.13996 1.27623 8.9375C1.24943 8.61183 1.28422 8.26851 1.33669 7.9868C1.37148 7.64348 1.14224 7.30914 0.798948 7.27416Z" fill="#384250"/>
</svg>
