<svg width="18" height="18" viewBox="0 0 18 18" fill="none" xmlns="http://www.w3.org/2000/svg">
<path fill-rule="evenodd" clip-rule="evenodd" d="M3.13513 1.83922C3.52 1.54434 3.92967 1.28001 4.36425 1.05014C8.73762 -1.27709 14.1665 0.392754 16.4855 4.78395C18.8062 9.16967 17.1411 14.6139 12.7641 16.943C8.39269 19.2738 2.96427 17.6221 0.62933 13.244C0.393337 12.8007 0.196565 12.3363 0.0356871 11.8619C0.0373494 11.8564 0.0354464 11.8529 0.0335432 11.8493C-0.0828388 11.4843 0.112923 11.0947 0.476862 10.978C0.840801 10.8613 1.22934 11.0576 1.34572 11.4226C2.15892 13.8541 4.1447 15.7084 6.62621 16.3511C10.6679 17.3944 14.7907 14.9578 15.831 10.9047C16.8714 6.85156 14.4417 2.71717 10.4 1.67386C8.12806 1.08905 5.8327 1.6012 4.07152 2.88177L4.51828 2.83895C4.69954 2.82354 4.9027 2.96156 4.88115 3.17785C4.88845 3.22899 4.845 3.29185 4.80155 3.35471C4.73638 3.44899 4.64219 3.52356 4.51167 3.52727L2.77882 3.68944C2.59755 3.70485 2.39439 3.56683 2.41594 3.35054L2.41146 2.48445C2.40601 2.48019 2.40055 2.47596 2.39507 2.47176C2.40048 2.46662 2.4059 2.46149 2.41132 2.45636L2.40707 1.63561C2.4069 1.45075 2.58799 1.25047 2.76925 1.23505C2.95051 1.21963 3.15367 1.35765 3.13212 1.57395L3.13513 1.83922Z" fill="#384250"/>
</svg>
