<svg width="18" height="17" viewBox="0 0 18 17" fill="none" xmlns="http://www.w3.org/2000/svg">
<path fill-rule="evenodd" clip-rule="evenodd" d="M9.00002 12.3243C8.88457 12.3243 8.76572 12.2767 8.67744 12.1885L5.76063 9.27504C5.58066 9.09508 5.58066 8.80645 5.76063 8.62649C5.94059 8.44652 6.22922 8.44652 6.40918 8.62649L8.54161 10.7589V1.4584C8.54161 1.20374 8.74535 1 9.00002 1C9.25469 1 9.45842 1.20374 9.45842 1.4584V10.7589L11.5875 8.62649C11.7674 8.44652 12.056 8.44652 12.236 8.62649C12.416 8.80645 12.416 9.09508 12.236 9.27504L9.3226 12.1885C9.23431 12.2801 9.11547 12.3243 9.00002 12.3243ZM16.0832 8.68756C16.0832 8.4329 16.2869 8.22916 16.5416 8.22916C16.7963 8.22916 17 8.43629 17 8.68756V12.8573C17 14.494 15.6689 15.8285 14.0289 15.8285H3.97114C2.33447 15.8285 1 14.4974 1 12.8573V8.61965C1 8.36498 1.20374 8.16125 1.4584 8.16125C1.71307 8.16125 1.91681 8.36498 1.91681 8.61965V12.8573C1.91681 13.9881 2.83701 14.9117 3.97114 14.9117H14.0289C15.1596 14.9117 16.0832 13.9915 16.0832 12.8573V8.68756Z" fill="white"/>
<path d="M8.67744 12.1885L9.03099 11.8349L9.03078 11.8347L8.67744 12.1885ZM5.76063 9.27504L5.40707 9.6286L5.40728 9.6288L5.76063 9.27504ZM6.40918 8.62649L6.05563 8.98004L6.40918 8.62649ZM8.54161 10.7589L8.18806 11.1125C8.33106 11.2555 8.54612 11.2982 8.73295 11.2209C8.91979 11.1435 9.04161 10.9611 9.04161 10.7589H8.54161ZM9.45842 10.7589H8.95842C8.95842 10.9612 9.08033 11.1436 9.26726 11.2209C9.4542 11.2983 9.66932 11.2553 9.81226 11.1122L9.45842 10.7589ZM11.5875 8.62649L11.2339 8.27293L11.2336 8.27321L11.5875 8.62649ZM12.236 9.27504L12.5896 9.6286V9.6286L12.236 9.27504ZM9.3226 12.1885L8.96898 11.8348L8.96243 11.8416L9.3226 12.1885ZM8.32388 12.542C8.50542 12.7235 8.75124 12.8243 9.00002 12.8243V11.8243C9.0104 11.8243 9.01687 11.8263 9.02034 11.8277C9.02406 11.8293 9.02762 11.8315 9.03099 11.8349L8.32388 12.542ZM5.40728 9.6288L8.32409 12.5422L9.03078 11.8347L6.11397 8.92128L5.40728 9.6288ZM5.40707 8.27293C5.03185 8.64816 5.03185 9.25337 5.40707 9.6286L6.11418 8.92149C6.12079 8.9281 6.12565 8.93936 6.12565 8.95076C6.12565 8.96217 6.12079 8.97343 6.11418 8.98004L5.40707 8.27293ZM6.76274 8.27293C6.38751 7.8977 5.7823 7.8977 5.40707 8.27293L6.11418 8.98004C6.10757 8.98665 6.09631 8.99151 6.08491 8.99151C6.0735 8.99151 6.06224 8.98665 6.05563 8.98004L6.76274 8.27293ZM8.89517 10.4054L6.76274 8.27293L6.05563 8.98004L8.18806 11.1125L8.89517 10.4054ZM8.04161 1.4584V10.7589H9.04161V1.4584H8.04161ZM9.00002 0.5C8.46921 0.5 8.04161 0.927593 8.04161 1.4584H9.04161C9.04161 1.46739 9.03721 1.47891 9.02887 1.48725C9.02052 1.4956 9.009 1.5 9.00002 1.5V0.5ZM9.95842 1.4584C9.95842 0.927592 9.53083 0.5 9.00002 0.5V1.5C8.99103 1.5 8.97951 1.4956 8.97117 1.48725C8.96282 1.47891 8.95842 1.46739 8.95842 1.4584H9.95842ZM9.95842 10.7589V1.4584H8.95842V10.7589H9.95842ZM11.2336 8.27321L9.10459 10.4056L9.81226 11.1122L11.9413 8.97976L11.2336 8.27321ZM12.5896 8.27293C12.2143 7.8977 11.6091 7.8977 11.2339 8.27293L11.941 8.98004C11.9344 8.98665 11.9231 8.99151 11.9117 8.99151C11.9003 8.99151 11.8891 8.98665 11.8825 8.98004L12.5896 8.27293ZM12.5896 9.6286C12.9648 9.25337 12.9648 8.64816 12.5896 8.27293L11.8825 8.98004C11.8758 8.97343 11.871 8.96217 11.871 8.95076C11.871 8.93936 11.8758 8.9281 11.8825 8.92149L12.5896 9.6286ZM9.67615 12.542L12.5896 9.6286L11.8825 8.92149L8.96904 11.8349L9.67615 12.542ZM9.00002 12.8243C9.24028 12.8243 9.49281 12.7325 9.68276 12.5353L8.96243 11.8416C8.97581 11.8277 8.99065 11.8243 9.00002 11.8243V12.8243ZM16.5416 7.72916C16.0108 7.72916 15.5832 8.15675 15.5832 8.68756H16.5832C16.5832 8.69655 16.5788 8.70807 16.5704 8.71641C16.5621 8.72476 16.5506 8.72916 16.5416 8.72916V7.72916ZM17.5 8.68756C17.5 8.16256 17.0748 7.72916 16.5416 7.72916V8.72916C16.5177 8.72916 16.5 8.71002 16.5 8.68756H17.5ZM17.5 12.8573V8.68756H16.5V12.8573H17.5ZM14.0289 16.3285C15.9454 16.3285 17.5 14.7698 17.5 12.8573H16.5C16.5 14.2182 15.3924 15.3285 14.0289 15.3285V16.3285ZM3.97114 16.3285H14.0289V15.3285H3.97114V16.3285ZM0.5 12.8573C0.5 14.7739 2.05869 16.3285 3.97114 16.3285V15.3285C2.61024 15.3285 1.5 14.2209 1.5 12.8573H0.5ZM0.5 8.61965V12.8573H1.5V8.61965H0.5ZM1.4584 7.66125C0.927593 7.66125 0.5 8.08884 0.5 8.61965H1.5C1.5 8.62864 1.4956 8.64016 1.48725 8.6485C1.47891 8.65685 1.46739 8.66125 1.4584 8.66125V7.66125ZM2.41681 8.61965C2.41681 8.08884 1.98922 7.66125 1.4584 7.66125V8.66125C1.44942 8.66125 1.4379 8.65685 1.42955 8.6485C1.42121 8.64016 1.41681 8.62864 1.41681 8.61965H2.41681ZM2.41681 12.8573V8.61965H1.41681V12.8573H2.41681ZM3.97114 14.4117C3.11369 14.4117 2.41681 13.7125 2.41681 12.8573H1.41681C1.41681 14.2637 2.56033 15.4117 3.97114 15.4117V14.4117ZM14.0289 14.4117H3.97114V15.4117H14.0289V14.4117ZM15.5832 12.8573C15.5832 13.7148 14.884 14.4117 14.0289 14.4117V15.4117C15.4352 15.4117 16.5832 14.2682 16.5832 12.8573H15.5832ZM15.5832 8.68756V12.8573H16.5832V8.68756H15.5832Z" fill="white"/>
</svg>
