<svg width="85" height="85" viewBox="0 0 85 85" fill="none" xmlns="http://www.w3.org/2000/svg">
<path fill-rule="evenodd" clip-rule="evenodd" d="M0 42.5004C0 65.9334 19.0673 85 42.5004 85C65.9334 85 85 65.9334 85 42.5004C85 41.1017 84.9342 39.7186 84.8033 38.3547C84.6484 36.7629 83.2384 35.6034 81.6389 35.7505C80.0471 35.9048 78.8805 37.319 79.0347 38.915C79.1465 40.0929 79.2045 41.2906 79.2045 42.5004C79.2045 62.7378 62.7378 79.2045 42.5004 79.2045C22.2622 79.2045 5.79547 62.7378 5.79547 42.5004C5.79547 22.2622 22.2622 5.79547 42.5004 5.79547C49.536 5.79547 56.382 7.8004 62.2935 11.5987C63.6419 12.4639 65.4311 12.0741 66.2998 10.7257C67.1658 9.37731 66.7717 7.58462 65.4268 6.7187C58.5766 2.32187 50.6488 0 42.5004 0C19.0673 0 0 19.0673 0 42.5004ZM38.9122 56.0459C39.3967 56.5335 40.0345 56.7761 40.6716 56.7761C41.3093 56.7761 41.9465 56.5335 42.4347 56.049L78.9572 19.5265C79.9299 18.5538 79.9299 16.9767 78.9572 16.004C77.9844 15.0313 76.4074 15.0313 75.4341 16.004L40.6753 50.7635L27.4937 37.5819C26.521 36.6092 24.944 36.6092 23.9713 37.5819C22.9986 38.5546 22.9986 40.1317 23.9713 41.105L38.9122 56.0459Z" fill="#6FCF97"/>
</svg>
