<svg width="30" height="18" viewBox="0 0 30 18" fill="none" xmlns="http://www.w3.org/2000/svg">
<path d="M9.81298 7.53696C12.1261 7.53696 13.8784 6.55694 13.8784 5.22692C13.8784 3.92022 12.1261 2.91687 9.81298 2.91687C7.4999 2.91687 5.74756 3.89689 5.74756 5.22692C5.74756 6.53361 7.4999 7.53696 9.81298 7.53696ZM9.81298 3.89689C11.5887 3.89689 12.9205 4.5969 12.9205 5.25025C12.9205 5.88026 11.5887 6.60361 9.81298 6.60361C8.03728 6.60361 6.7055 5.9036 6.7055 5.25025C6.72887 4.5969 8.03728 3.89689 9.81298 3.89689Z" fill="#22AAEC"/>
<path d="M29.486 9.49685H19.6495V5.46011C19.6495 5.43677 19.6495 5.41344 19.6495 5.39011C19.6495 5.34344 19.6495 5.29677 19.6495 5.22677C19.6495 2.28671 15.3271 0 9.81308 0C4.29907 0 0 2.28671 0 5.22677C0 5.27344 0 5.32011 0 5.39011C0 5.41344 0 5.43677 0 5.46011V13.6269C0 13.6503 0 13.6969 0 13.7203C0 13.7436 0 13.7903 0 13.8136C0 16.1937 5.07009 17.5003 9.83645 17.5003H29.5093C29.7664 17.5003 30 17.2903 30 17.0103V9.98687C29.9766 9.7302 29.7664 9.49685 29.486 9.49685ZM18.6916 9.49685H15.5607C16.8925 8.98351 17.9673 8.30683 18.6916 7.51348V9.49685ZM9.81308 0.956686C14.6262 0.956686 18.6682 2.91672 18.6682 5.22677C18.6682 7.53682 14.6028 9.49685 9.81308 9.49685C5.02336 9.49685 0.957944 7.56015 0.957944 5.22677C0.957944 2.91672 5.02336 0.956686 9.81308 0.956686ZM29.0187 16.5437H26.1682V13.5103C26.1682 13.2536 25.9579 13.0203 25.6776 13.0203C25.4206 13.0203 25.1869 13.2303 25.1869 13.5103V16.5437H19.6495V13.5103C19.6495 13.2536 19.4393 13.0203 19.1589 13.0203C18.9019 13.0203 18.6682 13.2303 18.6682 13.5103V16.5437H13.1308V13.5103C13.1308 13.2536 12.9206 13.0203 12.6402 13.0203C12.3832 13.0203 12.1495 13.2303 12.1495 13.5103V16.5437H9.81308C8.66822 16.5437 7.59346 16.4737 6.58878 16.3337V13.5103C6.58878 13.2536 6.3785 13.0203 6.09813 13.0203C5.84112 13.0203 5.60748 13.2303 5.60748 13.5103V16.1937C2.80374 15.6803 0.957944 14.7003 0.957944 13.8136C0.957944 13.7903 0.957944 13.7436 0.957944 13.7203C0.957944 13.6969 0.957944 13.6503 0.957944 13.6269V7.53682C2.52336 9.28685 5.86449 10.4769 9.81308 10.4769H28.9953V16.5437H29.0187Z" fill="#22AAEC"/>
</svg>
