<svg width="15" height="3" viewBox="0 0 15 3" fill="none" xmlns="http://www.w3.org/2000/svg">
<path d="M1.50001 3.00003C2.32845 3.00003 3.00003 2.32845 3.00003 1.50001C3.00003 0.671579 2.32845 0 1.50001 0C0.671579 0 0 0.671579 0 1.50001C0 2.32845 0.671579 3.00003 1.50001 3.00003Z" fill="black"/>
<path d="M7.50001 3.00003C8.32845 3.00003 9.00003 2.32845 9.00003 1.50001C9.00003 0.671579 8.32845 0 7.50001 0C6.67158 0 6 0.671579 6 1.50001C6 2.32845 6.67158 3.00003 7.50001 3.00003Z" fill="black"/>
<path d="M13.5 3.00003C14.3284 3.00003 15 2.32845 15 1.50001C15 0.671579 14.3284 0 13.5 0C12.6716 0 12 0.671579 12 1.50001C12 2.32845 12.6716 3.00003 13.5 3.00003Z" fill="black"/>
</svg>
