<svg width="75" height="99" viewBox="0 0 75 99" fill="none" xmlns="http://www.w3.org/2000/svg">
<path d="M24.6999 41.7614C24.5429 39.7955 24.3337 38.4849 23.4968 36.7206C23.6014 33.0409 23.4968 28.5545 23.2352 24.8748C23.1829 23.8666 22.7121 19.9348 20.5152 19.9348C19.8875 19.9348 14.7613 19.9348 14.7613 17.7168C14.7613 14.3899 18.3183 11.7687 18.109 8.29056C18.0567 7.43363 17.8475 6.57669 17.3767 5.82057C16.8013 4.86282 16.1213 4.30833 15.3367 3.95548C15.4936 2.89691 14.9705 1.78794 13.9767 1.28386C13.2444 0.931003 12.2505 0.880596 11.309 1.28386C10.3151 1.73753 9.84434 2.89691 9.94896 3.95548C9.11203 4.30833 8.37971 4.91323 7.85663 5.87098C7.38586 6.6271 7.17662 7.48403 7.12431 8.34097C6.91508 11.8191 10.9428 14.4403 10.629 17.7673C10.472 20.086 5.60738 19.9852 4.71814 19.9852C2.5212 19.9852 2.05042 23.8666 1.99812 24.9252C1.73657 28.605 1.63196 33.0409 1.73657 36.771C0.899644 38.5353 0.690411 39.8459 0.533487 41.8118C0.0104053 47.4071 -0.40806 53.3048 0.690411 56.3797C1.10888 57.2871 1.68427 57.9424 1.8935 58.4969C2.46889 58.2952 2.05042 57.3375 1.99812 57.1863C1.52734 56.4301 1.52734 56.6822 1.52734 56.3293C1.8935 56.8838 2.88735 57.5391 2.88735 57.5391C3.2012 57.2367 2.99197 57.035 1.84119 55.422C1.31811 54.6659 1.31811 53.9601 1.63196 53.5065C1.94581 53.5065 2.25966 54.061 2.46889 54.4138C2.5212 54.6659 2.5212 54.9683 2.57351 55.2203C2.57351 55.3716 2.99197 55.8756 3.14889 55.8252C3.14889 55.674 3.30582 53.3553 1.94581 51.843C1.68427 51.5406 1.42273 50.9861 1.42273 50.5828C1.42273 49.1714 1.42273 49.373 1.57965 48.4153C2.20735 44.7859 3.88121 40.602 3.88121 37.9304C4.40429 34.0994 5.1366 31.8815 5.1366 28.4033C5.1366 28.2017 5.45045 28.1009 5.55507 28.3529C6.13046 29.9156 6.75816 31.4278 7.33355 32.9904C8.01355 34.7547 8.22279 36.5694 8.22279 38.4345C8.22279 40.8037 6.81047 41.0053 6.07815 42.2655C4.61352 44.6851 4.19506 46.9534 4.29967 49.7763C4.14275 52.1455 4.35198 55.1699 4.61352 57.4887C4.97968 60.8156 5.34584 62.7815 5.7643 66.1085C5.92123 67.3183 6.07815 68.5784 5.97354 69.7882C5.92123 70.8972 5.65969 71.9558 5.50276 73.0647C4.4566 80.2227 8.17048 88.8424 5.55507 95.7483C5.29353 96.454 5.1366 97.1597 5.0843 97.815C5.03199 98.672 6.13046 98.9744 7.0197 98.9744C7.0197 98.9744 9.21664 99.3273 9.21664 97.4118C9.21664 95.0426 8.48433 94.3369 8.27509 92.0181C8.01355 88.3383 9.94895 82.6927 10.3674 78.9625C10.6813 75.9884 9.84434 73.6192 10.1059 70.6452C10.2105 69.3346 10.5767 68.0744 10.629 66.7638C10.7336 65.3019 11.2044 58.396 11.6228 55.7244C11.8844 54.565 12.0936 53.5569 12.0936 53.3048C12.1982 53.1536 12.3551 53.0024 12.5644 52.9016C12.7213 53.0528 12.8782 53.1536 13.0351 53.3048C13.0351 53.5569 13.2444 54.565 13.5059 55.7244C13.9244 58.4464 14.3951 65.3523 14.4998 66.7638C14.6044 68.0744 14.9182 69.3346 15.0228 70.6452C15.3367 73.6192 14.4475 75.9884 14.7613 78.9625C15.1798 82.6927 17.0629 88.2879 16.8536 92.0181C16.6967 94.3369 15.9121 95.093 15.9121 97.4118C15.9121 99.3273 18.109 98.9744 18.109 98.9744C18.946 98.9744 20.0967 98.672 20.0444 97.815C19.9921 97.1093 19.8352 96.4036 19.5737 95.7483C16.9583 88.792 20.6721 80.1723 19.626 73.0647C19.469 71.9558 19.2075 70.8972 19.1552 69.7882C19.0506 68.528 19.2075 67.3183 19.3644 66.1085C19.7829 62.7815 20.149 60.8156 20.5152 57.4887C20.7767 55.1699 20.9337 52.1959 20.8291 49.7763C20.9337 46.9534 20.5152 44.6851 19.0506 42.2655C18.3183 41.0053 16.9059 40.8037 16.9059 38.4345C16.9059 36.5694 17.1152 34.7547 17.7952 32.9904C18.3706 31.4278 18.9983 29.9156 19.5737 28.3529C19.6783 28.1513 19.9921 28.2017 19.9921 28.4033C19.9921 31.8815 20.7244 34.0994 21.2475 37.9304C21.2475 40.5516 22.9214 44.7859 23.5491 48.4153C23.706 49.373 23.706 49.2218 23.706 50.5828C23.706 50.9861 23.4445 51.5406 23.1829 51.843C21.8229 53.4057 22.0321 55.674 21.9798 55.8252C22.1368 55.9261 22.5029 55.422 22.5552 55.2203C22.6075 54.9683 22.6075 54.6659 22.6598 54.4138C22.8691 54.061 23.2352 53.5065 23.4968 53.5065C23.8106 53.9601 23.8629 54.6659 23.2875 55.422C22.1368 57.035 21.9275 57.2367 22.2414 57.5391C22.2414 57.5391 23.2352 56.8838 23.6014 56.3293C23.5491 56.6822 23.5491 56.4805 23.1306 57.1863C23.026 57.3375 22.6598 58.3456 23.2352 58.4969C23.4968 57.9424 24.0199 57.2871 24.4383 56.3797C25.5891 53.3048 25.1706 47.4071 24.6999 41.7614Z" fill="#A3CEF8"/>
<path d="M74.1136 46.402C74.7364 40.6902 74.425 37.4816 73.5686 35.388C73.4908 32.9531 73.1275 29.8127 72.6084 27.8557C71.9597 25.3525 70.8438 23.5548 70.74 21.4385C70.5842 18.2071 69.3386 16.1818 64.9269 15.7949C64.7712 15.7722 64.6155 15.7494 64.4597 15.7267C64.4338 15.7267 64.4078 15.7267 64.3819 15.7267C62.7989 15.5446 61.4235 15.7949 59.8664 14.4068C59.2695 13.8834 59.01 13.2007 58.8543 12.4043C58.8283 12.2905 58.8283 12.1767 58.8024 12.0629C58.8024 12.0402 58.8024 12.0174 58.8024 11.9947C58.8024 11.9719 58.8024 11.9719 58.8024 11.9492C59.1397 11.6078 59.4512 11.2892 59.5809 11.0844C59.7626 10.8341 59.8923 10.5155 59.9702 10.1742C59.9961 10.1514 59.9961 10.1287 60.0221 10.1059C60.4633 9.60528 60.7487 9.01362 60.9823 8.42196C61.1639 7.92132 60.9563 7.69376 61.2158 7.21588C61.4235 6.85178 61.5273 6.46493 61.4494 6.07807C61.3975 5.69122 61.6051 5.39539 61.6311 5.03129C61.657 4.66719 61.7349 4.32585 61.683 3.98451C61.6051 3.62041 61.7349 3.30182 61.5792 2.93772C61.4754 2.66465 61.1639 2.45984 61.0082 2.23228C60.8006 1.93645 60.7487 1.70889 60.5152 1.43582C60.3075 1.13999 59.9961 1.09448 59.6588 0.912426C59.1916 0.662108 59.01 0.411791 58.491 0.29801C57.6086 0.138717 56.7782 -0.0205761 55.8439 0.00218006C54.9097 -0.0205761 54.1052 0.138717 53.2229 0.320766C52.7038 0.411791 52.5222 0.684865 52.055 0.912426C51.7177 1.09448 51.4063 1.13999 51.1467 1.43582C50.9132 1.70889 50.8613 1.93645 50.6537 2.23228C50.498 2.45984 50.1866 2.66465 50.0827 2.93772C49.953 3.30182 50.0568 3.62041 49.9789 3.98451C49.9011 4.32585 49.9789 4.66719 50.0308 5.03129C50.0568 5.39539 50.2904 5.69122 50.2125 6.07807C50.1606 6.46493 50.2644 6.85178 50.4461 7.21588C50.7056 7.69376 50.498 7.92132 50.6796 8.42196C50.8872 9.01362 51.1987 9.60528 51.6398 10.1059C51.6658 10.1287 51.6658 10.1514 51.6917 10.1742C51.7696 10.5155 51.8993 10.8341 52.081 11.0844C52.2108 11.2665 52.5222 11.6078 52.8595 11.9492C52.8595 11.9719 52.8595 11.9719 52.8595 11.9947C52.8595 12.0174 52.8595 12.0402 52.8595 12.0629C52.8336 12.1767 52.8336 12.2905 52.8076 12.4043C52.6779 13.2007 52.3924 13.8834 51.7955 14.4068C50.2385 15.8177 48.863 15.5446 47.28 15.7267C47.2541 15.7267 47.2281 15.7267 47.2022 15.7267C47.0464 15.7494 46.8907 15.7722 46.735 15.7949C42.3233 16.1818 41.0777 18.2071 40.922 21.4385C40.8181 23.5548 39.7022 25.3525 39.0535 27.8557C38.5604 29.79 38.1711 32.9531 38.0933 35.388C37.2369 37.4816 36.9255 40.6902 37.5483 46.402C37.6002 46.9936 37.7299 47.7673 37.7818 48.2452C37.4445 49.5196 37.1331 51.7724 37.678 53.024C39.0794 56.0961 41.6745 57.4387 42.1936 56.9836C42.7385 56.5285 41.9341 55.9368 41.3372 54.8673C40.377 53.1605 40.6884 52.4551 40.6105 51.7269C41.0258 52.2958 41.2853 52.0455 41.986 53.6612C42.2714 54.3439 42.9461 54.1391 42.9202 54.0708C42.8164 53.4336 42.6347 52.7509 42.479 52.0227C41.8562 49.3603 40.7662 49.1555 40.377 48.2452C40.377 48.2452 40.5067 47.4715 40.5846 47.0391C41.0777 44.3312 42.1157 40.6447 42.2455 36.4575C42.2455 35.2287 44.4513 31.1098 45.671 24.7836C45.7748 25.216 45.8786 25.6711 46.0084 26.1718C46.0603 26.4221 46.1382 26.6724 46.216 26.9455C46.216 26.9682 46.216 26.991 46.242 26.991C46.3198 27.264 46.3977 27.5144 46.4755 27.7874C46.4755 27.8102 46.4755 27.833 46.5015 27.8557C46.5793 28.1288 46.6572 28.4019 46.735 28.6749C46.735 28.6977 46.735 28.6977 46.761 28.7204C46.8388 29.0163 46.9426 29.2893 47.0205 29.5852C48.0845 32.8848 47.825 36.5486 47.8769 38.4828C47.9288 40.1668 47.6174 40.1895 47.28 41.0998C47.2281 41.2136 47.2022 41.3501 47.1503 41.4639C47.1503 41.4639 47.1503 41.4639 47.1503 41.4866C47.0984 41.6004 47.0724 41.7142 47.0205 41.8052V41.828C46.9686 41.9418 46.9426 42.0328 46.8907 42.1238C46.8907 42.1466 46.8907 42.1466 46.8648 42.1693C46.8129 42.2604 46.7869 42.3514 46.735 42.4424C46.7091 42.5107 46.6572 42.5789 46.6312 42.6472V42.67C46.6053 42.7382 46.5793 42.7837 46.5534 42.852C46.5534 42.8748 46.5534 42.8748 46.5274 42.8975C46.5015 42.943 46.4755 43.0113 46.4496 43.0568C46.4496 43.0796 46.4236 43.1023 46.4236 43.1251C46.4236 43.1251 46.4236 43.1251 46.4236 43.1478C46.3977 43.1934 46.3717 43.2389 46.3458 43.3071C46.3458 43.3299 46.3458 43.3299 46.3198 43.3526C46.2939 43.3982 46.2939 43.4437 46.2679 43.4892C46.2679 43.4892 46.2679 43.4892 46.2679 43.5119C46.2679 43.5347 46.242 43.5574 46.242 43.5574C46.242 43.5802 46.216 43.603 46.216 43.603C46.1901 43.6485 46.1641 43.7167 46.1382 43.7623C46.1382 43.785 46.1122 43.8078 46.1122 43.8305C46.1122 43.8305 46.1122 43.8305 46.1122 43.8533C46.0863 43.9216 46.0603 43.9898 46.0343 44.0581V44.0808C46.0084 44.1491 45.9824 44.2174 45.9565 44.2857C45.9565 44.3084 45.9305 44.3312 45.9305 44.3539C45.9046 44.4222 45.8786 44.4905 45.8786 44.5587C45.8786 44.5815 45.8786 44.5815 45.8527 44.6042C45.8267 44.6953 45.8008 44.7635 45.7748 44.8546C45.7748 44.8773 45.7748 44.9001 45.7489 44.9228C45.7229 44.9911 45.7229 45.0594 45.697 45.1276C45.697 45.1504 45.697 45.1731 45.671 45.1959C45.6451 45.2869 45.6191 45.3779 45.6191 45.469C45.5932 45.56 45.5932 45.651 45.5672 45.742C45.5672 45.7648 45.5672 45.7876 45.5413 45.8331C45.5153 45.9241 45.5153 45.9924 45.4894 46.0834C45.4894 46.1061 45.4894 46.1289 45.4894 46.1517C45.4634 46.2654 45.4634 46.3565 45.4375 46.4702C45.4375 46.493 45.4375 46.5158 45.4375 46.5385C45.4375 46.6295 45.4115 46.7206 45.4115 46.8116C45.4115 46.8343 45.4115 46.8799 45.4115 46.9026C45.4115 47.0164 45.3856 47.1529 45.3856 47.2667C45.3596 47.4943 45.3337 47.7218 45.3337 47.9494C45.3337 48.0177 45.3337 48.0859 45.3077 48.1542C45.2818 48.3135 45.2818 48.4955 45.2818 48.6548C45.2818 48.7231 45.2818 48.7686 45.2818 48.8369C45.2558 49.292 45.2299 49.7244 45.2299 50.1567C45.2299 50.1795 45.2299 50.2022 45.2299 50.2478C45.2299 50.4526 45.2299 50.6346 45.2299 50.8394C45.2299 50.8622 45.2299 50.8849 45.2299 50.9077C45.2299 55.2769 46.0863 58.8041 47.0724 64.2428C47.4617 66.4274 48.344 69.727 48.1364 71.4337C47.9288 73.1404 47.7471 74.7789 47.8509 77.6234C48.0066 81.583 49.7713 85.1785 49.8492 92.0281C49.8492 92.4149 49.0447 93.9168 48.9409 94.5995C48.7592 95.8511 47.6174 96.5793 47.4617 97.3075C47.2022 98.4453 50.5239 98.7866 51.4322 98.8549C52.1848 98.9004 54.0533 99.4693 54.0792 97.9902C54.1052 97.4895 53.4564 96.1242 53.3007 94.7133C53.145 93.2341 53.0412 92.4604 52.9893 91.7322C52.7817 88.6374 54.2609 83.2897 54.4945 78.6474C54.6761 75.052 53.8976 73.368 53.7419 71.4792C53.6121 69.9091 54.3388 68.794 54.209 66.1316C54.183 65.3578 54.0014 64.5159 54.1571 63.6739C54.8578 59.8964 55.0913 55.0948 55.0654 51.4766C55.247 51.5449 55.4547 51.5904 55.6623 51.6131C55.7401 51.6131 55.818 51.6359 55.8958 51.6359C55.9737 51.6359 56.0515 51.6359 56.1294 51.6131C56.337 51.5904 56.5187 51.5449 56.7263 51.4766C56.7003 55.0948 56.9339 59.9191 57.6346 63.6739C57.7903 64.5159 57.6086 65.3351 57.5827 66.1316C57.4529 68.794 58.1536 69.9091 58.0498 71.4792C57.8941 73.3908 57.1155 75.052 57.2972 78.6474C57.5308 83.2897 59.01 88.6146 58.8024 91.7322C58.7505 92.4604 58.6467 93.2341 58.491 94.7133C58.3353 96.1469 57.7124 97.4895 57.7124 97.9902C57.7643 99.4466 59.6328 98.9004 60.3594 98.8549C61.2677 98.8094 64.5895 98.4453 64.33 97.3075C64.1743 96.5793 63.0324 95.8511 62.8508 94.5995C62.747 93.8941 61.9425 92.3922 61.9425 92.0281C62.0203 85.1785 63.785 81.583 63.9407 77.6234C64.0445 74.7789 63.8629 73.1404 63.6553 71.4337C63.4476 69.727 64.33 66.4274 64.7193 64.2428C65.5497 59.646 66.3023 56.4147 66.5099 52.8647C66.5358 52.2275 66.5618 51.5676 66.5618 50.9077C66.5618 50.8849 66.5618 50.8622 66.5618 50.8394C66.5618 50.6346 66.5618 50.4526 66.5618 50.2478C66.5618 50.225 66.5618 50.2022 66.5618 50.1795C66.5618 49.7471 66.5358 49.292 66.5099 48.8369C66.5099 48.7686 66.5099 48.7231 66.5099 48.6548C66.5099 48.4955 66.4839 48.3135 66.4839 48.1542C66.4839 48.0859 66.4839 48.0177 66.458 47.9494C66.432 47.7218 66.4061 47.4943 66.4061 47.2667C66.4061 47.1302 66.3801 47.0164 66.3801 46.9026C66.3801 46.8799 66.3801 46.8343 66.3801 46.8116C66.3801 46.7206 66.3542 46.6295 66.3542 46.5385C66.3542 46.5158 66.3542 46.493 66.3542 46.4702C66.3282 46.3565 66.3282 46.2427 66.3023 46.1517C66.3023 46.1289 66.3023 46.1061 66.3023 46.0834C66.3023 45.9924 66.2763 45.9241 66.2504 45.8331C66.2504 45.8103 66.2504 45.7648 66.2244 45.742C66.1985 45.651 66.1985 45.56 66.1725 45.469V45.4462C66.1466 45.3552 66.1206 45.2642 66.1206 45.1731C66.1206 45.1504 66.0947 45.1276 66.0947 45.0821C66.0687 45.0138 66.0687 44.9456 66.0428 44.8773C66.0428 44.8546 66.0428 44.8318 66.0168 44.809C65.9909 44.718 65.9649 44.6497 65.939 44.5587C65.939 44.536 65.913 44.5132 65.913 44.4905C65.8871 44.4222 65.8871 44.3767 65.8611 44.3084C65.8611 44.2856 65.8352 44.2629 65.8352 44.2401C65.8092 44.1719 65.7833 44.1264 65.7833 44.0581C65.7833 44.0353 65.7833 44.0353 65.7573 44.0126C65.7314 43.9443 65.7054 43.876 65.6795 43.8078C65.6795 43.8078 65.6795 43.8078 65.6795 43.785C65.6795 43.7623 65.6535 43.7395 65.6535 43.7167C65.6276 43.6712 65.6016 43.6257 65.6016 43.5574C65.6016 43.5347 65.5757 43.5119 65.5757 43.4892C65.5757 43.4664 65.5497 43.4437 65.5497 43.4437C65.5238 43.3982 65.5238 43.3526 65.4978 43.3071C65.4978 43.2844 65.4718 43.2844 65.4718 43.2616C65.4459 43.2161 65.4199 43.1478 65.394 43.1023C65.394 43.0796 65.368 43.0568 65.368 43.0341C65.3421 42.9658 65.3161 42.9203 65.2902 42.852C65.2123 42.7155 65.1604 42.5789 65.0826 42.4196C65.0307 42.3286 65.0047 42.2376 64.9528 42.1238C64.9528 42.1238 64.9528 42.1011 64.9269 42.1011C64.875 42.01 64.8231 41.8963 64.7971 41.7825V41.7597C64.7452 41.6459 64.6933 41.5322 64.6674 41.4184C64.6674 41.4184 64.6674 41.4184 64.6674 41.3956C64.6155 41.2818 64.5636 41.1681 64.5376 41.0315C64.2002 40.1213 63.9148 40.0985 63.9407 38.4146C63.9926 36.4575 63.7331 32.8165 64.7971 29.5169C64.9009 29.2211 64.9788 28.948 65.0826 28.6522C65.0826 28.6294 65.0826 28.6294 65.0826 28.6067C65.1604 28.3336 65.2383 28.0378 65.3421 27.7647C65.3421 27.7419 65.3421 27.7419 65.368 27.7192C65.4459 27.4461 65.5237 27.173 65.6016 26.9V26.8772C65.8092 26.0807 65.9909 25.3298 66.1466 24.6698C67.3663 30.9961 69.5721 35.1149 69.5721 36.3438C69.7019 40.5309 70.74 44.2174 71.233 46.9254C71.3109 47.3577 71.4406 48.1314 71.4406 48.1314C71.0773 49.0417 69.9614 49.2465 69.3386 51.909C69.1829 52.6372 68.9753 53.3198 68.8974 53.957C68.8974 54.0253 69.5462 54.2073 69.8317 53.5474C70.5323 51.909 70.7659 52.1593 71.2071 51.6131C71.1292 52.3413 71.4147 53.0468 70.4804 54.7535C69.8836 55.823 69.0791 56.4147 69.6241 56.8698C70.169 57.3249 72.7382 55.9823 74.0877 52.933C74.6326 51.6586 74.3212 49.4285 73.9839 48.1542C73.932 47.7673 74.0617 46.9936 74.1136 46.402Z" fill="#A3CEF8"/>
</svg>
