<svg width="50" height="50" viewBox="0 0 50 50" fill="none" xmlns="http://www.w3.org/2000/svg">
<rect width="50" height="50" rx="3" fill="#9EA9B9"/>
<path d="M18.5444 17.829V17.8L18.5137 17.829H18.5444Z" fill="#231F20"/>
<path d="M29.538 20.4093L29.5073 20.38V20.4093H29.538Z" fill="#231F20"/>
<path d="M21.4614 30.5895L21.4921 30.6185V30.5895H21.4614Z" fill="#231F20"/>
<path d="M8.74939 36.9992L20.0187 29.8652C19.7731 29.3722 19.5274 28.8792 19.3125 28.3862L8.13525 35.4332C8.38091 36.0132 8.56515 36.5352 8.74939 36.9992Z" fill="white"/>
<path d="M7.82761 34.5621L18.9742 27.5151C18.6671 26.7321 18.3907 25.8911 18.1758 25.05L6.99854 32.1261C7.24419 32.8801 7.52054 33.7211 7.82761 34.5621Z" fill="white"/>
<path d="M9.27148 38.304C9.45572 38.739 9.54784 39 9.54784 39L21.0936 31.634C20.9707 31.431 20.8172 31.257 20.6944 31.054L9.27148 38.304Z" fill="white"/>
<path d="M24.8091 15.1036C24.8398 15.1326 24.8705 15.1326 24.9012 15.1616C20.9707 12.3486 17.6237 12.2616 14.768 13.1026C8.41169 14.9586 4.51194 21.8896 6.53858 30.5896C6.6307 30.9086 6.72282 31.2856 6.84564 31.6626L18.0229 24.5866C16.6718 19.1926 17.1631 13.5086 21.5542 14.0016C20.7558 14.0016 19.5582 14.3496 18.8213 16.2056C18.6677 16.5536 18.5449 17.1046 18.5142 17.8296C21.3392 13.1606 27.4805 18.0326 29.4765 20.4106C28.1254 18.1486 26.5286 16.2346 24.8091 15.1036Z" fill="white"/>
<path d="M42.2801 14.1155L31.0107 21.2495C31.2564 21.7425 31.4713 22.2355 31.6863 22.7285L42.8328 15.6815C42.6486 15.1015 42.4643 14.5795 42.2801 14.1155Z" fill="white"/>
<path d="M43.2022 16.5823L32.0557 23.6293C32.3627 24.4123 32.6084 25.2533 32.854 26.0943L44.0313 19.0183C43.7856 18.2643 43.5093 17.4233 43.2022 16.5823Z" fill="white"/>
<path d="M44.1849 19.4823L32.977 26.5583C34.2667 31.9233 33.7446 37.4913 29.415 37.0273C30.2134 37.0273 31.4109 36.6793 32.1479 34.8233C32.3014 34.4753 32.3936 33.9243 32.455 33.1993C29.6299 37.8683 23.4886 32.9963 21.4927 30.6183C22.8745 32.8513 24.4405 34.7653 26.1908 35.8963C26.1601 35.8673 26.1294 35.8673 26.0987 35.8383C30.0291 38.6513 33.3762 38.7383 36.2319 37.8973C42.5882 36.0413 46.4879 29.1103 44.4613 20.4103C44.3692 20.1493 44.277 19.8303 44.1849 19.4823Z" fill="white"/>
<path d="M41.7595 12.812C41.5445 12.319 41.4217 12 41.4217 12L29.876 19.366C30.0295 19.598 30.183 19.83 30.3366 20.062L41.7595 12.812Z" fill="white"/>
</svg>
