<svg width="40" height="34" viewBox="0 0 40 34" fill="none" xmlns="http://www.w3.org/2000/svg">
<path fill-rule="evenodd" clip-rule="evenodd" d="M22.985 14.7997C22.7953 14.7997 22.6052 14.7274 22.4606 14.5819L17.0011 9.12471C16.7896 8.91216 16.7264 8.59249 16.8413 8.31468C16.9188 8.12813 17.19 7.85668 17.5276 7.85668H19.6358V5.29764V0.742979C19.6358 0.334178 19.9678 0 20.3787 0H25.5897C26.0006 0 26.3328 0.334178 26.3341 0.744364V5.29755V7.85586H28.443C28.8044 7.85586 29.0539 8.1344 29.1291 8.31534C29.244 8.59314 29.1809 8.91216 28.9673 9.12471L23.5085 14.5819C23.3652 14.7274 23.1751 14.7997 22.985 14.7997ZM36.8428 3.67319C37.8751 3.67319 38.8444 4.1791 39.4347 5.02669C40.0251 5.87818 40.1621 6.96283 39.8029 7.93082L36.1374 17.7979C35.6783 19.0292 34.4897 19.8555 33.177 19.8555H13.2426L13.7569 22.0495H32.5815C33.6771 22.0495 34.5661 22.9378 34.5661 24.0341C34.5661 25.1306 33.6771 26.0187 32.5815 26.0187H30.7311C31.7451 26.7612 32.412 27.9512 32.412 29.3039C32.412 31.5575 30.5851 33.3836 28.3328 33.3836C26.0799 33.3836 24.2527 31.5575 24.2527 29.3039C24.2527 27.9512 24.9191 26.7612 25.9337 26.0187H18.323C19.3375 26.7612 20.0031 27.9512 20.0031 29.3039C20.0031 31.5575 18.1774 33.3836 15.9239 33.3836C13.6704 33.3836 11.8432 31.5575 11.8432 29.3039C11.8432 27.9458 12.5138 26.7513 13.5348 26.0097C11.7994 25.9639 10.3212 24.7732 9.92089 23.0735L5.511 4.26122H1.98462C0.888968 4.26122 0 3.37283 0 2.27652C0 1.18022 0.888968 0.291907 1.98462 0.291907H5.62961C7.4104 0.291907 8.93888 1.50308 9.34703 3.23718L12.6224 17.2093H33.1771C33.3905 17.2093 33.583 17.0748 33.6567 16.8751L37.3221 7.00886C37.3802 6.85171 37.3583 6.67542 37.2626 6.53709C37.1683 6.40226 37.0107 6.31957 36.8426 6.31957H31.7594C31.7169 6.10311 31.66 5.88779 31.5734 5.6785C31.1384 4.6275 30.2168 3.89927 29.1341 3.67319H36.8428Z" fill="#505965"/>
</svg>
