<svg width="30" height="30" viewBox="0 0 30 30" fill="none" xmlns="http://www.w3.org/2000/svg">
<path d="M16.496 20.2841H15.4447V18.4091H16.496C17.1429 18.4091 17.7089 18.5795 17.7089 19.3466C17.628 20.1136 17.1429 20.2841 16.496 20.2841ZM30 10.483V26.3352C30 28.6363 28.6253 30 26.442 30H10.027C7.84367 30 6.469 28.5511 6.469 26.25V25.4829H1.61725C0.727763 25.4829 0 24.7159 0 23.7784V17.3011C0 16.3636 0.727763 15.5966 1.61725 15.5966H21.2668C22.1563 15.5966 22.8841 16.3636 22.8841 17.3011V23.7784C22.8841 24.7159 22.1563 25.4829 21.2668 25.4829H8.32884V26.25C8.32884 27.5284 8.89488 28.0398 10.027 28.0398H26.442C27.655 28.0398 28.1402 27.5284 28.1402 26.3352V11.5057H22.4798C20.2965 11.5057 18.9218 10.0568 18.9218 7.75568V1.96024H10.027C8.81402 1.96024 8.32884 2.55681 8.32884 3.74999V12.2727C8.32884 12.7841 7.92453 13.2102 7.43935 13.2102C6.95418 13.2102 6.54986 12.7841 6.54986 12.2727V3.74999C6.54986 1.44886 7.92453 0 10.1078 0H20.2156C20.4582 0 20.7008 0.0852428 20.8625 0.255697L29.8383 9.63069C29.9191 9.9716 30 10.2273 30 10.483ZM27.0081 9.63069L20.7817 3.06819V7.75568C20.7817 9.03409 21.3477 9.54546 22.4798 9.54546H27.0081V9.63069ZM14.0701 23.608H15.4447V21.392H16.8194C18.3558 21.392 18.9218 20.3693 18.9218 19.3466C18.9218 18.3239 18.3558 17.3011 16.8194 17.3011H14.0701V23.608ZM10.9164 23.608H12.2911V17.3011H10.9164V23.608ZM4.28572 23.608H9.46091V22.4148H6.06469L9.29919 18.4091V17.3011H4.5283V18.4943H7.52022L4.28572 22.5V23.608ZM11.6442 7.50001H15.8491C16.2534 7.50001 16.5768 7.15908 16.5768 6.73295C16.5768 6.30681 16.2534 5.96591 15.8491 5.96591H11.6442C11.2399 5.96591 10.9164 6.30681 10.9164 6.73295C10.9164 7.15908 11.2399 7.50001 11.6442 7.50001ZM11.6442 10.8239H15.8491C16.2534 10.8239 16.5768 10.483 16.5768 10.0568C16.5768 9.63069 16.2534 9.28976 15.8491 9.28976H11.6442C11.2399 9.28976 10.9164 9.63069 10.9164 10.0568C10.9164 10.5682 11.2399 10.8239 11.6442 10.8239Z" fill="#384250"/>
</svg>
