<svg width="40" height="40" viewBox="0 0 40 40" fill="none" xmlns="http://www.w3.org/2000/svg">
<circle cx="20" cy="20" r="19.5" fill="white" stroke="#22AAEC"/>
<path d="M13.6348 11.4896C13.2302 11.8011 13.002 12.2237 13.0003 12.6647V27.5495C12.9917 27.9141 13.1451 28.27 13.435 28.5579M13.6348 11.4896L25.8623 11.5C26.2646 11.8087 26.4935 12.227 26.4994 12.6647V27.5495C26.5104 27.9133 26.3599 28.2692 26.0729 28.5579M13.6348 11.4896C13.8565 11.3181 14.1216 11.1877 14.4102 11.1048L13.6348 11.4896ZM13.435 28.5579C13.8419 28.9614 14.5466 29.1069 15.1602 28.9142M13.435 28.5579L13.9631 28.0254C13.9632 28.0255 13.9634 28.0257 13.9636 28.0258M13.435 28.5579L13.9636 28.0258M15.1602 28.9142C15.7 28.7316 16.1475 28.4177 16.4345 28.0204L19.2667 24.5354L19.1679 24.4138L19.7499 23.9408L20.3319 24.4138L20.2331 24.5354L23.0653 28.0204C23.3523 28.4177 23.7998 28.7316 24.3396 28.9142M15.1602 28.9142L14.9199 28.2038C14.9226 28.2028 14.9254 28.2019 14.9282 28.2009M15.1602 28.9142L14.9355 28.1987C14.9331 28.1994 14.9306 28.2002 14.9282 28.2009M24.3396 28.9142C24.9555 29.1093 25.6644 28.9636 26.0729 28.5579M24.3396 28.9142L24.5661 28.1992C24.5682 28.1999 24.5704 28.2006 24.5725 28.2013M24.3396 28.9142L24.5799 28.2038C24.5775 28.2029 24.575 28.2021 24.5725 28.2013M26.0729 28.5579L25.5409 28.0293C25.5415 28.0286 25.5422 28.028 25.5428 28.0273M26.0729 28.5579L25.5443 28.0258C25.5438 28.0263 25.5433 28.0268 25.5428 28.0273M13.9636 28.0258C13.8004 27.8637 13.747 27.7001 13.7501 27.5673L13.7503 27.5584V27.5495V12.6665C13.7514 12.4957 13.8392 12.2788 14.0923 12.0839L14.0923 12.0839L14.0937 12.0829C14.3095 11.9159 14.6131 11.7954 14.9574 11.7604H15.1602H24.3387C24.7653 11.7615 25.1465 11.8945 25.4033 12.0932L25.4058 12.0951C25.6565 12.2875 25.7458 12.5015 25.7494 12.671V27.5495V27.5608L25.7498 27.572C25.7537 27.7041 25.7021 27.8661 25.5428 28.0273M13.9636 28.0258C14.1439 28.2042 14.5428 28.319 14.9282 28.2009M14.9282 28.2009C15.3408 28.0597 15.6463 27.8307 15.8265 27.5812L15.839 27.5639L15.8525 27.5474L19.1679 23.4678L19.7499 22.7516L20.3319 23.4678L23.6473 27.5474L23.6608 27.5639L23.6733 27.5812C23.8536 27.8309 24.1594 28.06 24.5725 28.2013M24.5725 28.2013C24.9593 28.3211 25.3607 28.2066 25.5428 28.0273" stroke="#22AAEC" stroke-width="1.5"/>
</svg>
