<svg width="40" height="40" viewBox="0 0 40 40" fill="#22AAEC" xmlns="http://www.w3.org/2000/svg">
<circle cx="20" cy="20" r="19.5" fill="#22AAEC" stroke="#22AAEC"/>
<path d="M31 24.125C31 23.5039 30.4961 23 29.875 23H28.75V20.75C28.75 19.9297 28.0703 19.25 27.25 19.25H21.25V17H22.375C22.9961 17 23.5 16.4961 23.5 15.875V12.125C23.5 11.5039 22.9961 11 22.375 11H18.625C18.0039 11 17.5 11.5039 17.5 12.125V15.875C17.5 16.4961 18.0039 17 18.625 17H19.75V19.25H13.75C12.9297 19.25 12.25 19.9297 12.25 20.75V23H11.125C10.5039 23 10 23.5039 10 24.125V27.875C10 28.4961 10.5039 29 11.125 29H14.875C15.4961 29 16 28.4961 16 27.875V24.125C16 23.5039 15.4961 23 14.875 23H13.75V20.75H19.75V23H18.625C18.0039 23 17.5 23.5039 17.5 24.125V27.875C17.5 28.4961 18.0039 29 18.625 29H22.375C22.9961 29 23.5 28.4961 23.5 27.875V24.125C23.5 23.5039 22.9961 23 22.375 23H21.25V20.75H27.25V23H26.125C25.5039 23 25 23.5039 25 24.125V27.875C25 28.4961 25.5039 29 26.125 29H29.875C30.4961 29 31 28.4961 31 27.875V24.125Z" fill="white"/>
</svg>
