<svg width="40" height="40" viewBox="0 0 40 40" fill="#22AAEC" xmlns="http://www.w3.org/2000/svg">
<circle cx="20" cy="20" r="19.5" fill="#22AAEC" stroke="#22AAEC"/>
<path fill-rule="evenodd" clip-rule="evenodd" d="M29.3346 14.4524C28.9354 14.0341 28.384 13.787 27.7567 13.787H24.6008V13.749C24.6008 13.2737 24.4106 12.8174 24.0875 12.5132C23.7643 12.19 23.327 11.9999 22.8517 11.9999H17.1483C16.654 11.9999 16.2167 12.19 15.8935 12.5132C15.5703 12.8364 15.3802 13.2737 15.3802 13.749V13.787H12.2433C11.616 13.787 11.0646 14.0341 10.6654 14.4524C10.2662 14.8516 10 15.422 10 16.0303V25.498C10 26.1254 10.2471 26.6767 10.6654 27.076C11.0646 27.4752 11.635 27.7414 12.2433 27.7414H27.7567C28.384 27.7414 28.9354 27.4942 29.3346 27.076C29.7338 26.6767 30 26.1064 30 25.498V16.0303C30 15.4029 29.7529 14.8516 29.3346 14.4524ZM29.0114 25.498H28.9924C28.9924 25.8402 28.8593 26.1444 28.6312 26.3725C28.403 26.6007 28.0989 26.7337 27.7567 26.7337H12.2433C11.9011 26.7337 11.597 26.6007 11.3688 26.3725C11.1407 26.1444 11.0076 25.8402 11.0076 25.498V16.0303C11.0076 15.6881 11.1407 15.3839 11.3688 15.1558C11.597 14.9277 11.9011 14.7946 12.2433 14.7946H15.9125C16.1977 14.7946 16.4259 14.5664 16.4259 14.2813V13.7299C16.4259 13.5208 16.5019 13.3307 16.635 13.1976C16.7681 13.0645 16.9582 12.9885 17.1673 12.9885H22.8517C23.0608 12.9885 23.251 13.0645 23.384 13.1976C23.5171 13.3307 23.5932 13.5208 23.5932 13.7299V14.2813C23.5932 14.5664 23.8213 14.7946 24.1065 14.7946H27.7757C28.1179 14.7946 28.4221 14.9277 28.6502 15.1558C28.8783 15.3839 29.0114 15.6881 29.0114 16.0303V25.498ZM20.0002 16.0874C18.7075 16.0874 17.5287 16.6197 16.6922 17.4562C15.8367 18.3117 15.3234 19.4714 15.3234 20.7642C15.3234 22.057 15.8557 23.2357 16.6922 24.0722C17.5478 24.9277 18.7075 25.441 20.0002 25.441C21.293 25.441 22.4717 24.9087 23.3082 24.0722C24.1637 23.2167 24.677 22.057 24.677 20.7642C24.677 19.4714 24.1447 18.2927 23.3082 17.4562C22.4717 16.6197 21.293 16.0874 20.0002 16.0874ZM22.5858 23.3688C21.9204 24.0152 21.0078 24.4334 20.0002 24.4334C18.9926 24.4334 18.0801 24.0152 17.4147 23.3688C16.7493 22.7034 16.35 21.7908 16.35 20.7832C16.35 19.7756 16.7683 18.8631 17.4147 18.1977C18.0801 17.5323 18.9926 17.133 20.0002 17.133C21.0078 17.133 21.9204 17.5513 22.5858 18.1977C23.2512 18.8631 23.6504 19.7756 23.6504 20.7832C23.6694 21.7908 23.2512 22.7034 22.5858 23.3688ZM27.6997 17C27.6997 17.5145 27.2826 17.9316 26.7682 17.9316C26.2537 17.9316 25.8366 17.5145 25.8366 17C25.8366 16.4855 26.2537 16.0684 26.7682 16.0684C27.2826 16.0684 27.6997 16.4855 27.6997 17Z" fill="white"/>
<path d="M29.3346 14.4524L29.1536 14.6252L29.162 14.6332L29.3346 14.4524ZM24.6008 13.787H24.3508V14.037H24.6008V13.787ZM24.0875 12.5132L23.9106 12.6901L23.9161 12.6953L24.0875 12.5132ZM15.3802 13.787V14.037H15.6302V13.787H15.3802ZM10.6654 14.4524L10.8422 14.6292L10.8462 14.625L10.6654 14.4524ZM10.6654 27.076L10.8422 26.8991L10.838 26.8951L10.6654 27.076ZM29.3346 27.076L29.1578 26.8991L29.1538 26.9033L29.3346 27.076ZM28.9924 25.498V25.248H28.7424V25.498H28.9924ZM29.0114 25.498V25.748H29.2614V25.498H29.0114ZM28.6312 26.3725L28.4544 26.1958V26.1958L28.6312 26.3725ZM11.3688 15.1558L11.192 14.979H11.192L11.3688 15.1558ZM16.635 13.1976L16.4582 13.0208V13.0208L16.635 13.1976ZM23.384 13.1976L23.2073 13.3744L23.2073 13.3744L23.384 13.1976ZM28.6502 15.1558L28.4734 15.3326V15.3326L28.6502 15.1558ZM16.6922 17.4562L16.869 17.633V17.633L16.6922 17.4562ZM16.6922 24.0722L16.869 23.8954H16.869L16.6922 24.0722ZM23.3082 24.0722L23.1314 23.8954L23.3082 24.0722ZM23.3082 17.4562L23.1314 17.633V17.633L23.3082 17.4562ZM22.5858 23.3688L22.76 23.5481L22.7626 23.5455L22.5858 23.3688ZM17.4147 23.3688L17.2379 23.5456L17.2405 23.5481L17.4147 23.3688ZM17.4147 18.1977L17.2379 18.0209L17.2354 18.0235L17.4147 18.1977ZM22.5858 18.1977L22.7626 18.0209L22.76 18.0183L22.5858 18.1977ZM23.6504 20.7832H23.4004L23.4005 20.7879L23.6504 20.7832ZM27.7567 14.037C28.3155 14.037 28.8016 14.256 29.1538 14.625L29.5154 14.2798C29.0692 13.8122 28.4526 13.537 27.7567 13.537V14.037ZM24.6008 14.037H27.7567V13.537H24.6008V14.037ZM24.3508 13.749V13.787H24.8508V13.749H24.3508ZM23.9161 12.6953C24.1855 12.9488 24.3508 13.3375 24.3508 13.749H24.8508C24.8508 13.2098 24.6358 12.686 24.2588 12.3312L23.9161 12.6953ZM22.8517 12.2499C23.2588 12.2499 23.633 12.4123 23.9107 12.69L24.2642 12.3364C23.8955 11.9677 23.3952 11.7499 22.8517 11.7499V12.2499ZM17.1483 12.2499H22.8517V11.7499H17.1483V12.2499ZM16.0703 12.69C16.347 12.4133 16.7208 12.2499 17.1483 12.2499V11.7499C16.5872 11.7499 16.0865 11.9667 15.7168 12.3364L16.0703 12.69ZM15.6302 13.749C15.6302 13.3419 15.7926 12.9677 16.0703 12.69L15.7168 12.3364C15.348 12.7051 15.1302 13.2055 15.1302 13.749H15.6302ZM15.6302 13.787V13.749H15.1302V13.787H15.6302ZM12.2433 14.037H15.3802V13.537H12.2433V14.037ZM10.8462 14.625C11.1984 14.256 11.6845 14.037 12.2433 14.037V13.537C11.5474 13.537 10.9308 13.8122 10.4846 14.2798L10.8462 14.625ZM10.25 16.0303C10.25 15.4941 10.4855 14.9858 10.8422 14.6292L10.4886 14.2756C10.0468 14.7174 9.75 15.3498 9.75 16.0303H10.25ZM10.25 25.498V16.0303H9.75V25.498H10.25ZM10.838 26.8951C10.469 26.5429 10.25 26.0569 10.25 25.498H9.75C9.75 26.1939 10.0253 26.8105 10.4928 27.2568L10.838 26.8951ZM12.2433 27.4914C11.7071 27.4914 11.1988 27.2558 10.8422 26.8992L10.4886 27.2527C10.9305 27.6946 11.5629 27.9914 12.2433 27.9914V27.4914ZM27.7567 27.4914H12.2433V27.9914H27.7567V27.4914ZM29.1538 26.9033C28.8016 27.2723 28.3155 27.4914 27.7567 27.4914V27.9914C28.4526 27.9914 29.0692 27.7161 29.5154 27.2486L29.1538 26.9033ZM29.75 25.498C29.75 26.0342 29.5145 26.5425 29.1578 26.8992L29.5114 27.2527C29.9532 26.8109 30.25 26.1785 30.25 25.498H29.75ZM29.75 16.0303V25.498H30.25V16.0303H29.75ZM29.162 14.6332C29.531 14.9854 29.75 15.4715 29.75 16.0303H30.25C30.25 15.3344 29.9747 14.7178 29.5072 14.2715L29.162 14.6332ZM28.9924 25.748H29.0114V25.248H28.9924V25.748ZM28.808 26.5493C29.0819 26.2754 29.2424 25.9081 29.2424 25.498H28.7424C28.7424 25.7723 28.6368 26.0134 28.4544 26.1958L28.808 26.5493ZM27.7567 26.9837C28.1667 26.9837 28.5341 26.8232 28.808 26.5493L28.4544 26.1958C28.272 26.3781 28.031 26.4837 27.7567 26.4837V26.9837ZM12.2433 26.9837H27.7567V26.4837H12.2433V26.9837ZM11.192 26.5493C11.4659 26.8232 11.8333 26.9837 12.2433 26.9837V26.4837C11.969 26.4837 11.728 26.3781 11.5456 26.1958L11.192 26.5493ZM10.7576 25.498C10.7576 25.9081 10.9181 26.2754 11.192 26.5493L11.5456 26.1958C11.3632 26.0134 11.2576 25.7723 11.2576 25.498H10.7576ZM10.7576 16.0303V25.498H11.2576V16.0303H10.7576ZM11.192 14.979C10.9181 15.2529 10.7576 15.6202 10.7576 16.0303H11.2576C11.2576 15.756 11.3632 15.515 11.5456 15.3326L11.192 14.979ZM12.2433 14.5446C11.8333 14.5446 11.4659 14.7051 11.192 14.979L11.5456 15.3326C11.728 15.1502 11.969 15.0446 12.2433 15.0446V14.5446ZM15.9125 14.5446H12.2433V15.0446H15.9125V14.5446ZM16.1759 14.2813C16.1759 14.4284 16.0596 14.5446 15.9125 14.5446V15.0446C16.3358 15.0446 16.6759 14.7045 16.6759 14.2813H16.1759ZM16.1759 13.7299V14.2813H16.6759V13.7299H16.1759ZM16.4582 13.0208C16.2741 13.205 16.1759 13.4607 16.1759 13.7299H16.6759C16.6759 13.581 16.7297 13.4564 16.8118 13.3744L16.4582 13.0208ZM17.1673 12.7385C16.898 12.7385 16.6424 12.8367 16.4582 13.0208L16.8118 13.3744C16.8938 13.2924 17.0183 13.2385 17.1673 13.2385V12.7385ZM22.8517 12.7385H17.1673V13.2385H22.8517V12.7385ZM23.5608 13.0208C23.3767 12.8367 23.121 12.7385 22.8517 12.7385V13.2385C23.0007 13.2385 23.1252 13.2924 23.2073 13.3744L23.5608 13.0208ZM23.8432 13.7299C23.8432 13.4607 23.745 13.205 23.5608 13.0208L23.2073 13.3744C23.2893 13.4564 23.3432 13.581 23.3432 13.7299H23.8432ZM23.8432 14.2813V13.7299H23.3432V14.2813H23.8432ZM24.1065 14.5446C23.9594 14.5446 23.8432 14.4284 23.8432 14.2813H23.3432C23.3432 14.7045 23.6832 15.0446 24.1065 15.0446V14.5446ZM27.7757 14.5446H24.1065V15.0446H27.7757V14.5446ZM28.827 14.979C28.5531 14.7051 28.1857 14.5446 27.7757 14.5446V15.0446C28.05 15.0446 28.291 15.1502 28.4734 15.3326L28.827 14.979ZM29.2614 16.0303C29.2614 15.6202 29.1009 15.2529 28.827 14.979L28.4734 15.3326C28.6558 15.515 28.7614 15.756 28.7614 16.0303H29.2614ZM29.2614 25.498V16.0303H28.7614V25.498H29.2614ZM16.869 17.633C17.6607 16.8413 18.7766 16.3374 20.0002 16.3374V15.8374C18.6383 15.8374 17.3968 16.3981 16.5155 17.2794L16.869 17.633ZM15.5734 20.7642C15.5734 19.5399 16.0588 18.4432 16.869 17.633L16.5155 17.2794C15.6146 18.1803 15.0734 19.403 15.0734 20.7642H15.5734ZM16.869 23.8954C16.0773 23.1037 15.5734 21.9878 15.5734 20.7642H15.0734C15.0734 22.1262 15.6342 23.3677 16.5155 24.249L16.869 23.8954ZM20.0002 25.191C18.7759 25.191 17.6792 24.7056 16.869 23.8954L16.5155 24.249C17.4163 25.1498 18.639 25.691 20.0002 25.691V25.191ZM23.1314 23.8954C22.3397 24.6871 21.2238 25.191 20.0002 25.191V25.691C21.3622 25.691 22.6037 25.1303 23.485 24.249L23.1314 23.8954ZM24.427 20.7642C24.427 21.9885 23.9416 23.0852 23.1314 23.8954L23.485 24.249C24.3858 23.3481 24.927 22.1254 24.927 20.7642H24.427ZM23.1314 17.633C23.9231 18.4247 24.427 19.5406 24.427 20.7642H24.927C24.927 19.4022 24.3663 18.1607 23.485 17.2794L23.1314 17.633ZM20.0002 16.3374C21.2238 16.3374 22.3397 16.8413 23.1314 17.633L23.485 17.2794C22.6037 16.3981 21.3622 15.8374 20.0002 15.8374V16.3374ZM20.0002 24.6834C21.0784 24.6834 22.052 24.2358 22.76 23.5481L22.4116 23.1894C21.7888 23.7945 20.9373 24.1834 20.0002 24.1834V24.6834ZM17.2405 23.5481C17.9485 24.2358 18.9221 24.6834 20.0002 24.6834V24.1834C19.0631 24.1834 18.2117 23.7945 17.5889 23.1894L17.2405 23.5481ZM16.1 20.7832C16.1 21.8584 16.5265 22.8342 17.2379 23.5455L17.5915 23.192C16.972 22.5725 16.6 21.7232 16.6 20.7832H16.1ZM17.2354 18.0235C16.5476 18.7314 16.1 19.7051 16.1 20.7832H16.6C16.6 19.8461 16.989 18.9947 17.594 18.3719L17.2354 18.0235ZM20.0002 16.883C18.925 16.883 17.9493 17.3095 17.2379 18.0209L17.5915 18.3744C18.2109 17.755 19.0602 17.383 20.0002 17.383V16.883ZM22.76 18.0183C22.052 17.3306 21.0784 16.883 20.0002 16.883V17.383C20.9373 17.383 21.7888 17.772 22.4116 18.377L22.76 18.0183ZM23.9004 20.7832C23.9004 19.708 23.4739 18.7322 22.7626 18.0209L22.409 18.3744C23.0285 18.9939 23.4004 19.8432 23.4004 20.7832H23.9004ZM22.7626 23.5455C23.4714 22.8367 23.9208 21.8603 23.9004 20.7785L23.4005 20.7879C23.4181 21.7213 23.031 22.57 22.409 23.192L22.7626 23.5455ZM26.7682 18.1816C27.4207 18.1816 27.9497 17.6526 27.9497 17H27.4497C27.4497 17.3764 27.1446 17.6816 26.7682 17.6816V18.1816ZM25.5866 17C25.5866 17.6526 26.1156 18.1816 26.7682 18.1816V17.6816C26.3917 17.6816 26.0866 17.3764 26.0866 17H25.5866ZM26.7682 15.8184C26.1156 15.8184 25.5866 16.3474 25.5866 17H26.0866C26.0866 16.6236 26.3917 16.3184 26.7682 16.3184V15.8184ZM27.9497 17C27.9497 16.3474 27.4207 15.8184 26.7682 15.8184V16.3184C27.1446 16.3184 27.4497 16.6236 27.4497 17H27.9497Z" fill="white"/>
</svg>
