<?xml version="1.0" encoding="utf-8"?>
<!-- Generator: Adobe Illustrator 17.0.0, SVG Export Plug-In . SVG Version: 6.00 Build 0)  -->
<!DOCTYPE svg PUBLIC "-//W3C//DTD SVG 1.1//EN" "http://www.w3.org/Graphics/SVG/1.1/DTD/svg11.dtd">
<svg version="1.1" id="Layer_1" xmlns="http://www.w3.org/2000/svg" xmlns:xlink="http://www.w3.org/1999/xlink" x="0px" y="0px"
	 width="33px" height="33px" viewBox="0 0 33 33" enable-background="new 0 0 33 33" xml:space="preserve">
<g>
	<path fill="#40B6E9" d="M16.501,33C7.403,33,0.001,25.598,0.001,16.5S7.403,0,16.501,0S33,7.402,33,16.5S25.598,33,16.501,33z"/>
	<path fill-rule="evenodd" clip-rule="evenodd" fill="#FFFFFF" d="M24.004,13.571c-0.063-0.171-0.299-0.462-0.441-0.561
		c-0.236-0.165-0.477-0.253-0.821-0.321h-1.603c-0.187,0-0.404,0.022-0.554-0.027c-0.076-0.047-0.151-0.094-0.227-0.14
		c-0.18-0.138-0.223-0.397-0.301-0.641c-0.051-0.16-0.148-0.354-0.194-0.514c-0.097-0.341-0.17-0.651-0.401-0.855
		c-0.206-0.182-1.034-0.107-1.429-0.107h-3.9c-0.149,0-0.318-0.018-0.441,0.02c-0.121,0.037-0.276,0.181-0.341,0.281
		c-0.083,0.127-0.101,0.303-0.147,0.461c-0.02,0.036-0.04,0.071-0.06,0.107c-0.076,0.285-0.176,0.544-0.267,0.801
		c-0.067,0.189-0.092,0.34-0.234,0.447c-0.078,0.047-0.156,0.094-0.234,0.14c-0.164,0.049-0.399,0.027-0.601,0.027H10.58
		c-0.186,0-0.347,0.014-0.488,0.04c-0.053,0.004-0.107,0.009-0.16,0.013c-0.365,0.138-0.654,0.364-0.855,0.668
		c-0.044,0.067-0.128,0.247-0.147,0.321c-0.007,0.06-0.013,0.12-0.02,0.18c-0.011,0.028-0.02,0.037-0.053,0.047v7.353
		c0.013,0.004,0.027,0.009,0.04,0.013c0.013,0.085,0.027,0.169,0.04,0.254c0.015,0.047,0.039,0.085,0.06,0.147
		c0.059,0.172,0.235,0.378,0.361,0.494c0.158,0.146,0.427,0.298,0.661,0.354c0.28,0.066,0.65,0.02,0.962,0.02h10.886
		c0.358,0,0.776,0.048,1.102-0.02c0.408-0.085,0.763-0.391,0.955-0.701c0.049-0.109,0.098-0.218,0.147-0.327
		c0.007-0.067,0.013-0.134,0.02-0.2c0.01-0.028,0.019-0.032,0.053-0.04v-7.286C24.066,13.907,24.055,13.71,24.004,13.571z
		 M20.264,18.046c-0.018,0.042-0.036,0.085-0.053,0.127c-0.033,0.138-0.028,0.231-0.08,0.354c-0.599,1.409-1.557,2.285-3.292,2.565
		h-0.334c-0.513,0-0.835-0.08-1.202-0.2c-1.211-0.396-1.805-1.118-2.358-2.171c-0.054-0.103-0.053-0.202-0.093-0.314
		c-0.204-0.56-0.251-1.431-0.067-2.044c0.043-0.143,0.032-0.262,0.093-0.387c0.112-0.231,0.212-0.464,0.327-0.688
		c0.063-0.122,0.182-0.237,0.26-0.347c0.41-0.575,1.098-1.089,1.837-1.329c0.19-0.062,0.391-0.108,0.588-0.14
		c0.182-0.03,0.409,0.006,0.568-0.053c1.576,0.004,2.733,0.882,3.333,1.87c0.125,0.207,0.197,0.418,0.294,0.655
		C20.296,16.461,20.446,17.372,20.264,18.046z M22.127,15.294c-0.364,0.078-0.681-0.392-0.568-0.748
		c0.039-0.121,0.207-0.271,0.321-0.321c0.056-0.009,0.111-0.018,0.167-0.027C22.774,14.193,22.817,15.146,22.127,15.294z
		 M18.621,16.396c-0.432-0.846-1.053-1.433-2.351-1.416c-0.107,0.051-0.219,0.034-0.354,0.067c-0.11,0.027-0.283,0.091-0.394,0.14
		c-0.581,0.259-0.986,0.781-1.215,1.396c-0.147,0.395-0.097,1.088,0.047,1.429c0.061,0.145,0.08,0.276,0.16,0.401
		c0.338,0.526,0.832,0.952,1.543,1.102c0.109,0.004,0.218,0.009,0.327,0.013c0.159,0.026,0.399,0.023,0.554-0.013
		c0.892-0.207,1.58-0.807,1.77-1.716c0.092-0.44,0.091-0.878-0.06-1.262C18.639,16.49,18.63,16.443,18.621,16.396z"/>
</g>
</svg>
