<?xml version="1.0" encoding="utf-8"?>
<!-- Generator: Adobe Illustrator 17.0.0, SVG Export Plug-In . SVG Version: 6.00 Build 0)  -->
<!DOCTYPE svg PUBLIC "-//W3C//DTD SVG 1.1//EN" "http://www.w3.org/Graphics/SVG/1.1/DTD/svg11.dtd">
<svg version="1.1" id="Layer_1" xmlns="http://www.w3.org/2000/svg" xmlns:xlink="http://www.w3.org/1999/xlink" x="0px" y="0px"
	 width="33px" height="33px" viewBox="0 0 33 33" enable-background="new 0 0 33 33" xml:space="preserve">
<g>
	<path fill="#D1D1D0" d="M16.453,33C7.381,33,0,25.598,0,16.5S7.381,0,16.453,0s16.453,7.402,16.453,16.5S25.525,33,16.453,33z
		 M16.453,0.963C7.91,0.963,0.961,7.933,0.961,16.5s6.95,15.537,15.493,15.537S31.946,25.067,31.946,16.5S24.996,0.963,16.453,0.963
		z"/>
	<path fill-rule="evenodd" clip-rule="evenodd" fill="#40B6E9" d="M23.935,13.571c-0.063-0.171-0.298-0.462-0.44-0.561
		c-0.235-0.165-0.476-0.253-0.819-0.321h-1.598c-0.187,0-0.403,0.022-0.553-0.027c-0.075-0.047-0.151-0.094-0.226-0.14
		c-0.18-0.138-0.223-0.397-0.3-0.641c-0.05-0.16-0.147-0.354-0.193-0.514c-0.097-0.341-0.17-0.651-0.4-0.855
		c-0.206-0.182-1.031-0.107-1.425-0.107h-3.889c-0.149,0-0.317-0.018-0.44,0.02c-0.12,0.037-0.275,0.181-0.34,0.281
		c-0.082,0.127-0.101,0.303-0.147,0.461c-0.02,0.036-0.04,0.071-0.06,0.107c-0.075,0.285-0.175,0.544-0.266,0.801
		c-0.067,0.189-0.092,0.34-0.233,0.447c-0.078,0.047-0.155,0.094-0.233,0.14c-0.163,0.049-0.398,0.027-0.599,0.027h-1.225
		c-0.186,0-0.346,0.014-0.486,0.04c-0.053,0.004-0.107,0.009-0.16,0.013c-0.364,0.138-0.653,0.364-0.852,0.668
		c-0.044,0.067-0.128,0.247-0.147,0.321c-0.007,0.06-0.013,0.12-0.02,0.18c-0.011,0.028-0.02,0.037-0.053,0.047v7.353
		c0.013,0.004,0.027,0.009,0.04,0.013c0.013,0.085,0.027,0.169,0.04,0.254c0.015,0.047,0.039,0.085,0.06,0.147
		c0.058,0.172,0.234,0.378,0.36,0.494c0.157,0.146,0.426,0.298,0.659,0.354c0.279,0.066,0.649,0.02,0.959,0.02h10.855
		c0.357,0,0.774,0.048,1.099-0.02c0.407-0.085,0.76-0.391,0.952-0.701c0.049-0.109,0.098-0.218,0.147-0.327
		c0.007-0.067,0.013-0.134,0.02-0.2c0.01-0.028,0.019-0.032,0.053-0.04v-7.286C23.998,13.907,23.986,13.71,23.935,13.571z
		 M20.206,18.046c-0.018,0.042-0.036,0.085-0.053,0.127c-0.033,0.138-0.028,0.231-0.08,0.354c-0.597,1.409-1.553,2.285-3.283,2.565
		h-0.333c-0.511,0-0.833-0.08-1.199-0.2c-1.208-0.396-1.8-1.118-2.351-2.171c-0.054-0.103-0.052-0.202-0.093-0.314
		c-0.203-0.56-0.25-1.431-0.067-2.044c0.043-0.143,0.032-0.262,0.093-0.387c0.112-0.231,0.211-0.464,0.326-0.688
		c0.063-0.122,0.181-0.237,0.26-0.347c0.409-0.575,1.095-1.089,1.831-1.329c0.189-0.062,0.39-0.108,0.586-0.14
		c0.181-0.03,0.407,0.006,0.566-0.053c1.571,0.004,2.726,0.882,3.323,1.87c0.125,0.207,0.196,0.418,0.293,0.655
		C20.238,16.461,20.387,17.372,20.206,18.046z M22.064,15.294c-0.363,0.078-0.679-0.392-0.566-0.748
		c0.038-0.121,0.206-0.271,0.32-0.321c0.055-0.009,0.111-0.018,0.166-0.027C22.709,14.193,22.752,15.146,22.064,15.294z
		 M18.568,16.396c-0.431-0.846-1.05-1.433-2.344-1.416c-0.106,0.051-0.219,0.034-0.353,0.067c-0.11,0.027-0.283,0.091-0.393,0.14
		c-0.58,0.259-0.983,0.781-1.212,1.396c-0.147,0.395-0.097,1.088,0.047,1.429c0.061,0.145,0.08,0.276,0.16,0.401
		c0.337,0.526,0.83,0.952,1.538,1.102c0.109,0.004,0.218,0.009,0.326,0.013c0.159,0.026,0.397,0.023,0.553-0.013
		c0.89-0.207,1.576-0.807,1.765-1.716c0.092-0.44,0.091-0.878-0.06-1.262C18.585,16.49,18.576,16.443,18.568,16.396z"/>
</g>
</svg>
