<?xml version="1.0" encoding="utf-8"?>
<!-- Generator: Adobe Illustrator 17.0.0, SVG Export Plug-In . SVG Version: 6.00 Build 0)  -->
<!DOCTYPE svg PUBLIC "-//W3C//DTD SVG 1.1//EN" "http://www.w3.org/Graphics/SVG/1.1/DTD/svg11.dtd">
<svg version="1.1" id="Layer_1" xmlns="http://www.w3.org/2000/svg" xmlns:xlink="http://www.w3.org/1999/xlink" x="0px" y="0px"
	 width="33px" height="33px" viewBox="0 0 33 33" enable-background="new 0 0 33 33" xml:space="preserve">
<g>
	<path fill="#42B5E8" d="M16.5,33C7.402,33,0,25.598,0,16.5S7.402,0,16.5,0S33,7.402,33,16.5S25.598,33,16.5,33z"/>
	<polygon fill="#FFFFFF" points="20.58,19.784 17.408,16.612 20.692,13.328 21.968,14.604 22.34,10.716 18.452,11.088 
		19.772,12.408 16.488,15.693 13.215,12.42 14.548,11.088 10.66,10.716 11.032,14.604 12.296,13.339 15.569,16.612 12.408,19.772 
		11.032,18.396 10.66,22.284 14.548,21.912 13.328,20.692 16.488,17.532 19.66,20.704 18.452,21.912 22.34,22.284 21.968,18.396 	
		"/>
</g>
</svg>
