<?xml version="1.0" encoding="utf-8"?>
<!-- Generator: Adobe Illustrator 17.0.0, SVG Export Plug-In . SVG Version: 6.00 Build 0)  -->
<!DOCTYPE svg PUBLIC "-//W3C//DTD SVG 1.1//EN" "http://www.w3.org/Graphics/SVG/1.1/DTD/svg11.dtd">
<svg version="1.1" id="Layer_1" xmlns="http://www.w3.org/2000/svg" xmlns:xlink="http://www.w3.org/1999/xlink" x="0px" y="0px"
	 width="33px" height="33px" viewBox="0 0 33 33" enable-background="new 0 0 33 33" xml:space="preserve">
<g>
	<path fill="#40B6E9" d="M16.5,33C7.402,33,0,25.602,0,16.509S7.402,0.018,16.5,0.018S33,7.416,33,16.509S25.598,33,16.5,33z"/>
	<path fill-rule="evenodd" clip-rule="evenodd" fill="#FFFFFF" d="M9.997,9.904c0.202,0.057,0.405,0.114,0.608,0.171
		c0.406,0.107,0.837,0.202,1.203,0.348c0.028-0.002,0.055-0.004,0.083-0.006c0.049,0.009,0.101,0.025,0.159,0.041
		c0.387,0.11,0.775,0.22,1.162,0.33c0.21,0.056,0.457,0.08,0.637,0.177c-0.004,0.012-0.008,0.024-0.012,0.035
		c-0.275,0.269-0.551,0.538-0.826,0.808c0,0.008,0,0.016,0,0.024c0.179,0.181,0.358,0.362,0.537,0.542
		c0.292,0.26,0.594,0.554,0.832,0.867c0.024,0.012,0.047,0.024,0.071,0.035c0.1,0.102,0.201,0.204,0.301,0.307
		c0.301,0.303,0.602,0.605,0.902,0.908c0.275,0.279,0.551,0.558,0.826,0.837c0.006,0,0.012,0,0.018,0
		c1.168-1.169,2.336-2.338,3.503-3.507c-0.035-0.098-0.16-0.178-0.23-0.248c-0.197-0.196-0.393-0.393-0.59-0.589
		c0-0.006,0-0.012,0-0.018c0.303-0.138,0.669-0.162,0.997-0.271c0.676-0.225,1.406-0.364,2.088-0.572
		c0.256-0.067,0.511-0.134,0.767-0.2c0.004,0.002,0.008,0.004,0.012,0.006c-0.04,0.341-0.154,0.703-0.26,1.02
		c-0.047,0.191-0.094,0.381-0.142,0.572c-0.108,0.389-0.216,0.778-0.324,1.167c-0.075,0.267-0.141,0.533-0.212,0.79
		c-0.028,0.101-0.029,0.252-0.094,0.318c-0.008,0-0.016,0-0.024,0c-0.271-0.273-0.543-0.546-0.814-0.819c-0.012,0-0.024,0-0.035,0
		c-1.166,1.167-2.332,2.335-3.498,3.502c0,0.01,0,0.02,0,0.029c0.301,0.305,0.602,0.609,0.902,0.914
		c0.579,0.58,1.179,1.147,1.74,1.745c0.208,0.21,0.417,0.421,0.625,0.631c0.085,0.084,0.169,0.169,0.254,0.253
		c0.081-0.043,0.138-0.126,0.201-0.189c0.212-0.208,0.425-0.417,0.637-0.625c0.061,0.04,0.045,0.112,0.071,0.189
		c0.068,0.201,0.1,0.417,0.165,0.631c0.223,0.725,0.391,1.479,0.584,2.222c0.053,0.204,0.114,0.411,0.165,0.625
		c0.015,0.061,0.066,0.146,0.041,0.206c-0.004,0.002-0.008,0.004-0.012,0.006c-0.354-0.098-0.708-0.197-1.062-0.295
		c-0.623-0.164-1.224-0.314-1.834-0.501c-0.211-0.065-0.424-0.113-0.625-0.171c-0.1-0.029-0.267-0.031-0.33-0.1
		c0-0.006,0-0.012,0-0.018c0.279-0.273,0.558-0.546,0.838-0.819c-0.002-0.006-0.004-0.012-0.006-0.018
		c-0.37-0.373-0.739-0.747-1.109-1.12c-0.149-0.179-0.327-0.33-0.49-0.495c-0.326-0.33-0.653-0.66-0.979-0.99
		c-0.311-0.314-0.621-0.629-0.932-0.943c-0.004,0-0.008,0-0.012,0c-1.154,1.153-2.308,2.307-3.462,3.46
		c0.025,0.09,0.164,0.183,0.23,0.242c0.199,0.202,0.397,0.405,0.596,0.607c0,0.004,0,0.008,0,0.012
		c-0.006,0.002-0.012,0.004-0.018,0.006c-0.128,0.033-0.256,0.067-0.383,0.1c-0.358,0.112-0.739,0.172-1.103,0.295
		c-0.316,0.106-0.668,0.177-0.985,0.277c-0.09,0.02-0.181,0.039-0.271,0.059c-0.195,0.068-0.405,0.106-0.613,0.165
		c-0.16,0.045-0.331,0.102-0.501,0.124c-0.002-0.002-0.004-0.004-0.006-0.006c0.002-0.084,0.045-0.167,0.065-0.236
		c0.061-0.216,0.116-0.431,0.171-0.637c0.181-0.679,0.33-1.365,0.543-2.022c0.07-0.215,0.113-0.436,0.171-0.643
		c0.027-0.097,0.029-0.276,0.106-0.324c0.279,0.277,0.558,0.554,0.838,0.831c0.076-0.025,0.223-0.207,0.277-0.271
		c0.224-0.224,0.448-0.448,0.672-0.672c0.843-0.841,1.687-1.682,2.53-2.523c-0.048-0.122-0.219-0.226-0.307-0.318
		c-0.238-0.242-0.476-0.483-0.714-0.725c-0.821-0.821-1.617-1.67-2.454-2.476c-0.002,0-0.004,0-0.006,0
		c-0.104,0.072-0.183,0.171-0.271,0.259c-0.124,0.12-0.248,0.24-0.372,0.36c-0.065,0.065-0.13,0.13-0.195,0.195
		c-0.076-0.05-0.08-0.225-0.106-0.324c-0.055-0.212-0.107-0.433-0.171-0.654c-0.126-0.436-0.233-0.911-0.366-1.344
		c-0.033-0.143-0.067-0.287-0.1-0.43c-0.065-0.199-0.101-0.414-0.165-0.625c-0.045-0.149-0.111-0.319-0.13-0.483
		C9.982,9.915,9.989,9.909,9.997,9.904z"/>
</g>
</svg>
