<svg width="20" height="18" viewBox="0 0 20 18" fill="none" xmlns="http://www.w3.org/2000/svg">
<path fill-rule="evenodd" clip-rule="evenodd" d="M13.5198 12.03H6.12979C5.79979 12.03 5.52979 11.77 5.52979 11.44V0.589997C5.52979 0.27 5.79979 0 6.12979 0H13.5198C13.8498 0 14.1198 0.26 14.1198 0.589997V11.44C14.1198 11.76 13.8498 12.03 13.5198 12.03ZM16.7397 9.21002V7.77002L15.1997 9.20002L16.7397 10.63V9.48002C17.4297 9.93001 17.8197 10.45 17.8197 11C17.8197 12.29 15.6997 13.39 12.7197 13.83V16.21C16.6797 15.67 19.5497 14.07 19.5497 12.18C19.5497 11.01 18.4797 9.97001 16.7397 9.21002ZM5.31 13.5201C3.14 12.9701 1.72 12.0401 1.72 10.9901C1.72 10.0501 2.84 9.22009 4.6 8.66009V8.59009C1.84 9.34009 0 10.6601 0 12.1701C0 13.8101 2.16 15.2301 5.32 15.9301V17.1301L7.62 14.8701L5.32 12.6101V13.5201H5.31Z" fill="#384250"/>
</svg>
