<svg width="15" height="16" viewBox="0 0 15 16" fill="none" xmlns="http://www.w3.org/2000/svg">
<path d="M0 15.0001L6 10.0001L0 5.1001V15.0001Z" fill="#384250"/>
<path d="M9 10.1L15 15V5L9 10.1ZM14 12.9L10.6 10.1L14 7.1V12.9Z" fill="#384250"/>
<path d="M7 5H8V6H7V5Z" fill="#384250"/>
<path d="M7 3H8V4H7V3Z" fill="#384250"/>
<path d="M7 7H8V8H7V7Z" fill="#384250"/>
<path d="M7 9H8V10H7V9Z" fill="#384250"/>
<path d="M7 11H8V12H7V11Z" fill="#384250"/>
<path d="M7 13H8V14H7V13Z" fill="#384250"/>
<path d="M7 15H8V16H7V15Z" fill="#384250"/>
<path d="M7.5001 1C8.8001 1 10.1001 1.7 11.1001 2.9L10.0001 4H13.0001V1L11.8001 2.2C10.6001 0.8 9.1001 0 7.5001 0C5.6001 0 3.9001 1 2.6001 2.9L3.4001 3.5C4.5001 1.9 5.9001 1 7.5001 1Z" fill="#384250"/>
</svg>
