<svg width="20" height="17" viewBox="0 0 20 17" fill="none" xmlns="http://www.w3.org/2000/svg">
<path d="M1.5 10C2.32843 10 3 9.32843 3 8.5C3 7.67157 2.32843 7 1.5 7C0.671573 7 0 7.67157 0 8.5C0 9.32843 0.671573 10 1.5 10Z" fill="#22AAEC"/>
<path d="M19 8.5H7" stroke="#22AAEC" stroke-width="2" stroke-miterlimit="10" stroke-linecap="round"/>
<path d="M1.5 3C2.32843 3 3 2.32843 3 1.5C3 0.671573 2.32843 0 1.5 0C0.671573 0 0 0.671573 0 1.5C0 2.32843 0.671573 3 1.5 3Z" fill="#22AAEC"/>
<path d="M19 1.5H7" stroke="#22AAEC" stroke-width="2" stroke-miterlimit="10" stroke-linecap="round"/>
<path d="M1.5 17C2.32843 17 3 16.3284 3 15.5C3 14.6716 2.32843 14 1.5 14C0.671573 14 0 14.6716 0 15.5C0 16.3284 0.671573 17 1.5 17Z" fill="#22AAEC"/>
<path d="M19 15.5H7" stroke="#22AAEC" stroke-width="2" stroke-miterlimit="10" stroke-linecap="round"/>
</svg>
