<svg width="40" height="40" viewBox="0 0 40 40" fill="none" xmlns="http://www.w3.org/2000/svg">
<circle cx="20" cy="20" r="19.5" fill="white" stroke="#22AAEC"/>
<path d="M23.7887 19.9296C23.4695 20.1549 23 20.5211 22.3803 21.0282C22.0235 21.3286 21.7324 21.7512 21.507 22.2958C21.4695 22.3709 21.3099 22.8592 21.0282 23.7606C20.9906 23.8732 21.0094 24.3427 21.0845 25.169H19.0845C18.9906 24.3991 18.9437 23.7887 18.9437 23.338C18.9437 22.4366 19.1408 21.6573 19.5352 21C19.8545 20.4366 20.4085 19.8263 21.1972 19.169C21.9859 18.5117 22.4836 18.0516 22.6901 17.7887C23.2347 17.169 23.507 16.5587 23.507 15.9577C23.507 15.1127 23.2347 14.4178 22.6901 13.8732C22.1643 13.3286 21.4789 13.0563 20.6338 13.0563C18.831 13.0563 17.6009 14.061 16.9437 16.0704L15 15.0563C16.0892 12.3521 17.939 11 20.5493 11C22.0141 11 23.2441 11.4695 24.2394 12.4085C25.2535 13.3474 25.7606 14.5399 25.7606 15.9859C25.7606 17.5446 25.1033 18.8592 23.7887 19.9296ZM20.2113 31C19.7418 31 19.3568 30.8498 19.0563 30.5493C18.7559 30.23 18.6056 29.8357 18.6056 29.3662C18.6056 28.8967 18.7559 28.5023 19.0563 28.1831C19.3756 27.8638 19.7606 27.7042 20.2113 27.7042C20.6995 27.7042 21.1033 27.8638 21.4225 28.1831C21.7606 28.4836 21.9296 28.8779 21.9296 29.3662C21.9296 29.8545 21.7606 30.2488 21.4225 30.5493C21.1033 30.8498 20.6995 31 20.2113 31Z" fill="#22AAEC"/>
</svg>
