<?xml version="1.0" encoding="UTF-8"?>
<svg xmlns="http://www.w3.org/2000/svg" xmlns:xlink="http://www.w3.org/1999/xlink" width="22pt" height="22pt" viewBox="0 0 22 22" version="1.1">
<defs>
<clipPath id="clip1">
  <path d="M 0.917969 0.917969 L 21.085938 0.917969 L 21.085938 21.085938 L 0.917969 21.085938 Z M 0.917969 0.917969 "/>
</clipPath>
</defs>
<g id="surface1">
<g clip-path="url(#clip1)" clip-rule="nonzero">
<path style=" stroke:none;fill-rule:evenodd;fill:rgb(100%,100%,100%);fill-opacity:1;" d="M 0.917969 0.917969 L 21.082031 0.917969 L 21.082031 21.082031 L 0.917969 21.082031 Z M 0.917969 0.917969 "/>
<path style=" stroke:none;fill-rule:evenodd;fill:rgb(5.098039%,66.27451%,93.72549%);fill-opacity:1;" d="M 14.765625 3.035156 C 17.511719 4.335938 19.480469 7 19.78125 10.160156 L 21.042969 10.160156 C 20.613281 4.984375 16.285156 0.917969 11 0.917969 L 10.445312 0.941406 L 13.648438 4.144531 Z M 9.511719 2.386719 C 9.015625 1.890625 8.21875 1.890625 7.730469 2.386719 L 2.386719 7.730469 C 1.890625 8.226562 1.890625 9.023438 2.386719 9.511719 L 12.488281 19.613281 C 12.984375 20.109375 13.78125 20.109375 14.269531 19.613281 L 19.613281 14.269531 C 20.109375 13.773438 20.109375 12.976562 19.613281 12.488281 Z M 13.378906 18.722656 L 3.277344 8.621094 L 8.621094 3.277344 L 18.722656 13.378906 Z M 7.234375 18.964844 C 4.488281 17.671875 2.519531 15 2.21875 11.839844 L 0.957031 11.839844 C 1.386719 17.015625 5.714844 21.082031 11 21.082031 L 11.554688 21.058594 L 8.351562 17.855469 Z M 7.234375 18.964844 "/>
</g>
</g>
</svg>
