<?xml version="1.0" encoding="utf-8"?>
<!-- Generator: Adobe Illustrator 17.0.0, SVG Export Plug-In . SVG Version: 6.00 Build 0)  -->
<!DOCTYPE svg PUBLIC "-//W3C//DTD SVG 1.1//EN" "http://www.w3.org/Graphics/SVG/1.1/DTD/svg11.dtd">
<svg version="1.1" id="Layer_1" xmlns="http://www.w3.org/2000/svg" xmlns:xlink="http://www.w3.org/1999/xlink" x="0px" y="0px"
	 width="50px" height="50px" viewBox="0 0 50 50" enable-background="new 0 0 50 50" xml:space="preserve">
<g>
	<g>
		<path fill="#D0D0CF" d="M25,50C11.215,50,0,38.785,0,25S11.215,0,25,0s25,11.215,25,25S38.785,50,25,50z M25,1.459
			C12.02,1.459,1.459,12.02,1.459,25S12.02,48.541,25,48.541S48.541,37.98,48.541,25S37.98,1.459,25,1.459z"/>
	</g>
	<g>
		<path fill="#00ADEE" d="M37.334,13.338l-3.896,0.182c-0.043-0.001-0.085,0.002-0.128,0.006l-0.06,0.003l-0.004,0.004
			c-0.086,0.014-0.171,0.034-0.254,0.07c-0.349,0.152-0.568,0.474-0.611,0.827l-0.003-0.003l0.001,0.03
			c-0.009,0.097-0.008,0.196,0.011,0.294l0.144,3.88l0.007,0.002c0.004,0.129,0.03,0.26,0.085,0.386
			c0.23,0.526,0.842,0.766,1.368,0.536c0.37-0.162,0.594-0.514,0.617-0.892l0.004,0l0-0.048c0-0.015,0-0.029,0-0.044l-0.002-1.704
			c1.221,1.307,2.2,2.862,2.611,4.397c0.557,2.079,0.601,3.729,0.358,5.074l0.004,0.001c-0.022,0.179-0.002,0.366,0.075,0.543
			c0.23,0.526,0.842,0.766,1.368,0.536c0.273-0.119,0.466-0.342,0.56-0.602l0.009,0.002c0.011-0.045,0.019-0.091,0.029-0.136
			c0.003-0.015,0.007-0.03,0.009-0.045c0.348-1.532,0.323-3.282-0.182-5.32c-0.608-2.455-1.889-4.627-3.349-5.859l1.344-0.065
			c0.153,0.007,0.31-0.017,0.46-0.082c0.526-0.23,0.766-0.842,0.536-1.368C38.252,13.503,37.789,13.267,37.334,13.338z"/>
		<path fill="#00ADEE" d="M16.006,30.95c-0.37,0.162-0.594,0.514-0.617,0.892l-0.004,0l0,0.048c0,0.015,0,0.029,0,0.044l0.002,1.704
			c-1.221-1.307-2.2-2.862-2.611-4.397c-0.557-2.08-0.601-3.729-0.358-5.074l-0.004-0.001c0.023-0.179,0.003-0.366-0.075-0.543
			c-0.23-0.526-0.842-0.766-1.368-0.536c-0.273,0.119-0.466,0.342-0.56,0.602l-0.009-0.002c-0.011,0.044-0.019,0.091-0.029,0.136
			c-0.003,0.015-0.007,0.03-0.01,0.045c-0.348,1.532-0.323,3.282,0.182,5.32c0.608,2.455,1.889,4.627,3.349,5.859l-1.344,0.065
			c-0.153-0.007-0.31,0.017-0.46,0.082c-0.526,0.23-0.766,0.842-0.536,1.368c0.193,0.442,0.656,0.677,1.111,0.607l3.896-0.182
			c0.043,0.001,0.085-0.002,0.128-0.006l0.06-0.003l0.004-0.004c0.086-0.014,0.171-0.034,0.254-0.07
			c0.349-0.152,0.568-0.474,0.611-0.827l0.003,0.003l-0.001-0.03c0.009-0.097,0.008-0.196-0.011-0.294l-0.144-3.879l-0.007-0.002
			c-0.004-0.129-0.03-0.26-0.085-0.386C17.144,30.96,16.532,30.72,16.006,30.95z"/>
		<path fill="#00ADEE" d="M24.615,10.153l-0.004-0.009l-0.135,0.059c-0.02,0.008-0.041,0.016-0.061,0.025
			c-0.02,0.009-0.04,0.018-0.06,0.028l-10.119,4.421l0,0c-0.021,0.008-0.043,0.017-0.064,0.026
			c-0.987,0.431-1.438,1.582-1.007,2.569c0.02,0.046,0.042,0.091,0.065,0.135l-0.005,0.002l8.989,20.576l0,0
			c0.003,0.008,0.006,0.016,0.01,0.023c0.397,0.909,1.403,1.363,2.331,1.092l0.008,0.015l10.608-4.634l-0.002-0.006
			c0.893-0.473,1.285-1.562,0.873-2.504c-0.031-0.071-0.066-0.139-0.104-0.204l0.012-0.005l-8.989-20.576l-0.001,0
			C26.544,10.297,25.536,9.864,24.615,10.153z M17.382,14.562l4.728-2.065c0.232-0.101,0.502,0.005,0.603,0.236
			c0.101,0.232-0.005,0.502-0.236,0.603l-4.728,2.065c-0.232,0.101-0.502-0.004-0.603-0.236
			C17.044,14.933,17.15,14.663,17.382,14.562z M29.117,35.112c-0.647,0.283-1.401-0.013-1.684-0.66
			c-0.283-0.647,0.013-1.401,0.66-1.684c0.647-0.283,1.401,0.013,1.684,0.66C30.06,34.075,29.765,34.829,29.117,35.112z
			 M32.995,28.819L21.982,33.63l-6.9-15.795l11.013-4.811L32.995,28.819z"/>
	</g>
</g>
</svg>
