<?xml version="1.0" encoding="utf-8"?>
<!-- Generator: Adobe Illustrator 17.0.0, SVG Export Plug-In . SVG Version: 6.00 Build 0)  -->
<!DOCTYPE svg PUBLIC "-//W3C//DTD SVG 1.1//EN" "http://www.w3.org/Graphics/SVG/1.1/DTD/svg11.dtd">
<svg version="1.1" id="Layer_1" xmlns="http://www.w3.org/2000/svg" xmlns:xlink="http://www.w3.org/1999/xlink" x="0px" y="0px"
	 width="50px" height="50px" viewBox="0 0 50 50" enable-background="new 0 0 50 50" xml:space="preserve">
<path fill="#42B5E8" d="M25,50C11.215,50,0,38.785,0,25S11.215,0,25,0s25,11.215,25,25S38.785,50,25,50z"/>
<path fill="#FFFFFF" d="M38.939,25.388H36.7v-2.341c0-0.693-0.565-1.256-1.259-1.256h-9.835v-2.036h2.239
	c0.694,0,1.259-0.564,1.259-1.256v-5.911c0-0.693-0.565-1.256-1.259-1.256h-5.939c-0.694,0-1.259,0.564-1.259,1.256v5.911
	c0,0.693,0.565,1.256,1.259,1.256h2.241v2.036h-9.835c-0.694,0-1.259,0.564-1.259,1.256v2.341h-2.241
	c-0.694,0-1.259,0.564-1.259,1.256v5.911c0,0.693,0.565,1.256,1.259,1.256h5.939c0.694,0,1.259-0.564,1.259-1.256v-5.911
	c0-0.693-0.565-1.256-1.259-1.256h-2.238V23.25h9.635v2.138h-2.241c-0.694,0-1.259,0.564-1.259,1.256v5.911
	c0,0.693,0.565,1.256,1.259,1.256h5.939c0.694,0,1.259-0.564,1.259-1.256v-5.911c0-0.693-0.565-1.256-1.259-1.256h-2.239V23.25
	h9.635v2.138h-2.24c-0.694,0-1.259,0.564-1.259,1.256v5.911c0,0.693,0.565,1.256,1.259,1.256h5.939c0.694,0,1.259-0.564,1.259-1.256
	v-5.911C40.198,25.951,39.634,25.388,38.939,25.388z"/>
</svg>
