<svg width="20" height="20" viewBox="0 0 20 20" fill="none" xmlns="http://www.w3.org/2000/svg">
<circle cx="10" cy="10" r="10" fill="#22AAEC"/>
<path d="M16.5714 9.42857C16.5714 8.95536 16.1875 8.57143 15.7143 8.57143H12V4.85714C12 4.38393 11.6161 4 11.1429 4H9.42857C8.95536 4 8.57143 4.38393 8.57143 4.85714V8.57143H4.85714C4.38393 8.57143 4 8.95536 4 9.42857V11.1429C4 11.6161 4.38393 12 4.85714 12H8.57143V15.7143C8.57143 16.1875 8.95536 16.5714 9.42857 16.5714H11.1429C11.6161 16.5714 12 16.1875 12 15.7143V12H15.7143C16.1875 12 16.5714 11.6161 16.5714 11.1429V9.42857Z" fill="white"/>
</svg>
