<svg width="33" height="33" xmlns="http://www.w3.org/2000/svg">
 <defs>
  <clipPath id="clip1">
   <path id="svg_1" d="m1.375,1.375l30.25,0l0,30.25l-30.25,0l0,-30.25zm0,0"/>
  </clipPath>
 </defs>
 <g>
  <title>background</title>
  <rect fill="none" id="canvas_background" height="402" width="582" y="-1" x="-1"/>
 </g>
 <g>
  <title>Layer 1</title>
  <path id="svg_3" fill-rule="evenodd" fill="rgb(100%,100%,100%)" d="m1.375,1.375l30.25,0l0,30.25l-30.25,0l0,-30.25zm0,0"/>
  <path transform="rotate(-135 16.5,16.5) " id="svg_4" fill-rule="evenodd" fill="rgb(5.098039%,66.27451%,93.72549%)" d="m22.14844,4.55078c4.12109,1.95313 7.07031,5.94922 7.52344,10.6875l1.89062,0c-0.64453,-7.76172 -7.13281,-13.86328 -15.0625,-13.86328l-0.83203,0.03906l4.80078,4.80078l1.67969,-1.66406zm-7.87891,-0.96875c-0.74609,-0.74609 -1.9414,-0.74609 -2.67187,0l-8.01563,8.01563c-0.74609,0.74218 -0.74609,1.9414 0,2.67187l15.14844,15.14844c0.74609,0.74609 1.94141,0.74609 2.67187,0l8.01563,-8.01563c0.74609,-0.74218 0.74609,-1.9414 0,-2.67187l-15.14844,-15.14844zm5.79688,24.5l-15.14844,-15.14844l8.01562,-8.01562l15.14844,15.14844l-8.01562,8.01562zm-9.21485,0.36719c-4.12109,-1.94141 -7.07031,-5.94922 -7.52343,-10.6875l-1.89063,0c0.64453,7.76172 7.13281,13.86328 15.0625,13.86328l0.83203,-0.03906l-4.80078,-4.80078l-1.67969,1.66406zm0,0"/>
 </g>
</svg>