<svg width="40" height="40" viewBox="0 0 40 40" fill="#22AAEC" xmlns="http://www.w3.org/2000/svg">
<circle cx="20" cy="20" r="19.5" fill="#22AAEC" stroke="#22AAEC"/>
<path fill-rule="evenodd" clip-rule="evenodd" d="M13.1094 20C13.1094 20.253 13.1272 20.5405 13.162 20.83C13.2045 21.185 12.8875 21.4807 12.5348 21.4101L11.4514 21.1935C11.2221 21.1475 11.0504 20.9568 11.0294 20.7239C11.0136 20.5481 11 20.3183 11 20.021V20C11 15.0535 15.0535 11 20 11C22.3413 11 24.5282 11.9071 26.1208 13.3941L26.6375 12.8879C26.7746 12.7508 26.9751 12.6981 27.1543 12.7508C27.3441 12.8035 27.4813 12.9617 27.5234 13.1515C27.4788 12.9296 28.2509 16.8035 28.2723 16.9098C28.3502 17.3248 27.9324 17.6261 27.6499 17.5321C27.872 17.5767 24.3846 16.4529 24.2785 16.4316C24.0887 16.3895 23.9411 16.2523 23.8778 16.0731C23.825 15.8831 23.8778 15.6828 24.0148 15.5457L24.623 14.9269C23.4102 13.8195 21.7612 13.1094 20 13.1094C16.2241 13.1094 13.1094 16.2241 13.1094 20ZM27.4654 18.5844L28.552 18.8057C28.7812 18.8526 28.9522 19.044 28.9722 19.277C28.9917 19.5052 29.0002 19.7346 29.0002 19.9684V20.0001C29.0002 24.9465 24.9467 29.0001 20.0002 29.0001C17.6483 29.0001 15.4615 28.0579 13.869 26.5707L13.3627 27.0769C13.2498 27.2024 13.0661 27.2692 12.8459 27.214C12.6561 27.1614 12.519 27.0032 12.4769 26.8133C12.49 26.8781 12.4333 26.5965 12.346 26.1626C12.1345 25.1112 11.7431 23.1654 11.7279 23.0903C11.6964 22.9215 11.7491 22.7317 11.8757 22.6157C11.9902 22.4908 12.1665 22.4378 12.3436 22.4669C12.2172 22.4521 15.6169 23.5473 15.7217 23.5684C15.9115 23.6106 16.0592 23.7477 16.1225 23.927C16.1752 24.1169 16.1225 24.3173 15.9854 24.4544L15.3772 25.0626C16.5901 26.1806 18.239 26.8907 20.0002 26.8907C23.7761 26.8907 26.8909 23.7758 26.8909 20.0001C26.8909 19.772 26.8741 19.4727 26.8365 19.165C26.7931 18.8083 27.1124 18.5124 27.4654 18.5844ZM12.3503 22.468C12.3481 22.4676 12.3458 22.4673 12.3436 22.4669C12.3452 22.4671 12.3475 22.4675 12.3503 22.468Z" fill="white"/>
</svg>
