<?xml version="1.0" encoding="utf-8"?>
<!-- Generator: Adobe Illustrator 17.0.0, SVG Export Plug-In . SVG Version: 6.00 Build 0)  -->
<!DOCTYPE svg PUBLIC "-//W3C//DTD SVG 1.1//EN" "http://www.w3.org/Graphics/SVG/1.1/DTD/svg11.dtd">
<svg version="1.1" id="Layer_1" xmlns="http://www.w3.org/2000/svg" xmlns:xlink="http://www.w3.org/1999/xlink" x="0px" y="0px"
	 width="33px" height="33px" viewBox="0 0 33 33" enable-background="new 0 0 33 33" xml:space="preserve">
<g>
	<path fill="#40B6E9" d="M16.5,33C7.402,33,0,25.598,0,16.5S7.402,0,16.5,0S33,7.402,33,16.5S25.598,33,16.5,33z"/>
	<path fill-rule="evenodd" clip-rule="evenodd" fill="#FFFFFF" d="M25.337,16.509c-0.219-0.058-0.646-0.028-0.865-0.008
		c-0.156,0.014-0.425,0.008-0.558-0.016c-0.252,0.003-0.503,0.005-0.755,0.008c-0.026-0.346-0.052-0.692-0.079-1.038
		c-0.102-0.432-0.189-0.925-0.354-1.313c-0.777-1.834-2.123-3.304-4.081-3.923c-0.623-0.197-1.37-0.391-2.186-0.377
		c-0.187,0.076-0.471,0.003-0.668,0.031c-0.204,0.034-0.409,0.068-0.613,0.102c-0.835,0.19-1.568,0.48-2.201,0.888
		c-0.187,0.121-0.385,0.221-0.519,0.393v0.008c0.309,0.432,0.619,0.865,0.928,1.297h0.031c0.449-0.332,0.964-0.604,1.541-0.81
		c0.905-0.323,2.281-0.283,3.114,0.039c0.071,0.016,0.142,0.031,0.212,0.047c0.186,0.085,0.362,0.152,0.55,0.244
		c0.143,0.07,0.277,0.201,0.409,0.275c1.236,0.693,2.166,2.237,2.233,4.12c-0.105,0.051-0.265-0.017-0.417,0.008
		c-0.148,0.024-0.456,0.026-0.605,0c-0.104-0.018-0.233,0.012-0.314,0.016c-0.246-0.005-0.493-0.01-0.739-0.016
		c-0.005,0.018-0.01,0.037-0.016,0.055c0.257,0.298,0.488,0.636,0.7,0.975c0.133,0.213,0.326,0.422,0.48,0.621
		c0.231,0.3,0.433,0.614,0.637,0.936c0.047,0.05,0.094,0.1,0.142,0.149c0.216,0.309,0.426,0.607,0.637,0.92
		c0.105,0.156,0.279,0.298,0.346,0.487c0.008,0.005,0.016,0.01,0.024,0.016c0.099-0.057,0.158-0.181,0.22-0.275
		c0.184-0.277,0.393-0.549,0.59-0.826c0.501-0.703,1.042-1.382,1.517-2.107c0.146-0.222,0.323-0.452,0.487-0.668
		c0.056-0.074,0.147-0.152,0.181-0.244C25.343,16.519,25.34,16.514,25.337,16.509z M19.48,20.495
		c-0.215,0.134-0.43,0.267-0.645,0.401c-0.434,0.263-0.994,0.399-1.549,0.527h-0.204c-0.804,0.156-1.69-0.045-2.288-0.259
		c-1.74-0.624-3.304-2.308-3.263-4.647c0.174-0.045,0.592-0.036,0.778-0.008c0.28-0.003,0.561-0.005,0.841-0.008
		c0.149,0.009,0.413,0.045,0.55-0.008c0.016-0.014,0.006,0,0.016-0.024c-0.71-0.942-1.422-1.896-2.107-2.854
		c-0.228-0.319-0.465-0.629-0.692-0.943c-0.072-0.1-0.141-0.263-0.244-0.33c-0.367,0.511-0.734,1.022-1.101,1.533
		c-0.31,0.369-0.602,0.777-0.873,1.179c-0.115,0.147-0.231,0.294-0.346,0.44c-0.117,0.194-0.25,0.384-0.385,0.566
		c-0.091,0.122-0.234,0.246-0.291,0.393c-0.017,0.016-0.015,0.011-0.024,0.039c0.187,0.036,0.48,0.039,0.668,0.008h0.936
		c0.194,0.005,0.388,0.01,0.582,0.016c0.026,0.343,0.052,0.687,0.079,1.03c0.058,0.186,0.064,0.406,0.126,0.613
		c0.141,0.475,0.329,0.916,0.535,1.329c0.071,0.144,0.142,0.288,0.212,0.432c1.005,1.491,2.19,2.502,4.144,3.027
		c0.694,0.186,1.81,0.303,2.618,0.118c0.434-0.099,0.84-0.18,1.219-0.33c0.488-0.193,0.914-0.386,1.313-0.653
		c0.126-0.084,0.315-0.154,0.393-0.283c-0.172-0.257-0.378-0.496-0.566-0.739C19.769,20.877,19.66,20.642,19.48,20.495z"/>
</g>
</svg>
