<?xml version="1.0" encoding="iso-8859-1"?>
<!-- Generator: Adobe Illustrator 19.0.0, SVG Export Plug-In . SVG Version: 6.00 Build 0)  -->
<svg version="1.1" id="Capa_1" xmlns="http://www.w3.org/2000/svg" xmlns:xlink="http://www.w3.org/1999/xlink" x="0px" y="0px"
	 viewBox="0 0 384 384" style="enable-background:new 0 0 384 384;" xml:space="preserve" fill="#2bb8f4">
<g>
	<g>
		<g>
			<path fill="#D1D1D0" stroke-width="1" d="M192,0C86.128,0,0,86.128,0,192s86.128,192,192,192s192-86.128,192-192S297.872,0,192,0z M192,352
				c-88.224,0-160-71.776-160-160S103.776,32,192,32s160,71.776,160,160S280.224,352,192,352z"/>
			<polygon points="198.632,128 176,105.368 89.368,192 176,278.632 198.632,256 134.632,192 			"/>
			<polygon points="256,105.368 169.368,192 256,278.632 278.632,256 214.632,192 278.632,128 			"/>
		</g>
	</g>
</g>
<g>
</g>
<g>
</g>
<g>
</g>
<g>
</g>
<g>
</g>
<g>
</g>
<g>
</g>
<g>
</g>
<g>
</g>
<g>
</g>
<g>
</g>
<g>
</g>
<g>
</g>
<g>
</g>
<g>
</g>
</svg>
