<?xml version="1.0" encoding="utf-8"?>
<!-- Generator: Adobe Illustrator 17.0.0, SVG Export Plug-In . SVG Version: 6.00 Build 0)  -->
<!DOCTYPE svg PUBLIC "-//W3C//DTD SVG 1.1//EN" "http://www.w3.org/Graphics/SVG/1.1/DTD/svg11.dtd">
<svg version="1.1" id="Layer_1" xmlns="http://www.w3.org/2000/svg" xmlns:xlink="http://www.w3.org/1999/xlink" x="0px" y="0px"
	 width="33px" height="33px" viewBox="0 0 33 33" enable-background="new 0 0 33 33" xml:space="preserve">
<g>
	<path fill="#D1D1D0" d="M16.539,32.998c-9.054,0-16.42-7.402-16.42-16.499S7.485,0,16.539,0s16.42,7.402,16.42,16.499
		S25.593,32.998,16.539,32.998z M16.539,0.963c-8.526,0-15.461,6.969-15.461,15.536s6.936,15.536,15.461,15.536S32,25.066,32,16.499
		S25.065,0.963,16.539,0.963z"/>
	<path fill-rule="evenodd" clip-rule="evenodd" fill="#40B6E9" d="M22.101,23.399c0.07,0.07,0.143,0.152,0.222,0.234l1.305-1.333
		c-1.165-1.171-2.963-2.987-4.1-4.13c0.025-0.123,0.156-0.242,0.22-0.341c0.082-0.149,0.163-0.299,0.245-0.448
		c0.166-0.342,0.309-0.723,0.415-1.117c0.07-0.262,0.09-0.54,0.138-0.82c0.045-0.262,0.04-0.652,0-0.903
		c-0.042-0.263-0.028-0.488-0.088-0.726c-0.114-0.455-0.249-0.874-0.433-1.25c-0.896-1.821-2.556-3.238-5.301-3.2
		c-0.247,0.029-0.494,0.059-0.741,0.088c-0.394,0.093-0.753,0.19-1.099,0.328c-1.502,0.601-2.669,1.901-3.184,3.496
		c-0.107,0.332-0.154,0.691-0.22,1.067c-0.033,0.186-0.025,0.363-0.025,0.568c0,0.7,0.096,1.306,0.295,1.811
		c0.123,0.312,0.219,0.596,0.364,0.877c0.582,1.131,1.624,2.044,2.852,2.531c0.338,0.134,0.7,0.239,1.099,0.322
		c0.183,0.038,0.353,0.023,0.553,0.057c0.176,0.029,0.434,0.035,0.616,0.006c0.09-0.002,0.18-0.004,0.27-0.006
		c0.765-0.136,1.406-0.272,1.985-0.581c0.155-0.09,0.31-0.181,0.465-0.271c0.079-0.05,0.161-0.145,0.258-0.17
		C19.275,20.558,21.033,22.33,22.101,23.399z M18.924,16.618c-0.498,1.134-1.399,2.018-2.638,2.405
		c-0.385,0.12-0.793,0.136-1.262,0.196c-0.111-0.008-0.222-0.017-0.333-0.025c-0.192-0.031-0.337-0.021-0.515-0.057
		c-0.345-0.069-0.681-0.19-0.961-0.328c-1.134-0.56-1.89-1.398-2.286-2.701c-0.135-0.443-0.244-1.148-0.132-1.717
		c0.051-0.26,0.082-0.516,0.163-0.751c0.488-1.417,1.37-2.203,2.726-2.752c0.262-0.106,0.567-0.12,0.867-0.183
		c0.111-0.006,0.222-0.013,0.333-0.019c2.064-0.003,3.516,1.206,4.07,2.708C19.324,14.391,19.352,15.642,18.924,16.618z"/>
</g>
</svg>
