<?xml version="1.0" encoding="utf-8"?>
<!-- Generator: Adobe Illustrator 17.0.0, SVG Export Plug-In . SVG Version: 6.00 Build 0)  -->
<!DOCTYPE svg PUBLIC "-//W3C//DTD SVG 1.1//EN" "http://www.w3.org/Graphics/SVG/1.1/DTD/svg11.dtd">
<svg version="1.1" id="Layer_1" xmlns="http://www.w3.org/2000/svg" xmlns:xlink="http://www.w3.org/1999/xlink" x="0px" y="0px"
	 width="33px" height="33px" viewBox="0 0 33 33" enable-background="new 0 0 33 33" xml:space="preserve">
<g>
	<path fill="#40B6E9" d="M16.5,33C7.402,33,0,25.598,0,16.5S7.402,0,16.5,0S33,7.402,33,16.5S25.598,33,16.5,33z"/>
	<path fill-rule="evenodd" clip-rule="evenodd" fill="#FFFFFF" d="M22.089,23.4c0.07,0.07,0.144,0.152,0.223,0.234l1.311-1.333
		c-1.171-1.171-2.977-2.987-4.12-4.13c0.025-0.123,0.157-0.242,0.221-0.341c0.082-0.149,0.164-0.299,0.246-0.448
		c0.166-0.342,0.31-0.723,0.417-1.117c0.071-0.262,0.09-0.54,0.139-0.821c0.045-0.262,0.041-0.652,0-0.903
		c-0.043-0.263-0.028-0.488-0.088-0.726c-0.115-0.455-0.25-0.874-0.436-1.25c-0.901-1.822-2.568-3.238-5.327-3.2
		c-0.248,0.029-0.497,0.059-0.745,0.088c-0.396,0.093-0.757,0.19-1.105,0.328c-1.509,0.601-2.682,1.901-3.2,3.497
		c-0.108,0.332-0.154,0.691-0.221,1.067c-0.033,0.186-0.025,0.363-0.025,0.568c0,0.7,0.097,1.306,0.297,1.811
		c0.124,0.312,0.22,0.596,0.366,0.877c0.585,1.131,1.631,2.044,2.865,2.531c0.339,0.134,0.703,0.239,1.105,0.322
		c0.184,0.038,0.355,0.023,0.555,0.057c0.177,0.029,0.436,0.035,0.619,0.006c0.09-0.002,0.181-0.004,0.271-0.006
		c0.769-0.136,1.413-0.272,1.994-0.581c0.156-0.09,0.311-0.181,0.467-0.271c0.079-0.05,0.162-0.145,0.259-0.17
		C19.25,20.559,21.016,22.331,22.089,23.4z M18.896,16.619c-0.5,1.134-1.406,2.018-2.651,2.405c-0.387,0.12-0.797,0.136-1.269,0.196
		c-0.111-0.008-0.223-0.017-0.335-0.025c-0.193-0.031-0.339-0.021-0.518-0.057c-0.346-0.069-0.684-0.19-0.966-0.328
		c-1.139-0.56-1.899-1.398-2.297-2.701c-0.135-0.443-0.245-1.148-0.133-1.717c0.051-0.26,0.083-0.516,0.164-0.751
		c0.491-1.417,1.376-2.203,2.739-2.752c0.263-0.106,0.569-0.12,0.871-0.183c0.111-0.006,0.223-0.013,0.335-0.019
		c2.074-0.003,3.533,1.206,4.09,2.708C19.298,14.392,19.327,15.643,18.896,16.619z"/>
</g>
</svg>
