<?xml version="1.0" encoding="utf-8"?>
<!-- Generator: Adobe Illustrator 17.0.0, SVG Export Plug-In . SVG Version: 6.00 Build 0)  -->
<!DOCTYPE svg PUBLIC "-//W3C//DTD SVG 1.1//EN" "http://www.w3.org/Graphics/SVG/1.1/DTD/svg11.dtd">
<svg version="1.1" id="Layer_1" xmlns="http://www.w3.org/2000/svg" xmlns:xlink="http://www.w3.org/1999/xlink" x="0px" y="0px"
	 width="33px" height="33px" viewBox="0 0 33 33" enable-background="new 0 0 33 33" xml:space="preserve">
<g>
	<path fill="#D1D1D0" d="M16.5,33C7.402,33,0,25.598,0,16.5S7.402,0,16.5,0S33,7.402,33,16.5S25.598,33,16.5,33z M16.5,0.963
		C7.933,0.963,0.963,7.933,0.963,16.5S7.933,32.037,16.5,32.037S32.037,25.067,32.037,16.5S25.067,0.963,16.5,0.963z"/>
	<path fill-rule="evenodd" clip-rule="evenodd" fill="#40B6E9" d="M16.482,8.287c0.014,0.005,0.029,0.01,0.043,0.014
		c0.008,0.147,0.091,0.279,0.129,0.403c0.122,0.393,0.248,0.773,0.374,1.151c0.148,0.443,0.238,0.881,0.41,1.316
		c0.236,0.599,0.436,1.259,0.626,1.877c0.119,0.388,0.255,0.769,0.374,1.144c0.019,0.06,0.081,0.337,0.115,0.352
		c2.191,0,4.383,0,6.573,0c0.002,0.005,0.005,0.01,0.007,0.014c-0.005,0.007-0.01,0.014-0.014,0.022
		c-0.178,0.063-0.322,0.246-0.475,0.345c-0.463,0.302-0.881,0.668-1.338,0.971c-0.753,0.499-1.453,1.071-2.186,1.589
		c-0.223,0.156-0.446,0.312-0.669,0.467c-0.093,0.074-0.187,0.149-0.28,0.223c-0.125,0.073-0.26,0.159-0.36,0.259
		c0.678,2.09,1.357,4.181,2.035,6.271c-0.005,0.002-0.01,0.005-0.014,0.007c-1.292-0.937-2.584-1.875-3.876-2.812
		c-0.343-0.244-0.689-0.494-1.028-0.748c-0.103-0.077-0.321-0.291-0.446-0.316c-1.771,1.292-3.543,2.584-5.315,3.876
		c-0.007-0.007-0.014-0.014-0.022-0.022c0.073-0.147,0.106-0.321,0.158-0.489c0.089-0.288,0.184-0.587,0.288-0.885
		c0.372-1.129,0.743-2.258,1.115-3.387c0.143-0.381,0.222-0.782,0.374-1.151c0.041-0.099,0.123-0.302,0.072-0.381
		c-1.318-0.959-2.637-1.918-3.956-2.877c-0.337-0.235-0.659-0.485-0.992-0.719c-0.07-0.049-0.318-0.186-0.338-0.259
		c0.005,0,0.01,0,0.014,0c2.191-0.002,4.383-0.005,6.573-0.007C15.13,12.454,15.806,10.37,16.482,8.287z"/>
</g>
</svg>
