<?xml version="1.0" encoding="utf-8"?>
<!-- Generator: Adobe Illustrator 17.0.0, SVG Export Plug-In . SVG Version: 6.00 Build 0)  -->
<!DOCTYPE svg PUBLIC "-//W3C//DTD SVG 1.1//EN" "http://www.w3.org/Graphics/SVG/1.1/DTD/svg11.dtd">
<svg version="1.1" id="Layer_1" xmlns="http://www.w3.org/2000/svg" xmlns:xlink="http://www.w3.org/1999/xlink" x="0px" y="0px"
	 width="51.874px" height="50px" viewBox="0 0 51.874 50" enable-background="new 0 0 51.874 50" xml:space="preserve">
<polygon fill="#FFFFFF" points="7.312,23 16.062,31.75 11.687,46.375 26.562,36.875 39.062,46.375 35.062,30.25 48.062,20.125 
	32.812,19.375 25.937,5.25 20.937,18.625 4.937,21 "/>
<g>
	<g id="star-rate_1_">
		<path fill="#42B5E8" d="M40.466,49.911c-0.002,0-0.004,0-0.006,0c-0.494,0-0.988-0.153-1.407-0.459l-13.116-9.571l-13.116,9.571
			c-0.834,0.608-1.965,0.612-2.802,0.009c-0.838-0.603-1.192-1.677-0.879-2.66l4.964-15.6L1.015,22.002
			c-0.852-0.598-1.217-1.68-0.903-2.672c0.314-0.992,1.235-1.667,2.276-1.667H18.33l5.343-16.03C23.997,0.657,24.909,0,25.937,0
			s1.94,0.657,2.264,1.632l5.343,16.03h15.942c1.041,0,1.962,0.675,2.276,1.667s-0.052,2.074-0.903,2.672L37.77,31.2l4.91,15.432
			c0.111,0.276,0.172,0.577,0.172,0.892C42.852,48.842,41.784,49.911,40.466,49.911z M25.937,34.54c0.494,0,0.988,0.153,1.407,0.459
			l8.629,6.297L32.69,30.978c-0.316-0.993,0.049-2.077,0.902-2.677l8.347-5.865H31.824c-1.027,0-1.94-0.657-2.264-1.632
			l-3.623-10.87l-3.623,10.869c-0.325,0.975-1.237,1.632-2.264,1.632H9.935l8.347,5.865c0.853,0.599,1.218,1.683,0.902,2.677
			l-3.283,10.317l8.629-6.297C24.949,34.693,25.443,34.54,25.937,34.54z"/>
	</g>
</g>
</svg>
