<svg width="40" height="40" viewBox="0 0 40 40" fill="none" xmlns="http://www.w3.org/2000/svg">
<circle cx="20" cy="20" r="19.5" fill="white" stroke="#22AAEC"/>
<path fill-rule="evenodd" clip-rule="evenodd" d="M23 16.025H25.9592V19H28.0157V16.025H31V13.95H28.0157V11H25.9592V13.95H23V16.025ZM25 20V17H22V13.1505C21.5118 13.0509 21.0099 13 20.5 13C18.5157 13 16.6524 13.7715 15.25 15.1739L10 20.4239L15.25 25.6739C16.6524 27.0763 18.5157 27.8478 20.5 27.8478C22.481 27.8478 24.3476 27.0763 25.75 25.6739L31 20.4239L29 18.4239V20H25ZM17.0313 20.4238C17.0313 18.5082 18.5841 16.9554 20.4997 16.9554C22.4121 16.9554 23.9649 18.5082 23.9681 20.4238C23.9681 22.3395 22.4154 23.8922 20.4997 23.8922C18.5841 23.8922 17.0313 22.3395 17.0313 20.4238Z" fill="#22AAEC"/>
</svg>
