<svg width="20" height="17" viewBox="0 0 20 17" fill="none" xmlns="http://www.w3.org/2000/svg">
<path d="M12.8869 7.58657C13.006 7.63617 13.1349 7.61633 13.2341 7.53696L17.0436 4.01514C17.1032 3.95561 17.1429 3.86633 17.1429 3.77704C17.1429 3.68776 17.1032 3.60839 17.0436 3.54887L13.2341 0.0766462C13.1349 -0.00271892 13.006 -0.0225602 12.8869 0.027043C12.7679 0.0766461 12.6984 0.185773 12.6984 0.314741L12.6984 2.53696L0.317461 2.53696C0.138889 2.53696 -1.16965e-07 2.67585 -1.24771e-07 2.85442L-2.08031e-07 4.75919C-2.15836e-07 4.93776 0.138889 5.07665 0.317461 5.07665L12.6984 5.07665L12.6984 7.29887C12.6984 7.42784 12.7778 7.53696 12.8869 7.58657Z" fill="#22AAEC"/>
<path d="M7.11309 16.4484C7.23214 16.3988 7.30159 16.2897 7.30159 16.1607L7.30159 13.9385L19.6825 13.9385C19.8611 13.9385 20 13.7996 20 13.621L20 11.7163C20 11.5377 19.8611 11.3988 19.6825 11.3988L7.30159 11.3988L7.30159 9.17659C7.30159 9.04762 7.22222 8.93849 7.11309 8.88889C6.99405 8.83928 6.86508 8.85913 6.76587 8.93849L2.95635 12.4603C2.89683 12.5198 2.85714 12.6091 2.85714 12.6984C2.85714 12.7877 2.89683 12.8671 2.95635 12.9266L6.76587 16.3988C6.86508 16.4782 6.99405 16.498 7.11309 16.4484Z" fill="#22AAEC"/>
</svg>
