<svg width="30" height="30" viewBox="0 0 30 30" fill="none" xmlns="http://www.w3.org/2000/svg">
<circle cx="15" cy="15" r="14.5" fill="white" stroke="#22AAEC"/>
<path fill-rule="evenodd" clip-rule="evenodd" d="M17.25 12.0188H19.4694V14.25H21.0118V12.0188H23.25V10.4625H21.0118V8.25H19.4694V10.4625H17.25V12.0188ZM18.75 15V12.75H16.5V9.86284C16.1339 9.78821 15.7574 9.75 15.375 9.75C13.8868 9.75 12.4893 10.3286 11.4375 11.3804L7.5 15.3179L11.4375 19.2554C12.4893 20.3072 13.8868 20.8858 15.375 20.8858C16.8608 20.8858 18.2607 20.3072 19.3125 19.2554L23.25 15.3179L21.75 13.8179V15H18.75ZM12.7734 15.318C12.7734 13.8812 13.938 12.7167 15.3747 12.7167C16.809 12.7167 17.9736 13.8812 17.976 15.318C17.976 16.7547 16.8115 17.9193 15.3747 17.9193C13.938 17.9193 12.7734 16.7547 12.7734 15.318Z" fill="#22AAEC"/>
</svg>
