<svg width="20" height="20" viewBox="0 0 20 20" fill="none" xmlns="http://www.w3.org/2000/svg">
<circle cx="10" cy="10" r="10" fill="#FE5D7C"/>
<path d="M15.5893 13.0893C15.5893 12.8661 15.5 12.6429 15.3393 12.4821L12.7143 9.85714L15.3393 7.23214C15.5 7.07143 15.5893 6.84821 15.5893 6.625C15.5893 6.40178 15.5 6.17857 15.3393 6.01786L14.125 4.80357C13.9643 4.64286 13.7411 4.55357 13.5179 4.55357C13.2946 4.55357 13.0714 4.64286 12.9107 4.80357L10.2857 7.42857L7.66071 4.80357C7.5 4.64286 7.27679 4.55357 7.05357 4.55357C6.83036 4.55357 6.60714 4.64286 6.44643 4.80357L5.23214 6.01786C5.07143 6.17857 4.98214 6.40178 4.98214 6.625C4.98214 6.84821 5.07143 7.07143 5.23214 7.23214L7.85714 9.85714L5.23214 12.4821C5.07143 12.6429 4.98214 12.8661 4.98214 13.0893C4.98214 13.3125 5.07143 13.5357 5.23214 13.6964L6.44643 14.9107C6.60714 15.0714 6.83036 15.1607 7.05357 15.1607C7.27679 15.1607 7.5 15.0714 7.66071 14.9107L10.2857 12.2857L12.9107 14.9107C13.0714 15.0714 13.2946 15.1607 13.5179 15.1607C13.7411 15.1607 13.9643 15.0714 14.125 14.9107L15.3393 13.6964C15.5 13.5357 15.5893 13.3125 15.5893 13.0893Z" fill="white"/>
</svg>
