<svg width="16" height="14" viewBox="0 0 16 14" fill="none" xmlns="http://www.w3.org/2000/svg">
<path fill-rule="evenodd" clip-rule="evenodd" d="M4.68389 6L2.59051 2.29861C2.21508 2.29861 1.92127 2.02812 2.01921 1.70069C2.01921 1.37326 2.32934 1.10277 2.70477 1.10277C3.16181 1.10277 3.48826 1.51562 3.34136 1.88576L5.82243 3.72222V1.14548C5.61024 1.08854 5.46333 0.946177 5.39804 0.746871C5.3001 0.433676 5.5123 0.106246 5.8714 0.0208288C6.23051 -0.0645879 6.60593 0.120482 6.70387 0.433676C6.75284 0.632982 6.70387 0.832288 6.55696 0.974649L8.0097 3.36632L9.46243 0.974649C9.31553 0.832288 9.25024 0.632982 9.31553 0.433676C9.41346 0.120482 9.78889 -0.0645879 10.148 0.0208288C10.5071 0.106246 10.7193 0.433676 10.6214 0.746871C10.5561 0.931941 10.3928 1.0743 10.197 1.14548V3.72222L12.678 1.88576C12.5311 1.51562 12.8413 1.10277 13.3146 1.10277C13.6901 1.10277 14.0002 1.37326 14.0002 1.70069C14.0002 2.02812 13.7064 2.28437 13.331 2.29861L11.6206 6H4.68389ZM4.36978 14L6.71878 7.997L5.17078 8.006L3.71278 12.38L2.25478 7.997H0.571777L2.81278 14H4.36978ZM8.93264 7.997H7.47464V14H8.93264V7.997ZM10.208 14H11.666V12.029H12.908C13.616 12.029 14.168 11.849 14.564 11.489C14.966 11.129 15.167 10.616 15.167 9.95C15.167 9.296 14.969 8.807 14.573 8.483C14.183 8.159 13.628 7.997 12.908 7.997H10.208V14ZM13.376 10.679C13.238 10.829 13.022 10.904 12.728 10.904H11.666V9.131H12.728C13.304 9.131 13.592 9.437 13.592 10.049C13.592 10.313 13.52 10.523 13.376 10.679Z" fill="#F2994A"/>
</svg>
