<svg width="40" height="35" viewBox="0 0 40 35" fill="none" xmlns="http://www.w3.org/2000/svg">
<rect x="40" y="35" width="40" height="35" rx="7" transform="rotate(-180 40 35)" fill="#384250"/>
<path d="M23.3989 15.1997H18.5991V26.3991H23.3989V15.1997Z" fill="#F2C94C"/>
<path fill-rule="evenodd" clip-rule="evenodd" d="M17.2317 12.7998H12.9399C12.9399 14.814 12.9399 16.8282 12.9399 18.8423L12.4316 17.087L9.9582 12.8111H5L12.9399 26.5165H17.2317V12.7998Z" fill="#F2C94C"/>
<path fill-rule="evenodd" clip-rule="evenodd" d="M24.4902 12.7998H29.8889C32.4753 12.7998 34.5986 14.9153 34.5986 17.4921V17.5933C34.5986 20.1701 32.4753 22.2856 29.8889 22.2856H29.3129L28.7821 20.4514C28.7821 22.4656 28.7821 24.491 28.7821 26.5052H24.4902V12.7998Z" fill="#F2C94C"/>
<path d="M23.3989 13.5999H18.5991V14.3998H23.3989V13.5999Z" fill="#F2C94C"/>
<path fill-rule="evenodd" clip-rule="evenodd" d="M17.1511 9.81685L18.5996 12.7425H23.3994L24.5828 9.81685C24.8426 9.80559 25.0458 9.60305 25.0458 9.34425C25.0458 9.08544 24.8313 8.87165 24.5715 8.87165C24.244 8.87165 24.0294 9.19797 24.131 9.49053L22.4143 10.9421V8.9054C22.5498 8.84914 22.6628 8.73662 22.7079 8.59034C22.7757 8.34278 22.6289 8.08398 22.3804 8.01646C22.1319 7.94895 21.8722 8.09523 21.8044 8.34278C21.7592 8.50032 21.8044 8.65785 21.906 8.77037L20.9008 10.6608L19.8956 8.77037C19.9973 8.65785 20.0312 8.50032 19.9973 8.34278C19.9295 8.09523 19.6698 7.94895 19.4213 8.01646C19.1728 8.08398 19.026 8.34278 19.0938 8.59034C19.1389 8.74787 19.2406 8.86039 19.3874 8.9054V10.9421L17.6707 9.49053C17.7723 9.19797 17.5464 8.87165 17.2302 8.87165C16.9704 8.87165 16.7558 9.08544 16.7558 9.34425C16.6881 9.60305 16.8914 9.81685 17.1511 9.81685Z" fill="#F2C94C"/>
</svg>
