<svg width="816" height="448" viewBox="0 0 816 448" fill="none" xmlns="http://www.w3.org/2000/svg">
<path d="M816 163.341V341H0V149.503H212.519V114.643H255.688V94.1491H270.36V100.699H286.609V73.5499H309.042V105.98H313.043V128.375H327.352V111.579H336.083V93.5153H351.846V120.241H495.103V52H524.811V95.3111H551.852V126.896H591.989V113.164H599.143V95.2054H611.754V142.214H634.673V111.579H649.345V163.341H816Z" fill="#EAF8FF"/>
<path d="M675.738 176.904C671.597 168.935 672.222 158.991 677.144 151.534C680.737 146.124 686.362 141.883 688.237 135.742C690.268 129.089 687.143 122.143 683.94 116.002C680.737 109.788 677.222 103.207 678.316 96.4081C680.191 84.8565 694.721 77.3992 695.502 65.7014C695.893 59.7794 692.612 54.2229 690.112 48.7396C687.612 43.2562 686.05 36.6031 689.565 31.6315C692.612 27.3179 699.096 25.7095 704.33 27.391C709.564 29.0726 713.47 33.4593 715.11 38.4309C716.673 43.4024 716.204 48.8127 714.485 53.7111C713.079 57.8053 710.892 61.8265 710.657 66.14C710.189 72.7201 714.251 78.7883 717.766 84.491C721.282 90.1937 724.641 96.8468 722.688 103.207C721.36 107.667 717.532 111.25 716.36 115.71C714.798 121.412 717.61 127.188 720.266 132.525C724.328 140.567 728.234 148.756 729.875 157.529C731.437 166.303 730.422 175.807 725.109 183.191C720.344 189.844 712.376 193.427 703.861 193.866C697.299 194.158 689.721 190.356 684.643 186.847C680.894 184.215 677.769 180.779 675.738 176.904Z" fill="#CFF8E0"/>
<path d="M701.593 192.841C701.515 192.841 701.438 192.768 701.438 192.695V33.824C701.438 33.7508 701.515 33.6777 701.593 33.6777C701.671 33.6777 701.749 33.7508 701.749 33.824V192.622C701.749 192.768 701.671 192.841 701.593 192.841Z" fill="#DFECFE"/>
<path d="M701.593 286.715C701.515 286.715 701.438 286.642 701.438 286.569V192.621C701.438 192.548 701.515 192.475 701.593 192.475C701.671 192.475 701.749 192.548 701.749 192.621V286.496C701.749 286.642 701.671 286.715 701.593 286.715Z" fill="#D0D0CF"/>
<path d="M701.594 54.5863C701.516 54.5863 701.438 54.5863 701.438 54.5132L693.704 40.8414C693.626 40.7683 693.704 40.6221 693.782 40.6221C693.861 40.549 694.017 40.6221 694.017 40.6952L701.751 54.367C701.829 54.4401 701.751 54.5863 701.672 54.5863C701.594 54.5863 701.594 54.5863 701.594 54.5863Z" fill="#DFECFE"/>
<path d="M701.598 105.036C701.52 105.036 701.52 105.036 701.441 104.963C701.363 104.89 701.363 104.817 701.441 104.744L715.815 88.7326C715.894 88.6595 715.972 88.6595 716.05 88.7326C716.128 88.8057 716.128 88.8788 716.05 88.9519L701.676 104.963C701.676 105.036 701.598 105.036 701.598 105.036Z" fill="#DFECFE"/>
<path d="M701.598 126.753C701.519 126.753 701.441 126.753 701.441 126.68L683.318 93.9996C683.239 93.9265 683.317 93.7803 683.396 93.7803C683.474 93.7072 683.63 93.7803 683.63 93.8534L701.754 126.534C701.832 126.607 701.754 126.753 701.676 126.753C701.598 126.753 701.598 126.753 701.598 126.753Z" fill="#DFECFE"/>
<path d="M701.598 180.777C701.52 180.777 701.52 180.777 701.441 180.704C701.363 180.631 701.363 180.558 701.441 180.485L723.706 158.332C723.784 158.259 723.862 158.259 723.94 158.332C724.018 158.405 724.018 158.478 723.94 158.552L701.676 180.704C701.676 180.777 701.598 180.777 701.598 180.777Z" fill="#DFECFE"/>
<path d="M779.427 186.041C786.642 178.532 788.87 170.495 779.427 145.432C777.305 139.721 778.472 123.118 772 110.956C769.241 105.774 760.541 93.6128 746.853 102.919C737.623 109.053 737.729 135.808 728.604 154.738C724.89 162.458 724.041 172.187 728.604 179.484C739.214 196.616 766.907 199.154 779.427 186.041Z" fill="#99D1B1"/>
<path d="M756.821 191.539C756.715 191.539 756.609 191.434 756.609 191.328V113.811C756.609 113.705 756.715 113.6 756.821 113.6C756.927 113.6 757.032 113.705 757.032 113.811V191.328C757.138 191.434 757.032 191.539 756.821 191.539Z" fill="white"/>
<path d="M756.821 286.719C756.715 286.719 756.609 286.614 756.609 286.508V191.436C756.609 191.33 756.715 191.225 756.821 191.225C756.927 191.225 757.032 191.33 757.032 191.436V286.508C757.138 286.614 757.032 286.719 756.821 286.719Z" fill="#D0D0CF"/>
<path d="M756.825 144.8C756.719 144.8 756.719 144.8 756.613 144.694C756.507 144.589 756.507 144.483 756.613 144.377L772.953 127.986C773.059 127.88 773.165 127.88 773.271 127.986C773.377 128.091 773.377 128.197 773.271 128.303L756.931 144.694C757.037 144.8 756.931 144.8 756.825 144.8Z" fill="white"/>
<path d="M756.823 152.516C756.717 152.516 756.717 152.516 756.611 152.41L742.923 136.547C742.817 136.441 742.817 136.23 742.923 136.23C743.029 136.124 743.242 136.124 743.242 136.23L756.929 152.093C757.035 152.198 757.035 152.41 756.929 152.41C757.035 152.516 756.929 152.516 756.823 152.516Z" fill="white"/>
<path d="M756.826 179.274C756.719 179.274 756.72 179.274 756.72 179.169L733.589 160.768C733.483 160.662 733.483 160.556 733.589 160.45C733.695 160.345 733.801 160.345 733.908 160.45L757.038 178.851C757.144 178.957 757.144 179.063 757.038 179.169C757.038 179.274 756.932 179.274 756.826 179.274Z" fill="white"/>
<path d="M124.218 138.335C124.218 174.24 109.69 203.37 91.7632 203.37C73.8367 203.37 59.3086 174.24 59.3086 138.335C59.3086 102.431 73.8367 2.16992 91.7632 2.16992C109.69 2.16992 124.218 102.431 124.218 138.335Z" fill="#BFEAD1"/>
<path d="M91.5815 203.538C91.4968 203.538 91.4121 203.454 91.4121 203.369V2.16936C91.4121 2.08468 91.4968 2 91.5815 2C91.6662 2 91.7508 2.08468 91.7508 2.16936V203.369C91.7508 203.454 91.6662 203.538 91.5815 203.538Z" fill="#DFECFE"/>
<path d="M91.7651 284.911C91.6804 284.911 91.5957 284.826 91.5957 284.741V203.449C91.5957 203.364 91.6804 203.279 91.7651 203.279C91.8497 203.279 91.9344 203.364 91.9344 203.449V284.741C91.9344 284.826 91.8497 284.911 91.7651 284.911Z" fill="#D0D0CF"/>
<path d="M91.7625 67.3681C91.6775 67.3681 91.5925 67.2834 91.5925 67.1987L76.2148 26.3829C76.2148 26.2983 76.2148 26.1289 76.2998 26.1289C76.3848 26.1289 76.5547 26.1289 76.5547 26.2136L91.9324 67.0293C92.0173 67.1987 91.9324 67.2834 91.7625 67.3681C91.8474 67.3681 91.7625 67.3681 91.7625 67.3681Z" fill="#DFECFE"/>
<path d="M91.7629 78.8886C91.678 78.8886 91.678 78.8887 91.593 78.804C91.5081 78.7193 91.5081 78.6346 91.593 78.5499L113.683 52.3838C113.767 52.2991 113.852 52.2991 113.937 52.3838C114.022 52.4685 114.022 52.5532 113.937 52.6379L91.8479 78.804C91.8479 78.8887 91.8479 78.8886 91.7629 78.8886Z" fill="#DFECFE"/>
<path d="M91.7613 144.602C91.6764 144.602 91.5914 144.602 91.5914 144.517L63.2149 89.8985C63.1299 89.8138 63.2149 89.6444 63.2998 89.6444C63.3848 89.5598 63.5547 89.6445 63.5547 89.7291L91.9312 144.348C92.0162 144.432 91.9312 144.602 91.8463 144.602H91.7613Z" fill="#DFECFE"/>
<path d="M91.7656 159.503H91.6807C91.5957 159.418 91.5957 159.333 91.5957 159.249L122.691 113.606C122.776 113.521 122.861 113.521 122.946 113.521C123.031 113.606 123.031 113.691 123.031 113.776L91.9355 159.418C91.9355 159.503 91.8506 159.503 91.7656 159.503Z" fill="#DFECFE"/>
<path d="M83.0774 157.059C83.0774 180.854 73.4221 200.206 61.5387 200.206C49.6553 200.206 40 180.854 40 157.059C40 133.265 49.6553 66.6406 61.5387 66.6406C73.4221 66.6406 83.0774 133.159 83.0774 157.059Z" fill="#99D1B1"/>
<path d="M61.5416 200.422C61.4358 200.422 61.3301 200.317 61.3301 200.211V66.6451C61.3301 66.5394 61.4358 66.4336 61.5416 66.4336C61.6473 66.4336 61.7531 66.5394 61.7531 66.6451V200.211C61.7531 200.317 61.6473 200.422 61.5416 200.422Z" fill="white"/>
<path d="M61.5416 284.389C61.4358 284.389 61.3301 284.283 61.3301 284.177V200.21C61.3301 200.104 61.4358 199.998 61.5416 199.998C61.6473 199.998 61.7531 200.104 61.7531 200.21V284.177C61.7531 284.283 61.6473 284.389 61.5416 284.389Z" fill="#D0D0CF"/>
<path d="M61.5367 110C61.4306 110 61.3245 109.894 61.3245 109.788L51.1387 82.7157C51.1387 82.6099 51.1387 82.3984 51.2448 82.3984C51.3509 82.3984 51.5631 82.3984 51.5631 82.5042L61.7489 109.577C61.855 109.788 61.7489 109.894 61.5367 110C61.6428 110 61.5367 110 61.5367 110Z" fill="white"/>
<path d="M61.5398 117.725C61.4337 117.725 61.4337 117.725 61.3276 117.619C61.2215 117.513 61.2215 117.407 61.3276 117.302L75.9697 99.9582C76.0758 99.8525 76.1819 99.8525 76.288 99.9582C76.3941 100.064 76.3941 100.17 76.288 100.275L61.6459 117.619C61.6459 117.619 61.6459 117.725 61.5398 117.725Z" fill="white"/>
<path d="M61.5408 161.292C61.4347 161.292 61.3286 161.292 61.3286 161.186L42.4424 124.913C42.3363 124.807 42.4424 124.596 42.5485 124.596C42.6546 124.596 42.8668 124.596 42.8668 124.701L61.753 160.975C61.8591 161.08 61.753 161.292 61.6469 161.292H61.5408Z" fill="white"/>
<path d="M61.5423 171.231H61.4362C61.3301 171.125 61.3301 171.019 61.3301 170.914L82.02 140.668C82.1261 140.563 82.2322 140.562 82.3383 140.562C82.4444 140.668 82.4444 140.774 82.4444 140.88L61.7545 171.125C61.7545 171.125 61.6484 171.231 61.5423 171.231Z" fill="white"/>
<path d="M151.1 170.644C148.766 164.299 149.296 156.896 152.585 150.868C155.026 146.532 158.739 142.937 160.543 138.284C162.24 133.631 161.816 128.449 160.543 123.69C159.27 118.931 157.148 114.384 155.662 109.625C153.646 103.174 152.691 95.9825 155.238 89.6373C157.148 84.8785 160.967 80.8599 165.636 78.7448C170.304 76.6298 175.928 76.4183 180.702 78.2161C188.978 81.1771 194.496 89.6374 195.663 98.3091C196.724 106.981 193.965 115.864 189.615 123.478C187.599 126.968 185.159 130.669 185.901 134.688C186.432 137.543 188.554 139.87 190.358 142.197C194.071 146.85 197.148 152.032 198.633 157.848C200.119 163.559 200.013 169.798 197.679 175.297C195.132 181.219 190.145 185.978 184.097 188.093C170.835 192.641 155.662 183.123 151.1 170.644Z" fill="#99D1B1"/>
<path d="M174.545 186.514C174.44 186.514 174.334 186.409 174.334 186.303V85.4146C174.334 85.3089 174.44 85.2031 174.545 85.2031C174.651 85.2031 174.757 85.3089 174.757 85.4146V186.303C174.863 186.409 174.651 186.514 174.545 186.514Z" fill="#DFECFE"/>
<path d="M174.545 284.861C174.44 284.861 174.334 284.755 174.334 284.649V186.405C174.334 186.299 174.44 186.193 174.545 186.193C174.651 186.193 174.757 186.299 174.757 186.405V284.649C174.863 284.755 174.651 284.861 174.545 284.861Z" fill="#D0D0CF"/>
<path d="M174.548 118.825C174.442 118.825 174.442 118.825 174.335 118.72C174.229 118.614 174.229 118.508 174.335 118.402L189.826 102.857C189.932 102.751 190.039 102.751 190.145 102.857C190.251 102.962 190.251 103.068 190.145 103.174L174.654 118.72C174.654 118.825 174.654 118.825 174.548 118.825Z" fill="#DFECFE"/>
<path d="M174.546 106.138C174.44 106.138 174.44 106.138 174.334 106.032L162.769 94.7169C162.663 94.6111 162.663 94.5054 162.769 94.3996C162.875 94.2939 162.981 94.2939 163.087 94.3996L174.652 105.715C174.759 105.821 174.759 105.927 174.652 106.032C174.652 106.138 174.652 106.138 174.546 106.138Z" fill="#DFECFE"/>
<path d="M174.548 175.403C174.442 175.403 174.442 175.403 174.336 175.297L155.98 157.002C155.874 156.896 155.874 156.791 155.98 156.685C156.086 156.579 156.192 156.579 156.298 156.685L174.654 174.98C174.76 175.086 174.76 175.192 174.654 175.297C174.654 175.297 174.654 175.403 174.548 175.403Z" fill="#DFECFE"/>
<path d="M371.679 4.36966L444.56 0.0286411C452.751 -0.482068 458.814 5.90179 457.911 14.0093L451.977 67.57C451.139 74.9114 444.173 80.5931 436.627 80.21L405.282 78.6779L408.7 100L391.737 78.2949L368.712 76.8904C362.585 76.5712 357.812 71.1449 358.006 64.6334L359.489 17.8396C359.683 10.8812 365.1 4.7527 371.679 4.36966Z" fill="#FFB74F"/>
<path fill-rule="evenodd" clip-rule="evenodd" d="M424.047 28.9922H423.547V29.4922V35.7741H421.035H420.535V36.2741V39.2886H421.535V36.7741H432.593V39.2886H433.593V36.2741V35.7741H433.093H429.076V33.0047H438.627V39.2874H439.627V32.5047V32.0047H439.127H436.605V29.4922V28.9922H436.105H424.047ZM435.605 32.0047V29.9922H424.547V35.7741H428.076V32.5047V32.0047H428.576H435.605ZM407.471 37.2779H413.952C414.877 37.2779 415.567 37.8985 415.852 38.6575L415.857 38.6719L415.862 38.6867C416.425 40.5276 417.705 44.4988 418.911 48.1533L419.061 48.6091L418.02 40.7954H440.628C441.683 40.7954 442.512 41.3229 442.136 42.3026L438.82 50.6679C438.518 51.5723 437.614 52.0998 436.71 52.0998H420.227C420.344 52.4456 420.456 52.7749 420.562 53.0841C421.034 54.4605 421.372 55.4018 421.489 55.6536L421.49 55.6555C421.697 56.1042 421.919 56.4058 422.157 56.5945C422.384 56.775 422.65 56.8723 422.995 56.8723H437.616V57.8723H422.995C422.436 57.8723 421.948 57.7058 421.535 57.3776C421.132 57.0576 420.827 56.6055 420.582 56.0746C420.435 55.759 420.076 54.7516 419.616 53.4082C419.149 52.0444 418.564 50.295 417.961 48.4665C416.759 44.8213 415.48 40.8539 414.911 38.9953C414.741 38.5561 414.379 38.2779 413.952 38.2779H407.471V37.2779ZM420.028 61.8982C420.028 60.9257 420.817 60.1373 421.789 60.1373C422.762 60.1373 423.55 60.9257 423.55 61.8982C423.55 62.8707 422.762 63.6591 421.789 63.6591C420.817 63.6591 420.028 62.8707 420.028 61.8982ZM421.789 59.1373C420.264 59.1373 419.028 60.3734 419.028 61.8982C419.028 63.423 420.264 64.6591 421.789 64.6591C423.314 64.6591 424.55 63.423 424.55 61.8982C424.55 60.3734 423.314 59.1373 421.789 59.1373ZM435.353 60.1373C434.38 60.1373 433.592 60.9257 433.592 61.8982C433.592 62.8707 434.38 63.6591 435.353 63.6591C436.326 63.6591 437.114 62.8707 437.114 61.8982C437.114 60.9257 436.326 60.1373 435.353 60.1373ZM432.592 61.8982C432.592 60.3734 433.828 59.1373 435.353 59.1373C436.878 59.1373 438.114 60.3734 438.114 61.8982C438.114 63.423 436.878 64.6591 435.353 64.6591C433.828 64.6591 432.592 63.423 432.592 61.8982Z" fill="white"/>
<path d="M423.547 28.9922V28.4922H423.047V28.9922H423.547ZM423.547 35.7741V36.2741H424.047V35.7741H423.547ZM420.535 35.7741V35.2741H420.035V35.7741H420.535ZM420.535 39.2886H420.035V39.7886H420.535V39.2886ZM421.535 39.2886V39.7886H422.035V39.2886H421.535ZM421.535 36.7741V36.2741H421.035V36.7741H421.535ZM432.593 36.7741H433.093V36.2741H432.593V36.7741ZM432.593 39.2886H432.093V39.7886H432.593V39.2886ZM433.593 39.2886V39.7886H434.093V39.2886H433.593ZM433.593 35.7741H434.093V35.2741H433.593V35.7741ZM429.076 35.7741H428.576V36.2741H429.076V35.7741ZM429.076 33.0047V32.5047H428.576V33.0047H429.076ZM438.627 33.0047H439.127V32.5047H438.627V33.0047ZM438.627 39.2874H438.127V39.7874H438.627V39.2874ZM439.627 39.2874V39.7874H440.127V39.2874H439.627ZM439.627 32.0047H440.127V31.5047H439.627V32.0047ZM436.605 32.0047H436.105V32.5047H436.605V32.0047ZM436.605 28.9922H437.105V28.4922H436.605V28.9922ZM435.605 32.0047V32.5047H436.105V32.0047H435.605ZM435.605 29.9922H436.105V29.4922H435.605V29.9922ZM424.547 29.9922V29.4922H424.047V29.9922H424.547ZM424.547 35.7741H424.047V36.2741H424.547V35.7741ZM428.076 35.7741V36.2741H428.576V35.7741H428.076ZM428.076 32.0047V31.5047H427.576V32.0047H428.076ZM407.471 37.2779V36.7779H406.971V37.2779H407.471ZM415.852 38.6575L415.384 38.833L415.384 38.833L415.852 38.6575ZM415.857 38.6719L416.335 38.5256L416.331 38.5108L416.326 38.4963L415.857 38.6719ZM415.862 38.6867L415.384 38.833L415.384 38.833L415.862 38.6867ZM418.911 48.1533L418.436 48.3099L418.436 48.3101L418.911 48.1533ZM419.061 48.6091L418.587 48.7659L419.557 48.5431L419.061 48.6091ZM418.02 40.7954V40.2954H417.448L417.524 40.8615L418.02 40.7954ZM442.136 42.3026L442.6 42.4869L442.602 42.4821L442.136 42.3026ZM438.82 50.6679L438.355 50.4837L438.35 50.4966L438.345 50.5098L438.82 50.6679ZM420.227 52.0998V51.5998H419.53L419.754 52.2601L420.227 52.0998ZM420.562 53.0841L421.035 52.9221L420.562 53.0841ZM421.489 55.6536L421.942 55.4423L421.942 55.4421L421.489 55.6536ZM421.49 55.6555L421.944 55.446L421.943 55.4443L421.49 55.6555ZM422.157 56.5945L422.468 56.2029H422.468L422.157 56.5945ZM437.616 56.8723H438.116V56.3723H437.616V56.8723ZM437.616 57.8723V58.3723H438.116V57.8723H437.616ZM421.535 57.3776L421.224 57.7692H421.224L421.535 57.3776ZM420.582 56.0746L421.036 55.865L421.035 55.8636L420.582 56.0746ZM419.616 53.4082L419.143 53.5702L419.616 53.4082ZM417.961 48.4665L418.436 48.3099L417.961 48.4665ZM414.911 38.9953L415.389 38.8488L415.383 38.8317L415.377 38.815L414.911 38.9953ZM407.471 38.2779H406.971V38.7779H407.471V38.2779ZM423.547 29.4922H424.047V28.4922H423.547V29.4922ZM424.047 29.4922V28.9922H423.047V29.4922H424.047ZM424.047 35.7741V29.4922H423.047V35.7741H424.047ZM421.035 36.2741H423.547V35.2741H421.035V36.2741ZM420.535 36.2741H421.035V35.2741H420.535V36.2741ZM421.035 36.2741V35.7741H420.035V36.2741H421.035ZM421.035 39.2886V36.2741H420.035V39.2886H421.035ZM421.535 38.7886H420.535V39.7886H421.535V38.7886ZM421.035 36.7741V39.2886H422.035V36.7741H421.035ZM432.593 36.2741H421.535V37.2741H432.593V36.2741ZM433.093 39.2886V36.7741H432.093V39.2886H433.093ZM433.593 38.7886H432.593V39.7886H433.593V38.7886ZM433.093 36.2741V39.2886H434.093V36.2741H433.093ZM433.093 35.7741V36.2741H434.093V35.7741H433.093ZM433.093 36.2741H433.593V35.2741H433.093V36.2741ZM429.076 36.2741H433.093V35.2741H429.076V36.2741ZM428.576 33.0047V35.7741H429.576V33.0047H428.576ZM438.627 32.5047H429.076V33.5047H438.627V32.5047ZM439.127 39.2874V33.0047H438.127V39.2874H439.127ZM439.627 38.7874H438.627V39.7874H439.627V38.7874ZM439.127 32.5047V39.2874H440.127V32.5047H439.127ZM439.127 32.0047V32.5047H440.127V32.0047H439.127ZM439.127 32.5047H439.627V31.5047H439.127V32.5047ZM436.605 32.5047H439.127V31.5047H436.605V32.5047ZM436.105 29.4922V32.0047H437.105V29.4922H436.105ZM436.105 28.9922V29.4922H437.105V28.9922H436.105ZM436.105 29.4922H436.605V28.4922H436.105V29.4922ZM424.047 29.4922H436.105V28.4922H424.047V29.4922ZM436.105 32.0047V29.9922H435.105V32.0047H436.105ZM435.605 29.4922H424.547V30.4922H435.605V29.4922ZM424.047 29.9922V35.7741H425.047V29.9922H424.047ZM424.547 36.2741H428.076V35.2741H424.547V36.2741ZM428.576 35.7741V32.5047H427.576V35.7741H428.576ZM428.576 32.5047V32.0047H427.576V32.5047H428.576ZM428.076 32.5047H428.576V31.5047H428.076V32.5047ZM428.576 32.5047H435.605V31.5047H428.576V32.5047ZM413.952 36.7779H407.471V37.7779H413.952V36.7779ZM416.32 38.4819C415.978 37.5684 415.126 36.7779 413.952 36.7779V37.7779C414.629 37.7779 415.157 38.2286 415.384 38.833L416.32 38.4819ZM416.326 38.4963L416.32 38.4819L415.384 38.833L415.389 38.8475L416.326 38.4963ZM416.34 38.5403L416.335 38.5256L415.379 38.8182L415.384 38.833L416.34 38.5403ZM419.386 47.9966C418.18 44.3427 416.902 40.3758 416.34 38.5403L415.384 38.833C415.949 40.6794 417.23 44.6548 418.436 48.3099L419.386 47.9966ZM419.536 48.4524L419.386 47.9965L418.436 48.3101L418.587 48.7659L419.536 48.4524ZM417.524 40.8615L418.566 48.6752L419.557 48.5431L418.515 40.7293L417.524 40.8615ZM440.628 40.2954H418.02V41.2954H440.628V40.2954ZM442.602 42.4821C442.724 42.1656 442.762 41.8481 442.696 41.5463C442.629 41.242 442.464 40.9933 442.247 40.8046C441.829 40.4405 441.22 40.2954 440.628 40.2954V41.2954C441.092 41.2954 441.425 41.4141 441.591 41.5587C441.666 41.6243 441.704 41.6911 441.719 41.7613C441.735 41.834 441.736 41.9499 441.669 42.1232L442.602 42.4821ZM439.285 50.8522L442.6 42.4869L441.671 42.1184L438.355 50.4837L439.285 50.8522ZM436.71 52.5998C437.788 52.5998 438.912 51.9708 439.294 50.826L438.345 50.5098C438.124 51.1737 437.44 51.5998 436.71 51.5998V52.5998ZM420.227 52.5998H436.71V51.5998H420.227V52.5998ZM421.035 52.9221C420.93 52.6135 420.818 52.2848 420.701 51.9395L419.754 52.2601C419.871 52.6063 419.983 52.9362 420.089 53.2462L421.035 52.9221ZM421.942 55.4421C421.839 55.2211 421.512 54.3137 421.035 52.9221L420.089 53.2462C420.556 54.6072 420.904 55.5824 421.036 55.865L421.942 55.4421ZM421.943 55.4443L421.942 55.4423L421.036 55.8648L421.037 55.8667L421.943 55.4443ZM422.468 56.2029C422.313 56.0799 422.132 55.8535 421.944 55.446L421.036 55.865C421.262 56.3549 421.526 56.7317 421.846 56.986L422.468 56.2029ZM422.995 56.3723C422.757 56.3723 422.603 56.3097 422.468 56.2029L421.846 56.986C422.166 57.2403 422.543 57.3723 422.995 57.3723V56.3723ZM437.616 56.3723H422.995V57.3723H437.616V56.3723ZM438.116 57.8723V56.8723H437.116V57.8723H438.116ZM422.995 58.3723H437.616V57.3723H422.995V58.3723ZM421.224 57.7692C421.731 58.1712 422.329 58.3723 422.995 58.3723V57.3723C422.543 57.3723 422.166 57.2404 421.846 56.986L421.224 57.7692ZM420.128 56.2841C420.392 56.8562 420.739 57.3835 421.224 57.7692L421.846 56.986C421.526 56.7317 421.262 56.3549 421.036 55.865L420.128 56.2841ZM419.143 53.5702C419.598 54.8991 419.968 55.9395 420.129 56.2855L421.035 55.8636C420.903 55.5785 420.554 54.6042 420.089 53.2462L419.143 53.5702ZM417.486 48.6232C418.09 50.4525 418.675 52.2039 419.143 53.5702L420.089 53.2462C419.623 51.8849 419.039 50.1374 418.436 48.3099L417.486 48.6232ZM414.432 39.1417C415.003 41.0057 416.284 44.9773 417.486 48.6232L418.436 48.3099C417.234 44.6653 415.956 40.7021 415.389 38.8488L414.432 39.1417ZM413.952 38.7779C414.137 38.7779 414.335 38.8941 414.444 39.1756L415.377 38.815C415.146 38.2181 414.62 37.7779 413.952 37.7779V38.7779ZM407.471 38.7779H413.952V37.7779H407.471V38.7779ZM406.971 37.2779V38.2779H407.971V37.2779H406.971ZM421.789 59.6373C420.541 59.6373 419.528 60.6495 419.528 61.8982H420.528C420.528 61.2018 421.093 60.6373 421.789 60.6373V59.6373ZM424.05 61.8982C424.05 60.6495 423.038 59.6373 421.789 59.6373V60.6373C422.486 60.6373 423.05 61.2018 423.05 61.8982H424.05ZM421.789 64.1591C423.038 64.1591 424.05 63.1469 424.05 61.8982H423.05C423.05 62.5946 422.486 63.1591 421.789 63.1591V64.1591ZM419.528 61.8982C419.528 63.1469 420.54 64.1591 421.789 64.1591V63.1591C421.093 63.1591 420.528 62.5946 420.528 61.8982H419.528ZM419.528 61.8982C419.528 60.6496 420.541 59.6373 421.789 59.6373V58.6373C419.988 58.6373 418.528 60.0973 418.528 61.8982H419.528ZM421.789 64.1591C420.541 64.1591 419.528 63.1469 419.528 61.8982H418.528C418.528 63.6991 419.988 65.1591 421.789 65.1591V64.1591ZM424.05 61.8982C424.05 63.1469 423.038 64.1591 421.789 64.1591V65.1591C423.59 65.1591 425.05 63.6991 425.05 61.8982H424.05ZM421.789 59.6373C423.038 59.6373 424.05 60.6496 424.05 61.8982H425.05C425.05 60.0973 423.59 58.6373 421.789 58.6373V59.6373ZM434.092 61.8982C434.092 61.2018 434.657 60.6373 435.353 60.6373V59.6373C434.104 59.6373 433.092 60.6495 433.092 61.8982H434.092ZM435.353 63.1591C434.657 63.1591 434.092 62.5946 434.092 61.8982H433.092C433.092 63.1469 434.104 64.1591 435.353 64.1591V63.1591ZM436.614 61.8982C436.614 62.5946 436.049 63.1591 435.353 63.1591V64.1591C436.602 64.1591 437.614 63.1469 437.614 61.8982H436.614ZM435.353 60.6373C436.049 60.6373 436.614 61.2018 436.614 61.8982H437.614C437.614 60.6495 436.602 59.6373 435.353 59.6373V60.6373ZM435.353 58.6373C433.552 58.6373 432.092 60.0973 432.092 61.8982H433.092C433.092 60.6496 434.104 59.6373 435.353 59.6373V58.6373ZM438.614 61.8982C438.614 60.0973 437.154 58.6373 435.353 58.6373V59.6373C436.602 59.6373 437.614 60.6496 437.614 61.8982H438.614ZM435.353 65.1591C437.154 65.1591 438.614 63.6991 438.614 61.8982H437.614C437.614 63.1469 436.602 64.1591 435.353 64.1591V65.1591ZM432.092 61.8982C432.092 63.6991 433.552 65.1591 435.353 65.1591V64.1591C434.104 64.1591 433.092 63.1469 433.092 61.8982H432.092Z" fill="white"/>
<path d="M397.352 21.8333V38.1107L389.484 45.9791C388.646 46.8171 388.646 48.1757 389.484 49.0136C389.903 49.4327 390.452 49.6421 391.001 49.6421C391.55 49.6421 392.1 49.4326 392.519 49.0136L401.016 40.5168C401.418 40.1145 401.644 39.5686 401.644 38.9995V21.8333C401.644 20.6482 400.683 19.6875 399.498 19.6875C398.313 19.6875 397.352 20.6482 397.352 21.8333Z" fill="white"/>
<path d="M417.498 10.0271C416.359 10.3554 415.702 11.5446 416.031 12.6833L417.681 18.4085C410.712 12.2659 400.978 9.98898 391.891 12.6092C384.842 14.6418 379.006 19.2979 375.458 25.7196C371.911 32.1415 371.077 39.5603 373.11 46.6096C375.142 53.6588 379.798 59.4945 386.22 63.042C392.642 66.5892 400.061 67.4234 407.11 65.3909C407.127 65.3858 407.143 65.3788 407.161 65.3734C407.178 65.3688 407.195 65.3662 407.213 65.3611C407.956 65.1469 408.697 64.8992 409.417 64.625C410.524 64.2028 411.079 62.9629 410.657 61.8555C410.235 60.7483 408.996 60.1921 407.888 60.6151C407.28 60.8468 406.653 61.0563 406.024 61.2376C406.007 61.2426 405.99 61.2496 405.973 61.255C405.956 61.2596 405.938 61.2623 405.921 61.2673C393.643 64.8076 380.773 57.6988 377.233 45.4206C373.693 33.1424 380.802 20.2731 393.08 16.7328C400.993 14.4512 409.487 16.5704 415.399 22.1334L409.729 23.768C408.591 24.0964 407.934 25.2856 408.262 26.4243C408.59 27.563 409.78 28.2199 410.918 27.8916L417.213 26.0767C418.468 25.7146 419.541 25.023 420.365 24.1233C420.419 24.0681 420.469 24.0108 420.516 23.9512C421.97 22.2533 422.572 19.8803 421.908 17.5766L420.154 11.4943C419.826 10.3556 418.637 9.69872 417.498 10.0271Z" fill="white"/>
<path d="M199.007 396.325C197.8 395.3 196.922 393.947 196.3 392.483C193.885 386.776 195.532 379.934 199.19 374.922C202.849 369.91 208.227 366.471 213.788 363.69C223.41 358.861 233.873 355.714 244.593 354.471C246.971 354.178 249.386 353.995 251.8 354.141C255.276 354.324 258.715 355.166 262.191 355.202C265.666 355.239 269.398 354.397 271.703 351.8C272.801 350.592 273.532 349.056 274.74 347.958C275.984 346.897 278.142 346.568 279.203 347.812V398.227C270.13 404.995 258.971 408.983 247.666 408.178C240.861 407.703 234.203 405.727 227.837 403.349C225.532 402.471 223.264 401.556 220.812 401.227C214.885 400.312 203.763 400.349 199.007 396.325Z" fill="#0B69AA"/>
<path d="M133.035 371.922V387.691C133.035 391.678 136.328 394.898 140.316 394.861H140.389V367.166C138.157 369.068 135.706 370.678 133.035 371.922Z" fill="#C6C6C6"/>
<path d="M140.39 347.035C139.768 347.694 139.037 348.352 138.195 348.938C138.159 348.938 138.159 348.974 138.122 348.974C134.976 351.279 133 354.865 133 358.779V371.877C135.671 370.633 138.122 369.023 140.354 367.121L140.39 347.035Z" fill="#F987A5"/>
<path d="M588.893 371.922V387.691C588.893 391.678 585.6 394.898 581.612 394.861H581.539V367.166C583.734 369.068 586.222 370.678 588.893 371.922Z" fill="#C6C6C6"/>
<path d="M581.539 347.035C582.161 347.694 582.893 348.352 583.734 348.938C583.771 348.938 583.771 348.974 583.807 348.974C586.954 351.279 588.929 354.865 588.929 358.779V371.877C586.259 370.633 583.807 369.023 581.576 367.121L581.539 347.035Z" fill="#F987A5"/>
<path d="M138.838 310.484V347.033V393.278C138.838 394.192 139.57 394.924 140.484 394.924H201.619C204.107 373.192 222.546 356.326 244.936 356.326C252.437 356.326 259.498 358.229 265.644 361.558L279.071 353.619V256.996C231.546 269.765 186.582 282.569 141.253 296.545C139.643 301.009 138.838 305.728 138.838 310.484Z" fill="#67CDFD"/>
<path d="M271.305 221.393H206.987C197.512 221.393 188.621 226.039 183.207 233.832L146.182 287.064C144.133 290.027 142.487 293.21 141.279 296.576C186.646 282.6 231.573 269.795 279.098 257.027V229.259C279.134 224.905 275.622 221.393 271.305 221.393Z" fill="#D1F0FE"/>
<path d="M263.317 330.757H248.536C247.073 330.757 245.938 329.44 246.194 327.977L246.487 326.403C246.926 323.806 249.048 321.83 251.646 321.574L261.817 320.44C263.865 320.22 265.695 321.83 265.695 323.916V328.416C265.658 329.696 264.597 330.757 263.317 330.757Z" fill="#1A1A1A"/>
<path d="M260.994 228.563C260.079 227.465 258.652 226.843 257.116 226.807C258.47 227.429 259.421 228.782 259.421 230.392V288.929C259.421 291.563 257.518 293.795 254.957 294.234L158.81 310.661C156.761 311.027 154.639 310.661 152.773 309.783C153.761 310.881 155.042 311.978 156.688 312.893C160.347 314.905 163.822 314.832 165.213 314.759C195.359 309.783 225.469 304.771 255.616 299.795C258.945 299.246 261.396 296.393 261.396 292.99C261.506 273.124 261.616 253.222 261.762 233.355C261.835 233.173 262.677 230.575 260.994 228.563Z" fill="url(#paint0_linear)"/>
<path opacity="0.57" d="M260.994 228.563C260.079 227.465 258.652 226.843 257.116 226.807C258.47 227.429 259.421 228.782 259.421 230.392V288.929C259.421 291.563 257.518 293.795 254.957 294.234L158.81 310.661C156.761 311.027 154.639 310.661 152.773 309.783C153.761 310.881 155.042 311.978 156.688 312.893C160.347 314.905 163.822 314.832 165.213 314.759C195.359 309.783 225.469 304.771 255.616 299.795C258.945 299.246 261.396 296.393 261.396 292.99C261.506 273.124 261.616 253.222 261.762 233.355C261.835 233.173 262.677 230.575 260.994 228.563Z" fill="url(#paint1_linear)"/>
<path d="M175.659 252.982C173.391 256.275 170.94 259.824 168.488 263.409C179.281 276.58 189.818 289.897 200.391 303.068L214.44 300.654C205.001 288.544 195.086 276.617 185.025 264.397C181.659 260.665 178.549 256.897 175.659 252.982Z" fill="#8DE1E4"/>
<path d="M147.454 294.418C142.551 303.93 150.71 311.54 158.064 310.296L200.357 303.089C189.784 289.918 179.247 276.637 168.454 263.43C158.539 277.844 148.222 292.954 147.454 294.418Z" fill="#DCF8FF"/>
<path d="M202.267 226.525C196.157 227.733 190.67 231.282 187.011 236.477C187.011 236.477 182.035 243.647 175.633 252.977C178.523 256.855 181.633 260.623 184.999 264.392C195.096 276.648 204.975 288.538 214.414 300.648L246.243 295.197C246.243 287.514 246.243 279.831 246.243 272.148C230.767 257.587 216.572 242.001 202.267 226.525Z" fill="#DCF8FF"/>
<path d="M246.258 226.055H223.648C231.331 232.896 238.832 239.811 246.258 246.799C246.258 239.884 246.258 232.969 246.258 226.055Z" fill="#DCF8FF"/>
<path d="M223.653 226.055H207.007C205.397 226.055 203.824 226.238 202.287 226.53C216.556 242.006 230.787 257.592 246.3 272.189C246.3 263.738 246.3 255.287 246.3 246.835C238.836 239.848 231.3 232.896 223.653 226.055Z" fill="#8DE1E4"/>
<path d="M175.659 252.982C173.391 256.275 170.94 259.824 168.488 263.409C179.281 276.58 189.818 289.897 200.391 303.068L214.44 300.654C205.001 288.544 195.086 276.617 185.025 264.397C181.659 260.665 178.549 256.897 175.659 252.982Z" fill="#EEFCFF"/>
<path d="M223.653 226.055H207.007C205.397 226.055 203.824 226.238 202.287 226.53C216.556 242.006 230.787 257.592 246.3 272.189C246.3 263.738 246.3 255.287 246.3 246.835C238.836 239.848 231.3 232.896 223.653 226.055Z" fill="#EEFCFF"/>
<path d="M254.719 226.055H246.268C246.268 248.994 246.268 272.116 246.268 295.202L254.207 293.848C256.804 293.409 258.67 291.177 258.67 288.543V230.006C258.67 227.847 256.914 226.055 254.719 226.055Z" fill="#0B69AA"/>
<path d="M162.126 336.98C159.017 336.98 156.492 334.456 156.492 331.346V321.468C156.492 320.078 157.626 318.943 159.017 318.943H165.236C166.626 318.943 167.761 320.078 167.761 321.468V331.346C167.797 334.456 165.273 336.98 162.126 336.98Z" fill="#0B69AA"/>
<path d="M161.375 322.875H162.875V314.533L172.973 284.716L171.582 284.24L161.375 314.423V322.875Z" fill="#0B69AA"/>
<path d="M176.549 285.6C170.183 285.6 164.988 280.405 164.988 274.039V248.063C164.988 241.697 170.183 236.502 176.549 236.502C182.915 236.502 188.11 241.697 188.11 248.063V274.039C188.11 280.368 182.915 285.6 176.549 285.6Z" fill="#0B69AA"/>
<path d="M177.367 244.271C176.636 246.283 176.379 249.612 176.306 251.771C176.087 259.161 176.123 266.588 176.379 273.978C176.453 275.881 176.562 277.856 177.55 279.503C178.538 281.149 181.648 282.503 183.477 281.808C183.66 272.442 183.806 240.832 183.477 240.722C180.038 239.588 178.282 241.819 177.367 244.271Z" fill="white"/>
<path d="M575.323 161H507.896H293.431C289.479 161 286.26 164.293 286.26 168.354V247.964V275.477V309.026V393.173C286.26 397.234 289.479 400.527 293.431 400.527H294.674H436.042H575.323C579.275 400.527 582.494 397.234 582.494 393.173V340.855V283.672V236.952V188.293V168.39C582.494 164.293 579.275 161 575.323 161Z" fill="#D1D9E2"/>
<g opacity="0.5">
<path d="M582.48 277.41L294.66 394.302H436.027L582.48 334.594V277.41Z" fill="white"/>
</g>
<path d="M319.477 305.664V332.372C319.477 334.896 321.964 336.945 325.038 336.945H325.989H435.673H543.71C546.784 336.945 549.271 334.896 549.271 332.372V305.664H319.477Z" fill="#D1F0FE"/>
<path d="M549.271 299.808V264.21V235.124V204.831V192.429C549.271 189.904 546.784 187.855 543.71 187.855H491.393H325.038C321.964 187.855 319.477 189.904 319.477 192.429V242.002V259.124V280.015V305.661H549.235V299.808H549.271Z" fill="#D1F0FE"/>
<path d="M209.665 402.569H147.432C142.859 402.569 139.164 398.874 139.164 394.301H209.665V402.569Z" fill="#0B69AA"/>
<path d="M575.067 402.459H182.283V394.301H583.226C583.226 398.801 579.567 402.459 575.067 402.459Z" fill="#0B69AA"/>
<path d="M461.357 392.482C461.357 366.836 482.248 345.945 507.894 345.945C533.541 345.945 554.431 366.836 554.431 392.482C554.431 393.434 554.029 395.263 554.029 395.263L462.016 396.104C462.053 396.104 461.357 393.763 461.357 392.482ZM479.687 392.482C479.687 408.031 492.346 420.69 507.894 420.69C523.443 420.69 536.102 408.031 536.102 392.482C536.102 376.933 523.443 364.275 507.894 364.275C492.346 364.238 479.687 376.897 479.687 392.482Z" fill="#4D4D4D"/>
<path d="M525.239 410.32C534.783 400.776 534.784 385.302 525.239 375.758C515.695 366.214 500.222 366.214 490.677 375.758C481.133 385.302 481.133 400.776 490.677 410.32C500.222 419.864 515.695 419.864 525.239 410.32Z" fill="#94C9EA"/>
<path d="M507.975 400.531C512.117 400.531 515.475 397.173 515.475 393.031C515.475 388.889 512.117 385.531 507.975 385.531C503.833 385.531 500.475 388.889 500.475 393.031C500.475 397.173 503.833 400.531 507.975 400.531Z" fill="black"/>
<path d="M465.131 392.476C465.131 368.878 484.338 349.707 507.9 349.707C531.497 349.707 550.668 368.915 550.668 392.476C550.668 416.073 531.461 435.244 507.9 435.244C484.302 435.244 465.131 416.073 465.131 392.476ZM481.96 392.476C481.96 406.781 493.595 418.415 507.9 418.415C522.205 418.415 533.839 406.781 533.839 392.476C533.839 378.171 522.205 366.536 507.9 366.536C493.595 366.5 481.96 378.171 481.96 392.476Z" fill="black"/>
<path d="M479.865 392.839C479.865 377.327 492.634 364.705 508.329 364.705C524.024 364.705 536.793 377.327 536.793 392.839C536.793 408.352 524.024 420.974 508.329 420.974C492.67 421.01 479.865 408.352 479.865 392.839ZM480.268 392.839C480.268 408.169 492.89 420.608 508.365 420.608C523.841 420.608 536.463 408.132 536.463 392.839C536.463 377.51 523.841 365.071 508.365 365.071C492.853 365.071 480.268 377.547 480.268 392.839Z" fill="white"/>
<path d="M480.17 392.847C480.17 408.176 492.829 420.615 508.451 420.615C524.073 420.615 536.731 408.176 536.731 392.847C536.731 377.517 524.073 365.078 508.451 365.078C492.829 365.115 480.17 377.517 480.17 392.847ZM485.804 396.908H485.877C485.694 395.7 485.585 394.456 485.585 393.176C485.585 392.042 485.658 390.944 485.841 389.847H485.804C486.133 387.615 486.792 385.493 487.707 383.517C491.329 375.651 499.194 370.2 508.341 370.2C517.451 370.2 525.317 375.615 528.939 383.408C529.89 385.383 530.548 387.542 530.878 389.81H530.841C530.987 390.908 531.097 392.005 531.097 393.139C531.097 394.42 530.987 395.627 530.805 396.871H530.878C530.036 402.03 527.475 406.639 523.78 410.005C523.67 410.115 523.524 410.225 523.414 410.335C523.378 410.371 523.304 410.408 523.268 410.444C519.28 413.957 514.048 416.079 508.341 416.079C502.707 416.079 497.548 413.993 493.597 410.591C493.524 410.518 493.451 410.481 493.414 410.408C493.268 410.261 493.121 410.152 492.975 410.005C489.207 406.676 486.609 402.066 485.804 396.908Z" fill="#E3E8ED"/>
<path d="M492.896 410.08C493.038 410.221 493.179 410.327 493.321 410.469C493.179 410.327 493.038 410.186 492.896 410.08Z" fill="#7F7F7F"/>
<path d="M523.33 410.363C523.436 410.257 523.577 410.151 523.683 410.045C523.577 410.151 523.471 410.257 523.33 410.363Z" fill="#7F7F7F"/>
<path fill-rule="evenodd" clip-rule="evenodd" d="M509.516 381.839C509.516 382.708 508.812 383.412 507.943 383.412C507.074 383.412 506.37 382.708 506.37 381.839C506.37 380.97 507.074 380.266 507.943 380.266C508.812 380.266 509.516 380.97 509.516 381.839ZM509.516 404.204C509.516 405.073 508.812 405.777 507.943 405.777C507.074 405.777 506.37 405.073 506.37 404.204C506.37 403.335 507.074 402.631 507.943 402.631C508.812 402.631 509.516 403.335 509.516 404.204ZM519.163 394.557C520.032 394.557 520.736 393.853 520.736 392.984C520.736 392.115 520.032 391.411 519.163 391.411C518.294 391.411 517.59 392.115 517.59 392.984C517.59 393.853 518.294 394.557 519.163 394.557ZM495.225 392.984C495.225 393.862 495.92 394.557 496.798 394.557C497.676 394.557 498.371 393.862 498.371 392.984C498.371 392.106 497.676 391.411 496.798 391.411C495.92 391.411 495.225 392.106 495.225 392.984ZM514.767 402.003C514.145 401.381 514.145 400.393 514.767 399.808C515.389 399.186 516.376 399.186 516.962 399.808C517.584 400.43 517.584 401.417 516.962 402.003C516.376 402.625 515.389 402.625 514.767 402.003ZM498.955 383.995C498.333 384.58 498.333 385.568 498.955 386.19C499.577 386.812 500.565 386.812 501.15 386.19C501.772 385.604 501.772 384.616 501.15 383.995C500.565 383.373 499.577 383.373 498.955 383.995ZM498.96 399.808C499.582 399.186 500.57 399.186 501.156 399.808C501.778 400.43 501.778 401.417 501.156 402.003C500.534 402.625 499.546 402.625 498.96 402.003C498.375 401.417 498.375 400.43 498.96 399.808ZM516.967 383.995C516.381 383.373 515.394 383.373 514.772 383.995C514.186 384.616 514.186 385.604 514.772 386.19C515.357 386.812 516.345 386.812 516.967 386.19C517.589 385.604 517.589 384.616 516.967 383.995Z" fill="white"/>
<path d="M184.355 392.482C184.355 366.836 205.246 345.945 230.893 345.945C256.539 345.945 277.43 366.836 277.43 392.482C277.43 393.434 277.027 395.263 277.027 395.263L185.014 396.104C185.051 396.104 184.355 393.763 184.355 392.482ZM202.685 392.482C202.685 408.031 215.344 420.69 230.893 420.69C246.441 420.69 259.1 408.031 259.1 392.482C259.1 376.933 246.441 364.275 230.893 364.275C215.344 364.238 202.685 376.897 202.685 392.482Z" fill="#4D4D4D"/>
<path d="M248.232 410.32C257.776 400.776 257.776 385.302 248.232 375.758C238.688 366.214 223.214 366.214 213.67 375.758C204.126 385.302 204.126 400.776 213.67 410.32C223.214 419.864 238.688 419.864 248.232 410.32Z" fill="#94C9EA"/>
<path d="M230.961 400.531C235.103 400.531 238.461 397.173 238.461 393.031C238.461 388.889 235.103 385.531 230.961 385.531C226.819 385.531 223.461 388.889 223.461 393.031C223.461 397.173 226.819 400.531 230.961 400.531Z" fill="black"/>
<path d="M188.111 392.48C188.111 368.882 207.319 349.711 230.88 349.711C254.478 349.711 273.649 368.918 273.649 392.48C273.649 416.077 254.441 435.248 230.88 435.248C207.282 435.248 188.111 416.077 188.111 392.48ZM204.941 392.48C204.941 406.785 216.575 418.419 230.88 418.419C245.185 418.419 256.819 406.785 256.819 392.48C256.819 378.175 245.185 366.54 230.88 366.54C216.575 366.504 204.941 378.175 204.941 392.48Z" fill="black"/>
<path d="M202.863 392.839C202.863 377.327 215.632 364.705 231.327 364.705C247.022 364.705 259.791 377.327 259.791 392.839C259.791 408.352 247.022 420.974 231.327 420.974C215.668 421.01 202.863 408.352 202.863 392.839ZM203.266 392.839C203.266 408.169 215.888 420.608 231.364 420.608C246.839 420.608 259.461 408.132 259.461 392.839C259.461 377.51 246.839 365.071 231.364 365.071C215.851 365.071 203.266 377.547 203.266 392.839Z" fill="white"/>
<path d="M203.141 392.847C203.141 408.176 215.799 420.615 231.421 420.615C247.043 420.615 259.702 408.176 259.702 392.847C259.702 377.517 247.043 365.078 231.421 365.078C215.799 365.115 203.141 377.517 203.141 392.847ZM208.775 396.908H208.848C208.665 395.7 208.555 394.456 208.555 393.176C208.555 392.042 208.628 390.944 208.811 389.847H208.775C209.104 387.615 209.763 385.493 210.677 383.517C214.299 375.651 222.165 370.2 231.312 370.2C240.421 370.2 248.287 375.615 251.909 383.408C252.861 385.383 253.519 387.542 253.848 389.81H253.812C253.958 390.908 254.068 392.005 254.068 393.139C254.068 394.42 253.958 395.627 253.775 396.871H253.848C253.007 402.03 250.446 406.639 246.751 410.005C246.641 410.115 246.495 410.225 246.385 410.335C246.348 410.371 246.275 410.408 246.239 410.444C242.251 413.957 237.019 416.079 231.312 416.079C225.677 416.079 220.519 413.993 216.568 410.591C216.494 410.518 216.421 410.481 216.385 410.408C216.238 410.261 216.092 410.152 215.946 410.005C212.177 406.676 209.58 402.066 208.775 396.908Z" fill="#E3E8ED"/>
<path d="M215.879 410.08C216.02 410.221 216.162 410.327 216.303 410.469C216.162 410.327 216.02 410.186 215.879 410.08Z" fill="#7F7F7F"/>
<path d="M246.314 410.363C246.42 410.257 246.562 410.151 246.668 410.045C246.562 410.151 246.456 410.257 246.314 410.363Z" fill="#7F7F7F"/>
<path fill-rule="evenodd" clip-rule="evenodd" d="M232.528 381.839C232.528 382.708 231.824 383.412 230.955 383.412C230.086 383.412 229.382 382.708 229.382 381.839C229.382 380.97 230.086 380.266 230.955 380.266C231.824 380.266 232.528 380.97 232.528 381.839ZM232.528 404.204C232.528 405.073 231.824 405.777 230.955 405.777C230.086 405.777 229.382 405.073 229.382 404.204C229.382 403.335 230.086 402.631 230.955 402.631C231.824 402.631 232.528 403.335 232.528 404.204ZM242.175 394.557C243.043 394.557 243.748 393.853 243.748 392.984C243.748 392.115 243.043 391.411 242.175 391.411C241.306 391.411 240.601 392.115 240.601 392.984C240.601 393.853 241.306 394.557 242.175 394.557ZM218.236 392.984C218.236 393.862 218.931 394.557 219.809 394.557C220.688 394.557 221.383 393.862 221.383 392.984C221.383 392.106 220.688 391.411 219.809 391.411C218.931 391.411 218.236 392.106 218.236 392.984ZM237.778 402.003C237.156 401.381 237.156 400.393 237.778 399.808C238.4 399.186 239.388 399.186 239.973 399.808C240.595 400.43 240.595 401.417 239.973 402.003C239.388 402.625 238.4 402.625 237.778 402.003ZM221.967 383.995C221.345 384.58 221.345 385.568 221.967 386.19C222.589 386.812 223.577 386.812 224.162 386.19C224.784 385.604 224.784 384.616 224.162 383.995C223.577 383.373 222.589 383.373 221.967 383.995ZM221.972 399.808C222.594 399.186 223.582 399.186 224.167 399.808C224.789 400.43 224.789 401.417 224.167 402.003C223.545 402.625 222.558 402.625 221.972 402.003C221.387 401.417 221.387 400.43 221.972 399.808ZM239.979 383.995C239.393 383.373 238.405 383.373 237.783 383.995C237.198 384.616 237.198 385.604 237.783 386.19C238.369 386.812 239.357 386.812 239.979 386.19C240.601 385.604 240.601 384.616 239.979 383.995Z" fill="white"/>
<mask id="mask0" mask-type="alpha" maskUnits="userSpaceOnUse" x="335" y="188" width="196" height="149">
<rect x="335.555" y="188.607" width="195.126" height="147.729" rx="10" fill="#D1F0FE"/>
</mask>
<g mask="url(#mask0)">
<path d="M455.061 326.733L454.543 357.553C454.513 358.915 453.324 359.986 451.952 359.812L408.658 354.598C407.499 354.454 406.615 353.469 406.615 352.281V326.675C406.615 325.4 407.652 324.357 408.932 324.357H452.714C454.055 324.386 455.092 325.458 455.061 326.733Z" fill="#B7E250"/>
<path d="M509.37 366.864C509.523 366.719 509.645 366.517 509.645 366.285L510.864 329.613L516.688 330.221C517.572 330.308 518.334 329.671 518.425 328.802C518.517 327.933 517.877 327.151 517.023 327.035L478.912 322.951C478.486 322.893 478.089 322.748 477.754 322.516L475.101 320.72C475.284 320.112 475.376 319.504 475.376 318.838C475.376 317.853 475.132 316.926 474.735 316.115L482.51 309.51C482.571 309.452 482.601 309.394 482.662 309.366L497.053 311.219C497.083 311.219 497.114 311.219 497.144 311.219H519.188C519.614 311.219 519.98 310.872 519.98 310.408C519.98 309.974 519.614 309.597 519.188 309.597H497.175L483.851 307.888L502.48 282.745L515.438 293.231C516.383 294.013 517.785 293.839 518.547 292.884C519.31 291.928 519.157 290.508 518.212 289.755L505.102 279.153L517.938 261.802C518.395 261.165 518.273 260.267 517.633 259.804C516.992 259.34 516.108 259.456 515.62 260.093L511.139 266.147L472.113 234.748L481.473 222.321L535.865 266.118C536.475 266.611 537.389 266.524 537.877 265.887C538.365 265.278 538.273 264.351 537.664 263.859L483.242 220.062L491.748 208.794L532.603 240.628C533.212 241.12 534.127 241.004 534.615 240.367C535.103 239.73 534.981 238.832 534.371 238.34L492.388 205.607C492.083 205.376 491.718 205.26 491.321 205.318C490.955 205.376 490.589 205.578 490.376 205.868L461.473 244.162L448.515 238.224L487.541 184.751C489.065 182.608 494.065 176.959 499.157 176.351C501.321 176.09 503.303 176.757 505.163 178.408C506.078 179.219 507.48 179.132 508.303 178.176C509.096 177.249 509.004 175.83 508.09 175.019C505.254 172.527 502.084 171.485 498.638 171.89C490.589 172.846 484.217 181.768 483.973 182.115L448.668 230.461L430.771 217.223C430.192 216.701 423.179 210.705 415.74 204.68C399.795 191.761 397.325 191.356 396.41 191.211C392.417 190.545 380.496 190.95 376.105 191.124L376.654 158.884L385.313 159.811L384.307 185.504C384.276 186.373 384.947 187.098 385.8 187.127C386.654 187.156 387.386 186.489 387.416 185.62L388.483 158.45C388.514 157.639 387.904 156.914 387.081 156.828L375.282 155.582C375.221 155.582 375.16 155.582 375.13 155.582C374.764 155.582 374.398 155.727 374.093 155.988C373.758 156.277 373.575 156.683 373.575 157.117L372.965 192.717C372.965 193.152 373.117 193.557 373.422 193.876C373.727 194.165 374.154 194.339 374.581 194.31C374.733 194.31 391.38 193.557 395.923 194.281C396.532 194.368 399.581 195.585 413.789 207.085C419.917 212.038 425.74 216.991 427.905 218.845L423.332 228.954L400.74 257.284L382.752 243.785C382.63 243.698 382.538 243.582 382.447 243.496L377.904 238.05C378.453 237.326 378.819 236.399 378.819 235.385C378.819 235.095 378.788 234.806 378.727 234.545L386.898 230.432L400.557 241.178C400.984 241.526 401.624 241.439 401.959 241.004C402.295 240.57 402.234 239.933 401.776 239.585L388.849 229.447L396.99 225.334C397.234 225.681 397.539 226 397.904 226.26L405.496 231.822C406.38 232.459 407.508 232.72 408.575 232.488C409.642 232.257 410.588 231.59 411.136 230.634C412.173 228.896 411.716 226.666 410.069 225.449L399.185 217.426C399.154 217.397 399.124 217.397 399.124 217.368L400.984 205.636L415.801 218.295C416.258 218.7 416.96 218.642 417.356 218.179C417.752 217.715 417.691 216.991 417.234 216.615L399.856 201.755C399.185 201.175 398.331 200.828 397.417 200.799L377.508 199.93C377.447 199.93 377.386 199.93 377.325 199.93C376.288 199.93 375.312 200.335 374.55 201.06C373.758 201.842 373.3 202.855 373.3 203.985V231.127C372.629 231.301 372.02 231.619 371.501 232.083L368.148 229.534C367.995 229.418 367.782 229.331 367.568 229.331L345.342 228.636H345.312C344.763 228.636 344.336 229.07 344.306 229.621C344.275 230.171 344.733 230.634 345.281 230.663L367.203 231.359L370.312 233.734C370.099 234.255 369.977 234.806 369.977 235.385C369.977 236.544 370.434 237.586 371.136 238.368L369.916 240.193C369.55 240.744 369.306 241.381 369.245 242.018L369.215 242.337L347.629 241.584C347.629 241.584 347.629 241.584 347.598 241.584C347.294 241.584 347.05 241.815 347.05 242.134C347.05 242.453 347.294 242.713 347.598 242.713L369.123 243.467L368.117 253.837L345.403 253.083C345.403 253.083 345.403 253.083 345.373 253.083C345.068 253.083 344.824 253.315 344.824 253.634C344.824 253.952 345.068 254.213 345.373 254.213L367.995 254.966L367.081 263.656L342.141 262.816L344.367 238.021C344.397 237.702 344.184 237.442 343.879 237.413C343.848 237.413 343.848 237.413 343.818 237.413C343.543 237.413 343.3 237.644 343.269 237.934L340.982 263.28C340.982 263.425 341.013 263.598 341.104 263.685C341.196 263.801 341.348 263.859 341.501 263.859L366.959 264.728L366.532 268.841C366.471 269.45 366.898 270 367.507 270.058C368.117 270.116 368.666 269.681 368.727 269.073L371.562 242.25C371.593 241.96 371.684 241.671 371.867 241.439L373.117 239.585C373.544 239.73 373.971 239.788 374.428 239.788C375.099 239.788 375.739 239.614 376.319 239.353L380.892 244.828C380.922 244.857 380.953 244.915 381.014 244.944L379.733 255.082C379.733 255.111 379.733 255.14 379.733 255.14V270.666C379.733 270.985 379.977 271.217 380.282 271.217C380.587 271.217 380.831 270.956 380.831 270.666V255.169L382.02 245.784L399.459 258.877L392.203 267.972C391.654 268.639 391.776 269.623 392.447 270.174C393.118 270.724 394.093 270.608 394.642 269.942L401.99 260.731L414.033 269.768C414.46 270.087 415.1 270 415.435 269.565C415.771 269.131 415.679 268.494 415.222 268.146L411.014 264.989L432.814 237.471L439.338 242.453C435.893 246.566 430.71 252.852 425.497 259.398C407.142 282.398 406.594 285.903 406.38 287.235C405.435 292.999 406.014 310.148 406.258 316.491L360.465 315.68L361.776 303.225L398.301 304.673C399.52 304.731 400.557 303.775 400.618 302.529C400.679 301.284 399.703 300.27 398.484 300.212L359.855 298.677C358.696 298.619 357.69 299.517 357.568 300.676L355.8 317.65C355.8 317.737 355.8 317.795 355.8 317.882C355.8 318.432 355.983 318.953 356.349 319.359C356.775 319.822 357.355 320.112 357.965 320.112L408.545 321.01C409.155 321.01 409.734 320.778 410.161 320.344C410.588 319.909 410.832 319.301 410.801 318.693C410.801 318.461 409.703 294.506 410.771 287.959C410.923 287.09 412.63 282.687 428.972 262.208C436.015 253.373 443.058 244.973 445.68 241.873L460.04 248.449L500.254 280.978L481.077 306.874C480.955 307.048 480.803 307.193 480.65 307.338L472.937 313.913C471.9 313.102 470.589 312.61 469.156 312.61C468.76 312.61 468.363 312.639 467.967 312.726L462.144 300.965L477.388 281.268C477.876 280.631 477.754 279.733 477.144 279.24C476.534 278.748 475.62 278.864 475.132 279.501L460.711 298.098L454.887 286.337C455.406 285.989 455.833 285.555 456.229 285.034L464.125 274.084C465.04 272.81 465.406 271.188 465.071 269.623C464.766 268.088 463.79 266.727 462.449 265.916C459.979 264.438 456.808 265.076 455.101 267.422L443.698 283.093C443.668 283.122 443.637 283.151 443.637 283.18L426.96 280.515L444.948 259.166C445.527 258.5 445.436 257.486 444.765 256.907C444.094 256.328 443.088 256.415 442.54 257.081L421.381 282.166C420.557 283.151 420.07 284.396 420.009 285.671L418.789 314.348C418.789 314.435 418.789 314.522 418.789 314.608C418.789 316.115 419.338 317.505 420.374 318.606C421.472 319.764 422.935 320.402 424.521 320.402H463.089C463.333 321.387 463.79 322.256 464.43 322.98L460.833 327.788C460.65 328.02 460.558 328.31 460.558 328.599L459.583 360.636C459.583 360.665 459.583 360.665 459.583 360.694C459.583 361.476 460.192 362.114 460.955 362.143C461.747 362.172 462.388 361.534 462.418 360.752L463.394 329.179L466.778 324.689C467.51 324.978 468.302 325.152 469.156 325.152C470.802 325.152 472.266 324.515 473.394 323.472L475.955 325.239C476.717 325.761 477.632 326.108 478.577 326.195L479.034 326.253L477.967 357.363V357.392C477.967 357.827 478.303 358.174 478.729 358.203C479.156 358.232 479.522 357.884 479.553 357.421L480.62 326.427L495.376 328.02L494.279 360.665V360.694C494.279 361.129 494.614 361.476 495.041 361.505C495.468 361.505 495.833 361.187 495.864 360.723L496.931 328.136L509.279 329.468L508.09 365.416L472.876 362.201C472.449 362.172 472.052 362.49 472.022 362.925C472.022 362.954 472.022 362.983 472.022 363.012C472.022 363.417 472.327 363.765 472.754 363.794L508.791 367.067C509.004 367.067 509.218 367.009 509.37 366.864ZM408.941 227.1C409.734 227.68 409.947 228.781 409.46 229.621C409.185 230.084 408.728 230.403 408.21 230.519C408.088 230.547 407.935 230.547 407.813 230.547C407.417 230.547 407.02 230.432 406.685 230.171L399.093 224.609C398.514 224.175 398.209 223.48 398.331 222.755L398.819 219.598L408.941 227.1ZM397.386 203.029C397.782 203.058 398.179 203.203 398.484 203.464L399.246 204.13L396.35 222.466C396.289 222.784 396.289 223.103 396.319 223.422L388.026 227.593L388.575 202.624L397.386 203.029ZM375.587 231.156V203.985C375.587 203.493 375.77 203.029 376.136 202.682C376.502 202.334 376.959 202.16 377.447 202.189L386.563 202.595L385.983 228.665L377.873 232.72C377.325 231.967 376.532 231.416 375.587 231.156ZM371.989 235.501C371.989 234.11 373.087 233.01 374.459 233.01C375.831 233.01 376.928 234.139 376.928 235.501C376.928 236.891 375.831 237.992 374.459 237.992C373.087 237.992 371.989 236.891 371.989 235.501ZM409.429 263.801L403.24 259.166L425.192 231.648L431.228 236.283L409.429 263.801ZM426.289 229.968L430.405 220.844L446.808 232.981L443.332 237.76C443.119 238.021 442.143 239.18 440.649 240.946L426.289 229.968ZM463.821 245.755L470.406 237.036L509.523 268.465L502.907 277.386L463.821 245.755ZM457.357 269.16C458.18 268.001 459.735 267.683 460.955 268.407C461.625 268.812 462.083 269.45 462.235 270.203C462.266 270.405 462.296 270.579 462.296 270.782C462.296 271.361 462.113 271.912 461.778 272.375L453.881 283.325C453.272 284.165 452.265 284.599 451.229 284.425L446.716 283.701L457.357 269.16ZM422.631 298.503L423.179 285.787C423.21 285.207 423.423 284.657 423.789 284.223L424.734 283.093L450.802 287.264C451.259 287.351 451.717 287.351 452.174 287.322L458.119 299.285L422.631 298.503ZM424.551 317.186C423.85 317.186 423.179 316.897 422.692 316.375C422.204 315.854 421.96 315.188 421.99 314.464L422.539 301.342L459.552 302.153L465.345 313.855C464.278 314.666 463.516 315.825 463.15 317.158H424.551V317.186ZM465.772 318.809C465.772 316.839 467.357 315.246 469.308 315.246C471.26 315.246 472.845 316.839 472.845 318.809C472.845 320.778 471.26 322.371 469.308 322.371C467.357 322.4 465.772 320.807 465.772 318.809Z" fill="white"/>
<path d="M460.313 208.236C457.295 212.262 450.801 221.068 448.575 224.052C448.148 224.631 447.355 224.747 446.776 224.312L425.16 208.497C424.154 207.773 424.672 206.15 425.922 206.15H459.276C460.344 206.179 460.953 207.396 460.313 208.236Z" fill="#67CDFD"/>
</g>
<path fill-rule="evenodd" clip-rule="evenodd" d="M434.032 272.825C439.266 271.261 443.081 266.409 443.081 260.667C443.081 253.661 437.4 247.98 430.394 247.98C423.387 247.98 417.707 253.661 417.707 260.667C417.707 266.413 421.527 271.267 426.766 272.828C428.088 275.205 429.48 276.989 430.39 276.989C431.316 276.989 432.711 275.204 434.032 272.825Z" fill="#6FCF97"/>
<circle cx="430.388" cy="260.677" r="5.43718" fill="white"/>
<path d="M608.131 294.115C613.204 285.115 616.932 274.398 619.416 263.715C621.384 255.676 618.001 253.409 612.686 253.65C609.891 255.093 607.854 257.085 606.819 260.898C603.851 271.856 603.092 277.867 601.711 288.173L608.131 294.115Z" fill="#FFA173"/>
<path d="M602.538 287.421L578.171 287.318V290.238C584.936 292.849 599.224 297.692 608.129 294.12L602.538 287.421Z" fill="#FFA173"/>
<path d="M569.442 288.596L571.858 287.978L571.306 286.913L568.51 287.154L568.165 286.432L572.306 285.127L578.174 287.325L578.484 288.699L578.174 290.245L575.24 291.516L570.926 292.135L568.855 290.039L566.163 289.283L566.405 288.734L569.442 288.596Z" fill="#FFA173"/>
<path d="M638.91 221.57C638.729 220.86 638.521 220.15 638.173 219.607C637.574 218.688 636.655 218.354 635.792 218.089C633.384 217.352 630.962 216.781 628.525 216.377C626.618 216.057 624.669 215.834 622.818 216.516C620.966 217.185 619.198 218.911 618.53 221.444C618.154 222.892 618.154 224.479 618.154 226.01C618.154 228.6 618.168 231.189 618.168 233.764C618.168 234.641 618.182 235.56 618.461 236.34C618.864 237.467 619.727 238.08 620.535 238.567C622.345 239.667 624.224 240.53 626.145 241.17C628.818 242.061 631.644 242.507 634.317 241.532C635.375 241.143 637.323 241.017 638.242 240.252C639.314 239.361 639.481 236.827 639.69 235.212C640.261 230.688 640.01 225.913 638.91 221.57Z" fill="black"/>
<path d="M620.053 225.167C620.109 224.875 620.179 224.554 620.401 224.36C620.736 224.067 621.251 224.165 621.668 224.29C622.1 224.429 622.517 224.582 622.921 224.763C623.13 224.861 623.353 224.972 623.506 225.153C623.701 225.404 624.564 226.114 624.578 226.434C624.661 229.441 624.926 232.448 625.357 235.413C625.483 236.262 625.622 237.111 625.9 237.932C626.22 238.865 628.016 241.649 626.165 241.552C624.592 241.468 623.311 238.601 622.74 237.445C620.875 233.812 619.33 229.204 620.053 225.167Z" fill="#421A00"/>
<path d="M623.523 251.654C623.523 252.684 636.623 254.369 636.623 254.369L636.859 233.543C636.859 233.543 635.342 234.197 635.147 234.058C634.897 233.877 634.535 233.933 634.228 233.988C630.539 234.698 625.249 233.821 624.01 236.828C623.843 237.204 623.537 248.675 623.523 251.654Z" fill="url(#paint2_linear)"/>
<path fill-rule="evenodd" clip-rule="evenodd" d="M612.258 305.434C611.603 306.283 610.977 307.285 610.323 308.496C607.956 312.909 607.552 320.886 607.413 325.995L607.079 344.565C607.168 349.198 608.016 355.175 608.863 361.155C609.735 367.304 610.607 373.456 610.657 378.157C610.717 383.912 611.277 389.41 611.825 394.803C612.161 398.098 612.492 401.354 612.703 404.606C613.049 409.932 613.27 414.21 613.45 417.708C613.726 423.069 613.908 426.598 614.304 429.26C614.443 430.179 614.624 430.764 614.833 431.167C616.085 431.258 617.216 431.338 618.346 431.418C619.478 431.498 620.61 431.578 621.863 431.669C622.615 431.223 623.227 430.973 623.227 430.973C623.227 430.973 625.316 418.639 626.262 413.724C626.527 412.416 626.722 411.163 626.875 409.966C627.821 402.727 629.213 388.333 628.211 379.869C627.482 373.681 627.902 367.559 628.628 362.437C630.513 368.443 631.711 372.815 632.569 379.176C633.268 384.423 634.698 389.555 636.095 394.567C637.144 398.332 638.174 402.029 638.861 405.654C639.866 410.952 640.612 415.205 641.221 418.675C642.138 423.903 642.744 427.355 643.455 429.932C643.522 430.166 643.588 430.893 643.655 431.62C643.728 432.409 643.8 433.197 643.872 433.357C646.281 433.273 648.884 433.287 651.278 433.635C651.947 433.12 652.517 432.8 652.517 432.8C652.517 432.8 653.074 418.044 653.422 413.06C653.506 411.723 653.548 410.457 653.561 409.246C653.617 401.937 653.227 387.487 651.209 379.204C648.309 367.321 649.726 355.161 650.268 350.499C650.359 349.722 650.425 349.153 650.443 348.829C651.348 332.096 647.77 312.968 639.752 306.036L625.721 307.357C625.372 306.797 625.006 306.275 624.619 305.796C622.559 305.733 620.499 305.674 618.439 305.615C616.378 305.555 614.318 305.496 612.258 305.434Z" fill="#4D5769"/>
<path d="M620.436 240.975C618.71 238.734 617.944 235.866 617.833 233.041C617.721 230.215 617.429 226.915 618 224.145C618.403 222.196 621.925 218.117 627.466 218.618C636.278 219.412 634.649 223.435 635.289 226.205C635.721 228.099 635.345 230.507 635.039 232.428C634.858 233.597 634.677 234.767 634.287 235.894C633.173 239.124 630.389 241.797 627.466 243.453C624.612 245.04 622.343 243.453 620.436 240.975Z" fill="#FFAC73"/>
<path d="M635.126 235.847C633.88 235.847 632.87 234.731 632.87 233.355C632.87 231.979 633.88 230.863 635.126 230.863C636.371 230.863 637.381 231.979 637.381 233.355C637.381 234.731 636.371 235.847 635.126 235.847Z" fill="#FFA173"/>
<g opacity="0.06">
<path opacity="0.06" d="M631.411 447.373C603.587 447.373 581.031 444.07 581.031 439.995C581.031 435.92 603.587 432.617 631.411 432.617C659.235 432.617 681.791 435.92 681.791 439.995C681.791 444.07 659.235 447.373 631.411 447.373Z" fill="black"/>
</g>
<path d="M611.369 309.495H635.201V253.574H622.895L613.345 277.546L611.369 309.495Z" fill="#282A42"/>
<path d="M620.656 248.947C621.603 248.627 622.535 248.307 623.482 247.986C623.677 252.135 621.825 256.06 620.391 259.972C617.12 268.896 615.923 278.417 614.74 287.842C614.545 289.401 614.35 290.96 614.155 292.519C610.897 277.986 617.329 263.466 620.656 248.947Z" fill="white"/>
<path d="M614.211 428.271C613.083 429.162 611.482 430.276 610.257 431.139C607.668 432.963 606.387 433.394 603.812 434.369C602.907 434.717 602.281 435.984 602.295 437.404C602.295 437.835 602.309 438.239 602.295 438.531C609.937 438.281 622.717 439.018 623.037 438.754C623.9 438.058 623.663 434.536 623.12 430.694C622.188 430.861 620.99 430.93 619.626 430.652C617.315 430.179 614.141 428.355 614.211 428.271Z" fill="black"/>
<path d="M652.699 439.411C652.754 440.33 653.2 442.418 652.977 443.323C652.866 443.755 652.699 444.172 652.379 444.52C651.905 445.035 651.181 445.314 650.471 445.523C647.52 446.372 644.736 447.096 641.437 446.664C640.476 446.539 639.599 446.052 638.903 445.467C638.207 444.868 637.775 443.977 637.956 443.114C638.054 442.627 638.346 442.168 638.625 441.736C640.462 438.854 642.119 435.861 643.581 432.813C643.789 432.367 643.775 431.894 644.304 431.838C644.541 431.81 645.084 431.88 645.293 431.95C646.671 432.409 648.202 432.534 649.678 432.353C651.474 432.117 652.615 431.128 652.587 432.646C652.546 435.875 652.573 437.059 652.699 439.411Z" fill="black"/>
<path d="M610.894 272.46C609.905 272.558 608.472 272.586 606.815 272.21C604.518 271.681 602.875 270.609 601.97 269.913C603.084 267.393 604.184 264.846 605.284 262.256C606.411 259.597 607.497 256.744 608.569 254.126C612.021 252.971 613.622 252.219 616.504 251.537C614.374 258.247 613.01 265.736 610.894 272.46Z" fill="#67CDFD"/>
<path d="M645.662 300.065C645.968 295.652 647.346 283.582 644.659 275.355C649.239 272.738 652.065 270.733 656.478 268.061C657.968 274.214 656.631 296.724 656.701 299.884C656.715 300.441 656.297 301.192 655.615 302.042C651.94 301.847 648.223 302.181 644.562 302.682C645.174 301.916 645.592 301.067 645.662 300.065Z" fill="#FFA173"/>
<path fill-rule="evenodd" clip-rule="evenodd" d="M610.909 253.343C610.199 257.936 609.419 263.922 608.862 270.952C608.083 280.781 608.083 288.256 608.097 293.17C608.11 298.906 608.291 305.978 608.862 314.093C614.57 315.75 623.256 317.407 633.614 316.14C637.999 315.611 641.855 314.65 645.098 313.592C645.502 305.671 645.78 297.5 645.864 289.091C645.892 286.558 645.892 284.053 645.892 281.561V281.56C645.886 281.543 645.881 281.526 645.876 281.509C645.876 279.759 645.862 278.009 645.848 276.287C648.451 276.218 651.709 275.856 655.286 274.756C656.79 274.296 658.154 273.767 659.365 273.225C659.142 269.201 658.474 264.399 656.818 259.192C656.275 257.466 655.662 255.851 655.036 254.348C654.973 254.32 654.911 254.296 654.848 254.271C654.785 254.247 654.723 254.222 654.66 254.195C654.655 254.199 654.65 254.203 654.645 254.207C650.964 252.722 646.938 251.293 642.551 250.029C640.532 249.459 638.583 248.944 636.676 248.498C636.078 249.208 635.089 250.224 633.614 251.046C632.792 251.505 628.727 253.774 625.706 251.811C625.233 251.505 624.036 250.614 623.41 248.498C621.328 249.305 619.244 250.113 617.159 250.92C615.075 251.728 612.99 252.535 610.909 253.343Z" fill="#67CDFD"/>
<path d="M615.867 229.14C615.519 229.14 614.976 229.085 614.364 228.82C613.932 228.639 613.473 228.43 613.18 227.957C612.707 227.205 613.013 226.3 613.069 226.133C613.292 225.66 613.584 225.145 613.932 224.63C615.004 223.029 616.271 221.971 617.259 221.303C617.454 220.384 617.913 218.881 619.083 217.433C620.92 215.178 623.329 214.523 624.888 214.106C626.015 213.799 629.482 212.909 633.379 214.426C634.479 214.857 636.637 215.693 638.21 217.864C639.435 219.549 639.839 221.386 640.034 222.263C640.145 222.737 640.326 223.697 640.354 224.95C640.396 226.857 640.062 228.444 639.714 229.572C636.484 229.614 633.268 229.641 630.038 229.683C628.939 227.832 626.92 223.99 623.593 223.447C621.936 223.182 620.558 223.864 619.946 224.198C618.456 224.992 617.635 226.147 617.05 226.996C616.466 227.818 616.09 228.583 615.867 229.14Z" fill="#67CDFD"/>
<path d="M650.763 278.785L645.111 305.847L665.979 305.791L679.621 278.27L650.763 278.785Z" fill="#E5E5E5"/>
<path d="M647.36 280.375L642.934 307.715H668.409L682.998 279.637L647.36 280.375Z" fill="#666666"/>
<path d="M672.364 301.47C672.044 302.32 671.71 303.197 671.07 303.851C670.235 304.728 668.926 305.09 667.729 304.895C666.532 304.7 665.46 303.962 664.736 302.988C663.483 301.303 663.302 298.895 664.304 297.058C664.499 296.696 664.75 296.334 665.126 296.167C665.543 295.972 666.03 296.041 666.476 296.125C668.216 296.445 670.276 296.932 671.794 297.879C673.478 298.923 673.06 299.633 672.364 301.47Z" fill="#FFA173"/>
<path d="M669.893 279.909L660.719 280.118L663.572 278.058L668.5 277.988L669.893 279.909Z" fill="#7499AB"/>
<path d="M666.326 279.134C666.326 279.343 666.145 279.524 665.936 279.524C665.728 279.524 665.547 279.343 665.547 279.134C665.547 278.925 665.728 278.744 665.936 278.744C666.145 278.744 666.326 278.925 666.326 279.134Z" fill="white"/>
<defs>
<linearGradient id="paint0_linear" x1="152.773" y1="270.796" x2="262.037" y2="270.796" gradientUnits="userSpaceOnUse">
<stop stop-color="white"/>
<stop offset="1" stop-color="#333333"/>
</linearGradient>
<linearGradient id="paint1_linear" x1="152.773" y1="270.796" x2="262.037" y2="270.796" gradientUnits="userSpaceOnUse">
<stop stop-color="white"/>
<stop offset="1" stop-color="white"/>
</linearGradient>
<linearGradient id="paint2_linear" x1="630.188" y1="254.371" x2="630.188" y2="233.549" gradientUnits="userSpaceOnUse">
<stop stop-color="#FFA173"/>
<stop offset="0.1854" stop-color="#FD9F71"/>
<stop offset="0.2694" stop-color="#F69A6A"/>
<stop offset="0.3328" stop-color="#E9915E"/>
<stop offset="0.3465" stop-color="#E58E5A"/>
</linearGradient>
</defs>
</svg>
