<svg width="335" height="265" viewBox="0 0 335 265" fill="none" xmlns="http://www.w3.org/2000/svg">
<path d="M335 92.4036V176.126H0V85.8822H99.5636V69.4542H117.286V59.7965H123.31V62.883H129.98V50.0891H139.19V65.3721H140.833V75.9258H146.707V68.0105H150.291V59.4979H156.763V72.0926H203.259V39.9336H215.456V60.3441H226.557V75.2289H243.035V68.7572H245.972V60.2943H251.149V82.4472H260.558V68.0105H266.582V92.4036H335Z" fill="#EAF8FF"/>
<path d="M273.12 98.457C271.178 94.7056 271.471 90.025 273.78 86.5145C275.466 83.9677 278.105 81.9716 278.985 79.0806C279.938 75.9487 278.472 72.6792 276.969 69.7882C275.466 66.8629 273.817 63.7654 274.33 60.5647C275.21 55.1269 282.027 51.6165 282.394 46.1099C282.577 43.3222 281.037 40.7065 279.865 38.1253C278.692 35.5441 277.959 32.4122 279.608 30.0719C281.037 28.0414 284.08 27.2842 286.535 28.0758C288.991 28.8673 290.824 30.9323 291.593 33.2726C292.327 35.6129 292.107 38.1597 291.3 40.4656C290.641 42.3929 289.614 44.2858 289.504 46.3164C289.284 49.4138 291.19 52.2704 292.84 54.9548C294.489 57.6393 296.065 60.7712 295.149 63.7654C294.526 65.8648 292.73 67.5512 292.18 69.6506C291.447 72.335 292.766 75.0539 294.013 77.5663C295.919 81.3521 297.751 85.2067 298.521 89.3367C299.254 93.4666 298.777 97.9407 296.285 101.417C294.049 104.549 290.311 106.235 286.315 106.442C283.237 106.579 279.681 104.79 277.299 103.138C275.54 101.899 274.073 100.281 273.12 98.457Z" fill="#CFF8E0"/>
<path d="M285.253 105.959C285.216 105.959 285.18 105.925 285.18 105.89V31.104C285.18 31.0696 285.216 31.0352 285.253 31.0352C285.29 31.0352 285.326 31.0696 285.326 31.104V105.856C285.326 105.925 285.29 105.959 285.253 105.959Z" fill="#DFECFE"/>
<path d="M285.253 150.15C285.216 150.15 285.18 150.115 285.18 150.081V105.856C285.18 105.822 285.216 105.787 285.253 105.787C285.29 105.787 285.326 105.822 285.326 105.856V150.046C285.326 150.115 285.29 150.15 285.253 150.15Z" fill="#D0D0CF"/>
<path d="M285.252 40.8768C285.216 40.8768 285.179 40.8768 285.179 40.8424L281.55 34.4066C281.514 34.3722 281.55 34.3033 281.587 34.3033C281.624 34.2689 281.697 34.3033 281.697 34.3377L285.326 40.7736C285.362 40.808 285.326 40.8768 285.289 40.8768C285.252 40.8768 285.252 40.8768 285.252 40.8768Z" fill="#DFECFE"/>
<path d="M285.253 64.6264C285.217 64.6264 285.216 64.6264 285.18 64.592C285.143 64.5576 285.143 64.5232 285.18 64.4888L291.924 56.9516C291.961 56.9172 291.997 56.9172 292.034 56.9516C292.071 56.986 292.071 57.0204 292.034 57.0548L285.29 64.592C285.29 64.6264 285.253 64.6264 285.253 64.6264Z" fill="#DFECFE"/>
<path d="M285.252 74.8504C285.215 74.8504 285.179 74.8504 285.179 74.816L276.675 59.432C276.639 59.3975 276.675 59.3287 276.712 59.3287C276.749 59.2943 276.822 59.3287 276.822 59.3631L285.325 74.7472C285.362 74.7816 285.325 74.8504 285.289 74.8504C285.252 74.8504 285.252 74.8504 285.252 74.8504Z" fill="#DFECFE"/>
<path d="M285.253 100.281C285.217 100.281 285.216 100.281 285.18 100.247C285.143 100.212 285.143 100.178 285.18 100.143L295.626 89.7153C295.663 89.6808 295.699 89.6808 295.736 89.7153C295.773 89.7497 295.773 89.7841 295.736 89.8185L285.29 100.247C285.29 100.281 285.253 100.281 285.253 100.281Z" fill="#DFECFE"/>
<path d="M321.77 102.759C325.155 99.2244 326.201 95.441 321.77 83.6427C320.775 80.9545 321.322 73.1387 318.286 67.4138C316.991 64.9745 312.909 59.2496 306.487 63.6304C302.156 66.5177 302.206 79.1125 297.925 88.0235C296.182 91.6576 295.784 96.2375 297.925 99.6724C302.903 107.737 315.896 108.932 321.77 102.759Z" fill="#99D1B1"/>
<path d="M311.166 105.347C311.116 105.347 311.066 105.298 311.066 105.248V68.7578C311.066 68.708 311.116 68.6582 311.166 68.6582C311.216 68.6582 311.266 68.708 311.266 68.7578V105.248C311.315 105.298 311.266 105.347 311.166 105.347Z" fill="white"/>
<path d="M311.166 150.152C311.116 150.152 311.066 150.102 311.066 150.053V105.299C311.066 105.249 311.116 105.199 311.166 105.199C311.216 105.199 311.266 105.249 311.266 105.299V150.053C311.315 150.102 311.266 150.152 311.166 150.152Z" fill="#D0D0CF"/>
<path d="M311.166 83.3452C311.116 83.3452 311.116 83.3452 311.067 83.2954C311.017 83.2457 311.017 83.1959 311.067 83.1461L318.733 75.4299C318.783 75.3801 318.833 75.3801 318.882 75.4299C318.932 75.4797 318.932 75.5295 318.882 75.5793L311.216 83.2954C311.266 83.3452 311.216 83.3452 311.166 83.3452Z" fill="white"/>
<path d="M311.166 86.9772C311.116 86.9772 311.116 86.9772 311.067 86.9274L304.645 79.4601C304.595 79.4103 304.595 79.3108 304.645 79.3108C304.695 79.261 304.794 79.261 304.794 79.3108L311.216 86.778C311.266 86.8278 311.266 86.9274 311.216 86.9274C311.266 86.9772 311.216 86.9772 311.166 86.9772Z" fill="white"/>
<path d="M311.166 99.5723C311.116 99.5723 311.116 99.5723 311.116 99.5225L300.264 90.8605C300.214 90.8107 300.214 90.7609 300.264 90.7112C300.314 90.6614 300.363 90.6614 300.413 90.7112L311.266 99.3732C311.315 99.423 311.315 99.4728 311.266 99.5225C311.266 99.5723 311.216 99.5723 311.166 99.5723Z" fill="white"/>
<path d="M63.1128 80.3013C63.1128 97.2028 56.2964 110.915 47.8855 110.915C39.4746 110.915 32.6582 97.2028 32.6582 80.3013C32.6582 63.3998 39.4746 16.2031 47.8855 16.2031C56.2964 16.2031 63.1128 63.3998 63.1128 80.3013Z" fill="#BFEAD1"/>
<path d="M47.8024 110.995C47.7625 110.995 47.7227 110.955 47.7227 110.915V16.2028C47.7227 16.1629 47.7625 16.123 47.8024 16.123C47.8422 16.123 47.8821 16.1629 47.8821 16.2028V110.915C47.8821 110.955 47.8422 110.995 47.8024 110.995Z" fill="#DFECFE"/>
<path d="M47.8864 149.3C47.8465 149.3 47.8066 149.26 47.8066 149.22V110.953C47.8066 110.913 47.8465 110.873 47.8864 110.873C47.9262 110.873 47.9661 110.913 47.9661 110.953V149.22C47.9661 149.26 47.9262 149.3 47.8864 149.3Z" fill="#D0D0CF"/>
<path d="M47.8865 46.8952C47.8467 46.8952 47.8068 46.8554 47.8068 46.8155L40.5918 27.602C40.5918 27.5621 40.5918 27.4824 40.6317 27.4824C40.6715 27.4824 40.7512 27.4824 40.7512 27.5223L47.9663 46.7358C48.0061 46.8155 47.9663 46.8554 47.8865 46.8952C47.9264 46.8952 47.8865 46.8952 47.8865 46.8952Z" fill="#DFECFE"/>
<path d="M47.887 52.3173C47.8471 52.3173 47.8471 52.3173 47.8072 52.2774C47.7674 52.2375 47.7674 52.1977 47.8072 52.1578L58.1714 39.8404C58.2112 39.8006 58.2511 39.8006 58.291 39.8404C58.3308 39.8803 58.3308 39.9202 58.291 39.96L47.9268 52.2774C47.9268 52.3173 47.9268 52.3173 47.887 52.3173Z" fill="#DFECFE"/>
<path d="M47.8867 83.2522C47.8469 83.2522 47.807 83.2522 47.807 83.2123L34.4931 57.5013C34.4532 57.4615 34.4931 57.3817 34.5329 57.3817C34.5728 57.3419 34.6525 57.3817 34.6525 57.4216L47.9664 83.1326C48.0063 83.1725 47.9664 83.2522 47.9266 83.2522H47.8867Z" fill="#DFECFE"/>
<path d="M47.8864 90.2662H47.8465C47.8066 90.2263 47.8066 90.1865 47.8066 90.1466L62.3961 68.6609C62.436 68.6211 62.4759 68.6211 62.5157 68.6211C62.5556 68.661 62.5556 68.7008 62.5556 68.7407L47.9661 90.2263C47.9661 90.2662 47.9262 90.2662 47.8864 90.2662Z" fill="#DFECFE"/>
<path d="M43.811 89.1162C43.811 100.317 39.2809 109.427 33.7053 109.427C28.1298 109.427 23.5996 100.317 23.5996 89.1162C23.5996 77.9153 28.1298 46.5527 33.7053 46.5527C39.2809 46.5527 43.811 77.8655 43.811 89.1162Z" fill="#99D1B1"/>
<path d="M33.707 109.529C33.6572 109.529 33.6074 109.479 33.6074 109.429V46.5546C33.6074 46.5049 33.6572 46.4551 33.707 46.4551C33.7568 46.4551 33.8065 46.5049 33.8065 46.5546V109.429C33.8065 109.479 33.7568 109.529 33.707 109.529Z" fill="white"/>
<path d="M33.707 149.054C33.6572 149.054 33.6074 149.004 33.6074 148.954V109.428C33.6074 109.378 33.6572 109.328 33.707 109.328C33.7568 109.328 33.8065 109.378 33.8065 109.428V148.954C33.8065 149.004 33.7568 149.054 33.707 149.054Z" fill="#D0D0CF"/>
<path d="M33.7048 66.9638C33.655 66.9638 33.6052 66.914 33.6052 66.8642L28.8262 54.12C28.8262 54.0703 28.8262 53.9707 28.876 53.9707C28.9257 53.9707 29.0253 53.9707 29.0253 54.0205L33.8044 66.7646C33.8541 66.8642 33.8043 66.914 33.7048 66.9638C33.7546 66.9638 33.7048 66.9638 33.7048 66.9638Z" fill="white"/>
<path d="M33.7053 70.5999C33.6555 70.5999 33.6555 70.5999 33.6057 70.5501C33.5559 70.5003 33.5559 70.4505 33.6057 70.4008L40.4756 62.2366C40.5254 62.1868 40.5751 62.1868 40.6249 62.2366C40.6747 62.2863 40.6747 62.3361 40.6249 62.3859L33.755 70.5501C33.755 70.5501 33.755 70.5999 33.7053 70.5999Z" fill="white"/>
<path d="M33.706 91.1083C33.6562 91.1083 33.6064 91.1083 33.6064 91.0585L24.7452 73.9833C24.6954 73.9335 24.7452 73.834 24.795 73.834C24.8448 73.834 24.9444 73.834 24.9444 73.8838L33.8055 90.9589C33.8553 91.0087 33.8055 91.1083 33.7557 91.1083H33.706Z" fill="white"/>
<path d="M33.707 95.7863H33.6572C33.6074 95.7365 33.6074 95.6868 33.6074 95.637L43.3149 81.3994C43.3647 81.3496 43.4144 81.3496 43.4642 81.3496C43.514 81.3994 43.514 81.4492 43.514 81.4989L33.8065 95.7365C33.8065 95.7365 33.7568 95.7863 33.707 95.7863Z" fill="white"/>
<path d="M75.7254 95.2888C74.6302 92.3019 74.8791 88.8171 76.4224 85.9796C77.5674 83.9385 79.3097 82.2459 80.156 80.0555C80.9525 77.8651 80.7534 75.4258 80.156 73.1856C79.5586 70.9455 78.563 68.8048 77.866 66.5647C76.9202 63.528 76.4722 60.1428 77.6669 57.1559C78.563 54.9157 80.3551 53.024 82.5455 52.0284C84.7359 51.0327 87.3744 50.9332 89.6145 51.7795C93.4975 53.1734 96.0862 57.1559 96.6338 61.238C97.1316 65.3201 95.8373 69.5018 93.7962 73.0861C92.8504 74.7289 91.7054 76.4712 92.0539 78.363C92.3028 79.7071 93.2984 80.8023 94.1447 81.8975C95.8871 84.0879 97.3307 86.5272 98.0277 89.2652C98.7246 91.9534 98.6748 94.8905 97.5796 97.4792C96.3849 100.267 94.0451 102.507 91.2076 103.503C84.9848 105.643 77.866 101.163 75.7254 95.2888Z" fill="#99D1B1"/>
<path d="M86.7265 102.759C86.6767 102.759 86.627 102.71 86.627 102.66V55.1679C86.627 55.1181 86.6767 55.0684 86.7265 55.0684C86.7763 55.0684 86.8261 55.1181 86.8261 55.1679V102.66C86.8759 102.71 86.7763 102.759 86.7265 102.759Z" fill="#DFECFE"/>
<path d="M86.7265 149.054C86.6767 149.054 86.627 149.004 86.627 148.954V102.707C86.627 102.657 86.6767 102.607 86.7265 102.607C86.7763 102.607 86.8261 102.657 86.8261 102.707V148.954C86.8759 149.004 86.7763 149.054 86.7265 149.054Z" fill="#D0D0CF"/>
<path d="M86.7287 70.8962C86.6789 70.8962 86.6789 70.8962 86.6291 70.8464C86.5794 70.7966 86.5794 70.7468 86.6291 70.6971L93.8973 63.3791C93.9471 63.3294 93.9968 63.3294 94.0466 63.3791C94.0964 63.4289 94.0964 63.4787 94.0466 63.5285L86.7785 70.8464C86.7785 70.8962 86.7785 70.8962 86.7287 70.8962Z" fill="#DFECFE"/>
<path d="M86.7272 64.9225C86.6774 64.9225 86.6774 64.9225 86.6276 64.8727L81.2014 59.5461C81.1516 59.4963 81.1516 59.4465 81.2014 59.3967C81.2512 59.3469 81.301 59.3469 81.3507 59.3967L86.777 64.7234C86.8267 64.7732 86.8267 64.8229 86.777 64.8727C86.777 64.9225 86.777 64.9225 86.7272 64.9225Z" fill="#DFECFE"/>
<path d="M86.7277 97.5284C86.6779 97.5284 86.6779 97.5284 86.6281 97.4786L78.0159 88.8664C77.9661 88.8166 77.9661 88.7668 78.0159 88.717C78.0656 88.6672 78.1154 88.6672 78.1652 88.717L86.7775 97.3293C86.8272 97.3791 86.8272 97.4288 86.7775 97.4786C86.7775 97.4786 86.7774 97.5284 86.7277 97.5284Z" fill="#DFECFE"/>
<path d="M145.207 2.6218L188.936 0.0171847C193.851 -0.289241 197.488 3.54108 196.947 8.40558L193.386 40.542C192.883 44.9468 188.704 48.3558 184.176 48.126L165.369 47.2067L167.42 60L157.242 46.9769L143.427 46.1342C139.751 45.9427 136.887 42.6869 137.003 38.78L137.893 10.7038C138.01 6.52873 141.26 2.85162 145.207 2.6218Z" fill="#FFB74F"/>
<path fill-rule="evenodd" clip-rule="evenodd" d="M176.629 17.1973H176.129V17.6973V21.2664H174.822H174.322V21.7664V23.5751H175.322V22.2664H181.557V23.5751H182.557V21.7664V21.2664H182.057H179.847V20.0048H185.177V23.5744H186.177V19.5048V19.0048H185.677H184.364V17.6973V17.1973H183.864H176.629ZM183.364 19.0048V18.1973H177.129V21.2664H178.847V19.5048V19.0048H179.347H183.364ZM166.684 22.1687H170.572C171.227 22.1687 171.705 22.6084 171.9 23.1262L171.905 23.1407L171.91 23.1554C172.209 24.1349 172.849 26.1239 173.495 28.0931L173.013 24.4792H186.578C187.211 24.4792 187.709 24.7957 187.483 25.3835L185.493 30.4027C185.312 30.9453 184.77 31.2618 184.227 31.2618H174.549C174.611 31.4457 174.671 31.6215 174.728 31.7876C175.013 32.6194 175.211 33.1708 175.276 33.3095L175.277 33.3114C175.393 33.5642 175.51 33.7151 175.62 33.802C175.719 33.8808 175.834 33.9253 175.998 33.9253H184.771V34.9253H175.998C175.62 34.9253 175.283 34.8116 174.998 34.5851C174.723 34.3669 174.523 34.0655 174.369 33.7305C174.275 33.5281 174.055 32.9108 173.782 32.1117C173.501 31.2924 173.15 30.2419 172.788 29.1445C172.068 26.9619 171.302 24.5854 170.959 23.465C170.88 23.2675 170.729 23.1687 170.572 23.1687H166.684V22.1687ZM174.418 37.1409C174.418 36.6678 174.802 36.2843 175.275 36.2843C175.748 36.2843 176.131 36.6678 176.131 37.1409C176.131 37.6139 175.748 37.9974 175.275 37.9974C174.802 37.9974 174.418 37.6139 174.418 37.1409ZM175.275 35.2843C174.249 35.2843 173.418 36.1155 173.418 37.1409C173.418 38.1662 174.249 38.9974 175.275 38.9974C176.3 38.9974 177.131 38.1662 177.131 37.1409C177.131 36.1155 176.3 35.2843 175.275 35.2843ZM183.413 36.2843C182.94 36.2843 182.556 36.6678 182.556 37.1409C182.556 37.6139 182.94 37.9974 183.413 37.9974C183.886 37.9974 184.27 37.6139 184.27 37.1409C184.27 36.6678 183.886 36.2843 183.413 36.2843ZM181.556 37.1409C181.556 36.1155 182.388 35.2843 183.413 35.2843C184.438 35.2843 185.27 36.1155 185.27 37.1409C185.27 38.1662 184.438 38.9974 183.413 38.9974C182.388 38.9974 181.556 38.1662 181.556 37.1409Z" fill="white"/>
<path d="M176.129 17.1973V16.6973H175.629V17.1973H176.129ZM176.129 21.2664V21.7664H176.629V21.2664H176.129ZM174.322 21.2664V20.7664H173.822V21.2664H174.322ZM174.322 23.5751H173.822V24.0751H174.322V23.5751ZM175.322 23.5751V24.0751H175.822V23.5751H175.322ZM175.322 22.2664V21.7664H174.822V22.2664H175.322ZM181.557 22.2664H182.057V21.7664H181.557V22.2664ZM181.557 23.5751H181.057V24.0751H181.557V23.5751ZM182.557 23.5751V24.0751H183.057V23.5751H182.557ZM182.557 21.2664H183.057V20.7664H182.557V21.2664ZM179.847 21.2664H179.347V21.7664H179.847V21.2664ZM179.847 20.0048V19.5048H179.347V20.0048H179.847ZM185.177 20.0048H185.677V19.5048H185.177V20.0048ZM185.177 23.5744H184.677V24.0744H185.177V23.5744ZM186.177 23.5744V24.0744H186.677V23.5744H186.177ZM186.177 19.0048H186.677V18.5048H186.177V19.0048ZM184.364 19.0048H183.864V19.5048H184.364V19.0048ZM184.364 17.1973H184.864V16.6973H184.364V17.1973ZM183.364 19.0048V19.5048H183.864V19.0048H183.364ZM183.364 18.1973H183.864V17.6973H183.364V18.1973ZM177.129 18.1973V17.6973H176.629V18.1973H177.129ZM177.129 21.2664H176.629V21.7664H177.129V21.2664ZM178.847 21.2664V21.7664H179.347V21.2664H178.847ZM178.847 19.0048V18.5048H178.347V19.0048H178.847ZM166.684 22.1687V21.6687H166.184V22.1687H166.684ZM171.9 23.1262L171.431 23.3018L171.431 23.3018L171.9 23.1262ZM171.905 23.1407L172.383 22.9943L172.379 22.9795L172.373 22.9651L171.905 23.1407ZM171.91 23.1554L172.388 23.0091V23.0091L171.91 23.1554ZM173.495 28.0931L173.02 28.249L173.99 28.0271L173.495 28.0931ZM173.013 24.4792V23.9792H172.442L172.517 24.5453L173.013 24.4792ZM187.483 25.3835L187.947 25.5678L187.949 25.563L187.483 25.3835ZM185.493 30.4027L185.028 30.2185L185.023 30.2314L185.019 30.2446L185.493 30.4027ZM174.549 31.2618V30.7618H173.851L174.075 31.4223L174.549 31.2618ZM174.728 31.7876L175.201 31.6256L174.728 31.7876ZM175.276 33.3095L175.729 33.0981L175.729 33.0981L175.276 33.3095ZM175.277 33.3114L175.731 33.1019L175.73 33.1L175.277 33.3114ZM175.62 33.802L175.931 33.4105L175.931 33.4105L175.62 33.802ZM184.771 33.9253H185.271V33.4253H184.771V33.9253ZM184.771 34.9253V35.4253H185.271V34.9253H184.771ZM174.998 34.5851L175.309 34.1936L175.309 34.1936L174.998 34.5851ZM174.369 33.7305L174.823 33.521L174.822 33.5199L174.369 33.7305ZM173.782 32.1117L173.309 32.2737H173.309L173.782 32.1117ZM172.788 29.1445L172.313 29.3012L172.788 29.1445ZM170.959 23.465L171.437 23.3185L171.431 23.299L171.423 23.2801L170.959 23.465ZM166.684 23.1687H166.184V23.6687H166.684V23.1687ZM176.129 17.6973H176.629V16.6973H176.129V17.6973ZM176.629 17.6973V17.1973H175.629V17.6973H176.629ZM176.629 21.2664V17.6973H175.629V21.2664H176.629ZM174.822 21.7664H176.129V20.7664H174.822V21.7664ZM174.322 21.7664H174.822V20.7664H174.322V21.7664ZM174.822 21.7664V21.2664H173.822V21.7664H174.822ZM174.822 23.5751V21.7664H173.822V23.5751H174.822ZM175.322 23.0751H174.322V24.0751H175.322V23.0751ZM174.822 22.2664V23.5751H175.822V22.2664H174.822ZM181.557 21.7664H175.322V22.7664H181.557V21.7664ZM182.057 23.5751V22.2664H181.057V23.5751H182.057ZM182.557 23.0751H181.557V24.0751H182.557V23.0751ZM182.057 21.7664V23.5751H183.057V21.7664H182.057ZM182.057 21.2664V21.7664H183.057V21.2664H182.057ZM182.057 21.7664H182.557V20.7664H182.057V21.7664ZM179.847 21.7664H182.057V20.7664H179.847V21.7664ZM179.347 20.0048V21.2664H180.347V20.0048H179.347ZM185.177 19.5048H179.847V20.5048H185.177V19.5048ZM185.677 23.5744V20.0048H184.677V23.5744H185.677ZM186.177 23.0744H185.177V24.0744H186.177V23.0744ZM185.677 19.5048V23.5744H186.677V19.5048H185.677ZM185.677 19.0048V19.5048H186.677V19.0048H185.677ZM185.677 19.5048H186.177V18.5048H185.677V19.5048ZM184.364 19.5048H185.677V18.5048H184.364V19.5048ZM183.864 17.6973V19.0048H184.864V17.6973H183.864ZM183.864 17.1973V17.6973H184.864V17.1973H183.864ZM183.864 17.6973H184.364V16.6973H183.864V17.6973ZM176.629 17.6973H183.864V16.6973H176.629V17.6973ZM183.864 19.0048V18.1973H182.864V19.0048H183.864ZM183.364 17.6973H177.129V18.6973H183.364V17.6973ZM176.629 18.1973V21.2664H177.629V18.1973H176.629ZM177.129 21.7664H178.847V20.7664H177.129V21.7664ZM179.347 21.2664V19.5048H178.347V21.2664H179.347ZM179.347 19.5048V19.0048H178.347V19.5048H179.347ZM178.847 19.5048H179.347V18.5048H178.847V19.5048ZM179.347 19.5048H183.364V18.5048H179.347V19.5048ZM170.572 21.6687H166.684V22.6687H170.572V21.6687ZM172.368 22.9506C172.116 22.2789 171.476 21.6687 170.572 21.6687V22.6687C170.977 22.6687 171.295 22.9378 171.431 23.3018L172.368 22.9506ZM172.373 22.9651L172.368 22.9506L171.431 23.3018L171.437 23.3162L172.373 22.9651ZM172.388 23.0091L172.383 22.9943L171.427 23.287L171.431 23.3018L172.388 23.0091ZM173.97 27.9372C173.324 25.9684 172.686 23.9835 172.388 23.0091L171.431 23.3018C171.733 24.2864 172.373 26.2794 173.02 28.249L173.97 27.9372ZM172.517 24.5453L172.999 28.1592L173.99 28.0271L173.509 24.4131L172.517 24.5453ZM186.578 23.9792H173.013V24.9792H186.578V23.9792ZM187.949 25.563C188.033 25.3444 188.064 25.1136 188.014 24.8868C187.963 24.6574 187.839 24.4718 187.681 24.3339C187.38 24.0715 186.959 23.9792 186.578 23.9792V24.9792C186.83 24.9792 186.975 25.0451 187.024 25.088C187.034 25.0964 187.037 25.1014 187.037 25.1021C187.038 25.1024 187.037 25.1017 187.037 25.1017C187.037 25.102 187.039 25.1085 187.037 25.1238C187.036 25.1397 187.03 25.1661 187.016 25.2041L187.949 25.563ZM185.958 30.587L187.947 25.5678L187.018 25.1993L185.028 30.2185L185.958 30.587ZM184.227 31.7618C184.944 31.7618 185.706 31.3439 185.967 30.5608L185.019 30.2446C184.918 30.5468 184.595 30.7618 184.227 30.7618V31.7618ZM174.549 31.7618H184.227V30.7618H174.549V31.7618ZM175.201 31.6256C175.144 31.4601 175.084 31.2848 175.022 31.1014L174.075 31.4223C174.138 31.6066 174.198 31.7829 174.255 31.9497L175.201 31.6256ZM175.729 33.0981C175.679 32.9902 175.491 32.4728 175.201 31.6256L174.255 31.9497C174.534 32.7661 174.744 33.3513 174.823 33.521L175.729 33.0981ZM175.73 33.1L175.729 33.0981L174.823 33.5209L174.824 33.5229L175.73 33.1ZM175.931 33.4105C175.904 33.3892 175.828 33.3135 175.731 33.1019L174.823 33.521C174.958 33.8149 175.117 34.041 175.309 34.1936L175.931 33.4105ZM175.998 33.4253C175.962 33.4253 175.948 33.4206 175.946 33.4198C175.944 33.4194 175.941 33.4185 175.931 33.4105L175.309 34.1936C175.501 34.3461 175.727 34.4253 175.998 34.4253V33.4253ZM184.771 33.4253H175.998V34.4253H184.771V33.4253ZM185.271 34.9253V33.9253H184.271V34.9253H185.271ZM175.998 35.4253H184.771V34.4253H175.998V35.4253ZM174.687 34.9767C175.065 35.277 175.513 35.4253 175.998 35.4253V34.4253C175.727 34.4253 175.501 34.3461 175.309 34.1936L174.687 34.9767ZM173.915 33.94C174.088 34.3162 174.329 34.6928 174.687 34.9767L175.309 34.1936C175.117 34.041 174.958 33.8149 174.823 33.521L173.915 33.94ZM173.309 32.2737C173.578 33.0585 173.807 33.7086 173.915 33.9411L174.822 33.5199C174.742 33.3477 174.533 32.7631 174.255 31.9497L173.309 32.2737ZM172.313 29.3012C172.675 30.3994 173.027 31.4519 173.309 32.2737L174.255 31.9497C173.975 31.1329 173.625 30.0844 173.263 28.9879L172.313 29.3012ZM170.48 23.6115C170.825 24.7372 171.593 27.1179 172.313 29.3012L173.263 28.9879C172.543 26.8059 171.778 24.4335 171.437 23.3185L170.48 23.6115ZM170.572 23.6687C170.543 23.6687 170.516 23.6586 170.498 23.6456C170.481 23.6331 170.485 23.6275 170.494 23.6499L171.423 23.2801C171.28 22.9216 170.963 22.6687 170.572 22.6687V23.6687ZM166.684 23.6687H170.572V22.6687H166.684V23.6687ZM166.184 22.1687V23.1687H167.184V22.1687H166.184ZM175.275 35.7843C174.525 35.7843 173.918 36.3917 173.918 37.1409H174.918C174.918 36.944 175.078 36.7843 175.275 36.7843V35.7843ZM176.631 37.1409C176.631 36.3917 176.024 35.7843 175.275 35.7843V36.7843C175.472 36.7843 175.631 36.944 175.631 37.1409H176.631ZM175.275 38.4974C176.024 38.4974 176.631 37.8901 176.631 37.1409H175.631C175.631 37.3378 175.472 37.4974 175.275 37.4974V38.4974ZM173.918 37.1409C173.918 37.8901 174.525 38.4974 175.275 38.4974V37.4974C175.078 37.4974 174.918 37.3378 174.918 37.1409H173.918ZM173.918 37.1409C173.918 36.3917 174.525 35.7843 175.275 35.7843V34.7843C173.973 34.7843 172.918 35.8394 172.918 37.1409H173.918ZM175.275 38.4974C174.525 38.4974 173.918 37.8901 173.918 37.1409H172.918C172.918 38.4423 173.973 39.4974 175.275 39.4974V38.4974ZM176.631 37.1409C176.631 37.8901 176.024 38.4974 175.275 38.4974V39.4974C176.576 39.4974 177.631 38.4424 177.631 37.1409H176.631ZM175.275 35.7843C176.024 35.7843 176.631 36.3917 176.631 37.1409H177.631C177.631 35.8394 176.576 34.7843 175.275 34.7843V35.7843ZM183.056 37.1409C183.056 36.944 183.216 36.7843 183.413 36.7843V35.7843C182.664 35.7843 182.056 36.3917 182.056 37.1409H183.056ZM183.413 37.4974C183.216 37.4974 183.056 37.3378 183.056 37.1409H182.056C182.056 37.8901 182.664 38.4974 183.413 38.4974V37.4974ZM183.77 37.1409C183.77 37.3378 183.61 37.4974 183.413 37.4974V38.4974C184.162 38.4974 184.77 37.8901 184.77 37.1409H183.77ZM183.413 36.7843C183.61 36.7843 183.77 36.944 183.77 37.1409H184.77C184.77 36.3917 184.162 35.7843 183.413 35.7843V36.7843ZM183.413 34.7843C182.111 34.7843 181.056 35.8394 181.056 37.1409H182.056C182.056 36.3917 182.664 35.7843 183.413 35.7843V34.7843ZM185.77 37.1409C185.77 35.8394 184.714 34.7843 183.413 34.7843V35.7843C184.162 35.7843 184.77 36.3917 184.77 37.1409H185.77ZM183.413 39.4974C184.714 39.4974 185.77 38.4423 185.77 37.1409H184.77C184.77 37.8901 184.162 38.4974 183.413 38.4974V39.4974ZM181.056 37.1409C181.056 38.4423 182.111 39.4974 183.413 39.4974V38.4974C182.664 38.4974 182.056 37.8901 182.056 37.1409H181.056Z" fill="white"/>
<path d="M160.612 13.1V22.8664L155.891 27.5874C155.388 28.0903 155.388 28.9054 155.891 29.4082C156.142 29.6596 156.472 29.7853 156.801 29.7853C157.131 29.7853 157.46 29.6596 157.712 29.4082L162.81 24.3101C163.051 24.0687 163.187 23.7411 163.187 23.3997V13.1C163.187 12.3889 162.61 11.8125 161.899 11.8125C161.188 11.8125 160.612 12.3889 160.612 13.1Z" fill="white"/>
<path d="M172.699 6.01584C172.016 6.21285 171.621 6.92637 171.818 7.60961L172.809 11.0447C168.627 7.35915 162.787 5.993 157.334 7.56515C153.105 8.7847 149.603 11.5783 147.475 15.4314C145.347 19.2845 144.846 23.7358 146.066 27.9653C147.285 32.1949 150.079 35.6963 153.932 37.8248C157.785 39.9531 162.236 40.4537 166.466 39.2341C166.476 39.2311 166.486 39.2269 166.496 39.2237C166.507 39.2209 166.517 39.2193 166.528 39.2163C166.974 39.0877 167.418 38.9391 167.85 38.7746C168.514 38.5213 168.848 37.7773 168.594 37.1129C168.341 36.4486 167.598 36.1148 166.933 36.3687C166.568 36.5077 166.192 36.6334 165.814 36.7422C165.804 36.7452 165.794 36.7494 165.784 36.7526C165.773 36.7554 165.763 36.757 165.753 36.76C158.386 38.8842 150.664 34.6189 148.54 27.252C146.416 19.885 150.681 12.1635 158.048 10.0393C162.796 8.67033 167.892 9.94182 171.439 13.2796L168.038 14.2604C167.354 14.4574 166.96 15.171 167.157 15.8542C167.354 16.5374 168.068 16.9316 168.751 16.7346L172.528 15.6456C173.281 15.4284 173.925 15.0134 174.419 14.4736C174.451 14.4405 174.482 14.4061 174.51 14.3703C175.382 13.3516 175.743 11.9278 175.345 10.5456L174.293 6.89622C174.096 6.21298 173.382 5.81884 172.699 6.01584Z" fill="white"/>
<path d="M55.3983 237.219C54.7508 236.67 54.2798 235.944 53.9462 235.159C52.6511 232.098 53.5341 228.428 55.4965 225.74C57.4588 223.051 60.3434 221.207 63.3262 219.715C68.4871 217.125 74.0994 215.437 79.8491 214.77C81.1246 214.613 82.4197 214.515 83.7149 214.594C85.5791 214.692 87.4237 215.143 89.2879 215.163C91.1521 215.182 93.1537 214.731 94.39 213.338C94.9787 212.69 95.3712 211.866 96.0187 211.277C96.6859 210.708 97.8437 210.532 98.4128 211.199V238.24C93.5462 241.87 87.5611 244.009 81.4974 243.577C77.8475 243.322 74.276 242.263 70.8616 240.987C69.6253 240.516 68.4087 240.026 67.0939 239.849C63.9149 239.358 57.9494 239.378 55.3983 237.219Z" fill="#0B69AA"/>
<path d="M20.0195 224.129V232.587C20.0195 234.726 21.7856 236.453 23.9246 236.433H23.9638V221.578C22.7668 222.599 21.452 223.462 20.0195 224.129Z" fill="#C6C6C6"/>
<path d="M23.9639 210.783C23.6303 211.136 23.2379 211.49 22.7865 211.804C22.7669 211.804 22.7669 211.823 22.7473 211.823C21.0597 213.06 20 214.983 20 217.082V224.107C21.4325 223.44 22.7473 222.577 23.9443 221.556L23.9639 210.783Z" fill="#F987A5"/>
<path d="M264.524 224.129V232.587C264.524 234.726 262.758 236.453 260.619 236.433H260.58V221.578C261.757 222.599 263.092 223.462 264.524 224.129Z" fill="#C6C6C6"/>
<path d="M260.58 210.783C260.914 211.136 261.306 211.49 261.757 211.804C261.777 211.804 261.777 211.823 261.797 211.823C263.484 213.06 264.544 214.983 264.544 217.082V224.107C263.112 223.44 261.797 222.577 260.6 221.556L260.58 210.783Z" fill="#F987A5"/>
<path d="M23.1445 191.185V210.789V235.593C23.1445 236.084 23.537 236.476 24.0276 236.476H56.8183C58.1526 224.82 68.0428 215.774 80.0523 215.774C84.0751 215.774 87.8624 216.794 91.1592 218.58L98.3609 214.321V162.496C72.8702 169.345 48.753 176.213 24.4397 183.709C23.5762 186.103 23.1445 188.634 23.1445 191.185Z" fill="#67CDFD"/>
<path d="M94.1731 143.398H59.6752C54.5928 143.398 49.8243 145.891 46.92 150.07L27.0612 178.622C25.9623 180.212 25.0792 181.919 24.4316 183.724C48.7646 176.228 72.8621 169.36 98.3529 162.512V147.617C98.3725 145.282 96.4887 143.398 94.1731 143.398Z" fill="#D1F0FE"/>
<path d="M89.9024 202.056H81.9746C81.1896 202.056 80.5813 201.35 80.7187 200.565L80.8757 199.721C81.1111 198.328 82.2493 197.268 83.6425 197.131L89.0978 196.522C90.1968 196.405 91.1779 197.268 91.1779 198.387V200.8C91.1583 201.487 90.5892 202.056 89.9024 202.056Z" fill="#1A1A1A"/>
<path d="M88.6651 147.245C88.1745 146.656 87.4092 146.322 86.585 146.303C87.3111 146.636 87.8213 147.362 87.8213 148.226V179.623C87.8213 181.036 86.8009 182.233 85.4272 182.469L33.857 191.28C32.7581 191.476 31.6199 191.28 30.6191 190.809C31.149 191.397 31.8358 191.986 32.7188 192.477C34.6812 193.556 36.5454 193.517 37.2911 193.477C53.4608 190.809 69.6108 188.12 85.7805 185.451C87.5662 185.157 88.881 183.626 88.881 181.801C88.9398 171.146 88.9987 160.471 89.0772 149.815C89.1164 149.717 89.5678 148.324 88.6651 147.245Z" fill="url(#paint0_linear)"/>
<path opacity="0.57" d="M88.6651 147.245C88.1745 146.656 87.4092 146.322 86.585 146.303C87.3111 146.636 87.8213 147.362 87.8213 148.226V179.623C87.8213 181.036 86.8009 182.233 85.4272 182.469L33.857 191.28C32.7581 191.476 31.6199 191.28 30.6191 190.809C31.149 191.397 31.8358 191.986 32.7188 192.477C34.6812 193.556 36.5454 193.517 37.2911 193.477C53.4608 190.809 69.6108 188.12 85.7805 185.451C87.5662 185.157 88.881 183.626 88.881 181.801C88.9398 171.146 88.9987 160.471 89.0772 149.815C89.1164 149.717 89.5678 148.324 88.6651 147.245Z" fill="url(#paint1_linear)"/>
<path d="M42.8813 160.332C41.6647 162.098 40.3499 164.002 39.0352 165.925C44.8241 172.989 50.4756 180.132 56.1467 187.196L63.6821 185.901C58.6193 179.406 53.3014 173.009 47.9049 166.455C46.0996 164.453 44.4316 162.432 42.8813 160.332Z" fill="#8DE1E4"/>
<path d="M27.7538 182.568C25.1242 187.67 29.5002 191.752 33.4445 191.085L56.1292 187.219C50.458 180.155 44.8065 173.031 39.0176 165.947C33.6996 173.679 28.1658 181.783 27.7538 182.568Z" fill="#DCF8FF"/>
<path d="M57.1432 146.145C53.8661 146.792 50.9226 148.696 48.9603 151.482C48.9603 151.482 46.2915 155.328 42.8574 160.332C44.4077 162.412 46.0757 164.434 47.881 166.455C53.2971 173.029 58.5954 179.406 63.6582 185.901L80.7306 182.978C80.7306 178.857 80.7306 174.736 80.7306 170.615C72.4299 162.805 64.816 154.445 57.1432 146.145Z" fill="#DCF8FF"/>
<path d="M80.7562 145.891H68.6289C72.7498 149.56 76.7726 153.269 80.7562 157.017C80.7562 153.308 80.7562 149.599 80.7562 145.891Z" fill="#DCF8FF"/>
<path d="M68.6261 145.891H59.6974C58.834 145.891 57.9902 145.989 57.166 146.146C64.8191 154.446 72.4526 162.806 80.7729 170.636C80.7729 166.103 80.7729 161.57 80.7729 157.037C76.7698 153.289 72.7274 149.56 68.6261 145.891Z" fill="#8DE1E4"/>
<path d="M42.8813 160.332C41.6647 162.098 40.3499 164.002 39.0352 165.925C44.8241 172.989 50.4756 180.132 56.1467 187.196L63.6821 185.901C58.6193 179.406 53.3014 173.009 47.9049 166.455C46.0996 164.453 44.4316 162.432 42.8813 160.332Z" fill="#EEFCFF"/>
<path d="M68.6261 145.891H59.6974C58.834 145.891 57.9902 145.989 57.166 146.146C64.8191 154.446 72.4526 162.806 80.7729 170.636C80.7729 166.103 80.7729 161.57 80.7729 157.037C76.7698 153.289 72.7274 149.56 68.6261 145.891Z" fill="#EEFCFF"/>
<path d="M85.2908 145.891H80.7578C80.7578 158.194 80.7578 170.596 80.7578 182.979L85.0161 182.253C86.4093 182.017 87.4101 180.82 87.4101 179.407V148.01C87.4101 146.852 86.4682 145.891 85.2908 145.891Z" fill="#0B69AA"/>
<path d="M35.6177 205.389C33.9497 205.389 32.5957 204.035 32.5957 202.367V197.069C32.5957 196.323 33.204 195.715 33.9497 195.715H37.2857C38.0314 195.715 38.6397 196.323 38.6397 197.069V202.367C38.6593 204.035 37.3053 205.389 35.6177 205.389Z" fill="#0B69AA"/>
<path d="M35.2324 197.816H36.037V193.342L41.453 177.349L40.7073 177.094L35.2324 193.283V197.816Z" fill="#0B69AA"/>
<path d="M43.3514 177.84C39.9369 177.84 37.1504 175.054 37.1504 171.639V157.707C37.1504 154.292 39.9369 151.506 43.3514 151.506C46.7658 151.506 49.5524 154.292 49.5524 157.707V171.639C49.5524 175.034 46.7658 177.84 43.3514 177.84Z" fill="#0B69AA"/>
<path d="M43.8026 155.662C43.4102 156.741 43.2728 158.527 43.2336 159.685C43.1158 163.649 43.1354 167.632 43.2728 171.596C43.3121 172.617 43.3709 173.676 43.9008 174.559C44.4306 175.442 46.0986 176.169 47.0797 175.796C47.1779 170.772 47.2564 153.818 47.0797 153.759C45.2351 153.15 44.2932 154.347 43.8026 155.662Z" fill="white"/>
<path d="M257.246 111H221.08H106.047C103.928 111 102.201 112.766 102.201 114.944V157.645V172.402V190.396V235.53C102.201 237.708 103.928 239.474 106.047 239.474H106.715H182.539H257.246C259.365 239.474 261.092 237.708 261.092 235.53V207.469V176.797V151.738V125.639V114.964C261.092 112.766 259.365 111 257.246 111Z" fill="#D1D9E2"/>
<g opacity="0.5">
<path d="M261.092 173.443L106.715 236.14H182.54L261.092 204.115V173.443Z" fill="white"/>
</g>
<path d="M120.02 188.59V202.915C120.02 204.269 121.354 205.368 123.002 205.368H123.512H182.343H240.291C241.94 205.368 243.274 204.269 243.274 202.915V188.59H120.02Z" fill="#D1F0FE"/>
<path d="M243.274 185.452V166.358V150.758V134.51V127.857C243.274 126.503 241.94 125.404 240.291 125.404H212.23H123.002C121.354 125.404 120.02 126.503 120.02 127.857V154.447V163.631V174.836V188.592H243.254V185.452H243.274Z" fill="#D1F0FE"/>
<path d="M61.1111 240.57H27.7318C25.2788 240.57 23.2969 238.588 23.2969 236.135H61.1111V240.57Z" fill="#0B69AA"/>
<path d="M257.106 240.511H46.4297V236.135H261.482C261.482 238.548 259.52 240.511 257.106 240.511Z" fill="#0B69AA"/>
<path d="M196.119 235.16C196.119 221.404 207.324 210.199 221.08 210.199C234.836 210.199 246.041 221.404 246.041 235.16C246.041 235.67 245.825 236.652 245.825 236.652L196.472 237.103C196.492 237.103 196.119 235.847 196.119 235.16ZM205.95 235.16C205.95 243.5 212.74 250.29 221.08 250.29C229.42 250.29 236.21 243.5 236.21 235.16C236.21 226.82 229.42 220.031 221.08 220.031C212.74 220.011 205.95 226.801 205.95 235.16Z" fill="#4D4D4D"/>
<path d="M230.383 244.722C235.502 239.603 235.502 231.303 230.383 226.184C225.264 221.065 216.964 221.065 211.845 226.184C206.726 231.303 206.726 239.603 211.845 244.722C216.964 249.841 225.264 249.841 230.383 244.722Z" fill="#94C9EA"/>
<path d="M221.122 239.473C223.344 239.473 225.145 237.672 225.145 235.451C225.145 233.229 223.344 231.428 221.122 231.428C218.901 231.428 217.1 233.229 217.1 235.451C217.1 237.672 218.901 239.473 221.122 239.473Z" fill="black"/>
<path d="M198.141 235.155C198.141 222.497 208.443 212.215 221.08 212.215C233.737 212.215 244.02 222.517 244.02 235.155C244.02 247.812 233.718 258.094 221.08 258.094C208.423 258.094 198.141 247.812 198.141 235.155ZM207.167 235.155C207.167 242.827 213.408 249.068 221.08 249.068C228.753 249.068 234.993 242.827 234.993 235.155C234.993 227.482 228.753 221.242 221.08 221.242C213.408 221.222 207.167 227.482 207.167 235.155Z" fill="black"/>
<path d="M206.047 235.352C206.047 227.032 212.895 220.262 221.314 220.262C229.732 220.262 236.581 227.032 236.581 235.352C236.581 243.672 229.732 250.442 221.314 250.442C212.915 250.462 206.047 243.672 206.047 235.352ZM206.263 235.352C206.263 243.574 213.033 250.246 221.333 250.246C229.634 250.246 236.404 243.555 236.404 235.352C236.404 227.13 229.634 220.458 221.333 220.458C213.013 220.458 206.263 227.15 206.263 235.352Z" fill="white"/>
<path d="M206.209 235.351C206.209 243.573 212.999 250.245 221.378 250.245C229.757 250.245 236.547 243.573 236.547 235.351C236.547 227.129 229.757 220.457 221.378 220.457C212.999 220.477 206.209 227.129 206.209 235.351ZM209.231 237.529H209.27C209.172 236.882 209.113 236.215 209.113 235.528C209.113 234.919 209.152 234.331 209.251 233.742H209.231C209.408 232.545 209.761 231.407 210.251 230.347C212.194 226.128 216.413 223.204 221.319 223.204C226.205 223.204 230.424 226.109 232.367 230.288C232.877 231.348 233.23 232.506 233.407 233.722H233.387C233.466 234.311 233.525 234.9 233.525 235.508C233.525 236.195 233.466 236.843 233.368 237.51H233.407C232.956 240.277 231.582 242.749 229.6 244.555C229.541 244.613 229.463 244.672 229.404 244.731C229.384 244.751 229.345 244.77 229.325 244.79C227.186 246.674 224.38 247.812 221.319 247.812C218.297 247.812 215.53 246.693 213.411 244.869C213.372 244.829 213.332 244.81 213.313 244.77C213.234 244.692 213.156 244.633 213.077 244.555C211.056 242.769 209.663 240.296 209.231 237.529Z" fill="#E3E8ED"/>
<path d="M213.039 244.598C213.119 244.678 213.199 244.737 213.279 244.817C213.199 244.737 213.119 244.658 213.039 244.598Z" fill="#7F7F7F"/>
<path d="M229.361 244.758C229.421 244.698 229.501 244.638 229.561 244.578C229.501 244.638 229.441 244.698 229.361 244.758Z" fill="#7F7F7F"/>
<path fill-rule="evenodd" clip-rule="evenodd" d="M221.97 229.453C221.97 229.919 221.592 230.297 221.126 230.297C220.66 230.297 220.282 229.919 220.282 229.453C220.282 228.987 220.66 228.609 221.126 228.609C221.592 228.609 221.97 228.987 221.97 229.453ZM221.97 241.444C221.97 241.91 221.592 242.288 221.126 242.288C220.66 242.288 220.282 241.91 220.282 241.444C220.282 240.978 220.66 240.6 221.126 240.6C221.592 240.6 221.97 240.978 221.97 241.444ZM227.127 236.286C227.593 236.286 227.971 235.909 227.971 235.443C227.971 234.977 227.593 234.599 227.127 234.599C226.661 234.599 226.284 234.977 226.284 235.443C226.284 235.909 226.661 236.286 227.127 236.286ZM214.293 235.443C214.293 235.914 214.666 236.286 215.137 236.286C215.608 236.286 215.981 235.914 215.981 235.443C215.981 234.972 215.608 234.599 215.137 234.599C214.666 234.599 214.293 234.972 214.293 235.443ZM224.768 240.262C224.435 239.929 224.435 239.399 224.768 239.085C225.102 238.751 225.632 238.751 225.946 239.085C226.279 239.418 226.279 239.948 225.946 240.262C225.632 240.596 225.102 240.596 224.768 240.262ZM216.295 230.61C215.961 230.923 215.961 231.453 216.295 231.787C216.629 232.121 217.158 232.121 217.472 231.787C217.806 231.473 217.806 230.943 217.472 230.61C217.158 230.276 216.629 230.276 216.295 230.61ZM216.298 239.085C216.631 238.751 217.161 238.751 217.475 239.085C217.809 239.418 217.809 239.948 217.475 240.262C217.142 240.596 216.612 240.596 216.298 240.262C215.984 239.948 215.984 239.418 216.298 239.085ZM225.948 230.61C225.635 230.276 225.105 230.276 224.771 230.61C224.457 230.943 224.457 231.473 224.771 231.787C225.085 232.121 225.615 232.121 225.948 231.787C226.282 231.473 226.282 230.943 225.948 230.61Z" fill="white"/>
<path d="M47.5391 235.16C47.5391 221.404 58.744 210.199 72.5 210.199C86.256 210.199 97.461 221.404 97.461 235.16C97.461 235.67 97.2451 236.652 97.2451 236.652L47.8923 237.103C47.9119 237.103 47.5391 235.847 47.5391 235.16ZM57.3704 235.16C57.3704 243.5 64.1601 250.29 72.5 250.29C80.84 250.29 87.6296 243.5 87.6296 235.16C87.6296 226.82 80.84 220.031 72.5 220.031C64.1601 220.011 57.3704 226.801 57.3704 235.16Z" fill="#4D4D4D"/>
<path d="M81.8049 244.722C86.924 239.603 86.924 231.303 81.8049 226.184C76.6858 221.065 68.3861 221.065 63.267 226.184C58.1479 231.303 58.1479 239.603 63.267 244.722C68.3861 249.841 76.6858 249.841 81.8049 244.722Z" fill="#94C9EA"/>
<path d="M72.5482 239.473C74.7699 239.473 76.571 237.672 76.571 235.451C76.571 233.229 74.7699 231.428 72.5482 231.428C70.3265 231.428 68.5254 233.229 68.5254 235.451C68.5254 237.672 70.3265 239.473 72.5482 239.473Z" fill="black"/>
<path d="M49.5684 235.157C49.5684 222.499 59.8706 212.217 72.5081 212.217C85.1652 212.217 95.4478 222.519 95.4478 235.157C95.4478 247.814 85.1456 258.096 72.5081 258.096C59.851 258.096 49.5684 247.814 49.5684 235.157ZM58.5951 235.157C58.5951 242.829 64.8354 249.069 72.5081 249.069C80.1808 249.069 86.4211 242.829 86.4211 235.157C86.4211 227.484 80.1808 221.244 72.5081 221.244C64.8354 221.224 58.5951 227.484 58.5951 235.157Z" fill="black"/>
<path d="M57.4727 235.352C57.4727 227.032 64.3212 220.262 72.7396 220.262C81.1581 220.262 88.0066 227.032 88.0066 235.352C88.0066 243.672 81.1581 250.442 72.7396 250.442C64.3408 250.462 57.4727 243.672 57.4727 235.352ZM57.6885 235.352C57.6885 243.574 64.4586 250.246 72.7592 250.246C81.0599 250.246 87.83 243.555 87.83 235.352C87.83 227.13 81.0599 220.458 72.7592 220.458C64.4389 220.458 57.6885 227.15 57.6885 235.352Z" fill="white"/>
<path d="M57.6309 235.351C57.6309 243.573 64.4206 250.245 72.7997 250.245C81.1789 250.245 87.9686 243.573 87.9686 235.351C87.9686 227.129 81.1789 220.457 72.7997 220.457C64.4206 220.477 57.6309 227.129 57.6309 235.351ZM60.6529 237.529H60.6921C60.594 236.882 60.5351 236.215 60.5351 235.528C60.5351 234.919 60.5744 234.331 60.6725 233.742H60.6529C60.8295 232.545 61.1827 231.407 61.6733 230.347C63.616 226.128 67.835 223.204 72.7409 223.204C77.6271 223.204 81.8461 226.109 83.7888 230.288C84.299 231.348 84.6523 232.506 84.8289 233.722H84.8092C84.8877 234.311 84.9466 234.9 84.9466 235.508C84.9466 236.195 84.8877 236.843 84.7896 237.51H84.8289C84.3775 240.277 83.0039 242.749 81.0219 244.555C80.9631 244.613 80.8846 244.672 80.8257 244.731C80.8061 244.751 80.7668 244.77 80.7472 244.79C78.6083 246.674 75.8021 247.812 72.7409 247.812C69.7189 247.812 66.952 246.693 64.8327 244.869C64.7934 244.829 64.7542 244.81 64.7345 244.77C64.656 244.692 64.5775 244.633 64.499 244.555C62.4778 242.769 61.0846 240.296 60.6529 237.529Z" fill="#E3E8ED"/>
<path d="M64.459 244.598C64.5389 244.678 64.6188 244.737 64.6987 244.817C64.6188 244.737 64.5389 244.658 64.459 244.598Z" fill="#7F7F7F"/>
<path d="M80.7852 244.758C80.8451 244.698 80.925 244.638 80.9849 244.578C80.925 244.638 80.8651 244.698 80.7852 244.758Z" fill="#7F7F7F"/>
<path fill-rule="evenodd" clip-rule="evenodd" d="M73.388 229.451C73.388 229.917 73.0102 230.295 72.5442 230.295C72.0782 230.295 71.7004 229.917 71.7004 229.451C71.7004 228.985 72.0782 228.607 72.5442 228.607C73.0102 228.607 73.388 228.985 73.388 229.451ZM73.388 241.442C73.388 241.908 73.0102 242.286 72.5442 242.286C72.0782 242.286 71.7004 241.908 71.7004 241.442C71.7004 240.976 72.0782 240.598 72.5442 240.598C73.0102 240.598 73.388 240.976 73.388 241.442ZM78.5454 236.285C79.0114 236.285 79.3892 235.907 79.3892 235.441C79.3892 234.975 79.0114 234.597 78.5454 234.597C78.0793 234.597 77.7016 234.975 77.7016 235.441C77.7016 235.907 78.0793 236.285 78.5454 236.285ZM65.7109 235.441C65.7109 235.912 66.0838 236.285 66.5547 236.285C67.0257 236.285 67.3985 235.912 67.3985 235.441C67.3985 234.97 67.0257 234.597 66.5547 234.597C66.0838 234.597 65.7109 234.97 65.7109 235.441ZM76.1863 240.26C75.8527 239.927 75.8527 239.397 76.1863 239.083C76.5199 238.749 77.0497 238.749 77.3637 239.083C77.6973 239.416 77.6973 239.946 77.3637 240.26C77.0497 240.594 76.5199 240.594 76.1863 240.26ZM67.713 230.608C67.3794 230.922 67.3794 231.451 67.713 231.785C68.0466 232.119 68.5764 232.119 68.8904 231.785C69.224 231.471 69.224 230.941 68.8904 230.608C68.5764 230.274 68.0466 230.274 67.713 230.608ZM67.7158 239.083C68.0494 238.749 68.5792 238.749 68.8932 239.083C69.2268 239.416 69.2268 239.946 68.8932 240.26C68.5596 240.594 68.0298 240.594 67.7158 240.26C67.4018 239.946 67.4018 239.416 67.7158 239.083ZM77.3665 230.608C77.0525 230.274 76.5227 230.274 76.1891 230.608C75.8751 230.941 75.8751 231.471 76.1891 231.785C76.503 232.119 77.0329 232.119 77.3665 231.785C77.7001 231.471 77.7001 230.941 77.3665 230.608Z" fill="white"/>
<mask id="mask0" mask-type="alpha" maskUnits="userSpaceOnUse" x="128" y="125" width="106" height="81">
<rect x="128.643" y="125.799" width="104.659" height="79.2372" rx="10" fill="#D1F0FE"/>
</mask>
<g mask="url(#mask0)">
<path d="M192.745 199.893L192.467 216.424C192.45 217.154 191.813 217.729 191.077 217.636L167.855 214.839C167.234 214.762 166.76 214.234 166.76 213.597V199.862C166.76 199.178 167.316 198.619 168.003 198.619H191.486C192.205 198.635 192.761 199.21 192.745 199.893Z" fill="#B7E250"/>
<path d="M221.872 221.417C221.954 221.339 222.02 221.23 222.02 221.106L222.674 201.436L225.797 201.763C226.271 201.809 226.68 201.467 226.729 201.001C226.778 200.535 226.435 200.116 225.977 200.054L205.536 197.863C205.307 197.832 205.094 197.754 204.914 197.63L203.492 196.667C203.59 196.34 203.639 196.014 203.639 195.657C203.639 195.128 203.508 194.631 203.295 194.196L207.465 190.654C207.498 190.623 207.515 190.592 207.547 190.576L215.266 191.571C215.282 191.571 215.299 191.571 215.315 191.571H227.138C227.367 191.571 227.563 191.384 227.563 191.136C227.563 190.902 227.367 190.701 227.138 190.701H215.331L208.185 189.784L218.177 176.298L225.127 181.922C225.634 182.342 226.386 182.249 226.795 181.736C227.204 181.223 227.122 180.462 226.615 180.058L219.583 174.371L226.468 165.065C226.713 164.723 226.648 164.241 226.304 163.993C225.961 163.744 225.486 163.806 225.225 164.148L222.821 167.395L201.889 150.554L206.909 143.888L236.083 167.38C236.41 167.644 236.901 167.597 237.163 167.256C237.424 166.929 237.375 166.432 237.048 166.168L207.858 142.677L212.42 136.633L234.333 153.708C234.661 153.972 235.151 153.91 235.413 153.568C235.674 153.226 235.609 152.744 235.282 152.48L212.764 134.924C212.6 134.799 212.404 134.737 212.191 134.768C211.995 134.799 211.799 134.908 211.685 135.064L196.182 155.603L189.232 152.418L210.164 123.737C210.981 122.588 213.663 119.558 216.394 119.232C217.555 119.092 218.618 119.449 219.616 120.335C220.106 120.77 220.859 120.723 221.3 120.21C221.725 119.713 221.676 118.952 221.186 118.517C219.665 117.181 217.964 116.621 216.116 116.839C211.799 117.352 208.381 122.137 208.25 122.323L189.314 148.254L179.714 141.154C179.404 140.874 175.642 137.658 171.652 134.427C163.1 127.497 161.775 127.28 161.284 127.202C159.142 126.845 152.748 127.062 150.393 127.155L150.688 109.863L155.332 110.36L154.792 124.141C154.776 124.607 155.136 124.996 155.594 125.011C156.052 125.027 156.444 124.669 156.46 124.203L157.033 109.63C157.049 109.195 156.722 108.806 156.28 108.76L149.952 108.092C149.919 108.092 149.886 108.092 149.87 108.092C149.674 108.092 149.478 108.169 149.314 108.309C149.134 108.465 149.036 108.682 149.036 108.915L148.709 128.01C148.709 128.243 148.791 128.46 148.954 128.631C149.118 128.787 149.347 128.88 149.576 128.864C149.657 128.864 158.586 128.46 161.023 128.849C161.35 128.895 162.985 129.548 170.606 135.716C173.893 138.373 177.016 141.03 178.177 142.024L175.724 147.446L163.607 162.641L153.958 155.401C153.893 155.354 153.844 155.292 153.795 155.246L151.358 152.325C151.653 151.936 151.849 151.439 151.849 150.895C151.849 150.74 151.832 150.585 151.8 150.445L156.182 148.239L163.509 154.003C163.737 154.189 164.081 154.143 164.261 153.91C164.441 153.677 164.408 153.335 164.163 153.148L157.229 147.71L161.595 145.504C161.726 145.691 161.89 145.862 162.086 146.001L166.158 148.984C166.632 149.326 167.237 149.466 167.809 149.342C168.382 149.217 168.889 148.86 169.183 148.347C169.739 147.415 169.494 146.219 168.611 145.566L162.773 141.263C162.756 141.247 162.74 141.247 162.74 141.232L163.737 134.939L171.685 141.729C171.93 141.946 172.306 141.915 172.519 141.667C172.732 141.418 172.699 141.03 172.454 140.828L163.132 132.857C162.773 132.547 162.315 132.36 161.824 132.345L151.146 131.879C151.113 131.879 151.08 131.879 151.047 131.879C150.491 131.879 149.968 132.096 149.559 132.484C149.134 132.904 148.889 133.448 148.889 134.054V148.612C148.529 148.705 148.202 148.876 147.924 149.124L146.125 147.757C146.043 147.695 145.929 147.648 145.815 147.648L133.893 147.275H133.877C133.582 147.275 133.354 147.508 133.337 147.804C133.321 148.099 133.566 148.347 133.86 148.363L145.618 148.736L147.286 150.01C147.172 150.29 147.106 150.585 147.106 150.895C147.106 151.517 147.352 152.076 147.728 152.496L147.074 153.475C146.877 153.77 146.747 154.112 146.714 154.453L146.698 154.624L135.12 154.22C135.12 154.22 135.12 154.22 135.103 154.22C134.94 154.22 134.809 154.345 134.809 154.516C134.809 154.686 134.94 154.826 135.103 154.826L146.649 155.23L146.109 160.792L133.926 160.388C133.926 160.388 133.926 160.388 133.91 160.388C133.746 160.388 133.615 160.513 133.615 160.684C133.615 160.854 133.746 160.994 133.91 160.994L146.043 161.398L145.553 166.059L132.176 165.609L133.37 152.309C133.386 152.138 133.272 151.999 133.108 151.983C133.092 151.983 133.092 151.983 133.076 151.983C132.928 151.983 132.798 152.107 132.781 152.263L131.555 165.857C131.555 165.935 131.571 166.028 131.62 166.075C131.669 166.137 131.751 166.168 131.833 166.168L145.487 166.634L145.259 168.84C145.226 169.167 145.455 169.462 145.782 169.493C146.109 169.524 146.403 169.291 146.436 168.965L147.957 154.578C147.973 154.422 148.022 154.267 148.12 154.143L148.791 153.148C149.02 153.226 149.249 153.257 149.494 153.257C149.854 153.257 150.197 153.164 150.508 153.024L152.961 155.96C152.977 155.976 152.994 156.007 153.026 156.023L152.339 161.46C152.339 161.476 152.339 161.491 152.339 161.491V169.819C152.339 169.99 152.47 170.114 152.634 170.114C152.797 170.114 152.928 169.975 152.928 169.819V161.507L153.566 156.473L162.92 163.496L159.028 168.374C158.733 168.732 158.799 169.26 159.159 169.555C159.518 169.85 160.042 169.788 160.336 169.431L164.277 164.49L170.737 169.338C170.965 169.508 171.309 169.462 171.489 169.229C171.669 168.996 171.62 168.654 171.374 168.467L169.118 166.774L180.81 152.014L184.31 154.686C182.462 156.893 179.682 160.264 176.885 163.775C167.041 176.112 166.746 177.991 166.632 178.706C166.125 181.798 166.436 190.996 166.567 194.398L142.004 193.963L142.707 187.282L162.298 188.059C162.953 188.09 163.509 187.578 163.541 186.91C163.574 186.241 163.051 185.698 162.397 185.667L141.677 184.843C141.056 184.812 140.516 185.294 140.451 185.915L139.502 195.02C139.502 195.066 139.502 195.097 139.502 195.144C139.502 195.439 139.6 195.719 139.797 195.936C140.026 196.185 140.336 196.34 140.663 196.34L167.793 196.822C168.12 196.822 168.431 196.698 168.66 196.465C168.889 196.232 169.019 195.905 169.003 195.579C169.003 195.455 168.414 182.606 168.987 179.095C169.069 178.628 169.984 176.267 178.75 165.282C182.527 160.544 186.305 156.038 187.711 154.376L195.413 157.903L216.983 175.35L206.697 189.24C206.631 189.333 206.55 189.411 206.468 189.489L202.331 193.015C201.775 192.58 201.071 192.316 200.303 192.316C200.09 192.316 199.878 192.332 199.665 192.378L196.542 186.071L204.718 175.506C204.98 175.164 204.914 174.682 204.587 174.418C204.26 174.154 203.77 174.216 203.508 174.558L195.773 184.532L192.65 178.225C192.928 178.038 193.157 177.805 193.369 177.525L197.605 171.653C198.095 170.969 198.291 170.099 198.112 169.26C197.948 168.436 197.425 167.706 196.705 167.271C195.381 166.479 193.68 166.821 192.764 168.079L186.648 176.484C186.632 176.5 186.615 176.515 186.615 176.531L177.67 175.102L187.319 163.651C187.629 163.294 187.58 162.75 187.22 162.439C186.861 162.128 186.321 162.175 186.027 162.532L174.678 175.987C174.236 176.515 173.974 177.184 173.942 177.867L173.288 193.249C173.288 193.295 173.288 193.342 173.288 193.388C173.288 194.196 173.582 194.942 174.138 195.532C174.727 196.154 175.512 196.496 176.362 196.496H197.049C197.179 197.024 197.425 197.49 197.768 197.878L195.838 200.458C195.74 200.582 195.691 200.737 195.691 200.893L195.168 218.076C195.168 218.092 195.168 218.092 195.168 218.107C195.168 218.527 195.495 218.869 195.904 218.884C196.329 218.9 196.672 218.558 196.689 218.138L197.212 201.203L199.027 198.795C199.42 198.951 199.845 199.044 200.303 199.044C201.186 199.044 201.971 198.702 202.576 198.143L203.95 199.09C204.358 199.37 204.849 199.556 205.356 199.603L205.601 199.634L205.029 216.321V216.336C205.029 216.569 205.209 216.756 205.438 216.771C205.667 216.787 205.863 216.6 205.879 216.352L206.452 199.727L214.366 200.582L213.778 218.092V218.107C213.778 218.34 213.958 218.527 214.187 218.542C214.415 218.542 214.612 218.371 214.628 218.123L215.2 200.644L221.823 201.359L221.186 220.64L202.298 218.915C202.069 218.9 201.856 219.071 201.84 219.304C201.84 219.319 201.84 219.335 201.84 219.35C201.84 219.568 202.004 219.754 202.232 219.77L221.562 221.525C221.676 221.525 221.791 221.494 221.872 221.417ZM168.006 146.452C168.431 146.763 168.545 147.353 168.284 147.804C168.136 148.052 167.891 148.223 167.613 148.285C167.548 148.301 167.466 148.301 167.401 148.301C167.188 148.301 166.975 148.239 166.795 148.099L162.724 145.116C162.413 144.883 162.249 144.51 162.315 144.121L162.576 142.428L168.006 146.452ZM161.808 133.541C162.02 133.556 162.233 133.634 162.397 133.774L162.805 134.131L161.252 143.966C161.219 144.137 161.219 144.308 161.235 144.479L156.787 146.716L157.082 133.323L161.808 133.541ZM150.115 148.627V134.054C150.115 133.79 150.213 133.541 150.41 133.354C150.606 133.168 150.851 133.075 151.113 133.09L156.002 133.308L155.692 147.291L151.342 149.466C151.047 149.062 150.622 148.767 150.115 148.627ZM148.186 150.958C148.186 150.212 148.774 149.621 149.51 149.621C150.246 149.621 150.835 150.227 150.835 150.958C150.835 151.703 150.246 152.294 149.51 152.294C148.774 152.294 148.186 151.703 148.186 150.958ZM168.267 166.137L164.948 163.651L176.722 148.891L179.96 151.377L168.267 166.137ZM177.31 147.99L179.518 143.096L188.316 149.606L186.452 152.169C186.337 152.309 185.814 152.931 185.013 153.879L177.31 147.99ZM197.441 156.458L200.973 151.781L221.954 168.638L218.406 173.424L197.441 156.458ZM193.974 169.011C194.416 168.39 195.25 168.219 195.904 168.607C196.264 168.825 196.509 169.167 196.591 169.571C196.607 169.679 196.623 169.773 196.623 169.881C196.623 170.192 196.525 170.487 196.345 170.736L192.11 176.609C191.783 177.059 191.243 177.292 190.687 177.199L188.267 176.811L193.974 169.011ZM175.348 184.75L175.642 177.929C175.659 177.619 175.773 177.323 175.97 177.09L176.476 176.484L190.458 178.722C190.704 178.768 190.949 178.768 191.194 178.753L194.383 185.169L175.348 184.75ZM176.378 194.771C176.002 194.771 175.642 194.616 175.381 194.336C175.119 194.056 174.988 193.699 175.005 193.311L175.299 186.273L195.152 186.708L198.259 192.984C197.686 193.419 197.278 194.041 197.081 194.756H176.378V194.771ZM198.488 195.641C198.488 194.585 199.338 193.73 200.385 193.73C201.431 193.73 202.282 194.585 202.282 195.641C202.282 196.698 201.431 197.552 200.385 197.552C199.338 197.568 198.488 196.713 198.488 195.641Z" fill="white"/>
<path d="M195.564 136.335C193.945 138.495 190.462 143.218 189.268 144.818C189.039 145.129 188.614 145.191 188.303 144.958L176.709 136.475C176.169 136.087 176.447 135.217 177.117 135.217H195.008C195.58 135.232 195.907 135.885 195.564 136.335Z" fill="#67CDFD"/>
</g>
<path fill-rule="evenodd" clip-rule="evenodd" d="M181.457 170.979C184.266 170.142 186.315 167.539 186.315 164.457C186.315 160.699 183.268 157.652 179.51 157.652C175.752 157.652 172.705 160.699 172.705 164.457C172.705 167.541 174.756 170.145 177.568 170.981C178.276 172.252 179.021 173.205 179.508 173.205C180.003 173.205 180.75 172.251 181.457 170.979Z" fill="#6FCF97"/>
<circle cx="179.508" cy="164.455" r="2.91633" fill="white"/>
<path d="M274.842 182.407C277.564 177.58 279.563 171.831 280.896 166.101C281.951 161.79 280.137 160.573 277.286 160.702C275.786 161.476 274.694 162.545 274.139 164.59C272.547 170.468 272.14 173.692 271.399 179.219L274.842 182.407Z" fill="#FFA173"/>
<path d="M271.841 178.809L258.772 178.754V180.32C262.4 181.72 270.064 184.318 274.84 182.402L271.841 178.809Z" fill="#FFA173"/>
<path d="M254.089 179.439L255.385 179.107L255.089 178.536L253.59 178.665L253.404 178.278L255.626 177.578L258.773 178.757L258.939 179.494L258.773 180.323L257.199 181.005L254.885 181.337L253.775 180.213L252.331 179.808L252.46 179.513L254.089 179.439Z" fill="#FFA173"/>
<path d="M291.355 143.497C291.258 143.116 291.146 142.735 290.959 142.444C290.638 141.951 290.145 141.772 289.682 141.63C288.39 141.234 287.091 140.928 285.784 140.711C284.761 140.54 283.716 140.42 282.723 140.786C281.73 141.145 280.782 142.07 280.423 143.429C280.222 144.206 280.222 145.057 280.222 145.878C280.222 147.267 280.229 148.656 280.229 150.037C280.229 150.508 280.237 151.001 280.386 151.419C280.602 152.024 281.065 152.352 281.498 152.613C282.469 153.203 283.477 153.666 284.508 154.01C285.941 154.488 287.457 154.727 288.891 154.204C289.458 153.995 290.503 153.928 290.996 153.517C291.571 153.039 291.661 151.68 291.773 150.814C292.079 148.387 291.944 145.826 291.355 143.497Z" fill="black"/>
<path d="M281.238 145.411C281.268 145.254 281.306 145.082 281.425 144.978C281.604 144.821 281.88 144.873 282.104 144.94C282.336 145.015 282.56 145.097 282.776 145.194C282.888 145.247 283.008 145.306 283.09 145.403C283.195 145.538 283.658 145.919 283.665 146.09C283.71 147.703 283.852 149.316 284.083 150.906C284.15 151.362 284.225 151.817 284.374 152.258C284.546 152.758 285.509 154.251 284.516 154.199C283.672 154.154 282.986 152.616 282.679 151.996C281.679 150.048 280.85 147.576 281.238 145.411Z" fill="#421A00"/>
<path d="M283.099 159.609C283.099 160.161 290.125 161.065 290.125 161.065L290.252 149.895C290.252 149.895 289.438 150.245 289.334 150.171C289.199 150.074 289.005 150.104 288.841 150.133C286.862 150.514 284.025 150.044 283.36 151.657C283.271 151.858 283.106 158.011 283.099 159.609Z" fill="url(#paint2_linear)"/>
<path fill-rule="evenodd" clip-rule="evenodd" d="M277.057 188.459C276.706 188.914 276.37 189.452 276.019 190.102C274.749 192.469 274.533 196.747 274.458 199.487L274.279 209.448C274.327 211.933 274.781 215.139 275.236 218.346C275.704 221.644 276.171 224.944 276.198 227.465C276.23 230.552 276.53 233.501 276.825 236.394C277.005 238.161 277.182 239.908 277.296 241.652C277.481 244.509 277.599 246.803 277.696 248.679C277.844 251.555 277.942 253.448 278.154 254.876C278.229 255.368 278.326 255.682 278.438 255.898C279.11 255.947 279.717 255.99 280.323 256.033C280.93 256.076 281.537 256.119 282.209 256.167C282.612 255.928 282.94 255.794 282.94 255.794C282.94 255.794 284.06 249.178 284.568 246.543C284.71 245.841 284.814 245.169 284.897 244.527C285.404 240.644 286.151 232.923 285.613 228.384C285.221 225.053 285.449 221.758 285.841 219.005C286.855 222.235 287.499 224.583 287.96 228.001C288.335 230.815 289.102 233.568 289.851 236.256C290.414 238.275 290.967 240.258 291.335 242.202C291.874 245.044 292.274 247.325 292.601 249.186C293.093 251.99 293.418 253.842 293.799 255.224C293.835 255.35 293.871 255.74 293.907 256.13C293.945 256.553 293.984 256.976 294.023 257.061C295.315 257.016 296.711 257.024 297.995 257.21C298.354 256.934 298.66 256.762 298.66 256.762C298.66 256.762 298.959 248.848 299.145 246.175C299.19 245.458 299.213 244.778 299.22 244.129C299.25 240.209 299.041 232.458 297.958 228.016C296.403 221.642 297.163 215.12 297.454 212.619C297.502 212.202 297.538 211.897 297.547 211.723C298.033 202.748 296.114 192.489 291.813 188.77L284.272 189.481C284.087 189.184 283.892 188.908 283.687 188.653C282.582 188.62 281.477 188.588 280.372 188.556C279.267 188.524 278.162 188.493 277.057 188.459Z" fill="#4D5769"/>
<path d="M281.44 153.883C280.514 152.681 280.104 151.143 280.044 149.627C279.984 148.112 279.827 146.342 280.133 144.856C280.35 143.811 282.239 141.623 285.211 141.892C289.937 142.317 289.064 144.475 289.407 145.961C289.639 146.977 289.437 148.268 289.273 149.299C289.176 149.926 289.079 150.553 288.87 151.158C288.272 152.89 286.779 154.324 285.211 155.212C283.68 156.064 282.463 155.212 281.44 153.883Z" fill="#FFAC73"/>
<path d="M289.322 151.146C288.654 151.146 288.112 150.547 288.112 149.809C288.112 149.071 288.654 148.473 289.322 148.473C289.99 148.473 290.531 149.071 290.531 149.809C290.531 150.547 289.99 151.146 289.322 151.146Z" fill="#FFA173"/>
<g opacity="0.06">
<path opacity="0.06" d="M287.329 264.596C272.406 264.596 260.307 262.825 260.307 260.639C260.307 258.453 272.406 256.682 287.329 256.682C302.253 256.682 314.352 258.453 314.352 260.639C314.352 262.825 302.253 264.596 287.329 264.596Z" fill="black"/>
</g>
<path d="M276.578 190.654H289.361V160.66H282.761L277.639 173.518L276.578 190.654Z" fill="#282A42"/>
<path d="M281.557 158.171C282.064 158 282.565 157.828 283.072 157.656C283.177 159.881 282.184 161.987 281.415 164.085C279.66 168.871 279.018 173.979 278.383 179.033C278.279 179.87 278.174 180.706 278.07 181.542C276.323 173.747 279.772 165.959 281.557 158.171Z" fill="white"/>
<path d="M278.101 254.352C277.496 254.829 276.637 255.427 275.98 255.89C274.591 256.868 273.904 257.099 272.523 257.622C272.038 257.809 271.702 258.488 271.709 259.25C271.709 259.481 271.717 259.698 271.709 259.855C275.808 259.72 282.663 260.116 282.835 259.974C283.298 259.601 283.171 257.712 282.879 255.651C282.379 255.74 281.737 255.778 281.005 255.628C279.766 255.375 278.063 254.396 278.101 254.352Z" fill="black"/>
<path d="M298.747 260.33C298.777 260.823 299.016 261.943 298.896 262.429C298.837 262.66 298.747 262.884 298.575 263.071C298.322 263.347 297.933 263.496 297.552 263.608C295.97 264.064 294.476 264.452 292.707 264.221C292.191 264.153 291.721 263.892 291.348 263.578C290.974 263.257 290.743 262.779 290.84 262.317C290.892 262.055 291.049 261.809 291.198 261.577C292.184 260.032 293.072 258.426 293.856 256.791C293.968 256.552 293.961 256.298 294.245 256.268C294.372 256.254 294.663 256.291 294.775 256.328C295.514 256.575 296.335 256.642 297.127 256.545C298.09 256.418 298.702 255.888 298.687 256.702C298.665 258.434 298.68 259.069 298.747 260.33Z" fill="black"/>
<path d="M276.327 170.793C275.797 170.845 275.028 170.86 274.139 170.658C272.907 170.375 272.026 169.8 271.541 169.426C272.138 168.075 272.728 166.709 273.318 165.32C273.923 163.894 274.505 162.363 275.08 160.959C276.932 160.339 277.79 159.936 279.336 159.57C278.194 163.169 277.462 167.186 276.327 170.793Z" fill="#67CDFD"/>
<path d="M294.975 185.58C295.139 183.213 295.879 176.739 294.438 172.327C296.894 170.923 298.41 169.848 300.777 168.414C301.576 171.714 300.859 183.788 300.896 185.483C300.904 185.782 300.68 186.185 300.314 186.64C298.343 186.536 296.349 186.715 294.385 186.984C294.714 186.573 294.938 186.118 294.975 185.58Z" fill="#FFA173"/>
<path fill-rule="evenodd" clip-rule="evenodd" d="M276.324 160.52C275.943 162.984 275.525 166.195 275.227 169.966C274.808 175.237 274.808 179.247 274.816 181.883C274.823 184.959 274.92 188.752 275.227 193.105C278.288 193.994 282.947 194.882 288.502 194.203C290.854 193.919 292.923 193.404 294.662 192.836C294.879 188.588 295.028 184.205 295.073 179.695C295.088 178.336 295.088 176.992 295.088 175.656V175.655C295.074 175.612 295.061 175.568 295.048 175.524C295.062 175.564 295.076 175.603 295.091 175.643C295.091 174.702 295.083 173.761 295.076 172.835C296.472 172.798 298.219 172.604 300.138 172.014C300.945 171.768 301.677 171.484 302.326 171.193C302.207 169.035 301.848 166.459 300.96 163.666C300.669 162.74 300.34 161.874 300.004 161.068C299.97 161.053 299.937 161.04 299.903 161.027C299.87 161.014 299.836 161.001 299.802 160.986C299.801 160.987 299.799 160.988 299.797 160.99C297.819 160.191 295.655 159.422 293.296 158.743C292.213 158.437 291.168 158.161 290.145 157.922C289.824 158.303 289.294 158.848 288.502 159.288C288.062 159.535 285.882 160.752 284.261 159.699C284.007 159.535 283.365 159.057 283.029 157.922C281.913 158.355 280.795 158.788 279.676 159.221C278.558 159.654 277.44 160.087 276.324 160.52Z" fill="#67CDFD"/>
<path d="M278.995 147.547C278.808 147.547 278.517 147.517 278.189 147.375C277.957 147.278 277.711 147.166 277.554 146.912C277.3 146.509 277.464 146.023 277.494 145.934C277.614 145.68 277.77 145.404 277.957 145.127C278.532 144.269 279.212 143.701 279.742 143.343C279.846 142.85 280.093 142.044 280.72 141.267C281.705 140.058 282.997 139.707 283.833 139.483C284.438 139.318 286.297 138.84 288.388 139.654C288.978 139.886 290.135 140.334 290.979 141.499C291.636 142.402 291.853 143.388 291.957 143.858C292.017 144.112 292.114 144.627 292.129 145.299C292.151 146.322 291.972 147.173 291.785 147.778C290.053 147.801 288.328 147.815 286.596 147.838C286.006 146.845 284.924 144.784 283.139 144.493C282.25 144.351 281.511 144.717 281.183 144.896C280.384 145.322 279.943 145.941 279.63 146.397C279.316 146.837 279.114 147.248 278.995 147.547Z" fill="#67CDFD"/>
<path d="M297.707 174.183L294.676 188.698L305.868 188.668L313.186 173.906L297.707 174.183Z" fill="#E5E5E5"/>
<path d="M295.887 175.011L293.513 189.676H307.177L315.002 174.615L295.887 175.011Z" fill="#666666"/>
<path d="M309.287 186.334C309.115 186.79 308.936 187.26 308.593 187.611C308.145 188.081 307.443 188.275 306.801 188.171C306.158 188.066 305.584 187.671 305.195 187.148C304.523 186.244 304.426 184.953 304.964 183.967C305.068 183.773 305.203 183.579 305.404 183.489C305.628 183.385 305.89 183.422 306.129 183.467C307.062 183.639 308.167 183.9 308.981 184.408C309.884 184.968 309.66 185.348 309.287 186.334Z" fill="#FFA173"/>
<path d="M307.967 174.777L303.046 174.889L304.577 173.783L307.22 173.746L307.967 174.777Z" fill="#7499AB"/>
<path d="M306.053 174.361C306.053 174.473 305.956 174.57 305.844 174.57C305.732 174.57 305.635 174.473 305.635 174.361C305.635 174.249 305.732 174.152 305.844 174.152C305.956 174.152 306.053 174.249 306.053 174.361Z" fill="white"/>
<defs>
<linearGradient id="paint0_linear" x1="30.6191" y1="169.897" x2="89.2246" y2="169.897" gradientUnits="userSpaceOnUse">
<stop stop-color="white"/>
<stop offset="1" stop-color="#333333"/>
</linearGradient>
<linearGradient id="paint1_linear" x1="30.6191" y1="169.897" x2="89.2246" y2="169.897" gradientUnits="userSpaceOnUse">
<stop stop-color="white"/>
<stop offset="1" stop-color="white"/>
</linearGradient>
<linearGradient id="paint2_linear" x1="286.674" y1="161.066" x2="286.674" y2="149.898" gradientUnits="userSpaceOnUse">
<stop stop-color="#FFA173"/>
<stop offset="0.1854" stop-color="#FD9F71"/>
<stop offset="0.2694" stop-color="#F69A6A"/>
<stop offset="0.3328" stop-color="#E9915E"/>
<stop offset="0.3465" stop-color="#E58E5A"/>
</linearGradient>
</defs>
</svg>
