<?xml version="1.0" encoding="utf-8"?>
<!-- Generator: Adobe Illustrator 17.0.0, SVG Export Plug-In . SVG Version: 6.00 Build 0)  -->
<!DOCTYPE svg PUBLIC "-//W3C//DTD SVG 1.1//EN" "http://www.w3.org/Graphics/SVG/1.1/DTD/svg11.dtd">
<svg version="1.1" id="Layer_1" xmlns="http://www.w3.org/2000/svg" xmlns:xlink="http://www.w3.org/1999/xlink" x="0px" y="0px"
	 width="50px" height="50px" viewBox="0 0 50 50" enable-background="new 0 0 50 50" xml:space="preserve">
<g>
	<g>
		<path fill="#D0D0CF" d="M25,49.833c-13.739,0-24.917-11.178-24.917-24.917S11.261,0,25,0s24.917,11.178,24.917,24.917
			S38.739,49.833,25,49.833z M25,1.454c-12.937,0-23.462,10.525-23.462,23.462S12.063,48.379,25,48.379s23.462-10.525,23.462-23.462
			S37.937,1.454,25,1.454z"/>
	</g>
	<g>
		<g>
			<polygon fill="#00ADEE" points="33.876,15.066 23.956,24.986 33.737,34.767 34.53,33.973 25.543,24.986 34.67,15.86 			"/>
			<path fill="#00ADEE" d="M33.736,35.301L23.422,24.987l10.454-10.454l1.327,1.327l-9.127,9.127l8.987,8.987L33.736,35.301z
				 M24.49,24.987l9.246,9.246l0.26-0.26l-8.987-8.987l9.127-9.127l-0.26-0.26L24.49,24.987z"/>
		</g>
		<g>
			<polygon fill="#00ADEE" points="26.044,15.86 25.25,15.066 15.33,24.986 25.111,34.767 25.905,33.973 16.918,24.986 			"/>
			<path fill="#00ADEE" d="M25.111,35.301L14.797,24.987l10.454-10.454l1.327,1.327l-9.127,9.127l8.987,8.987L25.111,35.301z
				 M15.864,24.987l9.246,9.246l0.26-0.26l-8.987-8.987l9.127-9.127l-0.26-0.26L15.864,24.987z"/>
		</g>
	</g>
</g>
</svg>
