<?xml version="1.0" encoding="utf-8"?>
<!-- Generator: Adobe Illustrator 17.0.0, SVG Export Plug-In . SVG Version: 6.00 Build 0)  -->
<!DOCTYPE svg PUBLIC "-//W3C//DTD SVG 1.1//EN" "http://www.w3.org/Graphics/SVG/1.1/DTD/svg11.dtd">
<svg version="1.1" id="Layer_1" xmlns="http://www.w3.org/2000/svg" xmlns:xlink="http://www.w3.org/1999/xlink" x="0px" y="0px"
	 width="33px" height="33.054px" viewBox="0 0 33 33.054" enable-background="new 0 0 33 33.054" xml:space="preserve">
<g>
	<g>
		<path fill="#D0D0CF" d="M16.5,33C7.402,33,0,25.598,0,16.5S7.402,0,16.5,0S33,7.402,33,16.5S25.598,33,16.5,33z M16.5,0.963
			c-8.567,0-15.537,6.97-15.537,15.537S7.933,32.037,16.5,32.037s15.537-6.97,15.537-15.537S25.067,0.963,16.5,0.963z"/>
	</g>
	<g>
		<path fill="#EC1C24" d="M22.406,12.255h-2.923v-1.383h-0.001c-0.024-0.601-0.587-1.085-1.289-1.112V9.759h-3.302V9.76
			c-0.718,0.012-1.299,0.502-1.323,1.112h-0.001v1.383h-2.972c-0.218,0-0.395,0.177-0.395,0.395v0.931
			c0,0.218,0.177,0.395,0.395,0.395h11.812c0.218,0,0.395-0.177,0.395-0.395V12.65C22.801,12.432,22.624,12.255,22.406,12.255z
			 M17.797,12.255h-2.548v-0.806h2.548V12.255z"/>
		<path fill="#EC1C24" d="M19.421,21.187c0,0.218-0.177,0.395-0.395,0.395h-0.009c-0.218,0-0.395-0.177-0.395-0.395v-6.365h-1.723
			v6.365c0,0.218-0.177,0.395-0.395,0.395h-0.009c-0.218,0-0.395-0.177-0.395-0.395v-6.365h-1.723v6.365
			c0,0.218-0.177,0.395-0.395,0.395h-0.009c-0.218,0-0.395-0.177-0.395-0.395v-6.365h-1.707v7.714c0,0.37,0.286,0.674,0.649,0.702
			v0.002h7.977V23.24c0.37-0.022,0.663-0.328,0.663-0.703v-7.714h-1.738V21.187z"/>
	</g>
</g>
</svg>
