<?xml version="1.0" encoding="utf-8"?>
<!-- Generator: Adobe Illustrator 17.0.0, SVG Export Plug-In . SVG Version: 6.00 Build 0)  -->
<!DOCTYPE svg PUBLIC "-//W3C//DTD SVG 1.1//EN" "http://www.w3.org/Graphics/SVG/1.1/DTD/svg11.dtd">
<svg version="1.1" id="Layer_1" xmlns="http://www.w3.org/2000/svg" xmlns:xlink="http://www.w3.org/1999/xlink" x="0px" y="0px"
	 width="33px" height="33.054px" viewBox="0 0 33 33.054" enable-background="new 0 0 33 33.054" xml:space="preserve">
<g>
	<g>
		<path fill="#D0D0CF" d="M16.5,33.027c-9.098,0-16.5-7.402-16.5-16.5s7.402-16.5,16.5-16.5S33,7.429,33,16.527
			S25.598,33.027,16.5,33.027z M16.5,0.99c-8.567,0-15.537,6.97-15.537,15.537S7.933,32.064,16.5,32.064s15.537-6.97,15.537-15.537
			S25.067,0.99,16.5,0.99z"/>
	</g>
	<g>
		<path fill="#EC1C24" d="M23.552,10.257c-0.167-0.188-0.455-0.205-0.642-0.038L16.5,15.918l-6.409-5.699
			c-0.188-0.167-0.476-0.15-0.642,0.038c-0.167,0.188-0.15,0.476,0.038,0.642l6.329,5.628l-6.329,5.628
			c-0.188,0.167-0.205,0.455-0.038,0.642c0.167,0.188,0.455,0.205,0.642,0.038l6.409-5.699l6.409,5.699
			c0.188,0.167,0.476,0.15,0.642-0.038c0.167-0.188,0.15-0.476-0.038-0.642l-6.329-5.628l6.329-5.628
			C23.701,10.733,23.719,10.445,23.552,10.257z"/>
	</g>
</g>
</svg>
