<?xml version="1.0" encoding="utf-8"?>
<!-- Generator: Adobe Illustrator 17.0.0, SVG Export Plug-In . SVG Version: 6.00 Build 0)  -->
<!DOCTYPE svg PUBLIC "-//W3C//DTD SVG 1.1//EN" "http://www.w3.org/Graphics/SVG/1.1/DTD/svg11.dtd">
<svg version="1.1" id="Layer_1" xmlns="http://www.w3.org/2000/svg" xmlns:xlink="http://www.w3.org/1999/xlink" x="0px" y="0px"
	 width="48px" height="48px" viewBox="0 0 48 48" enable-background="new 0 0 48 48" xml:space="preserve">
<g>
	<path fill="#EC1C24" d="M40.921,7.029C36.401,2.496,30.392,0,24,0S11.599,2.496,7.079,7.029C2.56,11.562,0.07,17.589,0.07,24
		S2.56,36.438,7.079,40.971C11.599,45.504,17.608,48,24,48s12.401-2.496,16.921-7.029C45.44,36.438,47.93,30.411,47.93,24
		S45.44,11.562,40.921,7.029z M40.024,40.071c-4.28,4.293-9.971,6.657-16.024,6.657s-11.744-2.364-16.024-6.657
		c-4.28-4.293-6.637-10-6.637-16.071c0-6.071,2.357-11.779,6.637-16.071C12.256,3.636,17.947,1.272,24,1.272
		s11.744,2.364,16.024,6.657c4.28,4.293,6.637,10,6.637,16.071C46.662,30.071,44.305,35.779,40.024,40.071z"/>
	<path fill="#EC1C24" d="M36.96,12.443c-0.307-0.346-0.835-0.378-1.181-0.07L24,22.877L12.221,12.372
		c-0.345-0.308-0.874-0.276-1.181,0.07c-0.307,0.346-0.275,0.877,0.07,1.184L22.741,24L11.11,34.373
		c-0.345,0.308-0.377,0.838-0.07,1.184c0.307,0.346,0.835,0.378,1.181,0.07L24,25.123l11.779,10.505
		c0.345,0.308,0.874,0.276,1.181-0.07c0.307-0.346,0.275-0.877-0.07-1.184L25.259,24L36.89,13.627
		C37.236,13.319,37.267,12.789,36.96,12.443z"/>
</g>
</svg>
