<?xml version="1.0" encoding="utf-8"?>
<!-- Generator: Adobe Illustrator 17.0.0, SVG Export Plug-In . SVG Version: 6.00 Build 0)  -->
<!DOCTYPE svg PUBLIC "-//W3C//DTD SVG 1.1//EN" "http://www.w3.org/Graphics/SVG/1.1/DTD/svg11.dtd">
<svg version="1.1" id="Layer_1" xmlns="http://www.w3.org/2000/svg" xmlns:xlink="http://www.w3.org/1999/xlink" x="0px" y="0px"
	 width="168.283px" height="16.072px" viewBox="0 0 168.283 16.072" enable-background="new 0 0 168.283 16.072"
	 xml:space="preserve">
<g>
	<g>
		<path fill="#19335D" d="M95.243,16.081v-1.315l0.445,1.315h0.183l0.45-1.292v1.292h0.198v-1.544h-0.276l-0.372,1.074
			c-0.034,0.111-0.065,0.193-0.079,0.249c-0.018-0.053-0.04-0.127-0.074-0.232l-0.366-1.091h-0.305v1.544H95.243z M94.329,16.081
			v-1.362h0.514v-0.182h-1.226v0.182h0.509v1.362H94.329z M64.51,0.007v2.776h5.415v13.293h2.779V2.784h5.416V0.007H64.51z
			 M93.736,0.007v1.498c0,2.896-2.354,5.258-5.254,5.258V6.756c-2.9,0-5.252-2.359-5.252-5.258V0.007h-2.786v1.498
			c0.007,3.952,2.88,7.249,6.649,7.908v6.663h2.781V9.419c3.769-0.659,6.646-3.956,6.646-7.913V0.007H93.736z M61.902,0.007h-2.773
			v16.069h2.773V0.007z M40.336,0.007h-2.778v16.069h2.778V0.007z M50.908,0.007c-4.431,0.002-8.029,3.609-8.029,8.036h-0.007
			c0,4.43,3.604,8.033,8.037,8.033h5.408v-2.779h-5.408c-2.898,0-5.259-2.355-5.259-5.254h0.007c0-2.901,2.356-5.26,5.258-5.26
			h5.402V0.007H50.908z M21.455,16.076V7.757c0-2.895,2.355-5.256,5.255-5.256v0.007c2.898,0,5.258,2.358,5.258,5.258v8.31h2.778
			V7.757C34.744,3.328,31.14-0.27,26.71-0.27v-0.01c-4.43,0-8.034,3.608-8.034,8.037v8.319H21.455z M16.071,0.007v8.32
			c0,4.431-3.604,8.034-8.035,8.034v-0.003c-4.43,0-8.034-3.602-8.036-8.031v-8.32h2.78V8.32c0,2.901,2.36,5.257,5.256,5.257v0.006
			c2.899,0,5.257-2.357,5.257-5.255v-8.32H16.071z"/>
	</g>
	<g>
		<path fill="#C6C5C5" d="M120.859,16.024V-0.02h5.372c5.165,0,6.983,3.608,6.983,8.017c0,4.395-1.839,8.027-6.983,8.027H120.859z
			 M126.23,14.94c4.277,0,5.867-2.809,5.867-6.943c0-4.168-1.57-6.933-5.867-6.933h-4.256V14.94H126.23z"/>
		<path fill="#C6C5C5" d="M150.204,16.034h-1.116V1.625l-5.743,14.446h-1.425l-5.723-14.486v14.448h-1.116V-0.02h1.653l5.888,14.928
			l5.95-14.928h1.632V16.034z"/>
		<path fill="#C6C5C5" d="M153.707,16.034h-1.116V-0.02h1.116V16.034z"/>
		<path fill="#C6C5C5" d="M168.283,16.034h-1.136l-9.938-14.147v14.147h-1.116V-0.02h1.157l9.917,14.127V-0.02h1.116V16.034z"/>
	</g>
	<path fill="#C6C5C5" d="M105.499,16.072l2.013-4.954h8.161l1.991,4.954h1.192L112.346,0h-1.467l-6.574,16.072H105.499z
		 M111.623,1.164l3.595,8.869h-7.252L111.623,1.164z"/>
</g>
</svg>
