<svg width="189" height="151" viewBox="0 0 189 151" fill="none" xmlns="http://www.w3.org/2000/svg">
<path d="M113.161 7.34393L100.946 0.095367H124.804L113.161 7.34393ZM119.364 29.4711L105.431 66.5723L135.778 29.4711H119.364ZM133.393 24.2254L116.024 13.2572L119.746 24.2254H133.393ZM94.3616 23.8439L110.203 9.72832L94.3616 0.28613L78.5202 9.72832L94.3616 23.8439ZM69.0726 24.2254L72.7944 13.2572L55.4261 24.2254H69.0726ZM76.2299 12.2081L72.1264 24.3208H89.7809L76.2299 12.2081ZM99.0377 24.2254H116.692L112.589 12.1127L99.0377 24.2254ZM155.341 24.2254L140.263 9.53757L140.836 24.2254H155.341ZM137.973 23.0809L137.305 6.6763L130.816 0.381497L116.406 9.44219L137.973 23.0809ZM101.423 68.8613L116.215 29.4711H95.6976L101.423 68.8613ZM94.1707 37.6734L88.9221 74.393L94.1707 99L99.4194 74.393L94.1707 37.6734ZM33 29.4711L66.7823 64.6647L48.4597 29.4711H33ZM57.2393 40.0578L74.035 72.3902L90.8307 94.7081L86.25 75.6329L57.2393 40.0578ZM82.91 66.5723L68.9772 29.4711H52.5632L82.91 66.5723ZM102.091 75.5376L97.5108 94.6127L114.306 72.2948L131.102 39.9624L102.091 75.5376ZM121.559 64.7601L155.341 29.5665H139.882L121.559 64.7601ZM92.453 29.4711H71.9355L86.8226 68.8613L92.453 29.4711ZM57.9073 0.381497L51.418 6.6763L50.75 23.0809L72.3172 9.44219L57.9073 0.381497ZM87.8723 0H64.0148L75.6573 7.24855L87.8723 0ZM48.5551 9.53757L33.4772 24.2254H47.9825L48.5551 9.53757Z" fill="#384250"/>
<path fill-rule="evenodd" clip-rule="evenodd" d="M36 111.189H152V142.189H36V111.189ZM98.5539 128.507L104.952 123.681L96.9226 123.618L94.3507 116.189L91.9042 123.618L84 123.555L90.2731 128.444L87.8894 136.189L94.5389 131.428L100.624 135.809L98.5539 128.507ZM71.9524 123.681L65.5539 128.507L67.6238 135.809L61.5389 131.428L54.8894 136.189L57.2731 128.444L51 123.555L58.9042 123.618L61.3507 116.189L63.9226 123.618L71.9524 123.681ZM131.554 128.507L137.952 123.681L129.923 123.618L127.351 116.189L124.904 123.618L117 123.555L123.273 128.444L120.889 136.189L127.539 131.428L133.624 135.809L131.554 128.507ZM32.8246 118.148H0L16.8492 134.169L0 150.189H47.1775V145.629H32.8246V118.148ZM155.526 118.148V145.629H141.173V150.189H188.351L171.502 134.169L188.351 118.148H155.526Z" fill="#384250"/>
<rect x="54" y="99.1895" width="80" height="8" fill="#384250"/>
<path d="M138.608 70.8546C143.648 67.9271 148.797 65.0227 152.343 60.0638C153.296 58.781 153.791 57.5153 154.116 55.9849C154.728 52.5732 155.665 49.2305 157.446 46.1815C158.314 44.7663 159.374 43.5065 160.992 42.8222C161.999 42.3506 163.129 42.3624 163.965 43.2256C164.801 44.0888 164.809 45.1187 164.468 46.1888C163.283 50.1643 162.23 54.0535 161.696 58.1672C161.448 60.3995 160.704 62.2981 159.504 64.2137C157.22 67.4986 155.129 70.9388 153.062 74.2696C152.218 75.5755 151.227 76.5074 150.019 77.3932C145.343 80.7408 140.411 83.6913 135.99 87.4359C131.987 90.8124 128.758 94.8104 126.606 99.6085C126.002 100.851 125.39 101.064 124.089 100.787C119.56 99.7105 114.985 98.8522 110.433 97.8846C109.024 97.5851 108.877 97.2111 109.481 95.9685C110.309 94.2023 111.223 92.5685 112.354 90.9807C114.305 88.1964 115.412 85.1185 116.194 81.9714C118.099 74.6073 122.219 69.0847 129.388 66.267C134.327 64.3464 138.586 61.3669 142.503 57.8581C143.208 57.2081 143.974 56.7997 144.826 56.5238C146.158 56.1213 147.288 56.133 148.186 57.2379C149.084 58.3428 149.154 59.6144 148.55 60.857C147.342 63.3423 145.189 64.9413 143.122 66.6727C141.473 68.036 139.785 69.0482 138.608 70.8546Z" fill="#384250"/>
<path d="M48.5779 70.8735C47.8641 69.6505 46.786 68.8487 45.7079 68.0468C43.9239 66.593 42.0314 65.1623 40.4179 63.4432C39.6655 62.5721 39.0216 61.6779 38.5948 60.7376C38.1214 59.5781 38.1908 58.3032 39.0047 57.3283C39.8186 56.3533 40.9274 56.2322 42.1062 56.4399C42.936 56.6072 43.7038 57.0168 44.3863 57.5591C48.6215 61.4704 53.4534 64.4529 58.6884 66.6624C65.2805 69.3854 69.012 74.6639 70.8907 81.3672C71.9 85.0478 73.2116 88.5495 75.3683 91.7569C76.3458 93.153 77.0209 94.7279 77.7813 96.1701C78.2081 97.1104 78.0842 97.595 76.8901 97.8488C72.1137 98.8641 67.3373 99.8793 62.5609 100.895C61.801 101.056 61.2116 100.952 60.8081 100.122C57.5723 92.9047 52.0339 87.6666 45.6584 83.2938C42.9981 81.4535 40.2059 79.5267 37.437 77.7095C35.9866 76.7576 34.8153 75.5173 33.8145 74.0116C31.7584 70.2099 29.3999 66.5871 27.0414 62.9643C26.3742 61.9605 26.0559 60.9971 25.823 59.901C25.1235 55.009 24.0132 50.319 22.5771 45.6982C21.9407 43.7714 23.6151 42.0407 25.6702 42.6349C28.2061 43.3561 29.5638 45.4732 30.5958 47.6596C31.8529 50.371 32.6758 53.1746 33.173 56.0475C33.2587 57.5186 33.7554 58.7877 34.6863 59.9646C36.7732 62.8432 39.3096 65.1681 42.3422 67.1584C44.32 68.4564 46.2358 69.9967 48.2369 71.4043C48.3222 71.2716 48.3841 71.0293 48.5779 70.8735Z" fill="#384250"/>
</svg>
