<svg width="168" height="149" viewBox="0 0 168 149" fill="none" xmlns="http://www.w3.org/2000/svg">
<path fill-rule="evenodd" clip-rule="evenodd" d="M51.1585 103.108C51.1332 104.845 51.1079 106.583 51.084 108.319V108.396H118.379V103.108H51.1585ZM39 148.724H129V110.724H39V148.724ZM48.0676 115.635H119.766V143.999H48.0676V115.635ZM50 141.724H118V117.724H50V141.724ZM65.2013 131.96L71.0051 127.558L63.7216 127.5L61.3887 120.724L59.1696 127.5L52 127.442L57.6901 131.902L55.5279 138.969L61.5594 134.625L67.0788 138.621L65.2013 131.96ZM93.0051 127.558L87.2013 131.96L89.0788 138.621L83.5594 134.625L77.5279 138.969L79.6901 131.902L74 127.442L81.1696 127.5L83.3887 120.724L85.7216 127.5L93.0051 127.558ZM110.201 131.96L116.005 127.558L108.722 127.5L106.389 120.724L104.17 127.5L97 127.442L102.69 131.902L100.528 138.969L106.559 134.625L112.079 138.621L110.201 131.96Z" fill="#384250"/>
<path d="M102.161 7.34393L89.9463 0.095367H113.804L102.161 7.34393ZM108.364 29.4711L94.4315 66.5723L124.778 29.4711H108.364ZM122.393 24.2254L105.024 13.2572L108.746 24.2254H122.393ZM83.3616 23.8439L99.203 9.72832L83.3616 0.28613L67.5202 9.72832L83.3616 23.8439ZM58.0726 24.2254L61.7944 13.2572L44.4261 24.2254H58.0726ZM65.2299 12.2081L61.1264 24.3208H78.7809L65.2299 12.2081ZM88.0377 24.2254H105.692L101.589 12.1127L88.0377 24.2254ZM144.341 24.2254L129.263 9.53757L129.836 24.2254H144.341ZM126.973 23.0809L126.305 6.6763L119.816 0.381497L105.406 9.44219L126.973 23.0809ZM90.4234 68.8613L105.215 29.4711H84.6976L90.4234 68.8613ZM83.1707 37.6734L77.9221 74.393L83.1707 99L88.4194 74.393L83.1707 37.6734ZM22 29.4711L55.7823 64.6647L37.4597 29.4711H22ZM46.2393 40.0578L63.035 72.3902L79.8307 94.7081L75.25 75.6329L46.2393 40.0578ZM71.91 66.5723L57.9772 29.4711H41.5632L71.91 66.5723ZM91.0914 75.5376L86.5108 94.6127L103.306 72.2948L120.102 39.9624L91.0914 75.5376ZM110.559 64.7601L144.341 29.5665H128.882L110.559 64.7601ZM81.453 29.4711H60.9355L75.8226 68.8613L81.453 29.4711ZM46.9073 0.381497L40.418 6.6763L39.75 23.0809L61.3172 9.44219L46.9073 0.381497ZM76.8723 0H53.0148L64.6573 7.24855L76.8723 0ZM37.5551 9.53757L22.4772 24.2254H36.9825L37.5551 9.53757Z" fill="#384250"/>
<path d="M50.9514 97.6543C50.9514 97.6543 65.8514 90.5543 57.9514 76.9543C51.9514 66.6543 36.5514 64.6543 19.4514 52.8543C10.6514 46.7543 7.45141 43.0543 5.15141 35.8543C3.95141 32.0543 0.451409 41.7543 5.75141 48.7543C13.8514 59.4543 19.8514 61.2543 34.7514 67.7543C53.2514 75.7543 55.8514 84.1543 55.0514 89.2543C54.1514 95.0543 50.9514 97.6543 50.9514 97.6543Z" fill="#384250"/>
<path d="M48.4512 98.5544C48.4512 98.5544 56.3512 92.5544 52.9512 84.2544C49.0512 74.9544 43.3512 74.3545 20.8512 63.4545C13.3512 59.8545 3.85121 52.8544 1.95121 46.5544C0.951213 43.2544 -2.14879 50.8545 2.45121 56.8545C9.45121 66.0545 19.8512 68.1544 32.7512 73.7544C48.7512 80.6544 51.7512 87.5545 51.1512 91.9545C50.1512 97.2545 48.4512 98.5544 48.4512 98.5544Z" fill="#384250"/>
<path d="M3.15133 61.7547C0.851331 61.5547 2.75133 69.4547 10.0513 73.4547C19.7513 78.7547 32.5513 79.9547 38.6513 82.7547C45.0513 85.7547 49.0513 91.8547 47.3513 95.8547C45.6513 99.8547 42.5513 100.355 42.5513 100.355C42.5513 100.355 53.8513 97.4547 48.0513 86.6547C43.8513 78.7547 33.0513 75.7547 20.5513 71.3547C6.15133 66.1547 3.75133 61.7547 3.15133 61.7547Z" fill="#384250"/>
<path d="M30.3511 82.3547C40.7511 84.1547 45.9511 88.4547 46.3511 94.1547C46.6511 98.6547 42.3511 100.255 41.9511 100.155C39.9511 100.055 43.7511 96.2547 43.3511 93.4547C42.9511 90.5547 40.2511 87.8547 32.2511 87.0547C22.4511 86.0547 18.2511 80.9547 19.8511 79.5547C20.5511 78.9547 20.4511 80.6547 30.3511 82.3547Z" fill="#384250"/>
<path d="M116.31 97.6543C116.31 97.6543 101.41 90.5543 109.31 76.9543C115.31 66.6543 130.71 64.6543 147.81 52.8543C156.61 46.7543 159.81 43.0543 162.11 35.8543C163.31 32.0543 166.81 41.7543 161.51 48.7543C153.41 59.4543 147.41 61.2543 132.51 67.7543C114.01 75.7543 111.41 84.1543 112.21 89.2543C113.01 95.0543 116.31 97.6543 116.31 97.6543Z" fill="#384250"/>
<path d="M118.81 98.5544C118.81 98.5544 110.91 92.5544 114.31 84.2544C118.21 74.9544 123.91 74.3545 146.41 63.4545C153.91 59.8545 163.41 52.8544 165.31 46.5544C166.31 43.2544 169.41 50.8545 164.81 56.8545C157.81 66.0545 147.41 68.1544 134.51 73.7544C118.51 80.6544 115.51 87.5545 116.11 91.9545C117.01 97.2545 118.81 98.5544 118.81 98.5544Z" fill="#384250"/>
<path d="M164.01 61.7547C166.31 61.5547 164.41 69.4547 157.11 73.4547C147.41 78.7547 134.61 79.9547 128.51 82.7547C122.11 85.7547 118.11 91.8547 119.81 95.8547C121.51 99.8547 124.61 100.355 124.61 100.355C124.61 100.355 113.31 97.4547 119.11 86.6547C123.31 78.7547 134.11 75.7547 146.61 71.3547C161.01 66.1547 163.41 61.7547 164.01 61.7547Z" fill="#384250"/>
<path d="M136.81 82.3547C126.41 84.1547 121.21 88.4547 120.81 94.1547C120.51 98.6547 124.81 100.255 125.21 100.155C127.21 100.055 123.41 96.2547 123.81 93.4547C124.21 90.5547 126.91 87.8547 134.91 87.0547C144.71 86.0547 148.91 80.9547 147.31 79.5547C146.61 78.9547 146.71 80.6547 136.81 82.3547Z" fill="#384250"/>
</svg>
