<svg width="189" height="154" viewBox="0 0 189 154" fill="none" xmlns="http://www.w3.org/2000/svg">
<path fill-rule="evenodd" clip-rule="evenodd" d="M36 115H152V146H36V115ZM98.5539 132.317L104.952 127.492L96.9226 127.429L94.3507 120L91.9042 127.429L84 127.365L90.2731 132.254L87.8894 140L94.5389 135.238L100.624 139.619L98.5539 132.317ZM32.8246 121.959H0L16.8492 137.979L0 153.999H47.1775V149.439H32.8246V121.959ZM155.526 121.959V149.439H141.173V153.999H188.351L171.502 137.979L188.351 121.959H155.526Z" fill="#384250"/>
<rect x="54" y="103" width="80" height="8" fill="#384250"/>
<path d="M140.1 7.14529H127.396C127.442 5.73813 127.468 4.32267 127.468 2.90041C127.468 1.29839 126.169 0 124.567 0H62.4335C60.8322 0 59.5331 1.29839 59.5331 2.90041C59.5331 4.32267 59.5588 5.73813 59.6048 7.14529H46.9004C45.2984 7.14529 44 8.44368 44 10.0457C44 23.0417 47.3967 35.3027 53.5638 44.5712C59.66 53.7339 67.7804 58.9894 76.5526 59.5008C78.5413 61.6647 80.6434 63.4292 82.8331 64.7751V77.6661H77.9673C72.0849 77.6661 67.3 82.4518 67.3 88.3334V93.1992H67.0938C65.4918 93.1992 64.1934 94.4983 64.1934 96.0996C64.1934 97.7016 65.4918 99 67.0938 99H119.907C121.509 99 122.807 97.7016 122.807 96.0996C122.807 94.4983 121.509 93.1992 119.907 93.1992H119.701V88.3334C119.701 82.4518 114.916 77.6661 109.033 77.6661H104.168V64.7751C106.357 63.4299 108.46 61.6647 110.449 59.5008C119.22 58.9894 127.341 53.7339 133.438 44.5712C139.605 35.3027 143.001 23.0417 143.001 10.0457C143.001 8.44368 141.702 7.14529 140.1 7.14529ZM58.3933 41.3581C53.3062 33.7135 50.3175 23.7147 49.862 12.9461H59.9289C60.975 26.1838 64.0823 38.4199 68.939 48.1325C69.7125 49.6794 70.5214 51.1409 71.3606 52.5171C66.5364 50.6953 62.0717 46.887 58.3933 41.3581ZM113.9 88.3334V93.1999H73.1008V88.3334C73.1008 85.6506 75.2837 83.4669 77.9673 83.4669H109.033C111.717 83.4669 113.9 85.6506 113.9 88.3334ZM98.3669 77.6661H88.6339V67.2956C90.2283 67.7156 91.853 67.9339 93.5004 67.9339C95.1477 67.9339 96.7724 67.7156 98.3669 67.2956V77.6661ZM100.163 60.3951C100.032 60.4487 99.907 60.5136 99.7869 60.5854C97.7369 61.6051 95.6304 62.133 93.5004 62.133C91.3711 62.133 89.2653 61.6051 87.2161 60.5869C87.0945 60.5136 86.9684 60.4487 86.8362 60.3935C84.562 59.1911 82.3617 57.3753 80.2808 54.9893C80.1713 54.8329 80.0482 54.6886 79.9115 54.5572C77.8457 52.1047 75.9023 49.088 74.1273 45.538C68.797 34.8782 65.7184 20.8618 65.3679 5.80083H121.633C121.282 20.8618 118.203 34.879 112.873 45.538C111.098 49.088 109.155 52.1047 107.09 54.5572C106.953 54.6886 106.828 54.8337 106.719 54.99C104.638 57.3768 102.437 59.1918 100.163 60.3951ZM128.607 41.3581C124.929 46.887 120.464 50.6953 115.64 52.5171C116.479 51.1409 117.288 49.6794 118.062 48.1325C122.918 38.4199 126.025 26.1838 127.072 12.9461H137.139C136.683 23.7147 133.695 33.7135 128.607 41.3581Z" fill="#384250"/>
</svg>
