<svg width="199" height="154" viewBox="0 0 199 154" fill="none" xmlns="http://www.w3.org/2000/svg">
<path fill-rule="evenodd" clip-rule="evenodd" d="M167.711 42.7307C166.641 40.3918 166.053 38.282 166.041 36.1875C166.02 36.1048 165.999 36.0221 165.977 35.9396L165.977 35.9395L165.977 35.9395L165.977 35.9395L165.977 35.9395C165.946 35.8178 165.914 35.6964 165.884 35.5759C165.908 35.441 165.932 35.3057 165.956 35.1704C165.98 35.0351 166.004 34.8998 166.028 34.7648L165.998 33.6375C166.059 33.496 166.121 33.3552 166.184 33.2141L166.242 33.0823C166.266 32.9225 166.285 32.7298 166.304 32.5232C166.358 31.9619 166.421 31.2987 166.642 30.92C166.661 30.9021 166.679 30.8841 166.698 30.8662C166.716 30.8483 166.734 30.8304 166.753 30.8125C168.558 30.9251 169.648 31.5328 171.255 32.5974C171.364 32.6338 171.473 32.67 171.582 32.7061C171.691 32.7423 171.8 32.7784 171.909 32.8149C172.253 33.1642 172.596 33.5122 172.939 33.8615C173.874 34.5357 175.251 36.1235 175.809 37.5399C175.829 37.6697 175.85 37.7994 175.871 37.9292C175.891 38.0592 175.912 38.1891 175.933 38.3191C176.034 38.5501 176.135 38.7811 176.236 39.0122L176.237 39.0144L176.237 39.0153L176.237 39.0162C176.339 39.2483 176.44 39.4803 176.542 39.7124C176.53 39.9332 176.519 40.1552 176.508 40.3762L176.506 40.4161C176.86 42.1805 176.955 44.0613 176.333 45.6197C176.331 45.7163 176.33 45.8129 176.328 45.9095C176.326 46.0061 176.325 46.1027 176.323 46.1993C176.242 46.4093 176.162 46.6441 176.082 46.8844C175.917 47.3734 175.745 47.8857 175.528 48.2605C174.844 48.6724 173.904 48.1389 173.247 47.7658C173.158 47.7148 173.073 47.6668 172.995 47.6246C172.909 47.6035 172.822 47.5828 172.736 47.562L172.736 47.562L172.735 47.562L172.735 47.5619C172.649 47.5411 172.562 47.5203 172.476 47.4992C172.37 47.4137 172.264 47.3279 172.158 47.242L172.157 47.2414C172.051 47.1554 171.945 47.0693 171.838 46.9836C170.498 46.1059 168.685 44.8571 167.711 42.7307ZM182.424 53.1775L182.701 53.6419L182.699 53.663C182.691 53.7697 182.682 53.8754 182.675 53.9823C182.74 54.1061 182.805 54.2296 182.87 54.3531L182.87 54.3538L182.871 54.3545L182.871 54.3552L182.872 54.3559C182.937 54.4803 183.003 54.6047 183.068 54.7295L183.072 54.7694L183.072 54.771C183.087 54.9258 183.102 55.0798 183.117 55.2348L183.518 55.7249C183.947 56.6486 184.794 58.3094 185.777 58.6561C187.43 57.7515 188.416 56.6192 189.285 55.3909L190.717 53.3067C190.905 52.9535 191 52.5915 191.095 52.2325C191.153 52.0089 191.212 51.7864 191.292 51.5679C192.115 49.325 192.089 47.1013 191.193 44.4989C191.159 44.3057 191.126 44.1125 191.093 43.918C191.041 43.8503 190.99 43.7826 190.938 43.7149L190.938 43.7144L190.937 43.714L190.937 43.7135L190.937 43.713C190.886 43.6457 190.835 43.5784 190.783 43.5112C190.736 43.3154 190.688 43.1184 190.642 42.9226C190.543 42.7844 190.444 42.6459 190.346 42.5074L190.343 42.5045C190.245 42.367 190.147 42.2295 190.049 42.0922C190.014 41.9956 189.979 41.8987 189.944 41.8017L189.944 41.8012L189.944 41.8007C189.909 41.7042 189.875 41.6076 189.84 41.5114C189.534 41.1711 189.227 40.8309 188.921 40.4917L188.845 40.4072C188.687 40.2388 188.566 40.0892 188.46 39.9566C188.227 39.6679 188.06 39.4604 187.715 39.3184L187.61 39.351L187.505 39.3836C187.154 39.6055 186.973 39.8548 186.79 40.107C186.722 40.1994 186.655 40.2922 186.579 40.3842C186.446 40.5445 186.313 40.7029 186.182 40.8599L186.182 40.8599L186.182 40.8599L186.182 40.8599L186.182 40.8599L186.182 40.86L186.182 40.86L186.182 40.8602C185.664 41.4786 185.163 42.0761 184.752 42.6923L183.497 44.5539L183.216 45.7054C183.135 45.8723 183.054 46.0392 182.972 46.206C182.891 46.3731 182.809 46.5402 182.728 46.7072C182.721 46.8314 182.713 46.9558 182.706 47.0802C182.699 47.2046 182.691 47.3291 182.684 47.4532C182.08 49.2623 182.18 50.7222 182.478 52.7156C182.458 52.8675 182.441 53.022 182.425 53.1764L182.425 53.1765L182.424 53.1775ZM187.506 61.1784C187.383 61.4355 187.243 61.6668 187.105 61.894C186.904 62.2265 186.707 62.5502 186.578 62.9325C186.513 63.1262 186.48 63.3492 186.448 63.5717C186.415 63.7974 186.382 64.0225 186.315 64.2158C186.228 64.4653 185.951 65.2778 185.942 65.4991C185.93 65.7916 185.955 66.06 185.981 66.3301C186.005 66.5882 186.03 66.8479 186.022 67.1317L186.021 67.1332C185.979 67.3042 185.937 67.4751 185.895 67.6448L186.095 68.1591L186.096 68.4113L186.098 68.6223C186.099 68.7773 186.1 68.9322 186.101 69.0867C186.151 69.1973 186.201 69.3079 186.251 69.4185C186.301 69.5293 186.352 69.64 186.402 69.7508C186.423 69.8904 186.445 70.0303 186.467 70.1703L186.468 70.1733C186.49 70.3144 186.512 70.4556 186.533 70.5965C186.58 70.8716 186.91 71.5919 187.177 71.7173C187.487 71.8615 188.225 71.6042 188.632 71.4624L188.632 71.4624L188.632 71.4623L188.697 71.4397C190.202 70.9176 192.288 69.6663 193.59 68.4521C196.578 65.6629 197.963 61.2808 196.933 57.6957C196.887 57.5347 196.896 57.3749 196.904 57.22C196.91 57.1078 196.916 56.9981 196.901 56.8922C196.838 56.4406 195.963 54.3294 195.565 54.1465C195.164 54.2242 194.723 54.5079 194.279 54.794C193.831 55.0827 193.379 55.3737 192.96 55.4579C190.147 57.2402 188.524 59.0519 187.506 61.1784ZM158.296 100.95C158.502 101.364 158.708 101.779 158.914 102.195L158.971 102.874C159.691 104.939 162.459 107.878 163.876 108.555C164.051 108.639 164.21 108.761 164.365 108.879L164.365 108.879C164.788 109.203 165.177 109.501 165.763 108.932C165.915 108.496 166.195 108.092 166.475 107.687C166.708 107.351 166.942 107.014 167.104 106.656L167.105 106.649C167.133 106.477 167.16 106.306 167.189 106.134C167.793 104.57 167.946 103.683 167.972 102L168.084 101.247L168.082 101.243C168.019 101.058 167.955 100.874 167.892 100.691C167.929 100.512 167.966 100.332 168.002 100.153C167.956 100.032 167.911 99.9105 167.865 99.7895C167.802 99.6229 167.74 99.4565 167.677 99.2905C167.655 99.1139 167.633 98.937 167.611 98.7601C167.589 98.5832 167.567 98.4063 167.545 98.2298L167.534 98.2078C167.393 97.9272 167.252 97.6467 167.111 97.3674C166.922 96.6637 166.673 95.8512 166.144 95.0618C165.981 94.8183 165.819 94.5653 165.657 94.3111C165.136 93.4968 164.606 92.6688 164.004 92.0896C163.864 91.9898 163.724 91.89 163.585 91.7902C163.445 91.6904 163.305 91.5906 163.166 91.4908L162.872 91.1569L162.869 91.154C162.661 90.9175 162.453 90.6812 162.246 90.4443C161.966 90.2787 161.704 90.2812 161.406 90.2839H161.405H161.405H161.404H161.404H161.403H161.403H161.402C161.347 90.2844 161.29 90.2849 161.231 90.2843C160.962 90.4652 160.889 90.6509 160.813 90.8418C160.78 90.9279 160.745 91.015 160.692 91.1032C160.445 91.3847 160.198 91.6661 159.952 91.9463C159.936 92.0223 159.921 92.098 159.905 92.1736L159.905 92.1741L159.905 92.1746L159.905 92.1747C159.889 92.2503 159.873 92.3259 159.858 92.4018C159.791 92.4818 159.724 92.5617 159.656 92.6417L159.656 92.642L159.654 92.6441L159.654 92.6442C159.587 92.7234 159.52 92.8025 159.454 92.8816C159.417 93.0608 159.38 93.2412 159.344 93.4203L159.227 93.5885C159.1 93.7725 158.974 93.9559 158.846 94.1393L158.784 94.4068C158.526 95.5257 158.28 96.5901 158.191 97.7589C158.165 97.8472 158.14 97.9355 158.115 98.0238C158.09 98.1121 158.064 98.2003 158.039 98.2886C158.034 98.6861 158.111 99.0428 158.19 99.41C158.247 99.6763 158.306 99.948 158.336 100.245C158.343 100.336 158.326 100.432 158.308 100.531C158.284 100.668 158.258 100.81 158.296 100.95ZM178.218 103.521C178.5 103.388 178.789 103.253 179.072 103.125C179.212 103.045 179.352 102.966 179.492 102.886C179.632 102.806 179.772 102.727 179.913 102.647C182.135 101.992 185.078 101.628 187.074 102.119C187.159 102.111 187.244 102.103 187.33 102.095L187.38 102.09C187.448 102.083 187.517 102.077 187.585 102.07C187.653 102.098 187.72 102.126 187.787 102.153L187.862 102.185L187.988 102.237L188.349 102.179C188.489 102.187 189.259 102.459 189.414 102.522C189.724 103.119 189.045 104.53 188.596 105.465C188.479 105.707 188.378 105.918 188.313 106.074C187.354 108.392 184.707 111.24 181.424 112.09C180.983 112.271 180.542 112.453 180.102 112.635L180.088 112.641C179.971 112.61 179.854 112.58 179.736 112.549C179.558 112.53 179.403 112.605 179.236 112.685C179.123 112.74 179.005 112.797 178.871 112.829L178.124 112.745C177.898 112.749 177.682 112.775 177.468 112.801H177.468H177.468H177.468H177.468H177.468H177.468H177.468H177.468C177.18 112.835 176.896 112.87 176.596 112.848L176.001 112.664C175.832 112.65 175.661 112.639 175.489 112.627H175.489L175.489 112.627L175.489 112.627L175.489 112.627L175.488 112.627L175.488 112.627L175.488 112.627L175.488 112.627C174.831 112.584 174.17 112.54 173.56 112.326C173.358 112.206 173.157 112.087 172.956 111.968C172.819 111.91 172.686 111.897 172.559 111.885C172.272 111.858 172.022 111.834 171.849 111.294C171.786 110.92 172.035 110.441 172.256 110.017C172.352 109.832 172.443 109.657 172.501 109.505C172.508 109.417 172.515 109.329 172.522 109.24C172.53 109.152 172.537 109.064 172.544 108.975C172.611 108.89 172.679 108.805 172.747 108.719L172.747 108.719L172.748 108.718L172.75 108.715C172.819 108.629 172.888 108.542 172.956 108.455C173.27 107.745 173.822 106.825 174.422 106.204C174.626 106.047 174.829 105.89 175.032 105.733C175.235 105.576 175.438 105.419 175.642 105.262C175.695 105.205 175.749 105.145 175.804 105.083L175.804 105.083L175.805 105.083C176.005 104.859 176.224 104.614 176.517 104.403C176.662 104.32 176.807 104.237 176.952 104.154C177.096 104.072 177.239 103.99 177.383 103.908C177.642 103.791 177.923 103.659 178.211 103.524L178.215 103.522L178.216 103.522L178.217 103.521L178.218 103.521ZM178.475 74.6051C178.467 74.7442 178.459 74.8794 178.49 75.003C178.589 75.296 178.689 75.589 178.79 75.8833C178.786 75.9437 178.758 76.006 178.729 76.0694C178.697 76.1417 178.664 76.2153 178.664 76.2889C178.686 76.358 178.708 76.4272 178.73 76.4963C178.752 76.5653 178.774 76.6344 178.797 76.7034C178.837 76.8797 178.8 77.0256 178.762 77.1709C178.739 77.2588 178.716 77.3464 178.711 77.4404C178.744 77.6306 178.776 77.8195 178.809 78.0084L178.811 78.0213C178.76 78.138 178.708 78.2539 178.656 78.3702L178.656 78.3707L178.609 78.4768C178.601 78.5727 178.594 78.669 178.588 78.7655L178.587 78.7658L178.587 78.7662L178.587 78.7666C178.543 79.4084 178.497 80.0564 178.167 80.6301C177.58 80.9653 175.482 80.1989 174.879 79.9507C174.803 79.9426 174.727 79.9342 174.651 79.9259L174.65 79.9257L174.649 79.9257L174.648 79.9256L174.648 79.9255L174.645 79.9251C174.566 79.9165 174.488 79.9079 174.409 79.8995L174.099 79.7084L173.789 79.517L173.261 79.4325L172.666 78.9258C172.593 78.9079 172.52 78.8897 172.448 78.8715L172.447 78.8715C172.375 78.8532 172.302 78.835 172.229 78.8171L171.526 78.2017C171.382 78.1223 171.238 78.0433 171.094 77.9643C170.95 77.8853 170.806 77.8063 170.662 77.727C169.27 76.578 167.517 73.8771 166.932 72.1741C166.874 72.0039 166.882 71.8297 166.891 71.6619C166.897 71.5283 166.904 71.3987 166.876 71.2785C166.835 71.1847 166.794 71.0914 166.753 70.9983C166.724 70.9338 166.696 70.8695 166.667 70.8051C166.624 70.6208 166.637 70.4508 166.65 70.2853C166.658 70.1843 166.666 70.0849 166.661 69.985C166.645 69.7023 166.604 69.4443 166.564 69.1923C166.509 68.8454 166.456 68.5096 166.473 68.1362L166.557 67.8835L166.642 67.6308C166.624 66.9399 166.733 64.8236 167.397 64.3758C167.53 64.325 167.664 64.2729 167.797 64.2208L167.798 64.2205L167.8 64.2197C169.871 64.9311 171.962 65.8139 173.868 67.3096C174.012 67.4784 174.156 67.6472 174.299 67.8159C174.443 67.9849 174.587 68.1539 174.731 68.323C176.215 69.6613 177.33 71.2069 177.941 73.1043C178.026 73.2757 178.111 73.4472 178.195 73.6186C178.28 73.7901 178.365 73.9615 178.45 74.133C178.495 74.2879 178.485 74.449 178.475 74.6051ZM176.463 53.9259C176.618 54.302 176.774 54.6782 176.93 55.0544C177.086 55.4305 177.241 55.8067 177.397 56.1828C177.506 56.3724 177.616 56.5622 177.725 56.7521L177.727 56.7554C177.837 56.9464 177.947 57.1373 178.057 57.328C178.074 57.4604 178.09 57.5931 178.106 57.7259C178.123 57.8586 178.139 57.9914 178.156 58.1238C178.313 58.4746 178.471 58.8253 178.628 59.1757L178.89 59.7577C178.9 59.9116 178.91 60.0654 178.919 60.2195L178.919 60.2196L178.919 60.2197L178.919 60.2198L178.919 60.2199C178.928 60.3642 178.937 60.5086 178.946 60.6533L179.422 61.6321C179.559 62.5121 179.735 63.3971 179.912 64.2862L179.912 64.2862L179.912 64.2863C180.034 64.9005 180.156 65.5166 180.267 66.1345C180.337 66.531 180.333 67.1966 180.33 67.6666L180.33 67.6674C180.33 67.7325 180.33 67.7939 180.329 67.8502C180.328 68.206 180.399 68.5511 180.469 68.8968C180.543 69.2585 180.617 69.621 180.61 69.9972C180.598 70.5236 180.583 71.0525 180.567 71.5829L180.567 71.5834C180.533 72.7479 180.499 73.9191 180.505 75.0856C180.465 75.2071 180.426 75.3286 180.386 75.4501C180.347 75.5717 180.308 75.6933 180.268 75.8149C180.288 76.1948 180.238 76.5207 180.187 76.8507C180.158 77.0363 180.13 77.2233 180.113 77.4219C180.125 77.5217 180.138 77.6212 180.15 77.7206L180.167 77.8545L180.187 78.0194C180.179 78.3435 180.115 78.6772 180.051 79.0127C179.998 79.2892 179.945 79.5668 179.923 79.8414C179.85 80.0205 179.777 80.1996 179.702 80.38L179.718 80.8355C179.689 81.0168 179.621 81.2064 179.552 81.3969C179.466 81.6354 179.379 81.8753 179.37 82.1022C179.353 82.5317 179.241 82.8935 179.122 83.2762L179.122 83.2763L179.122 83.2764L179.122 83.2769L179.122 83.2769L179.122 83.2769C179.083 83.4035 179.043 83.5325 179.005 83.6669L178.978 84.2222C178.863 84.5477 178.758 84.8693 178.653 85.1906L178.653 85.1906L178.653 85.1907L178.653 85.1907L178.653 85.1908L178.653 85.1908C178.513 85.6197 178.374 86.0478 178.209 86.483C178.207 86.5617 178.206 86.6404 178.204 86.7191C178.203 86.7978 178.201 86.8765 178.199 86.9552C178.041 87.4685 177.85 87.9677 177.659 88.4651C177.389 89.1704 177.12 89.8723 176.948 90.6067C176.819 90.8102 176.689 91.0149 176.56 91.2196C176.487 91.4114 176.424 91.627 176.36 91.8448C176.279 92.1195 176.198 92.3976 176.094 92.636L175.985 92.8011L175.984 92.8017C175.894 92.9367 175.805 93.0713 175.716 93.2066L175.647 93.7529C175.515 93.9346 175.383 94.1163 175.251 94.2993C175.182 94.4775 175.112 94.6776 175.041 94.8816C174.935 95.1874 174.825 95.5018 174.71 95.7642L174.289 96.3272C174.265 96.4264 174.241 96.5258 174.217 96.6253C174.193 96.7248 174.169 96.8243 174.144 96.9234L173.707 97.4608C173.684 97.6067 173.661 97.7538 173.639 97.8997L173.159 98.5368C173.05 98.7392 172.952 98.9912 172.852 99.247C172.733 99.5525 172.611 99.8634 172.467 100.102L171.971 100.713L171.81 101.285L171.804 101.291C171.648 101.451 171.493 101.612 171.339 101.773C171.307 101.87 171.276 101.968 171.245 102.066C171.214 102.164 171.183 102.262 171.152 102.36C170.948 102.779 170.683 103.112 170.408 103.459C170.235 103.677 170.057 103.901 169.888 104.155C169.79 104.303 169.737 104.466 169.685 104.626C169.643 104.753 169.603 104.878 169.541 104.992L169.536 104.997L169.536 104.997C169.38 105.158 169.225 105.318 169.07 105.479L169.066 105.489C168.981 105.698 168.895 105.907 168.808 106.116L168.644 106.265L168.531 106.368L168.525 106.373C168.431 106.458 168.337 106.543 168.244 106.628C168.178 106.791 168.113 106.955 168.047 107.118L167.931 107.406C167.687 107.673 167.443 107.941 167.2 108.208L167.073 108.505L166.946 108.804L166.332 109.457L165.994 110.144C165.862 110.322 165.705 110.47 165.553 110.613C165.331 110.822 165.121 111.02 165.018 111.285C164.927 111.521 164.74 111.712 164.546 111.911C164.414 112.046 164.278 112.185 164.167 112.343L163.957 112.731L163.745 113.121C163.573 113.264 163.402 113.407 163.231 113.55L163.14 113.626L162.322 114.842C162.202 114.975 162.074 115.099 161.95 115.219C161.535 115.619 161.161 115.981 161.26 116.506C161.36 117.028 162.185 117.492 162.491 117.635C162.612 117.692 162.712 117.748 162.804 117.8L162.804 117.8C163.008 117.915 163.174 118.008 163.456 118.043C164.067 117.632 164.387 117.141 164.683 116.686L164.683 116.686C164.763 116.564 164.84 116.446 164.921 116.332C165.224 116.026 165.527 115.72 165.829 115.414L165.832 115.41C165.957 115.185 166.083 114.96 166.209 114.736C166.319 114.641 166.428 114.546 166.537 114.451L166.538 114.45L166.539 114.449L166.54 114.448L166.54 114.448L166.541 114.447C166.652 114.351 166.763 114.254 166.873 114.158C166.988 114.023 167.049 113.855 167.108 113.696C167.142 113.601 167.176 113.51 167.219 113.43C167.363 113.276 167.508 113.121 167.653 112.967C167.797 112.812 167.942 112.658 168.086 112.503L168.088 112.499C168.161 112.321 168.233 112.144 168.306 111.965C168.403 111.866 168.5 111.767 168.597 111.667C168.694 111.568 168.791 111.469 168.887 111.37L168.891 111.363L168.891 111.362L168.892 111.362L168.892 111.362L168.892 111.361L168.892 111.361C169.064 111.047 169.237 110.732 169.411 110.418C169.515 110.313 169.621 110.208 169.726 110.104C169.831 109.999 169.936 109.895 170.041 109.79C170.071 109.699 170.1 109.608 170.13 109.517L170.187 109.341L170.219 109.243C170.467 108.871 170.716 108.564 170.962 108.263C171.233 107.93 171.499 107.604 171.752 107.2C171.797 107.087 171.842 106.974 171.887 106.86C171.932 106.747 171.977 106.634 172.022 106.521C172.116 106.417 172.211 106.313 172.305 106.209C172.399 106.106 172.492 106.003 172.586 105.9C172.633 105.738 172.682 105.574 172.731 105.411L173.211 104.882C173.244 104.795 173.277 104.708 173.31 104.621L173.31 104.62C173.356 104.5 173.401 104.38 173.447 104.261L173.986 103.657L174.12 103.217L174.189 102.987C174.261 102.904 174.333 102.821 174.404 102.738C174.476 102.656 174.548 102.573 174.619 102.49L174.621 102.485L174.622 102.485L174.622 102.484L174.622 102.484L174.622 102.484C174.745 102.202 174.868 101.92 174.99 101.638C175.122 101.492 175.254 101.347 175.386 101.199L175.512 100.794L175.639 100.388C177.382 97.2343 178.729 94.1432 180.027 90.9189C180.031 90.8332 180.034 90.7475 180.036 90.6618C180.039 90.576 180.042 90.4903 180.045 90.4046C180.181 90.0611 180.315 89.7331 180.448 89.4078L180.448 89.4064L180.449 89.4052L180.449 89.405L180.449 89.4049L180.449 89.4047L180.449 89.4046L180.449 89.4045L180.449 89.4036C180.629 88.9645 180.806 88.5303 180.983 88.0696C181.001 87.8789 181.018 87.6883 181.034 87.4976L181.036 87.4952C181.106 87.4026 181.176 87.31 181.246 87.2162L181.23 86.7607L181.526 86.2809C181.564 86.1161 181.575 85.9332 181.585 85.7491C181.599 85.51 181.613 85.2688 181.688 85.0628C182.421 83.0554 182.842 80.5143 182.973 78.3776L183.011 78.2931C183.052 78.2027 183.093 78.1127 183.133 78.022C183.266 77.2492 183.264 76.3791 183.24 75.5859C183.232 75.32 183.311 75.02 183.388 74.7258C183.444 74.5132 183.499 74.3035 183.52 74.1119L183.421 73.6398C183.41 73.0833 183.481 72.4793 183.551 71.9407L183.394 71.2191C183.392 70.9475 183.399 70.6789 183.406 70.4106L183.406 70.4104C183.425 69.6195 183.445 68.8313 183.25 67.9782L183.252 67.9548C183.263 67.7284 183.274 67.5008 183.286 67.2732C183.254 67.1268 183.223 66.9803 183.191 66.8339C183.159 66.6873 183.128 66.5408 183.096 66.3942C183.117 65.876 183.051 65.1199 182.983 64.6043L182.979 64.5927L182.979 64.5917C182.869 64.2504 182.759 63.9092 182.65 63.5679C182.659 63.4725 182.667 63.3771 182.676 63.2817C182.685 63.1865 182.693 63.0912 182.702 62.996L182.556 62.6435L182.41 62.291C182.379 62.1446 182.388 62.0024 182.397 61.8575C182.406 61.7037 182.416 61.5468 182.379 61.3787C182.232 61.0333 182.085 60.6878 181.936 60.3424L181.913 59.7129C181.766 59.3674 181.619 59.022 181.471 58.6765L181.306 57.566C181.211 57.3887 181.116 57.2119 181.022 57.035L180.738 56.504C180.641 56.2672 180.578 56.0495 180.513 55.8266C180.436 55.5642 180.358 55.2945 180.221 54.9776C180.183 54.8902 180.138 54.7853 180.088 54.6664L180.088 54.6663C179.591 53.4956 178.521 50.9784 177.79 50.6543L177.787 50.6555L177.786 50.6556L177.786 50.6556L177.786 50.6557L177.786 50.6557L177.786 50.6558C177.653 50.7077 177.52 50.7597 177.387 50.8104C177.1 51.0164 176.812 51.2224 176.525 51.4283L176.518 51.4335L176.512 51.4372C176.224 51.6441 175.935 51.851 175.647 52.0579C175.638 52.5414 175.821 52.8295 176.055 53.1991C176.183 53.4017 176.327 53.6288 176.463 53.9259ZM165.876 78.0642C165.67 77.9745 165.487 77.8726 165.31 77.7744C164.934 77.5655 164.587 77.3729 164.123 77.3477C163.594 77.853 163.444 78.6726 163.312 79.3886C163.269 79.6244 163.228 79.8489 163.176 80.0473C162.456 82.7918 162.576 87.1624 165.709 90.3623C165.945 90.6323 166.18 90.9023 166.416 91.1722C166.652 91.4422 166.888 91.7122 167.123 91.9821L167.404 92.103L167.685 92.2239C167.763 92.3046 167.841 92.385 167.919 92.4654C167.997 92.5456 168.075 92.6258 168.153 92.7063C168.281 92.8075 168.431 92.8471 168.575 92.8854C168.668 92.91 168.758 92.9341 168.84 92.9737C168.971 93.0792 169.102 93.1844 169.233 93.2896C169.365 93.3949 169.496 93.5002 169.627 93.6058C170.334 93.9179 171.22 94.2365 171.975 94.399C172.053 94.4159 172.151 94.4498 172.26 94.4875L172.26 94.4876L172.26 94.4877L172.26 94.4877C172.653 94.6239 173.186 94.8092 173.477 94.4195C173.632 94.1725 173.683 93.8518 173.729 93.558C173.761 93.3588 173.79 93.1719 173.849 93.0287C175.741 88.4367 172.245 81.3191 167.063 78.6502C166.857 78.4864 166.65 78.3226 166.444 78.1601C166.308 78.1361 166.172 78.1134 166.034 78.0906L165.876 78.0642ZM162.843 53.0538L162.92 52.3577C162.861 52.185 162.803 52.0115 162.746 51.8385L162.703 51.7116C162.67 51.2689 162.839 48.6716 163.057 48.3978C164.499 48.3834 165.745 48.8321 167.022 49.2914L167.022 49.2914C167.562 49.4858 168.108 49.6822 168.676 49.8461C168.76 49.9165 168.844 49.9872 168.927 50.0579C169.011 50.1286 169.095 50.1993 169.179 50.2697C169.349 50.3414 169.518 50.4138 169.687 50.4864L169.841 50.5524C169.971 50.6644 170.101 50.7766 170.231 50.8889C170.361 51.0012 170.491 51.1135 170.621 51.2254C170.747 51.2754 170.873 51.3259 170.998 51.3763L170.998 51.3763L170.998 51.3764C171.088 51.4123 171.177 51.4482 171.267 51.4839C171.415 51.6501 171.562 51.8161 171.71 51.982C171.858 52.1481 172.006 52.3142 172.153 52.4806C173.292 53.4734 174.774 55.0024 175.391 56.7066C175.419 56.8486 175.448 56.991 175.478 57.1333L175.478 57.1364L175.478 57.1371C175.507 57.2782 175.536 57.4192 175.565 57.56L176.04 58.6463C176.035 58.8536 176.029 59.0608 176.023 59.2681C176.041 59.3915 176.062 59.5212 176.084 59.6557L176.084 59.6561C176.275 60.8396 176.524 62.39 175.92 63.2792C174.728 63.5786 173.395 63.3125 172.32 62.9465C172.07 62.8619 171.788 62.8185 171.507 62.7754C171.296 62.743 171.086 62.7107 170.893 62.6612L170.604 62.4737L170.315 62.2863C170.133 62.2023 169.913 62.1282 169.686 62.0517C169.32 61.928 168.935 61.7982 168.663 61.6108C168.549 61.5123 168.434 61.4141 168.32 61.3159C168.205 61.2177 168.091 61.1195 167.976 61.021C167.806 60.9493 167.637 60.8769 167.468 60.8043L167.313 60.7382C167.087 60.4712 166.859 60.2042 166.632 59.9372L166.632 59.9371L166.632 59.937L166.628 59.9321C166.485 59.8285 166.343 59.7246 166.2 59.6207C166.058 59.5167 165.916 59.4127 165.773 59.309C164.154 57.9592 163.091 54.5405 162.843 53.0538ZM197.943 72.6661C197.907 72.558 197.871 72.4502 197.835 72.3424C197.798 72.2346 197.762 72.1268 197.726 72.0187C197.705 71.8681 197.713 71.722 197.721 71.5807V71.5806C197.744 71.1863 197.765 70.8293 197.117 70.5166C195.816 70.9184 194.45 71.3303 193.145 71.6835L192.165 72.2178L191.178 72.7557C189.272 73.9878 188.056 75.3159 187.089 76.7233C186.845 76.9907 186.6 77.2581 186.357 77.5255C186.32 77.7046 186.283 77.885 186.247 78.0641C186.183 78.1479 186.118 78.2321 186.053 78.3162L186.053 78.3173C185.988 78.401 185.924 78.4848 185.859 78.5682C185.836 78.7141 185.813 78.8612 185.792 79.0071C185.725 79.1048 185.657 79.2024 185.59 79.3001L185.59 79.3007L185.589 79.3014C185.522 79.3991 185.454 79.4967 185.387 79.5944C185.384 79.6801 185.381 79.7658 185.378 79.8515C185.377 79.9002 185.375 79.9489 185.373 79.9976C185.372 80.0346 185.371 80.0717 185.369 80.1087C185.32 80.2674 185.247 80.4272 185.174 80.5879C185.055 80.8483 184.935 81.1111 184.913 81.3754L184.936 82.0049C184.846 82.4028 184.744 82.944 184.748 83.347L184.897 84.0021C184.88 84.0846 184.863 84.1675 184.846 84.2503C184.829 84.3332 184.812 84.416 184.795 84.4985C184.895 84.7557 184.995 85.0129 185.096 85.27C185.117 85.3603 185.11 85.4405 185.102 85.5213C185.092 85.6318 185.082 85.7433 185.144 85.8829C187.429 86.3486 191.319 85.0845 193.814 82.7892C194.021 82.6291 194.229 82.4694 194.437 82.3097C194.644 82.1502 194.852 81.9907 195.059 81.8309C196.528 80.0422 197.783 77.4807 197.778 75.3901C197.777 75.1562 197.835 74.9029 197.893 74.6485L197.893 74.6485C197.956 74.3727 198.019 74.0956 198.008 73.8406C197.958 73.6935 197.908 73.5476 197.858 73.4005C197.886 73.1574 197.915 72.9117 197.943 72.6661ZM194.212 86.9033C194.363 86.9468 194.514 86.9916 194.665 87.0364C194.761 87.0412 194.897 87.0365 195.056 87.0309C195.745 87.007 196.865 86.968 197.013 87.6173C197.131 88.1526 196.644 89.5274 196.374 90.2899C196.336 90.3984 196.302 90.4946 196.275 90.5741C196.211 90.7609 196.156 90.9698 196.099 91.1833C196.006 91.5344 195.91 91.8981 195.767 92.1965L195.228 92.9078C195.203 92.9962 195.177 93.0845 195.152 93.1728C195.127 93.261 195.101 93.3493 195.076 93.4375C194.839 93.6981 194.601 93.9587 194.363 94.2193L194.344 94.2398C194.291 94.3218 194.239 94.4138 194.185 94.5094C194.067 94.7164 193.941 94.9403 193.771 95.1162L192.14 96.3637C191.611 96.846 190.95 97.1966 190.341 97.4691C190.121 97.5952 189.901 97.721 189.681 97.8468C189.464 97.9712 189.247 98.0955 189.029 98.2201L187.853 98.4159C187.695 98.478 187.537 98.5397 187.379 98.6014C187.22 98.6632 187.062 98.7249 186.904 98.787C186.736 98.7524 186.569 98.7191 186.401 98.6859C186.093 98.769 185.786 98.8509 185.477 98.9328C185.138 98.9684 184.76 98.9179 184.4 98.8698C184.23 98.847 184.063 98.8249 183.907 98.8125C183.765 98.8011 183.58 98.7915 183.371 98.7808C182.508 98.7362 181.23 98.6703 180.77 98.3571C180.09 97.8926 180.882 95.6919 181.173 95.2249C181.234 95.1279 181.222 95.0259 181.211 94.9246C181.202 94.8469 181.193 94.7696 181.217 94.6952C181.298 94.4399 181.462 94.1566 181.615 93.8941C181.695 93.7555 181.772 93.6226 181.832 93.5028C181.986 93.3422 182.142 93.1815 182.298 93.0209L182.303 93.0153C182.349 92.8959 182.395 92.7761 182.44 92.6561C182.473 92.5691 182.506 92.4819 182.54 92.3948C182.685 92.1498 182.914 91.9623 183.154 91.7652C183.295 91.6493 183.44 91.5302 183.575 91.3942L184.089 90.6995C184.679 90.0922 185.477 89.5884 186.299 89.0698C186.359 89.0322 186.418 88.9946 186.478 88.9569C186.624 88.8852 186.769 88.8139 186.915 88.7426C187.06 88.6712 187.206 88.5999 187.352 88.5282C187.875 88.3237 188.399 88.1196 188.924 87.9155C189.301 87.7684 189.679 87.6213 190.057 87.474C190.161 87.4772 190.266 87.48 190.371 87.4829C190.476 87.4858 190.581 87.4887 190.686 87.4919C190.817 87.4358 190.948 87.3797 191.079 87.3236C191.211 87.2671 191.343 87.2106 191.476 87.1541C191.603 87.1541 191.73 87.1544 191.857 87.1547C191.985 87.1551 192.112 87.1554 192.239 87.1554C192.385 87.1196 192.531 87.084 192.676 87.0485C192.822 87.013 192.967 86.9775 193.113 86.9417C193.182 86.9628 193.25 86.9835 193.318 87.0043C193.387 87.0251 193.455 87.046 193.524 87.0671C193.639 87.0396 193.754 87.0123 193.868 86.9851C193.983 86.958 194.098 86.9308 194.212 86.9033Z" fill="#384250"/>
<path fill-rule="evenodd" clip-rule="evenodd" d="M21.6747 45.6203C21.6766 45.7169 21.6782 45.8135 21.6798 45.9101C21.6814 46.0067 21.683 46.1033 21.6849 46.1999C21.7663 46.4099 21.8454 46.6446 21.9263 46.885L21.9263 46.885C22.0909 47.374 22.2633 47.8863 22.4795 48.2611C23.1622 48.6721 24.0991 48.141 24.7558 47.7687C24.8474 47.7168 24.9336 47.668 25.0128 47.6252C25.0992 47.6041 25.1859 47.5833 25.2726 47.5625C25.3592 47.5417 25.4459 47.5209 25.5323 47.4998C25.6385 47.4141 25.7447 47.3281 25.8509 47.242C25.9571 47.156 26.0633 47.0699 26.1695 46.9842C27.5103 46.1065 29.3233 44.8577 30.2957 42.7313C31.3653 40.3924 31.9552 38.2826 31.9654 36.1881L32.1228 35.574C32.0985 35.439 32.0745 35.3037 32.0505 35.1684C32.0265 35.0331 32.0025 34.8978 31.9782 34.7628L32.0089 33.6356L31.9519 33.5066C31.8891 33.3645 31.8264 33.2228 31.7645 33.0803C31.7401 32.9206 31.7218 32.7278 31.7021 32.5213C31.6488 31.96 31.5857 31.2968 31.3641 30.918C31.3461 30.9001 31.3279 30.8822 31.3096 30.8642C31.2914 30.8463 31.2732 30.8284 31.2553 30.8105C29.45 30.9231 28.3599 31.5309 26.7529 32.5954C26.6443 32.6318 26.5354 32.6679 26.4265 32.704L26.426 32.7042C26.3169 32.7403 26.2078 32.7764 26.0991 32.8129C25.9281 32.987 25.7569 33.1608 25.5856 33.3346L25.5841 33.3362L25.5839 33.3364C25.4122 33.5107 25.2405 33.6849 25.0691 33.8595C24.1338 34.5338 22.7571 36.1216 22.1993 37.538C22.1788 37.6678 22.158 37.7977 22.1372 37.9275C22.1165 38.0574 22.0957 38.1873 22.0752 38.3171C21.9736 38.549 21.8724 38.7809 21.7711 39.0128L21.7707 39.0137C21.6693 39.246 21.5679 39.4782 21.4662 39.7105L21.4677 39.742C21.4787 39.9657 21.4898 40.1905 21.502 40.4142C21.1476 42.1811 21.0529 44.0619 21.6747 45.6203ZM7.2909 53.3044L8.72262 55.3886C9.59138 56.6169 10.5791 57.7492 12.2309 58.6538C13.2148 58.3071 14.0618 56.6463 14.4892 55.7226L14.8909 55.2325L14.8949 55.1923L14.8949 55.1922C14.9102 55.037 14.9254 54.8826 14.9395 54.7271C15.0048 54.6024 15.0704 54.4779 15.136 54.3534C15.2015 54.2291 15.2671 54.1047 15.3323 53.9799L15.3304 53.9557L15.3304 53.9555L15.3304 53.9553L15.3304 53.9551L15.3303 53.9549L15.3303 53.9547L15.3303 53.9545L15.3303 53.9543L15.3303 53.9543L15.3303 53.9542C15.322 53.8491 15.3138 53.7449 15.3067 53.6396C15.3988 53.4848 15.491 53.33 15.5818 53.1751C15.5735 53.0977 15.5648 53.0203 15.5562 52.9429L15.5562 52.9428L15.5562 52.9426L15.5562 52.9425L15.5561 52.9423L15.5561 52.9422L15.5561 52.942L15.5561 52.9418L15.5561 52.9417C15.5475 52.8647 15.5389 52.7877 15.5306 52.7107C15.8275 50.7186 15.9285 49.2574 15.3246 47.4483C15.3176 47.3242 15.3102 47.1997 15.3029 47.0753L15.3029 47.0752L15.3029 47.0749L15.3028 47.0746L15.3028 47.0743L15.3028 47.074L15.3028 47.0738C15.2955 46.9499 15.2881 46.826 15.2811 46.7024C15.1999 46.5354 15.1183 46.3684 15.0367 46.2014C14.9552 46.0344 14.8736 45.8675 14.7924 45.7005L14.5122 44.549L13.257 42.6874C12.8495 42.0766 12.354 41.485 11.8408 40.8721C11.7047 40.7096 11.5673 40.5456 11.43 40.3793C11.3538 40.2873 11.2863 40.1945 11.2192 40.1021C11.0359 39.8499 10.8547 39.6006 10.5036 39.3787L10.3987 39.3461L10.2938 39.3135C9.94671 39.4558 9.77946 39.6639 9.5467 39.9536L9.54669 39.9536C9.44053 40.0857 9.32074 40.2348 9.16404 40.4023C8.86329 40.7367 8.5615 41.0711 8.26056 41.4046L8.25787 41.4076L8.25738 41.4081L8.16862 41.5065C8.13407 41.6031 8.09921 41.7 8.06434 41.7969C8.02948 41.8938 7.99462 41.9907 7.96007 42.0873C7.86093 42.2255 7.76211 42.364 7.66328 42.5025C7.56443 42.641 7.46557 42.7795 7.3664 42.9177C7.31906 43.1135 7.27172 43.3105 7.22566 43.5063C7.17384 43.5741 7.12234 43.6419 7.07084 43.7097C7.01934 43.7775 6.96784 43.8453 6.91602 43.9131L6.91387 43.9256L6.91378 43.9261L6.91377 43.9262L6.91375 43.9263L6.91373 43.9264L6.91371 43.9265L6.9137 43.9266L6.91368 43.9267L6.91366 43.9268C6.88118 44.1155 6.8487 44.3041 6.81622 44.494C5.9206 47.0964 5.89502 49.3201 6.71644 51.563C6.79586 51.7808 6.85375 52.0021 6.91188 52.2244C7.0064 52.5857 7.10156 52.9495 7.2909 53.3044ZM9.30928 71.4426L9.37856 71.4667C9.78606 71.6089 10.5202 71.8651 10.8293 71.7202C11.0967 71.5961 11.4268 70.8745 11.4728 70.5994C11.4946 70.4586 11.5167 70.3175 11.5388 70.1764C11.5608 70.0354 11.5829 69.8944 11.6046 69.7537C11.6546 69.643 11.7048 69.5323 11.755 69.4216C11.8052 69.3109 11.8554 69.2003 11.9053 69.0897C11.9066 68.9353 11.9075 68.781 11.9085 68.6268C11.9095 68.4717 11.9104 68.3167 11.9117 68.1621L12.1113 67.6477L12.1102 67.6431L12.1102 67.6431L12.1101 67.643C12.0683 67.4731 12.0265 67.3033 11.9846 67.1347C11.9765 66.8508 12.0011 66.5912 12.0255 66.3331C12.051 66.0629 12.0764 65.7945 12.064 65.5021C12.055 65.2794 11.7774 64.4683 11.6916 64.2188C11.6247 64.0249 11.5917 63.7999 11.5587 63.5745C11.5262 63.3521 11.4935 63.1293 11.4281 62.9355C11.2988 62.5521 11.1026 62.2285 10.901 61.896L10.901 61.896C10.7635 61.6691 10.6234 61.4382 10.5005 61.1813C9.48201 59.0536 7.85966 57.2431 5.04741 55.4609C4.62805 55.3766 4.17572 55.0854 3.72714 54.7966C3.28337 54.511 2.84327 54.2277 2.44241 54.1494C2.0445 54.3337 1.16936 56.4448 1.10667 56.8951C1.09167 57.0007 1.09775 57.11 1.10398 57.2219C1.11262 57.3772 1.12152 57.5373 1.07467 57.6986C0.0447042 61.285 1.42909 65.6658 4.41791 68.4551C5.71912 69.6693 7.80592 70.9206 9.30928 71.4426ZM12.8635 85.8849C10.5796 86.3506 6.68878 85.0865 4.19383 82.7912L3.77215 82.467C3.49779 82.2561 3.22343 82.0452 2.95019 81.8354C1.48137 80.0454 0.227503 77.4852 0.231342 75.3946C0.231957 75.1602 0.174282 74.9062 0.116373 74.6512C0.0538657 74.376 -0.00891438 74.0995 0.00104804 73.8452L0.0760033 73.6248L0.150731 73.405C0.136659 73.2822 0.122268 73.1594 0.107876 73.0366L0.107869 73.0366C0.0934741 72.9137 0.0790796 72.7909 0.0650054 72.6681C0.10083 72.5599 0.136977 72.4522 0.173124 72.3444L0.173445 72.3434L0.173527 72.3432L0.173549 72.3431L0.173556 72.3431C0.209559 72.2357 0.24556 72.1283 0.281242 72.0207C0.303586 71.8697 0.295295 71.7231 0.287275 71.5813C0.264984 71.1871 0.244787 70.83 0.890263 70.5186C2.19147 70.9203 3.55793 71.3323 4.86298 71.6854L5.84299 72.2197L6.82952 72.7576C8.73591 73.9897 9.9514 75.3178 10.9187 76.7252C11.1618 76.9926 11.4062 77.26 11.6505 77.5275C11.6864 77.7066 11.7235 77.887 11.7606 78.0661C11.8252 78.1499 11.8898 78.234 11.9544 78.3181L11.9559 78.3201C12.02 78.4036 12.0841 78.4871 12.1482 78.5702C12.17 78.7161 12.193 78.8632 12.2161 79.0091C12.2827 79.1061 12.3496 79.2032 12.4165 79.3003L12.4182 79.3027L12.4199 79.3051C12.4868 79.4022 12.5537 79.4993 12.6204 79.5963C12.6236 79.6821 12.6264 79.7678 12.6293 79.8535L12.6301 79.8767C12.6327 79.9547 12.6354 80.0327 12.6383 80.1107C12.6877 80.2682 12.7601 80.4269 12.8329 80.5864L12.833 80.5865L12.833 80.5865C12.9523 80.848 13.0728 81.1119 13.095 81.3773L13.072 82.0068C13.1616 82.4047 13.2639 82.946 13.2601 83.349L13.1104 84.0041C13.1277 84.0866 13.1446 84.1694 13.1616 84.2523C13.1785 84.3351 13.1955 84.418 13.2127 84.5005C13.1117 84.7577 13.0119 85.0149 12.9121 85.272C12.891 85.3623 12.8982 85.4425 12.9055 85.5233C12.9155 85.6337 12.9255 85.7452 12.8635 85.8849ZM2.92888 93.4336L2.93333 93.4385C3.17623 93.7043 3.41912 93.9701 3.66074 94.2359C3.71204 94.3157 3.76238 94.4049 3.81466 94.4974C3.93319 94.7072 4.06169 94.9347 4.23393 95.1123L5.86524 96.3597C6.39366 96.8421 7.05514 97.1927 7.66417 97.4652L8.32471 97.8435L8.97561 98.2162L10.1514 98.412C10.4675 98.5348 10.7848 98.659 11.1008 98.7831C11.2684 98.7498 11.436 98.7165 11.6036 98.682C11.912 98.7638 12.219 98.8457 12.5274 98.9289C12.8662 98.9645 13.244 98.914 13.6038 98.8659L13.6039 98.8659C13.774 98.8431 13.94 98.821 14.096 98.8086C14.2385 98.7972 14.4224 98.7877 14.6304 98.777L14.6311 98.7769L14.6317 98.7769L14.6322 98.7769C15.4961 98.7324 16.7747 98.6664 17.2332 98.3532C17.9152 97.8887 17.1232 95.6893 16.8302 95.221C16.7694 95.124 16.7811 95.022 16.7928 94.9207C16.8017 94.843 16.8106 94.7657 16.7867 94.6913C16.7051 94.4373 16.5421 94.1562 16.3907 93.8949L16.3906 93.8948C16.3095 93.7547 16.2316 93.6203 16.1713 93.4989L16.1635 93.4909L16.1629 93.4902C16.0083 93.3306 15.8538 93.171 15.7004 93.0114C15.6671 92.9243 15.634 92.8372 15.6009 92.7502L15.6006 92.7493L15.6005 92.749L15.6003 92.7487L15.6002 92.7484C15.5548 92.6289 15.5095 92.5097 15.4637 92.3909C15.3188 92.1468 15.0902 91.9591 14.85 91.7618C14.7087 91.6458 14.5633 91.5264 14.4287 91.3903L13.9143 90.6956C13.3275 90.0898 12.5304 89.5869 11.7103 89.0696L11.5256 88.953L11.0885 88.7386L10.6517 88.5243C10.2802 88.3794 9.90878 88.2348 9.5374 88.0901L9.53452 88.089L9.53162 88.0879L9.52872 88.0867L9.52024 88.0834L9.51525 88.0815L9.51221 88.0803L9.51014 88.0795C8.9888 87.8764 8.46765 87.6735 7.94692 87.4701C7.842 87.4733 7.73709 87.4761 7.63217 87.479C7.52725 87.4819 7.42234 87.4848 7.31742 87.488C7.05385 87.3754 6.7903 87.2628 6.52801 87.1502C6.40218 87.1502 6.27635 87.1505 6.15053 87.1508L6.14609 87.1508C6.01878 87.1512 5.89147 87.1515 5.76417 87.1515C5.60303 87.1117 5.4415 87.0724 5.2798 87.033C5.15004 87.0013 5.02017 86.9697 4.8903 86.9378C4.82275 86.9586 4.75521 86.9791 4.68767 86.9997L4.68525 87.0004C4.6167 87.0212 4.54815 87.042 4.47959 87.0632C4.36605 87.0359 4.25219 87.009 4.13832 86.982L4.13498 86.9812C4.02029 86.954 3.9056 86.9269 3.79123 86.8994L3.78709 86.9006L3.78691 86.9007C3.63738 86.945 3.48785 86.9894 3.33832 87.0325C3.24288 87.0373 3.10655 87.0325 2.94689 87.027C2.25889 87.003 1.13771 86.9638 0.98921 87.6108C0.871607 88.1462 1.35798 89.5208 1.62779 90.2834C1.66619 90.3919 1.70021 90.4881 1.72747 90.5676C1.79116 90.7543 1.84629 90.9627 1.90262 91.1756C1.99566 91.5272 2.09194 91.8911 2.2354 92.19L2.77406 92.9014C2.8121 93.0282 2.84821 93.1537 2.88422 93.2788L2.8843 93.2791L2.92888 93.4336ZM19.4218 78.7666L19.4218 78.7661L19.4218 78.7657L19.4217 78.7652L19.4217 78.7648L19.4217 78.7643C19.415 78.6682 19.4083 78.5723 19.4006 78.4767C19.3328 78.3258 19.265 78.1735 19.1997 78.02C19.2325 77.8283 19.2653 77.6378 19.2981 77.4474L19.2995 77.4391C19.2942 77.3451 19.2715 77.2577 19.2487 77.17C19.211 77.0249 19.1731 76.8792 19.2138 76.7021C19.2362 76.633 19.2583 76.564 19.2804 76.4949L19.2806 76.4941C19.3026 76.4252 19.3246 76.3564 19.3469 76.2876C19.3469 76.2142 19.3141 76.1412 19.2817 76.0693C19.2532 76.0058 19.225 75.9432 19.2202 75.882L19.5196 75.003C19.5503 74.8794 19.5422 74.7445 19.5338 74.6056C19.5244 74.4496 19.5146 74.2886 19.5593 74.133C19.6444 73.9615 19.7291 73.7901 19.8139 73.6186C19.8987 73.4472 19.9834 73.2757 20.0685 73.1043C20.6775 71.2069 21.7932 69.6613 23.2787 68.323C23.4226 68.1541 23.5662 67.9852 23.7098 67.8163C23.8535 67.6474 23.9971 67.4785 24.141 67.3096C26.0461 65.8139 28.1381 64.9298 30.2095 64.2197C30.2768 64.246 30.344 64.2719 30.4113 64.2979C30.4783 64.3237 30.5454 64.3496 30.6125 64.3758C31.2766 64.8236 31.3853 66.9399 31.3674 67.6308L31.4519 67.8835L31.5363 68.1361C31.5541 68.511 31.5005 68.847 31.445 69.1943C31.4049 69.4457 31.3638 69.7029 31.3482 69.985C31.3429 70.0849 31.3508 70.184 31.3588 70.2849C31.372 70.4502 31.3855 70.62 31.3418 70.8051C31.301 70.8988 31.2598 70.9921 31.2186 71.0852L31.2184 71.0856C31.1899 71.15 31.1615 71.2142 31.1333 71.2785C31.1055 71.3987 31.1119 71.5283 31.1185 71.6619C31.1268 71.8297 31.1354 72.0039 31.077 72.1741C30.4923 73.8771 28.7394 76.5767 27.3474 77.727C27.2051 77.8054 27.0629 77.8835 26.9206 77.9615L26.9155 77.9643C26.7716 78.0433 26.6277 78.1223 26.4837 78.2017C26.3241 78.3421 26.1639 78.4819 26.0039 78.6216L25.78 78.8171C25.7071 78.835 25.6345 78.8532 25.5619 78.8715C25.4893 78.8897 25.4166 78.9079 25.3437 78.9258L24.7488 79.4325L24.2204 79.5169L23.9105 79.708L23.5998 79.8995C23.5218 79.9078 23.4434 79.9165 23.365 79.9251L23.2324 79.9397L23.1303 79.9507C22.5276 80.1989 20.4293 80.9653 19.842 80.6301C19.5119 80.0564 19.4666 79.4084 19.4218 78.7666ZM28.8284 50.266L28.6731 50.3325L28.672 50.333L28.6697 50.334C28.5017 50.406 28.3341 50.4778 28.1657 50.5488C28.0358 50.6608 27.9059 50.773 27.7761 50.8853C27.6462 50.9976 27.5163 51.1098 27.3865 51.2218L27.2338 51.2829L27.1175 51.3295C26.992 51.3799 26.8664 51.4303 26.7403 51.4803C26.5923 51.6468 26.4443 51.8131 26.2963 51.9794C26.1488 52.1451 26.0012 52.3109 25.8537 52.4769C24.715 53.4698 23.2333 54.9988 22.6166 56.703C22.5878 56.8452 22.5587 56.9876 22.5296 57.1301C22.5005 57.2723 22.4714 57.4145 22.4426 57.5564L21.9667 58.6427C21.9731 58.8499 21.9795 59.0572 21.9846 59.2645C21.9656 59.3901 21.9444 59.5221 21.9225 59.659L21.9224 59.6593C21.7328 60.8417 21.485 62.387 22.0869 63.2756C23.2794 63.575 24.6126 63.3089 25.6873 62.9429C25.9362 62.8583 26.2192 62.8148 26.4997 62.7718C26.7111 62.7393 26.921 62.7071 27.114 62.6576L27.4035 62.4699L27.6923 62.2827C27.8745 62.1987 28.0942 62.1246 28.3207 62.0481C28.6874 61.9244 29.072 61.7946 29.344 61.6072C29.4587 61.5085 29.5734 61.4102 29.6881 61.3119C29.8024 61.2138 29.9168 61.1157 30.0311 61.0173L30.1818 60.9528C30.3525 60.8797 30.5228 60.8068 30.6939 60.7346C30.9229 60.4659 31.1519 60.1972 31.3797 59.9285C31.5223 59.8249 31.6645 59.721 31.8068 59.6171C31.9492 59.5131 32.0916 59.4091 32.2343 59.3054C33.8529 57.9556 34.9161 54.5356 35.1643 53.0501L35.0875 52.3541C35.1233 52.2461 35.1594 52.1385 35.1955 52.0308L35.1965 52.028C35.2323 51.921 35.2682 51.814 35.3038 51.7067C35.3383 51.2628 35.1694 48.6654 34.9506 48.3929C33.5059 48.3785 32.2581 48.8277 30.9801 49.2877C30.4415 49.4816 29.8976 49.6774 29.3313 49.8413C29.1636 49.9833 28.996 50.1253 28.8284 50.266ZM25.7453 94.4844C25.3531 94.6207 24.818 94.8066 24.5272 94.4166C24.3722 94.1705 24.3215 93.8514 24.2747 93.5577C24.2427 93.3567 24.2126 93.1675 24.1523 93.022C22.26 88.43 25.7567 81.3123 30.9386 78.6434C31.1446 78.4809 31.3518 78.3171 31.5578 78.1534L32.1285 78.0612C32.3345 77.9713 32.5185 77.8693 32.6959 77.7709L32.6959 77.7709C33.0714 77.5627 33.4173 77.3708 33.8813 77.3447C34.4098 77.851 34.5602 78.6702 34.6917 79.3859C34.7349 79.6216 34.7762 79.846 34.8281 80.0444C35.5485 82.7888 35.4282 87.1595 32.2948 90.3594C32.0595 90.6292 31.824 90.8989 31.5884 91.1687C31.3525 91.4389 31.1166 91.709 30.881 91.9792L30.5991 92.1005L30.3193 92.221C30.2411 92.3018 30.1629 92.3823 30.0846 92.4628C30.0068 92.5429 29.9289 92.623 29.851 92.7034C29.7215 92.8062 29.5712 92.846 29.426 92.8844C29.3345 92.9086 29.245 92.9322 29.164 92.9708C29.033 93.0762 28.9021 93.1813 28.7711 93.2864C28.6398 93.3917 28.5084 93.4971 28.3771 93.6028C27.6695 93.915 26.7841 94.2336 26.0293 94.3961C25.9509 94.413 25.8536 94.4468 25.7453 94.4844ZM34.005 92.0894C33.402 92.6681 32.8732 93.4952 32.353 94.3087L32.3529 94.3089C32.1899 94.5638 32.0278 94.8174 31.8645 95.0616C31.336 95.8511 31.0865 96.6635 30.8972 97.3672C30.7526 97.6551 30.608 97.943 30.4634 98.2296C30.4417 98.4062 30.4196 98.583 30.3976 98.7599L30.3726 98.96L30.3317 99.2903C30.2859 99.4114 30.2404 99.5326 30.1948 99.6536C30.1322 99.8202 30.0697 99.9866 30.0067 100.153C30.0438 100.332 30.0809 100.512 30.1167 100.691L30.1149 100.697C30.0515 100.88 29.9882 101.064 29.9248 101.247L30.0361 102C30.063 103.683 30.2152 104.568 30.8191 106.134C30.8473 106.308 30.8754 106.482 30.9049 106.656C31.0666 107.014 31.3005 107.352 31.5339 107.689C31.8138 108.093 32.0929 108.496 32.2457 108.932C32.8325 109.5 33.2215 109.202 33.6434 108.879L33.6435 108.879L33.6435 108.879L33.6436 108.879C33.7985 108.761 33.9578 108.639 34.1329 108.555C35.548 107.879 38.3168 104.939 39.0371 102.874L39.0947 102.195L39.0947 102.195L39.0948 102.194L39.0948 102.194L39.0949 102.194C39.3008 101.78 39.5067 101.365 39.7127 100.95C39.7503 100.81 39.7258 100.669 39.7023 100.533C39.685 100.433 39.6682 100.336 39.6768 100.245C39.7064 99.9483 39.765 99.6769 39.8224 99.4111C39.9018 99.0435 39.9789 98.6864 39.9737 98.2884C39.9487 98.2022 39.924 98.1159 39.8993 98.0297L39.8984 98.0266L39.8975 98.0236L39.8462 97.8446L39.8214 97.7587C39.7325 96.59 39.4866 95.5257 39.2281 94.4069L39.1663 94.1391L39.0486 93.9688L39.0485 93.9687L39.0485 93.9686C38.9218 93.7854 38.7956 93.6027 38.6686 93.4201C38.6315 93.241 38.5944 93.0606 38.5586 92.8814C38.4914 92.8015 38.4239 92.7215 38.3564 92.6415C38.2889 92.5616 38.2215 92.4816 38.1543 92.4016C38.1389 92.3255 38.1233 92.2497 38.1076 92.1739C38.0919 92.0981 38.0762 92.0223 38.0609 91.9461L38.0603 91.9454C37.8135 91.6642 37.5668 91.383 37.3201 91.103C37.2664 91.0141 37.2318 90.9263 37.1977 90.8395C37.1226 90.6489 37.0496 90.4635 36.7814 90.2841C36.7224 90.2847 36.665 90.2843 36.6089 90.2838C36.3092 90.2813 36.0471 90.2791 35.7668 90.4441L35.4725 90.7785L35.4722 90.779C35.2634 91.0161 35.0549 91.2531 34.8469 91.4907C34.5857 91.6739 34.3266 91.8593 34.0688 92.0438L34.005 92.0894ZM15.452 62.6451L15.5978 62.2926C15.6278 62.1483 15.6198 62.0081 15.6116 61.8655C15.6027 61.7098 15.5936 61.5513 15.6336 61.3817C15.7821 61.0362 15.9292 60.6908 16.0763 60.3453L16.0994 59.7158C16.2468 59.3727 16.393 59.0296 16.5391 58.6864L16.5421 58.6794L16.7071 57.5689C16.8018 57.3917 16.8965 57.2148 16.9912 57.0379C17.0858 56.861 17.1805 56.6841 17.2752 56.5069C17.3716 56.2701 17.435 56.0525 17.5 55.8296L17.5 55.8296C17.5765 55.5671 17.6551 55.2974 17.7921 54.9805C17.8308 54.8911 17.8766 54.7833 17.9286 54.661C18.4272 53.4875 19.492 50.9817 20.2231 50.6572C20.3574 50.7084 20.4918 50.7609 20.6261 50.8133C20.9142 51.02 21.2026 51.2267 21.491 51.4334L21.4961 51.4371L21.5013 51.4408C21.7897 51.6474 22.0781 51.8541 22.3662 52.0608C22.3736 52.5429 22.1914 52.8307 21.9577 53.1996C21.8292 53.4024 21.6852 53.6298 21.5486 53.9275C21.393 54.304 21.2371 54.6804 21.0812 55.0569L21.0796 55.0608C20.9245 55.4354 20.7694 55.8099 20.6146 56.1845C20.5046 56.375 20.3946 56.5659 20.2847 56.7567C20.1746 56.9478 20.0645 57.1389 19.9544 57.3296C19.9378 57.462 19.9214 57.5948 19.9051 57.7276C19.8888 57.8603 19.8725 57.993 19.8559 58.1254L19.5964 58.7024L19.5947 58.7063L19.5923 58.7115C19.4353 59.0605 19.2781 59.4099 19.1215 59.7593C19.1122 59.9041 19.1032 60.0485 19.0942 60.1928C19.0847 60.347 19.0751 60.5009 19.0652 60.6549L18.5892 61.6337C18.4522 62.5138 18.2763 63.3988 18.0996 64.2879L18.0996 64.2881C17.9775 64.9022 17.8551 65.5183 17.7448 66.1361C17.674 66.5326 17.6782 67.1981 17.6811 67.6681L17.6811 67.669C17.6815 67.7341 17.6819 67.7955 17.6821 67.8519C17.6833 68.207 17.6127 68.5514 17.542 68.8965C17.4678 69.2589 17.3933 69.622 17.4019 69.9988C17.4135 70.5254 17.429 71.0546 17.4445 71.5852V71.5852V71.5853C17.4786 72.7501 17.5129 73.9217 17.5068 75.0872C17.5462 75.2081 17.5854 75.329 17.6245 75.4499L17.6252 75.4521C17.6645 75.5736 17.7038 75.695 17.7435 75.8165C17.723 76.1966 17.7733 76.5227 17.8243 76.8528C17.8529 77.0383 17.8817 77.2251 17.8983 77.4235C17.8861 77.5233 17.8737 77.6228 17.8612 77.7222C17.8487 77.8217 17.8362 77.9212 17.8241 78.021C17.8325 78.3448 17.8962 78.6779 17.9603 79.0129C18.0132 79.2896 18.0664 79.5676 18.0889 79.843C18.1631 80.0234 18.2361 80.2025 18.309 80.3816L18.2937 80.8371C18.3215 81.0178 18.39 81.2073 18.4588 81.3979L18.4588 81.3979C18.545 81.6366 18.6318 81.8769 18.6404 82.1038C18.6568 82.5357 18.7695 82.8982 18.8893 83.2834C18.9282 83.4084 18.9677 83.5357 19.005 83.6686L19.0319 84.2239C19.1448 84.5434 19.2478 84.8592 19.3507 85.1746L19.3507 85.1748L19.3508 85.175C19.4926 85.6097 19.634 86.0436 19.8009 86.4847C19.8021 86.5634 19.8037 86.6422 19.8053 86.7209C19.8069 86.7995 19.8085 86.8782 19.8098 86.9568C19.9681 87.4702 20.1594 87.9693 20.35 88.4668C20.6203 89.172 20.8893 89.8739 21.0611 90.6084C21.1903 90.8131 21.3196 91.0178 21.4488 91.2212C21.522 91.4137 21.5857 91.6303 21.65 91.849L21.65 91.8491L21.65 91.8492L21.65 91.8493C21.7306 92.1234 21.8121 92.4007 21.9145 92.6376C22.0044 92.7742 22.0949 92.9102 22.1856 93.0464L22.2932 93.2082L22.3623 93.7546C22.4931 93.9362 22.6239 94.1165 22.7548 94.2969L22.7556 94.2981L22.7577 94.3009C22.8268 94.4791 22.8965 94.6792 22.9676 94.8832L22.9677 94.8832C23.0742 95.189 23.1838 95.5034 23.2989 95.7659L23.7198 96.3288C23.7442 96.428 23.7681 96.5275 23.7921 96.627C23.8161 96.7264 23.8401 96.8259 23.8644 96.9251L24.302 97.4624C24.3237 97.6083 24.3468 97.7554 24.3698 97.9013L24.8496 98.5385C24.9585 98.7406 25.0568 98.9925 25.1566 99.2481C25.276 99.5541 25.3975 99.8655 25.5418 100.103L26.0382 100.715L26.1994 101.287C26.3551 101.449 26.512 101.611 26.669 101.773L26.6703 101.774C26.7013 101.871 26.732 101.968 26.7628 102.065L26.7629 102.065L26.7636 102.068L26.7936 102.162C26.8147 102.229 26.8358 102.295 26.8571 102.361C27.0611 102.78 27.3256 103.114 27.6007 103.46L27.6008 103.46C27.7743 103.679 27.9519 103.903 28.1212 104.157C28.2197 104.304 28.2728 104.468 28.3247 104.629C28.3659 104.756 28.4063 104.881 28.4679 104.993C28.624 105.156 28.7814 105.318 28.9388 105.481C29.027 105.693 29.1139 105.905 29.2008 106.117L29.201 106.118C29.2951 106.203 29.3891 106.288 29.4832 106.374C29.5772 106.459 29.6713 106.545 29.7653 106.63L29.8811 106.918C29.9466 107.081 30.0123 107.244 30.0775 107.408C30.3206 107.675 30.565 107.943 30.8093 108.21L30.936 108.508L31.0627 108.806L31.6768 109.459L32.0146 110.146C32.1477 110.325 32.3054 110.474 32.4572 110.616C32.679 110.825 32.8883 111.022 32.9908 111.287C33.0827 111.522 33.269 111.713 33.4624 111.911C33.5947 112.047 33.7304 112.186 33.8416 112.345C33.9118 112.475 33.982 112.604 34.0521 112.733C34.0924 112.807 34.1327 112.881 34.173 112.956C34.2033 113.011 34.2336 113.067 34.2639 113.123L34.3467 113.192C34.5203 113.337 34.6947 113.483 34.8691 113.627L35.6866 114.844C35.8065 114.976 35.9344 115.1 36.0588 115.22L36.0589 115.22C36.4735 115.621 36.848 115.983 36.7486 116.507C36.6501 117.029 35.8235 117.494 35.5177 117.637C35.3952 117.694 35.2948 117.751 35.2021 117.803C34.9986 117.917 34.8326 118.01 34.553 118.045C33.9422 117.633 33.6222 117.142 33.3257 116.688L33.3257 116.688C33.2465 116.566 33.169 116.447 33.0881 116.333C32.7861 116.027 32.4829 115.722 32.1796 115.416C32.0536 115.192 31.9276 114.967 31.8016 114.741L31.7996 114.738L31.6561 114.613L31.4674 114.448L31.4657 114.447L31.464 114.445C31.3545 114.35 31.2451 114.255 31.1356 114.159C31.0218 114.026 30.9602 113.858 30.9018 113.698C30.8669 113.603 30.8332 113.511 30.7901 113.431C30.501 113.122 30.2118 112.813 29.9227 112.505C29.8485 112.325 29.7755 112.146 29.7026 111.966C29.6063 111.868 29.5098 111.769 29.4132 111.67C29.316 111.571 29.2187 111.471 29.1217 111.371C28.9478 111.057 28.7752 110.742 28.6026 110.427L28.6024 110.427L28.5984 110.42C28.4935 110.315 28.3883 110.21 28.283 110.105C28.1778 110.001 28.0726 109.896 27.9677 109.791C27.9387 109.702 27.9095 109.612 27.8802 109.523L27.8797 109.521L27.8787 109.518L27.853 109.439L27.7898 109.245C27.5423 108.872 27.2928 108.566 27.0473 108.265C26.7763 107.932 26.5101 107.605 26.257 107.202C26.2123 107.089 26.1672 106.975 26.1221 106.862C26.077 106.749 26.0319 106.636 25.9871 106.522C25.8928 106.418 25.7986 106.315 25.7043 106.211C25.6105 106.108 25.5166 106.005 25.4228 105.902C25.3985 105.82 25.3745 105.739 25.3505 105.657C25.3265 105.576 25.3025 105.494 25.2782 105.413L24.7984 104.883C24.7525 104.764 24.707 104.644 24.6614 104.524C24.6283 104.437 24.5951 104.35 24.5617 104.263L24.0231 103.659L23.9211 103.323L23.8196 102.988C23.7479 102.906 23.6762 102.823 23.6045 102.74C23.5329 102.657 23.4613 102.574 23.3897 102.492C23.2669 102.208 23.1428 101.924 23.0187 101.64C22.8869 101.493 22.7551 101.347 22.6234 101.201L22.4967 100.795L22.37 100.39C20.6274 97.2373 19.2801 94.1448 17.9815 90.9206C17.9783 90.8348 17.9754 90.7491 17.9725 90.6634C17.9696 90.5777 17.9668 90.492 17.9636 90.4062C17.8275 90.0622 17.6935 89.7337 17.5606 89.4079L17.5601 89.4067L17.56 89.4066L17.5599 89.4063C17.3807 88.9669 17.2034 88.5323 17.0257 88.0712C17.0168 87.9759 17.0081 87.8806 16.9995 87.7852C16.9908 87.6899 16.9822 87.5946 16.9733 87.4993C16.9492 87.4674 16.9251 87.4353 16.9011 87.4031L16.8675 87.3583L16.805 87.2748L16.7621 87.2178L16.7775 86.7623L16.4819 86.2825C16.4435 86.1178 16.433 85.9347 16.4223 85.7504V85.7504C16.4085 85.511 16.3946 85.2698 16.3194 85.0645C15.5863 83.057 15.1654 80.516 15.0349 78.3793C14.9949 78.2886 14.9541 78.1986 14.9132 78.1082L14.8749 78.0236C14.7419 77.2508 14.7432 76.3808 14.7675 75.5875C14.7764 75.3215 14.6973 75.0218 14.6196 74.7276C14.5635 74.5152 14.5082 74.3056 14.4873 74.1136L14.5871 73.6415C14.5973 73.0849 14.5269 72.4797 14.4565 71.9423L14.6139 71.2207C14.6155 70.9497 14.6089 70.6817 14.6023 70.414C14.5827 69.6224 14.5631 68.8336 14.7572 67.9798C14.745 67.7555 14.734 67.5312 14.723 67.308L14.723 67.3079L14.723 67.3078L14.7214 67.2749C14.7534 67.1284 14.785 66.982 14.8167 66.8355C14.8484 66.689 14.88 66.5424 14.912 66.3959C14.8903 65.879 14.9555 65.1228 15.0246 64.6059C15.1339 64.2629 15.2444 63.9199 15.3549 63.5769L15.3551 63.5763L15.3573 63.5695C15.349 63.4743 15.3404 63.3791 15.3317 63.2839L15.3317 63.2836L15.3317 63.2833C15.323 63.1881 15.3144 63.0928 15.3061 62.9976L15.452 62.6451ZM25.0502 108.455C25.1871 108.628 25.3253 108.802 25.4622 108.976C25.4699 109.073 25.4781 109.17 25.4862 109.267C25.4928 109.347 25.4994 109.426 25.5057 109.504C25.5631 109.656 25.6547 109.832 25.7517 110.018C25.9724 110.442 26.2209 110.919 26.1569 111.293C25.9847 111.833 25.7342 111.857 25.4473 111.884C25.3208 111.896 25.1872 111.909 25.0502 111.967C24.926 112.04 24.8023 112.114 24.6789 112.187C24.6013 112.233 24.5238 112.279 24.4463 112.325C23.8356 112.539 23.175 112.583 22.5181 112.626C22.3465 112.637 22.1752 112.649 22.0051 112.663L21.4101 112.847C21.1097 112.869 20.8258 112.834 20.5379 112.799C20.3244 112.774 20.1086 112.747 19.8825 112.744L19.1353 112.828C19.0029 112.795 18.8858 112.739 18.7739 112.685C18.6057 112.604 18.4493 112.529 18.2703 112.548C18.1539 112.579 18.0362 112.609 17.9185 112.64C17.4732 112.457 17.028 112.273 16.5827 112.089C13.2996 111.239 10.6512 108.391 9.69284 106.073C9.62843 105.917 9.52714 105.706 9.41037 105.463C8.96117 104.529 8.28279 103.119 8.59251 102.521C8.74732 102.458 9.51756 102.184 9.65702 102.178L10.0178 102.235C10.0852 102.208 10.1526 102.18 10.22 102.152C10.2869 102.124 10.3539 102.097 10.4209 102.069C10.5062 102.077 10.5918 102.085 10.6774 102.093C10.7626 102.101 10.8478 102.109 10.9326 102.118C12.9299 101.625 15.8714 101.99 18.0938 102.646C18.2339 102.726 18.3741 102.806 18.5143 102.886C18.6543 102.965 18.7943 103.045 18.9344 103.125C19.2176 103.253 19.5064 103.389 19.788 103.521C20.0788 103.657 20.362 103.79 20.6233 103.908C20.7679 103.99 20.9121 104.073 21.0564 104.155C21.2006 104.238 21.3449 104.32 21.4895 104.403C21.7823 104.614 22.0013 104.859 22.2018 105.083C22.2571 105.145 22.311 105.205 22.3646 105.263C22.5676 105.419 22.7703 105.576 22.9731 105.733C23.1766 105.89 23.3801 106.047 23.5839 106.204C24.184 106.825 24.7367 107.745 25.0502 108.455Z" fill="#384250"/>
<path fill-rule="evenodd" clip-rule="evenodd" d="M41 115H157V146H41V115ZM103.554 132.317L109.952 127.492L101.923 127.429L99.3507 120L96.9042 127.429L89 127.365L95.2731 132.254L92.8894 140L99.5389 135.238L105.624 139.619L103.554 132.317ZM76.9524 127.492L70.5539 132.317L72.6238 139.619L66.5389 135.238L59.8894 140L62.2731 132.254L56 127.365L63.9042 127.429L66.3507 120L68.9226 127.429L76.9524 127.492ZM136.554 132.317L142.952 127.492L134.923 127.429L132.351 120L129.904 127.429L122 127.365L128.273 132.254L125.889 140L132.539 135.238L138.624 139.619L136.554 132.317ZM37.8246 121.959H5L21.8492 137.979L5 153.999H52.1775V149.439H37.8246V121.959ZM160.526 121.959V149.439H146.173V153.999H193.351L176.502 137.979L193.351 121.959H160.526Z" fill="#384250"/>
<rect x="59" y="103" width="80" height="8" fill="#384250"/>
<path d="M145.1 7.14529H132.396C132.442 5.73813 132.468 4.32267 132.468 2.90041C132.468 1.29839 131.169 0 129.567 0H67.4335C65.8322 0 64.5331 1.29839 64.5331 2.90041C64.5331 4.32267 64.5588 5.73813 64.6048 7.14529H51.9004C50.2984 7.14529 49 8.44368 49 10.0457C49 23.0417 52.3967 35.3027 58.5638 44.5712C64.66 53.7339 72.7804 58.9894 81.5526 59.5008C83.5413 61.6647 85.6434 63.4292 87.8331 64.7751V77.6661H82.9673C77.0849 77.6661 72.3 82.4518 72.3 88.3334V93.1992H72.0938C70.4918 93.1992 69.1934 94.4983 69.1934 96.0996C69.1934 97.7016 70.4918 99 72.0938 99H124.907C126.509 99 127.807 97.7016 127.807 96.0996C127.807 94.4983 126.509 93.1992 124.907 93.1992H124.701V88.3334C124.701 82.4518 119.916 77.6661 114.033 77.6661H109.168V64.7751C111.357 63.4299 113.46 61.6647 115.449 59.5008C124.22 58.9894 132.341 53.7339 138.438 44.5712C144.605 35.3027 148.001 23.0417 148.001 10.0457C148.001 8.44368 146.702 7.14529 145.1 7.14529ZM63.3933 41.3581C58.3062 33.7135 55.3175 23.7147 54.862 12.9461H64.9289C65.975 26.1838 69.0823 38.4199 73.939 48.1325C74.7125 49.6794 75.5214 51.1409 76.3606 52.5171C71.5364 50.6953 67.0717 46.887 63.3933 41.3581ZM118.9 88.3334V93.1999H78.1008V88.3334C78.1008 85.6506 80.2837 83.4669 82.9673 83.4669H114.033C116.717 83.4669 118.9 85.6506 118.9 88.3334ZM103.367 77.6661H93.6339V67.2956C95.2283 67.7156 96.853 67.9339 98.5004 67.9339C100.148 67.9339 101.772 67.7156 103.367 67.2956V77.6661ZM105.163 60.3951C105.032 60.4487 104.907 60.5136 104.787 60.5854C102.737 61.6051 100.63 62.133 98.5004 62.133C96.3711 62.133 94.2653 61.6051 92.2161 60.5869C92.0945 60.5136 91.9684 60.4487 91.8362 60.3935C89.562 59.1911 87.3617 57.3753 85.2808 54.9893C85.1713 54.8329 85.0482 54.6886 84.9115 54.5572C82.8457 52.1047 80.9023 49.088 79.1273 45.538C73.797 34.8782 70.7184 20.8618 70.3679 5.80083H126.633C126.282 20.8618 123.203 34.879 117.873 45.538C116.098 49.088 114.155 52.1047 112.09 54.5572C111.953 54.6886 111.828 54.8337 111.719 54.99C109.638 57.3768 107.437 59.1918 105.163 60.3951ZM133.607 41.3581C129.929 46.887 125.464 50.6953 120.64 52.5171C121.479 51.1409 122.288 49.6794 123.062 48.1325C127.918 38.4199 131.025 26.1838 132.072 12.9461H142.139C141.683 23.7147 138.695 33.7135 133.607 41.3581Z" fill="#384250"/>
</svg>
