<svg width="199" height="148" viewBox="0 0 199 148" fill="none" xmlns="http://www.w3.org/2000/svg">
<path fill-rule="evenodd" clip-rule="evenodd" d="M131.09 31.9503C131.09 49.5684 116.637 63.9007 98.8725 63.9007C81.1081 63.9007 66.6553 49.5684 66.6553 31.9503C66.6553 14.3323 81.1081 0 98.8725 0C116.637 0 131.09 14.3323 131.09 31.9503ZM125.187 31.9516C125.187 17.5623 113.382 5.85498 98.8725 5.85498C84.3627 5.85498 72.5582 17.561 72.5569 31.9516C72.5569 46.3409 84.3627 58.0483 98.8725 58.0483C113.382 58.0483 125.187 46.3409 125.187 31.9516ZM103.995 71.3786L100.675 75.3886L106.669 90.2067L98.9112 98.0829L98.9151 98.1684L98.8723 98.1308L98.8308 98.1853L98.836 98.1296L91.0752 90.3L97.0701 75.579L93.7507 71.3786L95.5944 68.374H95.6941H102.051H102.15L103.995 71.3786ZM116.057 71.2188V71.2188L116.057 71.221C115.781 73.3393 115.402 76.2403 113.246 79.57C112.271 81.0782 110.84 82.2092 110.118 82.6018C108.687 83.3766 108.162 85.1555 108.945 86.5742C109.728 87.9916 111.521 88.5138 112.951 87.7364C114.391 86.9551 116.633 85.1762 118.215 82.7314C121.086 78.2951 121.603 74.337 121.912 71.9724C121.913 71.9615 121.914 71.9507 121.916 71.9397L121.916 71.9396C121.918 71.927 121.919 71.9143 121.921 71.9012C136.665 75.4603 144.598 88.6058 144.598 99.0227C144.598 99.7107 144.476 102.061 144.299 102.061H150.272C150.47 100.765 150.501 99.0551 150.501 99.0227C150.501 91.1038 147.266 83.0877 141.393 76.9852C136.088 71.4736 128.811 67.3587 121.425 65.9529C119.839 65.651 118.743 65.9879 118.101 66.4479C116.533 67.5733 116.302 69.3435 116.057 71.2188ZM52.9016 99.0229C52.9016 99.7109 53.0234 102.061 53.2009 102.061L47.2293 102.06C47.0324 100.764 47 99.054 47 99.0216C47 91.1027 50.2352 82.7951 56.1083 76.6913C61.4126 71.1797 68.6902 67.2125 76.0766 65.8054C77.6612 65.5061 78.7586 65.9894 79.3986 66.4494C80.9668 67.5747 81.198 69.3459 81.4428 71.2209L81.4431 71.2238L81.4446 71.2348C81.7217 73.3522 82.1012 76.2514 84.2534 79.5741C85.229 81.0822 86.6594 82.2185 87.3823 82.6111C88.8127 83.3872 89.3374 85.1739 88.5549 86.5926C87.7723 88.01 85.9792 88.5503 84.5488 87.7729C83.1093 86.9929 80.8666 85.2503 79.2846 82.8054C76.4122 78.3692 75.8965 74.4836 75.5882 72.119C75.5869 72.1074 75.5853 72.1321 75.5837 72.1567C75.582 72.1816 75.5804 72.2066 75.5791 72.1942C60.8348 75.7533 52.9016 88.606 52.9016 99.0229Z" fill="#384250"/>
<path d="M9.30928 65.4426C9.69696 65.5769 10.5017 65.8738 10.8293 65.7202C11.0967 65.5961 11.4268 64.8745 11.4728 64.5994C11.5163 64.3179 11.5611 64.0352 11.6046 63.7537C11.7044 63.5324 11.8055 63.311 11.9053 63.0897C11.9079 62.78 11.9091 62.4704 11.9117 62.1621C11.9782 61.9906 12.0448 61.8192 12.1113 61.6477C12.0691 61.4763 12.0269 61.3048 11.9846 61.1347C11.968 60.5538 12.0883 60.074 12.064 59.5021C12.055 59.2794 11.7774 58.4683 11.6916 58.2188C11.5586 57.8336 11.5599 57.3257 11.4281 56.9355C11.2106 56.2906 10.8037 55.8147 10.5005 55.1813C9.48201 53.0536 7.85966 51.2431 5.04741 49.4609C4.2132 49.2932 3.24847 48.3068 2.44241 48.1494C2.0445 48.3337 1.16936 50.4448 1.10667 50.8951C1.07084 51.1472 1.15528 51.421 1.07467 51.6986C0.0447042 55.285 1.42909 59.6658 4.41791 62.4551C5.71912 63.6693 7.80592 64.9206 9.30928 65.4426Z" fill="#384250"/>
<path d="M4.19383 76.7912C6.68878 79.0865 10.5796 80.3506 12.8635 79.8849C12.9709 79.6431 12.8622 79.4857 12.9121 79.272C13.0119 79.0148 13.1117 78.7577 13.2127 78.5005C13.1782 78.3355 13.1449 78.1691 13.1104 78.0041C13.1603 77.7853 13.2102 77.5678 13.2601 77.349C13.2639 76.946 13.1616 76.4047 13.072 76.0068C13.0797 75.797 13.0874 75.5872 13.095 75.3773C13.0592 74.95 12.7688 74.5265 12.6383 74.1107C12.6319 73.9392 12.6268 73.7678 12.6204 73.5963C12.486 73.4006 12.3504 73.2048 12.2161 73.0091C12.193 72.8632 12.17 72.7161 12.1482 72.5702C12.019 72.4026 11.8898 72.2337 11.7606 72.0661C11.7235 71.887 11.6864 71.7066 11.6505 71.5275C11.4062 71.26 11.1618 70.9926 10.9187 70.7252C9.9514 69.3178 8.73591 67.9897 6.82952 66.7576C6.17443 66.4006 5.51807 66.0424 4.86298 65.6854C3.55793 65.3323 2.19147 64.9203 0.890263 64.5186C0.0125531 64.9421 0.365687 65.45 0.281242 66.0207C0.209593 66.2369 0.136655 66.4518 0.0650054 66.6681C0.0931536 66.9137 0.122583 67.1594 0.150731 67.405C0.100832 67.5522 0.050947 67.698 0.00104804 67.8452C-0.0181439 68.3352 0.232621 68.9071 0.231342 69.3946C0.227503 71.4852 1.48137 74.0454 2.95019 75.8354C3.36346 76.1527 3.77929 76.4726 4.19383 76.7912Z" fill="#384250"/>
<path d="M187.506 55.1784C187.203 55.8117 186.796 56.289 186.578 56.9325C186.446 57.3228 186.448 57.832 186.315 58.2158C186.228 58.4653 185.951 59.2778 185.942 59.4991C185.918 60.0711 186.038 60.5509 186.022 61.1317C185.979 61.3032 185.937 61.4746 185.895 61.6448C185.962 61.8162 186.028 61.9877 186.095 62.1591C186.097 62.4688 186.098 62.7784 186.101 63.0867C186.201 63.3081 186.302 63.5294 186.402 63.7508C186.445 64.0323 186.49 64.315 186.533 64.5965C186.58 64.8716 186.91 65.5919 187.177 65.7173C187.505 65.8696 188.309 65.574 188.697 65.4397C190.202 64.9176 192.288 63.6663 193.59 62.4521C196.578 59.6629 197.963 55.2808 196.933 51.6957C196.854 51.4181 196.937 51.1443 196.901 50.8922C196.838 50.4406 195.963 48.3294 195.565 48.1465C194.759 48.3026 193.794 49.2903 192.96 49.4579C190.147 51.2402 188.524 53.0519 187.506 55.1784Z" fill="#384250"/>
<path d="M158.296 94.9499C158.502 95.3644 158.708 95.779 158.914 96.1948C158.933 96.4213 158.952 96.6477 158.971 96.8742C159.691 98.9393 162.459 101.878 163.876 102.555C164.528 102.867 164.962 103.709 165.763 102.932C166.042 102.134 166.747 101.444 167.104 100.656C167.132 100.482 167.16 100.308 167.189 100.134C167.793 98.5695 167.946 97.6828 167.972 96.0003C168.01 95.7496 168.047 95.4975 168.084 95.2467C168.02 95.0612 167.956 94.8757 167.892 94.6915C167.929 94.5123 167.966 94.3319 168.002 94.1528C167.893 93.8649 167.786 93.577 167.677 93.2904C167.633 92.9373 167.589 92.5829 167.545 92.2298C167.401 91.9419 167.256 91.654 167.111 91.3674C166.922 90.6637 166.673 89.8512 166.144 89.0618C165.46 88.0383 164.794 86.8496 164.004 86.0896C163.725 85.89 163.444 85.6904 163.166 85.4908C162.858 85.1416 162.551 84.7935 162.246 84.4443C161.913 84.2472 161.605 84.2882 161.231 84.2843C160.841 84.5466 160.863 84.8191 160.692 85.1032C160.445 85.3847 160.198 85.6661 159.952 85.9463C159.921 86.0986 159.889 86.2496 159.858 86.4018C159.724 86.5618 159.588 86.7217 159.454 86.8816C159.417 87.0608 159.38 87.2412 159.344 87.4203C159.177 87.6608 159.012 87.9001 158.846 88.1393C158.566 89.3574 158.287 90.4974 158.191 91.7589C158.14 91.9355 158.09 92.1121 158.039 92.2886C158.031 92.9744 158.265 93.5387 158.336 94.2449C158.353 94.4612 158.231 94.7094 158.296 94.9499Z" fill="#384250"/>
<path d="M179.072 97.1245C178.496 97.3855 177.897 97.676 177.383 97.9075C177.094 98.0726 176.806 98.2376 176.517 98.4027C176.143 98.6726 175.89 98.9963 175.642 99.2625C175.235 99.5759 174.829 99.8907 174.422 100.204C173.822 100.825 173.27 101.745 172.956 102.455C172.819 102.629 172.681 102.801 172.544 102.975C172.53 103.152 172.515 103.329 172.501 103.505C172.313 104.003 171.758 104.756 171.849 105.294C172.098 106.072 172.508 105.779 172.956 105.968C173.157 106.087 173.358 106.206 173.56 106.326C174.33 106.596 175.181 106.595 176.001 106.664C176.2 106.726 176.398 106.787 176.596 106.848C177.119 106.886 177.593 106.754 178.124 106.745C178.373 106.773 178.622 106.801 178.871 106.829C179.204 106.749 179.438 106.517 179.736 106.549C179.854 106.58 179.971 106.61 180.088 106.641C180.533 106.457 180.978 106.273 181.424 106.09C184.707 105.24 187.354 102.392 188.313 100.074C188.626 99.3188 189.804 97.2742 189.414 96.5219C189.259 96.4592 188.489 96.1867 188.349 96.179C188.229 96.1982 188.109 96.2174 187.988 96.2366C187.854 96.1815 187.72 96.1252 187.585 96.0702C187.415 96.0869 187.244 96.1022 187.074 96.1188C185.078 95.6275 182.135 95.9922 179.913 96.6473C179.632 96.8059 179.352 96.9659 179.072 97.1245Z" fill="#384250"/>
<path d="M182.424 47.1775C182.517 47.3323 182.609 47.4871 182.701 47.6419C182.692 47.7558 182.683 47.8684 182.675 47.9823C182.806 48.2317 182.937 48.48 183.068 48.7295C183.085 48.8983 183.101 49.066 183.117 49.2348C183.251 49.3986 183.384 49.5611 183.518 49.7249C183.947 50.6486 184.794 52.3094 185.777 52.6561C187.43 51.7515 188.416 50.6192 189.285 49.3909C189.762 48.6962 190.239 48.0014 190.717 47.3067C191.022 46.7335 191.083 46.1373 191.292 45.5679C192.115 43.325 192.089 41.1013 191.193 38.4989C191.159 38.3057 191.126 38.1125 191.093 37.918C190.989 37.7824 190.887 37.6468 190.783 37.5112C190.736 37.3154 190.688 37.1184 190.642 36.9226C190.444 36.6462 190.247 36.3686 190.049 36.0922C189.98 35.899 189.909 35.7045 189.84 35.5114C189.509 35.1429 189.176 34.7744 188.845 34.4072C188.343 33.8724 188.219 33.5256 187.715 33.3184C187.645 33.3401 187.576 33.3619 187.505 33.3836C187.025 33.6868 186.863 34.0413 186.579 34.3842C185.924 35.1761 185.267 35.9195 184.752 36.6923C184.333 37.3128 183.915 37.9334 183.497 38.5539C183.403 38.9378 183.31 39.3216 183.216 39.7054C183.054 40.0394 182.89 40.3733 182.728 40.7072C182.714 40.9555 182.698 41.205 182.684 41.4532C182.08 43.2623 182.18 44.7222 182.478 46.7156C182.458 46.8678 182.441 47.0227 182.424 47.1775Z" fill="#384250"/>
<path d="M178.49 69.003C178.424 68.7407 178.534 68.426 178.45 68.133C178.28 67.7901 178.111 67.4472 177.941 67.1043C177.33 65.2069 176.215 63.6613 174.731 62.323C174.443 61.9852 174.156 61.6474 173.868 61.3096C171.962 59.8139 169.871 58.9311 167.8 58.2197C167.665 58.2722 167.531 58.3247 167.397 58.3758C166.733 58.8236 166.624 60.9399 166.642 61.6308C166.586 61.7997 166.529 61.9673 166.473 62.1362C166.444 62.781 166.624 63.3133 166.661 63.985C166.675 64.2485 166.597 64.5083 166.667 64.8051C166.737 64.9625 166.807 65.1199 166.876 65.2785C166.939 65.5498 166.827 65.8683 166.932 66.1741C167.517 67.8771 169.27 70.578 170.662 71.727C170.95 71.8857 171.238 72.043 171.526 72.2017C171.76 72.4064 171.994 72.6111 172.229 72.8171C172.375 72.8529 172.52 72.89 172.666 72.9258C172.864 73.0947 173.062 73.2636 173.261 73.4325C173.437 73.4607 173.612 73.4888 173.789 73.517C173.996 73.6449 174.202 73.7716 174.409 73.8995C174.566 73.9162 174.723 73.9341 174.879 73.9507C175.482 74.1989 177.58 74.9653 178.167 74.6301C178.547 73.9699 178.55 73.2112 178.609 72.4768C178.676 72.3245 178.744 72.1735 178.811 72.0213C178.778 71.8281 178.744 71.6349 178.711 71.4404C178.725 71.1909 178.862 70.9862 178.797 70.7034C178.752 70.5652 178.708 70.4271 178.664 70.2889C178.664 70.1507 178.78 70.0125 178.79 69.8833C178.689 69.589 178.589 69.296 178.49 69.003Z" fill="#384250"/>
<path d="M176.463 47.9259C176.774 48.6782 177.086 49.4305 177.397 50.1828C177.617 50.5641 177.837 50.9467 178.057 51.328C178.09 51.5928 178.122 51.859 178.156 52.1238C178.4 52.6689 178.646 53.2139 178.89 53.7577C178.909 54.0558 178.927 54.3539 178.946 54.6533C179.105 54.9795 179.264 55.3058 179.422 55.6321C179.654 57.1201 179.997 58.6222 180.267 60.1345C180.347 60.5861 180.331 61.3871 180.329 61.8502C180.327 62.5783 180.625 63.2615 180.61 63.9972C180.573 65.6797 180.496 67.3878 180.505 69.0856C180.425 69.3287 180.347 69.5718 180.268 69.8149C180.299 70.4086 180.159 70.8704 180.113 71.4219C180.137 71.6215 180.163 71.8198 180.187 72.0194C180.172 72.6105 179.972 73.2336 179.923 73.8414C179.85 74.0205 179.777 74.1996 179.702 74.38C179.708 74.5323 179.713 74.6832 179.718 74.8355C179.654 75.2436 179.386 75.694 179.37 76.1022C179.348 76.6741 179.156 77.1257 179.005 77.6669C178.996 77.8525 178.987 78.0367 178.978 78.2222C178.708 78.9822 178.497 79.7218 178.209 80.483C178.206 80.6404 178.203 80.7978 178.199 80.9552C177.817 82.1962 177.241 83.3542 176.948 84.6067C176.819 84.8102 176.689 85.0149 176.56 85.2196C176.395 85.6533 176.28 86.2086 176.094 86.636C175.968 86.8266 175.841 87.016 175.716 87.2066C175.693 87.3883 175.67 87.5713 175.647 87.7529C175.515 87.9346 175.383 88.1163 175.251 88.2993C175.079 88.7445 174.902 89.3267 174.71 89.7642C174.569 89.9523 174.43 90.1391 174.289 90.3272C174.24 90.5255 174.193 90.7251 174.144 90.9234C173.999 91.1026 173.853 91.2817 173.707 91.4608C173.684 91.6067 173.661 91.7538 173.639 91.8997C173.479 92.1121 173.319 92.3244 173.159 92.5368C172.92 92.9808 172.732 93.664 172.467 94.1016C172.302 94.305 172.136 94.5098 171.971 94.7132C171.917 94.9038 171.863 95.0945 171.81 95.2851C171.652 95.4476 171.495 95.6101 171.339 95.7726C171.276 95.9683 171.215 96.1641 171.152 96.3599C170.819 97.0431 170.325 97.4986 169.888 98.1549C169.712 98.4198 169.68 98.7358 169.541 98.9917C169.384 99.1542 169.226 99.3167 169.07 99.4792C168.983 99.6916 168.896 99.904 168.808 100.116C168.62 100.287 168.432 100.458 168.244 100.628C168.14 100.888 168.035 101.148 167.931 101.406C167.687 101.673 167.443 101.941 167.2 102.208C167.115 102.407 167.031 102.606 166.946 102.805C166.742 103.022 166.537 103.24 166.332 103.457C166.22 103.686 166.107 103.915 165.994 104.144C165.667 104.584 165.191 104.839 165.018 105.285C164.865 105.682 164.441 105.952 164.167 106.343C164.027 106.603 163.886 106.862 163.745 107.121C163.543 107.289 163.341 107.458 163.14 107.626C162.867 108.031 162.595 108.437 162.322 108.842C161.803 109.417 161.131 109.824 161.26 110.506C161.36 111.028 162.185 111.492 162.491 111.635C162.883 111.82 163.048 111.992 163.456 112.043C164.23 111.521 164.537 110.873 164.921 110.332C165.224 110.026 165.527 109.72 165.829 109.414C165.956 109.188 166.083 108.961 166.209 108.736C166.431 108.543 166.652 108.351 166.873 108.158C167.056 107.943 167.104 107.643 167.219 107.43C167.508 107.121 167.797 106.812 168.086 106.503C168.159 106.324 168.232 106.145 168.306 105.965C168.5 105.766 168.694 105.568 168.887 105.37C169.061 105.053 169.235 104.735 169.411 104.418C169.62 104.208 169.831 104 170.041 103.79C170.1 103.608 170.16 103.425 170.219 103.243C170.74 102.459 171.27 101.969 171.752 101.2C171.841 100.974 171.932 100.747 172.022 100.521C172.21 100.313 172.398 100.107 172.586 99.9001C172.633 99.7376 172.682 99.5739 172.731 99.4114C172.891 99.2348 173.051 99.0582 173.211 98.8817C173.29 98.6744 173.368 98.4671 173.447 98.2611C173.626 98.0603 173.807 97.8581 173.986 97.6572C174.054 97.4333 174.121 97.2107 174.189 96.9868C174.333 96.8217 174.476 96.6554 174.619 96.4904C174.743 96.2063 174.867 95.9223 174.99 95.6382C175.122 95.4924 175.254 95.3465 175.386 95.1994C175.47 94.9294 175.554 94.6582 175.639 94.3882C177.382 91.2343 178.729 88.1432 180.027 84.9189C180.034 84.7475 180.039 84.576 180.045 84.4046C180.365 83.596 180.674 82.8731 180.983 82.0696C181.001 81.8789 181.018 81.6883 181.034 81.4976C181.105 81.4042 181.175 81.3108 181.246 81.2162C181.24 81.0639 181.235 80.9129 181.23 80.7607C181.329 80.6007 181.427 80.4408 181.526 80.2809C181.614 79.9022 181.555 79.4275 181.688 79.0628C182.421 77.0554 182.842 74.5143 182.973 72.3776C183.026 72.2587 183.08 72.1409 183.133 72.022C183.266 71.2492 183.264 70.3791 183.24 69.5859C183.226 69.1278 183.47 68.5687 183.52 68.1119C183.487 67.9545 183.454 67.7972 183.421 67.6398C183.41 67.0833 183.481 66.4793 183.551 65.9407C183.499 65.7002 183.446 65.4596 183.394 65.2191C183.387 64.1469 183.511 63.1208 183.25 61.9782C183.262 61.7441 183.273 61.5086 183.286 61.2732C183.222 60.9802 183.16 60.6872 183.096 60.3942C183.117 59.876 183.051 59.1199 182.983 58.6043C182.872 58.2588 182.76 57.9133 182.65 57.5679C182.667 57.3773 182.685 57.1866 182.702 56.996C182.604 56.7606 182.507 56.5264 182.41 56.291C182.347 55.989 182.451 55.705 182.379 55.3787C182.232 55.0333 182.085 54.6878 181.936 54.3424C181.929 54.1325 181.921 53.9227 181.913 53.7129C181.766 53.3674 181.619 53.022 181.471 52.6765C181.416 52.3068 181.361 51.9357 181.306 51.566C181.116 51.2115 180.927 50.8584 180.738 50.504C180.528 49.9884 180.474 49.5636 180.221 48.9776C179.811 48.0295 178.596 45.0113 177.79 44.6543C177.655 44.7068 177.521 44.7592 177.387 44.8104C176.807 45.2262 176.226 45.642 175.647 46.0579C175.634 46.8063 176.078 47.0866 176.463 47.9259Z" fill="#384250"/>
<path d="M166.041 30.1875C166.053 32.282 166.641 34.3918 167.711 36.7307C168.685 38.8571 170.498 40.1059 171.838 40.9836C172.051 41.155 172.263 41.3278 172.476 41.4992C172.648 41.5414 172.822 41.5824 172.995 41.6246C173.642 41.9752 174.75 42.7288 175.528 42.2605C175.851 41.7014 176.076 40.8365 176.323 40.1993C176.327 40.0061 176.329 39.8129 176.333 39.6197C176.955 38.0613 176.86 36.1805 176.506 34.4161C176.517 34.182 176.529 33.9466 176.542 33.7124C176.338 33.248 176.136 32.7835 175.933 32.3191C175.892 32.0594 175.849 31.7996 175.809 31.5399C175.251 30.1235 173.874 28.5357 172.939 27.8615C172.596 27.5122 172.253 27.1642 171.909 26.8149C171.691 26.7419 171.472 26.6703 171.255 26.5974C169.648 25.5328 168.558 24.9251 166.753 24.8125C166.715 24.8483 166.68 24.8841 166.642 24.92C166.339 25.4382 166.333 26.4886 166.242 27.0823C166.16 27.2678 166.078 27.452 165.998 27.6375C166.008 28.0137 166.018 28.3886 166.028 28.7648C165.98 29.0347 165.932 29.306 165.884 29.5759C165.935 29.7781 165.989 29.9828 166.041 30.1875Z" fill="#384250"/>
<path d="M165.876 72.0642C165.235 71.7839 164.806 71.3848 164.123 71.3477C163.42 72.0194 163.386 73.2464 163.176 74.0473C162.456 76.7918 162.576 81.1624 165.709 84.3623C166.18 84.9023 166.652 85.4422 167.123 85.9821C167.31 86.0627 167.498 86.1433 167.685 86.2239C167.841 86.3852 167.997 86.5451 168.153 86.7063C168.364 86.8726 168.631 86.8726 168.84 86.9737C169.102 87.1848 169.365 87.3946 169.627 87.6058C170.334 87.9179 171.22 88.2365 171.975 88.399C172.338 88.4771 173.106 88.9172 173.477 88.4195C173.738 88.005 173.703 87.3831 173.849 87.0287C175.741 82.4367 172.245 75.3191 167.063 72.6502C166.857 72.4864 166.65 72.3226 166.444 72.1601C166.256 72.1268 166.066 72.0961 165.876 72.0642Z" fill="#384250"/>
<path d="M162.92 46.3577C162.894 46.5893 162.868 46.8222 162.843 47.0538C163.091 48.5405 164.154 51.9592 165.773 53.309C166.058 53.5163 166.342 53.7249 166.628 53.9321C166.857 54.2008 167.086 54.4695 167.313 54.7382C167.535 54.8329 167.755 54.9276 167.976 55.021C168.205 55.218 168.434 55.4138 168.663 55.6108C169.103 55.914 169.838 56.0663 170.315 56.2863C170.508 56.4117 170.7 56.5358 170.893 56.6612C171.342 56.7764 171.882 56.7981 172.32 56.9465C173.395 57.3125 174.728 57.5786 175.92 57.2792C176.593 56.2889 176.207 54.4785 176.023 53.2681C176.029 53.0608 176.035 52.8536 176.04 52.6463C175.882 52.2842 175.723 51.9221 175.565 51.56C175.507 51.276 175.448 50.9906 175.391 50.7066C174.774 49.0024 173.292 47.4734 172.153 46.4806C171.858 46.1479 171.562 45.8165 171.267 45.4838C171.052 45.3981 170.837 45.3111 170.621 45.2254C170.361 45.0015 170.101 44.7763 169.841 44.5524C169.62 44.4577 169.4 44.3631 169.179 44.2697C169.011 44.1289 168.844 43.9869 168.676 43.8461C166.766 43.2947 165.109 42.3773 163.057 42.3978C162.839 42.6716 162.67 45.2689 162.703 45.7116C162.775 45.9266 162.847 46.1428 162.92 46.3577Z" fill="#384250"/>
<path d="M197.943 66.6661C197.871 66.4499 197.798 66.2349 197.726 66.0187C197.643 65.448 197.996 64.9414 197.117 64.5166C195.816 64.9184 194.45 65.3303 193.145 65.6835C192.49 66.0404 191.833 66.3987 191.178 66.7557C189.272 67.9878 188.056 69.3159 187.089 70.7233C186.845 70.9907 186.6 71.2581 186.357 71.5255C186.32 71.7046 186.283 71.885 186.247 72.0641C186.118 72.2318 185.989 72.4006 185.859 72.5682C185.836 72.7141 185.813 72.8612 185.792 73.0071C185.657 73.2029 185.522 73.3986 185.387 73.5944C185.381 73.7658 185.376 73.9373 185.369 74.1087C185.24 74.5245 184.949 74.948 184.913 75.3754C184.92 75.5852 184.928 75.7951 184.936 76.0049C184.846 76.4028 184.744 76.944 184.748 77.347C184.798 77.5658 184.847 77.7833 184.897 78.0021C184.863 78.1672 184.83 78.3335 184.795 78.4985C184.895 78.7557 184.995 79.0129 185.096 79.27C185.146 79.4837 185.037 79.6411 185.144 79.8829C187.429 80.3486 191.319 79.0845 193.814 76.7892C194.228 76.4693 194.644 76.1507 195.059 75.8309C196.528 74.0422 197.783 71.4807 197.778 69.3901C197.776 68.9026 198.028 68.3307 198.008 67.8406C197.958 67.6935 197.908 67.5476 197.858 67.4005C197.886 67.1574 197.915 66.9117 197.943 66.6661Z" fill="#384250"/>
<path d="M194.665 81.0364C194.514 80.9916 194.363 80.9468 194.212 80.9033C193.983 80.9583 193.753 81.0121 193.524 81.0671C193.387 81.0249 193.25 80.9839 193.113 80.9417C192.822 81.0134 192.531 81.0837 192.239 81.1554C191.985 81.1554 191.73 81.1541 191.476 81.1541C191.212 81.2667 190.95 81.3793 190.686 81.4919C190.476 81.4855 190.266 81.4804 190.057 81.474C189.155 81.8258 188.253 82.1764 187.352 82.5282C187.06 82.6715 186.77 82.8136 186.478 82.9569C185.594 83.516 184.721 84.0482 184.089 84.6995C183.918 84.9311 183.746 85.1627 183.575 85.3942C183.211 85.7614 182.77 86.0058 182.54 86.3948C182.46 86.602 182.382 86.8093 182.303 87.0153C182.146 87.1778 181.988 87.3403 181.832 87.5028C181.659 87.8495 181.341 88.305 181.217 88.6952C181.162 88.8667 181.281 89.0535 181.173 89.2249C180.882 89.692 180.09 91.8926 180.77 92.3571C181.341 92.746 183.174 92.7537 183.907 92.8125C184.394 92.8509 184.978 92.9853 185.477 92.9328C185.786 92.8509 186.093 92.769 186.401 92.6859C186.569 92.7191 186.736 92.7524 186.904 92.787C187.22 92.6629 187.537 92.54 187.853 92.4159C188.245 92.3507 188.638 92.2854 189.029 92.2201C189.467 91.9694 189.903 91.7199 190.341 91.4691C190.95 91.1966 191.611 90.846 192.14 90.3637C192.683 89.9478 193.227 89.532 193.771 89.1162C194.019 88.859 194.175 88.4995 194.344 88.2398C194.588 87.9724 194.833 87.7049 195.076 87.4375C195.127 87.261 195.177 87.0844 195.228 86.9078C195.407 86.6711 195.588 86.4332 195.767 86.1965C195.997 85.7167 196.106 85.068 196.275 84.5741C196.494 83.9356 197.147 82.2288 197.013 81.6173C196.831 80.8176 195.173 81.062 194.665 81.0364Z" fill="#384250"/>
<path d="M7.2909 47.3044C7.76814 47.9991 8.24538 48.6939 8.72262 49.3886C9.59138 50.6169 10.5791 51.7492 12.2309 52.6538C13.2148 52.3071 14.0618 50.6463 14.4892 49.7226C14.6235 49.5588 14.7566 49.3963 14.8909 49.2325C14.9075 49.0636 14.9242 48.896 14.9395 48.7271C15.07 48.4776 15.2018 48.2294 15.3323 47.9799C15.3234 47.8661 15.3144 47.7535 15.3067 47.6396C15.3988 47.4848 15.491 47.33 15.5818 47.1751C15.5652 47.0203 15.5473 46.8655 15.5306 46.7107C15.8275 44.7186 15.9285 43.2574 15.3246 41.4483C15.3106 41.2001 15.2952 40.9506 15.2811 40.7024C15.1187 40.3684 14.9549 40.0345 14.7924 39.7005C14.699 39.3167 14.6056 38.9329 14.5122 38.549C14.0938 37.9285 13.6754 37.308 13.257 36.6874C12.7414 35.9146 12.085 35.1725 11.43 34.3793C11.1459 34.0364 10.9834 33.682 10.5036 33.3787C10.4333 33.357 10.3642 33.3352 10.2938 33.3135C9.78841 33.5207 9.66431 33.8675 9.16404 34.4023C8.83266 34.7708 8.5 35.1393 8.16862 35.5065C8.09953 35.6997 8.02916 35.8941 7.96007 36.0873C7.76176 36.3637 7.56471 36.6414 7.3664 36.9177C7.31906 37.1135 7.27172 37.3105 7.22566 37.5063C7.12202 37.6419 7.01966 37.7775 6.91602 37.9131C6.88276 38.1063 6.84949 38.2995 6.81622 38.494C5.9206 41.0964 5.89502 43.3201 6.71644 45.563C6.92499 46.1349 6.98511 46.7312 7.2909 47.3044Z" fill="#384250"/>
<path d="M2.92888 87.4336C3.17326 87.701 3.41764 87.9684 3.66074 88.2359C3.82835 88.4969 3.98572 88.8564 4.23393 89.1123C4.77771 89.5281 5.32147 89.9439 5.86524 90.3597C6.39366 90.8421 7.05514 91.1927 7.66417 91.4652C8.10174 91.716 8.53803 91.9655 8.97561 92.2162C9.36712 92.2815 9.75992 92.3467 10.1514 92.412C10.4675 92.5348 10.7848 92.6589 11.1008 92.7831C11.2684 92.7498 11.436 92.7165 11.6036 92.682C11.912 92.7639 12.219 92.8457 12.5274 92.9289C13.0264 92.9814 13.6098 92.847 14.096 92.8086C14.8304 92.7498 16.6639 92.7421 17.2332 92.3532C17.9152 91.8887 17.1232 89.6893 16.8302 89.221C16.7227 89.0496 16.8417 88.8628 16.7867 88.6913C16.6613 88.3011 16.344 87.8469 16.1713 87.4989C16.0139 87.3364 15.8565 87.1739 15.7004 87.0114C15.6211 86.8041 15.5431 86.5969 15.4637 86.3909C15.2334 86.0032 14.792 85.7575 14.4287 85.3903C14.2572 85.1588 14.0858 84.9272 13.9143 84.6956C13.2836 84.0443 12.4097 83.5121 11.5256 82.953C11.2338 82.8097 10.9434 82.6676 10.6517 82.5243C9.74968 82.1725 8.84766 81.8219 7.94692 81.4701C7.73709 81.4764 7.52725 81.4816 7.31742 81.488C7.05385 81.3754 6.7903 81.2628 6.52801 81.1502C6.27339 81.1502 6.01878 81.1515 5.76417 81.1515C5.47373 81.0798 5.18202 81.0094 4.8903 80.9378C4.7534 80.98 4.6165 81.021 4.47959 81.0632C4.25057 81.0082 4.02025 80.9544 3.79123 80.8994C3.64025 80.9442 3.48929 80.989 3.33832 81.0325C2.83165 81.0581 1.17217 80.8137 0.98921 81.6108C0.854866 82.2224 1.50868 83.9292 1.72747 84.5676C1.89636 85.0628 2.0051 85.7102 2.2354 86.19C2.41453 86.4267 2.59494 86.6647 2.77406 86.9014C2.8278 87.0805 2.8777 87.2571 2.92888 87.4336Z" fill="#384250"/>
<path d="M19.4006 72.4767C19.4595 73.2112 19.462 73.9699 19.842 74.6301C20.4293 74.9653 22.5276 74.1989 23.1303 73.9507C23.2863 73.9341 23.4437 73.9161 23.5998 73.8995C23.8071 73.7716 24.0131 73.6449 24.2204 73.5169C24.3969 73.4888 24.5722 73.4607 24.7488 73.4325C24.9471 73.2636 25.1454 73.0947 25.3437 72.9258C25.4896 72.89 25.6342 72.8529 25.78 72.8171C26.0142 72.6124 26.2496 72.4077 26.4837 72.2017C26.7716 72.043 27.0595 71.8856 27.3474 71.727C28.7394 70.5767 30.4923 67.8771 31.077 66.1741C31.1819 65.8683 31.0706 65.5498 31.1333 65.2785C31.2024 65.1211 31.2727 64.9637 31.3418 64.8051C31.4122 64.507 31.3342 64.2485 31.3482 63.985C31.3853 63.3133 31.567 62.7823 31.5363 62.1361C31.48 61.9673 31.4237 61.7997 31.3674 61.6308C31.3853 60.9399 31.2766 58.8236 30.6125 58.3758C30.4782 58.3234 30.3439 58.2722 30.2095 58.2197C28.1381 58.9298 26.0461 59.8139 24.141 61.3096C23.8531 61.6474 23.5665 61.9852 23.2787 62.323C21.7932 63.6613 20.6775 65.2069 20.0685 67.1043C19.8983 67.4472 19.7294 67.7901 19.5593 68.133C19.4748 68.4273 19.5849 68.7407 19.5196 69.003C19.4198 69.296 19.32 69.589 19.2202 69.882C19.2305 70.0125 19.3469 70.1494 19.3469 70.2876C19.3021 70.4258 19.2586 70.564 19.2138 70.7021C19.1486 70.9862 19.2855 71.1896 19.2995 71.4391C19.2663 71.6323 19.233 71.8255 19.1997 72.02C19.265 72.1735 19.3328 72.3258 19.4006 72.4767Z" fill="#384250"/>
<path d="M28.8284 44.266C28.6071 44.3607 28.387 44.4554 28.1657 44.5488C27.9059 44.7727 27.6462 44.9979 27.3865 45.2218C27.1715 45.3075 26.9566 45.3945 26.7403 45.4803C26.4448 45.8129 26.1492 46.1443 25.8537 46.4769C24.715 47.4698 23.2333 48.9988 22.6166 50.703C22.5591 50.9871 22.5002 51.2724 22.4426 51.5564C22.284 51.9185 22.1253 52.2806 21.9667 52.6427C21.9731 52.8499 21.9795 53.0572 21.9846 53.2645C21.8016 54.4749 21.4152 56.284 22.0869 57.2756C23.2794 57.575 24.6126 57.3089 25.6873 56.9429C26.1236 56.7945 26.6649 56.7728 27.1139 56.6576C27.3071 56.5322 27.4991 56.4081 27.6923 56.2827C28.1695 56.0627 28.9039 55.9104 29.344 55.6072C29.5731 55.4101 29.8021 55.2144 30.0311 55.0173C30.2525 54.9227 30.4725 54.828 30.6939 54.7346C30.9229 54.4659 31.1519 54.1972 31.3797 53.9285C31.665 53.7213 31.949 53.5127 32.2343 53.3054C33.8529 51.9556 34.9161 48.5356 35.1643 47.0501C35.1387 46.8186 35.1131 46.5857 35.0875 46.3541C35.1592 46.1379 35.2321 45.923 35.3038 45.7067C35.3383 45.2628 35.1694 42.6654 34.9506 42.3929C32.8971 42.3724 31.2415 43.2885 29.3313 43.8413C29.1636 43.9833 28.996 44.1253 28.8284 44.266Z" fill="#384250"/>
<path d="M24.5272 88.4166C24.8982 88.9143 25.6672 88.4742 26.0293 88.3961C26.7841 88.2336 27.6695 87.915 28.3771 87.6028C28.6394 87.3917 28.9017 87.1819 29.164 86.9708C29.3738 86.871 29.6399 86.871 29.851 86.7034C30.0071 86.5422 30.1632 86.3822 30.3193 86.221C30.5061 86.1404 30.6942 86.0598 30.881 85.9792C31.3518 85.4393 31.8239 84.8993 32.2948 84.3594C35.4282 81.1595 35.5485 76.7888 34.8281 74.0444C34.6183 73.2434 34.5837 72.0177 33.8813 71.3447C33.1981 71.3831 32.7708 71.781 32.1285 72.0612C31.9378 72.0919 31.7485 72.1226 31.5578 72.1534C31.3518 72.3171 31.1446 72.4809 30.9386 72.6434C25.7567 75.3123 22.26 82.43 24.1523 87.022C24.3007 87.3802 24.2662 88.002 24.5272 88.4166Z" fill="#384250"/>
<path d="M34.005 86.0894C33.213 86.8494 32.549 88.0381 31.8645 89.0616C31.336 89.8511 31.0865 90.6635 30.8972 91.3672C30.7526 91.6551 30.608 91.943 30.4634 92.2296C30.4199 92.5827 30.3752 92.9371 30.3317 93.2903C30.2229 93.5781 30.1154 93.866 30.0067 94.1526C30.0438 94.3317 30.0809 94.5121 30.1167 94.6913C30.0527 94.8768 29.9888 95.0623 29.9248 95.2465C29.9619 95.4973 29.999 95.7494 30.0361 96.0001C30.063 97.6826 30.2152 98.568 30.8191 100.134C30.8473 100.308 30.8754 100.482 30.9049 100.656C31.2606 101.444 31.9655 102.133 32.2457 102.932C33.048 103.709 33.4804 102.867 34.1329 102.555C35.548 101.879 38.3168 98.9391 39.0371 96.874C39.0563 96.6476 39.0755 96.4211 39.0947 96.1946C39.3007 95.7801 39.5067 95.3655 39.7127 94.9497C39.7779 94.7079 39.6564 94.461 39.6768 94.2447C39.7472 93.5385 39.9826 92.9742 39.9737 92.2884C39.9225 92.1119 39.8726 91.9353 39.8214 91.7587C39.7255 90.4972 39.4465 89.3572 39.1663 88.1391C39 87.8986 38.835 87.6594 38.6686 87.4201C38.6315 87.241 38.5944 87.0606 38.5586 86.8814C38.4243 86.7215 38.2886 86.5616 38.1543 86.4016C38.1236 86.2494 38.0916 86.0984 38.0609 85.9461C37.8139 85.6647 37.567 85.3832 37.3201 85.103C37.1486 84.8189 37.1717 84.5451 36.7814 84.2841C36.4065 84.288 36.0995 84.2483 35.7668 84.4441C35.4597 84.7934 35.1527 85.1414 34.8469 85.4907C34.5641 85.689 34.2839 85.8898 34.005 86.0894Z" fill="#384250"/>
<path d="M15.5978 56.2926C15.5006 56.5281 15.4033 56.7622 15.3061 56.9976C15.3227 57.1883 15.3407 57.3789 15.3573 57.5695C15.246 57.915 15.1347 58.2605 15.0246 58.6059C14.9555 59.1228 14.8903 59.879 14.912 60.3959C14.8481 60.6889 14.7854 60.9819 14.7214 61.2749C14.7329 61.509 14.7444 61.7444 14.7572 61.9798C14.4975 63.1224 14.6203 64.1485 14.6139 65.2207C14.5615 65.4613 14.509 65.7018 14.4565 65.9423C14.5269 66.4797 14.5973 67.0849 14.5871 67.6415C14.5538 67.7988 14.5205 67.9562 14.4873 68.1136C14.5372 68.5716 14.7828 69.1295 14.7675 69.5875C14.7432 70.3808 14.7419 71.2508 14.8749 72.0236C14.9287 72.1426 14.9824 72.2603 15.0349 72.3793C15.1654 74.516 15.5863 77.057 16.3194 79.0645C16.4525 79.4278 16.3937 79.9038 16.4819 80.2825C16.5805 80.4424 16.679 80.6024 16.7775 80.7623C16.7724 80.9146 16.7673 81.0668 16.7621 81.2178C16.8325 81.3112 16.9029 81.4059 16.9733 81.4993C16.9912 81.6899 17.0078 81.8806 17.0257 82.0712C17.3353 82.8747 17.6437 83.5976 17.9636 84.4062C17.97 84.5777 17.9751 84.7491 17.9815 84.9206C19.2801 88.1448 20.6274 91.2373 22.37 94.3898C22.4545 94.6598 22.5389 94.9311 22.6234 95.201C22.7551 95.3469 22.8869 95.4927 23.0187 95.6399C23.1428 95.9239 23.2669 96.208 23.3897 96.492C23.533 96.6571 23.6763 96.8234 23.8196 96.9884C23.8875 97.2123 23.9553 97.435 24.0231 97.6589C24.2022 97.8598 24.3826 98.0619 24.5617 98.2628C24.6411 98.4701 24.7191 98.6773 24.7984 98.8833C24.9584 99.0599 25.1183 99.2365 25.2782 99.413C25.3268 99.5755 25.3742 99.7393 25.4228 99.9018C25.6109 100.109 25.799 100.315 25.9871 100.522C26.0766 100.749 26.1675 100.975 26.257 101.202C26.7394 101.971 27.2691 102.461 27.7898 103.245C27.8487 103.427 27.9088 103.61 27.9677 103.791C28.1775 104.001 28.3886 104.21 28.5984 104.42C28.7724 104.737 28.9464 105.054 29.1217 105.371C29.3149 105.57 29.5094 105.768 29.7026 105.966C29.7755 106.146 29.8485 106.325 29.9227 106.505C30.2118 106.813 30.501 107.122 30.7901 107.431C30.9053 107.645 30.9539 107.946 31.1356 108.159C31.3569 108.353 31.5783 108.545 31.7996 108.738C31.9263 108.964 32.053 109.191 32.1796 109.416C32.4829 109.722 32.7861 110.027 33.0881 110.333C33.4719 110.874 33.779 111.523 34.553 112.045C34.9599 111.994 35.1262 111.82 35.5177 111.637C35.8235 111.494 36.6501 111.029 36.7486 110.507C36.8778 109.825 36.2061 109.418 35.6866 108.844C35.4141 108.438 35.1416 108.033 34.8691 107.627C34.6669 107.46 34.4647 107.291 34.2639 107.123C34.1231 106.863 33.9824 106.605 33.8416 106.345C33.5678 105.954 33.1456 105.682 32.9908 105.287C32.8181 104.84 32.3421 104.587 32.0146 104.146C31.902 103.917 31.7894 103.688 31.6768 103.459C31.4721 103.241 31.2674 103.024 31.0627 102.806C30.9782 102.608 30.8938 102.408 30.8093 102.21C30.565 101.943 30.3206 101.675 30.0775 101.408C29.9738 101.148 29.8689 100.888 29.7653 100.63C29.5772 100.46 29.3891 100.288 29.201 100.118C29.114 99.9056 29.027 99.6932 28.9388 99.4808C28.7814 99.3183 28.624 99.1558 28.4679 98.9934C28.3285 98.7387 28.2978 98.4214 28.1212 98.1566C27.6836 97.5002 27.1897 97.0447 26.8571 96.3615C26.7944 96.1657 26.733 95.97 26.6703 95.7742C26.5129 95.6117 26.3555 95.4492 26.1994 95.2868C26.1457 95.0961 26.092 94.9055 26.0382 94.7148C25.8732 94.5114 25.7068 94.3067 25.5418 94.1032C25.2769 93.667 25.0889 92.9825 24.8496 92.5385C24.6897 92.3261 24.5297 92.1137 24.3698 91.9013C24.3468 91.7554 24.3238 91.6083 24.302 91.4624C24.1561 91.2833 24.0103 91.1042 23.8644 90.9251C23.8158 90.7268 23.7685 90.5272 23.7198 90.3288C23.5791 90.1408 23.4396 89.954 23.2989 89.7659C23.107 89.3283 22.9304 88.7462 22.7577 88.3009C22.6259 88.1192 22.4941 87.9375 22.3623 87.7546C22.3393 87.5729 22.3163 87.3899 22.2932 87.2082C22.1666 87.0176 22.0399 86.8282 21.9145 86.6376C21.7303 86.2115 21.6139 85.655 21.4488 85.2212C21.3196 85.0178 21.1903 84.8131 21.0611 84.6084C20.7681 83.3558 20.1924 82.1979 19.8098 80.9568C19.8073 80.7994 19.8034 80.642 19.8009 80.4847C19.513 79.7234 19.3006 78.9839 19.0319 78.2239C19.0229 78.0383 19.014 77.8541 19.005 77.6686C18.8528 77.1261 18.6621 76.6757 18.6404 76.1038C18.625 75.6957 18.3563 75.244 18.2937 74.8371C18.2988 74.6849 18.3039 74.5326 18.309 74.3816C18.2361 74.2025 18.1631 74.0234 18.0889 73.843C18.039 73.234 17.8394 72.6121 17.8241 72.021C17.8484 71.8214 17.874 71.6231 17.8983 71.4235C17.8522 70.8721 17.7115 70.4102 17.7435 69.8165C17.6642 69.5734 17.5861 69.3303 17.5068 69.0872C17.5157 67.3907 17.439 65.6813 17.4019 63.9988C17.3852 63.2631 17.6846 62.5799 17.6821 61.8519C17.6808 61.3887 17.6642 60.5878 17.7448 60.1361C18.0147 58.6238 18.3576 57.1217 18.5892 55.6337C18.7479 55.3074 18.9065 54.9812 19.0652 54.6549C19.0844 54.3568 19.1023 54.0587 19.1215 53.7593C19.3658 53.2143 19.6115 52.6692 19.8559 52.1254C19.8891 51.8606 19.9211 51.5945 19.9544 51.3296C20.1745 50.9483 20.3945 50.5658 20.6146 50.1845C20.9255 49.4322 21.2377 48.6798 21.5486 47.9275C21.9337 47.0882 22.3777 46.808 22.3662 46.0608C21.7866 45.645 21.2057 45.2291 20.6261 44.8133C20.4918 44.7609 20.3574 44.7084 20.2231 44.6572C19.4157 45.0155 18.2015 48.0337 17.7921 48.9805C17.5388 49.5665 17.485 49.9913 17.2752 50.5069C17.0858 50.8613 16.8965 51.2145 16.7071 51.5689C16.6521 51.9386 16.5971 52.3097 16.5421 52.6794C16.3949 53.0249 16.2478 53.3704 16.0994 53.7158C16.0917 53.9256 16.084 54.1355 16.0763 54.3453C15.9292 54.6908 15.7821 55.0362 15.6336 55.3817C15.5569 55.7067 15.6605 55.9907 15.5978 56.2926Z" fill="#384250"/>
<path d="M21.6747 39.6203C21.6786 39.8135 21.6811 40.0067 21.6849 40.1999C21.9319 40.8371 22.1571 41.702 22.4795 42.2611C23.2574 42.7294 24.3654 41.9745 25.0128 41.6252C25.1855 41.583 25.3596 41.542 25.5323 41.4998C25.7447 41.3284 25.9571 41.1557 26.1695 40.9842C27.5103 40.1065 29.3233 38.8577 30.2957 36.7313C31.3653 34.3924 31.9552 32.2826 31.9654 30.1881C32.0179 29.9834 32.0703 29.7787 32.1228 29.574C32.0742 29.304 32.0268 29.0328 31.9782 28.7628C31.9884 28.3866 31.9987 28.0118 32.0089 27.6356C31.927 27.4501 31.8451 27.2658 31.7645 27.0803C31.6737 26.4866 31.6673 25.4362 31.3641 24.918C31.3282 24.8822 31.2911 24.8464 31.2553 24.8105C29.45 24.9231 28.3599 25.5309 26.7529 26.5954C26.5354 26.6683 26.3166 26.74 26.0991 26.8129C25.7562 27.1622 25.412 27.5102 25.0691 27.8595C24.1338 28.5338 22.7571 30.1216 22.1993 31.538C22.1584 31.7977 22.1161 32.0574 22.0752 32.3171C21.8718 32.7816 21.6696 33.246 21.4662 33.7105C21.4777 33.9446 21.4892 34.18 21.502 34.4142C21.1476 36.1811 21.0529 38.0619 21.6747 39.6203Z" fill="#384250"/>
<path d="M25.4622 102.976C25.3253 102.802 25.1871 102.628 25.0502 102.455C24.7367 101.745 24.184 100.825 23.5839 100.204C23.1771 99.8909 22.7715 99.5761 22.3646 99.2626C22.1164 98.9965 21.8631 98.6728 21.4895 98.4028C21.2003 98.2378 20.9124 98.0727 20.6233 97.9077C20.1089 97.6761 19.5101 97.3857 18.9344 97.1247C18.6542 96.9647 18.374 96.8061 18.0938 96.6461C15.8713 95.9898 12.9299 95.6251 10.9326 96.1177C10.7625 96.1011 10.591 96.0858 10.4209 96.0691C10.2865 96.1241 10.1522 96.1804 10.0178 96.2354C9.89755 96.2162 9.77729 96.1971 9.65702 96.1779C9.51756 96.1843 8.74732 96.4581 8.59251 96.5208C8.20227 97.2744 9.38065 99.3177 9.69284 100.073C10.6512 102.391 13.2996 105.239 16.5827 106.089C17.028 106.273 17.4732 106.457 17.9185 106.64C18.0362 106.609 18.1539 106.579 18.2703 106.548C18.5685 106.516 18.8039 106.746 19.1353 106.828C19.3848 106.8 19.633 106.772 19.8825 106.744C20.4134 106.753 20.8868 106.884 21.4101 106.847C21.6085 106.786 21.8068 106.724 22.0051 106.663C22.8265 106.594 23.6761 106.595 24.4463 106.325C24.6472 106.206 24.848 106.086 25.0502 105.967C25.498 105.778 25.9087 106.072 26.1569 105.293C26.2491 104.755 25.6938 104.003 25.5057 103.504C25.4916 103.33 25.4763 103.152 25.4622 102.976Z" fill="#384250"/>
<path fill-rule="evenodd" clip-rule="evenodd" d="M41 109H157V140H41V109ZM103.554 126.317L109.952 121.492L101.923 121.429L99.3507 114L96.9042 121.429L89 121.365L95.2731 126.254L92.8894 134L99.5389 129.238L105.624 133.619L103.554 126.317ZM76.9524 121.492L70.5539 126.317L72.6238 133.619L66.5389 129.238L59.8894 134L62.2731 126.254L56 121.365L63.9042 121.429L66.3507 114L68.9226 121.429L76.9524 121.492ZM136.554 126.317L142.952 121.492L134.923 121.429L132.351 114L129.904 121.429L122 121.365L128.273 126.254L125.889 134L132.539 129.238L138.624 133.619L136.554 126.317ZM37.8246 115.959H5L21.8492 131.979L5 147.999H52.1775V143.439H37.8246V115.959ZM160.526 115.959V143.439H146.173V147.999H193.351L176.502 131.979L193.351 115.959H160.526Z" fill="#384250"/>
</svg>
