<svg width="193" height="150" viewBox="0 0 193 150" fill="none" xmlns="http://www.w3.org/2000/svg">
<path fill-rule="evenodd" clip-rule="evenodd" d="M163.355 41.6204C162.313 39.3423 161.74 37.2872 161.729 35.2472C161.708 35.1666 161.687 35.086 161.667 35.0056C161.636 34.887 161.605 34.7688 161.576 34.6514C161.599 34.5199 161.623 34.3881 161.646 34.2563L161.646 34.2563L161.646 34.2562L161.646 34.2562L161.646 34.2561C161.669 34.1244 161.693 33.9927 161.716 33.8613L161.686 32.7634C161.746 32.6257 161.807 32.4887 161.868 32.3514L161.868 32.3512L161.925 32.2225C161.948 32.067 161.966 31.8792 161.985 31.678C162.037 31.1313 162.099 30.4853 162.315 30.1164C162.333 30.099 162.35 30.0815 162.368 30.0641C162.386 30.0466 162.404 30.0292 162.422 30.0117C164.18 30.1214 165.242 30.7134 166.807 31.7502C166.913 31.7857 167.019 31.8209 167.126 31.8561L167.126 31.8562L167.126 31.8562L167.126 31.8563L167.126 31.8563C167.232 31.8914 167.338 31.9266 167.444 31.9621C167.779 32.3023 168.113 32.6413 168.447 32.9815C169.358 33.6383 170.699 35.1848 171.243 36.5644C171.263 36.691 171.283 36.8176 171.303 36.9442L171.303 36.9443L171.303 36.9444L171.303 36.9445L171.303 36.9446C171.323 37.0708 171.344 37.1971 171.363 37.3234C171.462 37.5494 171.561 37.7755 171.66 38.0015L171.66 38.0019L171.66 38.0024L171.66 38.0028L171.661 38.0033C171.759 38.229 171.858 38.4548 171.957 38.6805C171.945 38.895 171.934 39.1106 171.924 39.3252L171.924 39.3254L171.924 39.3257L171.924 39.326L171.924 39.3276L171.922 39.366C172.267 41.0845 172.359 42.9165 171.754 44.4344C171.752 44.5286 171.75 44.6227 171.749 44.7169C171.747 44.8109 171.745 44.9049 171.744 44.9989C171.664 45.2035 171.587 45.4321 171.509 45.6663C171.348 46.1425 171.18 46.6415 170.97 47.0066C170.303 47.4078 169.388 46.8881 168.748 46.5248L168.748 46.5247L168.748 46.5246C168.66 46.475 168.578 46.4283 168.502 46.3872C168.418 46.3667 168.334 46.3464 168.249 46.3262C168.165 46.3059 168.08 46.2857 167.996 46.2651C167.893 46.1821 167.79 46.0988 167.688 46.0154L167.686 46.0139C167.582 45.9301 167.479 45.8463 167.376 45.7629C166.069 44.9079 164.304 43.6916 163.355 41.6204ZM177.687 51.7959L177.956 52.2483L177.954 52.268C177.946 52.3722 177.938 52.4754 177.931 52.5798C177.994 52.7012 178.058 52.8224 178.122 52.9435L178.123 52.945C178.187 53.0657 178.25 53.1865 178.313 53.3076L178.317 53.3459L178.317 53.3476C178.332 53.4986 178.347 53.6487 178.361 53.7998L178.752 54.2771C179.17 55.1769 179.995 56.7945 180.952 57.1323C182.562 56.2512 183.523 55.1483 184.369 53.9519L185.763 51.9218C185.947 51.5777 186.04 51.2252 186.132 50.8755L186.132 50.8754C186.189 50.6576 186.246 50.441 186.324 50.2281C187.126 48.0435 187.101 45.8775 186.227 43.3427L186.226 43.3342L186.225 43.3333L186.225 43.3332C186.194 43.1482 186.162 42.9631 186.13 42.7769C186.08 42.7115 186.03 42.6461 185.981 42.5808L185.979 42.5784C185.929 42.5125 185.879 42.4465 185.828 42.3806C185.782 42.1899 185.736 41.998 185.691 41.8073C185.595 41.6728 185.498 41.5379 185.402 41.403L185.401 41.4015C185.305 41.2671 185.209 41.1327 185.113 40.9985C185.079 40.9043 185.045 40.8098 185.011 40.7153C184.977 40.621 184.943 40.5267 184.91 40.4327C184.613 40.1026 184.315 39.7726 184.018 39.4435L184.016 39.4411L183.94 39.3572C183.786 39.1933 183.669 39.0475 183.565 38.9183C183.339 38.6372 183.176 38.435 182.84 38.2967L182.738 38.3285L182.635 38.3602C182.293 38.5764 182.117 38.8192 181.938 39.0648C181.873 39.1548 181.807 39.2452 181.733 39.3348C181.604 39.4909 181.475 39.6451 181.347 39.798L181.346 39.7985C180.842 40.4008 180.354 40.9828 179.954 41.583L178.731 43.3963L178.458 44.5179C178.379 44.6805 178.299 44.8431 178.22 45.0057C178.141 45.1684 178.061 45.331 177.982 45.4937C177.975 45.6147 177.968 45.736 177.961 45.8573C177.954 45.9784 177.946 46.0995 177.94 46.2202C177.351 47.9824 177.449 49.4044 177.739 51.346C177.719 51.4939 177.703 51.6443 177.687 51.7946L177.687 51.7947L177.687 51.7959ZM182.636 59.589C182.516 59.8394 182.38 60.0647 182.246 60.286C182.049 60.6099 181.858 60.9252 181.733 61.2976C181.669 61.4863 181.637 61.7035 181.605 61.9202C181.573 62.14 181.541 62.3593 181.476 62.5476C181.391 62.7906 181.122 63.582 181.113 63.7976C181.101 64.0824 181.126 64.3439 181.151 64.607C181.174 64.8584 181.198 65.1113 181.19 65.3878L181.189 65.3938C181.148 65.5588 181.108 65.7238 181.067 65.8875L181.261 66.3885C181.263 66.5388 181.264 66.6891 181.265 66.8393C181.266 66.9904 181.266 67.1414 181.268 67.292C181.316 67.3998 181.365 67.5076 181.414 67.6154C181.463 67.7232 181.512 67.831 181.561 67.9388C181.582 68.0759 181.603 68.2133 181.625 68.3507C181.646 68.4881 181.668 68.6255 181.689 68.7626C181.734 69.0305 182.055 69.7321 182.316 69.8543C182.618 69.9947 183.337 69.744 183.733 69.6059L183.796 69.5838C185.262 69.0754 187.295 67.8566 188.562 66.6739C191.473 63.9571 192.822 59.6887 191.818 56.1968C191.774 56.0399 191.782 55.8843 191.79 55.7334V55.7334C191.796 55.6241 191.802 55.5173 191.787 55.4142C191.726 54.9742 190.874 52.9179 190.486 52.7397C190.095 52.8154 189.666 53.0918 189.234 53.3704C188.797 53.6516 188.357 53.9351 187.949 54.0171C185.208 55.7531 183.628 57.5178 182.636 59.589ZM154.185 98.3277L154.187 98.332C154.387 98.7343 154.587 99.1367 154.787 99.5403L154.843 100.202C155.543 102.213 158.24 105.076 159.62 105.735C159.79 105.817 159.945 105.936 160.096 106.051C160.508 106.366 160.887 106.656 161.458 106.103C161.606 105.678 161.879 105.285 162.152 104.89C162.379 104.563 162.606 104.234 162.764 103.886L162.765 103.879C162.792 103.712 162.819 103.545 162.847 103.377C163.436 101.853 163.584 100.99 163.61 99.3509L163.718 98.6168L163.716 98.6095C163.654 98.4313 163.593 98.253 163.531 98.076C163.568 97.9015 163.604 97.7258 163.639 97.5513C163.594 97.4335 163.55 97.3158 163.506 97.1981L163.506 97.198L163.506 97.1979L163.506 97.1977L163.505 97.1976L163.505 97.1974C163.444 97.0352 163.383 96.873 163.322 96.7114C163.301 96.5406 163.28 96.3695 163.258 96.1984L163.258 96.1966L163.258 96.1948L163.258 96.193L163.258 96.1912C163.236 96.0201 163.215 95.849 163.194 95.6782L163.183 95.6563C163.046 95.3832 162.908 95.1101 162.771 94.8383C162.587 94.1528 162.344 93.3615 161.829 92.5925C161.67 92.3553 161.513 92.109 161.354 91.8613C160.847 91.0682 160.331 90.2617 159.744 89.6975C159.608 89.6003 159.472 89.5031 159.336 89.4059C159.2 89.3087 159.064 89.2115 158.928 89.1143L158.642 88.7892L158.639 88.7854L158.637 88.7838L158.637 88.7831L158.636 88.783L158.636 88.7829L158.636 88.7829L158.636 88.7828L158.636 88.7827L158.636 88.7826C158.434 88.5534 158.233 88.3244 158.032 88.0949C157.76 87.9337 157.504 87.936 157.214 87.9387C157.158 87.9392 157.102 87.9397 157.044 87.9391C156.782 88.1152 156.71 88.2961 156.637 88.4822C156.604 88.5659 156.57 88.6508 156.519 88.7367C156.278 89.0109 156.038 89.285 155.797 89.558C155.782 89.6321 155.767 89.706 155.752 89.7798L155.752 89.7799C155.737 89.8537 155.721 89.9275 155.706 90.0016C155.641 90.0796 155.575 90.1576 155.509 90.2356C155.444 90.3134 155.378 90.3912 155.313 90.469C155.276 90.6434 155.24 90.8192 155.205 90.9936L155.093 91.1557C154.969 91.3355 154.845 91.5148 154.721 91.694L154.661 91.9545C154.409 93.0443 154.169 94.0812 154.083 95.2196C154.058 95.3056 154.033 95.3916 154.008 95.4776C153.984 95.5636 153.959 95.6496 153.934 95.7355C153.93 96.1227 154.005 96.4702 154.082 96.8278C154.138 97.0871 154.195 97.3519 154.223 97.641C154.231 97.7294 154.214 97.8233 154.197 97.9198C154.173 98.0533 154.148 98.1917 154.185 98.3277ZM173.59 100.832L173.591 100.831L173.593 100.83L173.593 100.83C173.866 100.702 174.147 100.57 174.421 100.446C174.558 100.369 174.694 100.291 174.831 100.213C174.967 100.136 175.103 100.058 175.24 99.981C177.405 99.3429 180.271 98.9877 182.215 99.4663C182.298 99.4582 182.381 99.4504 182.464 99.4427C182.547 99.4349 182.631 99.4271 182.714 99.4189C182.779 99.4457 182.844 99.4728 182.91 99.4999C182.975 99.527 183.041 99.5542 183.106 99.581L183.458 99.5249C183.593 99.5324 184.344 99.7978 184.495 99.8589C184.796 100.441 184.135 101.815 183.698 102.725L183.698 102.725C183.584 102.962 183.485 103.167 183.423 103.318C182.488 105.577 179.91 108.351 176.712 109.178C176.28 109.356 175.848 109.534 175.416 109.713L175.411 109.715C175.3 109.686 175.188 109.657 175.077 109.628L175.068 109.626C174.895 109.607 174.743 109.68 174.581 109.758C174.471 109.811 174.356 109.867 174.226 109.899L173.498 109.816C173.278 109.82 173.067 109.845 172.86 109.871L172.859 109.871C172.579 109.904 172.302 109.938 172.01 109.917L171.43 109.738C171.264 109.724 171.097 109.713 170.93 109.702H170.93C170.291 109.66 169.647 109.617 169.052 109.409C168.856 109.292 168.66 109.176 168.464 109.06C168.331 109.003 168.201 108.991 168.078 108.979C167.798 108.952 167.554 108.929 167.386 108.403C167.325 108.039 167.567 107.573 167.782 107.16C167.876 106.979 167.965 106.808 168.021 106.661C168.027 106.575 168.035 106.489 168.042 106.404L168.042 106.403C168.049 106.317 168.056 106.231 168.063 106.145C168.129 106.061 168.195 105.978 168.261 105.895L168.261 105.894L168.264 105.891L168.382 105.742L168.464 105.638C168.77 104.946 169.308 104.05 169.892 103.446C170.091 103.293 170.289 103.14 170.486 102.987L170.494 102.981C170.69 102.83 170.885 102.679 171.08 102.528C171.132 102.472 171.185 102.414 171.239 102.353L171.239 102.353C171.434 102.135 171.647 101.897 171.932 101.691C172.073 101.61 172.214 101.53 172.354 101.45C172.495 101.369 172.635 101.289 172.776 101.209C173.031 101.094 173.306 100.965 173.589 100.832L173.59 100.832ZM173.84 72.667C173.832 72.8025 173.824 72.9343 173.854 73.0547C173.951 73.34 174.048 73.6254 174.147 73.912C174.142 73.9709 174.115 74.0316 174.087 74.0934C174.056 74.1637 174.024 74.2354 174.024 74.3071C174.045 74.3744 174.067 74.4417 174.088 74.509C174.11 74.5763 174.131 74.6436 174.153 74.7109C174.193 74.8825 174.156 75.0247 174.119 75.1662C174.097 75.2518 174.075 75.3372 174.07 75.4287C174.101 75.6144 174.133 75.7988 174.165 75.9833L174.167 75.9945C174.117 76.1084 174.067 76.2215 174.016 76.335L173.97 76.4382C173.962 76.532 173.956 76.6262 173.949 76.7205C173.906 77.3456 173.862 77.9768 173.54 78.5356C172.968 78.8621 170.924 78.1156 170.337 77.8738C170.261 77.8657 170.185 77.8573 170.108 77.8489L169.978 77.8346L169.88 77.824L169.578 77.6377L169.275 77.4514L168.761 77.3691L168.181 76.8756C168.11 76.8581 168.039 76.8403 167.968 76.8226C167.898 76.8048 167.827 76.7871 167.756 76.7697L167.071 76.1702C166.932 76.0938 166.793 76.0176 166.655 75.9415L166.65 75.9391L166.645 75.9363C166.507 75.8602 166.368 75.7842 166.23 75.7079C164.874 74.5888 163.166 71.958 162.597 70.2992C162.54 70.1334 162.548 69.9637 162.556 69.8003C162.563 69.6701 162.569 69.544 162.542 69.4269C162.502 69.3356 162.462 69.2448 162.422 69.1542C162.394 69.0913 162.366 69.0285 162.339 68.9658C162.296 68.7862 162.309 68.6207 162.322 68.4595C162.33 68.361 162.338 68.2642 162.333 68.1669C162.317 67.8916 162.277 67.6403 162.238 67.3948C162.185 67.0569 162.133 66.7299 162.149 66.3661L162.232 66.1196L162.314 65.8738C162.297 65.2009 162.402 63.1396 163.049 62.7034C163.179 62.6541 163.308 62.6036 163.437 62.5531L163.442 62.5514C165.459 63.2443 167.496 64.1042 169.353 65.5611C169.493 65.7256 169.633 65.8901 169.773 66.0546C169.913 66.2191 170.052 66.3836 170.193 66.5481C171.638 67.8516 172.725 69.3571 173.319 71.2052C173.402 71.3712 173.484 71.5372 173.566 71.7031L173.567 71.7062L173.569 71.7093C173.651 71.8753 173.733 72.0412 173.815 72.2072C173.859 72.3581 173.849 72.515 173.84 72.667ZM172.332 53.6175L172.335 53.624L172.338 53.6306C172.488 53.9948 172.639 54.359 172.79 54.7232C172.896 54.907 173.002 55.0911 173.108 55.2752L173.111 55.2809C173.218 55.4669 173.326 55.6529 173.433 55.8386C173.449 55.9675 173.465 56.0967 173.481 56.2259L173.481 56.2262C173.497 56.3555 173.512 56.4848 173.529 56.6138C173.682 56.9555 173.836 57.2973 173.989 57.6388L174.244 58.2052C174.254 58.3547 174.263 58.5042 174.272 58.6539L174.272 58.655C174.281 58.7956 174.29 58.9365 174.299 59.0776L174.762 60.0309C174.896 60.8881 175.067 61.7501 175.239 62.6161L175.239 62.6162L175.239 62.6164L175.239 62.6165L175.239 62.6166L175.239 62.6168C175.358 63.2148 175.478 63.8148 175.585 64.4164C175.654 64.8026 175.65 65.451 175.647 65.9088V65.909C175.647 65.9726 175.646 66.0326 175.646 66.0876C175.645 66.4341 175.714 66.7702 175.782 67.107C175.854 67.4594 175.927 67.8124 175.919 68.1788C175.908 68.6914 175.893 69.2065 175.877 69.7229L175.877 69.7238V69.7239V69.724V69.724V69.7241V69.7242C175.844 70.8583 175.811 71.9991 175.817 73.1351C175.778 73.2535 175.74 73.3719 175.702 73.4903C175.663 73.6087 175.625 73.727 175.586 73.8454C175.605 74.2154 175.557 74.5329 175.507 74.8543L175.507 74.8543C175.48 75.0352 175.452 75.2173 175.435 75.4107C175.447 75.5079 175.459 75.6048 175.472 75.7016C175.484 75.7986 175.496 75.8955 175.508 75.9927C175.5 76.3084 175.437 76.6334 175.375 76.9602L175.375 76.9602C175.323 77.2295 175.272 77.4999 175.25 77.7673C175.179 77.9418 175.108 78.1163 175.035 78.292L175.05 78.7357C175.023 78.9122 174.956 79.0969 174.889 79.2825C174.805 79.5148 174.72 79.7484 174.711 79.9694C174.695 80.3879 174.586 80.7402 174.47 81.113C174.432 81.2366 174.393 81.3624 174.356 81.4936L174.33 82.0344C174.217 82.3513 174.115 82.6645 174.014 82.9773L174.013 82.9774L174.013 82.9774L174.013 82.9775L174.013 82.9776L174.013 82.9776C173.877 83.3955 173.741 83.8125 173.581 84.2365C173.579 84.3132 173.578 84.3898 173.576 84.4665C173.574 84.5431 173.573 84.6198 173.571 84.6964C173.417 85.1964 173.231 85.6826 173.045 86.1672C172.782 86.8541 172.52 87.5378 172.352 88.2532C172.226 88.4513 172.101 88.6507 171.975 88.8501C171.904 89.0369 171.842 89.2468 171.78 89.4589L171.78 89.4589L171.78 89.459L171.78 89.459L171.78 89.459L171.78 89.4591C171.701 89.7266 171.622 89.9975 171.521 90.2297L171.414 90.3906L171.414 90.3908L171.414 90.3909L171.414 90.391L171.414 90.3912C171.326 90.5226 171.239 90.6537 171.152 90.7855L171.085 91.3176L171.084 91.3185L171.081 91.3223L171.08 91.3239C170.953 91.4988 170.827 91.6736 170.7 91.8498C170.632 92.0234 170.564 92.2183 170.495 92.417C170.391 92.7148 170.285 93.0211 170.173 93.2767L169.763 93.8251C169.739 93.9216 169.716 94.0185 169.692 94.1153L169.692 94.1161L169.692 94.1168C169.669 94.2132 169.645 94.3097 169.622 94.4058L169.196 94.9292C169.173 95.0713 169.151 95.2146 169.129 95.3567L168.662 95.9773C168.556 96.1744 168.46 96.4199 168.363 96.669C168.247 96.9666 168.128 97.2695 167.988 97.5014L167.504 98.0971L167.347 98.6542C167.194 98.8125 167.041 98.9708 166.889 99.129C166.858 99.2244 166.828 99.3197 166.798 99.415C166.768 99.5104 166.737 99.6057 166.707 99.701C166.508 100.109 166.25 100.434 165.983 100.771C165.813 100.984 165.64 101.202 165.476 101.45C165.38 101.593 165.329 101.753 165.278 101.909C165.238 102.032 165.198 102.154 165.138 102.265L165.133 102.27L165.132 102.27C164.981 102.427 164.829 102.583 164.679 102.739L164.675 102.749L164.675 102.749L164.675 102.749L164.675 102.749L164.675 102.749L164.675 102.749C164.592 102.953 164.508 103.156 164.424 103.36C164.332 103.443 164.241 103.526 164.149 103.609C164.057 103.692 163.966 103.776 163.874 103.858C163.811 104.017 163.747 104.176 163.683 104.335L163.57 104.616C163.332 104.877 163.094 105.137 162.857 105.398L162.733 105.689L162.61 105.978L162.012 106.614L161.683 107.283C161.554 107.457 161.401 107.601 161.253 107.74C161.037 107.944 160.832 108.136 160.732 108.395C160.643 108.624 160.462 108.811 160.273 109.004C160.144 109.136 160.012 109.271 159.904 109.425L159.699 109.803L159.492 110.183C159.323 110.324 159.154 110.465 158.985 110.605L158.903 110.674L158.107 111.859C157.99 111.988 157.865 112.109 157.744 112.226C157.34 112.616 156.975 112.968 157.072 113.479C157.169 113.988 157.973 114.44 158.271 114.58C158.389 114.635 158.486 114.69 158.575 114.74C158.775 114.852 158.936 114.943 159.211 114.977C159.806 114.576 160.117 114.098 160.406 113.655C160.483 113.537 160.559 113.421 160.638 113.31C160.933 113.012 161.228 112.714 161.522 112.416L161.524 112.413C161.647 112.193 161.77 111.974 161.893 111.756C161.998 111.664 162.103 111.573 162.208 111.481L162.209 111.481L162.217 111.473C162.324 111.38 162.432 111.286 162.539 111.193C162.651 111.061 162.711 110.898 162.768 110.743C162.801 110.65 162.834 110.561 162.876 110.483C163.017 110.333 163.158 110.183 163.298 110.032C163.439 109.882 163.58 109.731 163.721 109.581L163.724 109.574C163.794 109.402 163.864 109.23 163.935 109.057C164.029 108.96 164.123 108.864 164.217 108.768L164.219 108.766C164.313 108.67 164.407 108.573 164.501 108.477L164.503 108.474C164.672 108.166 164.841 107.858 165.011 107.55C165.113 107.448 165.215 107.346 165.318 107.244C165.42 107.142 165.523 107.04 165.625 106.938C165.654 106.849 165.683 106.761 165.712 106.672C165.741 106.583 165.77 106.494 165.798 106.406C166.039 106.043 166.282 105.744 166.522 105.451C166.786 105.127 167.045 104.809 167.291 104.416C167.335 104.305 167.379 104.195 167.423 104.085L167.423 104.084C167.467 103.974 167.511 103.864 167.554 103.754C167.646 103.653 167.737 103.552 167.829 103.452C167.921 103.351 168.012 103.25 168.104 103.149C168.15 102.991 168.197 102.832 168.245 102.673L168.712 102.157C168.744 102.073 168.777 101.988 168.809 101.903L168.81 101.901L168.81 101.9C168.854 101.784 168.898 101.668 168.943 101.553L169.467 100.965L169.566 100.639L169.665 100.312C169.735 100.232 169.804 100.151 169.874 100.071L169.875 100.07L169.875 100.069L169.97 99.9594L170.084 99.8282L170.087 99.8207C170.207 99.5465 170.327 99.2723 170.446 98.9982C170.574 98.8561 170.702 98.714 170.831 98.5707L170.954 98.1747L171.077 97.7806C172.775 94.7086 174.087 91.6977 175.352 88.5572C175.355 88.4737 175.358 88.3902 175.361 88.3067L175.365 88.1681L175.369 88.0562C175.502 87.7207 175.633 87.4003 175.762 87.0825C175.937 86.6544 176.11 86.2311 176.283 85.7819C176.3 85.5962 176.317 85.4105 176.333 85.2248L176.335 85.2221C176.403 85.132 176.471 85.0419 176.538 84.9506L176.523 84.507L176.811 84.0396C176.849 83.8791 176.859 83.701 176.869 83.5216C176.883 83.2887 176.896 83.0539 176.97 82.8532C177.684 80.8979 178.094 78.4228 178.221 76.3416L178.258 76.2593C178.298 76.1712 178.338 76.0836 178.377 75.9952C178.506 75.2425 178.505 74.395 178.481 73.6224C178.473 73.3634 178.55 73.0712 178.626 72.7846C178.68 72.5775 178.734 72.3733 178.754 72.1867L178.657 71.7268C178.647 71.1847 178.716 70.5965 178.784 70.0718L178.631 69.369C178.629 69.1044 178.636 68.8427 178.642 68.5813C178.662 67.8109 178.681 67.0432 178.491 66.2123L178.492 66.1897C178.503 65.9691 178.514 65.7473 178.526 65.5256C178.495 65.3829 178.464 65.2402 178.433 65.0975C178.402 64.9548 178.372 64.8121 178.34 64.6694C178.362 64.1647 178.297 63.4282 178.231 62.9259L178.227 62.9144L178.227 62.9134C178.12 62.5811 178.013 62.2488 177.907 61.9165C177.915 61.8236 177.923 61.7308 177.932 61.638C177.94 61.5451 177.948 61.4523 177.957 61.3594L177.815 61.0167L177.672 60.6727C177.643 60.5301 177.651 60.3916 177.66 60.2505C177.669 60.1007 177.678 59.9479 177.643 59.7842C177.499 59.4477 177.356 59.1112 177.211 58.7747L177.189 58.1616C177.046 57.8251 176.902 57.4886 176.758 57.1521L176.597 56.0704L176.32 55.5536L176.044 55.036C175.95 54.8054 175.888 54.5934 175.825 54.3763C175.75 54.1206 175.674 53.8579 175.54 53.5493C175.503 53.4641 175.46 53.3619 175.411 53.2461C174.926 52.1058 173.885 49.6539 173.172 49.3382L173.169 49.3394C173.04 49.3901 172.91 49.4408 172.78 49.4903C172.501 49.6901 172.222 49.8899 171.944 50.0898L171.941 50.0912L171.939 50.0927L171.932 50.0978L171.927 50.1015C171.646 50.3028 171.365 50.5041 171.085 50.7054C171.077 51.1763 171.254 51.4569 171.482 51.817C171.607 52.0143 171.747 52.2355 171.88 52.5249C172.03 52.8891 172.181 53.2533 172.332 53.6175ZM161.568 76.0363C161.368 75.9489 161.189 75.8497 161.017 75.754C160.651 75.5506 160.313 75.363 159.86 75.3384C159.346 75.8306 159.199 76.6289 159.071 77.3263C159.029 77.556 158.989 77.7747 158.938 77.9679C158.236 80.6411 158.354 84.8983 161.406 88.0151C161.635 88.2777 161.864 88.5403 162.093 88.8029C162.323 89.0662 162.553 89.3295 162.783 89.5928L163.056 89.7106L163.33 89.8284C163.406 89.907 163.482 89.9853 163.558 90.0636C163.634 90.1417 163.71 90.2198 163.786 90.2982C163.911 90.3967 164.056 90.4353 164.197 90.4726C164.287 90.4966 164.375 90.5201 164.455 90.5586C164.583 90.6615 164.711 90.764 164.838 90.8665C164.966 90.969 165.094 91.0715 165.221 91.1743C165.911 91.4784 166.773 91.7887 167.508 91.9469C167.585 91.9634 167.68 91.9965 167.786 92.0333C168.169 92.166 168.688 92.3465 168.971 91.9669C169.123 91.7263 169.172 91.414 169.217 91.1278C169.248 90.9338 169.277 90.7517 169.334 90.6122C171.177 86.1395 167.771 79.2067 162.724 76.6071C162.523 76.4475 162.322 76.288 162.121 76.1297C161.989 76.1063 161.856 76.0843 161.722 76.0621L161.568 76.0363ZM158.614 51.6754L158.688 50.9974C158.631 50.8291 158.575 50.66 158.519 50.4914L158.478 50.3681C158.445 49.9369 158.61 47.407 158.822 47.1403C160.226 47.1263 161.441 47.5633 162.684 48.0108C163.211 48.2001 163.742 48.3914 164.295 48.5511C164.377 48.6196 164.458 48.6885 164.54 48.7573C164.622 48.8262 164.703 48.895 164.785 48.9636C164.95 49.0334 165.115 49.1039 165.28 49.1746L165.281 49.1749L165.43 49.239C165.557 49.348 165.683 49.4573 165.81 49.5666C165.936 49.676 166.063 49.7854 166.189 49.8945C166.312 49.9432 166.435 49.9924 166.557 50.0415L166.559 50.0423L166.566 50.0452C166.651 50.079 166.735 50.1127 166.819 50.1462C166.963 50.3084 167.107 50.4702 167.251 50.632C167.395 50.7936 167.539 50.9552 167.682 51.1171C168.792 52.0842 170.235 53.5734 170.835 55.2334C170.863 55.3717 170.892 55.5104 170.92 55.6491C170.949 55.7877 170.977 55.9263 171.005 56.0646L171.468 57.1227C171.464 57.3246 171.457 57.5264 171.451 57.7283C171.469 57.8486 171.49 57.975 171.511 58.1061L171.511 58.1063C171.697 59.2591 171.94 60.7692 171.351 61.6353C170.19 61.9269 168.891 61.6677 167.844 61.3113C167.601 61.2288 167.326 61.1865 167.053 61.1446L167.053 61.1446L167.053 61.1446C166.847 61.113 166.643 61.0816 166.455 61.0334L166.173 60.8507L165.892 60.6682C165.714 60.5864 165.5 60.5141 165.279 60.4397C164.922 60.3192 164.548 60.1928 164.283 60.0102C164.171 59.9142 164.059 59.8184 163.948 59.7227C163.836 59.6271 163.725 59.5316 163.614 59.4357C163.448 59.3658 163.283 59.2952 163.118 59.2244L162.968 59.1603C162.748 58.9003 162.526 58.6404 162.304 58.3804L162.3 58.3751C162.161 58.2742 162.022 58.173 161.884 58.0717C161.745 57.9704 161.606 57.8692 161.467 57.7682C159.891 56.4534 158.855 53.1235 158.614 51.6754ZM192.802 70.7784C192.767 70.673 192.732 70.5679 192.697 70.4627C192.661 70.3579 192.626 70.253 192.591 70.1478C192.57 70.0011 192.578 69.8588 192.586 69.7211C192.608 69.3371 192.628 68.9893 191.998 68.6847C190.731 69.0761 189.4 69.4773 188.129 69.8213L187.171 70.3435L186.213 70.8656C184.356 72.0658 183.172 73.3594 182.23 74.7302C181.992 74.9907 181.754 75.2511 181.517 75.5116C181.481 75.6861 181.445 75.8618 181.41 76.0363C181.347 76.1179 181.284 76.1998 181.221 76.2818C181.183 76.3313 181.145 76.3808 181.107 76.4302C181.082 76.4626 181.057 76.495 181.033 76.5273C181.01 76.6694 180.988 76.8127 180.966 76.9547C180.939 76.995 180.911 77.0353 180.883 77.0756C180.845 77.1307 180.807 77.1858 180.769 77.241C180.704 77.3362 180.638 77.4315 180.573 77.5268C180.57 77.6103 180.567 77.6938 180.564 77.7773C180.561 77.8608 180.558 77.9442 180.555 78.0277C180.507 78.1823 180.436 78.3379 180.365 78.4945C180.249 78.7481 180.132 79.0041 180.11 79.2615L180.133 79.8747C180.046 80.2623 179.946 80.7894 179.95 81.182L180.095 81.82C180.079 81.9003 180.062 81.981 180.046 82.0616C180.029 82.1423 180.012 82.2231 179.996 82.3036C180.093 82.5541 180.19 82.8046 180.289 83.055C180.309 83.143 180.302 83.2211 180.295 83.2998C180.285 83.4074 180.275 83.516 180.336 83.652C182.562 84.1056 186.35 82.8743 188.78 80.6386C188.981 80.4836 189.182 80.329 189.383 80.1743L189.387 80.1719C189.589 80.0164 189.791 79.861 189.993 79.7052C191.424 77.9629 192.646 75.468 192.641 73.4316C192.641 73.2038 192.697 72.9571 192.753 72.7094L192.753 72.7093C192.814 72.4407 192.876 72.1708 192.866 71.9224C192.817 71.7791 192.768 71.6371 192.72 71.4937C192.747 71.257 192.775 71.0177 192.802 70.7784ZM189.168 84.6459C189.315 84.6883 189.462 84.7319 189.61 84.7755C189.703 84.7802 189.835 84.7756 189.991 84.7702C190.661 84.7469 191.753 84.7089 191.896 85.3413C192.011 85.8628 191.537 87.2018 191.274 87.9445C191.237 88.0502 191.204 88.1439 191.177 88.2214C191.115 88.4033 191.061 88.6068 191.006 88.8148C190.916 89.1568 190.822 89.511 190.683 89.8016L190.158 90.4945C190.133 90.5804 190.108 90.6663 190.084 90.7522C190.059 90.8383 190.035 90.9244 190.01 91.0104C189.778 91.2649 189.546 91.5193 189.313 91.7737L189.297 91.7918C189.245 91.8717 189.194 91.9613 189.141 92.0544C189.027 92.2561 188.904 92.4741 188.738 92.6455L187.149 93.8606C186.635 94.3304 185.99 94.6719 185.397 94.9373C185.185 95.0587 184.974 95.1798 184.762 95.3009C184.548 95.4234 184.334 95.546 184.12 95.6688L182.975 95.8595C182.821 95.92 182.666 95.9801 182.512 96.0402C182.358 96.1004 182.204 96.1605 182.05 96.2209C181.887 96.1873 181.723 96.1549 181.56 96.1225C181.26 96.2035 180.961 96.2832 180.66 96.363C180.33 96.3977 179.962 96.3485 179.611 96.3016C179.445 96.2794 179.283 96.2578 179.131 96.2458C178.992 96.2347 178.812 96.2254 178.609 96.2149C177.768 96.1715 176.523 96.1073 176.075 95.8022C175.412 95.3498 176.184 93.2063 176.468 92.7514C176.527 92.6569 176.516 92.5576 176.504 92.4589C176.496 92.3832 176.487 92.3079 176.51 92.2355C176.589 91.9868 176.75 91.7108 176.898 91.4551C176.977 91.3201 177.052 91.1907 177.11 91.074C177.26 90.9181 177.411 90.7621 177.562 90.6062L177.568 90.5992C177.613 90.4829 177.658 90.3662 177.702 90.2493C177.734 90.1645 177.766 90.0796 177.799 89.9948C177.94 89.7562 178.163 89.5735 178.397 89.3815C178.535 89.2687 178.676 89.1526 178.807 89.0202L179.308 88.3435C179.882 87.752 180.66 87.2613 181.461 86.7561C181.519 86.7196 181.577 86.6829 181.635 86.6461C181.777 86.5765 181.918 86.5073 182.059 86.438C182.201 86.3683 182.344 86.2986 182.486 86.2286C182.996 86.0293 183.507 85.8303 184.018 85.6313C184.386 85.4882 184.753 85.3451 185.121 85.2017C185.223 85.2048 185.325 85.2076 185.427 85.2104C185.529 85.2132 185.631 85.2161 185.734 85.2192C185.862 85.1643 185.99 85.1095 186.118 85.0547C186.246 84.9998 186.374 84.945 186.503 84.8902C186.627 84.8902 186.751 84.8905 186.875 84.8908C186.999 84.8911 187.123 84.8914 187.247 84.8914C187.388 84.8566 187.53 84.8221 187.671 84.7876C187.813 84.7529 187.956 84.7183 188.098 84.6833C188.165 84.7039 188.231 84.7241 188.298 84.7444C188.365 84.7646 188.431 84.7849 188.498 84.8054C188.609 84.7786 188.721 84.7522 188.833 84.7257C188.945 84.6992 189.057 84.6727 189.168 84.6459Z" fill="#384250"/>
<path fill-rule="evenodd" clip-rule="evenodd" d="M21.1118 44.4349C21.1137 44.529 21.1153 44.6231 21.1168 44.7172C21.1184 44.8113 21.1199 44.9054 21.1218 44.9995C21.2011 45.204 21.278 45.4326 21.3568 45.6667L21.3569 45.6668C21.5172 46.1431 21.6852 46.642 21.8957 47.0071C22.5607 47.4074 23.4733 46.8901 24.1129 46.5275C24.2022 46.477 24.2861 46.4294 24.3633 46.3878C24.4473 46.3672 24.5317 46.347 24.6161 46.3267C24.7006 46.3065 24.7851 46.2862 24.8692 46.2656C24.9727 46.1821 25.0761 46.0983 25.1795 46.0145C25.283 45.9307 25.3864 45.8469 25.4899 45.7634C26.7959 44.9085 28.5618 43.6922 29.509 41.6209C30.5508 39.3428 31.1253 37.2878 31.1353 35.2477L31.2886 34.6495C31.2649 34.5181 31.2416 34.3864 31.2182 34.2547C31.1948 34.1228 31.1714 33.991 31.1478 33.8594L31.1777 32.7615L31.1219 32.6353C31.0608 32.4971 30.9999 32.3592 30.9396 32.2206C30.9158 32.065 30.898 31.8773 30.8789 31.6761C30.8269 31.1294 30.7655 30.4834 30.5496 30.1144C30.5322 30.0971 30.5146 30.0798 30.4969 30.0624L30.4966 30.0621C30.4788 30.0447 30.4611 30.0272 30.4436 30.0098C28.6852 30.1194 27.6234 30.7114 26.0581 31.7483C25.9522 31.7838 25.846 31.819 25.7398 31.8542L25.7397 31.8542C25.6335 31.8894 25.5272 31.9246 25.4213 31.9601C25.2543 32.1302 25.087 32.3 24.9197 32.4698L24.9195 32.47C24.7523 32.6398 24.585 32.8095 24.4181 32.9795C23.5071 33.6363 22.1662 35.1829 21.6228 36.5625C21.6029 36.6888 21.5827 36.8152 21.5624 36.9416L21.5624 36.9417L21.5624 36.9417C21.5421 37.0683 21.5219 37.1949 21.5019 37.3214C21.4034 37.5464 21.3051 37.7714 21.2069 37.9963L21.2053 38C21.1065 38.2262 21.0078 38.4524 20.9087 38.6786L20.9102 38.7084L20.9102 38.7094C20.9209 38.9273 20.9317 39.1462 20.9436 39.364C20.5984 41.085 20.5062 42.917 21.1118 44.4349ZM7.10156 51.9195L8.4961 53.9496C9.3423 55.1459 10.3044 56.2489 11.9133 57.13C12.8716 56.7922 13.6966 55.1746 14.1129 54.2748L14.5042 53.7975L14.508 53.7584L14.5081 53.7581C14.523 53.6069 14.5378 53.4566 14.5515 53.3053C14.6151 53.1838 14.6789 53.0626 14.7428 52.9415C14.8067 52.8202 14.8706 52.699 14.9341 52.5775L14.9323 52.5538L14.9323 52.5537C14.9242 52.4509 14.9162 52.3489 14.9092 52.246C14.9989 52.0952 15.0887 51.9444 15.1772 51.7936C15.1691 51.7182 15.1606 51.6428 15.1522 51.5674C15.1438 51.492 15.1354 51.4166 15.1273 51.3412C15.4164 49.4008 15.5149 47.9776 14.9267 46.2154C14.9198 46.0945 14.9126 45.9733 14.9055 45.852C14.8983 45.7309 14.8912 45.6097 14.8843 45.4889C14.8052 45.3263 14.7257 45.1637 14.6463 45.0011L14.6456 44.9996C14.5664 44.8374 14.4871 44.6752 14.4082 44.5131L14.1353 43.3915L12.9128 41.5782C12.5158 40.9833 12.0332 40.407 11.5333 39.8101L11.5333 39.8101L11.5331 39.8098C11.4006 39.6516 11.2668 39.4919 11.1331 39.33C11.0589 39.2404 10.9932 39.15 10.9278 39.06C10.7493 38.8144 10.5729 38.5716 10.2309 38.3554L10.1287 38.3237L10.0265 38.2919C9.68841 38.4305 9.5255 38.6333 9.29878 38.9154C9.19537 39.0441 9.07869 39.1893 8.92605 39.3524C8.63205 39.6793 8.33701 40.0063 8.04282 40.3323L7.95649 40.4279C7.92284 40.522 7.88888 40.6164 7.85492 40.7108C7.82096 40.8052 7.787 40.8996 7.75336 40.9937C7.65677 41.1283 7.5605 41.2632 7.46423 41.3981C7.36795 41.533 7.27168 41.6679 7.1751 41.8025C7.12899 41.9932 7.08288 42.1851 7.03801 42.3758C6.98755 42.4418 6.93741 42.5079 6.88726 42.5739C6.83708 42.64 6.7869 42.706 6.73642 42.7721L6.7344 42.7838L6.7343 42.7844L6.73427 42.7845C6.70259 42.9686 6.6709 43.1526 6.63921 43.3379C5.76684 45.8727 5.74193 48.0387 6.54202 50.2233C6.61937 50.4354 6.67576 50.651 6.73237 50.8674L6.73238 50.8675C6.82445 51.2194 6.91714 51.5737 7.10156 51.9195ZM9.06753 69.5866L9.13502 69.6101C9.53194 69.7487 10.247 69.9982 10.5481 69.8571C10.8085 69.7362 11.13 69.0333 11.1749 68.7654C11.1961 68.6283 11.2176 68.4909 11.2391 68.3535L11.2392 68.3526L11.2394 68.3517C11.2608 68.2149 11.2822 68.0781 11.3033 67.9416C11.3519 67.8338 11.4008 67.726 11.4497 67.6182C11.4986 67.5104 11.5475 67.4026 11.5961 67.2948C11.5974 67.1445 11.5983 66.9941 11.5992 66.844L11.5993 66.8426C11.6002 66.692 11.6011 66.5415 11.6024 66.3913L11.7968 65.8903L11.796 65.8872L11.796 65.8872L11.796 65.8872L11.796 65.8871L11.796 65.8871L11.796 65.887L11.796 65.887L11.7959 65.8869L11.7959 65.8869L11.7959 65.8868C11.7551 65.721 11.7142 65.5552 11.6734 65.3906C11.6655 65.1141 11.6894 64.8612 11.7132 64.6098C11.7381 64.3467 11.7628 64.0853 11.7507 63.8004C11.7419 63.5835 11.4715 62.7934 11.388 62.5504C11.3228 62.3616 11.2907 62.1425 11.2585 61.9229C11.2268 61.7063 11.195 61.4892 11.1313 61.3004C11.0054 60.927 10.8142 60.6118 10.6179 60.288C10.4839 60.067 10.3476 59.842 10.2278 59.5918C9.23577 57.5194 7.65555 55.7559 4.91633 54.0199C4.50787 53.9379 4.06728 53.6542 3.63034 53.373C3.1981 53.0947 2.76943 52.8188 2.37899 52.7425C1.99141 52.922 1.13899 54.9783 1.07793 55.417C1.06332 55.5198 1.06924 55.6263 1.07531 55.7352C1.08372 55.8865 1.0924 56.0424 1.04676 56.1996C0.0435432 59.6928 1.39198 63.9599 4.30318 66.6767C5.5706 67.8594 7.6032 69.0782 9.06753 69.5866ZM12.5294 83.6539C10.3049 84.1075 6.51508 82.8762 4.08492 80.6405L3.67233 80.3233L3.66984 80.3214C3.40405 80.1171 3.13828 79.9128 2.87358 79.7095C1.4429 77.966 0.221595 75.4723 0.225334 73.436C0.225933 73.2077 0.169758 72.9603 0.113354 72.7119L0.113352 72.7119C0.0524672 72.4438 -0.00868291 72.1746 0.00102083 71.9268L0.0740328 71.7121L0.146817 71.4981C0.133108 71.3785 0.119087 71.2588 0.105067 71.1392C0.0910463 71.0195 0.0770258 70.8999 0.0633173 70.7803C0.0982118 70.675 0.13342 70.57 0.168628 70.465C0.203836 70.36 0.239044 70.255 0.273939 70.1497C0.295702 70.0026 0.287626 69.8598 0.279815 69.7217C0.258103 69.3378 0.23843 68.9899 0.867143 68.6866C2.13456 69.0779 3.46554 69.4792 4.73669 69.8232L5.6942 70.3452L6.65216 70.8675C8.50905 72.0676 9.69297 73.3612 10.6351 74.7321C10.8719 74.9925 11.1099 75.253 11.348 75.5135C11.3829 75.6879 11.419 75.8637 11.4551 76.0381C11.5176 76.1191 11.5801 76.2004 11.6425 76.2818L11.644 76.2838C11.7069 76.3657 11.7698 76.4475 11.8327 76.5291C11.8539 76.6712 11.8764 76.8145 11.8988 76.9566C11.9642 77.0519 12.03 77.1473 12.0957 77.2426C12.1614 77.3379 12.2272 77.4333 12.2926 77.5286C12.2957 77.6121 12.2985 77.6956 12.3013 77.7791C12.3041 77.8626 12.307 77.9461 12.3101 78.0296C12.3582 78.1831 12.4288 78.3376 12.4997 78.493L12.4997 78.4931C12.616 78.7478 12.7333 79.0049 12.755 79.2634L12.7325 79.8765C12.8198 80.2641 12.9195 80.7913 12.9157 81.1838L12.7699 81.8219C12.7867 81.9023 12.8032 81.9829 12.8197 82.0636C12.8363 82.1443 12.8528 82.225 12.8696 82.3054C12.7712 82.5559 12.674 82.8064 12.5768 83.0569C12.5562 83.1448 12.5633 83.223 12.5704 83.3017C12.5801 83.4092 12.5899 83.5178 12.5294 83.6539ZM2.85282 91.0066L2.85894 91.0133C3.09493 91.2715 3.33092 91.5297 3.56567 91.788C3.61563 91.8658 3.66465 91.9525 3.71557 92.0427L3.7156 92.0427C3.83105 92.2471 3.95621 92.4687 4.12398 92.6416L5.71292 93.8567C6.22762 94.3265 6.87193 94.668 7.46514 94.9335L8.09929 95.2966L8.74252 95.665L9.88781 95.8557C10.1956 95.9753 10.5047 96.0962 10.8125 96.2171C10.9758 96.1847 11.139 96.1523 11.3023 96.1186C11.6026 96.1984 11.9017 96.2781 12.2021 96.3591C12.532 96.3938 12.8999 96.3447 13.2502 96.2978L13.2503 96.2978H13.2504H13.2505H13.2505L13.2507 96.2977L13.2509 96.2977L13.2511 96.2977L13.2513 96.2977L13.2515 96.2977L13.2517 96.2976L13.2519 96.2976C13.4171 96.2755 13.5784 96.2539 13.7299 96.242C13.8691 96.2308 14.0489 96.2216 14.2522 96.2111C15.0937 96.1677 16.339 96.1035 16.7857 95.7983C17.4499 95.346 16.6785 93.2037 16.3932 92.7476C16.3339 92.653 16.3453 92.5537 16.3567 92.455C16.3654 92.3794 16.374 92.3041 16.3508 92.2316C16.2713 91.9842 16.1126 91.7103 15.965 91.4558C15.8859 91.3194 15.8101 91.1884 15.7513 91.0701L15.7449 91.0635L15.7446 91.0631C15.5936 90.9072 15.4425 90.7513 15.2927 90.5953C15.261 90.5123 15.2294 90.4293 15.1979 90.3464L15.1966 90.3431L15.1958 90.3409C15.1514 90.224 15.107 90.1072 15.0622 89.9909C14.921 89.7532 14.6983 89.5703 14.4644 89.3782L14.4643 89.3782C14.3267 89.2651 14.1851 89.1488 14.054 89.0163L13.553 88.3396C12.9814 87.7495 12.205 87.2597 11.4062 86.7559L11.2263 86.6423L10.802 86.4342L10.3751 86.2248C10.0079 86.0815 9.64069 85.9385 9.27359 85.7955C8.76232 85.5964 8.25122 85.3974 7.74054 85.1979C7.63975 85.2009 7.53896 85.2037 7.43817 85.2065L7.43444 85.2066C7.33209 85.2094 7.22974 85.2122 7.12739 85.2153C6.87067 85.1057 6.61396 84.996 6.35848 84.8863C6.23448 84.8863 6.11048 84.8866 5.98648 84.8869C5.86248 84.8872 5.73848 84.8876 5.61448 84.8876C5.46005 84.8495 5.30524 84.8117 5.15027 84.774L5.15002 84.7739L5.14966 84.7738L5.1493 84.7737L5.14882 84.7736L5.14823 84.7735L5.14752 84.7733L5.14329 84.7723L5.1429 84.7722C5.01644 84.7414 4.88987 84.7105 4.7633 84.6794C4.69663 84.7 4.62995 84.7202 4.56328 84.7405C4.49661 84.7608 4.42993 84.781 4.36326 84.8016C4.25172 84.7748 4.13987 84.7483 4.02802 84.7218C3.91617 84.6953 3.80431 84.6688 3.69278 84.642L3.68865 84.6433L3.6885 84.6433L3.6884 84.6434L3.6883 84.6434L3.6882 84.6434L3.6881 84.6435L3.688 84.6435L3.6879 84.6435C3.54247 84.6866 3.39705 84.7298 3.25162 84.7717C3.15867 84.7764 3.02587 84.7717 2.87036 84.7663C2.20022 84.7429 1.10816 84.7048 0.963521 85.335C0.848971 85.8564 1.32272 87.1954 1.58552 87.9382C1.62293 88.0439 1.65606 88.1375 1.68261 88.215C1.74464 88.3969 1.79834 88.5998 1.8532 88.8072C1.94383 89.1497 2.03762 89.5041 2.17735 89.7952L2.70202 90.4881C2.73904 90.6115 2.77419 90.7337 2.80923 90.8555L2.80928 90.8556L2.80933 90.8558L2.8094 90.856L2.85282 91.0066ZM18.9175 76.7204C18.9109 76.6261 18.9043 76.5319 18.8968 76.4381C18.8307 76.291 18.7647 76.1428 18.7011 75.9932C18.7335 75.8038 18.7659 75.6156 18.7984 75.4274C18.7932 75.3359 18.7711 75.2507 18.7489 75.1653C18.7121 75.024 18.6752 74.882 18.7149 74.7096C18.7367 74.6423 18.7581 74.575 18.7796 74.5078C18.8011 74.4404 18.8226 74.3731 18.8445 74.3058C18.8445 74.2343 18.8125 74.1632 18.781 74.0932C18.7532 74.0313 18.7258 73.9704 18.7211 73.9107L19.0127 73.0546C19.0426 72.9342 19.0347 72.8028 19.0265 72.6675C19.0173 72.5156 19.0078 72.3588 19.0513 72.2072C19.1342 72.0403 19.2167 71.8734 19.2992 71.7065L19.3006 71.7035C19.3828 71.5374 19.4649 71.3713 19.5473 71.2052C20.1405 69.357 21.2273 67.8516 22.6741 66.548C22.8142 66.3836 22.954 66.2192 23.0938 66.0549C23.2338 65.8902 23.3738 65.7256 23.5141 65.561C25.3697 64.1041 27.4073 63.243 29.425 62.5513C29.4903 62.5768 29.5556 62.602 29.6209 62.6272C29.6865 62.6525 29.752 62.6778 29.8175 62.7034C30.4643 63.1395 30.5703 65.2008 30.5528 65.8738L30.6351 66.1199L30.7173 66.366C30.7347 66.7311 30.6824 67.0585 30.6284 67.3967C30.5893 67.6416 30.5493 67.8921 30.5341 68.1669C30.5289 68.2642 30.5366 68.3608 30.5445 68.459C30.5573 68.62 30.5705 68.7854 30.5279 68.9657C30.4881 69.057 30.4479 69.1479 30.4078 69.2386L30.4075 69.2394C30.3798 69.3019 30.3522 69.3644 30.3248 69.4268C30.2977 69.5439 30.3039 69.6701 30.3104 69.8002C30.3184 69.9637 30.3268 70.1333 30.2699 70.2992C29.7004 71.9579 27.9931 74.5875 26.6372 75.7078C26.497 75.7851 26.3569 75.862 26.2167 75.9389C26.0765 76.0159 25.9362 76.0929 25.796 76.1702C25.6402 76.3072 25.484 76.4436 25.3279 76.5798L25.1105 76.7696C25.0402 76.7869 24.9701 76.8045 24.9001 76.8221L24.898 76.8226C24.8273 76.8403 24.7566 76.8581 24.6856 76.8755L24.1061 77.3691L23.5914 77.4513L23.288 77.6383L22.987 77.8239C22.9109 77.832 22.8346 77.8404 22.7583 77.8488C22.6819 77.8573 22.6056 77.8657 22.5296 77.8738C21.9426 78.1155 19.8988 78.862 19.3267 78.5355C19.0051 77.9768 18.9611 77.3456 18.9175 76.7204ZM28.0798 48.96L27.9288 49.0247L27.9282 49.0249C27.7635 49.0955 27.5992 49.1658 27.4342 49.2354C27.3077 49.3445 27.1812 49.4538 27.0547 49.5632L27.0524 49.5652C26.9267 49.6739 26.801 49.7826 26.6753 49.8909C26.5879 49.9258 26.5006 49.9608 26.4132 49.9959L26.4124 49.9962C26.2905 50.0452 26.1684 50.0941 26.0459 50.1427C25.902 50.3047 25.758 50.4664 25.6141 50.6281C25.4702 50.7898 25.3262 50.9515 25.1823 51.1135C24.0731 52.0806 22.63 53.5698 22.0293 55.2298C22.0013 55.3679 21.973 55.5064 21.9447 55.6448L21.9446 55.6454L21.9439 55.6486C21.9158 55.7862 21.8876 55.9238 21.8598 56.0611L21.3962 57.1191C21.4025 57.321 21.4087 57.5229 21.4137 57.7248C21.3952 57.8472 21.3745 57.9759 21.3531 58.1093C21.1684 59.2611 20.927 60.7662 21.5134 61.6317C22.6749 61.9233 23.9734 61.6641 25.0203 61.3077C25.2626 61.2253 25.5382 61.183 25.8114 61.141L25.8115 61.141L25.8115 61.141L25.8115 61.141L25.8115 61.141L25.8116 61.141C26.0174 61.1094 26.2219 61.078 26.4098 61.0298L26.6911 60.8475L26.9731 60.6646C27.1506 60.5828 27.3646 60.5106 27.5853 60.4361C27.9424 60.3156 28.317 60.1892 28.582 60.0066C28.6935 59.9107 28.8049 59.8152 28.9164 59.7196C29.028 59.6239 29.1396 59.5282 29.2512 59.4321L29.3988 59.3689C29.5648 59.2978 29.7304 59.2269 29.8968 59.1567C30.1199 58.895 30.3429 58.6333 30.5648 58.3716C30.7037 58.2706 30.8424 58.1694 30.981 58.0681C31.1196 57.9669 31.2583 57.8656 31.3972 57.7647C32.9737 56.4499 34.0094 53.1187 34.2511 51.6718L34.1763 50.9939C34.2112 50.8887 34.2464 50.7838 34.2815 50.6789C34.3168 50.5738 34.352 50.4687 34.387 50.3633C34.4206 49.9308 34.2561 47.401 34.043 47.1355C32.6358 47.1215 31.4204 47.559 30.1755 48.0071C29.651 48.1959 29.1212 48.3867 28.5695 48.5463C28.4063 48.6846 28.243 48.8229 28.0798 48.96ZM25.0767 92.0301C24.6947 92.1628 24.1735 92.3439 23.8902 91.964C23.7393 91.7243 23.6898 91.4135 23.6443 91.1274C23.6132 90.9316 23.5838 90.7474 23.5251 90.6056C21.6819 86.1329 25.0879 79.2001 30.1351 76.6004C30.3358 76.4421 30.5377 76.2826 30.7383 76.1231L31.2941 76.0334C31.4949 75.9458 31.6741 75.8464 31.8468 75.7506C32.2125 75.5478 32.5495 75.3609 33.0015 75.3355C33.5162 75.8287 33.6627 76.6265 33.7908 77.3237L33.7908 77.3238C33.8329 77.5533 33.8731 77.7719 33.9237 77.965C34.6253 80.6382 34.5081 84.8954 31.4561 88.0122C31.2265 88.2755 30.9966 88.5388 30.7667 88.8021C30.5373 89.0647 30.308 89.3273 30.079 89.5899L29.8053 89.7078L29.5319 89.8255C29.456 89.9039 29.3801 89.9819 29.3042 90.06C29.2281 90.1383 29.152 90.2167 29.0758 90.2953C28.9496 90.3955 28.8033 90.4342 28.6618 90.4716C28.5727 90.4952 28.4856 90.5182 28.4066 90.5558C28.2789 90.6586 28.1511 90.7611 28.0234 90.8636C27.8956 90.9661 27.7679 91.0686 27.6402 91.1714C26.951 91.4755 26.0886 91.7858 25.3533 91.9441C25.277 91.9605 25.1822 91.9935 25.0767 92.0301ZM33.1219 89.6973C32.5346 90.2609 32.0195 91.0665 31.5128 91.859C31.354 92.1073 31.1961 92.3544 31.037 92.5923C30.5223 93.3612 30.2793 94.1526 30.0948 94.838C29.954 95.1184 29.8132 95.3988 29.6723 95.678C29.6511 95.85 29.6296 96.0224 29.6081 96.1948L29.6079 96.1966L29.6077 96.1983C29.5863 96.3694 29.565 96.5404 29.544 96.7111L29.4635 96.9246L29.4106 97.0652L29.4104 97.0659C29.3495 97.2279 29.2887 97.3897 29.2274 97.5511C29.2636 97.7255 29.2997 97.9013 29.3346 98.0757L29.3333 98.0796L29.3331 98.0802L29.3329 98.0807C29.2711 98.2598 29.2094 98.4388 29.1477 98.6166L29.2561 99.3506C29.2823 100.989 29.4306 101.852 30.0188 103.377C30.0462 103.547 30.0736 103.716 30.1023 103.886C30.2598 104.235 30.4876 104.564 30.715 104.892C30.9876 105.285 31.2595 105.678 31.4083 106.103C31.9799 106.656 32.3587 106.366 32.7697 106.051C32.9206 105.936 33.0758 105.817 33.2465 105.735C34.6249 105.077 37.3217 102.213 38.0234 100.202L38.0794 99.5401C38.2801 99.1363 38.4807 98.7325 38.6814 98.3275C38.718 98.1917 38.6942 98.0544 38.6713 97.922C38.6544 97.8247 38.638 97.73 38.6465 97.6408C38.6752 97.3521 38.7323 97.0877 38.7882 96.8288C38.8656 96.4707 38.9407 96.1229 38.9356 95.7353C38.911 95.6503 38.8866 95.5654 38.8623 95.4804L38.8614 95.4773L38.836 95.3886C38.8199 95.3322 38.8037 95.2758 38.7873 95.2194C38.7007 94.081 38.4612 93.0443 38.2094 91.9545L38.2094 91.9545L38.1492 91.6938L38.0335 91.5264C37.9105 91.3483 37.7878 91.1709 37.6644 90.9934C37.6283 90.8189 37.5922 90.6432 37.5573 90.4687C37.4919 90.3909 37.4263 90.3131 37.3606 90.2354C37.2948 90.1574 37.229 90.0794 37.1634 90.0014C37.1518 89.9438 37.14 89.8864 37.1282 89.829L37.118 89.7795C37.1027 89.7057 37.0874 89.6319 37.0725 89.5577L37.0675 89.552L37.0669 89.5513C36.8282 89.2793 36.5896 89.0073 36.3509 88.7365C36.2987 88.6499 36.265 88.5643 36.2317 88.4798C36.1586 88.2941 36.0874 88.1136 35.8262 87.9389C35.7687 87.9395 35.7128 87.939 35.6582 87.9385C35.3662 87.9361 35.1109 87.934 34.838 88.0946L34.5516 88.4201C34.3481 88.6514 34.1447 88.8824 33.9419 89.1141C33.6876 89.2924 33.4355 89.4729 33.1844 89.6525L33.184 89.6529L33.1219 89.6973ZM15.0507 61.0176L15.1928 60.6743C15.2219 60.5337 15.2141 60.3971 15.2062 60.2582C15.1975 60.1066 15.1886 59.9522 15.2277 59.787C15.3722 59.4505 15.5155 59.114 15.6589 58.7775L15.6813 58.1644C15.825 57.8299 15.9675 57.4954 16.1099 57.161L16.11 57.1607L16.1101 57.1605L16.1125 57.1549L16.2732 56.0732L16.5501 55.5556L16.8266 55.0388C16.9204 54.8082 16.9822 54.5962 17.0455 54.3791C17.12 54.1234 17.1966 53.8607 17.3301 53.5521C17.3676 53.4652 17.4122 53.3604 17.4627 53.2415L17.463 53.2408L17.463 53.2408C17.9486 52.0978 18.9858 49.657 19.6979 49.341C19.8288 49.3909 19.9596 49.442 20.0905 49.4931C20.3727 49.6956 20.6553 49.8981 20.9379 50.1006C21.2205 50.3031 21.5031 50.5056 21.7853 50.7082C21.7926 51.1778 21.6151 51.458 21.3875 51.8174C21.2623 52.0149 21.1221 52.2364 20.989 52.5264C20.8376 52.8928 20.6858 53.2592 20.5341 53.6256C20.3824 53.992 20.2307 54.3584 20.0792 54.7248C19.9722 54.9102 19.8652 55.096 19.7581 55.2817C19.6508 55.468 19.5435 55.6542 19.4362 55.8401C19.4201 55.9684 19.4043 56.097 19.3885 56.2256L19.3882 56.2277L19.388 56.2299C19.3721 56.3584 19.3563 56.487 19.3402 56.6153L19.087 57.1784L19.0865 57.1794C18.9326 57.5216 18.7785 57.8642 18.6249 58.2067C18.6159 58.3471 18.6072 58.4871 18.5985 58.627L18.5983 58.6296L18.5983 58.6307C18.589 58.7803 18.5797 58.9297 18.5701 59.0791L18.1065 60.0325C17.9731 60.8897 17.8017 61.7517 17.6296 62.6177L17.6296 62.6177C17.5107 63.216 17.3914 63.8162 17.2839 64.418C17.215 64.8041 17.2191 65.4523 17.222 65.9101V65.9101C17.2224 65.9739 17.2227 66.034 17.2229 66.0892C17.2241 66.435 17.1553 66.7705 17.0865 67.1066C17.0141 67.4596 16.9417 67.8133 16.95 68.1804C16.9613 68.6932 16.9764 69.2086 16.9915 69.7254L16.9915 69.7255L16.9915 69.7257C17.0247 70.8602 17.0581 72.0013 17.0521 73.1366C17.0908 73.255 17.1291 73.3733 17.1674 73.4916C17.2057 73.6101 17.244 73.7285 17.2827 73.847C17.2627 74.2172 17.3118 74.5348 17.3614 74.8563C17.3893 75.037 17.4173 75.219 17.4335 75.4123C17.4216 75.5095 17.4095 75.6064 17.3974 75.7032C17.3852 75.8001 17.373 75.897 17.3612 75.9942C17.3694 76.3096 17.4314 76.634 17.4939 76.9604C17.5454 77.2298 17.5972 77.5006 17.6192 77.7689C17.6915 77.9446 17.7625 78.1191 17.8335 78.2935L17.8186 78.7372C17.8457 78.9132 17.9124 79.0978 17.9795 79.2835C18.0634 79.5159 18.148 79.75 18.1563 79.971C18.1723 80.3916 18.2821 80.7448 18.3988 81.12L18.3988 81.12L18.3988 81.1201C18.4366 81.2418 18.4752 81.3657 18.5115 81.4951L18.5377 82.036C18.6477 82.3473 18.748 82.655 18.8482 82.9622C18.9863 83.3857 19.1241 83.8084 19.2866 84.2381C19.2874 84.2843 19.2883 84.3305 19.2892 84.3768C19.2898 84.4071 19.2904 84.4375 19.291 84.4678C19.2926 84.5445 19.2941 84.6212 19.2954 84.6979C19.4495 85.198 19.6358 85.6841 19.8215 86.1687C20.0848 86.8556 20.3468 87.5393 20.5142 88.2547C20.64 88.4541 20.7659 88.6535 20.8918 88.8516C20.9631 89.0391 21.0252 89.2502 21.0878 89.4632L21.0878 89.4633C21.1662 89.7303 21.2456 90.0004 21.3454 90.2312C21.4327 90.3639 21.5205 90.4959 21.6086 90.6281L21.609 90.6287L21.7143 90.7871L21.7816 91.3192C21.9095 91.4967 22.0374 91.6731 22.1653 91.8494L22.1654 91.8495L22.1654 91.8496L22.1667 91.8513C22.234 92.0249 22.302 92.2198 22.3712 92.4186L22.3713 92.4187L22.3713 92.4187C22.475 92.7164 22.5818 93.0227 22.6939 93.2783L23.1039 93.8266C23.1274 93.9227 23.1507 94.0191 23.1739 94.1155L23.1743 94.1169C23.1976 94.2138 23.221 94.3107 23.2447 94.4074L23.6709 94.9308C23.6921 95.0728 23.7145 95.2162 23.7369 95.3582L24.2043 95.9789C24.3103 96.1757 24.4061 96.4211 24.5033 96.6701C24.6196 96.9681 24.7379 97.2715 24.8785 97.503L25.362 98.0987L25.5191 98.6558C25.6709 98.8138 25.824 98.9719 25.9771 99.1299L25.9777 99.1306C26.0082 99.2259 26.0384 99.3213 26.0686 99.4166L26.1101 99.5472L26.1596 99.7026C26.3583 100.111 26.616 100.435 26.8839 100.773C27.053 100.986 27.226 101.204 27.3909 101.451C27.4868 101.595 27.5386 101.755 27.5891 101.911C27.6292 102.035 27.6686 102.156 27.7286 102.266C27.8807 102.424 28.034 102.583 28.1872 102.741C28.2732 102.948 28.358 103.155 28.4427 103.362C28.5344 103.444 28.626 103.528 28.7177 103.611L28.8516 103.733L28.9923 103.86L29.1053 104.141C29.1691 104.3 29.233 104.459 29.2964 104.618C29.5332 104.878 29.7712 105.139 30.0092 105.399L30.1328 105.69L30.256 105.98L30.8542 106.615L31.1832 107.285C31.3129 107.459 31.4665 107.604 31.6144 107.743C31.8303 107.946 32.0342 108.138 32.1341 108.396C32.2236 108.625 32.405 108.811 32.5934 109.004C32.7223 109.137 32.8545 109.272 32.9628 109.427L33.1684 109.806L33.3741 110.185L33.4569 110.254C33.6253 110.394 33.7944 110.535 33.9635 110.676L34.7599 111.861C34.8767 111.99 35.0013 112.11 35.1225 112.228C35.5263 112.618 35.8911 112.97 35.7943 113.481C35.6983 113.989 34.8932 114.442 34.5954 114.581C34.476 114.637 34.3782 114.692 34.2879 114.743C34.0897 114.854 33.928 114.945 33.6557 114.979C33.0607 114.578 32.749 114.1 32.4603 113.657C32.3831 113.538 32.3076 113.423 32.2288 113.311C31.9386 113.018 31.6473 112.724 31.3559 112.43L31.3532 112.427L31.344 112.418C31.2212 112.2 31.0985 111.98 30.9758 111.761L30.9738 111.757C30.8661 111.663 30.7584 111.57 30.6506 111.476C30.5428 111.382 30.4349 111.288 30.327 111.194C30.2162 111.064 30.1562 110.9 30.0993 110.745C30.0653 110.652 30.0325 110.563 29.9905 110.485C29.7089 110.183 29.4273 109.883 29.1456 109.583C29.0733 109.407 29.0023 109.233 28.9312 109.058C28.8372 108.962 28.7428 108.865 28.6483 108.768C28.5994 108.718 28.5504 108.668 28.5015 108.618C28.4561 108.572 28.4107 108.525 28.3655 108.479C28.1947 108.17 28.0252 107.86 27.8558 107.551C27.7536 107.449 27.6511 107.347 27.5486 107.245C27.4461 107.144 27.3436 107.042 27.2414 106.939C27.2127 106.851 27.1837 106.762 27.1547 106.673C27.1258 106.585 27.0968 106.496 27.0681 106.407C26.8271 106.044 26.584 105.746 26.3449 105.452C26.0809 105.128 25.8217 104.81 25.5751 104.417C25.5315 104.307 25.4876 104.197 25.4437 104.086C25.3997 103.976 25.3558 103.866 25.3122 103.755L25.2373 103.673L25.0372 103.453C24.9456 103.352 24.8541 103.252 24.7626 103.151L24.732 103.048L24.6922 102.913C24.6688 102.833 24.6455 102.754 24.6218 102.675L24.1544 102.159C24.1097 102.043 24.0653 101.926 24.0209 101.809L23.983 101.709L23.9239 101.555L23.3992 100.966L23.3002 100.64L23.2011 100.313C23.1311 100.233 23.0611 100.152 22.9911 100.071L22.9896 100.069C22.9205 99.9892 22.8514 99.9093 22.7823 99.8297C22.6636 99.5551 22.5436 99.2806 22.4236 99.006L22.4209 98.9997C22.2926 98.8564 22.1642 98.7143 22.0358 98.5723L21.9128 98.1782L21.7891 97.7822C20.0917 94.7114 18.7794 91.6993 17.5145 88.5588C17.5114 88.4753 17.5086 88.3918 17.5058 88.3083C17.503 88.2248 17.5002 88.1413 17.4971 88.0578C17.3643 87.7223 17.2337 87.4019 17.104 87.0842C16.9294 86.656 16.7567 86.2327 16.5836 85.7834C16.5748 85.6906 16.5664 85.5977 16.558 85.5049C16.5496 85.412 16.5412 85.3192 16.5325 85.2263C16.5095 85.1959 16.4866 85.1653 16.4636 85.1347L16.4298 85.0895C16.3955 85.0436 16.3612 84.9977 16.3268 84.9522L16.3418 84.5085L16.0539 84.0412C16.0165 83.8807 16.0062 83.7023 15.9959 83.5229C15.9824 83.2897 15.9689 83.0547 15.8956 82.8548C15.1816 80.8994 14.7715 78.4244 14.6444 76.3432C14.6055 76.2549 14.5659 76.1673 14.526 76.0794L14.4887 75.9967C14.359 75.244 14.3603 74.3966 14.384 73.6239C14.3927 73.3648 14.3156 73.0729 14.2399 72.7864C14.1853 72.5795 14.1314 72.3753 14.111 72.1883L14.2082 71.7284C14.2182 71.1863 14.1497 70.5968 14.0811 70.0734L14.2344 69.3705C14.236 69.1066 14.2295 68.8455 14.2231 68.5848L14.2231 68.5847C14.204 67.8137 14.1849 67.0454 14.374 66.2138C14.3621 65.9951 14.3513 65.7764 14.3406 65.5588L14.3406 65.5586L14.3391 65.5271C14.3702 65.3848 14.4009 65.2425 14.4317 65.1002L14.4319 65.099L14.4325 65.0966C14.4631 64.9547 14.4938 64.8128 14.5248 64.671C14.5036 64.1675 14.5671 63.431 14.6344 62.9275C14.7409 62.5932 14.8486 62.2589 14.9563 61.9247L14.9566 61.924L14.9585 61.918C14.9504 61.8252 14.942 61.7323 14.9335 61.6395L14.9335 61.6387C14.9251 61.5461 14.9167 61.4535 14.9086 61.361L15.0507 61.0176ZM24.4683 105.724C24.5791 105.864 24.6905 106.005 24.801 106.145C24.8085 106.24 24.8164 106.334 24.8243 106.429C24.8307 106.506 24.8372 106.583 24.8433 106.66C24.8992 106.808 24.9885 106.979 25.083 107.161C25.298 107.574 25.54 108.038 25.4777 108.402C25.3099 108.929 25.0659 108.952 24.7864 108.978C24.6632 108.99 24.5331 109.002 24.3997 109.059C24.2786 109.13 24.1581 109.202 24.0377 109.273C23.9622 109.318 23.8868 109.363 23.8114 109.408C23.2166 109.616 22.5732 109.659 21.9334 109.701C21.7662 109.712 21.5993 109.723 21.4336 109.737L20.8541 109.916C20.5615 109.937 20.285 109.903 20.0046 109.869C19.7966 109.844 19.5864 109.819 19.3661 109.815L18.6383 109.897C18.5094 109.866 18.3953 109.811 18.2863 109.758C18.1226 109.679 17.9702 109.606 17.7959 109.624C17.6825 109.654 17.5678 109.684 17.4532 109.714C17.0195 109.536 16.5858 109.357 16.1521 109.177C12.9543 108.35 10.3746 105.575 9.44113 103.317C9.37839 103.166 9.27973 102.96 9.16599 102.724C8.72845 101.814 8.06769 100.44 8.36937 99.8577C8.52016 99.7967 9.27039 99.53 9.40623 99.5237L9.75767 99.5798C9.82289 99.5531 9.88812 99.5261 9.95335 99.499C10.019 99.4719 10.0846 99.4447 10.1502 99.4178C10.2329 99.4259 10.3158 99.4337 10.3988 99.4414C10.4822 99.4492 10.5656 99.457 10.6487 99.4652C12.5941 98.9854 15.4592 99.3405 17.6239 99.9798C17.76 100.058 17.8961 100.135 18.0322 100.212C18.169 100.29 18.3058 100.368 18.4427 100.446C18.7186 100.571 19 100.703 19.2743 100.832C19.5575 100.965 19.8332 101.094 20.0877 101.209C20.2293 101.289 20.3706 101.37 20.5118 101.451C20.6516 101.531 20.7913 101.611 20.9314 101.691C21.2167 101.897 21.4299 102.135 21.6252 102.354C21.6791 102.414 21.7316 102.472 21.7838 102.528C21.982 102.681 22.1798 102.834 22.3776 102.987C22.5755 103.14 22.7733 103.293 22.9715 103.446C23.556 104.05 24.0943 104.946 24.3997 105.638L24.4683 105.724Z" fill="#384250"/>
<path fill-rule="evenodd" clip-rule="evenodd" d="M39.9352 112.014H152.923V142.209H39.9352V112.014ZM100.865 128.881L107.097 124.181L99.2759 124.119L96.7708 116.884L94.3878 124.119L86.6889 124.058L92.7991 128.82L90.4773 136.364L96.9541 131.726L102.881 135.993L100.865 128.881ZM74.9542 124.181L68.7218 128.881L70.738 135.993L64.8111 131.726L58.3343 136.364L60.6561 128.82L54.5459 124.058L62.2448 124.119L64.6278 116.884L67.1329 124.119L74.9542 124.181ZM133.008 128.881L139.24 124.181L131.419 124.119L128.914 116.884L126.531 124.119L118.832 124.058L124.942 128.82L122.62 136.364L129.097 131.726L135.024 135.993L133.008 128.881ZM36.8422 118.792H4.87012L21.2818 134.396L4.87012 150H50.8225V145.559H36.8422V118.792ZM156.358 118.792V145.559H142.377V150H188.33L171.918 134.396L188.33 118.792H156.358Z" fill="#384250"/>
<rect x="57.4678" y="100.325" width="77.9225" height="7.79225" fill="#384250"/>
<path d="M141.332 6.95973H128.958C129.003 5.58912 129.028 4.21042 129.028 2.82509C129.028 1.26467 127.762 0 126.203 0H65.6823C64.1226 0 62.8572 1.26467 62.8572 2.82509C62.8572 4.21042 62.8822 5.58912 62.9271 6.95973H50.5526C48.9922 6.95973 47.7275 8.2244 47.7275 9.78482C47.7275 22.4433 51.036 34.3859 57.043 43.4137C62.9808 52.3385 70.8903 57.4575 79.4348 57.9556C81.3719 60.0634 83.4193 61.7819 85.5521 63.093V75.6492H80.8127C75.0831 75.6492 70.4224 80.3106 70.4224 86.0395V90.7789H70.2216C68.6612 90.7789 67.3965 92.0443 67.3965 93.604C67.3965 95.1644 68.6612 96.429 70.2216 96.429H121.663C123.224 96.429 124.488 95.1644 124.488 93.604C124.488 92.0443 123.224 90.7789 121.663 90.7789H121.462V86.0395C121.462 80.3106 116.802 75.6492 111.072 75.6492H106.333V63.093C108.466 61.7827 110.514 60.0634 112.451 57.9556C120.995 57.4575 128.904 52.3385 134.843 43.4137C140.85 34.3859 144.157 22.4433 144.157 9.78482C144.157 8.2244 142.893 6.95973 141.332 6.95973ZM61.7471 40.284C56.7921 32.838 53.8809 23.0988 53.4373 12.6099H63.2427C64.2617 25.5038 67.2884 37.4222 72.0189 46.8825C72.7723 48.3893 73.5602 49.8128 74.3776 51.1533C69.6786 49.3788 65.3299 45.6694 61.7471 40.284ZM115.812 86.0395V90.7796H76.0726V86.0395C76.0726 83.4263 78.1988 81.2994 80.8127 81.2994H111.072C113.686 81.2994 115.812 83.4263 115.812 86.0395ZM100.683 75.6492H91.2023V65.548C92.7554 65.9571 94.3379 66.1697 95.9424 66.1697C97.547 66.1697 99.1295 65.9571 100.683 65.548V75.6492ZM102.432 58.8266C102.305 58.8789 102.183 58.9421 102.066 59.012C100.069 60.0052 98.0171 60.5195 95.9424 60.5195C93.8685 60.5195 91.8174 60.0052 89.8214 59.0135C89.703 58.9421 89.5801 58.8789 89.4513 58.8252C87.2361 57.6539 85.0931 55.8853 83.0662 53.5612C82.9595 53.4089 82.8396 53.2684 82.7064 53.1404C80.6943 50.7516 78.8013 47.8132 77.0724 44.3554C71.8806 33.9725 68.8819 20.3201 68.5405 5.65018H123.344C123.002 20.3201 120.004 33.9732 114.812 44.3554C113.084 47.8132 111.191 50.7516 109.179 53.1404C109.045 53.2684 108.924 53.4097 108.818 53.562C106.791 55.8868 104.647 57.6547 102.432 58.8266ZM130.138 40.284C126.555 45.6694 122.206 49.3788 117.507 51.1533C118.325 49.8128 119.113 48.3893 119.866 46.8825C124.597 37.4222 127.622 25.5038 128.642 12.6099H138.448C138.004 23.0988 135.093 32.838 130.138 40.284Z" fill="#384250"/>
<path d="M101.819 27.7366L111.04 20.6864L99.4678 20.5939L95.7614 9.74023L92.2356 20.5939L80.8447 20.501L89.8851 27.6441L86.4498 38.9612L96.0325 32.0039L104.802 38.4048L101.819 27.7366Z" fill="#384250"/>
</svg>
