<svg width="189" height="150" viewBox="0 0 189 150" fill="none" xmlns="http://www.w3.org/2000/svg">
<path d="M113.161 7.34393L100.946 0.095367H124.804L113.161 7.34393ZM119.364 29.4711L105.431 66.5723L135.778 29.4711H119.364ZM133.393 24.2254L116.024 13.2572L119.746 24.2254H133.393ZM94.3616 23.8439L110.203 9.72832L94.3616 0.28613L78.5202 9.72832L94.3616 23.8439ZM69.0726 24.2254L72.7944 13.2572L55.4261 24.2254H69.0726ZM76.2299 12.2081L72.1264 24.3208H89.7809L76.2299 12.2081ZM99.0377 24.2254H116.692L112.589 12.1127L99.0377 24.2254ZM155.341 24.2254L140.263 9.53757L140.836 24.2254H155.341ZM137.973 23.0809L137.305 6.6763L130.816 0.381497L116.406 9.44219L137.973 23.0809ZM101.423 68.8613L116.215 29.4711H95.6976L101.423 68.8613ZM94.1707 37.6734L88.9221 74.393L94.1707 99L99.4194 74.393L94.1707 37.6734ZM33 29.4711L66.7823 64.6647L48.4597 29.4711H33ZM57.2393 40.0578L74.035 72.3902L90.8307 94.7081L86.25 75.6329L57.2393 40.0578ZM82.91 66.5723L68.9772 29.4711H52.5632L82.91 66.5723ZM102.091 75.5376L97.5108 94.6127L114.306 72.2948L131.102 39.9624L102.091 75.5376ZM121.559 64.7601L155.341 29.5665H139.882L121.559 64.7601ZM92.453 29.4711H71.9355L86.8226 68.8613L92.453 29.4711ZM57.9073 0.381497L51.418 6.6763L50.75 23.0809L72.3172 9.44219L57.9073 0.381497ZM87.8723 0H64.0148L75.6573 7.24855L87.8723 0ZM48.5551 9.53757L33.4772 24.2254H47.9825L48.5551 9.53757Z" fill="#384250"/>
<path fill-rule="evenodd" clip-rule="evenodd" d="M152 111H36V142H152V111ZM87.9524 123.492L81.5539 128.317L83.6238 135.619L77.5389 131.238L70.8894 136L73.2731 128.254L67 123.365L74.9042 123.429L77.3507 116L79.9226 123.429L87.9524 123.492ZM114.554 128.317L120.952 123.492L112.923 123.429L110.351 116L107.904 123.429L100 123.365L106.273 128.254L103.889 136L110.539 131.238L116.624 135.619L114.554 128.317ZM32.8246 117.959H0L16.8492 133.979L0 149.999H47.1775V145.439H32.8246V117.959ZM155.526 117.959V145.439H141.173V149.999H188.351L171.502 133.979L188.351 117.959H155.526Z" fill="#384250"/>
<rect x="54" y="99.1895" width="80" height="8" fill="#384250"/>
</svg>
