<svg width="189" height="148" viewBox="0 0 189 148" fill="none" xmlns="http://www.w3.org/2000/svg">
<path fill-rule="evenodd" clip-rule="evenodd" d="M93.8725 63.9007C111.637 63.9007 126.09 49.5684 126.09 31.9503C126.09 14.3323 111.637 0 93.8725 0C76.1081 0 61.6553 14.3323 61.6553 31.9503C61.6553 49.5684 76.1081 63.9007 93.8725 63.9007ZM93.8725 5.85498C108.382 5.85498 120.187 17.5623 120.187 31.9516C120.187 46.3409 108.382 58.0483 93.8725 58.0483C79.3627 58.0483 67.5569 46.3409 67.5569 31.9516C67.5582 17.561 79.3627 5.85498 93.8725 5.85498ZM95.6745 75.3886L98.9953 71.3786L97.1503 68.374H97.0505H90.6941H90.5944L88.7507 71.3786L92.0701 75.579L86.0752 90.3L93.836 98.1296L93.8308 98.1853L93.8723 98.1308L93.9151 98.1684L93.9112 98.0829L101.669 90.2067L95.6745 75.3886ZM111.057 71.2188V71.2188C111.302 69.3435 111.533 67.5733 113.101 66.4479C113.743 65.9879 114.839 65.651 116.425 65.9529C123.811 67.3587 131.088 71.4736 136.393 76.9852C142.266 83.0877 145.501 91.1038 145.501 99.0227C145.501 99.0551 145.47 100.765 145.272 102.061H139.299C139.476 102.061 139.598 99.7107 139.598 99.0227C139.598 88.6058 131.665 75.4603 116.921 71.9012C116.919 71.9143 116.918 71.927 116.916 71.9396L116.916 71.9397C116.914 71.9507 116.913 71.9615 116.912 71.9724C116.603 74.337 116.086 78.2951 113.215 82.7314C111.633 85.1762 109.391 86.9551 107.951 87.7364C106.521 88.5138 104.728 87.9916 103.945 86.5742C103.162 85.1555 103.687 83.3766 105.118 82.6018C105.84 82.2092 107.271 81.0782 108.246 79.57C110.402 76.2403 110.781 73.3393 111.057 71.221L111.057 71.2188ZM48.2009 102.061C48.0234 102.061 47.9016 99.7109 47.9016 99.0229C47.9016 88.606 55.8348 75.7533 70.5791 72.1942C70.5804 72.2066 70.582 72.1816 70.5837 72.1567C70.5853 72.1321 70.5869 72.1074 70.5882 72.119C70.8965 74.4836 71.4122 78.3692 74.2846 82.8054C75.8666 85.2503 78.1093 86.9929 79.5488 87.7729C80.9792 88.5503 82.7723 88.01 83.5549 86.5926C84.3374 85.1739 83.8127 83.3872 82.3823 82.6111C81.6594 82.2185 80.229 81.0822 79.2534 79.5741C77.1012 76.2514 76.7217 73.3522 76.4446 71.2348L76.4431 71.2238L76.4428 71.2209C76.198 69.3459 75.9668 67.5747 74.3986 66.4494C73.7586 65.9894 72.6612 65.5061 71.0766 65.8054C63.6902 67.2125 56.4126 71.1797 51.1083 76.6913C45.2352 82.7951 42 91.1027 42 99.0216C42 99.054 42.0324 100.764 42.2293 102.06L48.2009 102.061ZM36 109H152V140H36V109ZM81.5539 126.317L87.9524 121.492L79.9226 121.429L77.3507 114L74.9042 121.429L67 121.365L73.2731 126.254L70.8894 134L77.5389 129.238L83.6238 133.619L81.5539 126.317ZM120.952 121.492L114.554 126.317L116.624 133.619L110.539 129.238L103.889 134L106.273 126.254L100 121.365L107.904 121.429L110.351 114L112.923 121.429L120.952 121.492ZM0 115.959H32.8246V143.439H47.1775V147.999H0L16.8492 131.979L0 115.959ZM155.526 143.439V115.959H188.351L171.502 131.979L188.351 147.999H141.173V143.439H155.526Z" fill="#384250"/>
</svg>
