<svg width="40" height="40" viewBox="0 0 40 40" fill="none" xmlns="http://www.w3.org/2000/svg">
<circle cx="20" cy="20" r="19.5" fill="white" stroke="#22AAEC"/>
<path d="M21.5445 10.2407C21.3516 9.98356 20.9017 9.91928 20.6445 10.1121L18.266 11.9121C17.9446 12.1049 17.9446 12.5549 18.1375 12.812L20.0017 15.2548C20.1303 15.4477 20.3231 15.5119 20.516 15.5119C20.6445 15.5119 20.7731 15.5119 20.8374 15.4477C21.1588 15.2548 21.1588 14.8048 20.9659 14.5477L19.4874 12.6192L21.4159 11.1407C21.7373 10.9478 21.7373 10.4978 21.5445 10.2407Z" fill="#22AAEC"/>
<path fill-rule="evenodd" clip-rule="evenodd" d="M28.3566 17.6682C27.4566 15.4182 25.7209 13.6826 23.5353 12.7183C22.0568 12.0755 20.4497 11.8826 18.8426 12.0755C18.4569 12.1398 18.1998 12.4612 18.2641 12.7826C18.3284 13.1683 18.6498 13.4254 18.9712 13.3612C20.3854 13.1683 21.7354 13.4254 23.021 13.9397C24.8853 14.7754 26.3638 16.2539 27.1352 18.1824C27.9066 20.1109 27.9066 22.2323 27.0709 24.0965C26.705 24.9198 26.2089 25.7106 25.5826 26.3762C25.369 26.5912 25.1432 26.7929 24.9068 26.9826C24.8475 27.0039 24.7921 27.036 24.743 27.0791C23.615 27.9537 22.3176 28.4066 20.9471 28.6046C18.9149 28.8139 16.895 28.2735 15.2621 26.9898C13.6293 25.7061 12.5678 23.8694 12.3586 21.8371C12.2249 20.578 12.346 19.2458 12.8505 18.0633C13.0323 17.7355 12.8071 17.3459 12.5115 17.2198C12.3037 17.1171 12.1046 17.158 11.9376 17.2544C11.8263 17.3188 11.715 17.3831 11.6445 17.6466C11.1596 18.8407 10.9281 20.1753 11.0197 21.5092C11.0805 22.8734 11.4627 24.2594 12.1784 25.4828C13.3672 27.5257 15.2681 29.0613 17.6018 29.7139C19.9355 30.3665 22.3686 30.0429 24.4627 28.8931C25.8717 28.1096 27.0015 26.9505 27.825 25.557C27.8548 25.5009 27.8771 25.4433 27.8924 25.3856C28.0406 25.1146 28.1744 24.8345 28.2923 24.5465C29.1922 22.3608 29.2565 19.9181 28.3566 17.6682Z" fill="#22AAEC"/>
</svg>
