<svg width="40" height="40" viewBox="0 0 40 40" fill="none" xmlns="http://www.w3.org/2000/svg">
<circle cx="20" cy="20" r="19.5" fill="white" stroke="#22AAEC"/>
<path d="M12.5327 17.2485C12.2112 17.1199 11.8255 17.2485 11.6969 17.5699C11.5683 17.8914 11.4397 18.2129 11.3111 18.5986C11.2469 18.92 11.4397 19.2415 11.7612 19.3701C11.8255 19.3701 11.8898 19.3701 11.9541 19.3701C12.2112 19.3701 12.4684 19.1772 12.5327 18.9843C12.597 18.6629 12.7255 18.3414 12.8541 18.0843C12.9827 17.7628 12.8541 17.3771 12.5327 17.2485Z" fill="#22AAEC"/>
<path d="M21.5332 10.2407C21.3403 9.98356 20.8903 9.91927 20.6331 10.1121L18.2543 11.9123C17.9329 12.1052 17.9329 12.5552 18.1258 12.8124L19.9902 15.2554C20.1188 15.4483 20.3116 15.5126 20.5045 15.5126C20.6331 15.5126 20.7617 15.5126 20.826 15.4483C21.1474 15.2554 21.1474 14.8054 20.9546 14.5482L19.4759 12.6195L21.4046 11.1408C21.726 10.9479 21.726 10.4979 21.5332 10.2407Z" fill="#22AAEC"/>
<path fill-rule="evenodd" clip-rule="evenodd" d="M23.5344 12.6837C25.7203 13.6481 27.4561 15.3839 28.3562 17.6341C29.2563 19.8843 29.192 22.3273 28.2919 24.5132C28.1741 24.8013 28.0402 25.0814 27.892 25.3524C27.8767 25.4101 27.8544 25.4677 27.8245 25.5239C27.001 26.9175 25.871 28.0767 24.4619 28.8603C22.3676 30.0102 19.9342 30.3339 17.6002 29.6812C15.2662 29.0285 13.3651 27.4928 12.1762 25.4496C11.4046 24.1306 11.0205 22.6224 11.009 21.1564C10.973 20.886 11.0512 20.7839 11.1293 20.6818C11.2465 20.5286 11.4148 20.4145 11.6461 20.4296C11.9676 20.4327 12.325 20.7062 12.2828 21.0787C12.2703 22.3644 12.6695 23.6413 13.2759 24.753C14.2487 26.5498 15.9335 27.8391 17.9341 28.3986C19.9346 28.958 22.0076 28.6823 23.8043 27.7095C24.4545 27.3224 25.0554 26.8733 25.5819 26.3431C26.2083 25.6775 26.7044 24.8866 27.0704 24.0632C27.9062 22.1988 27.9062 20.0772 27.1347 18.1484C26.3632 16.2197 24.8845 14.741 23.0201 13.9053C21.7343 13.3909 20.3842 13.1338 18.9698 13.3266C18.6483 13.3909 18.3269 13.1338 18.2626 12.748C18.1983 12.4266 18.4555 12.1051 18.8412 12.0408C20.4485 11.848 22.0557 12.0408 23.5344 12.6837Z" fill="#22AAEC"/>
</svg>
