<svg width="40" height="40" viewBox="0 0 40 40" fill="none" xmlns="http://www.w3.org/2000/svg">
<circle cx="20" cy="20" r="19.5" fill="white" stroke="#22AAEC"/>
<path d="M12.541 17.2401C12.2199 17.1117 11.8346 17.2401 11.7062 17.5612C11.5778 17.8823 11.4493 18.2034 11.3209 18.5887C11.2567 18.9098 11.4493 19.2308 11.7704 19.3593C11.8346 19.3593 11.8988 19.3593 11.9631 19.3593C12.2199 19.3593 12.4768 19.1666 12.541 18.974C12.6052 18.6529 12.7337 18.3318 12.8621 18.0749C12.9905 17.7539 12.8621 17.3686 12.541 17.2401Z" fill="#22AAEC"/>
<path d="M12.5412 22.8911C12.4128 22.3774 12.2843 21.8637 12.2843 21.3499C12.2201 21.0288 11.899 20.772 11.5779 20.772C11.2569 20.8362 11 21.0931 11 21.4784C11 22.1205 11.1284 22.7627 11.2569 23.3406C11.3853 23.5975 11.6422 23.7901 11.899 23.7901C11.9632 23.7901 12.0275 23.7901 12.0917 23.6617C12.4128 23.5975 12.6054 23.2122 12.5412 22.8911Z" fill="#22AAEC"/>
<path d="M21.531 10.2404C21.3384 9.98358 20.8889 9.91937 20.632 10.112L18.256 11.9101C17.9349 12.1027 17.9349 12.5522 18.1276 12.8091L19.9898 15.2493C20.1183 15.442 20.3109 15.5062 20.5036 15.5062C20.632 15.5062 20.7604 15.5062 20.8247 15.442C21.1457 15.2493 21.1457 14.7998 20.9531 14.5429L19.4761 12.6165L21.4026 11.1395C21.7237 10.9468 21.7237 10.4973 21.531 10.2404Z" fill="#22AAEC"/>
<path fill-rule="evenodd" clip-rule="evenodd" d="M28.3368 17.6254C27.4378 15.3778 25.7039 13.644 23.5206 12.6807C22.0436 12.0386 20.4382 11.8459 18.8328 12.0386C18.4475 12.1028 18.1906 12.4239 18.2548 12.7449C18.3191 13.1302 18.6401 13.3871 18.9612 13.3229C20.374 13.1302 21.7225 13.3871 23.0069 13.9008C24.8691 14.7356 26.3461 16.2126 27.1167 18.1391C27.3337 18.6816 27.4896 19.2394 27.583 19.8025C27.671 20.4295 27.6839 21.0662 27.6398 21.7068C27.4165 23.7353 26.4638 25.5942 24.8665 26.9186C23.2693 28.243 21.2523 28.893 19.2238 28.6697C17.966 28.5354 16.6906 28.1368 15.6419 27.3952C15.5805 27.3415 15.5122 27.3061 15.441 27.2862C15.4041 27.2249 15.3575 27.1711 15.3018 27.1294C14.5954 26.6157 14.0175 25.9735 13.5038 25.2029C13.3111 24.8818 12.9258 24.8176 12.6047 25.0103C12.2836 25.2029 12.2194 25.5882 12.4121 25.9093C12.99 26.7441 13.6964 27.5147 14.5312 28.1569C14.5897 28.1861 14.6482 28.2154 14.7067 28.2386C14.748 28.3203 14.8194 28.4023 14.9812 28.4853C16.1915 29.3097 17.6483 29.8522 19.1702 29.9689C21.5241 30.1549 23.8663 29.4674 25.7298 27.9223C26.2045 27.5286 26.6309 27.0937 27.0068 26.6247C27.4881 26.0308 27.8964 25.3683 28.2061 24.6542C28.6019 23.7646 28.8558 22.8096 28.9586 21.8214C29.0637 20.7571 28.9626 19.6996 28.6849 18.679C28.5916 18.3243 28.4757 17.9725 28.3368 17.6254Z" fill="#22AAEC"/>
</svg>
