<svg width="40" height="40" viewBox="0 0 40 40" fill="none" xmlns="http://www.w3.org/2000/svg">
<circle cx="20" cy="20" r="19.5" fill="white" stroke="#22AAEC"/>
<path d="M12.5432 17.2475C12.2218 17.1189 11.8361 17.2475 11.7076 17.5689C11.579 17.8903 11.4504 18.2117 11.3219 18.5974C11.2576 18.9188 11.4504 19.2402 11.7719 19.3688C11.8361 19.3688 11.9004 19.3688 11.9647 19.3688C12.2218 19.3688 12.479 19.176 12.5432 18.9831C12.6075 18.6617 12.7361 18.3403 12.8646 18.0832C12.9932 17.7618 12.8646 17.3761 12.5432 17.2475Z" fill="#22AAEC"/>
<path d="M12.5428 22.9042C12.4142 22.39 12.2856 21.8757 12.2856 21.3615C12.2213 21.0401 11.8999 20.783 11.5785 20.783C11.2571 20.8472 11 21.1044 11 21.4901C11 22.1329 11.1286 22.7757 11.2571 23.3542C11.3857 23.6113 11.6428 23.8042 11.8999 23.8042C11.9642 23.8042 12.0285 23.8042 12.0928 23.6756C12.4142 23.6113 12.607 23.2257 12.5428 22.9042Z" fill="#22AAEC"/>
<path d="M15.3068 27.1468C14.5997 26.6325 14.0212 25.9897 13.5069 25.2183C13.3141 24.8969 12.9284 24.8326 12.607 25.0255C12.2856 25.2183 12.2213 25.604 12.4141 25.9254C12.9927 26.7611 13.6998 27.5324 14.5354 28.1753C14.664 28.2395 14.7926 28.3038 14.9211 28.3038C15.114 28.3038 15.3068 28.2395 15.4354 28.0467C15.6282 27.7896 15.5639 27.3396 15.3068 27.1468Z" fill="#22AAEC"/>
<path d="M21.5424 10.2407C21.3496 9.98357 20.8996 9.91928 20.6425 10.1121L18.2641 11.912C17.9427 12.1049 17.9427 12.5548 18.1355 12.8119L19.9997 15.2546C20.1282 15.4475 20.3211 15.5118 20.5139 15.5118C20.6425 15.5118 20.7711 15.5118 20.8353 15.4475C21.1567 15.2546 21.1567 14.8047 20.9639 14.5475L19.4854 12.6191L21.4139 11.1406C21.7353 10.9478 21.7353 10.4978 21.5424 10.2407Z" fill="#22AAEC"/>
<path fill-rule="evenodd" clip-rule="evenodd" d="M23.5351 12.6834C25.7207 13.6476 27.4563 15.3832 28.3562 17.6331C29.2561 19.8829 29.1919 22.3256 28.2919 24.5112C28.0225 25.1698 27.6694 25.7866 27.2521 26.3486C25.8974 28.2049 23.9226 29.4269 21.7141 29.8874C20.2191 30.2027 18.667 30.0906 17.2727 29.6385C17.0048 29.5872 16.9326 29.4808 16.8604 29.3744L16.8604 29.3744C16.7522 29.2149 16.6971 29.0192 16.7844 28.8045C16.8889 28.5006 17.2613 28.2479 17.6013 28.4056C18.8171 28.8236 20.1545 28.8483 21.4007 28.6241C22.6004 28.4123 23.7088 27.9032 24.6548 27.1618C24.682 27.1344 24.7129 27.1096 24.7477 27.0878C25.35 26.6005 25.8839 26.0177 26.3304 25.3567C27.4931 23.6356 27.8863 21.582 27.5311 19.5702C27.2348 18.2177 26.6896 16.9563 25.7359 15.8943C25.7057 15.8646 25.68 15.8319 25.6586 15.7969C24.9265 14.9981 24.0302 14.3572 23.0208 13.9047C21.7352 13.3905 20.3853 13.1334 18.9711 13.3262C18.6497 13.3905 18.3283 13.1334 18.264 12.7477C18.1997 12.4263 18.4569 12.1049 18.8426 12.0406C20.4496 11.8477 22.0566 12.0406 23.5351 12.6834Z" fill="#22AAEC"/>
</svg>
