<svg width="106" height="18" viewBox="0 0 106 18" fill="none" xmlns="http://www.w3.org/2000/svg">
<path d="M17.8396 0L17.8396 9.15565C17.8462 14.024 13.9845 17.9798 9.20556 18C4.42196 17.9865 0.552949 14.0288 0.559579 9.15565L0.559571 0H3.55542V9.15565C3.54878 12.3433 6.07652 14.9347 9.20556 14.9481C12.3346 14.938 14.865 12.3493 14.8617 9.16175V0H17.8396ZM23.7014 18V9.34225C23.695 7.72405 24.2871 6.16949 25.3473 5.02102C26.4075 3.87254 27.8487 3.22436 29.3536 3.21925C32.4805 3.2299 35.0091 5.96054 35.0058 9.32294V17.9807H37.9996V9.32294C38.0029 4.1826 34.1339 0.010656 29.3536 0C24.5756 0.0177485 20.7129 4.19153 20.7196 9.32938V17.9871L23.7014 18ZM56.1929 0C51.4326 0.0341651 47.5929 4.05561 47.5996 9C47.5929 13.9444 51.4326 17.9658 56.1929 18H61.9996V14.8944H56.1929C53.0699 14.8807 50.5471 12.2437 50.5537 9C50.5504 5.75631 53.0759 3.12208 56.1989 3.1118H61.9996V0.00621033L56.1929 0ZM43.7596 18V0H40.8796V18H43.7596ZM67.7596 18V0H64.8796V18H67.7596ZM102.196 0V1.67818C102.203 4.9231 99.6773 7.56016 96.5536 7.57044C93.4312 7.55674 90.9079 4.92169 90.9113 1.67818V0H87.9196V1.67818C87.9226 6.03699 90.9281 9.76887 95.0577 10.5414V18H98.0494V10.5414C102.184 9.7742 105.196 6.04092 105.2 1.67818V0H102.196ZM70.6396 0V3.10345H76.7484V18H79.8908V3.10345H85.9996V0H70.6396Z" fill="url(#paint0_linear)"/>
<defs>
<linearGradient id="paint0_linear" x1="0.83182" y1="8.4525" x2="107.488" y2="8.4525" gradientUnits="userSpaceOnUse">
<stop offset="0.117549" stop-color="#5468AD"/>
<stop offset="0.548659" stop-color="#448ED7"/>
<stop offset="1" stop-color="#30ACEA"/>
</linearGradient>
</defs>
</svg>
