<svg width="36.207px" height="35" viewBox="0 0 80 80" fill="none" xmlns="http://www.w3.org/2000/svg">
<g id="Group 6556">
<g id="Frame">
<g id="clock 24 hours 1">
<g id="Group">
<path id="Vector" d="M43.75 61.25V59.75C43.75 55.75 47 52.5 51 52.5H51.625C55.625 52.5 58.875 55.75 58.875 59.75C58.875 61.5 58.25 63.25 57 64.625L43.75 78.75H58.75" stroke="#384250" stroke-width="2" stroke-miterlimit="10" stroke-linecap="round" stroke-linejoin="round"/>
<path id="Vector_2" d="M75 78.75V53.625L62 72.5H78.75" stroke="#384250" stroke-width="2" stroke-miterlimit="10" stroke-linecap="square" stroke-linejoin="round"/>
</g>
<g id="Group_2">
<path id="Vector_3" d="M37.5 11.25V32.5" stroke="#384250" stroke-width="2" stroke-miterlimit="10" stroke-linecap="round" stroke-linejoin="round"/>
<path id="Vector_4" d="M37.5 42.5C40.2614 42.5 42.5 40.2614 42.5 37.5C42.5 34.7386 40.2614 32.5 37.5 32.5C34.7386 32.5 32.5 34.7386 32.5 37.5C32.5 40.2614 34.7386 42.5 37.5 42.5Z" stroke="#384250" stroke-width="2" stroke-miterlimit="10" stroke-linecap="round" stroke-linejoin="round"/>
<path id="Vector_5" d="M37.5 73.75C17.5 73.75 1.25 57.5 1.25 37.5C1.25 17.5 17.5 1.25 37.5 1.25C57.5 1.25 73.75 17.5 73.75 37.5C73.75 39.625 73.75 45 73.75 45" stroke="#384250" stroke-width="2" stroke-miterlimit="10" stroke-linecap="round" stroke-linejoin="round"/>
<path id="Vector_6" d="M41.25 33.75L50 25" stroke="#384250" stroke-width="2" stroke-miterlimit="10" stroke-linecap="round" stroke-linejoin="round"/>
<path id="Vector_7" d="M68.75 40L73.75 46.25L78.75 40" stroke="#384250" stroke-width="2" stroke-miterlimit="10" stroke-linecap="round" stroke-linejoin="round"/>
</g>
</g>
</g>
</g>
</svg>
