<svg width="35" height="35" viewBox="0 0 80 82" fill="none" xmlns="http://www.w3.org/2000/svg">
<path d="M40.9999 80.9997H3.90908C2.30909 80.9997 1 79.6907 1 78.0907V3.90908C1 2.30909 2.30909 1 3.90908 1H57.7271" stroke="#384250" stroke-width="2" stroke-miterlimit="10" stroke-linecap="square" stroke-linejoin="round"/>
<path d="M59.1816 1H64.9998C66.5998 1 67.9089 2.30909 67.9089 3.90908V30.0908" stroke="#384250" stroke-width="2" stroke-miterlimit="10" stroke-linecap="square" stroke-linejoin="round"/>
<path d="M15.5449 25.7275H41.7267" stroke="#384250" stroke-width="2" stroke-miterlimit="10" stroke-linecap="round" stroke-linejoin="round"/>
<path d="M15.5449 37.3638H37.363" stroke="#384250" stroke-width="2" stroke-miterlimit="10" stroke-linecap="round" stroke-linejoin="round"/>
<path d="M15.5449 49H30.0903" stroke="#384250" stroke-width="2" stroke-miterlimit="10" stroke-linecap="round" stroke-linejoin="round"/>
<path d="M15.5449 60.6362H27.1812" stroke="#384250" stroke-width="2" stroke-miterlimit="10" stroke-linecap="round" stroke-linejoin="round"/>
<path d="M60.3447 80.9999C70.6272 80.9999 78.9628 72.6643 78.9628 62.3818C78.9628 52.0993 70.6272 43.7637 60.3447 43.7637C50.0622 43.7637 41.7266 52.0993 41.7266 62.3818C41.7266 72.6643 50.0622 80.9999 60.3447 80.9999Z" stroke="#384250" stroke-width="2" stroke-miterlimit="10" stroke-linecap="round" stroke-linejoin="round"/>
<path d="M60.3447 65C61.7907 65 62.9629 63.8278 62.9629 62.3818C62.9629 60.9359 61.7907 59.7637 60.3447 59.7637C58.8988 59.7637 57.7266 60.9359 57.7266 62.3818C57.7266 63.8278 58.8988 65 60.3447 65Z" stroke="#384250" stroke-width="2"/>
<path d="M60.3443 62.3819L53.7988 55.8364" stroke="#384250" stroke-width="2" stroke-miterlimit="10" stroke-linecap="round" stroke-linejoin="round"/>
<path d="M41.8711 47.836L45.7984 43.9087" stroke="#384250" stroke-width="2" stroke-miterlimit="10" stroke-linecap="round" stroke-linejoin="round"/>
<path d="M78.9624 47.836L75.0352 43.9087" stroke="#384250" stroke-width="2" stroke-miterlimit="10" stroke-linecap="round" stroke-linejoin="round"/>
<path d="M56.416 38.5269V37.2178C56.416 36.4905 56.9978 35.9087 57.7251 35.9087H62.9614C63.6887 35.9087 64.2705 36.4905 64.2705 37.2178V38.5269" stroke="#384250" stroke-width="2" stroke-miterlimit="10" stroke-linecap="square" stroke-linejoin="round"/>
</svg>
