<svg width="61.013px" height="35" viewBox="0 0 120 80" fill="none" xmlns="http://www.w3.org/2000/svg">
<path d="M77.5 22.5H97.25C99 22.5 100.5 23.25 101.5 24.75L110 40H112.5C115.25 40 117.5 41.75 117.5 45.5V62.5C117.5 65.25 115.25 67.5 112.5 67.5H107.5" stroke="#384250" stroke-width="2" stroke-miterlimit="10"/>
<path d="M42.5 2.5H77.5V67.5H37.5" stroke="#384250" stroke-width="2" stroke-miterlimit="10"/>
<path d="M17.5 67.5H5" stroke="#384250" stroke-width="2" stroke-miterlimit="10"/>
<path d="M107.5 67.5C107.5 73 103 77.5 97.5 77.5C92 77.5 87.5 73 87.5 67.5C87.5 62 92 57.5 97.5 57.5C103 57.5 107.5 62 107.5 67.5Z" stroke="#384250" stroke-width="2" stroke-miterlimit="10"/>
<path d="M37.5 67.5C37.5 73 33 77.5 27.5 77.5C22 77.5 17.5 73 17.5 67.5C17.5 62 22 57.5 27.5 57.5C33 57.5 37.5 62 37.5 67.5Z" stroke="#384250" stroke-width="2" stroke-miterlimit="10"/>
<path d="M77.5 67.5H87.5" stroke="#384250" stroke-width="2" stroke-miterlimit="10"/>
<path d="M82.5 42.5H100L105 40H110" stroke="#384250" stroke-width="2" stroke-miterlimit="10"/>
<path d="M0 40H42.5" stroke="#384250" stroke-width="2" stroke-miterlimit="10"/>
<path d="M7.5 15H65" stroke="#384250" stroke-width="2" stroke-miterlimit="10"/>
<path d="M22.5 27.5H60" stroke="#384250" stroke-width="2" stroke-miterlimit="10"/>
<path d="M17.5 27.5H12.5" stroke="#384250" stroke-width="2" stroke-miterlimit="10"/>
<path d="M37.5 2.5H32.5" stroke="#384250" stroke-width="2" stroke-miterlimit="10"/>
</svg>
