<svg width="674" height="380" viewBox="0 0 674 380" fill="none" xmlns="http://www.w3.org/2000/svg">
<path d="M620.966 283.64C613.793 281.847 606.296 281.727 599.069 283.401C590.764 265.469 591.033 246.94 582.189 229.367C571.78 208.805 561.425 188.244 551.016 167.682C542.333 150.527 533.596 133.193 521.299 117.593C500.374 90.9944 469.201 69.8948 433.444 58.0599C421.148 53.9954 408.204 51.0068 394.991 50.7079C382.155 50.4091 369.481 52.7402 357.238 55.9081C297.212 71.6282 247.217 111.138 225.213 159.613C212.269 152.38 197.653 148.256 182.229 148.256C128.351 148.256 84.7195 197.927 84.7195 259.193C84.7195 263.377 86.9308 271.566 85.7982 275.332C83.9106 281.548 84.6117 278.26 79.2185 281.847C72.5309 286.27 64.6568 288.362 57.9692 293.263C45.3491 302.588 34.8324 315.558 28.1988 330.74C25.2325 337.435 23.0213 345.384 25.61 352.258C28.5763 360.029 36.5582 363.615 43.7312 366.424C58.131 372.043 68.7017 372.521 83.587 372.76C156.449 374.015 229.365 375.33 302.227 376.585C353.517 377.482 404.752 378.379 456.042 379.275C495.25 379.753 534.297 377.303 573.506 376.346C586.665 375.988 612.229 375.27 624.903 371.445C638.224 367.44 639.896 366.185 651.923 358.594C655.428 356.383 657.37 347.955 659.204 344.01C660.66 340.842 660.714 337.076 660.444 333.49C659.15 317.65 651.491 302.528 639.95 293.084C634.287 288.601 627.761 285.373 620.966 283.64Z" fill="#EAF8FF"/>
<path d="M541.077 373.964H83.1411V378.739H541.077V373.964Z" fill="#43457B"/>
<path d="M460.38 163.426C462.588 198.406 442.352 236.61 430.473 270.277C429.041 303.944 409.76 343.64 406.357 357.011C403.611 357.011 397.523 357.011 397.523 357.011C397.463 340.297 401.403 263.054 415.252 163.426C424.504 163.426 460.38 163.426 460.38 163.426Z" fill="url(#paint0_linear)"/>
<path d="M406.358 360.175C406.358 358.384 406.358 356.951 406.358 356.951H397.523C397.404 359.996 396.866 361.608 396.508 362.861C398.777 363.756 402.179 361.428 406.358 360.175Z" fill="#F0CCC0"/>
<path d="M406.358 360.175C402.179 361.428 398.777 363.696 396.508 362.801C395.314 363.696 377.347 370.143 375.496 371.397C373.646 372.65 373.884 374.68 375.854 374.68C378.72 374.68 402.597 373.606 402.597 373.606C403.074 374.143 403.492 374.68 403.492 374.68H408.924C410.536 371.874 410.118 363.458 406.358 360.175Z" fill="#20196F"/>
<path d="M482.824 158.411C490.704 192.555 486.048 230.222 484.615 253.263C500.672 286.035 503.12 334.267 507 347.519C504.612 348.952 499.359 351.996 499.359 351.996C490.823 337.61 440.74 266.276 438.293 165.693C447.366 164.201 482.824 158.411 482.824 158.411Z" fill="url(#paint1_linear)"/>
<path d="M508.612 350.325C507.717 348.773 506.941 347.519 506.941 347.519L499.3 351.996C500.732 354.682 501.091 356.354 501.389 357.607C503.896 357.189 505.627 353.488 508.612 350.325Z" fill="#F0CCC0"/>
<path d="M508.612 350.325C505.627 353.548 503.896 357.189 501.449 357.607C501.15 358.324 497.807 362.442 494.524 366.621C489.331 368.591 483.779 370.74 482.824 371.456C480.974 372.71 481.213 374.739 483.182 374.739C483.899 374.739 485.749 374.739 488.316 374.739C490.346 374.739 492.733 374.739 495.36 374.739C502.105 370.441 512.253 363.815 512.253 363.815C512.91 363.994 513.566 364.293 513.566 364.293L518.282 361.547C518.163 358.264 513.507 351.22 508.612 350.325Z" fill="#20196F"/>
<path d="M411.372 167.603C425.459 169.633 472.319 167.663 488.078 158.232C486.406 148.502 476.676 100.628 476.676 80.8691C476.676 61.1106 465.633 53.3505 459.246 49.0526C452.859 48.3959 432.802 57.6484 426.295 72.512C420.803 85.2864 410.954 117.879 411.372 167.603Z" fill="#6B67E9"/>
<path d="M379.436 164.917C379.138 160.977 378.839 158.171 382.302 157.575C386.062 156.918 389.524 155.366 392.032 154.471C394.539 153.575 401.463 158.052 396.807 161.753C391.912 165.633 386.958 165.275 384.809 164.917C385.465 166.17 386.838 169.513 383.316 169.752C379.735 170.05 379.675 167.961 379.436 164.917Z" fill="#F7D3C9"/>
<path d="M392.032 154.471C401.583 149.994 440.742 127.37 445.04 124.325C445.338 120.147 444.144 58.0659 465.157 57.8271C476.976 57.7078 478.349 72.3326 478.11 84.7488C477.991 91.8523 473.454 129.34 462.649 138.174C451.845 146.949 404.747 161.694 396.808 161.753C394.539 159.485 392.032 154.471 392.032 154.471Z" fill="#807DFB"/>
<path d="M459.068 33.1744C458.65 36.2187 458.709 44.9936 459.247 49.1125C457.635 53.4701 451.307 56.3951 440.98 56.216C443.488 53.7089 445.875 48.6349 443.905 44.7549C441.876 40.8748 437.936 45.9487 435.071 39.7406C431.728 32.4581 430.892 18.1913 434.355 14.2516C438.235 9.83429 445.935 4.52159 456.202 10.7297C464.559 15.7439 459.903 26.9663 459.068 33.1744Z" fill="#F7D3C9"/>
<path d="M451.366 26.0708C449.038 26.0708 450.291 19.9224 448.62 18.4301C446.59 16.699 439.845 15.5648 433.219 16.2214C426.593 16.8781 422.594 8.16282 426.892 4.70061C431.19 1.17871 434.95 6.19295 438.114 5.17817C441.815 3.9843 441.218 -0.4927 446.65 0.0445399C451.664 0.522086 449.336 5.17817 452.5 6.07357C455.783 6.96897 460.678 2.67103 464.618 7.92404C467.543 11.8041 463.006 13.9531 463.424 18.251C463.663 20.9372 470.229 28.8764 463.006 32.0998C455.783 35.3233 457.574 28.0407 457.992 25.056C458.41 22.0714 457.096 20.0418 455.544 19.9224C454.052 19.7433 454.768 26.0708 451.366 26.0708Z" fill="#131147"/>
<path d="M185.432 374.798C192.751 374.798 198.684 368.865 198.684 361.546C198.684 354.228 192.751 348.294 185.432 348.294C178.113 348.294 172.18 354.228 172.18 361.546C172.18 368.865 178.113 374.798 185.432 374.798Z" fill="#131147"/>
<path d="M176.538 361.546C176.538 356.652 180.538 352.652 185.432 352.652C190.327 352.652 194.327 356.652 194.327 361.546C194.327 366.441 190.327 370.441 185.432 370.441C180.538 370.441 176.538 366.441 176.538 361.546Z" fill="#807DFB"/>
<path d="M334.905 344.236H165.615V346.564H334.905V344.236Z" fill="#DDE2F8"/>
<path d="M168.3 346.623C169.554 348.593 181.97 368.53 187.581 364.889C192.894 361.487 185.014 346.623 185.014 346.623C184 346.623 168.3 346.623 168.3 346.623Z" fill="#DDE2F8"/>
<path d="M165.614 344.235C164.182 344.235 163.047 343.101 163.047 341.668C163.047 340.236 164.182 339.101 165.614 339.101H329.592V328.655C329.293 326.029 316.996 309.911 314.37 308.777C310.729 308.479 260.228 304.479 238.44 302.808L237.127 302.689C235.694 302.569 234.679 301.375 234.799 299.943C234.918 298.57 235.993 297.555 237.366 297.555H237.604C238.321 297.615 311.922 303.345 315.146 303.644C318.847 304.002 334.725 323.104 334.725 328.595V341.609C334.725 343.041 333.591 344.175 332.158 344.175H165.614V344.235Z" fill="#BBC0E6"/>
<path d="M185.433 363.098C186.29 363.098 186.985 362.404 186.985 361.546C186.985 360.689 186.29 359.994 185.433 359.994C184.576 359.994 183.881 360.689 183.881 361.546C183.881 362.404 184.576 363.098 185.433 363.098Z" fill="#423EAF"/>
<path d="M319.265 361.546C319.265 354.204 325.234 348.294 332.517 348.294C339.859 348.294 345.769 354.264 345.769 361.546C345.769 368.889 339.8 374.798 332.517 374.798C325.234 374.798 319.265 368.889 319.265 361.546Z" fill="#131147"/>
<path d="M323.682 361.546C323.682 356.652 327.682 352.652 332.576 352.652C337.471 352.652 341.471 356.652 341.471 361.546C341.471 366.441 337.471 370.441 332.576 370.441C327.622 370.441 323.682 366.441 323.682 361.546Z" fill="#807DFB"/>
<path d="M315.385 346.623C316.638 348.593 329.055 368.53 334.666 364.889C339.978 361.487 332.099 346.623 332.099 346.623C331.144 346.623 315.385 346.623 315.385 346.623Z" fill="#DDE2F8"/>
<path d="M331.025 361.546C331.025 360.711 331.682 359.994 332.577 359.994C333.413 359.994 334.129 360.651 334.129 361.546C334.129 362.382 333.472 363.098 332.577 363.098C331.682 363.039 331.025 362.382 331.025 361.546Z" fill="#423EAF"/>
<path d="M316.758 304.122C316.698 304.122 316.638 304.122 316.579 304.122L165.435 292.481C164.241 292.362 163.286 291.526 163.107 290.332L152.422 223.297C152.303 222.64 152.482 221.924 152.9 221.387C153.317 220.849 153.914 220.491 154.571 220.372L355.976 190.107C358.662 182.586 361.886 178.646 368.631 174.527C369.825 173.811 371.437 174.169 372.153 175.363C372.869 176.557 372.511 178.169 371.317 178.885C365.467 182.467 363.08 185.451 360.752 192.077C360.632 192.316 360.513 192.734 360.334 193.211C360.334 193.271 360.274 193.331 360.274 193.391C355.2 207.18 320.757 298.451 319.205 302.45C318.787 303.465 317.832 304.122 316.758 304.122ZM167.883 287.527L315.086 298.869C319.683 286.691 346.306 216.193 354.006 195.599L157.974 225.088L167.883 287.527Z" fill="#9EA9B9"/>
<path d="M183.045 292.959C182.149 292.959 181.433 292.302 181.373 291.407L174.329 219.894C174.21 218.939 174.926 218.103 175.881 218.044C176.837 217.984 177.672 218.641 177.732 219.596L184.776 291.108C184.895 292.063 184.179 292.899 183.224 292.959C183.164 292.959 183.104 292.959 183.045 292.959Z" fill="#9EA9B9"/>
<path d="M198.983 294.212C198.028 294.212 197.252 293.436 197.252 292.481V216.313C197.252 215.358 198.028 214.582 198.983 214.582C199.938 214.582 200.714 215.358 200.714 216.313V292.481C200.714 293.436 199.938 294.212 198.983 294.212Z" fill="#9EA9B9"/>
<path d="M215.936 295.466C215.876 295.466 215.876 295.466 215.816 295.466C214.861 295.406 214.145 294.571 214.205 293.675L219.696 212.791C219.756 211.836 220.592 211.179 221.487 211.179C222.442 211.239 223.159 212.074 223.099 212.97L217.607 293.854C217.547 294.809 216.831 295.466 215.936 295.466Z" fill="#9EA9B9"/>
<path d="M232.351 296.779C232.292 296.779 232.172 296.779 232.113 296.779C231.157 296.66 230.501 295.764 230.68 294.869L242.38 209.329C242.499 208.373 243.395 207.717 244.29 207.896C245.245 208.015 245.902 208.911 245.723 209.806L234.023 295.347C233.903 296.123 233.187 296.779 232.351 296.779Z" fill="#9EA9B9"/>
<path d="M248.946 298.033C248.827 298.033 248.708 298.033 248.588 297.973C247.693 297.794 247.036 296.898 247.275 295.943L265.302 205.687C265.481 204.792 266.377 204.135 267.332 204.374C268.227 204.553 268.884 205.448 268.645 206.403L250.618 296.66C250.439 297.495 249.722 298.033 248.946 298.033Z" fill="#9EA9B9"/>
<path d="M265.96 299.346C265.84 299.346 265.721 299.346 265.542 299.286C264.646 299.047 264.049 298.152 264.288 297.257L286.912 202.464C287.151 201.568 288.046 200.971 288.942 201.21C289.837 201.449 290.434 202.344 290.195 203.24L267.571 298.033C267.452 298.809 266.736 299.346 265.96 299.346Z" fill="#9EA9B9"/>
<path d="M281.778 300.54C281.599 300.54 281.48 300.54 281.301 300.48C280.405 300.241 279.868 299.286 280.166 298.331L309.595 198.882C309.834 197.987 310.789 197.449 311.744 197.748C312.64 197.987 313.177 198.942 312.878 199.897L283.39 299.346C283.211 300.062 282.494 300.54 281.778 300.54Z" fill="#9EA9B9"/>
<path d="M298.671 301.853C298.492 301.853 298.313 301.853 298.134 301.793C297.238 301.495 296.761 300.54 297.059 299.644L331.681 195.599C331.98 194.703 332.935 194.226 333.83 194.524C334.726 194.823 335.203 195.778 334.905 196.673L300.282 300.719C300.044 301.375 299.387 301.853 298.671 301.853Z" fill="#9EA9B9"/>
<path d="M158.929 249.562C158.093 249.562 157.377 248.965 157.258 248.07C157.138 247.115 157.795 246.279 158.75 246.16L346.247 221.268C347.202 221.148 348.037 221.805 348.157 222.76C348.276 223.715 347.62 224.551 346.665 224.67L159.168 249.562C159.108 249.562 158.989 249.562 158.929 249.562Z" fill="#9EA9B9"/>
<path d="M161.973 268.664C161.018 268.664 160.302 267.888 160.242 266.993C160.242 266.038 161.018 265.262 161.914 265.262L330.129 264.187C331.084 264.187 331.801 264.963 331.86 265.858C331.86 266.814 331.084 267.59 330.189 267.59L161.973 268.664Z" fill="#9EA9B9"/>
<path d="M383.613 163.424L370.481 169.991C367.615 171.423 366.421 174.945 367.854 177.81C369.287 180.676 372.809 181.87 375.674 180.437L388.806 173.871C391.672 172.438 392.866 168.916 391.433 166.051C389.941 163.126 386.478 161.992 383.613 163.424Z" fill="#423EAF"/>
<path d="M507.397 304.032C504.77 308.867 499.099 305.464 499.099 305.464C499.099 305.464 499.398 303.853 501.964 302.539C503.875 301.525 506.62 302.36 507.576 302.719L510.68 302.659H510.739C511.456 302.719 512.112 302.778 512.829 302.838C503.875 299.674 508.113 289.168 508.113 289.168C508.113 289.168 510.918 289.288 513.903 293.227C516.291 296.391 515.336 301.763 515.097 303.136C518.679 303.674 522.081 304.569 525.364 305.763C524.946 305.345 524.529 304.868 524.051 304.39C520.648 300.331 522.141 292.571 522.141 292.571C534.318 294.123 531.93 305.584 531.154 308.21C535.154 310.121 538.855 312.389 542.198 314.777C541.362 313.583 540.467 311.911 539.81 309.464C538.258 303.733 543.451 296.57 543.451 296.57C555.39 304.092 546.794 314.956 545.123 316.866C547.272 318.537 549.242 320.209 551.032 321.82C553.002 323.552 554.793 325.342 556.405 327.014C555.808 325.402 555.33 322.895 555.808 319.254C556.643 312.807 564.881 307.793 564.881 307.793C573.596 320.089 561.12 327.432 558.196 328.924C563.747 334.953 566.911 339.609 566.97 339.728L565.896 340.445C565.836 340.385 563.747 337.281 560.046 332.983C555.45 347.608 539.571 340.146 539.571 340.146C539.571 340.146 539.989 336.147 545.839 332.267C549.659 329.76 555.271 330.416 558.315 331.013C556.047 328.446 553.301 325.641 550.137 322.776C549.122 321.82 547.988 320.865 546.854 319.91C542.795 333.699 527.991 326.775 527.991 326.775C527.991 326.775 528.289 323.074 533.662 319.492C537.064 317.224 542.078 317.761 544.884 318.299C541.481 315.612 537.601 312.986 533.363 310.658C530.856 323.671 516.947 318.418 516.947 318.418C516.947 318.418 517.007 315.135 521.604 311.613C524.588 309.285 529.304 309.524 531.811 309.822C527.215 307.494 522.2 305.644 516.888 304.629C517.127 316.448 504.292 314.18 504.292 314.18C504.292 314.18 503.815 311.434 507.098 307.733C509.665 304.868 514.858 304.629 516.41 304.569C514.56 304.211 512.65 304.032 510.739 303.912L507.397 304.032Z" fill="url(#paint2_linear)"/>
<path d="M610.846 374.351C610.846 374.351 637.409 314.359 618.188 258.605C598.967 202.852 552.525 186.555 552.525 186.555C552.525 186.555 580.104 218.491 564.106 268.216C549.004 315.314 577.835 374.291 577.835 374.291H610.846V374.351Z" fill="url(#paint3_linear)"/>
<path opacity="0.3" d="M601.414 374.351C601.414 374.351 608.219 252.337 579.447 220.222C605.652 260.694 594.728 374.351 594.728 374.351H601.414V374.351Z" fill="white"/>
<path d="M555.808 374.35H584.222C583.088 369.336 579.029 354.234 568.821 342.832C556.405 328.983 540.766 330.297 540.766 330.297C540.766 330.297 549.242 339.609 550.555 356.383C551.093 363.008 553.361 369.276 555.808 374.35Z" fill="url(#paint4_linear)"/>
<path d="M621.53 307.971C600.817 334.953 596.22 370.112 595.683 374.291H635.916C646.064 364.919 658.6 349.697 658.66 331.431C658.839 298.779 674.001 279.438 674.001 279.438C674.001 279.438 643.557 279.259 621.53 307.971Z" fill="url(#paint5_linear)"/>
<path opacity="0.3" d="M574.97 374.35H577.119C573.06 365.098 562.733 343.369 553.062 338.952C562.554 345.279 571.269 364.919 574.97 374.35Z" fill="white"/>
<path opacity="0.3" d="M608.398 374.351H612.576C617.471 358.174 632.454 313.046 651.317 298.182C631.798 308.927 613.591 359.01 608.398 374.351Z" fill="white"/>
<path d="M659.137 374.351H539.213V379.126H659.137V374.351Z" fill="#43457B"/>
<path opacity="0.3" d="M21.3994 261.798C20.9819 261.756 20.5643 261.84 20.2303 262.01C19.7293 262.306 19.3535 262.815 19.103 263.365C17.7252 266.288 18.268 269.804 17.5582 272.981C15.5123 269.931 13.2577 267.008 10.7526 264.34C10.9613 263.238 10.7943 262.052 10.502 260.951C10.0845 259.341 9.37473 257.774 8.41442 256.418C7.37062 254.893 5.70053 253.495 3.90518 253.834C2.4021 254.088 1.27478 255.529 0.606743 256.969C0.18922 257.858 -0.144793 258.833 0.0639685 259.807C0.27273 260.739 0.899024 261.501 1.69232 261.967C2.44386 262.476 3.36241 262.73 4.19745 263.026C6.20156 263.662 8.20567 264.424 10.168 265.229C10.2098 265.271 10.2098 265.271 10.2515 265.314L10.168 265.314C10.1263 265.399 10.2098 265.441 10.335 265.399C12.8819 268.152 15.1365 271.16 17.1824 274.294C16.3056 273.828 15.053 273.405 14.5938 273.108C13.2159 272.261 11.9216 271.329 10.3768 270.863C8.8737 270.439 7.0366 270.609 5.9928 271.837C5.49177 272.43 5.19951 273.235 5.24126 273.998C5.28301 275.311 6.11806 276.539 7.20362 277.217C8.28918 277.895 9.5835 278.107 10.8778 278.107C12.7567 278.107 14.886 277.725 16.5979 276.878C17.0572 276.624 17.8922 276.2 18.101 275.607C20.9819 280.182 23.5287 285.011 25.9504 289.84C23.0695 287.977 20.6896 285.054 17.3494 284.588C15.9298 284.376 14.2597 284.842 13.6335 286.197C13.3412 286.833 13.3412 287.553 13.3412 288.231C13.3412 289.756 13.5082 291.365 14.4685 292.509C15.7628 294.034 18.0175 294.119 19.9381 293.738C22.2344 293.229 24.4056 292.213 26.2427 290.73C26.2844 290.688 26.3262 290.645 26.3679 290.603C26.8272 291.493 27.2447 292.382 27.704 293.272C32.923 303.692 38.3091 314.452 46.4508 322.67L46.242 323.009L48.1209 324.322L48.7054 323.517C41.19 316.527 35.9292 307.293 31.1694 297.974C32.6307 297.635 34.1338 297.254 35.4699 296.533C36.973 295.771 38.3091 294.5 38.8518 292.848C39.2694 291.662 39.2276 290.306 38.9354 289.078C38.5178 287.299 37.2653 285.393 35.5117 285.52C34.0503 285.604 32.9648 287.045 32.3802 288.443C31.587 290.349 31.2529 292.467 31.3782 294.542C31.4617 295.601 31.5452 296.872 31.0442 297.719C30.2091 296.067 29.3741 294.415 28.539 292.763C27.3282 290.391 26.1591 287.977 24.9066 285.604C25.4076 285.435 26.0339 285.011 26.2844 284.884C27.4117 284.376 28.4555 283.825 29.3741 282.936C31.4199 281.03 32.7978 278.064 32.1297 275.311C31.7957 273.871 30.7519 272.515 29.3323 272.346C27.9545 272.176 26.6602 273.193 26.0339 274.464C25.4076 275.734 25.2824 277.175 25.1571 278.615C25.0318 280.098 25.3659 283.02 24.5308 284.164C24.4473 284.291 24.3638 284.376 24.2803 284.503C22.5684 281.241 20.7313 278.022 18.769 274.887C18.8107 274.845 18.8525 274.845 18.8943 274.803C18.936 274.803 18.9778 274.76 19.0195 274.76C19.0613 274.76 19.0613 274.718 19.103 274.675C20.6061 273.616 21.9422 272.261 22.986 270.694C23.988 269.169 24.7813 267.389 24.6561 265.568C24.4891 263.746 23.153 261.925 21.3994 261.798Z" fill="#F8C208"/>
<path d="M50.217 375.534C53.3884 360.748 46.1553 345.944 39.1447 332.579C31.2438 317.494 22.564 301.624 7.83803 293.25C13.3464 302.446 14.7188 313.512 15.405 324.223C16.0913 334.934 16.2397 345.888 19.745 356.038C23.2317 366.188 27.8498 373.198 38.2544 375.534H50.217Z" fill="#B0E6FF"/>
<path d="M40.7987 375.59L41.4663 375.478C41.4478 375.366 39.5931 364.898 36.6813 353.346C32.768 337.794 28.8732 327.793 25.1453 323.625L24.6446 324.073C33.3986 333.868 40.7245 375.179 40.7987 375.59Z" fill="white"/>
<path d="M60.3984 375.684C60.3984 375.684 72.3424 348.654 67.0937 336.635C61.845 324.615 52.5532 317.269 56.1697 304.633C59.7863 291.997 42.4638 283.268 42.4638 283.268C42.4638 283.268 45.6909 294.782 42.2784 300.296C38.8658 305.811 33.8211 315.4 39.5149 326.896C45.2087 338.392 31.5399 362.842 41.1099 375.534L60.3984 375.684Z" fill="#7ADCFB"/>
<path d="M53.5035 375.626L54.1526 375.439C54.1155 375.309 50.4618 362.897 51.3335 354.504C51.6488 351.476 52.3907 348.84 53.1325 346.279C54.4679 341.587 55.729 337.157 54.1711 331.045C53.3551 327.886 52.0383 324.839 50.7586 321.904C48.329 316.296 46.0292 310.988 48.2733 306.52L47.6798 306.221C45.2873 310.969 47.6613 316.427 50.1651 322.184C51.4262 325.1 52.743 328.11 53.5406 331.232C55.0614 337.157 53.8187 341.494 52.5019 346.111C51.7601 348.69 50.9996 351.382 50.6844 354.448C50.2207 358.915 51.0182 364.43 51.7786 368.299C52.5576 372.43 53.5035 375.608 53.5035 375.626Z" fill="white"/>
<path d="M57.3028 375.608C56.7279 371.029 55.9489 365.57 56.2642 360.953C56.5795 356.336 57.8221 351.682 60.5855 348C63.349 344.317 67.3736 341.868 70.9716 339.008C74.5697 336.148 77.9822 332.485 78.5942 327.905C82.1181 335.662 82.9898 344.597 81.0239 352.897C79.0579 361.196 73.698 370.356 67.0768 375.664L57.3028 375.608Z" fill="#D1F0FE"/>
<path d="M63.6275 375.685C63.6275 375.591 63.7203 366.32 64.8701 360.824C67.5779 347.833 73.8838 344.936 73.9395 344.917L73.6798 344.3C73.4016 344.412 67.003 347.366 64.221 360.693C63.0526 366.264 62.9599 375.591 62.9599 375.685H63.6275Z" fill="white"/>
<path d="M130.753 300.979C129.26 299.129 127.589 297.338 126.634 295.189C125.321 292.145 125.798 288.563 126.753 285.399C127.708 282.236 129.26 279.191 130.096 275.968C132.185 268.029 130.036 259.134 124.485 253.105C123.291 251.792 121.858 250.538 120.903 249.046C118.575 245.524 118.575 240.988 119.172 236.809C119.769 232.631 120.963 228.512 120.724 224.273C120.426 219.2 117.919 214.305 113.979 211.081C110.158 207.917 104.965 206.783 100.011 206.724C99.9509 206.724 99.8912 206.724 99.8315 206.724C99.7718 206.724 99.7121 206.724 99.6524 206.724C94.6382 206.724 89.5046 207.798 85.6245 210.902C81.6847 214.066 79.1179 218.961 78.7598 224.035C78.4613 228.213 79.5955 232.392 80.1924 236.57C80.7893 240.749 80.7296 245.285 78.3419 248.748C77.3271 250.24 75.8945 251.434 74.7006 252.747C69.0894 258.716 66.8211 267.611 68.8507 275.55C69.6864 278.773 71.119 281.818 72.0741 284.982C73.0292 288.145 73.3874 291.727 72.0741 294.771C71.119 296.98 69.3879 298.711 67.8956 300.561C62.3441 307.426 59.9564 317.693 64.7915 325.095C66.7017 328.08 69.567 330.289 72.5517 332.199C77.148 335.184 82.222 337.512 87.5944 338.706C89.9224 339.243 92.3698 339.661 94.7576 339.064C96.3096 338.646 97.5035 338.885 99.2346 338.885C100.906 338.885 102.1 338.706 103.712 339.123C106.04 339.72 108.487 339.302 110.875 338.825C116.247 337.691 121.321 335.422 125.977 332.497C128.962 330.647 131.827 328.438 133.797 325.513C138.513 318.171 136.244 307.904 130.753 300.979Z" fill="url(#paint6_linear)"/>
<path opacity="0.3" d="M101.742 324.379C106.219 318.409 124.724 293.816 124.724 293.816L101.682 318.529L100.847 269.939C104.309 265.342 118.158 246.897 118.158 246.897L100.787 265.521L100.309 235.973C101.802 233.943 112.785 219.319 112.785 219.319L100.25 232.75L99.8915 211.976L99.4737 238.6L87.4753 225.467C87.4753 225.467 97.0859 238.54 99.414 241.763L98.9364 271.789L81.7447 252.986C81.7447 252.986 95.5339 271.789 98.817 276.266L98.041 325.453L74.5815 299.785C74.5815 299.785 95.5339 328.319 97.9216 331.602L97.8022 338.884H97.8619V346.823H101.981V338.884H101.921L101.742 324.379Z" fill="white"/>
<path d="M81.626 346.943H118.278L111.413 375.894H88.6101L81.626 346.943Z" fill="#43457B"/>
<path d="M118.278 344.735H81.626V346.944H118.278V344.735Z" fill="url(#paint7_linear)"/>
<defs>
<linearGradient id="paint0_linear" x1="397.503" y1="260.175" x2="460.551" y2="260.175" gradientUnits="userSpaceOnUse">
<stop stop-color="#423EAF"/>
<stop offset="1" stop-color="#20196F"/>
</linearGradient>
<linearGradient id="paint1_linear" x1="438.274" y1="255.204" x2="506.982" y2="255.204" gradientUnits="userSpaceOnUse">
<stop stop-color="#423EAF"/>
<stop offset="1" stop-color="#20196F"/>
</linearGradient>
<linearGradient id="paint2_linear" x1="499.113" y1="315.535" x2="567.816" y2="315.535" gradientUnits="userSpaceOnUse">
<stop stop-color="#5E6398"/>
<stop offset="0.9995" stop-color="#292E6F"/>
</linearGradient>
<linearGradient id="paint3_linear" x1="552.528" y1="280.46" x2="625.162" y2="280.46" gradientUnits="userSpaceOnUse">
<stop stop-color="#6443D7"/>
<stop offset="1" stop-color="#AC5DF9"/>
</linearGradient>
<linearGradient id="paint4_linear" x1="582.042" y1="333.618" x2="554.281" y2="360.133" gradientUnits="userSpaceOnUse">
<stop offset="0.00050512" stop-color="#FEBF00"/>
<stop offset="0.9841" stop-color="#FFDF00"/>
</linearGradient>
<linearGradient id="paint5_linear" x1="595.687" y1="326.893" x2="673.984" y2="326.893" gradientUnits="userSpaceOnUse">
<stop stop-color="#FB40B7"/>
<stop offset="1" stop-color="#C639AF"/>
</linearGradient>
<linearGradient id="paint6_linear" x1="62.165" y1="273.093" x2="136.317" y2="273.093" gradientUnits="userSpaceOnUse">
<stop stop-color="#A2ED94"/>
<stop offset="1" stop-color="#69C7B3"/>
</linearGradient>
<linearGradient id="paint7_linear" x1="109.667" y1="355.552" x2="90.2444" y2="336.13" gradientUnits="userSpaceOnUse">
<stop stop-color="#A2ED94"/>
<stop offset="1" stop-color="#69C7B3"/>
</linearGradient>
</defs>
</svg>
