<svg width="68" height="68" viewBox="0 0 68 68" fill="none" xmlns="http://www.w3.org/2000/svg">
<rect width="68" height="68" rx="18" fill="#9EA9B9"/>
<path d="M34 14C22.9721 14 14 22.9722 14 34C14 45.0278 22.9721 54 34 54C45.0279 54 54 45.0278 54 34C54 22.9722 45.0279 14 34 14ZM34 52.8328C23.6157 52.8328 15.1673 44.3842 15.1673 34C15.1673 23.6158 23.6157 15.1672 34 15.1672C44.3843 15.1672 52.8327 23.6158 52.8327 34C52.8327 44.3842 44.3842 52.8328 34 52.8328Z" fill="white"/>
<path d="M38.6567 26.7404C38.6567 29.3351 36.5489 33.7262 33.9999 33.7262C31.4509 33.7262 29.343 29.3351 29.343 26.7404C29.343 24.1456 31.4509 22 33.9999 22C36.5979 22 38.6567 24.1456 38.6567 26.7404Z" stroke="white" stroke-width="1.3" stroke-miterlimit="10" stroke-linecap="round" stroke-linejoin="round"/>
<path d="M34 37.3175L30.5196 34.8225C30.5196 34.8225 24 34.3235 24 43.6546C24 43.6546 25.1275 45.9998 34 45.9998C42.8725 45.9998 44 43.6546 44 43.6546C44 34.3235 37.4804 34.8225 37.4804 34.8225L34 37.3175Z" stroke="white" stroke-width="1.3" stroke-miterlimit="10" stroke-linecap="round" stroke-linejoin="round"/>
</svg>
