<svg width="20" height="21" viewBox="0 0 20 21" fill="none" xmlns="http://www.w3.org/2000/svg">
<path d="M20 19.7094C20 20.2617 19.5523 20.7094 19 20.7094H1C0.447716 20.7094 0 20.2617 0 19.7094V7.67798C0 7.35442 0.156556 7.05085 0.420179 6.86324L9.48059 0.415295C9.8295 0.166992 10.2978 0.168414 10.6452 0.418831L19.5848 6.86294C19.8455 7.05089 20 7.35272 20 7.67414V19.7094ZM1.13208 18.5774C1.13208 19.1296 1.57979 19.5774 2.13208 19.5774H17.8679C18.4202 19.5774 18.8679 19.1296 18.8679 18.5774V8.25518C18.8679 7.93381 18.7135 7.63202 18.4528 7.44406L10.6415 1.81146C10.2941 1.56095 9.82567 1.55951 9.47672 1.80787L1.55221 7.44814C1.28861 7.63576 1.13208 7.93931 1.13208 8.26285V18.5774Z" fill="#9EA9B9"/>
<path d="M13.2077 14.2566H6.7926C6.47999 14.2566 6.22656 14.51 6.22656 14.8226C6.22656 15.1352 6.47999 15.3887 6.7926 15.3887H13.2077C13.5203 15.3887 13.7737 15.1352 13.7737 14.8226C13.7737 14.51 13.5203 14.2566 13.2077 14.2566Z" fill="#9EA9B9"/>
</svg>
