<svg width="15" height="16" viewBox="0 0 15 16" fill="none" xmlns="http://www.w3.org/2000/svg">
<path d="M6.56862 8.52547C6.2241 8.67949 6.00088 9.02641 6 9.41016L6 10.5323L6 10.5346C6 10.9394 6.23855 11.2926 6.6082 11.4347C6.65738 11.4536 6.71934 11.4767 6.79157 11.5008L6.79157 13.1066C6.79157 13.2039 6.83095 13.297 6.90074 13.3647L7.53738 13.9828C7.67759 14.119 7.90084 14.1183 8.04021 13.9813L8.68088 13.3516C8.74971 13.284 8.78848 13.1915 8.78848 13.095L8.78848 12.6756C8.78848 12.4769 8.62739 12.3158 8.42867 12.3158C8.22995 12.3158 8.06886 12.4769 8.06886 12.6756L8.06886 12.9442L7.78645 13.2217L7.51118 12.9544L7.51118 11.2309C7.51118 11.0652 7.39794 10.9209 7.23694 10.8814C7.11808 10.8523 7.0038 10.8158 6.86641 10.763C6.77581 10.7282 6.71961 10.6407 6.71961 10.5338L6.71961 9.41101C6.71984 9.30925 6.77454 9.22168 6.86231 9.18244C7.07841 9.08585 7.41296 8.97051 7.77956 8.96965C8.14889 8.96879 8.4911 9.084 8.71315 9.18084C8.80271 9.21988 8.86045 9.30819 8.86045 9.4068L8.86045 10.543C8.86022 10.6426 8.79618 10.7358 8.7011 10.775C8.59907 10.8171 8.48259 10.8536 8.34494 10.8865C8.15169 10.9328 8.03252 11.127 8.07876 11.3202C8.12501 11.5134 8.31918 11.6326 8.51243 11.5864C8.68692 11.5446 8.83838 11.4968 8.97547 11.4403C9.34182 11.2892 9.57913 10.9376 9.58005 10.5439L9.58005 9.40822L9.58005 9.40595C9.58003 9.02184 9.35283 8.6747 9.00074 8.52119C8.71558 8.39684 8.27194 8.24887 7.77785 8.25004C7.28512 8.25119 6.8483 8.40046 6.56862 8.52547Z" fill="#9EA9B9"/>
<path d="M8.14081 9.70724C8.14081 9.50853 7.97972 9.34744 7.78101 9.34744C7.58229 9.34744 7.4212 9.50853 7.4212 9.70724C7.4212 9.90596 7.58229 10.067 7.78101 10.067C7.97972 10.067 8.14081 9.90596 8.14081 9.70724Z" fill="#9EA9B9"/>
<path d="M13.011 6.92294C13.5633 6.92294 14.011 7.37066 14.011 7.92294V13.8271C14.011 14.3793 13.5633 14.8271 13.011 14.8271H1.98901C1.43673 14.8271 0.989011 14.3793 0.989011 13.8271V7.92294C0.989011 7.37066 1.43673 6.92294 1.98901 6.92294H13.011ZM15 7C15 6.44772 14.5523 6 14 6H1C0.447715 6 0 6.44772 0 7V14.75C0 15.3023 0.447715 15.75 1 15.75H14C14.5523 15.75 15 15.3023 15 14.75V7Z" fill="#9EA9B9"/>
<path d="M12.75 6.24194C12.75 6.52253 12.5225 6.75 12.2419 6.75C11.9613 6.75 11.7339 6.52253 11.7339 6.24194V4.40675C11.7339 2.44788 9.83371 0.852919 7.5 0.852919C5.16629 0.852919 3.26613 2.44788 3.26613 4.40675V6.24194C3.26613 6.52253 3.03866 6.75 2.75806 6.75C2.47747 6.75 2.25 6.52253 2.25 6.24194V4.40675C2.25 1.97593 4.60403 0 7.5 0C10.396 0 12.75 1.97593 12.75 4.40675V6.24194Z" fill="#9EA9B9"/>
</svg>
