<svg width="41" height="40" viewBox="0 0 41 40" fill="none" xmlns="http://www.w3.org/2000/svg">
<path fill-rule="evenodd" clip-rule="evenodd" d="M20.6205 39.7468C31.5963 39.7468 40.4939 30.8492 40.4939 19.8734C40.4939 8.89763 31.5963 0 20.6205 0C9.6447 0 0.74707 8.89763 0.74707 19.8734C0.74707 30.8492 9.6447 39.7468 20.6205 39.7468ZM12.7711 25.4357C14.1214 28.1321 17.0259 29.8786 20.2919 29.8786C23.5372 29.8786 26.427 28.1456 27.791 25.4746C28.0427 24.9818 27.7624 24.4056 27.2401 24.2229L27.1902 24.2054C26.6692 24.0232 26.1063 24.304 25.8319 24.783C24.77 26.636 22.6594 27.8228 20.2919 27.8228C17.9112 27.8228 15.7928 26.6244 14.7388 24.7579C14.4675 24.2774 13.9069 23.9926 13.3847 24.1709L13.3315 24.1891C12.8082 24.3678 12.5236 24.9414 12.7711 25.4357ZM13.0559 11.9238H13C12.4477 11.9238 12 12.3715 12 12.9238V15.6523C12 16.2046 12.4477 16.6523 13 16.6523H13.0559C13.6082 16.6523 14.0559 16.2046 14.0559 15.6523V12.9238C14.0559 12.3715 13.6082 11.9238 13.0559 11.9238ZM28.0762 11.9238H28.1321C28.6843 11.9238 29.1321 12.3715 29.1321 12.9238V15.6523C29.1321 16.2046 28.6843 16.6523 28.1321 16.6523H28.0762C27.5239 16.6523 27.0762 16.2046 27.0762 15.6523V12.9238C27.0762 12.3715 27.5239 11.9238 28.0762 11.9238Z" fill="#E3E8ED"/>
</svg>
