<svg width="41" height="40" viewBox="0 0 41 40" fill="none" xmlns="http://www.w3.org/2000/svg">
<path fill-rule="evenodd" clip-rule="evenodd" d="M20.3676 39.7468C31.3433 39.7468 40.241 30.8492 40.241 19.8734C40.241 8.89763 31.3433 0 20.3676 0C9.39177 0 0.494141 8.89763 0.494141 19.8734C0.494141 30.8492 9.39177 39.7468 20.3676 39.7468ZM12.2529 11.9238H12.3088C12.8611 11.9238 13.3088 12.3715 13.3088 12.9238V15.6523C13.3088 16.2046 12.8611 16.6523 12.3088 16.6523H12.2529C11.7006 16.6523 11.2529 16.2046 11.2529 15.6523V12.9238C11.2529 12.3715 11.7006 11.9238 12.2529 11.9238ZM27.385 11.9238H27.3291C26.7768 11.9238 26.3291 12.3715 26.3291 12.9238V15.6523C26.3291 16.2046 26.7768 16.6523 27.3291 16.6523H27.385C27.9373 16.6523 28.385 16.2046 28.385 15.6523V12.9238C28.385 12.3715 27.9373 11.9238 27.385 11.9238ZM13.4204 29.5562C13.9422 29.7344 14.5025 29.45 14.7741 28.9701C15.8283 27.107 17.9464 25.9031 20.3267 25.8972C22.6938 25.8972 24.8041 27.0887 25.8662 28.9382C26.1409 29.4166 26.7035 29.6969 27.2242 29.5148L27.2761 29.4966C27.7979 29.3141 28.0783 28.7386 27.827 28.2462C26.4666 25.5808 23.5716 23.8481 20.3267 23.8481C17.0615 23.8481 14.1576 25.5994 12.8069 28.2908C12.5588 28.7851 12.8434 29.3591 13.3669 29.5379L13.4204 29.5562Z" fill="#E3E8ED"/>
</svg>
