<svg width="41" height="40" viewBox="0 0 41 40" fill="none" xmlns="http://www.w3.org/2000/svg">
<path fill-rule="evenodd" clip-rule="evenodd" d="M20.3676 39.7468C31.3433 39.7468 40.241 30.8492 40.241 19.8734C40.241 8.89763 31.3433 0 20.3676 0C9.39177 0 0.494141 8.89763 0.494141 19.8734C0.494141 30.8492 9.39177 39.7468 20.3676 39.7468ZM12.4248 11.9241H12.4806C13.0329 11.9241 13.4806 12.3718 13.4806 12.9241V15.6525C13.4806 16.2048 13.0329 16.6525 12.4806 16.6525H12.4248C11.8725 16.6525 11.4248 16.2048 11.4248 15.6525V12.9241C11.4248 12.3718 11.8725 11.9241 12.4248 11.9241ZM25.3359 25.8354H14.4055C13.8567 25.8354 13.4119 26.2803 13.4119 26.8291C13.4119 27.3779 13.8567 27.8228 14.4055 27.8228H25.3359C25.8847 27.8228 26.3296 27.3779 26.3296 26.8291C26.3296 26.2803 25.8847 25.8354 25.3359 25.8354ZM27.5011 11.9241H27.557C28.1093 11.9241 28.557 12.3718 28.557 12.9241V15.6525C28.557 16.2048 28.1093 16.6525 27.557 16.6525H27.5011C26.9488 16.6525 26.5011 16.2048 26.5011 15.6525V12.9241C26.5011 12.3718 26.9488 11.9241 27.5011 11.9241Z" fill="#E3E8ED"/>
</svg>
