<svg width="40" height="40" viewBox="0 0 40 40" fill="none" xmlns="http://www.w3.org/2000/svg">
<path fill-rule="evenodd" clip-rule="evenodd" d="M19.8734 39.7468C30.8492 39.7468 39.7468 30.8492 39.7468 19.8734C39.7468 8.89763 30.8492 0 19.8734 0C8.89763 0 0 8.89763 0 19.8734C0 30.8492 8.89763 39.7468 19.8734 39.7468ZM27.4991 25.8128C27.8514 24.7659 26.9274 23.8481 25.8228 23.8481H13.9241C12.8195 23.8481 11.8955 24.7659 12.2478 25.8128C12.3272 26.0489 12.4211 26.2817 12.5292 26.5099C12.9287 27.3538 13.5142 28.1206 14.2524 28.7665C14.9905 29.4124 15.8669 29.9248 16.8313 30.2743C17.7958 30.6239 18.8295 30.8038 19.8734 30.8038C20.9173 30.8038 21.951 30.6239 22.9155 30.2743C23.88 29.9248 24.7563 29.4124 25.4945 28.7665C26.2326 28.1206 26.8182 27.3538 27.2177 26.5099C27.3257 26.2817 27.4196 26.0489 27.4991 25.8128ZM28.2265 11.9241C27.9029 11.9241 27.6063 12.0266 27.3449 12.2288C27.0942 12.4226 26.9274 12.6695 26.8291 12.8491C26.7309 12.6695 26.564 12.4226 26.3133 12.2288C26.0519 12.0266 25.7553 11.9241 25.4318 11.9241C24.5289 11.9241 23.8481 12.6625 23.8481 13.6418C23.8481 14.6997 24.6975 15.4236 25.9834 16.5194L25.9836 16.5196C26.2019 16.7056 26.4493 16.9165 26.7065 17.1414C26.7404 17.1711 26.7839 17.1874 26.8291 17.1874C26.8743 17.1874 26.9178 17.1711 26.9518 17.1414C27.209 16.9164 27.4565 16.7055 27.675 16.5193C28.9607 15.4236 29.8101 14.6997 29.8101 13.6418C29.8101 12.6625 29.1293 11.9241 28.2265 11.9241ZM12.4398 12.2288C12.7013 12.0266 12.9979 11.9241 13.3214 11.9241C14.2242 11.9241 14.9051 12.6625 14.9051 13.6418C14.9051 14.6997 14.0557 15.4236 12.7699 16.5193C12.5515 16.7055 12.304 16.9164 12.0467 17.1414C12.0128 17.1711 11.9692 17.1874 11.9241 17.1874C11.8789 17.1874 11.8353 17.1711 11.8014 17.1414C11.5443 16.9165 11.2969 16.7057 11.0786 16.5196L11.0783 16.5194C9.79243 15.4236 8.94304 14.6997 8.94304 13.6418C8.94304 12.6625 9.62387 11.9241 10.5267 11.9241C10.8502 11.9241 11.1468 12.0266 11.4083 12.2288C11.6589 12.4226 11.8258 12.6695 11.9241 12.8491C12.0223 12.6695 12.1892 12.4226 12.4398 12.2288Z" fill="#E3E8ED"/>
</svg>
