<svg width="41" height="40" viewBox="0 0 41 40" fill="none" xmlns="http://www.w3.org/2000/svg">
<path fill-rule="evenodd" clip-rule="evenodd" d="M20.8617 39.7468C31.8375 39.7468 40.7351 30.8492 40.7351 19.8734C40.7351 8.89763 31.8375 0 20.8617 0C9.88591 0 0.988281 8.89763 0.988281 19.8734C0.988281 30.8492 9.88591 39.7468 20.8617 39.7468ZM26.7999 12.775L26.7604 12.8145C26.3699 13.205 26.3699 13.8382 26.7604 14.2287L27.4584 14.9267L26.8347 15.5505C26.4442 15.941 26.4442 16.5742 26.8347 16.9647L26.8742 17.0042C27.2647 17.3947 27.8979 17.3947 28.2884 17.0042L28.9122 16.3805L29.4878 16.9561C29.8783 17.3466 30.5115 17.3466 30.902 16.9561L30.9415 16.9166C31.332 16.5261 31.332 15.8929 30.9415 15.5024L30.3659 14.9267L31.0158 14.2769C31.4063 13.8863 31.4063 13.2532 31.0158 12.8627L30.9762 12.8231C30.5857 12.4326 29.9526 12.4326 29.562 12.8231L28.9122 13.473L28.2141 12.775C27.8236 12.3845 27.1905 12.3845 26.7999 12.775ZM10.2269 12.8145L10.2664 12.775C10.6569 12.3845 11.2901 12.3845 11.6806 12.775L12.3786 13.473L13.0285 12.8231C13.419 12.4326 14.0522 12.4326 14.4427 12.8231L14.4822 12.8627C14.8728 13.2532 14.8728 13.8863 14.4822 14.2769L13.8324 14.9267L14.408 15.5024C14.7985 15.8929 14.7985 16.5261 14.408 16.9166L14.3685 16.9561C13.9779 17.3466 13.3448 17.3466 12.9543 16.9561L12.3786 16.3805L11.7549 17.0042C11.3644 17.3947 10.7312 17.3947 10.3407 17.0042L10.3012 16.9647C9.91063 16.5742 9.91063 15.941 10.3012 15.5505L10.9249 14.9267L10.2269 14.2287C9.83637 13.8382 9.83637 13.205 10.2269 12.8145ZM13.2363 28.8391C12.884 29.886 13.808 30.8038 14.9126 30.8038L26.8113 30.8038C27.9159 30.8038 28.8399 29.886 28.4876 28.8391C28.4081 28.603 28.3143 28.3702 28.2062 28.142C27.8067 27.2981 27.2212 26.5313 26.483 25.8854C25.7448 25.2395 24.8685 24.7271 23.904 24.3776C22.9396 24.028 21.9059 23.8481 20.8619 23.8481C19.818 23.8481 18.7843 24.028 17.8199 24.3776C16.8554 24.7271 15.9791 25.2395 15.2409 25.8854C14.5027 26.5313 13.9172 27.2981 13.5177 28.142C13.4096 28.3702 13.3157 28.603 13.2363 28.8391Z" fill="#E3E8ED"/>
</svg>
