<svg width="16" height="17" viewBox="0 0 16 17" fill="none" xmlns="http://www.w3.org/2000/svg">
<path d="M6.53057 13.1423C6.53057 12.9816 6.40557 12.8566 6.24486 12.8566H4.53057V0.570871C4.53057 0.410157 4.40557 0.285156 4.24486 0.285156H2.53057C2.36986 0.285156 2.24486 0.410157 2.24486 0.570871V12.8566H0.530574C0.414503 12.8566 0.30736 12.928 0.262717 13.0352C0.218074 13.1423 0.24486 13.2584 0.325217 13.3477L3.18236 16.2048C3.24486 16.2584 3.31629 16.2852 3.38772 16.2852C3.45915 16.2852 3.53057 16.2584 3.59307 16.2048L6.44129 13.3566C6.49486 13.2941 6.53057 13.2227 6.53057 13.1423ZM15.9591 14.2852C15.9591 14.1244 15.8341 13.9994 15.6734 13.9994H8.24486C8.08415 13.9994 7.95915 14.1244 7.95915 14.2852V15.9994C7.95915 16.1602 8.08415 16.2852 8.24486 16.2852H15.6734C15.8341 16.2852 15.9591 16.1602 15.9591 15.9994V14.2852ZM14.2449 9.71373C14.2449 9.55301 14.1199 9.42801 13.9591 9.42801H8.24486C8.08415 9.42801 7.95915 9.55301 7.95915 9.71373V11.428C7.95915 11.5887 8.08415 11.7137 8.24486 11.7137H13.9591C14.1199 11.7137 14.2449 11.5887 14.2449 11.428V9.71373ZM12.5306 5.1423C12.5306 4.98159 12.4056 4.85659 12.2449 4.85659H8.24486C8.08415 4.85659 7.95915 4.98159 7.95915 5.1423V6.85659C7.95915 7.0173 8.08415 7.1423 8.24486 7.1423H12.2449C12.4056 7.1423 12.5306 7.0173 12.5306 6.85659V5.1423ZM10.8163 0.570871C10.8163 0.410157 10.6913 0.285156 10.5306 0.285156H8.24486C8.08415 0.285156 7.95915 0.410157 7.95915 0.570871V2.28516C7.95915 2.44587 8.08415 2.57087 8.24486 2.57087H10.5306C10.6913 2.57087 10.8163 2.44587 10.8163 2.28516V0.570871Z" fill="white"/>
</svg>
