<svg width="13" height="17" viewBox="0 0 13 17" fill="none" xmlns="http://www.w3.org/2000/svg">
<path d="M8.95898 0.857422C8.79827 0.857422 8.67327 0.99135 8.67327 1.14313L8.67327 13.4288L6.95898 13.4288C6.79827 13.4288 6.67327 13.5628 6.67327 13.7146C6.67327 13.786 6.70006 13.8664 6.75363 13.9199L9.61077 16.7771C9.66434 16.8306 9.73577 16.8574 9.81613 16.8574C9.88756 16.8574 9.95898 16.8306 10.0126 16.7771L12.8697 13.9288C12.9233 13.8663 12.959 13.7949 12.959 13.7146C12.959 13.5538 12.8251 13.4288 12.6733 13.4288L10.959 13.4288L10.959 1.14313C10.959 0.99135 10.8251 0.857421 10.6733 0.857421L8.95898 0.857422ZM4.10184 0.857422C4.03041 0.857422 3.95006 0.884207 3.89648 0.937778L1.04827 3.78599C0.994698 3.84849 0.958984 3.91992 0.958984 4.00028C0.958984 4.16099 1.08398 4.28599 1.2447 4.28599L2.95898 4.28599L2.95898 16.5717C2.95898 16.7235 3.09291 16.8574 3.2447 16.8574L4.95898 16.8574C5.11077 16.8574 5.2447 16.7235 5.2447 16.5717L5.2447 4.28599L6.95898 4.28599C7.11077 4.28599 7.2447 4.15206 7.2447 4.00028C7.2447 3.92885 7.21791 3.84849 7.16434 3.79492L4.3072 0.937778C4.25363 0.884207 4.17327 0.857422 4.10184 0.857422Z" fill="white"/>
</svg>
