<svg width="30" height="18" viewBox="0 0 30 18" fill="none" xmlns="http://www.w3.org/2000/svg">
<path d="M30 0H0V18H30V0Z" fill="#00008F"/>
<path d="M16.005 0H0V8.93836H16.005V0Z" fill="#00008F"/>
<path d="M1.91302 8.93836H0V7.94765L14.0832 0H16.005V0.986301L1.91302 8.93836Z" fill="white"/>
<path d="M0 0H1.7896L16.005 7.93004V8.93836H14.1096L0 1.06996V0Z" fill="white"/>
<path d="M9.31836 3.72505V3.10421L14.815 0H16.0051L9.31836 3.72505Z" fill="#FF0000"/>
<path d="M0 8.93837L6.47517 5.38504H6.73523L6.67793 5.8914L1.27828 8.93837H0Z" fill="#FF0000"/>
<path d="M9.6709 5.38504H10.8478L16.005 8.26029V8.93837L9.6709 5.38504Z" fill="#FF0000"/>
<path d="M6.4355 3.57975H5.19248L0 0.682485V0L6.4355 3.57975Z" fill="#FF0000"/>
<path d="M16.005 2.96332H0V5.95745H16.005V2.96332Z" fill="white"/>
<path d="M9.37567 0H6.73535V8.93836H9.37567V0Z" fill="white"/>
<path d="M16.005 3.57977H0V5.38505H16.005V3.57977Z" fill="#FF0000"/>
<path d="M8.80237 0H7.14941V0.0792563V8.93836H8.80237V0.066047V0Z" fill="#FF0000"/>
<path d="M24.0711 1.75684L24.3092 2.43492L24.9307 2.21916L24.6089 2.85322L25.1466 3.26271L24.5031 3.37279L24.5472 4.0949L24.0711 3.60175L23.5951 4.0949L23.6392 3.37279L22.9956 3.26271L23.5334 2.85322L23.2116 2.21916L23.8331 2.43492L24.0711 1.75684Z" fill="#FAFAFC"/>
<path d="M25.6538 9L25.8521 9.44471L26.2929 9.51516L25.9756 9.863L26.0505 10.3517L25.6538 10.1228L25.2615 10.3517L25.3364 9.863L25.019 9.51516L25.4598 9.44471L25.6538 9Z" fill="#F7F7F9"/>
<path d="M27.6595 5.41586L27.8975 6.09395L28.519 5.8826L28.1973 6.51224L28.735 6.92173L28.0915 7.03181L28.1356 7.75833L27.6595 7.26518L27.1835 7.75833L27.2275 7.03181L26.584 6.92173L27.1217 6.51224L26.8 5.8826L27.4215 6.09395L27.6595 5.41586Z" fill="#FAFAFC"/>
<path d="M20.0643 6.6619L20.3023 7.33557L20.9238 7.12422L20.6021 7.75387L21.1354 8.16336L20.4919 8.27344L20.5403 8.99996L20.0643 8.50681L19.5838 8.99996L19.6323 8.27344L18.9888 8.16336L19.5265 7.75387L19.2003 7.12422L19.8263 7.33557L20.0643 6.6619Z" fill="#FAFAFC"/>
<path d="M24.0711 13.7642L24.3092 14.4379L24.9307 14.2265L24.6089 14.8562L25.1466 15.2657L24.5031 15.3757L24.5472 16.1023L24.0711 15.6091L23.5951 16.1023L23.6392 15.3757L22.9956 15.2657L23.5334 14.8562L23.2116 14.2265L23.8331 14.4379L24.0711 13.7642Z" fill="#FAFAFC"/>
<path d="M8.05753 10.9285L8.55122 12.3331L9.84272 11.8884L9.17273 13.1962L10.2879 14.0504L8.94792 14.2793L9.04931 15.7852L8.05753 14.7593L7.06135 15.7852L7.16273 14.2793L5.82715 14.0504L6.94234 13.1962L6.26794 11.8884L7.55944 12.3331L8.05753 10.9285Z" fill="#FAFAFC"/>
</svg>
