<svg width="30" height="18" viewBox="0 0 30 18" fill="none" xmlns="http://www.w3.org/2000/svg">
<path d="M30 4.6937H0V13.3062H30V4.6937Z" fill="#BD2014"/>
<path d="M30 13.3062H0V18H30V13.3062Z" fill="#004895"/>
<path d="M30 0H0V4.69375H30V0Z" fill="#004895"/>
<path d="M19.863 9.81152H10.1226V11.0837H19.863V9.81152Z" fill="#F9F7F7" stroke="#AF0C15" stroke-width="0.08" stroke-miterlimit="10"/>
<path d="M19.9509 9.46048H10.0488V9.81141H19.9509V9.46048Z" fill="#F9F7F7" stroke="#AF0C15" stroke-width="0.08" stroke-miterlimit="10"/>
<path d="M20.054 9.18164H9.94629V9.45946H20.054V9.18164Z" fill="#F9F7F7" stroke="#AF0C15" stroke-width="0.08" stroke-miterlimit="10"/>
<path d="M18.0263 8.49545H12.0469V9.27043H18.0263V8.49545Z" fill="#F9F7F7" stroke="#AF0C15" stroke-width="0.08" stroke-miterlimit="10"/>
<path d="M12.1795 9.44589H10.2402V11.0836H12.1795V9.44589Z" fill="#F9F7F7" stroke="#AF0C15" stroke-width="0.08" stroke-miterlimit="10"/>
<path d="M19.7449 9.44589H17.8057V11.0836H19.7449V9.44589Z" fill="#F9F7F7" stroke="#AF0C15" stroke-width="0.08" stroke-miterlimit="10"/>
<path d="M16.1308 9.44589H13.8242V11.0836H16.1308V9.44589Z" fill="#F9F7F7" stroke="#AF0C15" stroke-width="0.08" stroke-miterlimit="10"/>
<path d="M9.84277 8.27625V9.28518H11.7967V8.27625C11.7967 8.27625 10.8859 9.41678 9.84277 8.27625Z" fill="#F9F7F7" stroke="#AF0C15" stroke-width="0.08" stroke-miterlimit="10"/>
<path d="M9.94531 8.24689V9.03649H11.5467V8.24689C11.5614 8.24689 10.8121 9.15347 9.94531 8.24689Z" fill="#F9F7F7" stroke="#AF0C15" stroke-width="0.08" stroke-miterlimit="10"/>
<path d="M20.1566 8.27625V9.28518H18.2026V8.27625C18.2026 8.27625 19.1135 9.41678 20.1566 8.27625Z" fill="#F9F7F7" stroke="#AF0C15" stroke-width="0.08" stroke-miterlimit="10"/>
<path d="M20.0535 8.24689V9.03649H18.4521V8.24689C18.4521 8.24689 19.2014 9.15347 20.0535 8.24689Z" fill="#F9F7F7" stroke="#AF0C15" stroke-width="0.08" stroke-miterlimit="10"/>
<path d="M11.2098 5.93665C11.2098 5.93665 11.0484 6.02425 11.1071 6.17026C11.1658 6.31627 11.1658 6.30167 11.1658 6.30167H11.2831L11.3271 6.17026C11.3418 6.17026 11.4005 6.03885 11.2098 5.93665Z" fill="#F9F7F7" stroke="#AF0C15" stroke-width="0.08" stroke-miterlimit="10"/>
<path d="M11.4445 6.25839H10.9897V6.46377H11.4445V6.25839Z" fill="#F9F7F7" stroke="#AF0C15" stroke-width="0.08" stroke-miterlimit="10"/>
<path d="M11.5033 6.40445H10.9165V6.78407H11.5033V6.40445Z" fill="#F9F7F7" stroke="#AF0C15" stroke-width="0.08" stroke-miterlimit="10"/>
<path d="M11.5626 6.85786V6.65315C11.5626 6.65315 11.4745 6.68239 11.4745 6.7555C11.4745 6.7555 11.4451 6.52155 11.21 6.41919C10.975 6.52155 10.9456 6.7555 10.9456 6.7555C10.9456 6.68239 10.8574 6.66777 10.8574 6.66777V6.85786H11.5626Z" fill="#F9F7F7" stroke="#AF0C15" stroke-width="0.08" stroke-miterlimit="10"/>
<path d="M11.5774 6.82864C11.6361 6.65317 11.7096 6.71166 11.7096 6.71166C11.7537 6.78477 11.6508 6.8725 11.6508 6.8725V7.16495H10.8134V6.8725C10.8134 6.8725 10.7106 6.78477 10.7546 6.71166C10.7546 6.71166 10.8134 6.65317 10.8869 6.82864H11.5774Z" fill="#F9F7F7" stroke="#AF0C15" stroke-width="0.08" stroke-miterlimit="10"/>
<path d="M11.5626 7.15032V6.90174C11.5626 6.90174 11.4745 6.90174 11.4745 6.97485C11.4745 6.97485 11.4451 6.78476 11.21 6.66779C10.975 6.77014 10.9456 6.97485 10.9456 6.97485C10.9456 6.90174 10.8574 6.90174 10.8574 6.90174V7.15032H11.5626Z" fill="#F9F7F7" stroke="#AF0C15" stroke-width="0.08" stroke-miterlimit="10"/>
<path d="M11.6362 7.06231C11.7096 6.84297 11.7831 6.91609 11.7831 6.91609C11.8419 7.00382 11.7096 7.10618 11.7096 7.10618V7.47173H10.6959V7.10618C10.6959 7.10618 10.5637 7.00382 10.6225 6.91609C10.6225 6.91609 10.6959 6.84297 10.7694 7.06231H11.6362Z" fill="#F9F7F7" stroke="#AF0C15" stroke-width="0.08" stroke-miterlimit="10"/>
<path d="M11.6064 7.54505V7.28185C11.6064 7.28185 11.5035 7.35496 11.5035 7.42807C11.5035 7.42807 11.4741 7.12101 11.195 7.00403C10.9159 7.12101 10.9012 7.42807 10.9012 7.42807C10.9012 7.35496 10.7983 7.28185 10.7983 7.28185V7.54505H11.6064Z" fill="#F9F7F7" stroke="#AF0C15" stroke-width="0.08" stroke-miterlimit="10"/>
<path d="M11.6949 7.45688C11.783 7.22292 11.8712 7.29603 11.8712 7.29603C11.9446 7.38377 11.7977 7.51537 11.7977 7.51537V7.91017H10.6077V7.51537C10.6077 7.51537 10.4608 7.39839 10.5342 7.29603C10.5342 7.29603 10.6224 7.22292 10.7105 7.45688H11.6949Z" fill="#F9F7F7" stroke="#AF0C15" stroke-width="0.08" stroke-miterlimit="10"/>
<path d="M11.6505 7.93986V7.63279C11.6505 7.63279 11.5477 7.7059 11.5477 7.80826C11.5477 7.80826 11.5036 7.53043 11.2098 7.39883C10.9013 7.53043 10.8719 7.80826 10.8719 7.80826C10.8719 7.72052 10.769 7.63279 10.769 7.63279V7.93986H11.6505Z" fill="#F9F7F7" stroke="#AF0C15" stroke-width="0.08" stroke-miterlimit="10"/>
<path d="M11.7393 7.83721C11.8421 7.55938 11.9303 7.64712 11.9303 7.64712C12.0037 7.7641 11.8421 7.8957 11.8421 7.8957V8.37823H10.5199V7.8957C10.5199 7.8957 10.3583 7.74947 10.4317 7.64712C10.4317 7.64712 10.5199 7.55938 10.6227 7.83721H11.7393Z" fill="#F9F7F7" stroke="#AF0C15" stroke-width="0.08" stroke-miterlimit="10"/>
<path d="M11.7975 8.08578C11.9151 7.88107 12.0179 7.93955 12.0179 7.93955C12.106 8.02729 11.9151 8.12964 11.9151 8.12964V8.4952H10.4459V8.12964C10.4459 8.12964 10.2549 8.02729 10.3431 7.93955C10.3431 7.93955 10.4459 7.86644 10.5634 8.08578H11.7975Z" fill="#F9F7F7" stroke="#AF0C15" stroke-width="0.08" stroke-miterlimit="10"/>
<path d="M11.6943 8.30548V7.95455C11.6943 7.95455 11.5768 8.04228 11.5768 8.14464C11.5768 8.14464 11.5327 7.83757 11.1948 7.69135C10.8569 7.85219 10.8275 8.14464 10.8275 8.14464C10.8275 8.04228 10.71 7.95455 10.71 7.95455V8.30548H11.6943Z" fill="#F9F7F7" stroke="#AF0C15" stroke-width="0.08" stroke-miterlimit="10"/>
<path d="M10.0493 8.10068V9.28508H12.3412V8.10068C12.3412 8.10068 11.2834 9.44593 10.0493 8.10068Z" fill="#F9F7F7" stroke="#AF0C15" stroke-width="0.08" stroke-miterlimit="10"/>
<path d="M10.2407 8.05679V9.02186H12.18V8.05679C12.18 8.05679 11.2838 9.15346 10.2407 8.05679Z" fill="#F9F7F7" stroke="#AF0C15" stroke-width="0.08" stroke-miterlimit="10"/>
<path d="M11.7095 8.7148V8.36386C11.7095 8.36386 11.5919 8.45159 11.5919 8.56857C11.5919 8.56857 11.5479 8.21764 11.21 8.05679C10.8721 8.21764 10.828 8.56857 10.828 8.56857C10.828 8.46622 10.7104 8.36386 10.7104 8.36386V8.7148H11.7095Z" fill="#F9F7F7" stroke="#AF0C15" stroke-width="0.08" stroke-miterlimit="10"/>
<path d="M10.7104 8.71481H11.7095V8.72944L11.1953 8.93415L10.7104 8.72944V8.71481Z" fill="#F9F7F7" stroke="#AF0C15" stroke-width="0.08" stroke-miterlimit="10"/>
<path d="M11.798 9.46061V9.00732C11.798 9.00732 11.651 9.1243 11.651 9.27052C11.651 9.27052 11.607 8.81723 11.1956 8.61252C10.7843 8.81723 10.7402 9.27052 10.7402 9.27052C10.7402 9.1243 10.5933 9.00732 10.5933 9.00732V9.46061H11.798Z" fill="#F9F7F7" stroke="#AF0C15" stroke-width="0.08" stroke-miterlimit="10"/>
<path d="M18.8192 5.93665C18.8192 5.93665 18.6578 6.02425 18.7165 6.17026C18.7751 6.31627 18.7751 6.30167 18.7751 6.30167H18.8925L18.9365 6.17026C18.9365 6.17026 18.9952 6.03885 18.8192 5.93665Z" fill="#F9F7F7" stroke="#AF0C15" stroke-width="0.08" stroke-miterlimit="10"/>
<path d="M19.0392 6.25839H18.5845V6.46377H19.0392V6.25839Z" fill="#F9F7F7" stroke="#AF0C15" stroke-width="0.08" stroke-miterlimit="10"/>
<path d="M19.1127 6.40445H18.5259V6.78407H19.1127V6.40445Z" fill="#F9F7F7" stroke="#AF0C15" stroke-width="0.08" stroke-miterlimit="10"/>
<path d="M19.1559 6.85712V6.65241C19.1559 6.65241 19.0677 6.68166 19.0677 6.75477C19.0677 6.75477 19.0383 6.52081 18.8033 6.41846C18.5682 6.52081 18.5388 6.75477 18.5388 6.75477C18.5388 6.68166 18.4507 6.66704 18.4507 6.66704V6.85712H19.1559Z" fill="#F9F7F7" stroke="#AF0C15" stroke-width="0.08" stroke-miterlimit="10"/>
<path d="M19.1721 6.82864C19.2308 6.65317 19.3043 6.71166 19.3043 6.71166C19.3484 6.78477 19.2455 6.8725 19.2455 6.8725V7.16495H18.4081V6.8725C18.4081 6.8725 18.3053 6.78477 18.3494 6.71166C18.3494 6.71166 18.4081 6.65317 18.4816 6.82864H19.1721Z" fill="#F9F7F7" stroke="#AF0C15" stroke-width="0.08" stroke-miterlimit="10"/>
<path d="M19.1569 7.15032V6.90174C19.1569 6.90174 19.0687 6.90174 19.0687 6.97485C19.0687 6.97485 19.0393 6.78476 18.8043 6.66779C18.5692 6.77014 18.5398 6.97485 18.5398 6.97485C18.5398 6.90174 18.4517 6.90174 18.4517 6.90174V7.15032H19.1569Z" fill="#F9F7F7" stroke="#AF0C15" stroke-width="0.08" stroke-miterlimit="10"/>
<path d="M19.2309 7.06231C19.3044 6.84297 19.3778 6.91609 19.3778 6.91609C19.4366 7.00382 19.3044 7.10618 19.3044 7.10618V7.47173H18.2907V7.10618C18.2907 7.10618 18.1584 7.00382 18.2172 6.91609C18.2172 6.91609 18.2907 6.84297 18.3641 7.06231H19.2309Z" fill="#F9F7F7" stroke="#AF0C15" stroke-width="0.08" stroke-miterlimit="10"/>
<path d="M19.2011 7.54508V7.28188C19.2011 7.28188 19.0983 7.35499 19.0983 7.4281C19.0983 7.4281 19.0689 7.12104 18.7897 7.00406C18.5106 7.12104 18.4959 7.4281 18.4959 7.4281C18.4959 7.35499 18.3931 7.28188 18.3931 7.28188V7.54508H19.2011Z" fill="#F9F7F7" stroke="#AF0C15" stroke-width="0.08" stroke-miterlimit="10"/>
<path d="M19.2896 7.45691C19.3777 7.22295 19.4659 7.29606 19.4659 7.29606C19.5393 7.3838 19.3924 7.5154 19.3924 7.5154V7.9102H18.2024V7.5154C18.2024 7.5154 18.0555 7.39842 18.129 7.29606C18.129 7.29606 18.2171 7.22295 18.3053 7.45691H19.2896Z" fill="#F9F7F7" stroke="#AF0C15" stroke-width="0.08" stroke-miterlimit="10"/>
<path d="M19.2448 7.93986V7.63279C19.2448 7.63279 19.1419 7.7059 19.1419 7.80826C19.1419 7.80826 19.0979 7.53043 18.804 7.39883C18.4955 7.53043 18.4661 7.80826 18.4661 7.80826C18.4661 7.72052 18.3633 7.63279 18.3633 7.63279V7.93986H19.2448Z" fill="#F9F7F7" stroke="#AF0C15" stroke-width="0.08" stroke-miterlimit="10"/>
<path d="M19.3482 7.83721C19.451 7.55938 19.5392 7.64712 19.5392 7.64712C19.6126 7.7641 19.451 7.8957 19.451 7.8957V8.37823H18.1288V7.8957C18.1288 7.8957 17.9672 7.74947 18.0406 7.64712C18.0406 7.64712 18.1288 7.55938 18.2316 7.83721H19.3482Z" fill="#F9F7F7" stroke="#AF0C15" stroke-width="0.08" stroke-miterlimit="10"/>
<path d="M19.4074 8.08578C19.5249 7.88107 19.6278 7.93955 19.6278 7.93955C19.7159 8.02729 19.5249 8.12964 19.5249 8.12964V8.4952H18.0558V8.12964C18.0558 8.12964 17.8648 8.02729 17.9529 7.93955C17.9529 7.93955 18.0558 7.86644 18.1733 8.08578H19.4074Z" fill="#F9F7F7" stroke="#AF0C15" stroke-width="0.08" stroke-miterlimit="10"/>
<path d="M19.3042 8.30548V7.95455C19.3042 7.95455 19.1866 8.04228 19.1866 8.14464C19.1866 8.14464 19.1425 7.83757 18.8046 7.69135C18.4667 7.85219 18.4374 8.14464 18.4374 8.14464C18.4374 8.04228 18.3198 7.95455 18.3198 7.95455V8.30548H19.3042Z" fill="#F9F7F7" stroke="#AF0C15" stroke-width="0.08" stroke-miterlimit="10"/>
<path d="M17.644 8.10068V9.28508H19.9359V8.10068C19.9506 8.10068 18.8781 9.44593 17.644 8.10068Z" fill="#F9F7F7" stroke="#AF0C15" stroke-width="0.08" stroke-miterlimit="10"/>
<path d="M17.8354 8.05679V9.02186H19.7747V8.05679C19.7747 8.05679 18.8785 9.15346 17.8354 8.05679Z" fill="#F9F7F7" stroke="#AF0C15" stroke-width="0.08" stroke-miterlimit="10"/>
<path d="M19.3042 8.7148V8.36386C19.3042 8.36386 19.1867 8.45159 19.1867 8.56857C19.1867 8.56857 19.1426 8.21764 18.8047 8.05679C18.4668 8.21764 18.4227 8.56857 18.4227 8.56857C18.4227 8.46622 18.3052 8.36386 18.3052 8.36386V8.7148H19.3042Z" fill="#F9F7F7" stroke="#AF0C15" stroke-width="0.08" stroke-miterlimit="10"/>
<path d="M18.3052 8.71481H19.3042V8.72944L18.8047 8.93415L18.3052 8.72944V8.71481Z" fill="#F9F7F7" stroke="#AF0C15" stroke-width="0.08" stroke-miterlimit="10"/>
<path d="M19.4073 9.46061V9.00732C19.4073 9.00732 19.2604 9.1243 19.2604 9.27052C19.2604 9.27052 19.2163 8.81723 18.805 8.61252C18.3936 8.81723 18.3496 9.27052 18.3496 9.27052C18.3496 9.1243 18.2026 9.00732 18.2026 9.00732V9.46061H19.4073Z" fill="#F9F7F7" stroke="#AF0C15" stroke-width="0.08" stroke-miterlimit="10"/>
<path d="M14.9994 4.8837C14.9994 4.8837 14.794 5.0005 14.8674 5.19031C14.9407 5.38013 14.9407 5.36553 14.9407 5.36553H15.0874L15.1461 5.19031C15.1608 5.19031 15.2341 5.01511 14.9994 4.8837Z" fill="#F9F7F7" stroke="#AF0C15" stroke-width="0.08" stroke-miterlimit="10"/>
<path d="M15.2923 5.30771H14.7202V5.57052H15.2923V5.30771Z" fill="#F9F7F7" stroke="#AF0C15" stroke-width="0.08" stroke-miterlimit="10"/>
<path d="M15.3669 5.49786H14.647V5.99502H15.3669V5.49786Z" fill="#F9F7F7" stroke="#AF0C15" stroke-width="0.08" stroke-miterlimit="10"/>
<path d="M15.4258 6.08275V5.81955C15.4258 5.81955 15.323 5.8488 15.323 5.95115C15.323 5.95115 15.2936 5.64409 14.9998 5.49786C14.706 5.64409 14.6766 5.95115 14.6766 5.95115C14.6766 5.8488 14.5737 5.83418 14.5737 5.83418V6.09738H15.4258V6.08275Z" fill="#F9F7F7" stroke="#AF0C15" stroke-width="0.08" stroke-miterlimit="10"/>
<path d="M15.4409 6.05353C15.5144 5.81957 15.6025 5.89268 15.6025 5.89268C15.6613 5.98042 15.5291 6.11202 15.5291 6.11202V6.50682H14.486V6.11202C14.486 6.11202 14.3538 5.99504 14.4125 5.89268C14.4125 5.89268 14.486 5.81957 14.5741 6.05353H15.4409Z" fill="#F9F7F7" stroke="#AF0C15" stroke-width="0.08" stroke-miterlimit="10"/>
<path d="M15.4253 6.47751V6.15582C15.4253 6.15582 15.3225 6.15582 15.3225 6.25817C15.3225 6.25817 15.2931 5.99497 14.9993 5.86337C14.7055 6.0096 14.6761 6.25817 14.6761 6.25817C14.6761 6.15582 14.5732 6.15582 14.5732 6.15582V6.47751H15.4253Z" fill="#F9F7F7" stroke="#AF0C15" stroke-width="0.08" stroke-miterlimit="10"/>
<path d="M15.5287 6.36009C15.6315 6.06765 15.7197 6.17 15.7197 6.17C15.7931 6.28698 15.6315 6.4332 15.6315 6.4332V6.91574H14.368V6.4332C14.368 6.4332 14.2064 6.28698 14.2799 6.17C14.2799 6.17 14.368 6.06765 14.4709 6.36009H15.5287Z" fill="#F9F7F7" stroke="#AF0C15" stroke-width="0.08" stroke-miterlimit="10"/>
<path d="M15.4848 6.98931V6.653C15.4848 6.653 15.3673 6.74074 15.3673 6.84309C15.3673 6.84309 15.3232 6.43367 14.9853 6.28745C14.6474 6.43367 14.618 6.84309 14.618 6.84309C14.618 6.74074 14.5005 6.653 14.5005 6.653V6.98931H15.4848Z" fill="#F9F7F7" stroke="#AF0C15" stroke-width="0.08" stroke-miterlimit="10"/>
<path d="M15.6027 6.8864C15.7203 6.57933 15.8231 6.68169 15.8231 6.68169C15.9113 6.79867 15.7203 6.95951 15.7203 6.95951V7.48592H14.2511V6.95951C14.2511 6.95951 14.0748 6.79867 14.1483 6.68169C14.1483 6.68169 14.2511 6.57933 14.3686 6.8864H15.6027Z" fill="#F9F7F7" stroke="#AF0C15" stroke-width="0.08" stroke-miterlimit="10"/>
<path d="M15.5428 7.51572V7.10629C15.5428 7.10629 15.4106 7.20865 15.4106 7.34025C15.4106 7.34025 15.3665 6.98931 14.9845 6.79922C14.6025 6.97469 14.5731 7.34025 14.5731 7.34025C14.5731 7.22327 14.4409 7.10629 14.4409 7.10629V7.51572H15.5428Z" fill="#F9F7F7" stroke="#AF0C15" stroke-width="0.08" stroke-miterlimit="10"/>
<path d="M15.6609 7.38358C15.7932 7.01802 15.9107 7.135 15.9107 7.135C16.0135 7.28122 15.8078 7.47131 15.8078 7.47131V8.10007H14.1624V7.47131C14.1624 7.47131 13.9567 7.28122 14.0596 7.135C14.0596 7.135 14.1771 7.01802 14.3093 7.38358H15.6609Z" fill="#F9F7F7" stroke="#AF0C15" stroke-width="0.08" stroke-miterlimit="10"/>
<path d="M15.7342 7.70537C15.8811 7.42755 15.9987 7.51528 15.9987 7.51528C16.1015 7.63226 15.8811 7.76386 15.8811 7.76386V8.23177H14.0741V7.76386C14.0741 7.76386 13.8537 7.61764 13.9565 7.51528C13.9565 7.51528 14.0888 7.42755 14.221 7.70537H15.7342Z" fill="#F9F7F7" stroke="#AF0C15" stroke-width="0.08" stroke-miterlimit="10"/>
<path d="M15.6012 7.99822V7.54493C15.6012 7.54493 15.4543 7.66191 15.4543 7.79351C15.4543 7.79351 15.3955 7.39871 14.9842 7.194C14.5728 7.39871 14.5288 7.79351 14.5288 7.79351C14.5288 7.66191 14.3818 7.54493 14.3818 7.54493V7.99822H15.6012Z" fill="#F9F7F7" stroke="#AF0C15" stroke-width="0.08" stroke-miterlimit="10"/>
<path d="M14.3677 9.5043H15.6018V9.51893L14.97 10.2062L14.3677 9.51893V9.5043Z" fill="#F9F7F7" stroke="#AF0C15" stroke-width="0.08" stroke-miterlimit="10"/>
<path d="M13.5601 7.72034V9.2703H16.3955V7.72034C16.3955 7.72034 15.088 9.48963 13.5601 7.72034Z" fill="#F9F7F7" stroke="#AF0C15" stroke-width="0.08" stroke-miterlimit="10"/>
<path d="M13.7954 7.66196V8.91947H16.1901V7.66196C16.2048 7.66196 15.0883 9.10956 13.7954 7.66196Z" fill="#F9F7F7" stroke="#AF0C15" stroke-width="0.08" stroke-miterlimit="10"/>
<path d="M15.6169 8.53923V8.07131C15.6169 8.07131 15.47 8.18829 15.47 8.33452C15.47 8.33452 15.4259 7.88123 14.9999 7.67651C14.5738 7.88123 14.5297 8.33452 14.5297 8.33452C14.5297 8.18829 14.3828 8.07131 14.3828 8.07131V8.53923H15.6169Z" fill="#F9F7F7" stroke="#AF0C15" stroke-width="0.08" stroke-miterlimit="10"/>
<path d="M14.3828 8.53931H15.6169L14.9852 8.81713L14.3828 8.53931Z" fill="#F9F7F7" stroke="#AF0C15" stroke-width="0.08" stroke-miterlimit="10"/>
<path d="M15.7343 9.5043V8.90479C15.7343 8.90479 15.558 9.06563 15.558 9.2411C15.558 9.2411 15.4992 8.64159 14.9997 8.37839C14.5002 8.64159 14.4414 9.2411 14.4414 9.2411C14.4414 9.05101 14.2651 8.90479 14.2651 8.90479V9.5043H15.7343Z" fill="#F9F7F7" stroke="#AF0C15" stroke-width="0.08" stroke-miterlimit="10"/>
<path d="M12.3413 9.02173H13.5607" stroke="#AF0C15" stroke-width="0.08" stroke-miterlimit="10"/>
<path d="M16.396 9.0217H17.6448" stroke="#AF0C15" stroke-width="0.08" stroke-miterlimit="10"/>
<path d="M10.0931 9.26999C10.0931 9.26999 10.0638 9.44603 10.2838 9.44603" stroke="#AF0C15" stroke-width="0.08" stroke-miterlimit="10"/>
<path d="M12.282 9.27032C12.282 9.27032 12.3114 9.44636 12.0913 9.44636" stroke="#AF0C15" stroke-width="0.08" stroke-miterlimit="10"/>
<path d="M17.7181 9.27036C17.7181 9.27036 17.6888 9.44639 17.9088 9.44639" stroke="#AF0C15" stroke-width="0.08" stroke-miterlimit="10"/>
<path d="M19.907 9.27032C19.907 9.27032 19.9364 9.44636 19.7163 9.44636" stroke="#AF0C15" stroke-width="0.08" stroke-miterlimit="10"/>
<path d="M13.722 9.27036C13.722 9.27036 13.678 9.44639 13.942 9.44639" stroke="#AF0C15" stroke-width="0.08" stroke-miterlimit="10"/>
<path d="M16.2489 9.27032C16.2489 9.27032 16.2929 9.44636 16.0288 9.44636" stroke="#AF0C15" stroke-width="0.08" stroke-miterlimit="10"/>
<path d="M20.2458 11.8878H9.66797V11.3468H10.0206H20.2458V11.8878Z" fill="#F9F7F7" stroke="#AF0C15" stroke-width="0.08" stroke-miterlimit="10"/>
<path d="M20.4363 11.4638H9.50586V11.9902H20.4363V11.4638Z" fill="#F9F7F7" stroke="#AF0C15" stroke-width="0.08" stroke-miterlimit="10"/>
<path d="M20.7598 11.7271H9.25635V12.2535H20.7598V11.7271Z" fill="#F9F7F7" stroke="#AF0C15" stroke-width="0.08" stroke-miterlimit="10"/>
<path d="M21.171 12.0633H8.80078V12.7506H21.171V12.0633Z" fill="#F9F7F7" stroke="#AF0C15" stroke-width="0.08" stroke-miterlimit="10"/>
<path d="M21.5678 12.502H8.43359V13.0284H21.5678V12.502Z" fill="#F9F7F7" stroke="#AF0C15" stroke-width="0.08" stroke-miterlimit="10"/>
<path d="M10.1233 11.0837L10.0205 11.3469H19.9666L19.8638 11.0837H10.1233Z" fill="#F9F7F7" stroke="#AF0C15" stroke-width="0.08" stroke-miterlimit="10"/>
<path d="M12.4586 10.2063H12.2529V11.0983H12.4586V10.2063Z" fill="#F9F7F7" stroke="#AF0C15" stroke-width="0.08" stroke-miterlimit="10"/>
<path d="M12.7819 10.2063H12.5762V11.0983H12.7819V10.2063Z" fill="#F9F7F7" stroke="#AF0C15" stroke-width="0.08" stroke-miterlimit="10"/>
<path d="M13.0904 10.2063H12.8848V11.0983H13.0904V10.2063Z" fill="#F9F7F7" stroke="#AF0C15" stroke-width="0.08" stroke-miterlimit="10"/>
<path d="M13.399 10.2063H13.1934V11.0983H13.399V10.2063Z" fill="#F9F7F7" stroke="#AF0C15" stroke-width="0.08" stroke-miterlimit="10"/>
<path d="M13.7071 10.2063H13.5015V11.0983H13.7071V10.2063Z" fill="#F9F7F7" stroke="#AF0C15" stroke-width="0.08" stroke-miterlimit="10"/>
<path d="M16.4401 10.2063H16.2344V11.0983H16.4401V10.2063Z" fill="#F9F7F7" stroke="#AF0C15" stroke-width="0.08" stroke-miterlimit="10"/>
<path d="M16.7628 10.2063H16.5571V11.0983H16.7628V10.2063Z" fill="#F9F7F7" stroke="#AF0C15" stroke-width="0.08" stroke-miterlimit="10"/>
<path d="M17.0719 10.2063H16.8662V11.0983H17.0719V10.2063Z" fill="#F9F7F7" stroke="#AF0C15" stroke-width="0.08" stroke-miterlimit="10"/>
<path d="M17.38 10.2063H17.1743V11.0983H17.38V10.2063Z" fill="#F9F7F7" stroke="#AF0C15" stroke-width="0.08" stroke-miterlimit="10"/>
<path d="M17.7037 10.2063H17.498V11.0983H17.7037V10.2063Z" fill="#F9F7F7" stroke="#AF0C15" stroke-width="0.08" stroke-miterlimit="10"/>
<path d="M10.7985 10.2063H10.5928V11.0983H10.7985V10.2063Z" fill="#F9F7F7" stroke="#AF0C15" stroke-width="0.08" stroke-miterlimit="10"/>
<path d="M11.7096 10.2063H11.5039V11.0983H11.7096V10.2063Z" fill="#F9F7F7" stroke="#AF0C15" stroke-width="0.08" stroke-miterlimit="10"/>
<path d="M18.4381 10.2063H18.2324V11.0983H18.4381V10.2063Z" fill="#F9F7F7" stroke="#AF0C15" stroke-width="0.08" stroke-miterlimit="10"/>
<path d="M19.4078 10.2063H19.2021V11.0983H19.4078V10.2063Z" fill="#F9F7F7" stroke="#AF0C15" stroke-width="0.08" stroke-miterlimit="10"/>
<path d="M14.3238 10.2063H14.1182V11.0983H14.3238V10.2063Z" fill="#F9F7F7" stroke="#AF0C15" stroke-width="0.08" stroke-miterlimit="10"/>
<path d="M15.8815 10.2063H15.6758V11.0983H15.8815V10.2063Z" fill="#F9F7F7" stroke="#AF0C15" stroke-width="0.08" stroke-miterlimit="10"/>
<path d="M15.4703 10.2063H15.2646V11.0983H15.4703V10.2063Z" fill="#F9F7F7" stroke="#AF0C15" stroke-width="0.08" stroke-miterlimit="10"/>
<path d="M14.7062 10.2063H14.5005V11.0983H14.7062V10.2063Z" fill="#F9F7F7" stroke="#AF0C15" stroke-width="0.08" stroke-miterlimit="10"/>
<path d="M11.445 9.46048H10.8721V13.0429H11.445V9.46048Z" fill="#F9F7F7" stroke="#AF0C15" stroke-width="0.08" stroke-miterlimit="10"/>
<path d="M11.3565 9.46048H10.9893V13.0429H11.3565V9.46048Z" fill="#F9F7F7" stroke="#AF0C15" stroke-width="0.08" stroke-miterlimit="10"/>
<path d="M15.2497 9.46048H14.6768V13.0429H15.2497V9.46048Z" fill="#F9F7F7" stroke="#AF0C15" stroke-width="0.08" stroke-miterlimit="10"/>
<path d="M15.1617 9.46048H14.7944V13.0429H15.1617V9.46048Z" fill="#F9F7F7" stroke="#AF0C15" stroke-width="0.08" stroke-miterlimit="10"/>
<path d="M19.0993 9.46048H18.5264V13.0429H19.0993V9.46048Z" fill="#F9F7F7" stroke="#AF0C15" stroke-width="0.08" stroke-miterlimit="10"/>
<path d="M18.9962 9.46048H18.6289V13.0429H18.9962V9.46048Z" fill="#F9F7F7" stroke="#AF0C15" stroke-width="0.08" stroke-miterlimit="10"/>
<path d="M14.4429 9.59262V11.0841" stroke="#AF0C15" stroke-width="0.08" stroke-miterlimit="10"/>
<path d="M15.5449 9.57797V11.0841" stroke="#AF0C15" stroke-width="0.08" stroke-miterlimit="10"/>
<path d="M18.5123 11.0836L18.4683 11.3465" stroke="#AF0C15" stroke-width="0.08" stroke-miterlimit="10"/>
<path d="M18.3497 11.0836L18.2764 11.3464" stroke="#AF0C15" stroke-width="0.08" stroke-miterlimit="10"/>
<path d="M17.8654 11.0836L17.7334 11.3464" stroke="#AF0C15" stroke-width="0.08" stroke-miterlimit="10"/>
<path d="M19.1147 11.0836L19.1588 11.3465" stroke="#AF0C15" stroke-width="0.08" stroke-miterlimit="10"/>
<path d="M19.2759 11.0836L19.3492 11.3465" stroke="#AF0C15" stroke-width="0.08" stroke-miterlimit="10"/>
<path d="M19.7598 11.0836L19.8918 11.3465" stroke="#AF0C15" stroke-width="0.08" stroke-miterlimit="10"/>
<path d="M10.814 11.3468L10.858 11.0836H19.1146" stroke="#AF0C15" stroke-width="0.08" stroke-miterlimit="10"/>
<path d="M10.6954 11.0836L10.6221 11.3464" stroke="#AF0C15" stroke-width="0.08" stroke-miterlimit="10"/>
<path d="M10.2111 11.0836L10.0791 11.3464" stroke="#AF0C15" stroke-width="0.08" stroke-miterlimit="10"/>
<path d="M11.4604 11.0836L11.5045 11.3465" stroke="#AF0C15" stroke-width="0.08" stroke-miterlimit="10"/>
<path d="M11.6216 11.0836L11.6949 11.3465" stroke="#AF0C15" stroke-width="0.08" stroke-miterlimit="10"/>
<path d="M12.1055 11.0836L12.2375 11.3465" stroke="#AF0C15" stroke-width="0.08" stroke-miterlimit="10"/>
<path d="M14.6192 11.0836L14.5752 11.3465" stroke="#AF0C15" stroke-width="0.08" stroke-miterlimit="10"/>
<path d="M14.4415 11.0836L14.3535 11.3464" stroke="#AF0C15" stroke-width="0.08" stroke-miterlimit="10"/>
<path d="M13.884 11.0836L13.7373 11.3464" stroke="#AF0C15" stroke-width="0.08" stroke-miterlimit="10"/>
<path d="M15.3242 11.0836L15.3682 11.3465" stroke="#AF0C15" stroke-width="0.08" stroke-miterlimit="10"/>
<path d="M15.5005 11.0836L15.5885 11.3465" stroke="#AF0C15" stroke-width="0.08" stroke-miterlimit="10"/>
<path d="M16.0576 11.0836L16.2043 11.3465" stroke="#AF0C15" stroke-width="0.08" stroke-miterlimit="10"/>
</svg>
