<svg width="30" height="30" viewBox="0 0 30 30" fill="none" xmlns="http://www.w3.org/2000/svg">
<circle cx="15" cy="15" r="14.5" fill="#335067" stroke="white"/>
<path d="M19.1429 8H10.5714C9.15179 8 8 9.15179 8 10.5714V19.1429C8 20.5625 9.15179 21.7143 10.5714 21.7143H15.3214V16.4018H13.5357V14.3304H15.3214V12.8036C15.3214 11.0357 16.4107 10.0714 17.9911 10.0714C18.7411 10.0714 19.3929 10.125 19.5804 10.1518V12L18.4911 12.0089C17.625 12.0089 17.4643 12.4107 17.4643 13.0089V14.3304H19.5089L19.2411 16.4018H17.4643V21.7143H19.1429C20.5625 21.7143 21.7143 20.5625 21.7143 19.1429V10.5714C21.7143 9.15179 20.5625 8 19.1429 8Z" fill="white"/>
</svg>
