<svg width="46" height="40" viewBox="0 0 46 40" fill="none" xmlns="http://www.w3.org/2000/svg">
<path fill-rule="evenodd" clip-rule="evenodd" d="M31.5689 28.0908H14.3128C13.5422 28.0908 12.9118 27.4836 12.9118 26.7131V1.37768C12.9118 0.630465 13.5422 0 14.3128 0H31.5689C32.3394 0 32.9699 0.607115 32.9699 1.37768V26.7131C32.9699 27.4603 32.3394 28.0908 31.5689 28.0908ZM39.0882 21.5052V18.1428L35.4922 21.4819L39.0882 24.821V22.1357C40.6994 23.1865 41.6101 24.4007 41.6101 25.685C41.6101 28.6972 36.6598 31.2658 29.7013 32.2932V37.8506C38.9481 36.5897 45.6497 32.8536 45.6497 28.4403C45.6497 25.7083 43.1512 23.2799 39.0882 21.5052ZM12.3992 31.5708C7.33208 30.2865 4.0163 28.1149 4.0163 25.6631C4.0163 23.4682 6.63156 21.5301 10.7413 20.2225V20.059C4.29651 21.8103 0 24.8926 0 28.4185C0 32.248 5.04373 35.5638 12.4225 37.1983V40.0004L17.7931 34.7232L12.4225 29.4459V31.5708H12.3992Z" fill="#9EA9B9"/>
</svg>
