<?xml version="1.0" encoding="utf-8"?>
<!-- Generator: Adobe Illustrator 17.0.0, SVG Export Plug-In . SVG Version: 6.00 Build 0)  -->
<!DOCTYPE svg PUBLIC "-//W3C//DTD SVG 1.1//EN" "http://www.w3.org/Graphics/SVG/1.1/DTD/svg11.dtd">
<svg version="1.1" id="Layer_1" xmlns="http://www.w3.org/2000/svg" xmlns:xlink="http://www.w3.org/1999/xlink" x="0px" y="0px"
	 width="33px" height="33.054px" viewBox="0 0 33 33.054" enable-background="new 0 0 33 33.054" xml:space="preserve">
<g>
	<g>
		<path fill="#D0D0CF" d="M0,16.514C0,7.423,7.396,0.027,16.486,0.027c9.091,0,16.486,7.396,16.486,16.486S25.577,33,16.486,33
			S0,25.604,0,16.514z M32.011,16.514c0-8.56-6.964-15.524-15.524-15.524S0.962,7.954,0.962,16.514
			c0,8.56,6.964,15.524,15.524,15.524S32.011,25.073,32.011,16.514z"/>
	</g>
	<g>
		<polygon fill="#00ADEE" points="24.28,20.533 24.952,19.859 16.554,11.435 8.275,19.74 8.947,20.414 16.554,12.783 		"/>
	</g>
</g>
</svg>
