<svg width="30" height="30" viewBox="0 0 30 30" fill="none" xmlns="http://www.w3.org/2000/svg">
<circle cx="15" cy="15" r="14.5" fill="#335067" stroke="white"/>
<path d="M17.1429 14.8577C17.1429 16.1166 16.1161 17.1434 14.8572 17.1434C13.5983 17.1434 12.5715 16.1166 12.5715 14.8577C12.5715 13.5988 13.5983 12.572 14.8572 12.572C16.1161 12.572 17.1429 13.5988 17.1429 14.8577ZM18.3751 14.8577C18.3751 12.9113 16.8036 11.3398 14.8572 11.3398C12.9108 11.3398 11.3394 12.9113 11.3394 14.8577C11.3394 16.8041 12.9108 18.3756 14.8572 18.3756C16.8036 18.3756 18.3751 16.8041 18.3751 14.8577ZM19.3394 11.197C19.3394 10.7416 18.9733 10.3756 18.5179 10.3756C18.0626 10.3756 17.6965 10.7416 17.6965 11.197C17.6965 11.6523 18.0626 12.0184 18.5179 12.0184C18.9733 12.0184 19.3394 11.6523 19.3394 11.197ZM14.8572 9.2327C15.8572 9.2327 18.0001 9.15234 18.9019 9.50949C19.2144 9.63449 19.4465 9.78627 19.6876 10.0273C19.9286 10.2684 20.0804 10.5006 20.2054 10.8131C20.5626 11.7148 20.4822 13.8577 20.4822 14.8577C20.4822 15.8577 20.5626 18.0006 20.2054 18.9023C20.0804 19.2148 19.9286 19.447 19.6876 19.6881C19.4465 19.9291 19.2144 20.0809 18.9019 20.2059C18.0001 20.5631 15.8572 20.4827 14.8572 20.4827C13.8572 20.4827 11.7144 20.5631 10.8126 20.2059C10.5001 20.0809 10.2679 19.9291 10.0269 19.6881C9.78578 19.447 9.634 19.2148 9.509 18.9023C9.15186 18.0006 9.23221 15.8577 9.23221 14.8577C9.23221 13.8577 9.15186 11.7148 9.509 10.8131C9.634 10.5006 9.78578 10.2684 10.0269 10.0273C10.2679 9.78627 10.5001 9.63449 10.8126 9.50949C11.7144 9.15234 13.8572 9.2327 14.8572 9.2327ZM21.7144 14.8577C21.7144 13.9113 21.7233 12.9738 21.6697 12.0273C21.6161 10.9291 21.3661 9.95592 20.5626 9.15234C19.759 8.34877 18.7858 8.09877 17.6876 8.0452C16.7411 7.99163 15.8036 8.00056 14.8572 8.00056C13.9108 8.00056 12.9733 7.99163 12.0269 8.0452C10.9286 8.09877 9.95543 8.34877 9.15186 9.15234C8.34828 9.95592 8.09828 10.9291 8.04471 12.0273C7.99114 12.9738 8.00007 13.9113 8.00007 14.8577C8.00007 15.8041 7.99114 16.7416 8.04471 17.6881C8.09828 18.7863 8.34828 19.7595 9.15186 20.5631C9.95543 21.3666 10.9286 21.6166 12.0269 21.6702C12.9733 21.7238 13.9108 21.7148 14.8572 21.7148C15.8036 21.7148 16.7411 21.7238 17.6876 21.6702C18.7858 21.6166 19.759 21.3666 20.5626 20.5631C21.3661 19.7595 21.6161 18.7863 21.6697 17.6881C21.7233 16.7416 21.7144 15.8041 21.7144 14.8577Z" fill="white"/>
</svg>
