<svg width="30" height="30" viewBox="0 0 30 30" fill="none" xmlns="http://www.w3.org/2000/svg">
<circle cx="15" cy="15" r="14.5" stroke="white"/>
<g clip-path="url(#clip0)">
<path d="M18.2103 8.0004H11.7897C9.70001 8.0004 8 9.70041 8 11.7901V18.2108C8 20.3004 9.70001 22.0004 11.7897 22.0004H18.2104C20.3 22.0004 22 20.3004 22 18.2108V11.7901C22 9.70041 20.3 8.0004 18.2103 8.0004V8.0004ZM15 18.8284C12.8892 18.8284 11.172 17.1112 11.172 15.0004C11.172 12.8896 12.8892 11.1724 15 11.1724C17.1108 11.1724 18.828 12.8896 18.828 15.0004C18.828 17.1112 17.1108 18.8284 15 18.8284ZM18.9195 12.0751C18.2958 12.0751 17.7884 11.5678 17.7884 10.944C17.7884 10.3202 18.2958 9.81277 18.9195 9.81277C19.5433 9.81277 20.0508 10.3202 20.0508 10.944C20.0508 11.5678 19.5433 12.0751 18.9195 12.0751Z" fill="white"/>
<path d="M15 12.0003C13.3459 12.0003 12 13.3461 12 15.0003C12 16.6545 13.3459 18.0003 15 18.0003C16.6542 18.0003 18 16.6545 18 15.0003C18 13.3461 16.6542 12.0003 15 12.0003Z" fill="white"/>
<path d="M18.9193 10.6336C18.7482 10.6336 18.6089 10.7729 18.6089 10.944C18.6089 11.1151 18.7482 11.2544 18.9193 11.2544C19.0905 11.2544 19.2298 11.1152 19.2298 10.944C19.2298 10.7728 19.0905 10.6336 18.9193 10.6336Z" fill="white"/>
</g>
<defs>
<clipPath id="clip0">
<rect width="14" height="14" fill="white" transform="translate(8 8.0004)"/>
</clipPath>
</defs>
</svg>
