<svg width="110" height="110" viewBox="0 0 110 110" fill="none" xmlns="http://www.w3.org/2000/svg">
<path d="M110 0H0V110H110V0Z" fill="white"/>
<path d="M36.6001 6.59998H33.2667V9.93331H36.6001V6.59998Z" fill="#03274C"/>
<path d="M43.2667 6.59998H39.9334V9.93331H43.2667V6.59998Z" fill="#03274C"/>
<path d="M49.9334 6.59998H46.6001V9.93331H49.9334V6.59998Z" fill="#03274C"/>
<path d="M53.2668 6.59998H49.9334V9.93331H53.2668V6.59998Z" fill="#03274C"/>
<path d="M56.6001 6.59998H53.2668V9.93331H56.6001V6.59998Z" fill="#03274C"/>
<path d="M59.9334 6.59998H56.6001V9.93331H59.9334V6.59998Z" fill="#03274C"/>
<path d="M69.9335 6.59998H66.6002V9.93331H69.9335V6.59998Z" fill="#03274C"/>
<path d="M76.6002 6.59998H73.2668V9.93331H76.6002V6.59998Z" fill="#03274C"/>
<path d="M36.6001 9.93332H33.2667V13.2667H36.6001V9.93332Z" fill="#03274C"/>
<path d="M43.2667 9.93332H39.9334V13.2667H43.2667V9.93332Z" fill="#03274C"/>
<path d="M49.9334 9.93332H46.6001V13.2667H49.9334V9.93332Z" fill="#03274C"/>
<path d="M53.2668 9.93332H49.9334V13.2667H53.2668V9.93332Z" fill="#03274C"/>
<path d="M56.6001 9.93332H53.2668V13.2667H56.6001V9.93332Z" fill="#03274C"/>
<path d="M59.9334 9.93332H56.6001V13.2667H59.9334V9.93332Z" fill="#03274C"/>
<path d="M66.5998 9.93332H63.2665V13.2667H66.5998V9.93332Z" fill="#03274C"/>
<path d="M73.2665 9.93332H69.9332V13.2667H73.2665V9.93332Z" fill="#03274C"/>
<path d="M76.6002 9.93332H73.2668V13.2667H76.6002V9.93332Z" fill="#03274C"/>
<path d="M36.6001 13.2667H33.2667V16.6H36.6001V13.2667Z" fill="#03274C"/>
<path d="M46.6001 13.2667H43.2668V16.6H46.6001V13.2667Z" fill="#03274C"/>
<path d="M49.9334 13.2667H46.6001V16.6H49.9334V13.2667Z" fill="#03274C"/>
<path d="M53.2668 13.2667H49.9334V16.6H53.2668V13.2667Z" fill="#03274C"/>
<path d="M56.6001 13.2667H53.2668V16.6H56.6001V13.2667Z" fill="#03274C"/>
<path d="M73.2665 13.2667H69.9332V16.6H73.2665V13.2667Z" fill="#03274C"/>
<path d="M43.2667 16.6H39.9334V19.9333H43.2667V16.6Z" fill="#03274C"/>
<path d="M46.6001 16.6H43.2668V19.9333H46.6001V16.6Z" fill="#03274C"/>
<path d="M56.6001 16.6H53.2668V19.9333H56.6001V16.6Z" fill="#03274C"/>
<path d="M59.9334 16.6H56.6001V19.9333H59.9334V16.6Z" fill="#03274C"/>
<path d="M66.5998 16.6H63.2665V19.9333H66.5998V16.6Z" fill="#03274C"/>
<path d="M69.9335 16.6H66.6002V19.9333H69.9335V16.6Z" fill="#03274C"/>
<path d="M36.6001 19.9333H33.2667V23.2667H36.6001V19.9333Z" fill="#03274C"/>
<path d="M39.9334 19.9333H36.6001V23.2667H39.9334V19.9333Z" fill="#03274C"/>
<path d="M43.2667 19.9333H39.9334V23.2667H43.2667V19.9333Z" fill="#03274C"/>
<path d="M49.9334 19.9333H46.6001V23.2667H49.9334V19.9333Z" fill="#03274C"/>
<path d="M53.2668 19.9333H49.9334V23.2667H53.2668V19.9333Z" fill="#03274C"/>
<path d="M59.9334 19.9333H56.6001V23.2667H59.9334V19.9333Z" fill="#03274C"/>
<path d="M66.5998 19.9333H63.2665V23.2667H66.5998V19.9333Z" fill="#03274C"/>
<path d="M69.9335 19.9333H66.6002V23.2667H69.9335V19.9333Z" fill="#03274C"/>
<path d="M73.2665 19.9333H69.9332V23.2667H73.2665V19.9333Z" fill="#03274C"/>
<path d="M39.9334 23.2667H36.6001V26.6H39.9334V23.2667Z" fill="#03274C"/>
<path d="M49.9334 23.2667H46.6001V26.6H49.9334V23.2667Z" fill="#03274C"/>
<path d="M53.2668 23.2667H49.9334V26.6H53.2668V23.2667Z" fill="#03274C"/>
<path d="M56.6001 23.2667H53.2668V26.6H56.6001V23.2667Z" fill="#03274C"/>
<path d="M66.5998 23.2667H63.2665V26.6H66.5998V23.2667Z" fill="#03274C"/>
<path d="M76.6002 23.2667H73.2668V26.6H76.6002V23.2667Z" fill="#03274C"/>
<path d="M36.6001 26.6H33.2667V29.9334H36.6001V26.6Z" fill="#03274C"/>
<path d="M43.2667 26.6H39.9334V29.9334H43.2667V26.6Z" fill="#03274C"/>
<path d="M49.9334 26.6H46.6001V29.9334H49.9334V26.6Z" fill="#03274C"/>
<path d="M56.6001 26.6H53.2668V29.9334H56.6001V26.6Z" fill="#03274C"/>
<path d="M63.2668 26.6H59.9335V29.9334H63.2668V26.6Z" fill="#03274C"/>
<path d="M69.9335 26.6H66.6002V29.9334H69.9335V26.6Z" fill="#03274C"/>
<path d="M76.6002 26.6H73.2668V29.9334H76.6002V26.6Z" fill="#03274C"/>
<path d="M39.9334 29.9334H36.6001V33.2667H39.9334V29.9334Z" fill="#03274C"/>
<path d="M46.6001 29.9334H43.2668V33.2667H46.6001V29.9334Z" fill="#03274C"/>
<path d="M49.9334 29.9334H46.6001V33.2667H49.9334V29.9334Z" fill="#03274C"/>
<path d="M56.6001 29.9334H53.2668V33.2667H56.6001V29.9334Z" fill="#03274C"/>
<path d="M9.93331 33.2667H6.59998V36.6001H9.93331V33.2667Z" fill="#03274C"/>
<path d="M19.9333 33.2667H16.6V36.6001H19.9333V33.2667Z" fill="#03274C"/>
<path d="M23.2667 33.2667H19.9333V36.6001H23.2667V33.2667Z" fill="#03274C"/>
<path d="M26.6 33.2667H23.2667V36.6001H26.6V33.2667Z" fill="#03274C"/>
<path d="M29.9334 33.2667H26.6V36.6001H29.9334V33.2667Z" fill="#03274C"/>
<path d="M33.2667 33.2667H29.9334V36.6001H33.2667V33.2667Z" fill="#03274C"/>
<path d="M36.6001 33.2667H33.2667V36.6001H36.6001V33.2667Z" fill="#03274C"/>
<path d="M39.9334 33.2667H36.6001V36.6001H39.9334V33.2667Z" fill="#03274C"/>
<path d="M49.9334 33.2667H46.6001V36.6001H49.9334V33.2667Z" fill="#03274C"/>
<path d="M53.2668 33.2667H49.9334V36.6001H53.2668V33.2667Z" fill="#03274C"/>
<path d="M56.6001 33.2667H53.2668V36.6001H56.6001V33.2667Z" fill="#03274C"/>
<path d="M59.9334 33.2667H56.6001V36.6001H59.9334V33.2667Z" fill="#03274C"/>
<path d="M63.2668 33.2667H59.9335V36.6001H63.2668V33.2667Z" fill="#03274C"/>
<path d="M66.5998 33.2667H63.2665V36.6001H66.5998V33.2667Z" fill="#03274C"/>
<path d="M69.9335 33.2667H66.6002V36.6001H69.9335V33.2667Z" fill="#03274C"/>
<path d="M79.9332 33.2667H76.5999V36.6001H79.9332V33.2667Z" fill="#03274C"/>
<path d="M89.9332 33.2667H86.5999V36.6001H89.9332V33.2667Z" fill="#03274C"/>
<path d="M96.5999 33.2667H93.2666V36.6001H96.5999V33.2667Z" fill="#03274C"/>
<path d="M99.9333 33.2667H96.5999V36.6001H99.9333V33.2667Z" fill="#03274C"/>
<path d="M103.267 33.2667H99.9333V36.6001H103.267V33.2667Z" fill="#03274C"/>
<path d="M9.93331 36.6001H6.59998V39.9334H9.93331V36.6001Z" fill="#03274C"/>
<path d="M19.9333 36.6001H16.6V39.9334H19.9333V36.6001Z" fill="#03274C"/>
<path d="M23.2667 36.6001H19.9333V39.9334H23.2667V36.6001Z" fill="#03274C"/>
<path d="M26.6 36.6001H23.2667V39.9334H26.6V36.6001Z" fill="#03274C"/>
<path d="M36.6001 36.6001H33.2667V39.9334H36.6001V36.6001Z" fill="#03274C"/>
<path d="M46.6001 36.6001H43.2668V39.9334H46.6001V36.6001Z" fill="#03274C"/>
<path d="M56.6001 36.6001H53.2668V39.9334H56.6001V36.6001Z" fill="#03274C"/>
<path d="M73.2665 36.6001H69.9332V39.9334H73.2665V36.6001Z" fill="#03274C"/>
<path d="M76.6002 36.6001H73.2668V39.9334H76.6002V36.6001Z" fill="#03274C"/>
<path d="M89.9332 36.6001H86.5999V39.9334H89.9332V36.6001Z" fill="#03274C"/>
<path d="M96.5999 36.6001H93.2666V39.9334H96.5999V36.6001Z" fill="#03274C"/>
<path d="M99.9333 36.6001H96.5999V39.9334H99.9333V36.6001Z" fill="#03274C"/>
<path d="M23.2667 39.9333H19.9333V43.2667H23.2667V39.9333Z" fill="#03274C"/>
<path d="M29.9334 39.9333H26.6V43.2667H29.9334V39.9333Z" fill="#03274C"/>
<path d="M36.6001 39.9333H33.2667V43.2667H36.6001V39.9333Z" fill="#03274C"/>
<path d="M43.2667 39.9333H39.9334V43.2667H43.2667V39.9333Z" fill="#03274C"/>
<path d="M56.6001 39.9333H53.2668V43.2667H56.6001V39.9333Z" fill="#03274C"/>
<path d="M66.5998 39.9333H63.2665V43.2667H66.5998V39.9333Z" fill="#03274C"/>
<path d="M83.2668 39.9333H79.9335V43.2667H83.2668V39.9333Z" fill="#03274C"/>
<path d="M89.9332 39.9333H86.5999V43.2667H89.9332V39.9333Z" fill="#03274C"/>
<path d="M96.5999 39.9333H93.2666V43.2667H96.5999V39.9333Z" fill="#03274C"/>
<path d="M9.93331 43.2667H6.59998V46.6H9.93331V43.2667Z" fill="#03274C"/>
<path d="M13.2667 43.2667H9.93332V46.6H13.2667V43.2667Z" fill="#03274C"/>
<path d="M19.9333 43.2667H16.6V46.6H19.9333V43.2667Z" fill="#03274C"/>
<path d="M43.2667 43.2667H39.9334V46.6H43.2667V43.2667Z" fill="#03274C"/>
<path d="M46.6001 43.2667H43.2668V46.6H46.6001V43.2667Z" fill="#03274C"/>
<path d="M49.9334 43.2667H46.6001V46.6H49.9334V43.2667Z" fill="#03274C"/>
<path d="M56.6001 43.2667H53.2668V46.6H56.6001V43.2667Z" fill="#03274C"/>
<path d="M59.9334 43.2667H56.6001V46.6H59.9334V43.2667Z" fill="#03274C"/>
<path d="M66.5998 43.2667H63.2665V46.6H66.5998V43.2667Z" fill="#03274C"/>
<path d="M69.9335 43.2667H66.6002V46.6H69.9335V43.2667Z" fill="#03274C"/>
<path d="M89.9332 43.2667H86.5999V46.6H89.9332V43.2667Z" fill="#03274C"/>
<path d="M93.2666 43.2667H89.9332V46.6H93.2666V43.2667Z" fill="#03274C"/>
<path d="M103.267 43.2667H99.9333V46.6H103.267V43.2667Z" fill="#03274C"/>
<path d="M19.9333 46.6H16.6V49.9333H19.9333V46.6Z" fill="#03274C"/>
<path d="M23.2667 46.6H19.9333V49.9333H23.2667V46.6Z" fill="#03274C"/>
<path d="M29.9334 46.6H26.6V49.9333H29.9334V46.6Z" fill="#03274C"/>
<path d="M39.9334 46.6H36.6001V49.9333H39.9334V46.6Z" fill="#03274C"/>
<path d="M43.2667 46.6H39.9334V49.9333H43.2667V46.6Z" fill="#03274C"/>
<path d="M49.9334 46.6H46.6001V49.9333H49.9334V46.6Z" fill="#03274C"/>
<path d="M53.2668 46.6H49.9334V49.9333H53.2668V46.6Z" fill="#03274C"/>
<path d="M56.6001 46.6H53.2668V49.9333H56.6001V46.6Z" fill="#03274C"/>
<path d="M63.2668 46.6H59.9335V49.9333H63.2668V46.6Z" fill="#03274C"/>
<path d="M69.9335 46.6H66.6002V49.9333H69.9335V46.6Z" fill="#03274C"/>
<path d="M76.6002 46.6H73.2668V49.9333H76.6002V46.6Z" fill="#03274C"/>
<path d="M83.2668 46.6H79.9335V49.9333H83.2668V46.6Z" fill="#03274C"/>
<path d="M86.5999 46.6H83.2665V49.9333H86.5999V46.6Z" fill="#03274C"/>
<path d="M103.267 46.6H99.9333V49.9333H103.267V46.6Z" fill="#03274C"/>
<path d="M9.93331 49.9333H6.59998V53.2666H9.93331V49.9333Z" fill="#03274C"/>
<path d="M16.6 49.9333H13.2667V53.2666H16.6V49.9333Z" fill="#03274C"/>
<path d="M23.2667 49.9333H19.9333V53.2666H23.2667V49.9333Z" fill="#03274C"/>
<path d="M36.6001 49.9333H33.2667V53.2666H36.6001V49.9333Z" fill="#03274C"/>
<path d="M39.9334 49.9333H36.6001V53.2666H39.9334V49.9333Z" fill="#03274C"/>
<path d="M46.6001 49.9333H43.2668V53.2666H46.6001V49.9333Z" fill="#03274C"/>
<path d="M49.9334 49.9333H46.6001V53.2666H49.9334V49.9333Z" fill="#03274C"/>
<path d="M83.2668 49.9333H79.9335V53.2666H83.2668V49.9333Z" fill="#03274C"/>
<path d="M86.5999 49.9333H83.2665V53.2666H86.5999V49.9333Z" fill="#03274C"/>
<path d="M89.9332 49.9333H86.5999V53.2666H89.9332V49.9333Z" fill="#03274C"/>
<path d="M93.2666 49.9333H89.9332V53.2666H93.2666V49.9333Z" fill="#03274C"/>
<path d="M96.5999 49.9333H93.2666V53.2666H96.5999V49.9333Z" fill="#03274C"/>
<path d="M99.9333 49.9333H96.5999V53.2666H99.9333V49.9333Z" fill="#03274C"/>
<path d="M103.267 49.9333H99.9333V53.2666H103.267V49.9333Z" fill="#03274C"/>
<path d="M9.93331 53.2666H6.59998V56.6H9.93331V53.2666Z" fill="#03274C"/>
<path d="M29.9334 53.2666H26.6V56.6H29.9334V53.2666Z" fill="#03274C"/>
<path d="M39.9334 53.2666H36.6001V56.6H39.9334V53.2666Z" fill="#03274C"/>
<path d="M46.6001 53.2666H43.2668V56.6H46.6001V53.2666Z" fill="#03274C"/>
<path d="M49.9334 53.2666H46.6001V56.6H49.9334V53.2666Z" fill="#03274C"/>
<path d="M56.6001 53.2666H53.2668V56.6H56.6001V53.2666Z" fill="#03274C"/>
<path d="M59.9334 53.2666H56.6001V56.6H59.9334V53.2666Z" fill="#03274C"/>
<path d="M69.9335 53.2666H66.6002V56.6H69.9335V53.2666Z" fill="#03274C"/>
<path d="M73.2665 53.2666H69.9332V56.6H73.2665V53.2666Z" fill="#03274C"/>
<path d="M96.5999 53.2666H93.2666V56.6H96.5999V53.2666Z" fill="#03274C"/>
<path d="M103.267 53.2666H99.9333V56.6H103.267V53.2666Z" fill="#03274C"/>
<path d="M13.2667 56.6H9.93332V59.9333H13.2667V56.6Z" fill="#03274C"/>
<path d="M16.6 56.6H13.2667V59.9333H16.6V56.6Z" fill="#03274C"/>
<path d="M26.6 56.6H23.2667V59.9333H26.6V56.6Z" fill="#03274C"/>
<path d="M33.2667 56.6H29.9334V59.9333H33.2667V56.6Z" fill="#03274C"/>
<path d="M39.9334 56.6H36.6001V59.9333H39.9334V56.6Z" fill="#03274C"/>
<path d="M43.2667 56.6H39.9334V59.9333H43.2667V56.6Z" fill="#03274C"/>
<path d="M49.9334 56.6H46.6001V59.9333H49.9334V56.6Z" fill="#03274C"/>
<path d="M53.2668 56.6H49.9334V59.9333H53.2668V56.6Z" fill="#03274C"/>
<path d="M56.6001 56.6H53.2668V59.9333H56.6001V56.6Z" fill="#03274C"/>
<path d="M63.2668 56.6H59.9335V59.9333H63.2668V56.6Z" fill="#03274C"/>
<path d="M69.9335 56.6H66.6002V59.9333H69.9335V56.6Z" fill="#03274C"/>
<path d="M79.9332 56.6H76.5999V59.9333H79.9332V56.6Z" fill="#03274C"/>
<path d="M83.2668 56.6H79.9335V59.9333H83.2668V56.6Z" fill="#03274C"/>
<path d="M86.5999 56.6H83.2665V59.9333H86.5999V56.6Z" fill="#03274C"/>
<path d="M96.5999 56.6H93.2666V59.9333H96.5999V56.6Z" fill="#03274C"/>
<path d="M103.267 56.6H99.9333V59.9333H103.267V56.6Z" fill="#03274C"/>
<path d="M9.93331 59.9333H6.59998V63.2666H9.93331V59.9333Z" fill="#03274C"/>
<path d="M19.9333 59.9333H16.6V63.2666H19.9333V59.9333Z" fill="#03274C"/>
<path d="M23.2667 59.9333H19.9333V63.2666H23.2667V59.9333Z" fill="#03274C"/>
<path d="M29.9334 59.9333H26.6V63.2666H29.9334V59.9333Z" fill="#03274C"/>
<path d="M33.2667 59.9333H29.9334V63.2666H33.2667V59.9333Z" fill="#03274C"/>
<path d="M43.2667 59.9333H39.9334V63.2666H43.2667V59.9333Z" fill="#03274C"/>
<path d="M46.6001 59.9333H43.2668V63.2666H46.6001V59.9333Z" fill="#03274C"/>
<path d="M49.9334 59.9333H46.6001V63.2666H49.9334V59.9333Z" fill="#03274C"/>
<path d="M63.2668 59.9333H59.9335V63.2666H63.2668V59.9333Z" fill="#03274C"/>
<path d="M86.5999 59.9333H83.2665V63.2666H86.5999V59.9333Z" fill="#03274C"/>
<path d="M93.2666 59.9333H89.9332V63.2666H93.2666V59.9333Z" fill="#03274C"/>
<path d="M9.93331 63.2667H6.59998V66.6H9.93331V63.2667Z" fill="#03274C"/>
<path d="M13.2667 63.2667H9.93332V66.6H13.2667V63.2667Z" fill="#03274C"/>
<path d="M23.2667 63.2667H19.9333V66.6H23.2667V63.2667Z" fill="#03274C"/>
<path d="M26.6 63.2667H23.2667V66.6H26.6V63.2667Z" fill="#03274C"/>
<path d="M36.6001 63.2667H33.2667V66.6H36.6001V63.2667Z" fill="#03274C"/>
<path d="M59.9334 63.2667H56.6001V66.6H59.9334V63.2667Z" fill="#03274C"/>
<path d="M66.5998 63.2667H63.2665V66.6H66.5998V63.2667Z" fill="#03274C"/>
<path d="M73.2665 63.2667H69.9332V66.6H73.2665V63.2667Z" fill="#03274C"/>
<path d="M76.6002 63.2667H73.2668V66.6H76.6002V63.2667Z" fill="#03274C"/>
<path d="M89.9332 63.2667H86.5999V66.6H89.9332V63.2667Z" fill="#03274C"/>
<path d="M96.5999 63.2667H93.2666V66.6H96.5999V63.2667Z" fill="#03274C"/>
<path d="M99.9333 63.2667H96.5999V66.6H99.9333V63.2667Z" fill="#03274C"/>
<path d="M9.93331 66.6H6.59998V69.9333H9.93331V66.6Z" fill="#03274C"/>
<path d="M13.2667 66.6H9.93332V69.9333H13.2667V66.6Z" fill="#03274C"/>
<path d="M26.6 66.6H23.2667V69.9333H26.6V66.6Z" fill="#03274C"/>
<path d="M29.9334 66.6H26.6V69.9333H29.9334V66.6Z" fill="#03274C"/>
<path d="M36.6001 66.6H33.2667V69.9333H36.6001V66.6Z" fill="#03274C"/>
<path d="M43.2667 66.6H39.9334V69.9333H43.2667V66.6Z" fill="#03274C"/>
<path d="M46.6001 66.6H43.2668V69.9333H46.6001V66.6Z" fill="#03274C"/>
<path d="M53.2668 66.6H49.9334V69.9333H53.2668V66.6Z" fill="#03274C"/>
<path d="M56.6001 66.6H53.2668V69.9333H56.6001V66.6Z" fill="#03274C"/>
<path d="M59.9334 66.6H56.6001V69.9333H59.9334V66.6Z" fill="#03274C"/>
<path d="M63.2668 66.6H59.9335V69.9333H63.2668V66.6Z" fill="#03274C"/>
<path d="M66.5998 66.6H63.2665V69.9333H66.5998V66.6Z" fill="#03274C"/>
<path d="M73.2665 66.6H69.9332V69.9333H73.2665V66.6Z" fill="#03274C"/>
<path d="M83.2668 66.6H79.9335V69.9333H83.2668V66.6Z" fill="#03274C"/>
<path d="M89.9332 66.6H86.5999V69.9333H89.9332V66.6Z" fill="#03274C"/>
<path d="M93.2666 66.6H89.9332V69.9333H93.2666V66.6Z" fill="#03274C"/>
<path d="M103.267 66.6H99.9333V69.9333H103.267V66.6Z" fill="#03274C"/>
<path d="M9.93331 69.9333H6.59998V73.2667H9.93331V69.9333Z" fill="#03274C"/>
<path d="M13.2667 69.9333H9.93332V73.2667H13.2667V69.9333Z" fill="#03274C"/>
<path d="M16.6 69.9333H13.2667V73.2667H16.6V69.9333Z" fill="#03274C"/>
<path d="M23.2667 69.9333H19.9333V73.2667H23.2667V69.9333Z" fill="#03274C"/>
<path d="M26.6 69.9333H23.2667V73.2667H26.6V69.9333Z" fill="#03274C"/>
<path d="M36.6001 69.9333H33.2667V73.2667H36.6001V69.9333Z" fill="#03274C"/>
<path d="M39.9334 69.9333H36.6001V73.2667H39.9334V69.9333Z" fill="#03274C"/>
<path d="M43.2667 69.9333H39.9334V73.2667H43.2667V69.9333Z" fill="#03274C"/>
<path d="M49.9334 69.9333H46.6001V73.2667H49.9334V69.9333Z" fill="#03274C"/>
<path d="M53.2668 69.9333H49.9334V73.2667H53.2668V69.9333Z" fill="#03274C"/>
<path d="M63.2668 69.9333H59.9335V73.2667H63.2668V69.9333Z" fill="#03274C"/>
<path d="M79.9332 69.9333H76.5999V73.2667H79.9332V69.9333Z" fill="#03274C"/>
<path d="M93.2666 69.9333H89.9332V73.2667H93.2666V69.9333Z" fill="#03274C"/>
<path d="M96.5999 69.9333H93.2666V73.2667H96.5999V69.9333Z" fill="#03274C"/>
<path d="M9.93331 73.2667H6.59998V76.6H9.93331V73.2667Z" fill="#03274C"/>
<path d="M13.2667 73.2667H9.93332V76.6H13.2667V73.2667Z" fill="#03274C"/>
<path d="M19.9333 73.2667H16.6V76.6H19.9333V73.2667Z" fill="#03274C"/>
<path d="M23.2667 73.2667H19.9333V76.6H23.2667V73.2667Z" fill="#03274C"/>
<path d="M29.9334 73.2667H26.6V76.6H29.9334V73.2667Z" fill="#03274C"/>
<path d="M36.6001 73.2667H33.2667V76.6H36.6001V73.2667Z" fill="#03274C"/>
<path d="M53.2668 73.2667H49.9334V76.6H53.2668V73.2667Z" fill="#03274C"/>
<path d="M59.9334 73.2667H56.6001V76.6H59.9334V73.2667Z" fill="#03274C"/>
<path d="M66.5998 73.2667H63.2665V76.6H66.5998V73.2667Z" fill="#03274C"/>
<path d="M76.6002 73.2667H73.2668V76.6H76.6002V73.2667Z" fill="#03274C"/>
<path d="M79.9332 73.2667H76.5999V76.6H79.9332V73.2667Z" fill="#03274C"/>
<path d="M83.2668 73.2667H79.9335V76.6H83.2668V73.2667Z" fill="#03274C"/>
<path d="M86.5999 73.2667H83.2665V76.6H86.5999V73.2667Z" fill="#03274C"/>
<path d="M89.9332 73.2667H86.5999V76.6H89.9332V73.2667Z" fill="#03274C"/>
<path d="M93.2666 73.2667H89.9332V76.6H93.2666V73.2667Z" fill="#03274C"/>
<path d="M96.5999 73.2667H93.2666V76.6H96.5999V73.2667Z" fill="#03274C"/>
<path d="M99.9333 73.2667H96.5999V76.6H99.9333V73.2667Z" fill="#03274C"/>
<path d="M36.6001 76.6H33.2667V79.9333H36.6001V76.6Z" fill="#03274C"/>
<path d="M39.9334 76.6H36.6001V79.9333H39.9334V76.6Z" fill="#03274C"/>
<path d="M53.2668 76.6H49.9334V79.9333H53.2668V76.6Z" fill="#03274C"/>
<path d="M59.9334 76.6H56.6001V79.9333H59.9334V76.6Z" fill="#03274C"/>
<path d="M66.5998 76.6H63.2665V79.9333H66.5998V76.6Z" fill="#03274C"/>
<path d="M69.9335 76.6H66.6002V79.9333H69.9335V76.6Z" fill="#03274C"/>
<path d="M76.6002 76.6H73.2668V79.9333H76.6002V76.6Z" fill="#03274C"/>
<path d="M89.9332 76.6H86.5999V79.9333H89.9332V76.6Z" fill="#03274C"/>
<path d="M93.2666 76.6H89.9332V79.9333H93.2666V76.6Z" fill="#03274C"/>
<path d="M36.6001 79.9333H33.2667V83.2667H36.6001V79.9333Z" fill="#03274C"/>
<path d="M43.2667 79.9333H39.9334V83.2667H43.2667V79.9333Z" fill="#03274C"/>
<path d="M46.6001 79.9333H43.2668V83.2667H46.6001V79.9333Z" fill="#03274C"/>
<path d="M53.2668 79.9333H49.9334V83.2667H53.2668V79.9333Z" fill="#03274C"/>
<path d="M59.9334 79.9333H56.6001V83.2667H59.9334V79.9333Z" fill="#03274C"/>
<path d="M63.2668 79.9333H59.9335V83.2667H63.2668V79.9333Z" fill="#03274C"/>
<path d="M73.2665 79.9333H69.9332V83.2667H73.2665V79.9333Z" fill="#03274C"/>
<path d="M76.6002 79.9333H73.2668V83.2667H76.6002V79.9333Z" fill="#03274C"/>
<path d="M83.2668 79.9333H79.9335V83.2667H83.2668V79.9333Z" fill="#03274C"/>
<path d="M89.9332 79.9333H86.5999V83.2667H89.9332V79.9333Z" fill="#03274C"/>
<path d="M93.2666 79.9333H89.9332V83.2667H93.2666V79.9333Z" fill="#03274C"/>
<path d="M36.6001 83.2667H33.2667V86.6H36.6001V83.2667Z" fill="#03274C"/>
<path d="M46.6001 83.2667H43.2668V86.6H46.6001V83.2667Z" fill="#03274C"/>
<path d="M53.2668 83.2667H49.9334V86.6H53.2668V83.2667Z" fill="#03274C"/>
<path d="M63.2668 83.2667H59.9335V86.6H63.2668V83.2667Z" fill="#03274C"/>
<path d="M66.5998 83.2667H63.2665V86.6H66.5998V83.2667Z" fill="#03274C"/>
<path d="M69.9335 83.2667H66.6002V86.6H69.9335V83.2667Z" fill="#03274C"/>
<path d="M76.6002 83.2667H73.2668V86.6H76.6002V83.2667Z" fill="#03274C"/>
<path d="M89.9332 83.2667H86.5999V86.6H89.9332V83.2667Z" fill="#03274C"/>
<path d="M99.9333 83.2667H96.5999V86.6H99.9333V83.2667Z" fill="#03274C"/>
<path d="M103.267 83.2667H99.9333V86.6H103.267V83.2667Z" fill="#03274C"/>
<path d="M36.6001 86.6H33.2667V89.9333H36.6001V86.6Z" fill="#03274C"/>
<path d="M39.9334 86.6H36.6001V89.9333H39.9334V86.6Z" fill="#03274C"/>
<path d="M46.6001 86.6H43.2668V89.9333H46.6001V86.6Z" fill="#03274C"/>
<path d="M53.2668 86.6H49.9334V89.9333H53.2668V86.6Z" fill="#03274C"/>
<path d="M63.2668 86.6H59.9335V89.9333H63.2668V86.6Z" fill="#03274C"/>
<path d="M73.2665 86.6H69.9332V89.9333H73.2665V86.6Z" fill="#03274C"/>
<path d="M76.6002 86.6H73.2668V89.9333H76.6002V86.6Z" fill="#03274C"/>
<path d="M79.9332 86.6H76.5999V89.9333H79.9332V86.6Z" fill="#03274C"/>
<path d="M83.2668 86.6H79.9335V89.9333H83.2668V86.6Z" fill="#03274C"/>
<path d="M86.5999 86.6H83.2665V89.9333H86.5999V86.6Z" fill="#03274C"/>
<path d="M89.9332 86.6H86.5999V89.9333H89.9332V86.6Z" fill="#03274C"/>
<path d="M93.2666 86.6H89.9332V89.9333H93.2666V86.6Z" fill="#03274C"/>
<path d="M99.9333 86.6H96.5999V89.9333H99.9333V86.6Z" fill="#03274C"/>
<path d="M103.267 86.6H99.9333V89.9333H103.267V86.6Z" fill="#03274C"/>
<path d="M36.6001 89.9333H33.2667V93.2667H36.6001V89.9333Z" fill="#03274C"/>
<path d="M39.9334 89.9333H36.6001V93.2667H39.9334V89.9333Z" fill="#03274C"/>
<path d="M43.2667 89.9333H39.9334V93.2667H43.2667V89.9333Z" fill="#03274C"/>
<path d="M49.9334 89.9333H46.6001V93.2667H49.9334V89.9333Z" fill="#03274C"/>
<path d="M53.2668 89.9333H49.9334V93.2667H53.2668V89.9333Z" fill="#03274C"/>
<path d="M56.6001 89.9333H53.2668V93.2667H56.6001V89.9333Z" fill="#03274C"/>
<path d="M59.9334 89.9333H56.6001V93.2667H59.9334V89.9333Z" fill="#03274C"/>
<path d="M63.2668 89.9333H59.9335V93.2667H63.2668V89.9333Z" fill="#03274C"/>
<path d="M66.5998 89.9333H63.2665V93.2667H66.5998V89.9333Z" fill="#03274C"/>
<path d="M69.9335 89.9333H66.6002V93.2667H69.9335V89.9333Z" fill="#03274C"/>
<path d="M73.2665 89.9333H69.9332V93.2667H73.2665V89.9333Z" fill="#03274C"/>
<path d="M103.267 89.9333H99.9333V93.2667H103.267V89.9333Z" fill="#03274C"/>
<path d="M43.2667 93.2667H39.9334V96.6H43.2667V93.2667Z" fill="#03274C"/>
<path d="M49.9334 93.2667H46.6001V96.6H49.9334V93.2667Z" fill="#03274C"/>
<path d="M59.9334 93.2667H56.6001V96.6H59.9334V93.2667Z" fill="#03274C"/>
<path d="M69.9335 93.2667H66.6002V96.6H69.9335V93.2667Z" fill="#03274C"/>
<path d="M73.2665 93.2667H69.9332V96.6H73.2665V93.2667Z" fill="#03274C"/>
<path d="M79.9332 93.2667H76.5999V96.6H79.9332V93.2667Z" fill="#03274C"/>
<path d="M86.5999 93.2667H83.2665V96.6H86.5999V93.2667Z" fill="#03274C"/>
<path d="M89.9332 93.2667H86.5999V96.6H89.9332V93.2667Z" fill="#03274C"/>
<path d="M96.5999 93.2667H93.2666V96.6H96.5999V93.2667Z" fill="#03274C"/>
<path d="M99.9333 93.2667H96.5999V96.6H99.9333V93.2667Z" fill="#03274C"/>
<path d="M103.267 93.2667H99.9333V96.6H103.267V93.2667Z" fill="#03274C"/>
<path d="M49.9334 96.6H46.6001V99.9333H49.9334V96.6Z" fill="#03274C"/>
<path d="M56.6001 96.6H53.2668V99.9333H56.6001V96.6Z" fill="#03274C"/>
<path d="M59.9334 96.6H56.6001V99.9333H59.9334V96.6Z" fill="#03274C"/>
<path d="M63.2668 96.6H59.9335V99.9333H63.2668V96.6Z" fill="#03274C"/>
<path d="M73.2665 96.6H69.9332V99.9333H73.2665V96.6Z" fill="#03274C"/>
<path d="M76.6002 96.6H73.2668V99.9333H76.6002V96.6Z" fill="#03274C"/>
<path d="M79.9332 96.6H76.5999V99.9333H79.9332V96.6Z" fill="#03274C"/>
<path d="M89.9332 96.6H86.5999V99.9333H89.9332V96.6Z" fill="#03274C"/>
<path d="M93.2666 96.6H89.9332V99.9333H93.2666V96.6Z" fill="#03274C"/>
<path d="M96.5999 96.6H93.2666V99.9333H96.5999V96.6Z" fill="#03274C"/>
<path d="M103.267 96.6H99.9333V99.9333H103.267V96.6Z" fill="#03274C"/>
<path d="M36.6001 99.9333H33.2667V103.267H36.6001V99.9333Z" fill="#03274C"/>
<path d="M43.2667 99.9333H39.9334V103.267H43.2667V99.9333Z" fill="#03274C"/>
<path d="M53.2668 99.9333H49.9334V103.267H53.2668V99.9333Z" fill="#03274C"/>
<path d="M56.6001 99.9333H53.2668V103.267H56.6001V99.9333Z" fill="#03274C"/>
<path d="M59.9334 99.9333H56.6001V103.267H59.9334V99.9333Z" fill="#03274C"/>
<path d="M73.2665 99.9333H69.9332V103.267H73.2665V99.9333Z" fill="#03274C"/>
<path d="M76.6002 99.9333H73.2668V103.267H76.6002V99.9333Z" fill="#03274C"/>
<path d="M83.2668 99.9333H79.9335V103.267H83.2668V99.9333Z" fill="#03274C"/>
<path d="M26.4333 6.59998H10.1H6.59998V10.1V26.4333V29.9333H10.1H26.4333H29.9333V26.4333V10.1V6.59998H26.4333ZM26.4333 26.4333H10.1V10.1H26.4333V26.4333Z" fill="#03274C"/>
<path d="M99.7668 6.59998H83.4335H79.9335V10.1V26.4333V29.9333H83.4335H99.7668H103.267V26.4333V10.1V6.59998H99.7668ZM99.7668 26.4333H83.4335V10.1H99.7668V26.4333Z" fill="#03274C"/>
<path d="M26.4333 79.9333H10.1H6.59998V83.4333V99.7667V103.267H10.1H26.4333H29.9333V99.7667V83.4333V79.9333H26.4333ZM26.4333 99.7667H10.1V83.4333H26.4333V99.7667Z" fill="#03274C"/>
<path d="M23.2667 13.2667H13.2667V23.2667H23.2667V13.2667Z" fill="#03274C"/>
<path d="M96.5999 13.2667H86.5999V23.2667H96.5999V13.2667Z" fill="#03274C"/>
<path d="M23.2667 86.6H13.2667V96.6H23.2667V86.6Z" fill="#03274C"/>
<rect x="43.5" y="39.5" width="28" height="28" rx="7.5" fill="#03C302" stroke="white" stroke-width="3"/>
<path d="M57.4999 46C53.3656 46 49.9999 48.7488 49.9999 52.1269C49.9999 55.1525 52.6687 57.6875 56.2718 58.1694C56.5162 58.2213 56.8487 58.3319 56.9331 58.5406C57.0081 58.73 56.9824 59.0225 56.9568 59.22L56.8543 59.8612C56.8262 60.0506 56.7043 60.6069 57.5099 60.2669C58.3168 59.9281 61.8324 57.7019 63.4074 55.88C64.4849 54.6925 64.9999 53.4756 64.9999 52.1269C64.9999 48.7488 61.6343 46 57.4999 46ZM54.5643 54.1356H53.0731C52.8574 54.1356 52.6793 53.9562 52.6793 53.74V50.7394C52.6793 50.5225 52.8574 50.3431 53.0731 50.3431C53.2906 50.3431 53.4668 50.5225 53.4668 50.7394V53.3438H54.5643C54.7818 53.3438 54.9574 53.5219 54.9574 53.74C54.9574 53.9562 54.7812 54.1356 54.5643 54.1356V54.1356ZM56.1056 53.74C56.1056 53.9562 55.9293 54.1356 55.7112 54.1356C55.4956 54.1356 55.3193 53.9562 55.3193 53.74V50.7394C55.3193 50.5225 55.4956 50.3431 55.7131 50.3431C55.9293 50.3431 56.1056 50.5225 56.1056 50.7394V53.74ZM59.6937 53.74C59.6937 53.91 59.5849 54.0606 59.4237 54.115C59.3837 54.1281 59.3406 54.1344 59.2993 54.1344C59.1674 54.1344 59.0549 54.0775 58.9806 53.9769L57.4537 51.8906V53.7394C57.4537 53.9556 57.2793 54.135 57.0593 54.135C56.8431 54.135 56.6681 53.9556 56.6681 53.7394V50.7394C56.6681 50.5694 56.7762 50.4188 56.9368 50.365C56.9743 50.3506 57.0218 50.3444 57.0581 50.3444C57.1799 50.3444 57.2924 50.41 57.3674 50.5044L58.9062 52.5987V50.7394C58.9062 50.5225 59.0824 50.3431 59.2999 50.3431C59.5156 50.3431 59.6937 50.5225 59.6937 50.7394V53.74ZM62.1031 51.8431C62.3212 51.8431 62.4968 52.0225 62.4968 52.24C62.4968 52.4569 62.3212 52.6363 62.1031 52.6363H61.0062V53.3438H62.1031C62.3212 53.3438 62.4968 53.5219 62.4968 53.74C62.4968 53.9562 62.3212 54.1356 62.1031 54.1356H60.6118C60.3962 54.1356 60.2199 53.9562 60.2199 53.74V50.7394C60.2199 50.5225 60.3962 50.3431 60.6137 50.3431H62.1049C62.3212 50.3431 62.4968 50.5225 62.4968 50.7394C62.4968 50.9588 62.3212 51.1356 62.1031 51.1356H61.0062V51.8431H62.1031Z" fill="white"/>
</svg>
