<svg width="30" height="30" viewBox="0 0 30 30" fill="none" xmlns="http://www.w3.org/2000/svg">
<circle cx="15" cy="15" r="14.5" fill="#335067" stroke="white"/>
<path d="M15.5 7C10.8144 7 7 10.1153 7 13.9438C7 17.3728 10.0246 20.2458 14.1081 20.792C14.3851 20.8508 14.7619 20.9761 14.8575 21.2127C14.9425 21.4273 14.9135 21.7588 14.8845 21.9827L14.7683 22.7094C14.7364 22.924 14.5983 23.5545 15.5113 23.1691C16.4258 22.7852 20.4102 20.2621 22.1952 18.1973C23.4163 16.8515 24 15.4724 24 13.9438C24 10.1153 20.1856 7 15.5 7ZM12.173 16.2204H10.4829C10.2385 16.2204 10.0366 16.0171 10.0366 15.772V12.3713C10.0366 12.1255 10.2385 11.9222 10.4829 11.9222C10.7294 11.9222 10.9291 12.1255 10.9291 12.3713V15.3229H12.173C12.4195 15.3229 12.6185 15.5248 12.6185 15.772C12.6185 16.0171 12.4188 16.2204 12.173 16.2204ZM13.9197 15.772C13.9197 16.0171 13.72 16.2204 13.4727 16.2204C13.2284 16.2204 13.0286 16.0171 13.0286 15.772V12.3713C13.0286 12.1255 13.2284 11.9222 13.4749 11.9222C13.72 11.9222 13.9197 12.1255 13.9197 12.3713V15.772ZM17.9862 15.772C17.9862 15.9647 17.863 16.1354 17.6803 16.197C17.6349 16.2119 17.586 16.219 17.5393 16.219C17.3898 16.219 17.2623 16.1545 17.178 16.0405L15.4476 13.676V15.7713C15.4476 16.0164 15.25 16.2197 15.0006 16.2197C14.7555 16.2197 14.5572 16.0164 14.5572 15.7713V12.3713C14.5572 12.1786 14.6797 12.0079 14.8618 11.947C14.9043 11.9307 14.9581 11.9236 14.9992 11.9236C15.1373 11.9236 15.2648 11.998 15.3498 12.105L17.0938 14.4786V12.3713C17.0938 12.1255 17.2935 11.9222 17.54 11.9222C17.7844 11.9222 17.9862 12.1255 17.9862 12.3713V15.772ZM20.7169 13.6222C20.9641 13.6222 21.1631 13.8255 21.1631 14.072C21.1631 14.3178 20.9641 14.5211 20.7169 14.5211H19.4738V15.3229H20.7169C20.9641 15.3229 21.1631 15.5248 21.1631 15.772C21.1631 16.0171 20.9641 16.2204 20.7169 16.2204H19.0268C18.7824 16.2204 18.5827 16.0171 18.5827 15.772V12.3713C18.5827 12.1255 18.7824 11.9222 19.0289 11.9222H20.719C20.9641 11.9222 21.1631 12.1255 21.1631 12.3713C21.1631 12.6199 20.9641 12.8204 20.7169 12.8204H19.4738V13.6222H20.7169Z" fill="white"/>
</svg>
