<svg width="30" height="18" viewBox="0 0 30 18" fill="none" xmlns="http://www.w3.org/2000/svg">
<g clip-path="url(#clip0)">
<path d="M29.9956 0.00442505H0.00439453V17.9957H29.9956V0.00442505Z" fill="white" stroke="#000102" stroke-width="0.25" stroke-miterlimit="10"/>
<path d="M29.9956 0.00442505H0.00439453V1.29357H29.9956V0.00442505Z" fill="#E60000"/>
<path d="M29.9956 2.5827H0.00439453V3.87185H29.9956V2.5827Z" fill="#E60000"/>
<path d="M29.9956 5.16098H0.00439453V6.45013H29.9956V5.16098Z" fill="#E60000"/>
<path d="M29.9956 7.71304H0.00439453V9.00218H29.9956V7.71304Z" fill="#E60000"/>
<path d="M29.9956 10.2739H0.00439453V11.563H29.9956V10.2739Z" fill="#E60000"/>
<path d="M29.9956 12.8522H0.00439453V14.1413H29.9956V12.8522Z" fill="#E60000"/>
<path d="M29.9956 15.4305H0.00439453V16.7196H29.9956V15.4305Z" fill="#E60000"/>
<path d="M15 0.00442505H0.00439453V10.2739H15V0.00442505Z" fill="#0400BA"/>
<path d="M6.89628 2.8099C6.89628 2.8099 5.3011 1.43335 3.21238 2.6351C3.21238 2.6351 1.80669 3.36052 1.70093 5.29642C1.70093 5.29642 1.70093 7.17552 3.37102 8.09322C3.37102 8.09322 5.11162 9.14639 6.88747 7.82665C6.88747 7.82665 6.53935 7.99271 6.27936 8.04515C5.33635 8.23306 4.65333 8.03204 4.01438 7.62126C3.32255 7.17989 2.75851 6.20101 2.78935 5.30079C2.78935 5.30079 2.73207 3.99417 3.87337 3.10706C4.433 2.6788 5.40245 2.18062 6.89628 2.8099Z" fill="#FFFF00"/>
<path d="M9.22724 4.29133L10.0292 3.18135L9.65468 4.49234L10.8621 3.83685L9.94992 4.85942L11.3248 4.78513L10.0601 5.31827L11.3292 5.84267L9.95432 5.77275L10.8709 6.79533L9.65908 6.1442L10.038 7.4552L9.23605 6.34522L9.0025 7.69118L8.76014 6.34959L7.96254 7.45957L8.3327 6.1442L7.1297 6.80407L8.03746 5.78149L6.6626 5.85141L7.9317 5.32264L6.6626 4.79824L8.03746 4.86379L7.12088 3.84559L8.32829 4.49671L7.95373 3.18572L8.75573 4.29133L8.98928 2.94974L9.22724 4.29133Z" fill="#FFFF00"/>
</g>
<defs>
<clipPath id="clip0">
<rect width="30" height="18" fill="white"/>
</clipPath>
</defs>
</svg>
