<svg width="30" height="18" viewBox="0 0 30 18" fill="none" xmlns="http://www.w3.org/2000/svg">
<path d="M30 0H0V18H30V0Z" fill="#00008F"/>
<path d="M1.91302 8.9366H0V7.95288L14.1669 0H16.005V1.04056L1.91302 8.9366Z" fill="white"/>
<path d="M0 0H1.75874L16.005 7.93539V8.9366H14.1096L0 1.12801V0Z" fill="white"/>
<path d="M9.31836 3.76002V3.14355L14.8767 0H16.0051L9.31836 3.76002Z" fill="#FF0000"/>
<path d="M0.180664 8.93661L6.47511 5.41269H6.73518L6.67787 5.91548L1.27823 8.93661H0.180664Z" fill="#FF0000"/>
<path d="M9.6709 5.41269H10.8478L16.005 8.26768V8.93661L9.6709 5.41269Z" fill="#FF0000"/>
<path d="M6.4355 3.62011H5.19248L0 0.74326V0L6.4355 3.62011Z" fill="#FF0000"/>
<path d="M16.005 3.00803H0V5.98107H16.005V3.00803Z" fill="white"/>
<path d="M9.37567 0H6.73535V8.9366H9.37567V0Z" fill="white"/>
<path d="M16.005 3.62012H0V5.41268H16.005V3.62012Z" fill="#FF0000"/>
<path d="M8.80237 0H7.14941V0.139908V8.9366H8.80237V0.126791V0Z" fill="#FF0000"/>
<path d="M22.7446 13.0639L23.0046 13.8771L23.8642 13.8683L23.1633 14.3624L23.4366 15.1712L22.7446 14.6597L22.057 15.1712L22.3302 14.3624L21.6294 13.8683L22.4889 13.8771L22.7446 13.0639Z" fill="white"/>
<path d="M22.7447 13.3568L22.9387 13.9689L23.5867 13.9602L23.0577 14.3318L23.2649 14.9395L22.7447 14.5591L22.229 14.9395L22.4318 14.3318L21.9072 13.9602L22.5552 13.9689L22.7447 13.3568Z" fill="#EE0D28"/>
<path d="M19.029 6.6412L19.267 7.38884L20.056 7.38009L19.4125 7.83479L19.6637 8.57368L19.029 8.10586L18.3986 8.57368L18.6499 7.83479L18.0063 7.38009L18.7954 7.38884L19.029 6.6412Z" fill="white"/>
<path d="M19.0292 6.91226L19.2099 7.47189L19.8006 7.46752L19.3157 7.80855L19.5052 8.3638L19.0292 8.01403L18.5575 8.3638L18.7471 7.80855L18.2622 7.46752L18.8529 7.47189L19.0292 6.91226Z" fill="#EE0D28"/>
<path d="M25.9362 6.00293L26.1346 6.63251L26.8002 6.62814L26.2536 7.00852L26.4696 7.63373L25.9362 7.24024L25.4029 7.63373L25.6144 7.00852L25.0723 6.62814L25.7379 6.63251L25.9362 6.00293Z" fill="white"/>
<path d="M25.9365 6.23026L26.082 6.70682L26.5845 6.69807L26.1746 6.98663L26.3377 7.45882L25.9365 7.16152L25.5354 7.45882L25.6941 6.98663L25.2842 6.69807L25.7867 6.70682L25.9365 6.23026Z" fill="#EE0D28"/>
<path d="M22.7448 2.7413L22.9828 3.48456L23.7718 3.47582L23.1283 3.93051L23.3795 4.6694L22.7448 4.20596L22.1145 4.6694L22.3657 3.93051L21.7222 3.47582L22.5112 3.48456L22.7448 2.7413Z" fill="white"/>
<path d="M22.745 3.00803L22.9213 3.57203L23.5163 3.56328L23.0315 3.90431L23.221 4.45957L22.745 4.1098L22.2689 4.45957L22.4585 3.90431L21.978 3.56328L22.5687 3.57203L22.745 3.00803Z" fill="#EE0D28"/>
</svg>
