<svg width="30" height="18" viewBox="0 0 30 18" fill="none" xmlns="http://www.w3.org/2000/svg">
<g clip-path="url(#clip0)">
<path d="M29.9868 0.00878906H0V18H29.9868V0.00878906Z" fill="#F00822"/>
<path d="M30 0L0 0.00873999L0.0220297 9.01966H30V0Z" fill="#0400BA"/>
<path d="M0 0.00878906L15.2533 9.01971L0 18V0.00878906Z" fill="#F7F7F7"/>
<path fill-rule="evenodd" clip-rule="evenodd" d="M2.04443 8.99782C2.05325 8.99345 2.05765 8.98909 2.06206 8.98472C2.12374 8.92354 2.18542 8.86672 2.2427 8.80554C2.25592 8.79243 2.26473 8.78807 2.28235 8.78807C2.38369 8.79681 2.48943 8.80118 2.59077 8.80992C2.67008 8.81429 2.74498 8.81865 2.82428 8.82302C2.92562 8.83176 3.02696 8.83613 3.12829 8.84487C3.2076 8.84924 3.2825 8.85361 3.36181 8.85798C3.46314 8.86672 3.56448 8.87109 3.67022 8.87983C3.74072 8.8842 3.81562 8.88857 3.88611 8.89294C3.89933 8.89294 3.90374 8.88857 3.90374 8.87983C3.90374 8.85361 3.90814 8.82739 3.91255 8.80554C3.91255 8.78806 3.90374 8.78807 3.89493 8.78807C3.83765 8.77933 3.78037 8.77496 3.7275 8.76622C3.60854 8.74874 3.48517 8.73562 3.36621 8.71814C3.22522 8.70066 3.08864 8.68318 2.94765 8.6657C2.81988 8.64822 2.69211 8.63074 2.56433 8.61327C2.52468 8.6089 2.48062 8.60452 2.44097 8.59578C2.43656 8.59578 2.42775 8.59578 2.42775 8.59141C2.42775 8.58704 2.43216 8.58267 2.43656 8.5783C2.48943 8.52586 2.5379 8.47779 2.59077 8.42535C2.59958 8.41661 2.60399 8.41662 2.6172 8.41662C2.72735 8.43846 2.8375 8.46031 2.94324 8.48216C3.26928 8.54771 3.59092 8.60889 3.91696 8.67444C3.93458 8.67881 3.93898 8.67445 3.94339 8.65697C3.98745 8.45595 4.06676 8.26803 4.17691 8.0976C4.18572 8.08449 4.1769 8.08012 4.16809 8.07138C3.8024 7.83103 3.44111 7.59068 3.07542 7.35033C3.0578 7.33722 3.04899 7.32411 3.04899 7.30226C3.04899 7.23671 3.04899 7.17116 3.04899 7.10561C3.04899 7.10124 3.04458 7.0925 3.05339 7.08813C3.0578 7.08376 3.0622 7.0925 3.06661 7.09687C3.34859 7.311 3.63498 7.5295 3.91696 7.74363C4.0227 7.82229 4.12844 7.90095 4.22978 7.98398C4.24299 7.99272 4.2474 7.99272 4.25621 7.97961C4.26943 7.95776 4.28705 7.94028 4.30468 7.9228C4.30908 7.91406 4.31349 7.90969 4.30468 7.90095C4.18131 7.79607 4.05795 7.68682 3.93458 7.58194C3.81562 7.47706 3.69666 7.37218 3.57329 7.2673C3.43671 7.14931 3.30012 7.02695 3.15913 6.90896C3.1371 6.88711 3.11067 6.86526 3.08864 6.84778C3.07983 6.83904 3.07542 6.83467 3.07542 6.82156C3.07542 6.72979 3.07542 6.64239 3.07542 6.55062C3.07542 6.53751 3.07983 6.53314 3.09305 6.53314C3.18557 6.53314 3.27369 6.53314 3.36621 6.53314C3.37943 6.53314 3.38824 6.53751 3.39265 6.54625C3.46314 6.62491 3.53364 6.70794 3.60413 6.7866C3.70106 6.89585 3.79799 7.0051 3.89493 7.11435C4.00948 7.24108 4.11963 7.36781 4.23418 7.49454C4.30908 7.57757 4.38398 7.6606 4.45888 7.748C4.4677 7.75674 4.4721 7.75674 4.47651 7.748C4.49413 7.73052 4.51176 7.71741 4.53379 7.7043C4.55141 7.69119 4.55141 7.69119 4.53819 7.66934C4.48973 7.60816 4.44126 7.54261 4.3928 7.48143C4.14606 7.16242 3.89933 6.84341 3.6526 6.5244C3.6526 6.52003 3.64819 6.52003 3.64819 6.51566C3.64379 6.50692 3.64379 6.50255 3.6526 6.50255C3.66582 6.50255 3.68344 6.50255 3.69666 6.50255C3.75394 6.50255 3.81121 6.50255 3.86408 6.50255C3.88171 6.50255 3.89052 6.50692 3.89933 6.52003C4.14166 6.88274 4.38398 7.24108 4.62631 7.60379C4.64393 7.63001 4.63953 7.62564 4.66596 7.61253C4.8378 7.50328 5.02284 7.42899 5.22111 7.38529C5.24314 7.38092 5.24314 7.38092 5.23873 7.35907C5.18146 7.07939 5.12859 6.79971 5.07131 6.5244C5.04047 6.37582 5.01403 6.22724 4.98319 6.07866C4.97878 6.06118 4.98319 6.05244 4.99641 6.0437C5.04487 5.99563 5.09334 5.94756 5.1418 5.89949C5.14621 5.89512 5.15062 5.88638 5.15502 5.89075C5.15943 5.89075 5.15943 5.89949 5.15943 5.90386C5.18586 6.10488 5.2123 6.3059 5.23873 6.50692C5.26958 6.7429 5.30042 6.97451 5.33126 7.21049C5.33567 7.25419 5.34448 7.30226 5.34888 7.34596C5.35329 7.36781 5.35329 7.36781 5.37532 7.36781C5.39735 7.36344 5.41938 7.36344 5.44141 7.36344C5.45463 7.36344 5.45903 7.35907 5.45903 7.34596C5.45022 7.23234 5.44141 7.12309 5.437 7.00947C5.4326 6.93081 5.42819 6.85215 5.42378 6.76912C5.41938 6.67298 5.41057 6.57247 5.40616 6.47633C5.40175 6.39767 5.39735 6.31901 5.39294 6.24472C5.38854 6.14421 5.37972 6.04807 5.37091 5.94756C5.36651 5.88201 5.3621 5.81646 5.35769 5.75091C5.35769 5.7378 5.3621 5.72906 5.37091 5.72469C5.4326 5.66351 5.49868 5.59796 5.56037 5.53678C5.56918 5.52804 5.57359 5.52367 5.5868 5.53241C5.65289 5.59796 5.71898 5.66351 5.78507 5.72906C5.78948 5.73343 5.79388 5.74217 5.79388 5.75091C5.78948 5.81646 5.78507 5.87764 5.78066 5.94319C5.77626 6.00874 5.77185 6.06992 5.76745 6.13547C5.75863 6.23598 5.75423 6.33649 5.74542 6.43263C5.74101 6.51129 5.73661 6.58995 5.7322 6.66861C5.72779 6.76912 5.71898 6.86526 5.71017 6.96577C5.70576 7.04443 5.70136 7.11872 5.69695 7.19738C5.69255 7.24545 5.69255 7.29352 5.68814 7.34159C5.68814 7.36344 5.68814 7.36344 5.71017 7.36781C5.7322 7.36781 5.75423 7.37218 5.77185 7.37218C5.78948 7.37655 5.79388 7.37218 5.79829 7.3547C5.8071 7.28041 5.81591 7.21049 5.82913 7.1362C5.84675 7.0051 5.86438 6.87837 5.882 6.74727C5.89962 6.59869 5.92165 6.45448 5.93928 6.3059C5.9569 6.18791 5.97012 6.06992 5.98774 5.95193C5.98774 5.93882 5.99215 5.92571 5.99215 5.90823C5.99215 5.90386 5.99215 5.89512 5.99656 5.89512C6.00096 5.89512 6.00537 5.89949 6.00537 5.90386C6.03621 5.93445 6.07146 5.96504 6.1023 6C6.11992 6.01748 6.13755 6.03496 6.15517 6.05244C6.16839 6.06118 6.16839 6.07429 6.16398 6.0874C6.13314 6.22724 6.1067 6.37145 6.08027 6.51129C6.02299 6.79971 5.96571 7.08376 5.90844 7.37218C5.90403 7.38966 5.90844 7.39403 5.92606 7.3984C6.12873 7.4421 6.31819 7.52076 6.49002 7.63001C6.50324 7.63875 6.50764 7.63438 6.51646 7.62127C6.63542 7.44647 6.74997 7.27167 6.86893 7.10124C6.9967 6.91333 7.12447 6.72105 7.25225 6.53314C7.26106 6.52003 7.26987 6.51566 7.28749 6.51566C7.35799 6.51566 7.42408 6.51566 7.49457 6.51566C7.49898 6.51566 7.50779 6.51129 7.5122 6.52003C7.5166 6.5244 7.50779 6.52877 7.50338 6.53314C7.29631 6.80408 7.08482 7.07065 6.87774 7.34159C6.78962 7.45521 6.7015 7.56883 6.61339 7.68682C6.60457 7.69993 6.60017 7.70867 6.61779 7.71741C6.63982 7.73052 6.65745 7.748 6.67507 7.76548C6.68388 7.77422 6.68829 7.76985 6.69269 7.76548C6.772 7.67371 6.85571 7.58194 6.93942 7.49017C7.04517 7.37218 7.15091 7.24982 7.25665 7.13183C7.37561 6.99636 7.49898 6.86089 7.61794 6.72105C7.662 6.66861 7.71046 6.61617 7.75452 6.56373C7.76333 6.55499 7.77215 6.55062 7.78536 6.55062C7.87348 6.55062 7.9616 6.55062 8.04972 6.55062C8.06734 6.55062 8.07175 6.55499 8.07175 6.57247C8.07175 6.65987 8.07175 6.74727 8.07175 6.83467C8.07175 6.84778 8.06734 6.85652 8.05853 6.86526C7.92195 6.98325 7.78536 7.10561 7.64437 7.2236C7.53423 7.31974 7.42408 7.41588 7.31393 7.51202C7.16413 7.64312 7.01873 7.76985 6.86893 7.90095C6.83809 7.92717 6.83809 7.92717 6.86452 7.96213C6.87334 7.97524 6.88655 7.98835 6.89537 8.00146C6.90418 8.01457 6.90858 8.0102 6.9218 8.00583C7.00551 7.94028 7.09363 7.87473 7.17735 7.80918C7.37561 7.65623 7.57829 7.50328 7.77655 7.3547C7.8823 7.27604 7.98363 7.19738 8.08937 7.11872C8.09378 7.11435 8.09819 7.10998 8.10259 7.10998C8.107 7.11435 8.107 7.11872 8.107 7.12309C8.107 7.19301 8.107 7.25856 8.107 7.32848C8.107 7.34596 8.10259 7.3547 8.08937 7.36344C7.87789 7.50328 7.6664 7.64312 7.45492 7.78296C7.30071 7.88784 7.1421 7.98835 6.98789 8.09323C6.97467 8.10197 6.97467 8.10634 6.98348 8.11945C7.09804 8.28988 7.17294 8.47342 7.217 8.67444C7.2214 8.69629 7.2214 8.69629 7.24784 8.69192C7.56507 8.63074 7.87789 8.5652 8.19512 8.50401C8.30967 8.48216 8.42422 8.46031 8.53878 8.43846C8.5564 8.43409 8.56962 8.43846 8.57843 8.45157C8.6269 8.49964 8.67096 8.54771 8.71942 8.59141C8.72383 8.59578 8.73264 8.60015 8.73264 8.60889C8.72823 8.61326 8.71942 8.61327 8.71502 8.61327C8.57843 8.63074 8.44185 8.64822 8.30526 8.6657C8.16427 8.68318 8.02769 8.70066 7.8867 8.71814C7.75893 8.73562 7.63116 8.7531 7.50338 8.77058C7.42408 8.77932 7.34918 8.79243 7.26987 8.80117C7.24343 8.80554 7.24343 8.80555 7.24784 8.83177C7.25225 8.85362 7.25225 8.87547 7.25225 8.89732C7.25225 8.91043 7.25665 8.91479 7.26987 8.91479C7.41967 8.90605 7.56947 8.89295 7.71927 8.88421C7.83823 8.87546 7.95279 8.87109 8.07175 8.86235C8.22155 8.85362 8.37135 8.84051 8.52556 8.83177C8.6269 8.8274 8.72383 8.81865 8.82516 8.81428C8.84279 8.81428 8.86482 8.81429 8.88244 8.80992C8.89125 8.80992 8.90006 8.81429 8.90888 8.81866C8.97056 8.88421 9.03665 8.94538 9.10274 9.01093C9.11155 9.01967 9.11155 9.02404 9.10274 9.03278C9.03665 9.09833 8.97056 9.16389 8.90888 9.22507C8.90006 9.23381 8.89125 9.23381 8.88244 9.23381C8.80314 9.22944 8.71942 9.22506 8.64012 9.21632C8.57403 9.21195 8.51234 9.20759 8.44625 9.20322C8.34492 9.19448 8.24358 9.19011 8.14665 9.18137C8.06734 9.177 7.98804 9.17263 7.91314 9.16826C7.8118 9.15952 7.71487 9.15515 7.61353 9.14641C7.53423 9.14204 7.45492 9.13767 7.37121 9.1333C7.34477 9.1333 7.31834 9.12892 7.28749 9.12892C7.26106 9.12455 7.25665 9.12893 7.25665 9.15514C7.25665 9.17263 7.25225 9.19448 7.25225 9.21196C7.24784 9.23381 7.24784 9.2338 7.27428 9.23817C7.34918 9.24691 7.42408 9.25566 7.49898 9.26877C7.61794 9.28625 7.7413 9.29936 7.86026 9.31683C8.01007 9.33432 8.15546 9.35617 8.30526 9.37365C8.42422 9.39113 8.54319 9.40424 8.66215 9.42172C8.68418 9.42609 8.71061 9.42609 8.73264 9.43046C8.73705 9.43046 8.74145 9.43045 8.74145 9.43482C8.74586 9.43919 8.73705 9.44357 8.73705 9.44357C8.68417 9.49601 8.6313 9.54845 8.57843 9.60089C8.56962 9.60963 8.56521 9.60963 8.5564 9.60526C8.31848 9.55719 8.08056 9.50912 7.84264 9.46542C7.64878 9.42609 7.45051 9.38675 7.25665 9.34742C7.24343 9.34305 7.23462 9.34743 7.23022 9.36491C7.18616 9.56593 7.10685 9.75384 6.9923 9.92864C6.98348 9.94612 6.9923 9.94612 7.00111 9.95486C7.23462 10.1122 7.47254 10.2651 7.70606 10.4224C7.83824 10.5098 7.97041 10.5972 8.10259 10.6846C8.11581 10.6934 8.12021 10.7021 8.12021 10.7152C8.12021 10.7852 8.12021 10.8507 8.12021 10.9206C8.12021 10.925 8.12462 10.9337 8.11581 10.9337C8.1114 10.9381 8.107 10.9294 8.10259 10.925C7.89992 10.772 7.69725 10.6191 7.49457 10.4661C7.30952 10.3263 7.12447 10.1865 6.93942 10.0423C6.9218 10.0291 6.9218 10.0291 6.90858 10.0466C6.89537 10.0641 6.87774 10.0816 6.86452 10.0991C6.85571 10.1078 6.85571 10.1165 6.86452 10.1253C6.93942 10.1865 7.00992 10.252 7.08041 10.3132C7.19937 10.4181 7.31834 10.523 7.4373 10.6235C7.56947 10.7371 7.69725 10.8507 7.82942 10.9643C7.90873 11.0342 7.98804 11.1042 8.06734 11.1697C8.08056 11.1785 8.08497 11.1916 8.08497 11.209C8.08497 11.2964 8.08497 11.3838 8.08497 11.4712C8.08497 11.4887 8.08056 11.4931 8.06294 11.4931C7.97482 11.4931 7.89111 11.4931 7.80299 11.4931C7.78536 11.4931 7.77655 11.4887 7.76333 11.4756C7.67081 11.3707 7.57388 11.2615 7.48135 11.1566C7.37561 11.0386 7.26987 10.9206 7.16413 10.7983C7.02314 10.6409 6.88655 10.4836 6.74556 10.3263C6.73235 10.3088 6.71472 10.2957 6.7015 10.2782C6.6971 10.2695 6.69269 10.2695 6.68388 10.2782C6.66185 10.2957 6.64423 10.3132 6.6222 10.3263C6.60898 10.335 6.61339 10.3394 6.61779 10.3525C6.67066 10.4224 6.72353 10.488 6.77641 10.5579C6.93061 10.7546 7.08482 10.9556 7.23903 11.1522C7.33155 11.2702 7.42408 11.3882 7.5122 11.5062C7.5166 11.5106 7.52101 11.5149 7.52101 11.5193C7.5166 11.5237 7.5122 11.5237 7.50779 11.5237C7.43729 11.5237 7.37121 11.5237 7.30071 11.5237C7.28749 11.5237 7.27428 11.5193 7.26987 11.5062C7.13769 11.3052 7.00111 11.1085 6.86893 10.9075C6.75878 10.7415 6.64863 10.5798 6.53848 10.4137C6.52967 10.4006 6.52527 10.3962 6.50764 10.4093C6.33581 10.5186 6.15076 10.5972 5.9525 10.6409C5.92606 10.6453 5.92606 10.6453 5.93047 10.6759C5.98774 10.9643 6.04502 11.2527 6.1067 11.5455C6.13314 11.681 6.15957 11.8165 6.19042 11.9563C6.19482 11.9694 6.19042 11.9825 6.1816 11.9913C6.13314 12.0393 6.08467 12.0874 6.03621 12.1355C6.0318 12.1399 6.0274 12.1442 6.02299 12.1442C6.01858 12.1442 6.01859 12.1355 6.01859 12.1311C5.98774 11.9126 5.96131 11.6941 5.93047 11.4756C5.89963 11.2265 5.86438 10.9818 5.83354 10.7327C5.82913 10.7152 5.82913 10.6978 5.82472 10.6846C5.82472 10.6759 5.81591 10.6715 5.8071 10.6715C5.78066 10.6759 5.75423 10.6759 5.72779 10.6803C5.71458 10.6803 5.71458 10.6846 5.71458 10.6978C5.71898 10.7546 5.72339 10.8114 5.72779 10.8682C5.7322 10.9294 5.73661 10.9905 5.74101 11.0517C5.74982 11.1522 5.75423 11.2527 5.76304 11.3533C5.76745 11.4319 5.77185 11.5062 5.77626 11.5849C5.78507 11.6854 5.78948 11.7859 5.79829 11.882C5.80269 11.9607 5.8071 12.035 5.81151 12.1136C5.81591 12.1704 5.82032 12.2273 5.82032 12.2841C5.82032 12.2972 5.81591 12.3103 5.8071 12.319C5.74101 12.3802 5.67933 12.4458 5.61765 12.5069C5.60883 12.5157 5.60443 12.5157 5.59562 12.5069C5.53393 12.4414 5.46784 12.3802 5.40616 12.319C5.39735 12.3103 5.38854 12.2972 5.39294 12.2841C5.39735 12.201 5.40616 12.118 5.41057 12.0306C5.41497 11.9519 5.41938 11.8733 5.42378 11.799C5.4326 11.6985 5.437 11.6023 5.44581 11.5018C5.45022 11.4232 5.45463 11.3445 5.45903 11.2702C5.46784 11.1697 5.47225 11.0692 5.48106 10.9687C5.48547 10.89 5.48987 10.8114 5.49428 10.7371C5.49428 10.724 5.49428 10.7109 5.49869 10.6978C5.49869 10.689 5.49428 10.6803 5.48547 10.6803C5.45903 10.6803 5.4326 10.6759 5.41057 10.6715C5.39735 10.6715 5.39294 10.6759 5.39294 10.689C5.38413 10.7458 5.37972 10.8026 5.37091 10.8551C5.35329 10.9862 5.33567 11.1129 5.31804 11.244C5.30042 11.3838 5.28279 11.5193 5.26517 11.6592C5.24755 11.7771 5.23433 11.8951 5.21671 12.0131C5.2123 12.0525 5.20789 12.0962 5.19908 12.1355C5.19908 12.1399 5.19908 12.1442 5.19468 12.1486C5.19027 12.1486 5.18586 12.1442 5.18146 12.1399C5.12859 12.0874 5.08012 12.0393 5.02725 11.9869C5.01844 11.9782 5.01844 11.9694 5.02284 11.9563C5.0625 11.7684 5.09774 11.5761 5.1374 11.3882C5.18586 11.1522 5.23433 10.9119 5.27839 10.6759C5.28279 10.6541 5.28279 10.6541 5.26076 10.6497C5.11096 10.6191 4.96557 10.5667 4.82898 10.4924C4.78492 10.4705 4.74086 10.4443 4.70121 10.4181C4.68799 10.4093 4.67918 10.4093 4.67037 10.4224C4.42804 10.7852 4.18131 11.1479 3.93898 11.5062C3.93017 11.5237 3.91695 11.5281 3.89933 11.5281C3.83324 11.5281 3.76275 11.5281 3.69666 11.5281C3.69225 11.5281 3.68344 11.5324 3.68344 11.5237C3.67903 11.5193 3.68785 11.5149 3.69225 11.5106C3.90814 11.2309 4.12844 10.9468 4.34433 10.6672C4.42364 10.5623 4.50294 10.4574 4.58666 10.3569C4.59547 10.3438 4.59547 10.3394 4.58225 10.3307C4.56022 10.3176 4.5426 10.3001 4.52497 10.2826C4.51616 10.2739 4.51176 10.2739 4.50294 10.2826C4.41483 10.3831 4.3223 10.4836 4.23418 10.5885C4.12844 10.7065 4.0227 10.8245 3.91696 10.9468C3.79359 11.0867 3.67463 11.2222 3.55126 11.362C3.51602 11.4057 3.47636 11.445 3.44111 11.4887C3.4323 11.4975 3.42349 11.5018 3.41468 11.5018C3.32656 11.5018 3.23404 11.5018 3.14592 11.5018C3.1327 11.5018 3.12389 11.4975 3.12389 11.48C3.12389 11.3926 3.12389 11.3008 3.12389 11.2134C3.12389 11.2003 3.12829 11.1916 3.14151 11.1828C3.23404 11.1042 3.32215 11.0255 3.41468 10.9468C3.53364 10.842 3.6526 10.7415 3.77156 10.6366C3.92136 10.5055 4.06676 10.3787 4.21656 10.2476C4.26062 10.2083 4.30468 10.169 4.34874 10.134C4.36195 10.1253 4.36195 10.1165 4.34874 10.1078C4.33552 10.0903 4.31789 10.0728 4.30468 10.0554C4.29146 10.0379 4.29146 10.0379 4.27384 10.051C4.18131 10.1209 4.08438 10.1952 3.99186 10.2651C3.70106 10.488 3.41027 10.7065 3.11948 10.9294C3.11508 10.9337 3.10626 10.9425 3.10186 10.9381C3.09745 10.9337 3.09745 10.925 3.09745 10.9163C3.09745 10.8507 3.09745 10.7852 3.09745 10.7152C3.09745 10.6978 3.10186 10.689 3.11508 10.6803C3.48077 10.4399 3.84205 10.1996 4.20775 9.95486C4.23418 9.93738 4.22978 9.94175 4.21656 9.9199C4.10641 9.74947 4.03151 9.56593 3.98745 9.36927C3.98304 9.34305 3.98304 9.34306 3.95661 9.3518C3.56448 9.43046 3.16795 9.50912 2.77582 9.58341C2.73616 9.59215 2.69651 9.59652 2.65686 9.60526C2.64805 9.60526 2.63923 9.60526 2.63483 9.59652C2.58196 9.54408 2.53349 9.49601 2.48062 9.44357C2.47621 9.4392 2.47181 9.4392 2.47621 9.43046C2.47621 9.42609 2.48503 9.42608 2.48943 9.42608C2.6128 9.40861 2.73616 9.3955 2.86394 9.37802C2.97409 9.36491 3.08864 9.34743 3.19879 9.33432C3.33978 9.31684 3.47636 9.29935 3.61735 9.28187C3.7275 9.26876 3.83765 9.25128 3.94339 9.23817C3.96542 9.2338 3.96542 9.23381 3.96101 9.21196C3.95661 9.19011 3.95661 9.16826 3.95661 9.14641C3.95661 9.1333 3.9522 9.12892 3.93458 9.12892C3.83765 9.13766 3.74512 9.14204 3.64819 9.14641C3.58651 9.15078 3.52483 9.15515 3.46755 9.15952C3.36621 9.16826 3.26488 9.17263 3.16354 9.18137C3.08864 9.18574 3.00933 9.1901 2.93443 9.19447C2.8331 9.20321 2.73176 9.20758 2.63042 9.21632C2.55112 9.22069 2.47181 9.22506 2.39691 9.22943C2.37488 9.22943 2.35725 9.22944 2.33523 9.23381C2.32201 9.23381 2.3132 9.22943 2.30438 9.2207C2.2427 9.15952 2.18102 9.09834 2.11933 9.03716C2.11493 9.03279 2.11052 9.02404 2.10171 9.02404C2.04443 9.00656 2.04443 9.00219 2.04443 8.99782Z" fill="#FFD200"/>
<path fill-rule="evenodd" clip-rule="evenodd" d="M1.39227 2.05391L2.01351 1.70431L1.74475 2.35981L2.27346 2.84051L1.5597 2.78807L1.2645 3.43483L1.09267 2.74437L0.378906 2.66571L0.986925 2.28989L0.845935 1.59506L1.39227 2.05391Z" fill="#FFD200"/>
<path fill-rule="evenodd" clip-rule="evenodd" d="M12.8477 9.26442L12.8345 9.97673L12.3983 9.413L11.7154 9.62276L12.1207 9.03719L11.7065 8.45598L12.3939 8.657L12.8212 8.0889L12.8433 8.80121L13.5218 9.02845L12.8477 9.26442Z" fill="#FFD200"/>
<path fill-rule="evenodd" clip-rule="evenodd" d="M1.39227 15.9986L2.01351 16.3482L1.74475 15.6927L2.27346 15.212L1.5597 15.2644L1.2645 14.6176L1.09267 15.3081L0.378906 15.3868L0.986925 15.7626L0.845935 16.4574L1.39227 15.9986Z" fill="#FFD200"/>
</g>
<defs>
<clipPath id="clip0">
<rect width="30" height="18" fill="white"/>
</clipPath>
</defs>
</svg>
