<svg width="100" height="100" viewBox="0 0 100 100" fill="none" xmlns="http://www.w3.org/2000/svg">
<rect width="100" height="100" rx="3" fill="#9EA9B9"/>
<path d="M37.0888 35.6581V35.6001L37.0273 35.6581H37.0888Z" fill="#231F20"/>
<path d="M59.0751 40.8186L59.0137 40.76V40.8186H59.0751Z" fill="#231F20"/>
<path d="M42.9219 61.1791L42.9833 61.2371V61.1791H42.9219Z" fill="#231F20"/>
<path d="M17.4978 73.9984L40.0365 59.7303C39.5452 58.7443 39.0539 57.7583 38.624 56.7723L16.2695 70.8664C16.7608 72.0264 17.1293 73.0704 17.4978 73.9984Z" fill="white"/>
<path d="M15.6562 69.1241L37.9493 55.0301C37.3351 53.4641 36.7824 51.7821 36.3525 50.1001L13.998 64.2521C14.4894 65.7601 15.0421 67.4421 15.6562 69.1241Z" fill="white"/>
<path d="M18.543 76.608C18.9114 77.478 19.0957 78 19.0957 78L42.1871 63.268C41.9415 62.862 41.6344 62.514 41.3887 62.108L18.543 76.608Z" fill="white"/>
<path d="M49.6181 30.2072C49.6795 30.2652 49.7409 30.2652 49.8024 30.3232C41.9414 24.6972 35.2474 24.5232 29.5359 26.2052C16.8234 29.9172 9.02388 43.7792 13.0772 61.1793C13.2614 61.8173 13.4456 62.5713 13.6913 63.3253L36.0458 49.1732C33.3436 38.3852 34.3262 27.0172 43.1083 28.0032C41.5116 28.0032 39.1164 28.6992 37.6425 32.4112C37.3354 33.1072 37.0898 34.2092 37.0284 35.6592C42.6784 26.3212 54.9611 36.0652 58.953 40.8212C56.2508 36.2972 53.0573 32.4692 49.6181 30.2072Z" fill="white"/>
<path d="M84.5602 28.231L62.0215 42.4991C62.5128 43.4851 62.9427 44.4711 63.3726 45.4571L85.6656 31.363C85.2972 30.203 84.9287 29.159 84.5602 28.231Z" fill="white"/>
<path d="M86.4044 33.1646L64.1113 47.2586C64.7255 48.8246 65.2168 50.5066 65.7081 52.1886L88.0626 38.0366C87.5713 36.5286 87.0185 34.8466 86.4044 33.1646Z" fill="white"/>
<path d="M88.3708 38.9645L65.9549 53.1166C68.5343 63.8466 67.4903 74.9826 58.831 74.0546C60.4277 74.0546 62.8229 73.3586 64.2968 69.6466C64.6038 68.9506 64.7881 67.8486 64.9109 66.3986C59.2609 75.7366 46.9782 65.9926 42.9863 61.2366C45.7499 65.7026 48.882 69.5306 52.3826 71.7926C52.3212 71.7346 52.2598 71.7346 52.1983 71.6766C60.0593 77.3026 66.7533 77.4766 72.4648 75.7946C85.1773 72.0826 92.9768 58.2206 88.9235 40.8205C88.7393 40.2985 88.5551 39.6605 88.3708 38.9645Z" fill="white"/>
<path d="M83.5189 25.624C83.089 24.638 82.8434 24 82.8434 24L59.752 38.732C60.059 39.196 60.3661 39.66 60.6732 40.124L83.5189 25.624Z" fill="white"/>
</svg>
