<?xml version="1.0" encoding="UTF-8"?>
<svg width="103px" height="102px" viewBox="0 0 78 77" version="1.1" xmlns="http://www.w3.org/2000/svg" xmlns:xlink="http://www.w3.org/1999/xlink">
    <!-- Generator: Sketch 51.1 (57501) - http://www.bohemiancoding.com/sketch -->
    <title>profits</title>
    <desc>Created with Sketch.</desc>
    <defs>
        <linearGradient x1="12.1302385%" y1="49.7500002%" x2="101.257813%" y2="49.7500002%" id="linearGradient-1">
            <stop stop-color="#5468AD" offset="0%"></stop>
            <stop stop-color="#448ED7" offset="54.8658779%"></stop>
            <stop stop-color="#30ACEA" offset="100%"></stop>
        </linearGradient>
    </defs>
    <g id="Page-1" stroke="none" stroke-width="1" fill="none" fill-rule="evenodd">
        <g id="Artboard" transform="translate(-349.000000, -106.000000)" fill="url(#linearGradient-1)" fill-rule="nonzero">
            <g id="profits" transform="translate(349.000000, 106.000000)">
                <path d="M77.6374379,17.5925987 L59.2830575,0.311049744 C58.8425223,-0.103683248 58.1573623,-0.103683248 57.7168271,0.311049744 L39.3624467,17.5925987 C39.0191901,17.9155886 38.9074776,18.4167747 39.0802335,18.8562949 C39.2529895,19.295664 39.6754823,19.5846471 40.1456371,19.5846471 L47.3675576,19.5846471 L47.3675576,22.6883431 C47.3675576,23.3243477 47.8804128,23.8398922 48.5130995,23.8398922 C49.1457862,23.8398922 49.6586414,23.3243477 49.6586414,22.6883431 L49.6586414,18.4332491 C49.6586414,17.7972446 49.1457862,17.2817001 48.5130995,17.2817001 L43.0442985,17.2817001 L58.5000175,2.72946906 L73.955586,17.2815489 L68.4869354,17.2815489 C67.8542487,17.2815489 67.3413935,17.7970935 67.3413935,18.433098 L67.3413935,57.8484509 C67.3413935,58.4844555 67.8542487,59 68.4869354,59 C69.1196221,59 69.6324773,58.4844555 69.6324773,57.8484509 L69.6324773,19.5846471 L76.8543978,19.5846471 C77.3245526,19.5846471 77.7470454,19.2958152 77.9198014,18.8562949 C78.0925574,18.4166235 77.9806945,17.9155886 77.6374379,17.5925987 Z" id="Shape"></path>
                <path d="M68.8679475,62 C68.242793,62 67.7360435,62.489561 67.7360435,63.0935108 L67.7360435,74.8129784 L50.2638079,74.8129784 L50.2638079,73.8827981 C50.2638079,73.2788484 49.7570584,72.7892874 49.131904,72.7892874 C48.5067495,72.7892874 48,73.2788484 48,73.8827981 L48,75.9064892 C48,76.510439 48.5067495,77 49.131904,77 L68.868096,77 C69.4932505,77 70,76.510439 70,75.9064892 L70,63.0936543 C69.9998514,62.4897045 69.4931019,62 68.8679475,62 Z" id="Shape"></path>
                <path d="M29,20 C28.3625175,20 27.8457749,20.5078332 27.8457749,21.1343247 C27.8457749,21.7608161 28.3625175,22.2686493 29,22.2686493 C43.7176954,22.2686493 55.6915498,34.0360579 55.6915498,48.5 C55.6915498,62.9639421 43.7176954,74.7313507 29,74.7313507 C14.2823046,74.7313507 2.30845017,62.9639421 2.30845017,48.5 C2.30845017,36.0207911 11.3330391,25.2007125 23.7669777,22.7723139 C24.3921892,22.6502314 24.7983419,22.0532184 24.6739662,21.4386375 C24.5497419,20.8242054 23.942558,20.4247576 23.316892,20.5472867 C9.80614121,23.1859054 0,34.9417013 0,48.5 C0,64.2149894 13.009309,77 29,77 C44.990691,77 58,64.2149894 58,48.5 C58,32.7850106 44.990691,20 29,20 Z" id="Shape"></path>
                <path d="M45.9784507,31.8752241 C36.616385,22.708183 21.3834605,22.7083343 12.0215493,31.8752241 C2.65948357,41.0421139 2.65948357,55.9577159 12.0215493,65.124757 C16.7025049,69.7082019 22.8512138,72 29.0000773,72 C35.1487862,72 41.2974951,69.7083532 45.9784507,65.124757 C55.3405164,55.9577159 55.3405164,41.0421139 45.9784507,31.8752241 Z M44.3133589,63.4942 C35.8695276,71.7621348 22.1303179,71.7622861 13.6864866,63.4942 C5.24265526,55.2262652 5.24265526,41.773262 13.6864866,33.5053272 C17.908325,29.3714354 23.4542011,27.3043382 28.9999227,27.3043382 C34.5456443,27.3043382 40.091366,29.3712841 44.3133589,33.5053272 C52.7571902,41.7734133 52.7571902,55.2264165 44.3133589,63.4942 Z" id="Shape"></path>
                <path d="M30.0553258,47.9325379 L30.0553258,39.5257216 C32.2454835,39.9429389 33.8893484,41.6296354 33.8893484,43.6421658 C33.8893484,44.2725609 34.3618141,44.7835585 34.9446742,44.7835585 C35.5275343,44.7835585 36,44.2725609 36,43.6421658 C36,40.3914663 33.4161901,37.6908643 30.0553258,37.2170193 L30.0553258,36.1413927 C30.0553258,35.5109976 29.5828601,35 29,35 C28.4171399,35 27.9446742,35.5109976 27.9446742,36.1413927 L27.9446742,37.2170193 C24.5838099,37.6908643 22,40.3916161 22,43.6421658 C22,46.8927156 24.5838099,49.5936171 27.9446742,50.0676119 L27.9446742,58.4744282 C25.754378,58.0567615 24.1106516,56.3702148 24.1106516,54.3578342 C24.1106516,53.7274391 23.6381859,53.2164415 23.0553258,53.2164415 C22.4724657,53.2164415 22,53.7274391 22,54.3578342 C22,57.6085337 24.5838099,60.3091357 27.9446742,60.7829807 L27.9446742,61.8586073 C27.9446742,62.4890024 28.4171399,63 29,63 C29.5828601,63 30.0553258,62.4890024 30.0553258,61.8586073 L30.0553258,60.7829807 C33.4161901,60.3091357 36,57.6083839 36,54.3578342 C36,51.1072844 33.4161901,48.4065327 30.0553258,47.9325379 Z M27.9446742,47.7584602 C25.754378,47.3410931 24.1106516,45.6545464 24.1106516,43.642016 C24.1106516,41.6294856 25.754378,39.9429389 27.9446742,39.5255718 L27.9446742,47.7584602 Z M30.0551873,58.4742784 L30.0551873,50.24139 C32.2454835,50.6586073 33.8892099,52.3453038 33.8892099,54.3578342 C33.8892099,56.3703646 32.2454835,58.0569113 30.0551873,58.4742784 Z" id="Shape"></path>
            </g>
        </g>
    </g>
</svg>