<svg width="16" height="16" viewBox="0 0 16 16" fill="none" xmlns="http://www.w3.org/2000/svg">
<path d="M10.815 6.71345C10.815 8.91881 9.02037 10.7134 6.81501 10.7134C4.60965 10.7134 2.81501 8.91881 2.81501 6.71345C2.81501 4.50809 4.60965 2.71345 6.81501 2.71345C9.02037 2.71345 10.815 4.50809 10.815 6.71345ZM15.3864 14.142C15.3864 13.8384 15.2614 13.5438 15.0561 13.3384L11.9936 10.2759C12.7168 9.23131 13.1007 7.98131 13.1007 6.71345C13.1007 3.24023 10.2882 0.427734 6.81501 0.427734C3.3418 0.427734 0.529297 3.24023 0.529297 6.71345C0.529297 10.1867 3.3418 12.9992 6.81501 12.9992C8.08287 12.9992 9.33287 12.6152 10.3775 11.892L13.44 14.9456C13.6454 15.1599 13.94 15.2849 14.2436 15.2849C14.8686 15.2849 15.3864 14.767 15.3864 14.142Z" fill="white"/>
</svg>
