<svg width="20" height="20" viewBox="0 0 20 20" fill="none" xmlns="http://www.w3.org/2000/svg">
<path fill-rule="evenodd" clip-rule="evenodd" d="M2.29167 0H11.875C13.1417 0 14.1667 1.025 14.1667 2.29167V7.925C14.1 7.91667 14.025 7.91667 13.9583 7.91667C10.625 7.91667 7.91667 10.625 7.91667 13.9583C7.91667 15.2833 8.34167 16.5 9.075 17.5H2.29167C1.025 17.5 0 16.475 0 15.2083V2.29167C0 1.025 1.025 0 2.29167 0ZM6.66667 3.33333H3.33333C2.875 3.33333 2.5 3.70833 2.5 4.16667C2.5 4.625 2.875 5 3.33333 5H6.66667C7.125 5 7.5 4.625 7.5 4.16667C7.5 3.70833 7.125 3.33333 6.66667 3.33333ZM3.33333 11.6667H7.5C7.95833 11.6667 8.33333 11.2917 8.33333 10.8333C8.33333 10.375 7.95833 10 7.5 10H3.33333C2.875 10 2.5 10.375 2.5 10.8333C2.5 11.2917 2.875 11.6667 3.33333 11.6667ZM3.33333 8.33333H10.8333C11.2917 8.33333 11.6667 7.95833 11.6667 7.5C11.6667 7.04167 11.2917 6.66667 10.8333 6.66667H3.33333C2.875 6.66667 2.5 7.04167 2.5 7.5C2.5 7.95833 2.875 8.33333 3.33333 8.33333ZM13.9583 18.3333C11.5458 18.3333 9.58333 16.3708 9.58333 13.9583C9.58333 11.5458 11.5458 9.58333 13.9583 9.58333C16.3708 9.58333 18.3333 11.5458 18.3333 13.9583C18.3333 14.8641 18.0567 15.7064 17.5835 16.4052L19.7558 18.5775C20.0817 18.9033 20.0817 19.43 19.7558 19.7558C19.5933 19.9183 19.38 20 19.1667 20C18.9533 20 18.74 19.9183 18.5775 19.7558L16.4052 17.5835C15.7064 18.0567 14.8641 18.3333 13.9583 18.3333ZM16.6667 13.9583C16.6667 14.677 16.3853 15.3311 15.927 15.8164C15.9071 15.833 15.8878 15.8505 15.8692 15.8692C15.8505 15.8878 15.8329 15.9071 15.8164 15.927C15.3311 16.3853 14.6769 16.6667 13.9583 16.6667C12.465 16.6667 11.25 15.4517 11.25 13.9583C11.25 12.465 12.465 11.25 13.9583 11.25C15.4517 11.25 16.6667 12.465 16.6667 13.9583Z" fill="#22AAEC"/>
</svg>
