<?xml version="1.0" encoding="UTF-8"?>
<svg width="110px" height="19px" viewBox="0 0 110 19" version="1.1" xmlns="http://www.w3.org/2000/svg" xmlns:xlink="http://www.w3.org/1999/xlink">
    <!-- Generator: Sketch 49 (51002) - http://www.bohemiancoding.com/sketch -->
    <title>Shape</title>
    <defs>
        <linearGradient x1="0.25781251%" y1="49.7500002%" x2="101.257813%" y2="49.7500002%" id="linearGradient-1">
            <stop stop-color="#5468AD" offset="11.7548772%"></stop>
            <stop stop-color="#448ED7" offset="54.8658779%"></stop>
            <stop stop-color="#30ACEA" offset="100%"></stop>
        </linearGradient>
    </defs>
    <g id="Page-1" stroke="none" stroke-width="1" fill="none" fill-rule="evenodd">
        <g id="ProductDetailMobile" transform="translate(-97.000000, -68.000000)" fill="url(#linearGradient-1)" fill-rule="nonzero">
            <path d="M115,69 L114.999991,78.155646 C115.006914,83.024002 110.984278,86.979818 106.006241,87 C101.023325,86.9865338 96.9931026,83.0287509 97.0000089,78.155646 L97,69 L100.120672,69 L100.120672,78.155646 C100.113759,81.3432496 102.74682,83.9346612 106.006241,83.948118 C109.265662,83.9380218 111.901511,81.3493462 111.898052,78.1617497 L111.898052,69 L115,69 Z M121.106036,87 L121.106036,77.3422569 C121.099407,75.7240484 121.716196,74.1694927 122.820541,73.0210173 C123.924886,71.872542 125.426194,71.2243596 126.993766,71.2192477 C130.25093,71.2298976 132.884952,73.9605366 132.881497,77.3229414 L132.881497,86.9806845 L135.999998,86.9806845 L135.999998,77.3229414 C136.00345,72.1825995 131.973231,68.010656 126.993766,68 C122.016739,68.0177485 117.9931,72.1915387 118.000009,77.3293799 L118.000009,86.987123 L121.106036,87 Z M154.951416,69 C149.992769,69.0341651 145.993037,73.0556097 146.000009,78 C145.993037,82.9443903 149.992769,86.9658349 154.951416,87 L161,87 L161,83.8944099 L154.951416,83.8944099 C151.69831,83.8807163 149.07035,81.2437002 149.07725,78 C149.073798,74.7563072 151.704539,72.1220751 154.957645,72.1118012 L161,72.1118012 L161,69.0062112 L154.951416,69 Z M142,87 L142,69 L139,69 L139,87 L142,87 Z M167,87 L167,69 L164,69 L164,87 L167,87 Z M202.871191,69 L202.871191,70.6781768 C202.878087,73.9231019 200.247672,76.5601588 196.993767,76.570442 C193.741294,76.5567437 191.11288,73.9216927 191.116343,70.6781768 L191.116343,69 L188,69 L188,70.6781768 C188.003144,75.0369941 191.133905,78.7688746 195.435596,79.5414365 L195.435596,87 L198.551939,87 L198.551939,79.5414365 C202.858584,78.7741977 205.995771,75.0409169 206,70.6781768 L206,69 L202.871191,69 Z M170,69 L170,72.1034483 L176.363339,72.1034483 L176.363339,87 L179.636661,87 L179.636661,72.1034483 L186,72.1034483 L186,69 L170,69 Z M204.163636,87 L204.163636,85.2323944 L205,85.2323944 L205,85 L203,85 L203,85.2323944 L203.836364,85.2323944 L203.836364,86.9577465 L204.163636,87 Z M205.271698,87 L205.271698,85.3049645 L205.875472,86.9858156 L206.124528,86.9858156 L206.735849,85.3333333 L206.735849,86.9858156 L207,86.9858156 L207,85.0141844 L206.622642,85.0141844 L206.124528,86.3900709 C206.071698,86.5319149 206.033962,86.6382979 206.018868,86.7092199 L205.913208,86.4184397 L205.415094,85 L205,85 L205,86.9716312 L205.271698,87 Z" id="Shape"></path>
        </g>
    </g>
</svg>