<svg width="30" height="18" viewBox="0 0 30 18" fill="none" xmlns="http://www.w3.org/2000/svg">
<g clip-path="url(#clip0)">
<path d="M29.9956 0.00442505H0.00439453V17.9957H29.9956V0.00442505Z" fill="white" stroke="#000102" stroke-width="0.25" stroke-miterlimit="10"/>
<path d="M29.9956 0.00442505H0.00439453V8.99787H29.9956V0.00442505Z" fill="#CF0D23"/>
<path fill-rule="evenodd" clip-rule="evenodd" d="M7.74224 1.26295C6.66263 1.35035 5.79013 1.74365 5.13355 2.49529C4.67967 3.01095 4.42849 3.60527 4.38443 4.26514C4.32714 5.15224 4.61357 5.93884 5.26134 6.60745C5.9047 7.27169 6.73313 7.62129 7.73343 7.69995C6.69788 8.28553 4.61798 7.75239 3.6309 6.68611C2.41909 5.37511 2.45875 3.44795 3.71903 2.18502C4.95728 0.935201 6.80364 0.874021 7.74224 1.26295Z" fill="#FCFCFC"/>
<path d="M7.22678 5.23959L7.40745 5.81644L8.01556 5.81207L7.51761 6.16167L7.71591 6.73414L7.22678 6.37143L6.73324 6.73414L6.93154 6.16167L6.43359 5.81207L7.0417 5.81644L7.22678 5.23959Z" fill="white"/>
<path d="M6.47775 3.08084L6.65842 3.65768L7.27094 3.64894L6.773 4.00291L6.96689 4.57538L6.47775 4.21267L5.98862 4.57538L6.18251 4.00291L5.68457 3.64894L6.29268 3.65768L6.47775 3.08084Z" fill="white"/>
<path d="M9.7385 5.23959L9.91917 5.81644L10.5273 5.81207L10.0293 6.16167L10.2276 6.73414L9.7385 6.37143L9.24496 6.73414L9.44326 6.16167L8.94531 5.81207L9.55342 5.81644L9.7385 5.23959Z" fill="white"/>
<path d="M10.4878 3.08084L10.6684 3.65768L11.2809 3.64894L10.783 4.00291L10.9769 4.57538L10.4878 4.21267L9.99863 4.57538L10.1925 4.00291L9.69458 3.64894L10.3027 3.65768L10.4878 3.08084Z" fill="white"/>
<path d="M8.48704 1.74359L8.66771 2.32043L9.28023 2.31169L8.78228 2.66129L8.97617 3.23813L8.48704 2.87542L7.9979 3.23813L8.1918 2.66129L7.69385 2.31169L8.30637 2.32043L8.48704 1.74359Z" fill="white"/>
</g>
<defs>
<clipPath id="clip0">
<rect width="30" height="18" fill="white"/>
</clipPath>
</defs>
</svg>
