<svg width="30" height="18" viewBox="0 0 30 18" fill="none" xmlns="http://www.w3.org/2000/svg">
<path d="M30 0H0V18H30V0Z" fill="#FF0000" fill-opacity="0.982456"/>
<path d="M15.0244 0.026886H0.0244141V10.0269H15.0244V0.026886Z" fill="#0007A0"/>
<path fill-rule="evenodd" clip-rule="evenodd" d="M9.33748 7.67628L7.79713 6.51215L7.56918 8.36788L6.84876 6.62908L5.67326 8.12807L5.96581 6.28051L4.15775 7.0211L5.38488 5.55983L3.42871 5.34359L5.26162 4.66016L3.6815 3.54502L5.62906 3.82255L4.84838 2.10731L6.38874 3.27144L6.61668 1.41571L7.33711 3.15451L8.5126 1.65552L8.22005 3.50308L10.0281 2.76249L8.80098 4.22376L10.7572 4.44L8.92425 5.12343L10.5044 6.23857L8.55681 5.96104L9.33748 7.67628ZM8.85419 4.93252C8.85419 5.367 8.67143 5.78368 8.34613 6.0909C8.02082 6.39812 7.57961 6.57072 7.11956 6.57072C6.65951 6.57072 6.2183 6.39812 5.893 6.0909C5.56769 5.78368 5.38494 5.367 5.38494 4.93252C5.38494 4.49804 5.56769 4.08136 5.893 3.77414C6.2183 3.46692 6.65951 3.29432 7.11956 3.29432C7.57961 3.29432 8.02082 3.46692 8.34613 3.77414C8.67143 4.08136 8.85419 4.49804 8.85419 4.93252ZM7.1 6.3C7.8732 6.3 8.5 5.6732 8.5 4.9C8.5 4.1268 7.8732 3.5 7.1 3.5C6.3268 3.5 5.7 4.1268 5.7 4.9C5.7 5.6732 6.3268 6.3 7.1 6.3Z" fill="white"/>
</svg>
