<?xml version="1.0" encoding="UTF-8"?>
<svg width="174px" height="30px" viewBox="0 0 174 30" version="1.1" xmlns="http://www.w3.org/2000/svg" xmlns:xlink="http://www.w3.org/1999/xlink">
    <!-- Generator: Sketch 48.2 (47327) - http://www.bohemiancoding.com/sketch -->
    <title>Shape</title>
    <desc>Created with Sketch.</desc>
    <defs></defs>
    <g id="Page-1" stroke="none" stroke-width="1" fill="none" fill-rule="evenodd">
        <g id="logo" fill="#4D4D4F" fill-rule="nonzero">
            <path d="M28.8400143,0.51 L28.84,15.51 C28.8510927,23.48599 22.4059292,29.9669352 14.43,30 C6.44625254,29.9779378 -0.0110654216,23.4937703 -3.89244165e-15,15.51 L-1.4200253e-05,0.51 L5,0.51 L5,15.51 C4.98892417,20.7323573 9.20767752,24.9779532 14.43,25 C19.6523222,24.9834591 23.8755408,20.7423455 23.87,15.52 L23.87,0.51 L28.8400143,0.51 Z M38.5,29.51 L38.5,14.51 C38.4893714,11.9966668 39.4782904,9.5821963 41.2489243,7.79843273 C43.0195582,6.01466915 45.4266569,5.00793958 47.94,5 C53.1623222,5.01654093 57.3855408,9.25765453 57.38,14.48 L57.38,29.48 L62.38,29.48 L62.38,14.48 C62.3855346,6.49623747 55.9237473,0.0165504613 47.94,-1.77635684e-15 C39.9601614,0.0275662102 33.5089228,6.51012146 33.52,14.49 L33.52,29.49 L38.5,29.51 Z M91.37,0.51 C83.4097138,0.565005789 76.9888072,7.0395316 77,15 C76.9888072,22.9604684 83.4097138,29.4349942 91.37,29.49 L101.08,29.49 L101.08,24.49 L91.37,24.49 C86.1476775,24.4679532 81.9289242,20.2223573 81.94,15 C81.9344592,9.77765453 86.1576778,5.53654093 91.38,5.52 L101.08,5.52 L101.08,0.52 L91.37,0.51 Z M72.37,29.51 L72.37,0.51 L67.37,0.51 L67.37,29.51 L72.37,29.51 Z M111.08,29.51 L111.08,0.51 L106.08,0.51 L106.08,29.51 L111.08,29.51 Z M168.22,0.51 L168.22,3.21 C168.231064,8.43072402 164.01071,12.6734555 158.79,12.69 C153.571587,12.6679609 149.354443,8.42845674 149.36,3.21 L149.36,0.51 L144.36,0.51 L144.36,3.21 C144.365044,10.2228527 149.388177,16.2270338 156.29,17.47 L156.29,29.47 L161.29,29.47 L161.29,17.47 C168.199773,16.235598 173.233215,10.229164 173.24,3.21 L173.24,0.51 L168.22,0.51 Z M115.76,0.51 L115.76,5.51 L125.48,5.51 L125.48,29.51 L130.48,29.51 L130.48,5.51 L140.2,5.51 L140.2,0.51 L115.76,0.51 Z M169.28,29.51 L169.28,27 L170.2,27 L170.2,26.67 L168,26.67 L168,27 L168.92,27 L168.92,29.45 L169.28,29.51 Z M170.92,29.51 L170.92,27.12 L171.72,29.49 L172.05,29.49 L172.86,27.16 L172.86,29.49 L173.21,29.49 L173.21,26.71 L172.71,26.71 L172.05,28.65 C171.98,28.85 171.93,29 171.91,29.1 L171.77,28.69 L171.11,26.69 L170.56,26.69 L170.56,29.47 L170.92,29.51 Z" id="Shape"></path>
        </g>
    </g>
</svg>