<svg width="30" height="30" viewBox="0 0 30 30" fill="none" xmlns="http://www.w3.org/2000/svg">
<circle cx="15" cy="15" r="14.5" fill="#335067" stroke="white"/>
<path d="M13.3483 16.6964V12.2054L17.6697 14.4643L13.3483 16.6964ZM15.0001 9C11.634 9 9.40187 9.16071 9.40187 9.16071C9.08937 9.19643 8.40187 9.19643 7.79472 9.83929C7.79472 9.83929 7.30365 10.3214 7.1608 11.4286C6.99115 12.7232 7.00008 14.0179 7.00008 14.0179V15.2321C7.00008 15.2321 6.99115 16.5268 7.1608 17.8214C7.30365 18.9196 7.79472 19.4107 7.79472 19.4107C8.40187 20.0446 9.20544 20.0268 9.56258 20.0893C9.56258 20.0893 10.8394 20.2143 15.0001 20.25C18.3662 20.25 20.5983 20.0804 20.5983 20.0804C20.9108 20.0446 21.5983 20.0446 22.2054 19.4107C22.2054 19.4107 22.6965 18.9196 22.8394 17.8214C23.009 16.5268 23.0001 15.2321 23.0001 15.2321V14.0179C23.0001 14.0179 23.009 12.7232 22.8394 11.4286C22.6965 10.3214 22.2054 9.83929 22.2054 9.83929C21.5983 9.19643 20.9108 9.19643 20.5983 9.16071C20.5983 9.16071 18.3662 9 15.0001 9Z" fill="white"/>
</svg>
