<svg width="80" height="61" viewBox="0 0 80 61" fill="none" xmlns="http://www.w3.org/2000/svg">
<path fill-rule="evenodd" clip-rule="evenodd" d="M64.5603 44.2466H15.2906V57.5636H64.5603V44.2466ZM13.9419 47.2364H0L7.15652 54.1183L0 61.0002H20.0381V59.0413H13.9419V47.2364ZM66.0582 47.2364V59.0413H59.9619V61.0002H80.0001L72.8435 54.1183L80.0001 47.2364H66.0582Z" fill="white"/>
<path d="M35.6016 53.6974V48.5399H37.3906C38.2163 48.5399 38.8304 48.7564 39.2331 49.1894C39.6357 49.6225 39.8371 50.2642 39.8371 51.1148C39.8371 51.9705 39.6357 52.6149 39.2331 53.0479C38.8304 53.4809 38.2163 53.6974 37.3906 53.6974H35.6016ZM36.4425 52.9783H37.3065C37.8773 52.9783 38.2978 52.8314 38.5679 52.5376C38.8381 52.2386 38.9731 51.7643 38.9731 51.1148C38.9731 50.4704 38.8381 49.9988 38.5679 49.6998C38.2978 49.4008 37.8773 49.2513 37.3065 49.2513H36.4425V52.9783Z" fill="#384250"/>
<path d="M40.8046 49.1972V48.4626H41.6608V49.1972H40.8046ZM40.8275 53.6974V49.839H41.6302L41.6379 53.6974H40.8275Z" fill="#384250"/>
<path d="M42.7905 53.6974V50.1715C42.8568 50.1302 42.9791 50.0761 43.1575 50.0091C43.3359 49.9369 43.5449 49.8725 43.7844 49.8158C44.0291 49.7591 44.2788 49.7307 44.5337 49.7307C44.6611 49.7307 44.7656 49.741 44.8471 49.7616C44.9287 49.7823 44.9975 49.8055 45.0535 49.8312V50.4808C44.8242 50.4447 44.5744 50.4344 44.3043 50.4498C44.0342 50.4653 43.7972 50.4911 43.5933 50.5271V53.6974H42.7905Z" fill="#384250"/>
<path d="M59.5061 3.06947H54.11C54.1296 2.46499 54.1405 1.85693 54.1405 1.24596C54.1405 0.557761 53.5887 0 52.9086 0H26.5179C25.8378 0 25.286 0.557761 25.286 1.24596C25.286 1.85693 25.2969 2.46499 25.3165 3.06947H19.9204C19.24 3.06947 18.6885 3.62723 18.6885 4.31543C18.6885 9.89823 20.1312 15.1653 22.7506 19.1469C25.3399 23.083 28.789 25.3407 32.5149 25.5603C33.3596 26.4899 34.2524 27.2479 35.1824 27.8261V34.6525H33.1158C30.6173 34.6525 28.5849 36.7084 28.5849 39.235V39.6069H28.4974C27.8169 39.6069 27.2654 40.165 27.2654 40.8529C27.2654 41.5411 27.8169 42.0988 28.4974 42.0988H50.9292C51.6096 42.0988 52.1611 41.5411 52.1611 40.8529C52.1611 40.165 51.6096 39.6069 50.9292 39.6069H50.8416V39.235C50.8416 36.7084 48.8093 34.6525 46.3108 34.6525H44.2441V27.8261C45.1741 27.2482 46.0673 26.4899 46.912 25.5603C50.6376 25.3407 54.0866 23.083 56.6762 19.1469C59.2956 15.1653 60.738 9.89823 60.738 4.31543C60.738 3.62723 60.1865 3.06947 59.5061 3.06947ZM24.8019 17.7666C22.6412 14.4826 21.3718 10.1873 21.1783 5.56139H25.4541C25.8985 11.248 27.2183 16.5044 29.2811 20.6767C29.6096 21.3413 29.9532 21.9691 30.3096 22.5603C28.2606 21.7777 26.3643 20.1417 24.8019 17.7666ZM48.3778 39.235V39.6072H31.0488V39.235C31.0488 38.0825 31.9759 37.1444 33.1158 37.1444H46.3108C47.4506 37.1444 48.3778 38.0825 48.3778 39.235ZM41.7803 34.6525H37.6463V28.9088C38.3235 29.0892 39.0136 29.183 39.7133 29.183C40.413 29.183 41.103 29.0892 41.7803 28.9088V34.6525ZM42.5432 25.9445C42.4877 25.9675 42.4344 25.9954 42.3834 26.0263C41.5127 26.4643 40.618 26.6911 39.7133 26.6911C38.8089 26.6911 37.9145 26.4643 37.0441 26.0269C36.9925 25.9954 36.9389 25.9675 36.8827 25.9438C35.9168 25.4273 34.9823 24.6473 34.0984 23.6223C34.0519 23.5551 33.9996 23.4931 33.9415 23.4367C33.0641 22.3831 32.2387 21.0872 31.4848 19.5622C29.2208 14.983 27.9132 8.96182 27.7643 2.49192H51.6622C51.5131 8.96182 50.2054 14.9833 47.9418 19.5622C47.1879 21.0872 46.3624 22.3831 45.4853 23.4367C45.4269 23.4931 45.374 23.5554 45.3278 23.6226C44.444 24.6479 43.5091 25.4276 42.5432 25.9445ZM54.6246 17.7666C53.0623 20.1417 51.1659 21.7777 49.1169 22.5603C49.4733 21.9691 49.8169 21.3413 50.1454 20.6767C52.2083 16.5044 53.5278 11.248 53.9724 5.56139H58.2482C58.0547 10.1873 56.7853 14.4826 54.6246 17.7666Z" fill="white"/>
</svg>
