<svg width="80" height="63" viewBox="0 0 80 63" fill="none" xmlns="http://www.w3.org/2000/svg">
<path fill-rule="evenodd" clip-rule="evenodd" d="M39.8698 27.2012C47.4149 27.2012 53.5534 21.1002 53.5534 13.6006C53.5534 6.10097 47.4149 0 39.8698 0C32.3247 0 26.1862 6.10097 26.1862 13.6006C26.1862 21.1002 32.3247 27.2012 39.8698 27.2012ZM39.8698 2.49234C46.0326 2.49234 51.0463 7.47592 51.0463 13.6012C51.0463 19.7264 46.0326 24.71 39.8698 24.71C33.7071 24.71 28.6928 19.7264 28.6928 13.6012C28.6934 7.47537 33.7071 2.49234 39.8698 2.49234ZM48.8638 30.6863C46.4727 32.7828 43.3444 34.0547 39.9253 34.0547C36.4271 34.0547 33.2332 32.7232 30.8219 30.5393C30.5494 30.565 30.2634 30.6123 29.9806 30.6994C29.9801 30.6945 29.9794 30.705 29.9787 30.7155L29.9787 30.7156C29.978 30.7262 29.9773 30.7366 29.9768 30.7314C23.7144 32.2464 20.345 37.7176 20.345 42.1518C20.345 42.4447 20.3967 43.4451 20.4721 43.4451L17.9358 43.4446C17.8522 42.8931 17.8384 42.1651 17.8384 42.1513C17.8384 38.7804 19.2125 35.244 21.707 32.6457C23.9599 30.2996 27.0509 28.6108 30.1881 28.0118C30.8611 27.8844 31.795 28.1116 32.0668 28.3074C32.1592 28.3738 32.2317 28.4452 32.2882 28.5208H32.3088C34.2982 30.4037 36.9797 31.5596 39.9253 31.5596C42.8709 31.5596 45.5523 30.4037 47.5416 28.5208H47.5487C47.6123 28.4452 47.6888 28.3739 47.7812 28.3075C48.0536 28.1117 48.7744 27.946 49.448 28.0745C52.5852 28.6729 55.6762 30.4246 57.9291 32.7708C60.4236 35.3684 61.7976 38.7807 61.7976 42.1516C61.7976 42.1654 61.7845 42.8934 61.7003 43.445H59.1634C59.2388 43.445 59.2905 42.4445 59.2905 42.1516C59.2905 37.7174 55.5339 31.9967 49.2716 30.4817C49.271 30.4871 49.2703 30.4924 49.2696 30.4977L49.2695 30.4979L49.2695 30.4981L49.2695 30.4984L49.2677 30.512C49.1308 30.567 48.9958 30.6259 48.8638 30.6863ZM64.6347 46.3992H15.3661V59.5952H64.6347V46.3992ZM13.9415 49.3607H0L7.15635 56.1801L0 62.9996H20.0377V61.0585H13.9415V49.3607ZM66.0581 49.3607V61.0585H59.9619V62.9996H79.9996L72.8432 56.1801L79.9996 49.3607H66.0581Z" fill="white"/>
<path d="M34.7578 55.4743V50.4001H36.5996C37.4497 50.4001 38.082 50.6132 38.4965 51.0392C38.911 51.4652 39.1183 52.0966 39.1183 52.9334C39.1183 53.7753 38.911 54.4093 38.4965 54.8353C38.082 55.2613 37.4497 55.4743 36.5996 55.4743H34.7578ZM35.6236 54.7668H36.513C37.1007 54.7668 37.5336 54.6223 37.8117 54.3332C38.0898 54.039 38.2289 53.5724 38.2289 52.9334C38.2289 52.2995 38.0898 51.8354 37.8117 51.5413C37.5336 51.2471 37.1007 51.1 36.513 51.1H35.6236V54.7668Z" fill="#384250"/>
<path d="M41.2556 55.5884C40.9723 55.5884 40.7309 55.5605 40.5315 55.5047C40.3374 55.4489 40.1458 55.3754 39.9569 55.2841V54.531C40.1616 54.6527 40.361 54.7541 40.5551 54.8353C40.7545 54.9113 40.988 54.9494 41.2556 54.9494C41.4865 54.9494 41.6649 54.9063 41.7909 54.8201C41.9168 54.7288 41.9798 54.6121 41.9798 54.4701C41.9798 54.3535 41.9378 54.2622 41.8538 54.1962C41.7751 54.1252 41.6728 54.0695 41.5469 54.0289C41.4209 53.9832 41.2898 53.9376 41.1533 53.8919C40.9644 53.8463 40.7755 53.7854 40.5866 53.7094C40.403 53.6282 40.2508 53.5141 40.1301 53.367C40.0094 53.22 39.9491 53.0171 39.9491 52.7584C39.9491 52.4744 40.0252 52.2462 40.1773 52.0738C40.3295 51.9013 40.5184 51.7771 40.744 51.701C40.9749 51.6199 41.2032 51.5793 41.4288 51.5793C41.7069 51.5844 41.9326 51.6173 42.1057 51.6782C42.2841 51.7391 42.4599 51.8101 42.6331 51.8912V52.5835C42.4389 52.4871 42.2579 52.4034 42.09 52.3324C41.9273 52.2614 41.7358 52.2259 41.5154 52.2259C41.3055 52.2259 41.1323 52.264 40.9959 52.34C40.8647 52.411 40.7991 52.5175 40.7991 52.6595C40.7991 52.7813 40.8359 52.8776 40.9093 52.9486C40.988 53.0196 41.0877 53.078 41.2084 53.1236C41.3344 53.1642 41.4682 53.2022 41.6098 53.2377C41.741 53.2732 41.8775 53.3163 42.0191 53.367C42.1608 53.4127 42.292 53.4761 42.4127 53.5572C42.5334 53.6333 42.6304 53.7373 42.7039 53.8691C42.7826 54.001 42.822 54.1709 42.822 54.3788C42.822 54.6679 42.7433 54.9012 42.5858 55.0787C42.4337 55.2562 42.2395 55.3855 42.0034 55.4667C41.7673 55.5478 41.518 55.5884 41.2556 55.5884Z" fill="#384250"/>
<path d="M45.1974 55.5732C44.8353 55.5732 44.552 55.4819 44.3473 55.2993C44.1427 55.1117 44.0404 54.8429 44.0404 54.4929V52.3172H43.4028V51.6554H44.0404V50.5903H44.8904V51.6554H45.8507V52.3172H44.8904V54.3332C44.8904 54.5107 44.9219 54.6451 44.9849 54.7364C45.0531 54.8226 45.1764 54.8657 45.3548 54.8657C45.5437 54.8657 45.709 54.8251 45.8507 54.744V55.4515C45.7562 55.492 45.6487 55.5225 45.528 55.5428C45.4125 55.563 45.3023 55.5732 45.1974 55.5732Z" fill="#384250"/>
</svg>
