<svg width="80" height="63" viewBox="0 0 80 63" fill="none" xmlns="http://www.w3.org/2000/svg">
<path fill-rule="evenodd" clip-rule="evenodd" d="M67.7589 17.2643C67.3267 16.3194 67.0889 15.467 67.0843 14.6207L67.0584 14.5205L67.0584 14.5205L67.0584 14.5205L67.0584 14.5204L67.0584 14.5204C67.0457 14.4712 67.033 14.4223 67.0207 14.3736L67.0499 14.2098L67.0791 14.0459L67.0667 13.5905C67.0915 13.5333 67.1167 13.4765 67.1419 13.4195L67.1654 13.3661C67.1753 13.3016 67.1827 13.2237 67.1906 13.1403L67.1906 13.1403L67.1906 13.1403L67.1906 13.1403V13.1403C67.2122 12.9135 67.2377 12.6456 67.3272 12.4925L67.3495 12.4708L67.3717 12.4491C68.1011 12.4946 68.5415 12.7401 69.1908 13.1702C69.2347 13.185 69.2788 13.1996 69.3229 13.2142C69.3669 13.2288 69.411 13.2434 69.4549 13.2581C69.594 13.3992 69.7325 13.5398 69.871 13.681C70.2489 13.9534 70.8051 14.5949 71.0305 15.1671L71.0556 15.3245L71.0807 15.4819L71.2036 15.7633L71.3267 16.0449C71.3218 16.134 71.3174 16.2236 71.313 16.3129L71.3122 16.3292C71.4554 17.042 71.4937 17.8019 71.2425 18.4315L71.2404 18.5486L71.2383 18.6657C71.2054 18.7506 71.1735 18.8454 71.1408 18.9425C71.0743 19.1401 71.0046 19.347 70.9173 19.4985C70.6408 19.6649 70.2612 19.4493 69.9958 19.2986L69.9957 19.2986C69.9594 19.278 69.9253 19.2586 69.8938 19.2416C69.8589 19.233 69.8239 19.2246 69.7889 19.2162C69.7539 19.2078 69.7188 19.1994 69.6839 19.1909L69.5553 19.0868L69.4265 18.9826C68.8847 18.628 68.1523 18.1235 67.7589 17.2643ZM73.7033 21.485L73.8149 21.6727L73.8143 21.681C73.8109 21.7242 73.8075 21.767 73.8046 21.8102C73.831 21.8606 73.8574 21.9109 73.8839 21.9611C73.9104 22.0114 73.9369 22.0617 73.9633 22.1121L73.9649 22.1283C73.9711 22.1911 73.9772 22.2535 73.9829 22.3163L74.1452 22.5143C74.3184 22.8875 74.6606 23.5585 75.0576 23.6985C75.7255 23.3331 76.1241 22.8756 76.475 22.3793L77.0535 21.5373C77.1296 21.3945 77.1681 21.2483 77.2062 21.1032L77.2062 21.1032L77.2062 21.1032L77.2062 21.1032L77.2062 21.1032L77.2062 21.1032L77.2062 21.1032L77.2062 21.1032C77.23 21.0129 77.2536 20.923 77.2861 20.8348C77.6185 19.9286 77.6082 19.0301 77.2458 17.9787L77.2055 17.744L77.1429 17.6618L77.0804 17.5796C77.0612 17.5006 77.0421 17.4209 77.0235 17.3419C76.9834 17.286 76.9435 17.23 76.9035 17.174C76.8636 17.1181 76.8237 17.0622 76.7836 17.0064L76.7415 16.8891L76.6994 16.7717C76.577 16.6356 76.4542 16.4995 76.3317 16.3637L76.3302 16.3621L76.3287 16.3604L76.2972 16.3256C76.2334 16.2576 76.1848 16.1971 76.1417 16.1435L76.1417 16.1435C76.0478 16.0269 75.9803 15.943 75.8408 15.8857L75.756 15.912C75.6141 16.0017 75.5409 16.1024 75.4669 16.2043C75.4398 16.2416 75.4125 16.2791 75.3817 16.3163C75.3281 16.3811 75.2745 16.4451 75.2213 16.5085L75.2213 16.5086L75.2213 16.5086C75.0119 16.7584 74.8097 16.9998 74.6436 17.2488L74.1365 18.0009L74.0232 18.4662L73.9245 18.6686L73.8258 18.8709L73.817 19.0216L73.8082 19.1723C73.5642 19.9032 73.6045 20.4931 73.725 21.2984C73.7167 21.3598 73.71 21.4222 73.7033 21.4846V21.4846L73.7033 21.485ZM75.7563 24.7176C75.7065 24.8214 75.6499 24.9149 75.5943 25.0067C75.5129 25.1411 75.4337 25.2718 75.3815 25.4263C75.3551 25.5045 75.3419 25.5946 75.3287 25.6845L75.3287 25.6845C75.3154 25.7757 75.3021 25.8667 75.275 25.9448C75.2399 26.0456 75.1282 26.3738 75.1246 26.4633C75.1196 26.5814 75.1298 26.6899 75.1401 26.799C75.15 26.9033 75.1599 27.0082 75.1566 27.1229L75.1055 27.3302L75.1861 27.538L75.1874 27.725L75.1887 27.9127L75.2494 28.0469L75.3102 28.181L75.3368 28.3519L75.3634 28.5227C75.382 28.6339 75.5154 28.9249 75.6234 28.9755C75.7487 29.0338 76.0469 28.9298 76.2112 28.8725L76.2375 28.8634C76.8454 28.6525 77.6886 28.1469 78.2143 27.6563C79.4218 26.5294 79.9811 24.759 79.565 23.3105C79.5464 23.2455 79.5499 23.1809 79.5533 23.1183C79.5558 23.073 79.5582 23.0286 79.5521 22.9859C79.5268 22.8034 79.1732 21.9505 79.0124 21.8765C78.8503 21.9079 78.6723 22.0226 78.4929 22.1382C78.3118 22.2548 78.1292 22.3724 77.9599 22.4064C76.8232 23.1265 76.1677 23.8585 75.7563 24.7176ZM63.9548 40.7861C64.0381 40.9536 64.1213 41.1211 64.2045 41.2891L64.2278 41.5636C64.5183 42.3979 65.6369 43.5853 66.2092 43.8588C66.2799 43.8926 66.3443 43.9419 66.407 43.9898C66.5776 44.1204 66.7349 44.2408 66.9716 44.0113C67.0332 43.835 67.1462 43.6719 67.2595 43.5082C67.3536 43.3724 67.448 43.2361 67.5134 43.0917L67.5138 43.0888L67.5138 43.0888C67.5251 43.0194 67.5363 42.9501 67.548 42.8807C67.792 42.2485 67.8535 41.8903 67.8644 41.2105L67.9093 40.9061C67.8835 40.8311 67.8577 40.7562 67.8318 40.6817C67.8468 40.6094 67.8618 40.5365 67.8763 40.4641L67.821 40.3173L67.8209 40.317C67.7956 40.2498 67.7704 40.1826 67.745 40.1157L67.7183 39.9015L67.6917 39.6872L67.687 39.6778C67.6302 39.5646 67.5733 39.4514 67.5165 39.3387C67.44 39.0544 67.3392 38.7262 67.1257 38.4072C67.0599 38.3088 66.9945 38.2066 66.9288 38.1039C66.7183 37.7749 66.5043 37.4404 66.2609 37.2064L65.9223 36.9645L65.8037 36.8297L65.8036 36.8296L65.8035 36.8295C65.7191 36.7336 65.6347 36.6377 65.5506 36.5416C65.4377 36.4748 65.3317 36.4757 65.2113 36.4768H65.2111H65.211H65.2109H65.2107H65.2106H65.2104H65.2103H65.2102H65.21C65.1875 36.4771 65.1644 36.4773 65.1407 36.477C65.032 36.5501 65.0024 36.6251 64.972 36.7023C64.9583 36.737 64.9444 36.7722 64.9231 36.8079C64.8233 36.9216 64.7235 37.0353 64.6237 37.1485C64.6175 37.1793 64.6112 37.2099 64.6049 37.2405C64.5985 37.2712 64.5922 37.3018 64.586 37.3325L64.5043 37.4295L64.4227 37.5264C64.4077 37.5988 64.3927 37.6716 64.3782 37.744L64.3317 37.8112C64.2802 37.8858 64.2288 37.9602 64.1771 38.0345L64.1522 38.1426C64.0477 38.5946 63.9484 39.0247 63.9124 39.4969L63.8817 39.6039L63.8509 39.7109C63.8491 39.8715 63.8802 40.0156 63.9121 40.164L63.9121 40.164C63.9353 40.2716 63.9589 40.3814 63.9709 40.5013C63.9739 40.538 63.9669 40.5769 63.9597 40.6169C63.9498 40.6723 63.9395 40.7297 63.9548 40.7861ZM72.0039 41.8248C72.1176 41.7714 72.2343 41.7166 72.3488 41.6647L72.5183 41.5685L72.6884 41.4719C73.5863 41.2073 74.7753 41.0599 75.5817 41.2584L75.6851 41.2486L75.7884 41.2388L75.87 41.2724L75.9513 41.306L76.0971 41.2827C76.1534 41.2858 76.4646 41.3959 76.5271 41.4213C76.6523 41.6625 76.3781 42.2327 76.1966 42.6102C76.1495 42.7083 76.1086 42.7934 76.0826 42.8563C75.6949 43.7929 74.6253 44.9436 73.2989 45.2869C73.1208 45.3601 72.9426 45.4338 72.7645 45.5075L72.7592 45.5097L72.6171 45.4724C72.5451 45.4647 72.4824 45.495 72.4149 45.5276C72.3694 45.5495 72.3217 45.5725 72.2676 45.5856L71.9657 45.5515C71.8744 45.5531 71.7872 45.5636 71.7009 45.5741C71.5846 45.5881 71.4699 45.602 71.3485 45.5934L71.1082 45.519C71.0403 45.5132 70.9719 45.5087 70.9034 45.5042L70.903 45.5042L70.9025 45.5042L70.9021 45.5041L70.9016 45.5041L70.9012 45.5041L70.9007 45.504C70.6356 45.4865 70.3685 45.4689 70.1218 45.3825C70.0402 45.3339 69.959 45.2858 69.8779 45.2378C69.8225 45.2144 69.7686 45.2092 69.7175 45.2043C69.6016 45.1932 69.5003 45.1835 69.4307 44.9653C69.4052 44.8143 69.5058 44.6209 69.5949 44.4495C69.6339 44.3746 69.6707 44.3038 69.6938 44.2427L69.7026 44.1357L69.7114 44.0287C69.7391 43.9935 69.7668 43.9585 69.7946 43.9235C69.8224 43.8885 69.8502 43.8534 69.8779 43.8183C70.0045 43.5314 70.2278 43.1597 70.4703 42.909C70.5525 42.8456 70.6346 42.7822 70.7166 42.7187L70.7186 42.7172L70.7199 42.7162L70.7207 42.7155L70.7212 42.7152L70.7213 42.7151L70.7213 42.7151L70.7214 42.715L70.7215 42.715C70.8019 42.6528 70.8823 42.5906 70.9629 42.5285C70.9845 42.5053 71.0063 42.481 71.0286 42.4561L71.0287 42.456C71.1097 42.3655 71.1982 42.2666 71.3165 42.1811L71.6664 41.9811C71.772 41.9336 71.8864 41.8799 72.0039 41.8248ZM72.108 30.1423C72.1046 30.1985 72.1013 30.2531 72.1137 30.303C72.1541 30.4214 72.1944 30.5398 72.2352 30.6587C72.2333 30.6831 72.222 30.7083 72.2105 30.7339C72.1974 30.7631 72.184 30.7928 72.184 30.8226L72.2109 30.9063L72.2378 30.99C72.2542 31.0612 72.2389 31.1202 72.2237 31.1789C72.2145 31.2144 72.2053 31.2498 72.2032 31.2878L72.2435 31.5225C72.2228 31.5697 72.2019 31.6166 72.1809 31.6637L72.1618 31.7065C72.1587 31.7454 72.156 31.7845 72.1532 31.8236C72.1351 32.0829 72.1169 32.3447 71.9835 32.5765C71.7462 32.7119 70.8984 32.4023 70.655 32.302L70.5601 32.2917L70.4652 32.2813L70.2145 32.1268L70.0011 32.0927L69.7607 31.8879C69.7312 31.8807 69.7019 31.8733 69.6725 31.866C69.6432 31.8586 69.6139 31.8512 69.5844 31.844L69.3001 31.5954L69.1256 31.4995L68.9512 31.4036C68.3887 30.9394 67.6806 29.8481 67.4443 29.1601C67.4207 29.0913 67.4242 29.0209 67.4275 28.9532C67.4302 28.8992 67.4328 28.8468 67.4216 28.7983C67.4051 28.7604 67.3884 28.7227 67.3717 28.685L67.3373 28.607C67.3197 28.5325 67.3251 28.4639 67.3304 28.397C67.3337 28.3562 67.3369 28.316 67.3347 28.2756C67.3284 28.1614 67.3119 28.0572 67.2957 27.9554C67.2734 27.8152 67.2518 27.6796 67.2587 27.5287L67.327 27.3245C67.3197 27.0454 67.3637 26.1904 67.632 26.0094C67.6858 25.9889 67.7397 25.9679 67.7936 25.9468L67.7938 25.9468L67.7948 25.9464C68.6317 26.2338 69.4764 26.5905 70.2466 27.1947L70.4208 27.3994L70.595 27.6042C71.1946 28.1449 71.6454 28.7693 71.892 29.5359L71.9949 29.7437L72.0977 29.9515C72.1158 30.0141 72.1118 30.0792 72.108 30.1423ZM71.2945 21.7874L71.4832 22.2435L71.6719 22.6993L71.9386 23.1619L71.9585 23.3227L71.9784 23.4835C72.0414 23.6239 72.1045 23.7644 72.1677 23.9047L72.1678 23.9049L72.1679 23.9051L72.1692 23.908L72.1694 23.9084L72.1695 23.9088L72.2751 24.1436L72.2868 24.33L72.2979 24.5054L72.4901 24.9009C72.5455 25.2564 72.6165 25.614 72.6879 25.9732L72.6879 25.9732L72.688 25.9732L72.688 25.9733L72.688 25.9733L72.688 25.9733L72.688 25.9734C72.7373 26.2215 72.7868 26.4704 72.8313 26.72C72.8599 26.8801 72.8582 27.1491 72.857 27.339L72.8567 27.4132C72.8561 27.5569 72.8846 27.6963 72.9132 27.836L72.9132 27.836L72.9132 27.836C72.9431 27.9822 72.973 28.1286 72.9699 28.2806C72.9652 28.4933 72.9589 28.707 72.9526 28.9212L72.9526 28.9214L72.9526 28.9215C72.9388 29.3919 72.925 29.8652 72.9275 30.3364L72.8796 30.484L72.8318 30.6311C72.8398 30.7845 72.8196 30.9162 72.7991 31.0495C72.7876 31.1245 72.776 31.2001 72.7693 31.2803L72.7843 31.401L72.7993 31.5217C72.7959 31.6527 72.7701 31.7875 72.7442 31.923L72.7442 31.9231C72.7228 32.0347 72.7014 32.1469 72.6923 32.2578C72.6628 32.3302 72.6333 32.4026 72.6033 32.4755L72.6096 32.6595C72.5981 32.7327 72.5704 32.8093 72.5426 32.8863C72.5077 32.9827 72.4727 33.0796 72.469 33.1713C72.4624 33.3448 72.417 33.491 72.3689 33.6456C72.353 33.6969 72.3368 33.749 72.3216 33.8035L72.3108 34.0278C72.2641 34.1592 72.2218 34.2891 72.1795 34.4188L72.1795 34.4188L72.1795 34.4189L72.1795 34.4189L72.1795 34.419L72.1794 34.419C72.123 34.5924 72.0666 34.7653 72.0001 34.9412L71.998 35.0366L71.996 35.132C71.932 35.3394 71.8547 35.541 71.7777 35.742C71.6685 36.027 71.5598 36.3105 71.4904 36.6073C71.4382 36.6895 71.386 36.7722 71.3338 36.8549C71.3043 36.9324 71.2787 37.0195 71.2529 37.1075C71.2204 37.2185 71.1874 37.3308 71.1456 37.4271L71.1012 37.4939C71.0649 37.5485 71.0286 37.6029 70.9926 37.6577L70.9647 37.8784C70.9114 37.9518 70.8582 38.0252 70.805 38.0991C70.777 38.1711 70.7488 38.252 70.7201 38.3344C70.6771 38.4579 70.6328 38.585 70.5863 38.691L70.4162 38.9185C70.4064 38.9585 70.3967 38.9987 70.387 39.0388L70.387 39.0392C70.3773 39.0793 70.3676 39.1194 70.3578 39.1594L70.181 39.3765C70.1717 39.4354 70.1624 39.4949 70.1536 39.5538L69.9598 39.8112C69.9157 39.893 69.876 39.9948 69.8356 40.0981C69.7874 40.2216 69.7383 40.3472 69.6801 40.4434L69.4795 40.6905L69.4144 40.9216L69.4117 40.9244C69.349 40.9891 69.2863 41.0538 69.2242 41.1185L69.1864 41.2372L69.1487 41.3558C69.0663 41.5251 68.9594 41.6597 68.8483 41.7997L68.8483 41.7997L68.8482 41.7998L68.8482 41.7998L68.8482 41.7998L68.8482 41.7998C68.7781 41.8881 68.7063 41.9785 68.638 42.081C68.5985 42.1407 68.577 42.2067 68.556 42.2714C68.5393 42.3228 68.5228 42.3734 68.4979 42.4191L68.4948 42.4223C68.4323 42.4869 68.3697 42.5515 68.3077 42.6161L68.3065 42.6189L68.3064 42.619L68.3064 42.6191L68.3064 42.6192L68.3063 42.6193C68.2716 42.704 68.2369 42.7888 68.2017 42.8735L68.0877 42.9769L67.9737 43.0803C67.9475 43.1459 67.9211 43.2116 67.8948 43.2772L67.8946 43.2776L67.8476 43.3946C67.7489 43.5026 67.6501 43.6106 67.5519 43.7187L67.4496 43.9596L67.2014 44.2232L67.065 44.5008C67.0113 44.5729 66.9479 44.6326 66.8867 44.6902C66.7969 44.7747 66.7121 44.8546 66.6705 44.9619C66.6337 45.0572 66.5582 45.1344 66.4799 45.2145C66.4264 45.2692 66.3716 45.3253 66.3268 45.3894L66.1562 45.7037C66.0868 45.7612 66.0174 45.8191 65.9484 45.8768L65.947 45.8779L65.9465 45.8783L65.9117 45.9074L65.5814 46.399C65.5329 46.4525 65.4812 46.5025 65.431 46.551C65.2635 46.7129 65.1122 46.859 65.1523 47.071C65.1926 47.2819 65.5261 47.4695 65.6496 47.5274C65.6986 47.5505 65.7388 47.5731 65.7759 47.5939C65.8585 47.6404 65.9255 47.6781 66.0394 47.6923C66.2862 47.5259 66.4155 47.3276 66.5352 47.1439L66.5353 47.1438C66.5673 47.0947 66.5986 47.0467 66.6313 47.0007C66.7538 46.8771 66.8763 46.7536 66.9983 46.63C67.0495 46.5385 67.1006 46.447 67.1518 46.3561L67.286 46.2392L67.4201 46.1224C67.4664 46.068 67.4912 46.0002 67.5147 45.9358C67.5288 45.8975 67.5423 45.8605 67.5597 45.8283L67.735 45.6411L67.9101 45.454L67.9115 45.4506C67.9405 45.3794 67.9696 45.3081 67.9991 45.2364L68.1168 45.1158L68.2338 44.996L68.2345 44.9946C68.3046 44.8669 68.3746 44.7392 68.4452 44.6114C68.4867 44.5699 68.5283 44.5286 68.5699 44.4872L68.5708 44.4863L68.5727 44.4844C68.6152 44.4422 68.6577 44.4 68.7 44.3576L68.7359 44.2472L68.7719 44.1369C68.8719 43.9863 68.9727 43.8625 69.0719 43.7408C69.1814 43.6064 69.2889 43.4744 69.3911 43.3113L69.4457 43.174L69.5002 43.0369L69.614 42.9117L69.7282 42.7861C69.7473 42.7205 69.767 42.6543 69.7866 42.5887L69.9805 42.3747L70.0207 42.2691C70.0391 42.2206 70.0575 42.1722 70.0761 42.124L70.2937 41.88L70.3759 41.6091L70.4626 41.509L70.5496 41.4085L70.5512 41.4049C70.6008 41.2913 70.6504 41.1778 70.6995 41.0643C70.7527 41.0053 70.806 40.9464 70.8592 40.8869L70.9616 40.5592C71.6656 39.285 72.21 38.0361 72.7347 36.7334L72.7383 36.6295L72.7419 36.5256C72.7969 36.3865 72.8511 36.2536 72.9048 36.1219L72.9049 36.1219L72.9049 36.1218L72.9049 36.1218L72.9049 36.1218L72.9049 36.1217C72.9774 35.9441 73.049 35.7685 73.1208 35.5822C73.128 35.5052 73.1348 35.4282 73.1415 35.3511L73.1425 35.3498C73.1706 35.3125 73.1987 35.2752 73.2268 35.2374L73.2206 35.0534L73.34 34.8595C73.3555 34.793 73.3598 34.7191 73.3641 34.6447C73.3696 34.5481 73.3752 34.4507 73.4056 34.3674C73.7018 33.5564 73.8719 32.5297 73.9246 31.6665L73.9401 31.6323C73.9566 31.5958 73.9731 31.5594 73.9892 31.5228C74.043 31.2105 74.0425 30.859 74.0327 30.5385C74.0294 30.4311 74.0612 30.3099 74.0925 30.191L74.0925 30.191C74.1151 30.1051 74.1374 30.0204 74.1459 29.943L74.1055 29.7523C74.1014 29.5274 74.1299 29.2834 74.1583 29.0658L74.0947 28.7742C74.094 28.6645 74.0968 28.556 74.0995 28.4475C74.1075 28.128 74.1155 27.8095 74.0368 27.4649L74.0372 27.4559L74.0372 27.4558L74.0372 27.4558L74.0372 27.4557C74.0417 27.3641 74.0463 27.2721 74.0513 27.18L74.0128 27.0024L73.9742 26.8249C73.983 26.6155 73.9562 26.31 73.9288 26.1017L73.9274 26.0975L73.9272 26.097C73.8828 25.959 73.8383 25.821 73.7944 25.683L73.8047 25.5676L73.815 25.4519L73.6972 25.1671C73.6849 25.108 73.6884 25.0505 73.692 24.992C73.6958 24.9298 73.6997 24.8664 73.6848 24.7985C73.6253 24.659 73.5659 24.5194 73.5059 24.3798L73.4966 24.1255C73.4372 23.9859 73.3777 23.8464 73.3178 23.7068L73.2511 23.2581L73.0216 22.829C72.9826 22.7334 72.957 22.6454 72.9307 22.5554C72.8998 22.4493 72.868 22.3404 72.8127 22.2123C72.7974 22.177 72.7794 22.1346 72.759 22.0866C72.5581 21.6136 72.1262 20.5966 71.8305 20.4656L71.8295 20.466L71.8294 20.4661L71.8293 20.4661L71.8292 20.4662L71.829 20.4662C71.7753 20.4872 71.7215 20.5082 71.6677 20.5287L71.3162 20.7807L70.9647 21.0327C70.9613 21.2281 71.035 21.3445 71.1295 21.4938C71.1813 21.5756 71.2394 21.6674 71.2945 21.7874ZM66.7887 31.4227L66.7887 31.4227C66.6368 31.3384 66.4967 31.2605 66.309 31.2503C66.0955 31.4545 66.0347 31.7856 65.9816 32.0749C65.9641 32.1702 65.9474 32.2609 65.9264 32.341C65.6354 33.4499 65.684 35.2157 66.95 36.5085L67.2351 36.8352L67.5212 37.163L67.7481 37.2607L67.8427 37.3581L67.9373 37.4556C67.9892 37.4964 68.0495 37.5124 68.1077 37.5279C68.1452 37.5379 68.1819 37.5476 68.2149 37.5636L68.3735 37.691L68.5328 37.819C68.8187 37.9451 69.1764 38.0738 69.4814 38.1394C69.5132 38.1463 69.5528 38.16 69.5967 38.1753C69.7552 38.2303 69.9709 38.3052 70.0882 38.1477C70.1511 38.0479 70.1715 37.9184 70.1903 37.7997C70.203 37.7192 70.2149 37.6437 70.2387 37.5858C71.0032 35.7306 69.5904 32.8549 67.4969 31.7766C67.4136 31.7104 67.3299 31.6442 67.2467 31.5786C67.1918 31.5689 67.1367 31.5597 67.0813 31.5505L67.0172 31.5398C66.9343 31.5036 66.8602 31.4624 66.7887 31.4227ZM65.7917 21.4351L65.8227 21.1538C65.7991 21.0841 65.7757 21.014 65.7524 20.9441L65.7524 20.944L65.7354 20.8928C65.7219 20.7139 65.7902 19.6646 65.878 19.554C66.4606 19.5481 66.9644 19.7294 67.4802 19.915L67.4802 19.915C67.6985 19.9936 67.9189 20.0729 68.1484 20.1391L68.25 20.2247L68.3515 20.3102C68.4202 20.3392 68.4886 20.3685 68.5572 20.3979L68.6193 20.4245L68.7766 20.5604L68.9341 20.6964C68.9851 20.7166 69.0359 20.737 69.0866 20.7573L69.1952 20.8008L69.3744 21.0023L69.5534 21.2035C70.0135 21.6046 70.6121 22.2223 70.8612 22.9109L70.8964 23.0834L70.9315 23.2557L71.1238 23.6946C71.1218 23.7783 71.1192 23.862 71.1166 23.9458C71.1242 23.9957 71.1326 24.0481 71.1414 24.1024L71.1414 24.1026C71.2185 24.5807 71.3194 25.2071 71.0752 25.5664C70.5935 25.6873 70.0548 25.5798 69.6206 25.432C69.5198 25.3978 69.4056 25.3802 69.2924 25.3628C69.207 25.3497 69.1222 25.3367 69.0442 25.3167L68.8106 25.1652C68.737 25.1313 68.6482 25.1013 68.5567 25.0704L68.5567 25.0704C68.4085 25.0204 68.2531 24.968 68.1432 24.8923L68.0045 24.7732L67.8656 24.654C67.7973 24.6251 67.7292 24.596 67.661 24.5668L67.6601 24.5664L67.5979 24.5397C67.5063 24.4317 67.4141 24.3236 67.322 24.2155L67.322 24.2155L67.3208 24.2141C67.2632 24.1722 67.2057 24.1302 67.1482 24.0883C67.0907 24.0462 67.0331 24.0042 66.9755 23.9623C66.3216 23.417 65.892 22.0357 65.7917 21.4351ZM79.973 29.3589C79.9585 29.3152 79.9439 29.2716 79.9293 29.2281C79.9147 29.1845 79.9001 29.141 79.8856 29.0973C79.8768 29.0365 79.8802 28.9774 79.8835 28.9203C79.8927 28.761 79.901 28.6168 79.6396 28.4904C79.1139 28.6527 78.5618 28.8192 78.0345 28.9619L77.24 29.3951C76.4698 29.8929 75.9787 30.4294 75.5879 30.9981C75.4892 31.1061 75.3904 31.2141 75.2922 31.3222C75.2772 31.3945 75.2622 31.4674 75.2478 31.5398L75.1696 31.6414L75.0911 31.7435C75.0818 31.8024 75.0725 31.8618 75.0637 31.9208L74.982 32.0395L74.9004 32.158L74.8968 32.2619L74.8931 32.3659C74.8732 32.43 74.8437 32.4945 74.8141 32.5594C74.766 32.6647 74.7175 32.7708 74.7086 32.8776L74.7179 33.1319C74.6817 33.2927 74.6404 33.5114 74.6419 33.6742L74.7024 33.9389L74.6817 34.0392L74.661 34.1394C74.7014 34.2433 74.7417 34.3472 74.7825 34.4511C74.791 34.4876 74.7881 34.52 74.7852 34.5527C74.7811 34.5973 74.7771 34.6423 74.8022 34.6988C75.7254 34.8869 77.2969 34.3762 78.3049 33.4488C78.3886 33.3842 78.4725 33.3197 78.5564 33.2552C78.6402 33.1907 78.7241 33.1263 78.8078 33.0616C79.4013 32.339 79.9084 31.3041 79.9063 30.4594C79.9061 30.3649 79.9294 30.2626 79.9528 30.1598C79.9782 30.0484 80.0037 29.9364 79.9994 29.8334L79.9389 29.6556L79.973 29.3589ZM78.4658 35.111C78.5268 35.1286 78.5878 35.1467 78.6488 35.1648C78.6874 35.1667 78.7424 35.1648 78.8069 35.1626C79.0849 35.1529 79.5378 35.1372 79.5974 35.3995C79.6449 35.6158 79.4484 36.1712 79.3394 36.4793C79.3239 36.5231 79.3101 36.562 79.2991 36.5941C79.2733 36.6696 79.251 36.754 79.2281 36.8402C79.1906 36.9821 79.1517 37.129 79.0939 37.2496L78.8763 37.537C78.8659 37.5727 78.8557 37.6084 78.8455 37.6441C78.8353 37.6797 78.8251 37.7154 78.8147 37.751C78.7188 37.8566 78.6223 37.9622 78.5258 38.0678L78.5191 38.0751C78.4975 38.1082 78.4765 38.1454 78.4546 38.184C78.4073 38.2677 78.3561 38.3581 78.2875 38.4292L77.6284 38.9332C77.4149 39.1281 77.1476 39.2697 76.9016 39.3798L76.3717 39.6833L75.8967 39.7624C75.8328 39.7874 75.7689 39.8124 75.7049 39.8373C75.6409 39.8623 75.577 39.8872 75.5131 39.9123C75.4454 39.8983 75.3777 39.8849 75.31 39.8714C75.1854 39.905 75.0613 39.9381 74.9367 39.9712C74.7998 39.9856 74.6469 39.9652 74.5013 39.9457C74.4326 39.9365 74.3655 39.9276 74.3025 39.9226C74.2448 39.918 74.1702 39.9141 74.0859 39.9098C73.7371 39.8918 73.2206 39.8651 73.035 39.7386C72.7599 39.5509 73.0799 38.6618 73.1978 38.4731C73.2224 38.4339 73.2176 38.3927 73.2129 38.3518C73.2093 38.3204 73.2057 38.2892 73.2154 38.2591C73.2482 38.156 73.3146 38.0415 73.3762 37.9354C73.4087 37.8794 73.4399 37.8258 73.464 37.7773C73.5271 37.7117 73.5907 37.646 73.6542 37.5804C73.6728 37.5322 73.6912 37.4837 73.7096 37.4353C73.723 37.4001 73.7364 37.3649 73.7499 37.3297C73.8085 37.2307 73.9009 37.1549 73.9979 37.0753C74.055 37.0285 74.1137 36.9804 74.1681 36.9254L74.3759 36.6448C74.614 36.3994 74.9366 36.1959 75.2687 35.9863C75.2928 35.9712 75.3169 35.956 75.341 35.9407L75.694 35.7675C75.906 35.6847 76.1181 35.6021 76.3303 35.5195C76.4824 35.4602 76.6346 35.4009 76.7868 35.3416C76.8292 35.3429 76.8716 35.344 76.914 35.3452C76.9564 35.3464 76.9988 35.3475 77.0412 35.3488L77.3601 35.2123C77.4115 35.2123 77.463 35.2125 77.5144 35.2126C77.5658 35.2127 77.6173 35.2129 77.6687 35.2129C77.7276 35.1984 77.7864 35.184 77.8452 35.1697C77.904 35.1553 77.9629 35.141 78.0218 35.1265C78.0495 35.1351 78.0772 35.1435 78.1049 35.1519C78.1325 35.1603 78.1601 35.1687 78.1877 35.1772C78.234 35.1661 78.2804 35.1551 78.3268 35.1441C78.3732 35.1331 78.4196 35.1221 78.4658 35.111Z" fill="white"/>
<path fill-rule="evenodd" clip-rule="evenodd" d="M8.75706 18.4315L8.75912 18.5486L8.76119 18.6656C8.79407 18.7505 8.826 18.8453 8.85869 18.9425C8.9252 19.14 8.99487 19.347 9.0822 19.4984C9.35803 19.6645 9.73657 19.4499 10.0019 19.2995L10.0019 19.2995C10.0389 19.2785 10.0737 19.2588 10.1057 19.2415C10.1405 19.233 10.1754 19.2246 10.2103 19.2162L10.2107 19.2162L10.211 19.2161C10.2459 19.2077 10.2808 19.1993 10.3156 19.1908L10.4444 19.0866L10.573 18.9825C11.1148 18.6279 11.8473 18.1234 12.2401 17.2642C12.6723 16.3193 12.9106 15.4669 12.9147 14.6207L12.9783 14.3725L12.9491 14.2088L12.9199 14.0448L12.9323 13.5894L12.9091 13.5369C12.8838 13.4796 12.8585 13.4225 12.8336 13.365C12.8237 13.3005 12.8163 13.2226 12.8084 13.1392V13.1392C12.7868 12.9124 12.7613 12.6445 12.6718 12.4914L12.6498 12.4697L12.6278 12.448C11.8984 12.4935 11.458 12.739 10.8087 13.1691C10.7648 13.1839 10.7208 13.1985 10.6767 13.2131L10.6767 13.2131C10.6326 13.2277 10.5885 13.2423 10.5446 13.257C10.4753 13.3276 10.4059 13.398 10.3365 13.4684C10.2671 13.5389 10.1977 13.6093 10.1285 13.6799C9.75059 13.9523 9.19438 14.5938 8.969 15.166L8.9439 15.3236L8.91886 15.4808L8.79594 15.7621L8.6728 16.0438L8.67345 16.057V16.057C8.67789 16.1472 8.68234 16.2379 8.68727 16.3281C8.54408 17.042 8.50583 17.8019 8.75706 18.4315ZM2.94588 21.536L3.52433 22.3781C3.87532 22.8743 4.27439 23.3318 4.94175 23.6973C5.33927 23.5572 5.68148 22.8862 5.85413 22.513L6.01644 22.315L6.01804 22.2988C6.02423 22.236 6.03037 22.1737 6.03608 22.1108C6.06245 22.0604 6.08894 22.0102 6.11544 21.9599C6.14193 21.9096 6.16842 21.8594 6.19479 21.8089L6.19402 21.7993L6.19401 21.7992C6.19066 21.7565 6.18733 21.7142 6.18444 21.6714C6.22166 21.6089 6.25888 21.5463 6.29558 21.4838L6.28525 21.39L6.27491 21.2962C6.39484 20.4913 6.43568 19.901 6.19169 19.17L6.1829 19.0193L6.17411 18.8687L6.07538 18.6663L5.97664 18.4639L5.86343 17.9987L5.35633 17.2465C5.19168 16.9997 4.9915 16.7607 4.78413 16.5131L4.78405 16.513L4.78393 16.5129L4.78368 16.5126C4.72883 16.4471 4.67348 16.381 4.61815 16.314C4.58737 16.2768 4.56013 16.2393 4.533 16.202L4.53299 16.202C4.45895 16.1001 4.38575 15.9994 4.24389 15.9097L4.15911 15.8834C4.01889 15.9409 3.95131 16.025 3.85727 16.142C3.81438 16.1954 3.76598 16.2556 3.70267 16.3233C3.58075 16.4589 3.45841 16.5944 3.33642 16.7296L3.3005 16.7694L3.25835 16.8868L3.21624 17.0041C3.17622 17.0599 3.13633 17.1158 3.09644 17.1716L3.09631 17.1718L3.09618 17.172C3.05629 17.2279 3.0164 17.2838 2.97638 17.3396C2.95726 17.4187 2.93813 17.4983 2.91952 17.5774L2.85697 17.6596L2.79442 17.7417L2.7541 17.9764C2.39225 19.0279 2.38192 19.9263 2.71378 20.8325C2.74587 20.9205 2.76926 21.0099 2.79274 21.0996L2.79275 21.0997C2.83094 21.2456 2.86938 21.3926 2.94588 21.536ZM3.76135 28.8642L3.78935 28.874C3.95399 28.9314 4.25058 29.035 4.37546 28.9764C4.4835 28.9263 4.61687 28.6347 4.63547 28.5236L4.6621 28.3527L4.68872 28.1819L4.74949 28.0477L4.8102 27.9136L4.81149 27.7266L4.81278 27.5388L4.89343 27.331L4.84225 27.1237C4.83897 27.0091 4.84889 26.9042 4.85875 26.7999C4.86907 26.6907 4.87932 26.5823 4.8743 26.4641C4.87068 26.3742 4.75851 26.0465 4.72387 25.9457C4.69681 25.8673 4.68351 25.7765 4.67017 25.6854L4.67017 25.6854C4.65701 25.5955 4.64383 25.5055 4.61739 25.4272C4.56515 25.2723 4.48588 25.1415 4.40444 25.0072C4.34887 24.9156 4.2923 24.8222 4.24261 24.7185C3.83113 23.8588 3.17567 23.1274 2.03946 22.4073C1.87003 22.3732 1.68728 22.2556 1.50604 22.1389C1.32675 22.0235 1.14894 21.909 0.986985 21.8774C0.82622 21.9519 0.472645 22.8048 0.447315 22.9868C0.441254 23.0294 0.443713 23.0736 0.446227 23.1188C0.449718 23.1815 0.453317 23.2462 0.434387 23.3114C0.0182588 24.7603 0.57758 26.5303 1.78513 27.6572C2.31085 28.1478 3.15396 28.6533 3.76135 28.8642ZM5.19711 34.6992C4.2744 34.8874 2.70241 34.3767 1.6944 33.4493L1.19194 33.0632C0.598507 32.34 0.0919162 31.3056 0.093467 30.4609C0.0937156 30.3662 0.0704137 30.2636 0.0470173 30.1606C0.0217629 30.0494 -0.0036016 29.9377 0.000423433 29.8349L0.0608986 29.6571L0.0435811 29.5082L0.0262636 29.3594C0.0407375 29.3157 0.0553414 29.2721 0.0699454 29.2286L0.0699491 29.2286L0.069966 29.2285L0.070112 29.2281L0.0701494 29.228C0.0846856 29.1846 0.0992212 29.1413 0.113628 29.0978C0.122655 29.0368 0.119305 28.9776 0.116065 28.9203C0.107059 28.761 0.0988992 28.6167 0.359686 28.4909C0.885403 28.6532 1.43748 28.8197 1.96475 28.9624L2.75927 29.3955C3.5295 29.8933 4.02058 30.4299 4.41138 30.9985C4.5096 31.1066 4.60833 31.2146 4.70707 31.3227C4.72154 31.395 4.73653 31.4679 4.75152 31.5403L4.82988 31.6422L4.90815 31.7439C4.91694 31.8029 4.92625 31.8623 4.93555 31.9213L5.01722 32.0399L5.0989 32.1585L5.10252 32.2624L5.10614 32.3663C5.12612 32.43 5.15538 32.4941 5.1848 32.5586C5.23303 32.6642 5.28169 32.7709 5.29068 32.8781L5.28137 33.1324C5.31756 33.2932 5.35891 33.5119 5.35736 33.6747L5.29688 33.9394C5.30386 33.9727 5.31071 34.0062 5.31756 34.0396C5.32441 34.0731 5.33125 34.1066 5.33823 34.1399C5.2974 34.2438 5.25708 34.3477 5.21676 34.4516C5.20824 34.4881 5.21116 34.5205 5.21411 34.5531C5.21813 34.5978 5.22219 34.6428 5.19711 34.6992ZM1.18353 37.7491L1.18528 37.751L1.18535 37.7511C1.28347 37.8585 1.3816 37.9658 1.47922 38.0732C1.49994 38.1055 1.52028 38.1415 1.5414 38.1789C1.58929 38.2637 1.64121 38.3556 1.7108 38.4273L2.36988 38.9313C2.58337 39.1262 2.85063 39.2678 3.09669 39.3779L3.62654 39.6814L4.1016 39.7605C4.22928 39.8101 4.35747 39.8602 4.48516 39.9104C4.55287 39.8969 4.62059 39.8835 4.68831 39.8695C4.81289 39.9026 4.93695 39.9357 5.06153 39.9693C5.1984 39.9837 5.35099 39.9633 5.49633 39.9439L5.49636 39.9439H5.49638H5.4964H5.49642C5.56514 39.9347 5.63224 39.9257 5.69529 39.9207C5.75298 39.9161 5.82747 39.9123 5.91172 39.9079L5.9119 39.9079H5.91192C6.26096 39.8899 6.77753 39.8633 6.9628 39.7367C7.23832 39.5491 6.91835 38.6604 6.79997 38.4712C6.77539 38.432 6.78013 38.3908 6.78484 38.3499C6.78845 38.3185 6.79204 38.2873 6.78239 38.2572C6.74941 38.1546 6.68358 38.041 6.62239 37.9354C6.58958 37.8788 6.55811 37.8245 6.53375 37.7755L6.5304 37.772L6.53027 37.7719C6.46785 37.7074 6.40543 37.643 6.34352 37.5785L6.30329 37.4729L6.3031 37.4724L6.30302 37.4722L6.30294 37.472L6.30286 37.4718L6.30278 37.4716L6.30269 37.4714C6.28447 37.4234 6.26626 37.3755 6.24789 37.3278C6.18932 37.2292 6.09696 37.1534 5.99994 37.0737L5.99992 37.0737C5.94281 37.0268 5.88409 36.9785 5.8297 36.9236L5.62189 36.6429C5.38481 36.3981 5.06275 36.1949 4.73142 35.9859L4.65678 35.9388L4.30371 35.7656L3.84576 35.5872L3.84052 35.5851L3.8353 35.5831L3.83503 35.583L3.83501 35.583L3.83499 35.583L3.83497 35.583L3.83495 35.583C3.62683 35.5019 3.4188 35.4209 3.21093 35.3397L3.08376 35.3433L2.95659 35.3469C2.85011 35.3014 2.74362 35.2559 2.63765 35.2105L2.48335 35.2107L2.32905 35.211C2.26394 35.1949 2.19868 35.179 2.13334 35.1631L1.97598 35.1246L1.89286 35.15L1.81005 35.1753C1.76434 35.1643 1.71849 35.1535 1.67265 35.1426L1.67099 35.1422L1.66934 35.1418L1.668 35.1415C1.6226 35.1308 1.57721 35.12 1.53194 35.1091L1.53132 35.1093C1.47052 35.1273 1.40974 35.1454 1.34895 35.1629C1.31046 35.1648 1.25549 35.1629 1.19113 35.1607H1.19108H1.19103H1.19099H1.19094H1.19089H1.19085H1.1908C0.912833 35.151 0.459857 35.1352 0.39986 35.3965C0.352345 35.6129 0.548852 36.1682 0.65786 36.4763C0.673376 36.5202 0.687119 36.559 0.698134 36.5912C0.723864 36.6666 0.746139 36.7508 0.768895 36.8368C0.806485 36.9789 0.845388 37.1259 0.903349 37.2466L1.12098 37.5341C1.13635 37.5853 1.15094 37.636 1.16549 37.6866L1.1655 37.6866L1.18353 37.7491ZM7.84684 31.8232C7.84411 31.7841 7.84138 31.7451 7.83827 31.7062C7.81087 31.6452 7.78348 31.5837 7.75711 31.5217L7.79744 31.287C7.79529 31.249 7.78611 31.2137 7.77691 31.1783C7.76167 31.1196 7.74637 31.0607 7.7628 30.9892L7.78969 30.9054L7.81656 30.8217C7.81656 30.7921 7.8033 30.7626 7.79023 30.7335C7.7787 30.7079 7.76733 30.6826 7.76539 30.6579L7.88635 30.3027C7.89877 30.2528 7.89547 30.1983 7.89207 30.1422C7.88826 30.0792 7.88433 30.0141 7.90237 29.9512L8.00529 29.7433L8.10811 29.5356C8.35417 28.769 8.80493 28.1445 9.40509 27.6038L9.57943 27.399L9.7535 27.1944C10.5232 26.5901 11.3684 26.2329 12.2053 25.946L12.2867 25.9776L12.3681 26.0091C12.6364 26.19 12.6804 27.045 12.6731 27.3242L12.7413 27.5284C12.7485 27.6798 12.7269 27.8155 12.7045 27.9558L12.7045 27.9559L12.7045 27.9559V27.9559C12.6883 28.0574 12.6717 28.1614 12.6654 28.2753C12.6632 28.3157 12.6664 28.3557 12.6697 28.3965V28.3965V28.3965V28.3965V28.3965V28.3965V28.3965C12.675 28.4633 12.6804 28.5319 12.6628 28.6067C12.6463 28.6446 12.6296 28.6823 12.6129 28.72L12.5785 28.7979C12.5673 28.8465 12.5699 28.8989 12.5725 28.9528C12.5759 29.0206 12.5794 29.091 12.5558 29.1598C12.3195 29.8478 11.6113 30.9386 11.0489 31.4033L10.8748 31.499L10.7 31.5951C10.6354 31.6519 10.5706 31.7084 10.5059 31.7649L10.4157 31.8437L10.3544 31.8589L10.3275 31.8657L10.3274 31.8657C10.2981 31.8731 10.2688 31.8804 10.2394 31.8876L9.99904 32.0923L9.78555 32.1265L9.53484 32.281L9.43998 32.2914L9.34512 32.3017C9.10165 32.402 8.25388 32.7116 8.01661 32.5762C7.88321 32.3444 7.86494 32.0826 7.84684 31.8233L7.84684 31.8232ZM11.6473 20.3085L11.5846 20.3353C11.5163 20.3646 11.4481 20.3938 11.3795 20.4227L11.2221 20.5587L11.0647 20.6946L10.9561 20.7381C10.9054 20.7584 10.8546 20.7788 10.8037 20.799L10.6244 21.0006L10.4454 21.2017C9.98538 21.6028 9.38678 22.2206 9.13762 22.9091L9.10247 23.0815L9.06731 23.2539L8.87502 23.6928C8.8776 23.7765 8.88018 23.8603 8.88225 23.944C8.87458 23.9948 8.86602 24.0482 8.85714 24.1035C8.78052 24.5813 8.6804 25.2056 8.92361 25.5646C9.40539 25.6856 9.94402 25.578 10.3782 25.4302C10.4788 25.396 10.5931 25.3784 10.7065 25.361C10.7919 25.3479 10.8767 25.3349 10.9546 25.3149L11.1883 25.1635C11.2619 25.1295 11.3507 25.0996 11.4422 25.0687C11.5903 25.0187 11.7457 24.9663 11.8556 24.8905L11.9944 24.7714L12.1332 24.6522L12.1943 24.626C12.2632 24.5965 12.332 24.5671 12.401 24.538C12.4935 24.4294 12.5861 24.3209 12.6781 24.2123C12.7357 24.1704 12.7933 24.1284 12.8508 24.0864C12.9083 24.0444 12.9658 24.0024 13.0234 23.9606C13.6773 23.4152 14.1069 22.0334 14.2072 21.4333L14.1761 21.1521C14.1905 21.1086 14.2051 21.0653 14.2196 21.022L14.2198 21.0213C14.2344 20.9777 14.249 20.9342 14.2635 20.8905C14.2774 20.7111 14.2092 19.6618 14.1208 19.5517C13.5371 19.5459 13.033 19.7273 12.5166 19.9132L12.5166 19.9132L12.5166 19.9132L12.5166 19.9132L12.5166 19.9132L12.5165 19.9132C12.299 19.9915 12.0792 20.0706 11.8505 20.1368C11.7827 20.1942 11.715 20.2516 11.6473 20.3085ZM10.4017 38.1736C10.2432 38.2287 10.027 38.3038 9.90952 38.1462C9.84692 38.0468 9.8264 37.9179 9.80751 37.7992C9.79458 37.718 9.78242 37.6416 9.75806 37.5828C8.99352 35.7275 10.4063 32.8518 12.4999 31.7735C12.5831 31.7079 12.6668 31.6417 12.75 31.5755L12.9806 31.5383C13.0639 31.502 13.1382 31.4608 13.2098 31.421L13.2099 31.421C13.3615 31.3369 13.5013 31.2594 13.6888 31.2488C13.9023 31.4534 13.9631 31.7843 14.0162 32.0735C14.0337 32.1687 14.0503 32.2594 14.0713 32.3396C14.3624 33.4484 14.3138 35.2142 13.0478 36.507L12.7624 36.834L12.4766 37.1615L12.2497 37.2592L12.1551 37.3566L12.0605 37.4541C12.0081 37.4956 11.9474 37.5117 11.8887 37.5272C11.8518 37.537 11.8156 37.5465 11.7829 37.5621L11.6241 37.6896L11.465 37.8175C11.1791 37.9436 10.8214 38.0723 10.5164 38.138C10.4848 38.1448 10.4454 38.1584 10.4017 38.1736L10.4017 38.1736ZM13.7388 37.206C13.4951 37.4398 13.2815 37.774 13.0713 38.1027C13.0055 38.2057 12.9399 38.3082 12.8739 38.4068C12.6604 38.7258 12.5596 39.054 12.4831 39.3384C12.4247 39.4547 12.3663 39.571 12.3079 39.6868L12.2813 39.901L12.2547 40.1153L12.1994 40.262C12.1741 40.3293 12.1488 40.3966 12.1234 40.4637C12.1383 40.5361 12.1533 40.609 12.1678 40.6813L12.1671 40.6833C12.1415 40.7576 12.1159 40.8319 12.0903 40.9057L12.1352 41.2102C12.1461 41.8899 12.2076 42.2476 12.4516 42.8804C12.463 42.9507 12.4743 43.021 12.4862 43.0913C12.5516 43.236 12.6461 43.3725 12.7404 43.5086C12.8535 43.6719 12.9662 43.8347 13.028 44.0109C13.265 44.2404 13.4222 44.1201 13.5927 43.9895C13.6553 43.9416 13.7196 43.8923 13.7904 43.8584C14.3622 43.5855 15.4808 42.3975 15.7718 41.5632L15.7951 41.2887C15.8783 41.1213 15.9616 40.9538 16.0448 40.7858C16.06 40.7295 16.0501 40.6725 16.0406 40.6176C16.0336 40.5772 16.0268 40.538 16.0303 40.5009C16.0422 40.3812 16.0659 40.2715 16.0891 40.1641C16.1212 40.0156 16.1523 39.8713 16.1502 39.7105L16.1195 39.6037L16.0887 39.4965C16.0528 39.0244 15.9534 38.5943 15.849 38.1423L15.824 38.0341L15.7762 37.965C15.7252 37.891 15.6742 37.8173 15.623 37.7436C15.608 37.6713 15.593 37.5984 15.5785 37.526L15.4968 37.4291L15.4152 37.3322C15.409 37.3014 15.4026 37.2708 15.3963 37.2402C15.39 37.2095 15.3836 37.1789 15.3774 37.1481C15.2777 37.0344 15.1779 36.9207 15.0781 36.8075C15.0565 36.7716 15.0425 36.7361 15.0287 36.701C14.9983 36.624 14.9688 36.5491 14.8605 36.4766C14.8366 36.4769 14.8135 36.4767 14.7908 36.4765C14.6697 36.4755 14.5638 36.4746 14.4506 36.5413L14.3321 36.6759C14.2476 36.7719 14.1631 36.8679 14.0789 36.9641C13.9735 37.038 13.869 37.1128 13.7649 37.1873L13.7646 37.1875L13.7388 37.206ZM6.1842 25.4523L6.30206 25.1675C6.31416 25.1091 6.31092 25.0525 6.30761 24.9949C6.30401 24.932 6.30034 24.8679 6.31653 24.7994C6.37649 24.6598 6.43594 24.5203 6.49539 24.3807L6.5047 24.1264C6.56431 23.9876 6.62341 23.8489 6.6825 23.7101L6.68253 23.7101L6.68255 23.71L6.68355 23.7077L6.75024 23.259L6.97975 22.8299C7.01869 22.7342 7.04432 22.6463 7.07057 22.5562C7.10148 22.4502 7.13325 22.3412 7.1886 22.2132C7.20421 22.1771 7.22273 22.1335 7.24373 22.0841C7.44517 21.61 7.87537 20.5976 8.17076 20.4665C8.22504 20.4872 8.27932 20.5084 8.33359 20.5296L9.03662 21.0336C9.03962 21.2284 8.966 21.3446 8.87158 21.4937L8.87157 21.4937L8.87156 21.4937C8.81966 21.5757 8.76148 21.6675 8.7063 21.7878L8.51769 22.2435L8.32894 22.6996L8.06221 23.1623L8.0423 23.3231L8.0224 23.4838L7.91746 23.7172C7.85351 23.8593 7.78949 24.0016 7.72569 24.1439L7.71468 24.3191L7.70294 24.5058L7.51064 24.9012C7.45531 25.2568 7.38424 25.6143 7.31284 25.9736L7.31284 25.9736L7.31284 25.9736C7.26351 26.2217 7.21403 26.4707 7.16947 26.7203C7.14088 26.8805 7.14257 27.1494 7.14376 27.3392L7.14414 27.4135C7.14464 27.557 7.11613 27.6961 7.08756 27.8355C7.05755 27.982 7.02749 28.1287 7.03093 28.2809C7.03562 28.4937 7.04188 28.7074 7.04816 28.9218L7.04816 28.9218C7.06194 29.3925 7.0758 29.8658 7.07332 30.3368L7.12116 30.4842L7.16895 30.6314C7.16067 30.785 7.181 30.9167 7.20159 31.0501C7.21315 31.125 7.2248 31.2005 7.2315 31.2807L7.2165 31.4014L7.20152 31.5221C7.20491 31.6529 7.23065 31.7874 7.25654 31.9228C7.27792 32.0346 7.2994 32.1469 7.30852 32.2582C7.3385 32.3311 7.36797 32.4034 7.39743 32.4758L7.39123 32.6598C7.40248 32.7328 7.43014 32.8094 7.45796 32.8864C7.49279 32.9828 7.52787 33.0799 7.53132 33.1716C7.53795 33.3461 7.5835 33.4926 7.63189 33.6482C7.64758 33.6987 7.66358 33.7501 7.67864 33.8038L7.6895 34.0282C7.73514 34.1573 7.77676 34.2849 7.81832 34.4123C7.8756 34.588 7.93277 34.7633 8.00017 34.9416L8.00198 35.0369L8.00379 35.1323C8.06773 35.3397 8.14501 35.5414 8.22205 35.7424L8.22206 35.7424C8.33125 36.0273 8.43994 36.3109 8.50935 36.6076C8.56156 36.6903 8.61377 36.7731 8.66598 36.8552C8.69558 36.933 8.7213 37.0206 8.74727 37.1089L8.74728 37.109C8.77982 37.2197 8.81275 37.3318 8.85414 37.4275C8.89042 37.4827 8.92697 37.5375 8.96359 37.5926L9.00715 37.658L9.03506 37.8788C9.08788 37.9521 9.1407 38.0249 9.19351 38.0977L9.19355 38.0978L9.19359 38.0978L9.1948 38.0995C9.22273 38.1715 9.25091 38.2524 9.27963 38.3348C9.32268 38.4583 9.36696 38.5853 9.41346 38.6914L9.58353 38.9188L9.59142 38.9511L9.61274 39.0393L9.62454 39.0882L9.64195 39.1597L9.81873 39.3768C9.82752 39.4358 9.83682 39.4952 9.84613 39.5541L10.04 39.8116C10.084 39.8932 10.1237 39.995 10.164 40.0983C10.2122 40.2219 10.2613 40.3477 10.3196 40.4438L10.5202 40.6909L10.5853 40.9219C10.6484 40.9876 10.712 41.0532 10.7756 41.1189L10.8133 41.2375L10.851 41.3561C10.9334 41.5254 11.0404 41.6601 11.1515 41.8001C11.2216 41.8884 11.2934 41.9788 11.3618 42.0814C11.4016 42.1411 11.423 42.2074 11.444 42.2722L11.444 42.2722C11.4606 42.3236 11.4769 42.374 11.5019 42.4195C11.5649 42.4851 11.6285 42.5508 11.6921 42.6164C11.7278 42.7022 11.7629 42.788 11.7981 42.8739L11.9122 42.9773L12.026 43.0806L12.0729 43.1972L12.0733 43.1983C12.0996 43.2637 12.126 43.3293 12.1522 43.3949C12.2498 43.5024 12.348 43.6098 12.4462 43.7173L12.4478 43.719L12.5502 43.9599L12.7983 44.2236L12.9348 44.5012C12.9886 44.5736 13.0523 44.6336 13.1136 44.6913C13.2032 44.7756 13.2878 44.8552 13.3292 44.9622C13.3663 45.0571 13.4416 45.1343 13.5197 45.2144C13.5732 45.2693 13.628 45.3255 13.673 45.3898L13.8435 45.7041L13.8766 45.7316C13.9469 45.7903 14.0175 45.8492 14.0881 45.9077L14.4184 46.3993C14.4668 46.4529 14.5185 46.5028 14.5688 46.5514L14.5688 46.5514C14.7363 46.7132 14.8876 46.8594 14.8474 47.0713C14.8076 47.2822 14.4737 47.4699 14.3501 47.5278C14.3007 47.5509 14.2601 47.5736 14.2227 47.5946L14.2227 47.5947L14.2226 47.5947C14.1404 47.6408 14.0733 47.6785 13.9604 47.6927C13.7136 47.5262 13.5843 47.3279 13.4645 47.1443C13.4325 47.0952 13.4012 47.0471 13.3685 47.001C13.2482 46.8792 13.1275 46.7575 13.0067 46.6357L13.0015 46.6304C12.9505 46.5397 12.8995 46.4485 12.8484 46.3573L12.8479 46.3564L12.7138 46.2396L12.5797 46.1228C12.5337 46.0687 12.5088 46.0008 12.4852 45.9365C12.4711 45.8981 12.4575 45.8609 12.4401 45.8286C12.3233 45.7035 12.2064 45.579 12.0896 45.4544C12.0596 45.3815 12.0302 45.3091 12.0007 45.2367L11.8833 45.1166L11.766 44.9964C11.6956 44.8689 11.6257 44.7414 11.5557 44.6139L11.5546 44.6118C11.5122 44.5694 11.4698 44.5272 11.4273 44.485C11.3847 44.4427 11.3422 44.4004 11.2997 44.358L11.2638 44.2476L11.2279 44.1372C11.1279 43.9866 11.0271 43.8629 10.9279 43.7411C10.8184 43.6067 10.7109 43.4747 10.6086 43.3117L10.5541 43.1745L10.4995 43.0372L10.3858 42.9121L10.2716 42.7865C10.2617 42.7537 10.252 42.7207 10.2424 42.6878L10.2332 42.6568L10.2132 42.589L10.0193 42.375C10.0007 42.3268 9.98234 42.2784 9.96393 42.23L9.9639 42.2299L9.92367 42.1243L9.70604 41.8803L9.62385 41.6094L9.53717 41.5093L9.45016 41.4089C9.40106 41.2953 9.35146 41.1818 9.30185 41.0683L9.30025 41.0646C9.24701 41.0052 9.19377 40.9462 9.14052 40.8873L9.03817 40.5596C8.33411 39.2858 7.78978 38.0364 7.2651 36.7338L7.26148 36.6299L7.25787 36.526C7.20282 36.3868 7.14862 36.2539 7.09486 36.1222L7.09485 36.1221L7.09483 36.1221L7.09478 36.1219C7.02235 35.9444 6.95074 35.7689 6.87896 35.5826L6.86836 35.467L6.85776 35.3515L6.81519 35.2947L6.77246 35.2378L6.77867 35.0537L6.65926 34.8599C6.64374 34.7933 6.63948 34.7193 6.63518 34.6449C6.62961 34.5482 6.62399 34.4507 6.59361 34.3678C6.29741 33.5567 6.12734 32.5301 6.07461 31.6668C6.05845 31.6302 6.04198 31.5938 6.02544 31.5573L6.01 31.5231C5.95624 31.2109 5.95675 30.8594 5.96657 30.5389C5.97018 30.4314 5.93821 30.3103 5.90683 30.1915L5.90682 30.1914C5.88417 30.1056 5.86181 30.021 5.85336 29.9434L5.89368 29.7526C5.89782 29.5278 5.86939 29.2833 5.84095 29.0661L5.90454 28.7746C5.90519 28.6651 5.90251 28.5568 5.89983 28.4487C5.89191 28.1288 5.88402 27.8102 5.96243 27.4652C5.95751 27.3745 5.95305 27.2839 5.94861 27.1936L5.94796 27.1804L5.98646 27.0029L6.02498 26.8253C6.0162 26.6164 6.04256 26.3109 6.07047 26.1021C6.11468 25.9633 6.15941 25.8245 6.20414 25.6856L6.2042 25.6855L6.20488 25.6834L6.19454 25.5678L6.1842 25.4523ZM10.1505 43.8551C10.1961 43.9127 10.242 43.9706 10.2875 44.0284C10.2906 44.0677 10.2939 44.1071 10.2972 44.1463C10.2998 44.1783 10.3025 44.2103 10.305 44.2419C10.3282 44.3034 10.3653 44.3745 10.4044 44.4497C10.4936 44.621 10.594 44.8137 10.5682 44.9646C10.4986 45.183 10.3974 45.1926 10.2815 45.2036C10.2303 45.2085 10.1764 45.2136 10.121 45.237C10.0707 45.2666 10.0206 45.2964 9.97057 45.3262C9.93937 45.3447 9.9082 45.3633 9.87703 45.3817C9.63028 45.4682 9.36339 45.4858 9.09799 45.5033C9.02868 45.5079 8.95946 45.5124 8.89073 45.5182L8.65036 45.5926C8.529 45.6012 8.41427 45.5874 8.29798 45.5733C8.21169 45.5628 8.12453 45.5523 8.03315 45.5508L7.73126 45.5849C7.67776 45.5717 7.63046 45.5489 7.58525 45.5271C7.51732 45.4944 7.45413 45.4639 7.38181 45.4717L7.23966 45.5089C7.05977 45.435 6.87987 45.3605 6.69998 45.2861C5.37354 44.9429 4.3035 43.7922 3.91632 42.8555C3.89029 42.7926 3.84937 42.7075 3.80219 42.6094C3.6207 42.232 3.34662 41.6621 3.47176 41.4205C3.5343 41.3952 3.8455 41.2845 3.90184 41.282L4.04762 41.3052C4.07475 41.2941 4.10188 41.2829 4.12902 41.2716C4.15616 41.2604 4.18331 41.2491 4.21045 41.238C4.24483 41.2414 4.27933 41.2446 4.31384 41.2478C4.34834 41.2511 4.38284 41.2543 4.41722 41.2577C5.22415 41.0586 6.41257 41.206 7.31047 41.4712C7.36697 41.5034 7.42347 41.5355 7.47997 41.5676C7.53668 41.5999 7.59339 41.6321 7.6501 41.6645C7.76454 41.7164 7.88123 41.7711 7.99501 41.8245C8.1125 41.8796 8.22688 41.9333 8.33245 41.9809L8.68241 42.1809C8.80073 42.2664 8.88919 42.3652 8.97021 42.4558C8.99254 42.4807 9.01431 42.505 9.03598 42.5283C9.11814 42.5916 9.20017 42.655 9.2822 42.7184C9.3643 42.7819 9.4464 42.8454 9.52862 42.9087C9.77106 43.1594 9.99437 43.5311 10.121 43.818L10.1505 43.8551Z" fill="white"/>
<path fill-rule="evenodd" clip-rule="evenodd" d="M63.431 46.4626H16.5645V58.9873H63.431V46.4626ZM15.2815 49.2742H2.01971L8.82716 55.7466L2.01971 62.2191H21.0805V60.3768H15.2815V49.2742ZM64.8559 49.2742V60.3768H59.057V62.2191H78.1178L71.3103 55.7466L78.1178 49.2742H64.8559Z" fill="white"/>
<path d="M36.1513 55.351V50.5004H39.3293V51.1767H36.9585V52.5803H39.0311V53.2639H36.9512V54.6747H39.3293V55.351H36.1513Z" fill="#384250"/>
<path d="M40.4124 55.351V50.5004H42.1142C42.8996 50.5004 43.4838 50.704 43.8668 51.1112C44.2498 51.5185 44.4413 52.1221 44.4413 52.9221C44.4413 53.7269 44.2498 54.3329 43.8668 54.7402C43.4838 55.1474 42.8996 55.351 42.1142 55.351H40.4124ZM41.2124 54.6747H42.0342C42.5772 54.6747 42.9772 54.5365 43.2341 54.2602C43.4911 53.979 43.6196 53.5329 43.6196 52.9221C43.6196 52.316 43.4911 51.8724 43.2341 51.5912C42.9772 51.31 42.5772 51.1694 42.0342 51.1694H41.2124V54.6747Z" fill="#384250"/>
<rect x="23.8373" y="41.6142" width="32.3217" height="3.23217" fill="white"/>
<path d="M58.6237 2.88685H53.4908C53.5094 2.31833 53.5198 1.74645 53.5198 1.17183C53.5198 0.524577 52.9949 0 52.348 0H27.2446C26.5976 0 26.0728 0.524577 26.0728 1.17183C26.0728 1.74645 26.0831 2.31833 26.1017 2.88685H20.9689C20.3216 2.88685 19.7971 3.41143 19.7971 4.05868C19.7971 9.30933 21.1694 14.2631 23.661 18.0077C26.124 21.7097 29.4048 23.833 32.949 24.0396C33.7525 24.9139 34.6018 25.6268 35.4865 26.1706V31.3788H33.5206C31.144 31.3788 29.2108 33.3123 29.2108 35.6886V37.6545H29.1274C28.4802 37.6545 27.9556 38.1794 27.9556 38.8263C27.9556 39.4736 28.4802 39.9981 29.1274 39.9981H50.4651C51.1124 39.9981 51.637 39.4736 51.637 38.8263C51.637 38.1794 51.1124 37.6545 50.4651 37.6545H50.3818V35.6886C50.3818 33.3123 48.4486 31.3788 46.072 31.3788H44.1061V26.1706C44.9908 25.6271 45.8404 24.9139 46.6439 24.0396C50.1877 23.833 53.4685 21.7097 55.9318 18.0077C58.4235 14.2631 59.7955 9.30933 59.7955 4.05868C59.7955 3.41143 59.2709 2.88685 58.6237 2.88685ZM25.6123 16.7096C23.557 13.621 22.3494 9.58123 22.1654 5.23051H26.2327C26.6553 10.5788 27.9108 15.5225 29.873 19.4466C30.1855 20.0716 30.5123 20.662 30.8513 21.2181C28.9022 20.482 27.0984 18.9434 25.6123 16.7096ZM48.0382 35.6886V37.6548H31.5544V35.6886C31.5544 34.6047 32.4363 33.7225 33.5206 33.7225H46.072C47.1562 33.7225 48.0382 34.6047 48.0382 35.6886ZM41.7625 31.3788H37.8301V27.1889C38.4743 27.3586 39.1307 27.4468 39.7963 27.4468C40.4618 27.4468 41.1183 27.3586 41.7625 27.1889V31.3788ZM42.4881 24.4009C42.4353 24.4226 42.3847 24.4488 42.3362 24.4778C41.5079 24.8898 40.6568 25.1031 39.7963 25.1031C38.936 25.1031 38.0852 24.8898 37.2573 24.4784C37.2082 24.4488 37.1572 24.4226 37.1038 24.4003C36.185 23.9145 35.296 23.1809 34.4553 22.2169C34.4111 22.1537 34.3613 22.0954 34.3061 22.0423C33.4715 21.0514 32.6863 19.8326 31.9691 18.3983C29.8156 14.0916 28.5717 8.42863 28.4301 2.34366H51.1624C51.0205 8.42863 49.7767 14.0919 47.6234 18.3983C46.9063 19.8326 46.1211 21.0514 45.2868 22.0423C45.2313 22.0954 45.1809 22.154 45.137 22.2172C44.2962 23.1815 43.407 23.9148 42.4881 24.4009ZM53.9803 16.7096C52.4942 18.9434 50.6903 20.482 48.7413 21.2181C49.0803 20.662 49.4071 20.0716 49.7196 19.4466C51.6818 15.5225 52.937 10.5788 53.3599 5.23051H57.4271C57.2431 9.58123 56.0356 13.621 53.9803 16.7096Z" fill="white"/>
</svg>
