<svg width="80" height="64" viewBox="0 0 80 64" fill="none" xmlns="http://www.w3.org/2000/svg">
<path fill-rule="evenodd" clip-rule="evenodd" d="M8.75834 19.7608L8.75627 19.6437C8.50504 19.0141 8.5433 18.2542 8.68649 17.5403C8.68156 17.4501 8.6771 17.3595 8.67266 17.2692V17.2692V17.2692L8.67201 17.256L8.79515 16.9743L8.91807 16.693L8.94314 16.5356L8.96821 16.3782C9.19359 15.806 9.74981 15.1645 10.1277 14.8921C10.1969 14.8215 10.2663 14.7511 10.3357 14.6807C10.4051 14.6102 10.4745 14.5398 10.5438 14.4692C10.5877 14.4545 10.6318 14.4399 10.6758 14.4253L10.6759 14.4253L10.6759 14.4253C10.72 14.4107 10.764 14.3961 10.808 14.3813C11.4572 13.9513 11.8976 13.7057 12.627 13.6602L12.649 13.6819L12.671 13.7036C12.7605 13.8567 12.786 14.1246 12.8076 14.3514C12.8155 14.4348 12.8229 14.5127 12.8328 14.5773C12.8578 14.6348 12.883 14.692 12.9084 14.7493L12.9315 14.8016L12.9191 15.257L12.9483 15.4209L12.9775 15.5847L12.9139 15.8329C12.9098 16.6791 12.6715 17.5315 12.2393 18.4765C11.8465 19.3356 11.114 19.8401 10.5722 20.1947L10.4434 20.299L10.3148 20.403C10.28 20.4115 10.2451 20.4199 10.2102 20.4283L10.2099 20.4284C10.1749 20.4368 10.1398 20.4452 10.1049 20.4537C10.0729 20.471 10.0381 20.4907 10.0012 20.5117L10.0011 20.5117C9.73578 20.6621 9.35724 20.8767 9.08142 20.7106C8.99408 20.5592 8.92441 20.3522 8.85791 20.1547C8.82521 20.0575 8.79328 19.9627 8.7604 19.8778L8.75834 19.7608ZM67.7581 18.4762C67.3259 17.5313 67.0881 16.6788 67.0835 15.8326L67.0576 15.7326L67.0576 15.7324L67.0576 15.7323L67.0576 15.7322C67.0448 15.6831 67.0322 15.6341 67.0199 15.5855C67.0297 15.531 67.0394 15.4763 67.0491 15.4217C67.0588 15.367 67.0685 15.3123 67.0783 15.2578L67.0659 14.8024C67.0906 14.7454 67.1157 14.6888 67.1408 14.632L67.1646 14.578C67.1745 14.5135 67.1819 14.4356 67.1898 14.3521V14.3521C67.2114 14.1253 67.2369 13.8574 67.3264 13.7044L67.3486 13.6827L67.3709 13.661C68.1003 13.7065 68.5407 13.952 69.1899 14.3821C69.2332 14.3966 69.2766 14.411 69.32 14.4254L69.3218 14.426C69.3659 14.4406 69.4101 14.4552 69.4541 14.47C69.5932 14.6111 69.7317 14.7517 69.8702 14.8929C70.2481 15.1653 70.8043 15.8068 71.0297 16.379L71.0548 16.5364L71.0798 16.6938L71.2029 16.9753L71.3259 17.2568C71.321 17.3459 71.3166 17.4356 71.3122 17.5248L71.3114 17.5411C71.4546 18.2539 71.4929 19.0138 71.2416 19.6434L71.2396 19.7614L71.2375 19.8776C71.2047 19.9622 71.1729 20.0567 71.1403 20.1535L71.1403 20.1535L71.1403 20.1536L71.1402 20.1538L71.1402 20.1539L71.1401 20.1542L71.14 20.1544L71.14 20.1545C71.0735 20.352 71.0038 20.559 70.9165 20.7104C70.64 20.8768 70.2603 20.6612 69.9949 20.5105C69.9586 20.4899 69.9244 20.4705 69.893 20.4535L69.8399 20.4406L69.788 20.4281C69.753 20.4197 69.718 20.4113 69.6831 20.4028L69.5552 20.2993L69.4257 20.1945C68.8839 19.8399 68.1514 19.3353 67.7581 18.4762ZM73.7029 22.6969L73.8145 22.8846C73.8109 22.9306 73.8073 22.9761 73.8042 23.0221C73.8305 23.0725 73.857 23.1227 73.8835 23.173C73.91 23.2233 73.9365 23.2736 73.9629 23.324C73.9696 23.3922 73.9763 23.4599 73.9825 23.5282L74.1448 23.7261C74.318 24.0994 74.6602 24.7703 75.0572 24.9104C75.7251 24.545 76.1236 24.0875 76.4746 23.5912L77.0531 22.7492C77.1292 22.6064 77.1676 22.4602 77.2058 22.3151C77.2295 22.2248 77.2532 22.1349 77.2857 22.0466C77.6181 21.1405 77.6077 20.242 77.2454 19.1906L77.205 18.9559L77.142 18.8731L77.0799 18.7915C77.0608 18.7124 77.0417 18.6328 77.0231 18.5538C76.983 18.4979 76.9431 18.442 76.9032 18.386C76.8632 18.33 76.8233 18.2741 76.7832 18.2183L76.7411 18.1009L76.699 17.9836C76.5868 17.8589 76.4743 17.7341 76.362 17.6097L76.3537 17.6005L76.3452 17.5911L76.3426 17.5882L76.334 17.5787L76.2968 17.5375C76.2331 17.4695 76.1844 17.409 76.1413 17.3555L76.1413 17.3554C76.0474 17.2388 75.9799 17.1549 75.8404 17.0976L75.7556 17.1239C75.6137 17.2136 75.5405 17.3143 75.4665 17.4162L75.4664 17.4163L75.4663 17.4164C75.4392 17.4537 75.412 17.4911 75.3813 17.5282C75.3277 17.593 75.2741 17.657 75.2209 17.7205C75.0115 17.9703 74.8093 18.2117 74.6431 18.4607L74.136 19.2128L74.0228 19.6781L73.9241 19.8804L73.8254 20.0828L73.8166 20.2323L73.8078 20.3842C73.5638 21.1151 73.6041 21.705 73.7246 22.5103C73.7163 22.5715 73.7096 22.6338 73.7029 22.696L73.7029 22.6969ZM75.5939 26.2186C75.6495 26.1268 75.7061 26.0333 75.7559 25.9295C76.1673 25.0704 76.8228 24.3384 77.9595 23.6183C78.1288 23.5843 78.3114 23.4667 78.4925 23.35C78.6719 23.2345 78.8499 23.1198 79.012 23.0884C79.1728 23.1624 79.5263 24.0153 79.5517 24.1978C79.5578 24.2405 79.5554 24.2849 79.5529 24.3302C79.5495 24.3928 79.546 24.4573 79.5646 24.5224C79.9807 25.9708 79.4214 27.7413 78.2139 28.8682C77.6881 29.3588 76.845 29.8644 76.2371 30.0753L76.2108 30.0844C76.0465 30.1417 75.7483 30.2457 75.623 30.1874C75.515 30.1368 75.3816 29.8457 75.363 29.7346L75.3364 29.5638L75.3098 29.3929L75.249 29.2588L75.1883 29.1246L75.187 28.9382L75.1857 28.7499L75.105 28.5421L75.1562 28.3348C75.1595 28.2202 75.1496 28.1153 75.1397 28.0111L75.1397 28.0109C75.1294 27.9018 75.1191 27.7933 75.1242 27.6752C75.1278 27.5857 75.2394 27.2575 75.2746 27.1567C75.3017 27.0786 75.315 26.9876 75.3283 26.8964V26.8964C75.3415 26.8065 75.3547 26.7164 75.3811 26.6382C75.4333 26.4837 75.5125 26.353 75.5939 26.2186ZM3.76096 30.0764L3.78896 30.0862C3.9536 30.1436 4.25019 30.2471 4.37507 30.1886C4.48311 30.1384 4.61647 29.8469 4.63508 29.7358L4.66171 29.5649L4.68833 29.3941L4.74907 29.2599L4.80981 29.1258L4.8111 28.9388L4.81239 28.751L4.89303 28.5432L4.84186 28.3359C4.83857 28.2212 4.8485 28.1163 4.85836 28.012C4.86867 27.9029 4.87893 27.7945 4.87391 27.6763C4.87029 27.5864 4.75811 27.2586 4.72348 27.1578C4.69642 27.0795 4.68311 26.9886 4.66978 26.8975L4.66978 26.8975C4.65662 26.8077 4.64344 26.7176 4.61699 26.6393C4.56476 26.4845 4.48548 26.3537 4.40404 26.2194C4.34848 26.1277 4.2919 26.0344 4.24222 25.9306C3.83074 25.071 3.17528 24.3395 2.03907 23.6194C1.86964 23.5854 1.68688 23.4678 1.50565 23.3511C1.32635 23.2357 1.14855 23.1212 0.986591 23.0896C0.825826 23.164 0.47225 24.017 0.446921 24.1989C0.44086 24.2416 0.443318 24.2857 0.445833 24.3309C0.449324 24.3937 0.452922 24.4583 0.433993 24.5236C0.0178642 25.9725 0.577186 27.7425 1.78473 28.8694C2.31045 29.3599 3.15356 29.8655 3.76096 30.0764ZM1.6944 34.6615C2.70241 35.5888 4.2744 36.0996 5.19712 35.9114C5.22219 35.855 5.21813 35.8099 5.21411 35.7653C5.21116 35.7327 5.20824 35.7003 5.21676 35.6638C5.25708 35.5599 5.2974 35.456 5.33823 35.3521C5.33126 35.3188 5.32441 35.2853 5.31756 35.2518C5.31071 35.2183 5.30386 35.1849 5.29688 35.1515L5.35736 34.8868C5.35891 34.724 5.31756 34.5054 5.28137 34.3446L5.29068 34.0903C5.28169 33.983 5.23303 33.8764 5.1848 33.7707C5.15538 33.7063 5.12612 33.6422 5.10614 33.5785L5.10252 33.4746L5.0989 33.3707L5.01719 33.252L4.93555 33.1334C4.92625 33.0745 4.91694 33.015 4.90815 32.9561L4.82969 32.8541L4.75152 32.7524C4.73653 32.6801 4.72154 32.6072 4.70707 32.5348C4.60833 32.4268 4.5096 32.3187 4.41138 32.2107C4.02058 31.6421 3.5295 31.1055 2.75927 30.6077L1.96475 30.1745C1.43748 30.0318 0.885403 29.8654 0.359686 29.7031C0.0988992 29.8289 0.107059 29.9732 0.116065 30.1324C0.119305 30.1897 0.122655 30.249 0.113628 30.31C0.099154 30.3536 0.0845498 30.3972 0.0699457 30.4407C0.0553417 30.4843 0.0407376 30.5278 0.0262636 30.5715L0.0435812 30.7204L0.0608986 30.8693L0.000423433 31.0471C-0.00360161 31.1499 0.021763 31.2616 0.0470174 31.3728C0.0704138 31.4758 0.0937156 31.5784 0.093467 31.6731C0.0919162 32.5178 0.598507 33.5521 1.19194 34.2753L1.6944 34.6615ZM63.9544 41.998L63.959 42.0073C64.0407 42.1717 64.1224 42.3361 64.2041 42.501L64.2273 42.7755C64.5179 43.6098 65.6365 44.7972 66.2087 45.0707C66.2795 45.1045 66.3439 45.1538 66.4065 45.2017C66.5771 45.3323 66.7345 45.4527 66.9712 45.2232C67.0328 45.0469 67.1457 44.8838 67.2591 44.7201C67.3532 44.5842 67.4475 44.448 67.513 44.3036L67.5285 44.2077L67.539 44.1436L67.5476 44.0926C67.7916 43.4604 67.8531 43.1022 67.8639 42.4224L67.9089 42.118C67.8831 42.043 67.8572 41.9681 67.8314 41.8936C67.8464 41.8213 67.8614 41.7484 67.8758 41.676L67.8205 41.5291C67.7952 41.4618 67.77 41.3946 67.7445 41.3276L67.7179 41.1133L67.6913 40.8991L67.6888 40.8941C67.6312 40.7794 67.5736 40.6648 67.5161 40.5506C67.4396 40.2663 67.3387 39.9381 67.1253 39.6191C67.0595 39.5208 66.9942 39.4188 66.9286 39.3162L66.9285 39.3161L66.9285 39.316L66.9284 39.3158C66.7179 38.9868 66.5039 38.6523 66.2604 38.4183L65.9218 38.1764L65.8029 38.0412C65.7185 37.9453 65.6342 37.8495 65.5502 37.7535C65.4373 37.6867 65.3313 37.6876 65.2108 37.6887C65.1879 37.689 65.1644 37.6892 65.1402 37.6889C65.0315 37.762 65.002 37.837 64.9715 37.9142C64.9578 37.9489 64.944 37.9841 64.9226 38.0198C64.8229 38.1335 64.7231 38.2472 64.6233 38.3604L64.6113 38.4192L64.6044 38.4524L64.5968 38.4897L64.5856 38.5444L64.5039 38.6414L64.4222 38.7383C64.4072 38.8107 64.3922 38.8835 64.3778 38.9559L64.3315 39.0229L64.2977 39.0718L64.2446 39.1486L64.1767 39.2464L64.1517 39.3546C64.0473 39.8066 63.9479 40.2366 63.912 40.7088L63.8811 40.8162L63.8505 40.9228C63.8487 41.0834 63.8797 41.2275 63.9117 41.3758L63.9117 41.3759C63.9348 41.4835 63.9585 41.5933 63.9704 41.7132C63.9735 41.7499 63.9665 41.7888 63.9593 41.8288C63.9494 41.8842 63.9391 41.9416 63.9544 41.998ZM72.0035 43.0367C72.1172 42.9833 72.2339 42.9285 72.3484 42.8766L72.5186 42.78L72.688 42.6838C73.5859 42.4191 74.7748 42.2718 75.5812 42.4703L75.6847 42.4605L75.788 42.4507L75.8692 42.4842L75.9509 42.5179L76.0966 42.4946C76.153 42.4977 76.4642 42.6078 76.5267 42.6332C76.6519 42.8744 76.3777 43.4446 76.1962 43.8221L76.1962 43.8221C76.1491 43.9202 76.1082 44.0053 76.0821 44.0682C75.6945 45.0048 74.6249 46.1555 73.2985 46.4988L73.0447 46.6033L72.7588 46.7216L72.6166 46.6843C72.5447 46.6766 72.482 46.7069 72.4145 46.7395C72.369 46.7614 72.3213 46.7844 72.2672 46.7975L71.9653 46.7634C71.8739 46.765 71.7868 46.7755 71.7005 46.786C71.5842 46.8 71.4695 46.8139 71.3481 46.8053L71.1077 46.7309C71.039 46.7251 70.9697 46.7205 70.9003 46.7159C70.6351 46.6984 70.368 46.6808 70.1214 46.5944L70.011 46.5288L69.8774 46.4497C69.8221 46.4263 69.7682 46.4211 69.7171 46.4162C69.6011 46.4051 69.4999 46.3954 69.4303 46.1772C69.4048 46.0262 69.5053 45.8328 69.5945 45.6614C69.6335 45.5865 69.6703 45.5157 69.6934 45.4546L69.7022 45.3476L69.711 45.2406C69.7387 45.2053 69.7665 45.1702 69.7944 45.1351L69.7949 45.1345L69.8206 45.102L69.8774 45.0302C70.0041 44.7433 70.2274 44.3716 70.4698 44.1209C70.6342 43.9942 70.7981 43.8671 70.9625 43.7404C70.984 43.7174 71.0056 43.6933 71.0277 43.6685L71.0282 43.6679C71.1093 43.5774 71.1977 43.4785 71.3161 43.393L71.666 43.193C71.7716 43.1455 71.886 43.0918 72.0035 43.0367ZM72.1072 31.3542C72.1038 31.4104 72.1005 31.465 72.1129 31.5149C72.1532 31.6333 72.1936 31.7517 72.2344 31.8706C72.2325 31.895 72.2212 31.9202 72.2097 31.9458C72.1966 31.975 72.1832 32.0047 72.1832 32.0345C72.2013 32.0903 72.2189 32.1461 72.237 32.2019C72.2534 32.2731 72.2381 32.3321 72.2229 32.3908C72.2137 32.4263 72.2045 32.4617 72.2023 32.4997L72.2427 32.7344C72.2223 32.7811 72.2016 32.8275 72.1808 32.874L72.1806 32.8744L72.1804 32.875L72.161 32.9184C72.1579 32.9569 72.1552 32.9957 72.1525 33.0344L72.1524 33.0355C72.1343 33.2948 72.1161 33.5566 71.9827 33.7884C71.7454 33.9238 70.8976 33.6142 70.6541 33.5139C70.5911 33.5072 70.5275 33.5 70.4644 33.4932L70.2137 33.3387L70.0002 33.3045L69.7598 33.0998L69.7327 33.0931L69.6717 33.0779L69.6229 33.0656L69.5836 33.0559L69.2993 32.8073L69.1251 32.7116L68.9503 32.6155C68.3879 32.1513 67.6797 31.06 67.4435 30.372C67.4199 30.3032 67.4234 30.2328 67.4267 30.165C67.4294 30.1111 67.432 30.0587 67.4207 30.0102C67.4046 29.9731 67.3883 29.9363 67.372 29.8995L67.3709 29.8969L67.3365 29.8189C67.3188 29.7444 67.3243 29.6758 67.3296 29.6089L67.3296 29.6087C67.3329 29.5679 67.3361 29.5279 67.3339 29.4875C67.3276 29.3733 67.311 29.2691 67.2948 29.1673L67.2948 29.1671C67.2726 29.027 67.251 28.8914 67.2579 28.7406L67.3262 28.5364C67.3189 28.2572 67.3629 27.4022 67.6311 27.2213C67.6854 27.2006 67.7397 27.1794 67.794 27.1583C68.6309 27.4457 69.4755 27.8024 70.2458 28.4066L70.42 28.6113L70.5942 28.816C71.1938 29.3568 71.6446 29.9812 71.8912 30.7478L71.994 30.9556L72.0969 31.1634C72.1149 31.226 72.111 31.2911 72.1072 31.3542ZM71.2945 22.9993L71.4818 23.4519L71.6718 23.9112L71.9386 24.3738L71.9585 24.5346L71.9784 24.6954C72.039 24.8305 72.0998 24.9657 72.1605 25.1008L72.1673 25.1157L72.1713 25.1247L72.2751 25.3555L72.2868 25.5421L72.2978 25.7173L72.4901 26.1128C72.5454 26.4681 72.6164 26.8254 72.6878 27.1844L72.6878 27.1846L72.6879 27.1849L72.6879 27.1851L72.688 27.1854L72.688 27.1857L72.688 27.1859L72.6881 27.1862L72.6882 27.1865L72.6883 27.1869C72.7375 27.4345 72.7868 27.6828 72.8313 27.9319C72.8599 28.0921 72.8582 28.361 72.857 28.5509L72.8566 28.6251C72.8561 28.7688 72.8846 28.9082 72.9132 29.0479L72.9132 29.048C72.9431 29.1941 72.973 29.3405 72.9698 29.4925C72.9652 29.703 72.9591 29.9144 72.9529 30.1265L72.9528 30.127L72.9528 30.1276L72.9528 30.1282L72.9528 30.1288L72.9528 30.1293L72.9527 30.1299L72.9527 30.1304L72.9527 30.131L72.9527 30.1315L72.9526 30.1321L72.9526 30.1327L72.9526 30.1333V30.1336V30.1339V30.1343V30.1347V30.135V30.1354L72.9526 30.1358C72.9388 30.6055 72.9249 31.0779 72.9274 31.5483L72.8793 31.6967L72.8318 31.843C72.8397 31.9964 72.8195 32.1281 72.7991 32.2614C72.7876 32.3364 72.776 32.412 72.7693 32.4922L72.7843 32.6137L72.7992 32.7336C72.7958 32.8646 72.7701 32.9994 72.7441 33.135C72.7228 33.2466 72.7013 33.3588 72.6922 33.4697C72.6628 33.5421 72.6333 33.6145 72.6033 33.6874L72.6095 33.8714C72.5981 33.9446 72.5704 34.0212 72.5425 34.0982C72.5077 34.1946 72.4727 34.2915 72.4689 34.3832C72.4623 34.5567 72.4169 34.7028 72.3689 34.8575L72.3687 34.8581C72.3529 34.9092 72.3367 34.9612 72.3216 35.0154L72.3107 35.2397C72.2641 35.3711 72.2218 35.5009 72.1795 35.6306L72.1794 35.631L72.1793 35.6312L72.1792 35.6314C72.1228 35.8046 72.0665 35.9774 72.0001 36.1531L71.998 36.2478L71.9959 36.3439C71.932 36.5512 71.8548 36.7527 71.7778 36.9536L71.7777 36.9538L71.7777 36.954C71.6685 37.2389 71.5598 37.5225 71.4904 37.8192C71.4382 37.9014 71.3859 37.9841 71.3337 38.0668C71.3042 38.1443 71.2787 38.2314 71.2529 38.3194C71.2204 38.4304 71.1874 38.5427 71.1456 38.639L71.1013 38.7055C71.0649 38.7602 71.0286 38.8148 70.9926 38.8696L70.9647 39.0903L70.9635 39.0919C70.9106 39.1648 70.8578 39.2377 70.8049 39.311C70.777 39.383 70.7488 39.4639 70.7201 39.5463C70.677 39.6699 70.6328 39.7969 70.5863 39.9029L70.4162 40.1304C70.4038 40.1811 70.3915 40.232 70.3792 40.2829L70.3578 40.3713L70.181 40.5884C70.1717 40.6473 70.1624 40.7068 70.1536 40.7657L69.9597 41.0231C69.9157 41.1048 69.876 41.2066 69.8356 41.3099L69.8356 41.3101C69.7874 41.4335 69.7383 41.5591 69.6801 41.6553L69.4795 41.9024L69.4144 42.1335L69.4104 42.1376L69.4091 42.139L69.4078 42.1403L69.3145 42.2367L69.2242 42.3304L69.1864 42.4491L69.1487 42.5677C69.0663 42.7369 68.9594 42.8716 68.8483 43.0115L68.8482 43.0116L68.8482 43.0117C68.7781 43.1 68.7063 43.1904 68.638 43.2929C68.5985 43.3526 68.577 43.4186 68.556 43.4833C68.5392 43.5347 68.5228 43.5853 68.4979 43.631L68.4972 43.6317C68.4338 43.6971 68.3705 43.7626 68.3076 43.828C68.2725 43.9138 68.2373 43.9996 68.2017 44.0854L68.0877 44.1888L67.9737 44.2922C67.9474 44.3581 67.9209 44.4239 67.8945 44.4897L67.8476 44.6065L67.818 44.6389C67.7291 44.7361 67.6403 44.8333 67.5519 44.9306L67.4495 45.1715L67.2014 45.4351L67.0649 45.7127C67.0113 45.7848 66.9478 45.8445 66.8867 45.9021C66.7969 45.9866 66.712 46.0665 66.6705 46.1738C66.6336 46.2691 66.5582 46.3463 66.4798 46.4264C66.4264 46.4811 66.3716 46.5372 66.3268 46.6013L66.1562 46.9156C66.0745 46.9833 65.9928 47.0515 65.9117 47.1193L65.5813 47.6109C65.5329 47.6644 65.4812 47.7144 65.4309 47.763C65.2634 47.9248 65.1121 48.0709 65.1523 48.2829C65.1926 48.4938 65.526 48.6814 65.6496 48.7393C65.6985 48.7624 65.7387 48.785 65.7758 48.8058C65.8585 48.8523 65.9255 48.8899 66.0393 48.9042C66.2861 48.7378 66.4155 48.5395 66.5352 48.3558C66.5672 48.3067 66.5985 48.2587 66.6312 48.2126C66.7537 48.089 66.8763 47.9655 66.9983 47.8419L67.001 47.8369C67.0513 47.7471 67.1015 47.6573 67.1518 47.568C67.2412 47.4899 67.3306 47.4124 67.4201 47.3343C67.4664 47.2799 67.4912 47.2121 67.5147 47.1477C67.5287 47.1094 67.5423 47.0724 67.5596 47.0402L67.7349 46.853L67.9101 46.6659C67.9396 46.5936 67.969 46.5212 67.999 46.4483L68.1164 46.3281L68.2337 46.2079L68.2367 46.2024C68.306 46.0761 68.3753 45.9497 68.4451 45.8233L68.4956 45.7729L68.5723 45.6967L68.5791 45.6899C68.6195 45.6498 68.6598 45.6097 68.7 45.5695L68.7355 45.4603L68.7718 45.3488C68.8718 45.1982 68.9726 45.0744 69.0718 44.9527C69.1813 44.8183 69.2889 44.6863 69.3911 44.5232L69.4457 44.386L69.5002 44.2488L69.614 44.1236L69.7282 43.998C69.7473 43.9324 69.7669 43.8662 69.7866 43.8006L69.9804 43.5866L70.0331 43.4481L70.0524 43.3975L70.0761 43.3359L70.2937 43.0919L70.3759 42.821L70.462 42.7216L70.5496 42.6204L70.5519 42.615L70.5522 42.6144C70.6015 42.5017 70.6507 42.3889 70.6995 42.2761C70.7527 42.2172 70.806 42.1583 70.8592 42.0988L70.9615 41.7711C71.6656 40.4969 72.2099 39.248 72.7346 37.9453L72.7383 37.8407L72.7419 37.7375C72.796 37.6006 72.8494 37.4698 72.9023 37.34L72.9034 37.3372L72.9043 37.335L72.9049 37.3336C72.9773 37.156 73.049 36.9804 73.1208 36.7941C73.128 36.7171 73.1347 36.6402 73.1414 36.5632L73.1414 36.563L73.1428 36.5613L73.1429 36.5611L73.143 36.561L73.1431 36.5609L73.1431 36.5607L73.1432 36.5606C73.1711 36.5237 73.1989 36.4867 73.2267 36.4493L73.2205 36.2653L73.34 36.0714C73.3555 36.0049 73.3597 35.931 73.364 35.8566C73.3696 35.76 73.3752 35.6626 73.4056 35.5793C73.7018 34.7683 73.8719 33.7416 73.9246 32.8784C73.9463 32.8303 73.968 32.7827 73.9892 32.7347C74.043 32.4224 74.0425 32.0709 74.0326 31.7504C74.0293 31.643 74.0612 31.5218 74.0925 31.4029C74.1151 31.317 74.1374 31.2323 74.1458 31.1549L74.1055 30.9642C74.1014 30.7393 74.1298 30.4953 74.1583 30.2777L74.0947 29.9861C74.094 29.8769 74.0967 29.7689 74.0995 29.661V29.6607V29.6603V29.6598V29.6594C74.1075 29.3399 74.1155 29.0214 74.0368 28.6768L74.0372 28.6671C74.0417 28.5757 74.0463 28.4838 74.0512 28.3919C74.0343 28.3143 74.0176 28.2367 74.0008 28.1592L73.9863 28.0924L73.9742 28.0368C73.983 27.8274 73.9561 27.5219 73.9287 27.3136L73.9248 27.3014L73.9246 27.3009C73.881 27.1655 73.8374 27.0302 73.7943 26.8949L73.8047 26.7794L73.815 26.6638L73.6972 26.379C73.6849 26.3198 73.6884 26.2624 73.692 26.2039C73.6958 26.1417 73.6996 26.0783 73.6847 26.0104C73.6253 25.8709 73.5658 25.7313 73.5059 25.5917L73.4966 25.3374C73.4371 25.1978 73.3777 25.0582 73.3177 24.9187L73.251 24.47L73.0215 24.0409C72.9826 23.9453 72.957 23.8573 72.9307 23.7673L72.9307 23.7672L72.9307 23.7671C72.8998 23.6611 72.868 23.5522 72.8127 23.4242L72.7917 23.3753L72.759 23.2985L72.759 23.2985C72.5581 22.8255 72.1262 21.8085 71.8305 21.6775C71.7762 21.6987 71.722 21.7199 71.6677 21.7406L71.3166 21.9923L70.9647 22.2446C70.9613 22.4399 71.035 22.5563 71.1295 22.7057C71.1813 22.7875 71.2394 22.8793 71.2945 22.9993ZM67.0167 32.7517C66.9339 32.7155 66.8598 32.6743 66.7883 32.6346C66.6364 32.5503 66.4963 32.4724 66.3086 32.4622C66.0951 32.6664 66.0343 32.9975 65.9812 33.2867L65.9812 33.2868C65.9637 33.3821 65.947 33.4728 65.926 33.5529C65.635 34.6618 65.6836 36.4276 66.9495 37.7204L67.2347 38.0471L67.5207 38.3749L67.7477 38.4726L67.8423 38.57L67.9369 38.6674C67.9888 38.7083 68.0491 38.7243 68.1073 38.7398C68.1448 38.7498 68.1815 38.7595 68.2145 38.7755C68.3204 38.8608 68.4264 38.9456 68.5324 39.0308C68.8182 39.157 69.176 39.2857 69.4809 39.3513C69.5128 39.3582 69.5524 39.3719 69.5963 39.3872C69.7548 39.4422 69.9704 39.5171 70.0878 39.3596C70.1507 39.2598 70.1711 39.1303 70.1898 39.0116L70.1898 39.0115L70.1899 39.0114L70.1899 39.0112L70.1899 39.0112L70.1899 39.0111L70.19 39.011L70.19 39.0109L70.19 39.0108L70.19 39.0107L70.1901 39.0106L70.1901 39.0105L70.1901 39.0104L70.1901 39.0103C70.2027 38.9303 70.2145 38.8553 70.2383 38.7977C71.0028 36.9424 69.59 34.0668 67.4964 32.9885C67.4132 32.9223 67.3295 32.8561 67.2463 32.7905C67.1915 32.7808 67.1366 32.7717 67.0813 32.7625L67.0807 32.7624L67.0167 32.7517ZM65.7917 22.647L65.8227 22.3657C65.7993 22.2967 65.7762 22.2273 65.7531 22.1582L65.7521 22.1549L65.7353 22.1047C65.7219 21.9258 65.7901 20.8765 65.878 20.7658C66.4606 20.76 66.9643 20.9413 67.4801 21.1269L67.4803 21.1269C67.6985 21.2055 67.9189 21.2848 68.1484 21.351L68.239 21.4274L68.3515 21.5221C68.42 21.551 68.4883 21.5803 68.5566 21.6095L68.6193 21.6364L68.7767 21.7724L68.9341 21.9083C68.9851 21.9285 69.036 21.9489 69.0868 21.9693L69.1951 22.0127L69.3756 22.2155L69.5534 22.4154C70.0134 22.8165 70.612 23.4342 70.8612 24.1228L70.8964 24.2952L70.9315 24.4676L71.1238 24.9065C71.1217 24.9902 71.1192 25.0739 71.1166 25.1577C71.1241 25.2072 71.1325 25.2592 71.1412 25.3131L71.1414 25.3145C71.2184 25.7926 71.3194 26.419 71.0752 26.7783C70.5934 26.8992 70.0548 26.7917 69.6206 26.6439C69.5198 26.6097 69.4055 26.5921 69.2923 26.5747C69.207 26.5616 69.1222 26.5486 69.0442 26.5286L68.8105 26.3771C68.7369 26.3432 68.6481 26.3132 68.5566 26.2823C68.4085 26.2323 68.2531 26.1799 68.1432 26.1042L68.0548 26.0283L67.8656 25.8659C67.7762 25.8281 67.6873 25.7899 67.5978 25.7516C67.5067 25.6441 67.4151 25.5366 67.3235 25.4292L67.3207 25.426C67.2631 25.3841 67.2057 25.3421 67.1482 25.3002C67.0907 25.2581 67.0331 25.2161 66.9754 25.1742C66.3215 24.6289 65.892 23.2476 65.7917 22.647ZM79.9726 30.5708C79.958 30.5268 79.9433 30.4831 79.9286 30.4393C79.9141 30.396 79.8996 30.3526 79.8852 30.3092C79.8764 30.2484 79.8798 30.1893 79.8831 30.1322C79.8923 29.9729 79.9006 29.8287 79.6392 29.7023C79.1134 29.8646 78.5614 30.0311 78.0341 30.1738L77.2396 30.607C76.4694 31.1048 75.9783 31.6413 75.5875 32.21C75.4887 32.318 75.39 32.426 75.2918 32.5341L75.2711 32.6342L75.2614 32.6822L75.2473 32.7517L75.169 32.8535L75.0907 32.9554C75.0814 33.0143 75.0721 33.0737 75.0633 33.1327L74.9816 33.2513L74.9 33.3699L74.8963 33.4738L74.8927 33.5777C74.8728 33.6419 74.8433 33.7064 74.8137 33.7713C74.7656 33.8766 74.7171 33.9827 74.7082 34.0895L74.7175 34.3438C74.6813 34.5046 74.6399 34.7233 74.6415 34.8861L74.702 35.1508L74.6813 35.251C74.6744 35.2845 74.6676 35.318 74.6606 35.3513C74.7009 35.4552 74.7413 35.5591 74.7821 35.663C74.7906 35.6995 74.7877 35.7319 74.7848 35.7646C74.7807 35.8092 74.7767 35.8542 74.8017 35.9107C75.725 36.0988 77.2964 35.5881 78.3045 34.6607L78.4747 34.5296L78.5567 34.4665C78.6404 34.4022 78.724 34.3379 78.8074 34.2735C79.4009 33.5509 79.908 32.516 79.9059 31.6713C79.9056 31.5768 79.929 31.4745 79.9524 31.3717C79.9777 31.2603 80.0032 31.1483 79.9989 31.0453L79.9385 30.8675L79.9726 30.5708ZM78.4654 36.3229C78.5264 36.3405 78.5874 36.3586 78.6484 36.3767C78.687 36.3786 78.742 36.3767 78.8064 36.3745C79.0845 36.3648 79.5374 36.3491 79.5969 36.6114C79.6445 36.8277 79.448 37.383 79.339 37.6911L79.3389 37.6912L79.3202 37.7443L79.2987 37.806C79.2729 37.8815 79.2505 37.9659 79.2277 38.0521C79.1902 38.194 79.1513 38.3409 79.0935 38.4615L78.8758 38.7489L78.8453 38.8551L78.8143 38.9629C78.7188 39.0679 78.6228 39.173 78.5269 39.278L78.5186 39.287C78.4971 39.3201 78.476 39.3573 78.4542 39.3959C78.4068 39.4796 78.3557 39.57 78.287 39.6411L77.628 40.1451C77.4145 40.34 77.1472 40.4816 76.9012 40.5917L76.3713 40.8952L75.8962 40.9743C75.8325 40.9993 75.7686 41.0242 75.7047 41.0491L75.6163 41.0836L75.5127 41.1242L75.4358 41.1085L75.3916 41.0997L75.3095 41.0833C75.185 41.1169 75.0609 41.15 74.9363 41.1831C74.7994 41.1975 74.6465 41.1771 74.5009 41.1576C74.4322 41.1484 74.3651 41.1395 74.302 41.1345C74.2444 41.1299 74.1698 41.126 74.0855 41.1217C73.7367 41.1037 73.2202 41.077 73.0345 40.9505C72.7595 40.7628 73.0795 39.8737 73.1974 39.685C73.2219 39.6458 73.2172 39.6046 73.2125 39.5637C73.2089 39.5323 73.2053 39.5011 73.2149 39.471C73.2477 39.3679 73.3142 39.2534 73.3757 39.1474L73.3758 39.1473L73.3759 39.1472C73.4084 39.0912 73.4395 39.0376 73.4636 38.9892L73.5097 38.9413L73.5944 38.8537L73.6538 38.7923C73.6725 38.7438 73.691 38.695 73.7096 38.6463L73.7494 38.5416C73.808 38.4426 73.9005 38.3668 73.9975 38.2872C74.0546 38.2404 74.1133 38.1923 74.1676 38.1373L74.3755 37.8567C74.6136 37.6113 74.9362 37.4078 75.2683 37.1982L75.3406 37.1526L75.6936 36.9794C75.9052 36.8968 76.117 36.8143 76.3289 36.7317L76.7864 36.5535L76.9136 36.5571L77.0407 36.5607L77.3597 36.4242L77.514 36.4245L77.6683 36.4248L77.8444 36.3817L78.0214 36.3384L78.1045 36.3638L78.1873 36.3891C78.2336 36.378 78.2801 36.367 78.3265 36.356C78.3729 36.345 78.4192 36.334 78.4654 36.3229ZM2.94509 22.7482L3.52354 23.5903C3.87453 24.0865 4.27361 24.544 4.94096 24.9095C5.33848 24.7694 5.68069 24.0984 5.85334 23.7252L6.01566 23.5272L6.01722 23.5113L6.01723 23.5112C6.02343 23.4484 6.02958 23.3859 6.0353 23.323C6.0615 23.2729 6.08784 23.223 6.11418 23.173L6.11419 23.173L6.1142 23.173L6.11421 23.1729L6.11422 23.1729L6.11423 23.1729L6.11424 23.1729L6.11425 23.1729L6.11445 23.1725L6.11465 23.1721C6.14114 23.1218 6.16763 23.0716 6.194 23.0212L6.19323 23.0114L6.19322 23.0113C6.18987 22.9686 6.18654 22.9264 6.18366 22.8836C6.22088 22.8211 6.25809 22.7585 6.2948 22.696L6.28446 22.6022L6.27412 22.5084C6.39405 21.7035 6.43489 21.1132 6.1909 20.3822L6.18212 20.2316L6.17333 20.0809L6.07464 19.8786L5.97586 19.6761L5.86264 19.2109L5.35554 18.4587C5.19089 18.212 4.99071 17.9729 4.78335 17.7253C4.72835 17.6597 4.67284 17.5934 4.61736 17.5262C4.58659 17.489 4.55934 17.4515 4.53221 17.4142L4.5322 17.4142C4.45817 17.3123 4.38496 17.2116 4.2431 17.1219L4.15833 17.0956C4.0181 17.1531 3.95053 17.2372 3.85648 17.3542C3.81359 17.4076 3.76519 17.4678 3.70188 17.5355C3.57997 17.6711 3.45762 17.8066 3.33563 17.9418L3.29971 17.9816L3.25757 18.099L3.21545 18.2163C3.17539 18.2721 3.13546 18.3281 3.09552 18.384C3.05559 18.44 3.01566 18.4959 2.97559 18.5518C2.95647 18.6309 2.93734 18.7105 2.91873 18.7896L2.85618 18.8718L2.79363 18.9539L2.75331 19.1886C2.39146 20.2401 2.38113 21.1385 2.713 22.0447C2.74508 22.1327 2.76847 22.2221 2.79196 22.3119C2.83015 22.4579 2.86859 22.6048 2.94509 22.7482ZM1.1845 38.9632L1.18274 38.9613L1.16473 38.8989C1.15017 38.8483 1.13557 38.7975 1.12019 38.7463L0.902561 38.4589C0.844601 38.3381 0.805698 38.1911 0.768107 38.049C0.745351 37.963 0.723077 37.8788 0.697346 37.8034C0.686332 37.7712 0.672588 37.7324 0.657072 37.6885C0.548065 37.3805 0.351558 36.8251 0.399072 36.6088C0.459069 36.3474 0.912045 36.3632 1.19001 36.3729H1.19006H1.19011H1.19015H1.1902H1.19024H1.19029H1.19034H1.19038C1.25473 36.3751 1.30968 36.3771 1.34816 36.3751C1.40873 36.3577 1.4693 36.3397 1.52987 36.3217L1.53115 36.3213C1.57741 36.3325 1.62381 36.3434 1.67021 36.3544C1.7166 36.3654 1.763 36.3764 1.80926 36.3875L1.89208 36.3622L1.9752 36.3368L2.13294 36.3754C2.19814 36.3913 2.26328 36.4072 2.32826 36.4232L2.48256 36.4229L2.63687 36.4227C2.74284 36.4681 2.84932 36.5136 2.95581 36.5591L3.08297 36.5555L3.21014 36.5519C3.42163 36.6345 3.63329 36.7169 3.84502 36.7994L4.30293 36.9778L4.65599 37.151L4.73063 37.1981L4.73066 37.1982C5.06197 37.4072 5.38403 37.6103 5.6211 37.8551L5.82891 38.1358C5.8833 38.1907 5.94203 38.239 5.99914 38.2859C6.09616 38.3656 6.18853 38.4414 6.2471 38.54C6.26565 38.5882 6.28402 38.6365 6.30242 38.6849L6.30244 38.685L6.30247 38.685L6.30249 38.6851L6.30251 38.6852L6.34273 38.7907C6.40512 38.8557 6.46801 38.9206 6.53091 38.9855L6.53297 38.9877C6.55732 39.0367 6.5888 39.091 6.62161 39.1477C6.68279 39.2532 6.74863 39.3668 6.7816 39.4694C6.79125 39.4995 6.78766 39.5307 6.78405 39.5621C6.77934 39.603 6.77461 39.6442 6.79919 39.6835C6.91756 39.8726 7.23754 40.7613 6.96201 40.9489C6.77674 41.0755 6.26018 41.1021 5.91113 41.1201H5.91111L5.91093 41.1201C5.82668 41.1245 5.7522 41.1283 5.6945 41.1329C5.63145 41.1379 5.56436 41.1469 5.49564 41.1561C5.35027 41.1755 5.19764 41.1959 5.06075 41.1815C4.93617 41.1479 4.8121 41.1148 4.68752 41.0817C4.61981 41.0957 4.55209 41.1091 4.48437 41.1226C4.35669 41.0724 4.22849 41.0223 4.10081 40.9727L3.62575 40.8936L3.0959 40.5902C2.84984 40.48 2.58259 40.3384 2.36909 40.1435L1.71001 39.6395C1.64042 39.5678 1.5885 39.4759 1.54062 39.3911C1.51949 39.3537 1.49915 39.3177 1.47843 39.2854C1.38079 39.178 1.28264 39.0706 1.1845 38.9632ZM7.84605 33.0354L7.84606 33.0355C7.86415 33.2948 7.88243 33.5566 8.01582 33.7884C8.2531 33.9238 9.10086 33.6142 9.34434 33.5139L9.43921 33.5036L9.53405 33.4932L9.78476 33.3387L9.99825 33.3045L10.2386 33.0998L10.2635 33.0937L10.3257 33.0781L10.3268 33.0779L10.3279 33.0776L10.3635 33.0687L10.4149 33.0559L10.505 32.9772L10.5051 32.9771C10.5698 32.9206 10.6346 32.8641 10.6992 32.8073L10.8734 32.7115L11.0481 32.6155C11.6106 32.1508 12.3188 31.06 12.555 30.372C12.5786 30.3032 12.5751 30.2328 12.5718 30.165C12.5691 30.1111 12.5665 30.0587 12.5777 30.0102L12.6122 29.9321L12.6122 29.932L12.6123 29.9318L12.6124 29.9316L12.6332 29.8845L12.662 29.8189C12.6796 29.7441 12.6742 29.6755 12.6689 29.6087V29.6087V29.6087V29.6087V29.6087V29.6087V29.6087V29.6087C12.6656 29.5679 12.6624 29.5279 12.6646 29.4875C12.6709 29.3736 12.6875 29.2697 12.7037 29.1681C12.7261 29.0278 12.7478 28.892 12.7406 28.7406L12.6723 28.5364C12.6796 28.2572 12.6356 27.4022 12.3673 27.2213L12.2859 27.1898L12.2045 27.1583C11.3676 27.4451 10.5224 27.8023 9.75271 28.4066L9.57837 28.6115L9.4043 28.816C8.80414 29.3568 8.35338 29.9812 8.10732 30.7478L8.0045 30.9555L7.90159 31.1634C7.88354 31.2263 7.88748 31.2914 7.89129 31.3544C7.89468 31.4105 7.89798 31.465 7.88556 31.5149L7.7646 31.8701C7.76654 31.8948 7.77791 31.9201 7.78945 31.9457C7.80251 31.9748 7.81578 32.0043 7.81578 32.0339L7.78887 32.1178L7.76201 32.2014C7.74558 32.273 7.76088 32.3318 7.77612 32.3905C7.78533 32.4259 7.79451 32.4612 7.79665 32.4992L7.75633 32.7339C7.78269 32.7959 7.81009 32.8574 7.83748 32.9184C7.8406 32.9573 7.84332 32.9963 7.84605 33.0354ZM11.5841 21.5475L11.6469 21.5207C11.7146 21.4638 11.7824 21.4064 11.8501 21.349C12.0788 21.2828 12.2986 21.2037 12.5161 21.1254L12.5162 21.1254L12.5162 21.1254L12.5162 21.1254L12.5162 21.1254L12.5162 21.1254L12.5162 21.1254C13.0326 20.9395 13.5367 20.7581 14.1204 20.7639C14.2088 20.874 14.2771 21.9234 14.2631 22.1027C14.2487 22.1462 14.2342 22.1895 14.2197 22.2328L14.2194 22.2335L14.2192 22.2342C14.2047 22.2775 14.1901 22.3209 14.1757 22.3643L14.2068 22.6455C14.1065 23.2457 13.6769 24.6274 13.023 25.1728C12.9653 25.2146 12.9078 25.2566 12.8503 25.2986C12.7928 25.3406 12.7353 25.3826 12.6777 25.4245C12.5857 25.5331 12.4931 25.6416 12.4006 25.7502C12.3315 25.7793 12.2627 25.8088 12.1938 25.8383L12.1328 25.8644L11.9941 25.9835L11.8552 26.1027C11.7453 26.1785 11.59 26.2309 11.4418 26.2809L11.4418 26.2809C11.3503 26.3118 11.2615 26.3417 11.1879 26.3757L10.9542 26.5271C10.8763 26.5471 10.7915 26.5601 10.7061 26.5732C10.5927 26.5906 10.4784 26.6082 10.3779 26.6424C9.94363 26.7902 9.40499 26.8978 8.92321 26.7768C8.68001 26.4178 8.78013 25.7935 8.85675 25.3157C8.86562 25.2604 8.87418 25.207 8.88186 25.1562C8.87979 25.0725 8.87721 24.9887 8.87463 24.905L9.06692 24.4661L9.10207 24.2937L9.13723 24.1213C9.38638 23.4328 9.98499 22.8151 10.4451 22.4139L10.624 22.2128L10.8033 22.0112C10.8542 21.9911 10.9049 21.9707 10.9555 21.9504L10.9555 21.9504L10.9556 21.9504L10.9557 21.9503L10.9557 21.9503L11.0643 21.9068L11.2218 21.7708L11.3792 21.6349C11.4476 21.606 11.5158 21.5768 11.5841 21.5475ZM9.90873 39.3584C10.0262 39.516 10.2424 39.4409 10.4009 39.3859L10.4009 39.3858C10.4446 39.3706 10.484 39.357 10.5156 39.3502C10.8206 39.2845 11.1783 39.1558 11.4642 39.0297L11.6233 38.9018L11.7821 38.7743C11.8148 38.7587 11.851 38.7492 11.8879 38.7394C11.9466 38.7239 12.0073 38.7078 12.0597 38.6663L12.1545 38.5686L12.2489 38.4714L12.4758 38.3737L12.7616 38.0462L13.047 37.7193C14.313 36.4264 14.3616 34.6606 14.0705 33.5518C14.0495 33.4716 14.0329 33.3809 14.0154 33.2857C13.9623 32.9966 13.9015 32.6656 13.688 32.461C13.5005 32.4716 13.3608 32.5491 13.2091 32.6332L13.209 32.6332C13.1374 32.673 13.0631 32.7142 12.9798 32.7505L12.7493 32.7877C12.666 32.8539 12.5823 32.9201 12.4991 32.9857C10.4055 34.064 8.99273 36.9397 9.75727 38.795C9.78164 38.8538 9.7938 38.9302 9.80672 39.0114C9.82561 39.1301 9.84613 39.259 9.90873 39.3584ZM13.0705 39.3149C13.2807 38.9862 13.4944 38.652 13.738 38.4182L13.7635 38.4L13.7641 38.3995L13.7646 38.3992C13.8685 38.3248 13.9729 38.2501 14.0781 38.1763C14.1621 38.0804 14.2463 37.9847 14.3306 37.8889L14.3311 37.8883L14.4498 37.7535C14.563 37.6868 14.6689 37.6877 14.79 37.6887H14.7902H14.7904C14.8129 37.6889 14.836 37.6891 14.8597 37.6888C14.968 37.7613 14.9975 37.8362 15.0279 37.9132C15.0417 37.9483 15.0557 37.9838 15.0773 38.0197C15.176 38.1316 15.2746 38.244 15.3732 38.3564L15.374 38.3573L15.3748 38.3582L15.3766 38.3603C15.3828 38.3911 15.3892 38.4217 15.3955 38.4524L15.3956 38.4529C15.4019 38.4834 15.4082 38.5138 15.4144 38.5444L15.496 38.6413L15.5777 38.7382C15.5922 38.8106 15.6072 38.8835 15.6222 38.9558C15.6731 39.0291 15.7238 39.1024 15.7746 39.176L15.7756 39.1775L15.8233 39.2463L15.8482 39.3545C15.9527 39.8065 16.052 40.2366 16.0879 40.7087L16.1187 40.8157L16.1494 40.9228C16.1515 41.0835 16.1204 41.2278 16.0883 41.3763C16.0651 41.4837 16.0415 41.5934 16.0295 41.7131C16.026 41.7502 16.0328 41.7894 16.0398 41.8298C16.0493 41.8847 16.0592 41.9417 16.044 41.998C15.9608 42.166 15.8775 42.3335 15.7943 42.5009L15.7711 42.7754C15.48 43.6098 14.3614 44.7977 13.7897 45.0706C13.7189 45.1045 13.6545 45.1538 13.5919 45.2017C13.4214 45.3323 13.2643 45.4526 13.0272 45.2231C12.9655 45.0469 12.8527 44.8841 12.7396 44.7208C12.6453 44.5847 12.5508 44.4483 12.4854 44.3035C12.4736 44.2332 12.4622 44.1629 12.4508 44.0926C12.2068 43.4598 12.1453 43.1021 12.1345 42.4224L12.0895 42.1179C12.1153 42.0435 12.1412 41.9685 12.167 41.8935C12.1525 41.8212 12.1376 41.7483 12.1226 41.6759C12.148 41.609 12.1732 41.5418 12.1985 41.4746L12.1986 41.4743L12.2539 41.3275L12.2805 41.1133L12.3071 40.899C12.3651 40.784 12.4231 40.6686 12.4811 40.5531L12.4823 40.5506C12.5589 40.2662 12.6597 39.938 12.8731 39.6191C12.9389 39.5207 13.0042 39.4186 13.0699 39.3159L13.0702 39.3155L13.0704 39.315L13.0705 39.3149ZM6.30127 26.3797L6.18341 26.6645L6.19375 26.78L6.20409 26.8956L6.20341 26.8977L6.20335 26.8979C6.15863 27.0367 6.1139 27.1755 6.06968 27.3143C6.04177 27.5231 6.01541 27.8286 6.0242 28.0375L5.98568 28.2151L5.94717 28.3926L5.94782 28.4059L5.94784 28.4062C5.95227 28.4963 5.95672 28.5868 5.96165 28.6774C5.88323 29.0224 5.89112 29.3411 5.89904 29.6609C5.90172 29.769 5.9044 29.8773 5.90375 29.9868L5.84017 30.2784C5.8686 30.4955 5.89703 30.74 5.8929 30.9648L5.85257 31.1556C5.86103 31.2332 5.88338 31.3178 5.90604 31.4037L5.90604 31.4037C5.93743 31.5225 5.96939 31.6436 5.96579 31.7511C5.95597 32.0716 5.95545 32.4231 6.00921 32.7353L6.02465 32.7695C6.04119 32.806 6.05766 32.8424 6.07383 32.879C6.12655 33.7423 6.29662 34.7689 6.59282 35.58C6.6232 35.6629 6.62882 35.7604 6.6344 35.8571C6.63869 35.9316 6.64296 36.0055 6.65847 36.0721L6.77788 36.2659L6.77168 36.45L6.8144 36.5069L6.85697 36.5637L6.86757 36.6792L6.87817 36.7948C6.94998 36.9811 7.02161 37.1567 7.09406 37.3343L7.09411 37.3345L7.09414 37.3345C7.14788 37.4663 7.20206 37.5991 7.25708 37.7382L7.26069 37.842L7.26431 37.946C7.789 39.2486 8.33333 40.4981 9.03738 41.7718L9.13974 42.0995C9.19298 42.1584 9.24622 42.2174 9.29946 42.2768L9.30059 42.2794C9.35036 42.3933 9.40012 42.5072 9.44938 42.6211L9.53631 42.7215L9.62306 42.8217L9.70525 43.0925L9.92288 43.3365L9.96313 43.4422L9.96321 43.4424L9.96329 43.4426C9.98166 43.4909 10 43.5391 10.0185 43.5872L10.2124 43.8012C10.2222 43.8341 10.2319 43.867 10.2416 43.9L10.2594 43.9606L10.2708 43.9987L10.3848 44.1241L10.4987 44.2494L10.5533 44.3867L10.6078 44.5239C10.7101 44.6869 10.8176 44.8189 10.9271 44.9533C11.0263 45.0751 11.1271 45.1988 11.2271 45.3494L11.2631 45.4599L11.299 45.5702L11.3743 45.6453L11.4264 45.6971C11.4689 45.7394 11.5114 45.7816 11.5538 45.824L11.555 45.8262C11.6249 45.9537 11.6948 46.0811 11.7652 46.2086L11.8827 46.3289L11.9999 46.449C12.0294 46.5213 12.0588 46.5937 12.0888 46.6666C12.2056 46.7912 12.3225 46.9157 12.4393 47.0408C12.4567 47.0731 12.4703 47.1103 12.4844 47.1487C12.508 47.2131 12.5329 47.2809 12.5789 47.335L12.7129 47.4517L12.8472 47.5686C12.8983 47.6601 12.9495 47.7516 13.0007 47.8426L13.004 47.846C13.1254 47.9684 13.2468 48.0908 13.3677 48.2132C13.4004 48.2593 13.4317 48.3073 13.4636 48.3563L13.4637 48.3564L13.4637 48.3565C13.5835 48.5401 13.7128 48.7385 13.9596 48.9049C14.0725 48.8907 14.1396 48.8531 14.2218 48.8069L14.2219 48.8069L14.2219 48.8069L14.2219 48.8068C14.2593 48.7859 14.2999 48.7631 14.3493 48.74C14.4729 48.6821 14.8068 48.4944 14.8466 48.2835C14.8868 48.0716 14.7355 47.9254 14.568 47.7636L14.568 47.7636L14.5679 47.7635C14.5177 47.715 14.466 47.6651 14.4176 47.6115L14.0873 47.1199C14.0179 47.0624 13.9485 47.0045 13.8794 46.9468L13.8784 46.946L13.8756 46.9437L13.8428 46.9163L13.6722 46.602C13.6272 46.5377 13.5724 46.4815 13.519 46.4267L13.5189 46.4266C13.4408 46.3465 13.3656 46.2693 13.3284 46.1745C13.287 46.0674 13.2024 45.9878 13.1128 45.9035C13.0515 45.8458 12.9878 45.7859 12.934 45.7134L12.7975 45.4358L12.5494 45.1721L12.4471 44.9312L12.4449 44.9289C12.3469 44.8216 12.2489 44.7144 12.1514 44.6071C12.1251 44.5413 12.0987 44.4756 12.0723 44.4099L12.0722 44.4096L12.0252 44.2928L11.911 44.1893L11.7973 44.0861C11.7621 44.0003 11.727 43.9144 11.6913 43.8286L11.691 43.8283C11.6275 43.7628 11.564 43.6972 11.5011 43.6317C11.4762 43.5862 11.4598 43.5358 11.4432 43.4844C11.4222 43.4196 11.4008 43.3533 11.361 43.2936C11.2926 43.1911 11.2208 43.1006 11.1507 43.0123L11.1507 43.0123L11.1507 43.0123L11.1507 43.0123C11.0396 42.8723 10.9327 42.7376 10.8503 42.5684L10.8125 42.4497L10.7748 42.3311C10.7112 42.2654 10.6476 42.1998 10.5846 42.1341L10.5194 41.9031L10.3188 41.656C10.2605 41.5599 10.2115 41.4341 10.1632 41.3105C10.1229 41.2072 10.0832 41.1054 10.0392 41.0238L9.84534 40.7663C9.83604 40.7074 9.82673 40.648 9.81795 40.589L9.64116 40.3719C9.63134 40.3319 9.62166 40.2917 9.61197 40.2516C9.60227 40.2114 9.59257 40.1711 9.58274 40.131L9.41267 39.9036C9.36617 39.7976 9.32189 39.6705 9.27885 39.547C9.25012 39.4646 9.22194 39.3837 9.19401 39.3117L9.19242 39.3095C9.13971 39.2368 9.08699 39.1642 9.03428 39.091L9.00636 38.8702L8.9628 38.8048C8.92618 38.7498 8.88964 38.6949 8.85336 38.6397C8.81196 38.544 8.77903 38.4319 8.74649 38.3212C8.72052 38.2328 8.69479 38.1452 8.66519 38.0674C8.61298 37.9853 8.56077 37.9026 8.50856 37.8198C8.43915 37.5231 8.33046 37.2395 8.22126 36.9546C8.14423 36.7536 8.06694 36.5519 8.00301 36.3445L8.00119 36.2492L7.99938 36.1538C7.93198 35.9755 7.87482 35.8002 7.81753 35.6246C7.77598 35.4971 7.73435 35.3695 7.68871 35.2404L7.67786 35.016C7.66279 34.9623 7.6468 34.9109 7.6311 34.8604C7.58271 34.7048 7.53717 34.5583 7.53053 34.3838C7.52708 34.2921 7.492 34.195 7.45717 34.0986C7.42935 34.0216 7.40169 33.945 7.39044 33.872L7.39664 33.688C7.36718 33.6157 7.33772 33.5433 7.30773 33.4704C7.29862 33.3591 7.27713 33.2468 7.25576 33.135C7.22986 32.9997 7.20413 32.8651 7.20073 32.7343L7.21573 32.6135L7.23071 32.4929C7.22401 32.4127 7.21237 32.3372 7.2008 32.2623C7.18022 32.1289 7.15989 31.9972 7.16816 31.8436L7.12035 31.6963L7.07253 31.549C7.07502 31.078 7.06115 30.6047 7.04737 30.134C7.04109 29.9197 7.03483 29.7059 7.03014 29.4931C7.0267 29.3409 7.05676 29.1942 7.08677 29.0478C7.11534 28.9083 7.14386 28.7692 7.14335 28.6257L7.14297 28.5515C7.14178 28.3616 7.1401 28.0927 7.16868 27.9325C7.21324 27.6829 7.26273 27.4339 7.31205 27.1858L7.31205 27.1858L7.31205 27.1858L7.31205 27.1858C7.38345 26.8265 7.45452 26.469 7.50986 26.1134L7.70215 25.718L7.71389 25.5314L7.7249 25.3561C7.78875 25.2137 7.85282 25.0713 7.91683 24.929L8.02161 24.696L8.04152 24.5352L8.06142 24.3745L8.32815 23.9118L8.51683 23.4559L8.70551 23C8.7607 22.8797 8.81889 22.7878 8.87079 22.7059C8.96521 22.5568 9.03883 22.4406 9.03583 22.2458L8.33281 21.7418C8.27853 21.7206 8.22425 21.6994 8.16997 21.6787C7.87458 21.8098 7.44438 22.8222 7.24294 23.2963L7.24292 23.2963C7.22193 23.3458 7.20342 23.3893 7.18781 23.4254C7.13246 23.5534 7.1007 23.6624 7.06979 23.7684C7.04353 23.8585 7.0179 23.9464 6.97897 24.0421L6.74945 24.4712L6.68277 24.9199L6.6819 24.9219L6.68185 24.922L6.68181 24.9221L6.68176 24.9222C6.62265 25.061 6.56354 25.1998 6.50391 25.3386L6.4946 25.5929C6.43516 25.7325 6.37571 25.872 6.31574 26.0116C6.29955 26.0802 6.30322 26.1442 6.30683 26.2071C6.31013 26.2647 6.31338 26.3214 6.30127 26.3797ZM10.1497 45.0673L10.1202 45.0302C9.99359 44.7433 9.77027 44.3717 9.52783 44.1209C9.44556 44.0576 9.36341 43.994 9.28126 43.9305C9.19928 43.8671 9.1173 43.8037 9.0352 43.7405C9.01353 43.7172 8.99176 43.6929 8.96942 43.668C8.88841 43.5774 8.79995 43.4786 8.68162 43.3931L8.33166 43.1931C8.22613 43.1455 8.11181 43.0919 7.99437 43.0368L7.99422 43.0367L7.9942 43.0367C7.88043 42.9833 7.76374 42.9286 7.64931 42.8767L7.4795 42.78L7.30969 42.6834C6.41178 42.4182 5.22336 42.2709 4.41643 42.4699L4.31305 42.46L4.20966 42.4502L4.12826 42.4838L4.04683 42.5174L3.90106 42.4942C3.84471 42.4967 3.53352 42.6074 3.47097 42.6327C3.34584 42.8744 3.61992 43.4442 3.8014 43.8216L3.80142 43.8216C3.84859 43.9197 3.88951 44.0048 3.91553 44.0677C4.30271 45.0044 5.37275 46.1551 6.69919 46.4983C6.87909 46.5727 7.05898 46.6472 7.23887 46.7211L7.38102 46.6839C7.45334 46.6761 7.51653 46.7066 7.58446 46.7393C7.62967 46.7611 7.67698 46.7839 7.73047 46.7971L8.03236 46.763C8.12374 46.7645 8.2109 46.7751 8.29719 46.7855C8.41349 46.7996 8.52821 46.8134 8.64958 46.8048L8.88995 46.7304C8.95864 46.7246 9.02781 46.7201 9.09709 46.7155L9.09724 46.7155C9.36263 46.698 9.62951 46.6804 9.87624 46.5939L9.97016 46.5381L9.97062 46.5379C10.0204 46.5083 10.0702 46.4786 10.1202 46.4492C10.1756 46.4258 10.2296 46.4207 10.2807 46.4158C10.3966 46.4048 10.4978 46.3952 10.5674 46.1768C10.5932 46.0259 10.4928 45.8332 10.4037 45.6619C10.3645 45.5867 10.3275 45.5156 10.3043 45.4541L10.2964 45.3585L10.2867 45.2406C10.2412 45.1828 10.1953 45.1249 10.1497 45.0673ZM16.5641 47.6744H63.4306V60.199H16.5641V47.6744ZM2.01932 50.4859H15.2812V61.5886H21.0801V63.4309H2.01932L8.82676 56.9584L2.01932 50.4859ZM64.8555 61.5886V50.4859H78.1174L71.3099 56.9584L78.1174 63.4309H59.0566V61.5886H64.8555Z" fill="white"/>
<path d="M35.6967 56.5631V51.7125H38.8748V52.3888H36.504V53.7924H38.5766V54.476H36.4967V55.8868H38.8748V56.5631H35.6967Z" fill="#384250"/>
<path d="M39.9579 56.5631V51.7125H40.7942L42.3214 53.9596L43.885 51.7125H44.7068V56.5631H43.9068V52.8688L42.2851 55.1014L40.7361 52.8833V56.5631H39.9579Z" fill="#384250"/>
<path fill-rule="evenodd" clip-rule="evenodd" d="M52.6219 12.4719C52.6219 19.3492 46.9802 24.9438 40.0458 24.9438C33.1114 24.9438 27.4697 19.3492 27.4697 12.4719C27.4697 5.59466 33.1114 0 40.0458 0C46.9802 0 52.6219 5.59466 52.6219 12.4719ZM50.3177 12.4724C50.3177 6.85551 45.7098 2.28551 40.0458 2.28551C34.3819 2.28551 29.7739 6.85501 29.7734 12.4724C29.7734 18.0893 34.3819 22.6593 40.0458 22.6593C45.7098 22.6593 50.3177 18.0893 50.3177 12.4724ZM42.0455 27.8629L40.7492 29.4283L43.0894 36.7255L40.0609 39.8L40.0624 39.8334L40.0457 39.8187L40.0295 39.8399L40.0316 39.8182L37.0021 36.7619L39.3422 29.5026L38.0465 27.8629L38.7662 26.6901H38.8051H41.2863H41.3253L42.0455 27.8629ZM47.552 25.9383C46.9397 26.3776 46.8496 27.0686 46.754 27.8006L46.7539 27.8015C46.6462 28.6284 46.4985 29.7608 45.6569 31.0606C45.2761 31.6493 44.7177 32.0908 44.4355 32.244C43.8772 32.5465 43.6723 33.2409 43.9778 33.7947C44.2833 34.348 44.9833 34.5518 45.5416 34.2483C46.1035 33.9434 46.979 33.249 47.5965 32.2946C48.7172 30.5629 48.919 29.0178 49.0394 28.0948C49.0401 28.0889 49.0409 28.083 49.0417 28.0769C49.0422 28.0737 49.0426 28.0704 49.0429 28.067C54.7984 29.4563 57.8952 34.5877 57.8952 38.654C57.8952 38.9225 57.8476 40.8486 57.7784 40.8486H60.1099C60.1873 40.3428 60.1994 38.6666 60.1994 38.654C60.1994 35.5628 58.9365 32.4337 56.6439 30.0516C54.5734 27.9001 51.7326 26.2938 48.8492 25.7451C48.2302 25.6272 47.8023 25.7587 47.552 25.9383ZM22.101 38.6539C22.101 38.9225 22.1485 40.8485 22.2178 40.8485L19.8868 40.848C19.8099 40.3422 19.7972 38.666 19.7972 38.6534C19.7972 35.5622 21.0601 32.3193 23.3527 29.9367C25.4233 27.7852 28.2641 26.2366 31.1474 25.6874C31.7659 25.5705 32.1943 25.7592 32.4441 25.9387C33.0563 26.378 33.1466 27.0694 33.2421 27.8013L33.2422 27.8024L33.2428 27.8067C33.351 28.6333 33.4991 29.765 34.3392 31.062C34.7201 31.6507 35.2784 32.0943 35.5606 32.2475C36.119 32.5505 36.3238 33.2479 36.0183 33.8017C35.7128 34.355 35.0129 34.5659 34.4545 34.2624C33.8926 33.958 33.0172 33.2777 32.3996 32.3234C31.2784 30.5917 31.0771 29.0749 30.9567 28.1519C30.9562 28.1474 30.9556 28.157 30.955 28.1666C30.9543 28.1763 30.9537 28.1861 30.9532 28.1812C25.1977 29.5705 22.101 34.5876 22.101 38.6539Z" fill="white"/>
<rect x="19.7971" y="42.4223" width="40.8062" height="3.23217" fill="white"/>
</svg>
