<svg width="80" height="63" viewBox="0 0 80 63" fill="none" xmlns="http://www.w3.org/2000/svg">
<path fill-rule="evenodd" clip-rule="evenodd" d="M39.8702 27.1405C47.4153 27.1405 53.5538 21.0532 53.5538 13.5703C53.5538 6.08736 47.4153 0 39.8702 0C32.3251 0 26.1866 6.08736 26.1866 13.5703C26.1866 21.0532 32.3251 27.1405 39.8702 27.1405ZM39.8702 2.48678C46.033 2.48678 51.0467 7.45924 51.0467 13.5708C51.0467 19.6824 46.033 24.6548 39.8702 24.6548C33.7075 24.6548 28.6932 19.6824 28.6932 13.5708C28.6937 7.45869 33.7075 2.48678 39.8702 2.48678ZM48.8609 30.6197C46.47 32.7102 43.3427 33.9783 39.9249 33.9783C36.427 33.9783 33.2334 32.6501 30.8221 30.4714C30.5496 30.497 30.2635 30.5442 29.9807 30.6312C29.9804 30.629 29.9802 30.6298 29.9799 30.6323C29.9795 30.6355 29.9791 30.6413 29.9788 30.6471L29.9787 30.6472C29.9781 30.6578 29.9774 30.6684 29.9768 30.6631C23.7145 32.1748 20.345 37.6337 20.345 42.058C20.345 42.3502 20.3967 43.3485 20.4721 43.3485L17.9358 43.3479C17.8522 42.7976 17.8384 42.0713 17.8384 42.0575C17.8384 38.6941 19.2125 35.1656 21.707 32.5732C23.9599 30.2322 27.0509 28.5472 30.1881 27.9496C30.8611 27.8225 31.795 28.0492 32.0669 28.2445C32.159 28.3106 32.2313 28.3815 32.2878 28.4568H32.3084C34.2978 30.3355 36.9793 31.4888 39.9249 31.4888C42.8705 31.4888 45.5518 30.3355 47.5411 28.4568H47.5497C47.6132 28.3816 47.6896 28.3106 47.7818 28.2445C48.0542 28.0492 48.775 27.8839 49.4485 28.0121C52.5858 28.6092 55.6768 30.3569 57.9297 32.6978C60.4242 35.2897 61.7982 38.6944 61.7982 42.0578C61.7982 42.0716 61.7851 42.7979 61.7009 43.3482H59.164C59.2394 43.3482 59.2911 42.35 59.2911 42.0578C59.2911 37.6334 55.5345 31.9255 49.2722 30.4139C49.2711 30.4243 49.2694 30.4342 49.2683 30.4441C49.1302 30.4995 48.994 30.5588 48.8609 30.6197ZM64.6344 46.2956H15.3658V59.4623H64.6344V46.2956ZM13.9416 49.2513H0L7.15636 56.0556L0 62.8598H20.0377V60.923H13.9416V49.2513ZM66.0585 49.2513V60.923H59.9624V62.8598H80.0001L72.8437 56.0556L80.0001 49.2513H66.0585Z" fill="white"/>
<path d="M35.6777 55.6395V50.5402H38.9499V51.2511H36.5187V52.7725H38.644V53.4912H36.5187V55.6395H35.6777Z" fill="#384250"/>
<path d="M42.0672 55.7236C41.3078 55.7236 40.7217 55.5069 40.3088 55.0737C39.9011 54.6354 39.6972 53.9754 39.6972 53.0936C39.6972 52.2221 39.8985 51.5646 40.3012 51.1212C40.7089 50.6778 41.2976 50.4561 42.0672 50.4561C42.8266 50.4561 43.4128 50.6752 43.8256 51.1135C44.2384 51.5468 44.4449 52.2068 44.4449 53.0936C44.4449 53.9601 44.241 54.615 43.8332 55.0584C43.4306 55.5018 42.8419 55.7236 42.0672 55.7236ZM42.0672 54.9973C42.5769 54.9973 42.954 54.8495 43.1987 54.5538C43.4484 54.2531 43.5733 53.7638 43.5733 53.086C43.5733 52.4183 43.4484 51.9367 43.1987 51.6411C42.954 51.3403 42.5769 51.19 42.0672 51.19C41.5575 51.19 41.1778 51.3403 40.9281 51.6411C40.6834 51.9367 40.5611 52.4209 40.5611 53.0936C40.5611 53.7664 40.6834 54.2531 40.9281 54.5538C41.1778 54.8495 41.5575 54.9973 42.0672 54.9973Z" fill="#384250"/>
</svg>
