<svg width="80" height="63" viewBox="0 0 80 63" fill="none" xmlns="http://www.w3.org/2000/svg">
<path fill-rule="evenodd" clip-rule="evenodd" d="M39.8702 27.2011C47.4153 27.2011 53.5538 21.1001 53.5538 13.6005C53.5538 6.10094 47.4153 0 39.8702 0C32.3251 0 26.1866 6.10094 26.1866 13.6005C26.1866 21.1001 32.3251 27.2011 39.8702 27.2011ZM39.8702 2.49233C46.033 2.49233 51.0467 7.47588 51.0467 13.6011C51.0467 19.7263 46.033 24.7098 39.8702 24.7098C33.7075 24.7098 28.6932 19.7263 28.6932 13.6011C28.6937 7.47533 33.7075 2.49233 39.8702 2.49233ZM40.6353 32.0912L42.0457 30.3843L41.2621 29.1053H41.2197H38.5199H38.4776L37.6945 30.3843L39.1044 32.1723L36.5581 38.4387L39.8544 41.7716L39.8522 41.7953L39.8698 41.7721L39.888 41.7881L39.8863 41.7517L43.1815 38.399L40.6353 32.0912ZM47.1685 30.3163C47.2725 29.518 47.3706 28.7645 48.0368 28.2854C48.3092 28.0896 48.7747 27.9462 49.4483 28.0747C52.5855 28.6731 55.6765 30.4248 57.9294 32.7709C60.4239 35.3686 61.798 38.7809 61.798 42.1518C61.798 42.1656 61.7848 42.8936 61.7006 43.4451H59.1637C59.2391 43.4451 59.2908 42.4446 59.2908 42.1518C59.2908 37.7175 55.9214 32.1218 49.659 30.6068C49.6588 30.6093 49.6585 30.6118 49.6581 30.6143C49.6578 30.6173 49.6574 30.6202 49.657 30.6231L49.6552 30.6371C49.5242 31.6436 49.3046 33.3285 48.0852 35.2169C47.4133 36.2576 46.4607 37.0149 45.8494 37.3475C45.2418 37.6784 44.4802 37.4561 44.1478 36.8527C43.8155 36.2488 44.0383 35.4916 44.6459 35.1618C44.9529 34.9947 45.5604 34.5132 45.9748 33.8712C46.8905 32.4538 47.0512 31.219 47.1684 30.3172L47.1685 30.3163ZM20.4721 43.445C20.3967 43.445 20.345 42.4446 20.345 42.1517C20.345 37.7175 23.7145 32.2464 29.9768 30.7314C29.9774 30.7366 29.9781 30.726 29.9787 30.7154L29.9788 30.7154C29.9794 30.7049 29.9801 30.6944 29.9807 30.6994C30.1116 31.7059 30.3306 33.3599 31.5507 35.2483C32.2226 36.289 33.1751 37.0308 33.7865 37.3629C34.394 37.6938 35.1556 37.4638 35.488 36.8604C35.8204 36.2565 35.5975 35.496 34.99 35.1656C34.6829 34.9985 34.0754 34.5148 33.661 33.8728C32.7469 32.4584 32.5858 31.2243 32.4681 30.323L32.4674 30.3183L32.4673 30.3171C32.3633 29.5189 32.2651 28.7649 31.5991 28.2859C31.3272 28.0901 30.8611 27.8844 30.1881 28.0118C27.0509 28.6108 23.9599 30.2995 21.707 32.6457C19.2125 35.2439 17.8384 38.7803 17.8384 42.1512C17.8384 42.165 17.8522 42.893 17.9358 43.4445L20.4721 43.445ZM15.3658 46.3987H64.6344V59.5947H15.3658V46.3987ZM0 49.3611H13.9416V61.0588H20.0377V62.9999H0L7.15636 56.1805L0 49.3611ZM66.0581 61.0588V49.3611H79.9996L72.8433 56.1805L79.9996 62.9999H59.9619V61.0588H66.0581Z" fill="white"/>
<path d="M33.9023 55.764V50.6533H34.7815L36.387 53.0209L38.0307 50.6533H38.8946V55.764H38.0537V51.8716L36.3488 54.2239L34.7204 51.8869V55.764H33.9023Z" fill="#384250"/>
<path d="M41.5822 55.8789C41.0216 55.8687 40.5935 55.6976 40.2979 55.3656C40.0073 55.0335 39.8621 54.561 39.8621 53.9481C39.8621 53.5139 39.9156 53.1589 40.0226 52.883C40.1348 52.6072 40.2851 52.3926 40.4737 52.2394C40.6674 52.0861 40.884 51.9814 41.1235 51.9252C41.3682 51.8639 41.6205 51.8333 41.8804 51.8333C42.1505 51.8333 42.4003 51.8691 42.6296 51.9406C42.859 52.0121 43.0399 52.1219 43.1724 52.27C43.31 52.4131 43.3788 52.5995 43.3788 52.8294V55.8789C43.3788 56.1446 43.3202 56.3897 43.203 56.6145C43.0909 56.8444 42.9023 57.0257 42.6373 57.1585C42.3773 57.2913 42.0282 57.3577 41.5899 57.3577C41.3147 57.3577 41.0726 57.3347 40.8636 57.2888C40.6597 57.2479 40.489 57.2045 40.3514 57.1585V56.4229C40.4737 56.4689 40.6393 56.5174 40.8483 56.5685C41.0624 56.6247 41.2892 56.6528 41.5287 56.6528C41.8294 56.6528 42.0537 56.6145 42.2015 56.5379C42.3544 56.4664 42.4563 56.3693 42.5073 56.2467C42.5583 56.1292 42.5838 56.0015 42.5838 55.8636V55.5954C42.4461 55.6823 42.2881 55.7512 42.1098 55.8023C41.9314 55.8534 41.7555 55.8789 41.5822 55.8789ZM41.7122 55.22C41.86 55.22 42.0104 55.2021 42.1633 55.1663C42.3162 55.1306 42.4563 55.0744 42.5838 54.9978V52.9826C42.5838 52.7885 42.5073 52.6634 42.3544 52.6072C42.2015 52.5459 42.0282 52.5152 41.8345 52.5152C41.5185 52.5152 41.2764 52.5791 41.1082 52.7068C40.9451 52.8345 40.833 53.0056 40.7719 53.2202C40.7107 53.4296 40.6801 53.6646 40.6801 53.9251C40.6801 54.3133 40.7642 54.6274 40.9324 54.8675C41.1006 55.1025 41.3605 55.22 41.7122 55.22Z" fill="#384250"/>
<path d="M44.4882 55.764V52.27C44.5544 52.2292 44.6767 52.1755 44.8551 52.1091C45.0335 52.0376 45.2425 51.9738 45.482 51.9176C45.7267 51.8614 45.9764 51.8333 46.2313 51.8333C46.3587 51.8333 46.4632 51.8435 46.5447 51.8639C46.6263 51.8844 46.6951 51.9074 46.7511 51.9329V52.5765C46.5218 52.5408 46.272 52.5306 46.0019 52.5459C45.7318 52.5612 45.4948 52.5867 45.2909 52.6225V55.764H44.4882Z" fill="#384250"/>
</svg>
