<svg width="80" height="64" viewBox="0 0 80 64" fill="none" xmlns="http://www.w3.org/2000/svg">
<path d="M48.064 3.11925L42.8758 0.0405061H53.0091L48.064 3.11925ZM50.6987 12.5175L44.7809 28.2758L57.6703 12.5175H50.6987ZM56.657 10.2895L49.28 5.63086L50.8608 10.2895H56.657ZM40.0791 10.1275L46.8075 4.132L40.0791 0.121531L33.3506 4.132L40.0791 10.1275ZM29.3378 10.2895L30.9186 5.63086L23.5416 10.2895H29.3378ZM32.3778 5.18526L30.6349 10.33H38.1335L32.3778 5.18526ZM42.0652 10.2895H49.5638L47.8208 5.14474L42.0652 10.2895ZM65.9796 10.2895L59.5754 4.05098L59.8186 10.2895H65.9796ZM58.6026 9.80337L58.3189 2.83569L55.5626 0.162037L49.4422 4.01047L58.6026 9.80337ZM43.0785 29.2481L49.3611 12.5175H40.6465L43.0785 29.2481ZM39.998 16.0014L37.7687 31.5976L39.998 42.0492L42.2273 31.5976L39.998 16.0014ZM14.0164 12.5175L28.365 27.4656L20.5827 12.5175H14.0164ZM24.3117 17.0141L31.4455 30.7469L38.5793 40.2262L36.6338 32.1243L24.3117 17.0141ZM35.2151 28.2758L29.2973 12.5175H22.3256L35.2151 28.2758ZM43.3622 32.0838L41.4166 40.1857L48.5504 30.7064L55.6842 16.9736L43.3622 32.0838ZM51.6309 27.5062L65.9796 12.558H59.4133L51.6309 27.5062ZM39.2684 12.5175H30.5538L36.877 29.2481L39.2684 12.5175ZM24.5955 0.162037L21.8392 2.83569L21.5555 9.80337L30.7159 4.01047L24.5955 0.162037ZM37.3228 0H27.1896L32.1346 3.07874L37.3228 0ZM20.6233 4.05098L14.2191 10.2895H20.3801L20.6233 4.05098Z" fill="white"/>
<path fill-rule="evenodd" clip-rule="evenodd" d="M64.5603 47.2263H15.2906V60.3932H64.5603V47.2263ZM13.9419 50.182H0L7.15652 56.9864L0 63.7908H20.0381V61.8539H13.9419V50.182ZM66.0583 50.182V61.8539H59.962V63.7908H80.0002L72.8437 56.9864L80.0002 50.182H66.0583Z" fill="white"/>
<rect x="22.9359" y="42.1294" width="33.9791" height="3.39791" fill="white"/>
<path d="M35.5427 54.6631V56.4903H34.7017V51.3909H36.72C37.3011 51.3909 37.7496 51.5259 38.0656 51.7961C38.3867 52.0662 38.5473 52.4689 38.5473 53.004C38.5473 53.5341 38.3867 53.9444 38.0656 54.2349C37.7496 54.5204 37.3011 54.6631 36.72 54.6631H35.5427ZM35.5427 53.9444H36.613C36.9086 53.9444 37.1303 53.9011 37.2782 53.8144C37.4311 53.7278 37.533 53.6157 37.584 53.478C37.64 53.3353 37.6681 53.1875 37.6681 53.0346C37.6681 52.8766 37.64 52.7263 37.584 52.5835C37.533 52.4408 37.4311 52.3262 37.2782 52.2395C37.1303 52.1478 36.9086 52.1019 36.613 52.1019H35.5427V53.9444Z" fill="#384250"/>
<path d="M39.5547 56.4903V51.3909H41.3437C42.1694 51.3909 42.7835 51.6049 43.1862 52.0331C43.5888 52.4612 43.7902 53.0958 43.7902 53.9368C43.7902 54.7828 43.5888 55.42 43.1862 55.8481C42.7835 56.2762 42.1694 56.4903 41.3437 56.4903H39.5547ZM40.3956 55.7793H41.2596C41.8304 55.7793 42.2509 55.634 42.521 55.3435C42.7912 55.0479 42.9262 54.579 42.9262 53.9368C42.9262 53.2997 42.7912 52.8333 42.521 52.5377C42.2509 52.2421 41.8304 52.0942 41.2596 52.0942H40.3956V55.7793Z" fill="#384250"/>
<path d="M44.7576 52.0407V51.3144H45.6139V52.0407H44.7576ZM44.7806 56.4903V52.6753H45.5833L45.591 56.4903H44.7806Z" fill="#384250"/>
<path d="M58.8721 30.0947C61.0129 28.8513 63.1997 27.6177 64.7059 25.5115C65.1104 24.9666 65.3209 24.429 65.4591 23.779C65.719 22.3299 66.117 20.9101 66.8734 19.6151C67.2417 19.014 67.6923 18.4789 68.3796 18.1883C68.8071 17.988 69.2872 17.993 69.6423 18.3596C69.9974 18.7262 70.0006 19.1637 69.8559 19.6182C69.3526 21.3067 68.9053 22.9586 68.6782 24.7059C68.5729 25.654 68.2572 26.4604 67.7474 27.2741C66.7773 28.6693 65.8893 30.1305 65.0112 31.5452C64.6527 32.0999 64.2318 32.4957 63.7188 32.8719C61.7325 34.2938 59.6378 35.547 57.76 37.1374C56.0598 38.5716 54.6885 40.2697 53.7742 42.3076C53.5176 42.8354 53.2578 42.9258 52.7054 42.8084C50.7818 42.351 48.8385 41.9864 46.905 41.5754C46.3065 41.4482 46.244 41.2894 46.5006 40.7616C46.8525 40.0114 47.2406 39.3175 47.7207 38.6431C48.5495 37.4605 49.0198 36.1532 49.352 34.8165C50.1612 31.6886 51.9108 29.343 54.9559 28.1462C57.0539 27.3304 58.8626 26.0649 60.5266 24.5746C60.8258 24.2985 61.1514 24.1251 61.5131 24.0078C62.0787 23.8369 62.5588 23.8419 62.9402 24.3112C63.3216 24.7805 63.3511 25.3206 63.0946 25.8484C62.5815 26.904 61.6673 27.5831 60.7893 28.3185C60.0888 28.8975 59.372 29.3275 58.8721 30.0947Z" fill="white"/>
<path d="M20.633 30.1028C20.3298 29.5833 19.8719 29.2427 19.4139 28.9021C18.6562 28.2847 17.8524 27.677 17.1671 26.9468C16.8475 26.5768 16.574 26.197 16.3927 25.7976C16.1917 25.3051 16.2211 24.7636 16.5668 24.3495C16.9125 23.9355 17.3835 23.884 17.8842 23.9722C18.2366 24.0433 18.5627 24.2173 18.8526 24.4476C20.6515 26.1089 22.7038 27.3757 24.9273 28.3141C27.7272 29.4707 29.3121 31.7127 30.1101 34.5599C30.5387 36.1231 31.0958 37.6104 32.0119 38.9728C32.4271 39.5657 32.7138 40.2346 33.0368 40.8472C33.2181 41.2466 33.1654 41.4524 32.6582 41.5602C30.6295 41.9914 28.6008 42.4227 26.5721 42.8539C26.2493 42.9225 25.999 42.8784 25.8276 42.5255C24.4532 39.4603 22.1009 37.2354 19.3929 35.3781C18.263 34.5965 17.077 33.7781 15.9009 33.0062C15.2849 32.6019 14.7874 32.0751 14.3623 31.4356C13.489 29.8209 12.4873 28.2821 11.4855 26.7434C11.2022 26.317 11.067 25.9078 10.968 25.4423C10.671 23.3645 10.1993 21.3724 9.5894 19.4098C9.31907 18.5914 10.0303 17.8563 10.9031 18.1087C11.9802 18.415 12.5569 19.3143 12.9953 20.2429C13.5292 21.3945 13.8787 22.5853 14.0899 23.8056C14.1263 24.4304 14.3372 24.9694 14.7326 25.4693C15.619 26.692 16.6963 27.6794 17.9844 28.5248C18.8244 29.0761 19.6382 29.7303 20.4881 30.3282C20.5243 30.2718 20.5506 30.1689 20.633 30.1028Z" fill="white"/>
</svg>
