<svg width="80" height="63" viewBox="0 0 80 63" fill="none" xmlns="http://www.w3.org/2000/svg">
<path fill-rule="evenodd" clip-rule="evenodd" d="M67.7585 17.2638C67.3264 16.3189 67.0886 15.4665 67.084 14.6202L67.0581 14.5201L67.0581 14.52L67.0581 14.52L67.0581 14.52L67.0581 14.5199C67.0454 14.4708 67.0327 14.4218 67.0204 14.3732L67.0496 14.2093L67.0788 14.0454L67.0664 13.59C67.0912 13.5329 67.1163 13.476 67.1415 13.419L67.1415 13.419L67.1415 13.419L67.1415 13.419L67.1416 13.419L67.1651 13.3657C67.175 13.3011 67.1824 13.2232 67.1903 13.1398C67.2119 12.913 67.2373 12.6451 67.3269 12.492L67.3491 12.4703L67.3714 12.4486C68.1008 12.4941 68.5412 12.7397 69.1904 13.1697C69.2343 13.1845 69.2783 13.199 69.3223 13.2136L69.3223 13.2136L69.3224 13.2136L69.3224 13.2136L69.3225 13.2137L69.3226 13.2137L69.3227 13.2137L69.3227 13.2137L69.3227 13.2138C69.3667 13.2283 69.4107 13.2429 69.4546 13.2576C69.5937 13.3987 69.7322 13.5393 69.8707 13.6805C70.2486 13.9529 70.8048 14.5944 71.0302 15.1666L71.0553 15.3241L71.0803 15.4815L71.2034 15.7629L71.3264 16.0444C71.3215 16.1335 71.3171 16.2232 71.3127 16.3124L71.3119 16.3287C71.4551 17.0416 71.4934 17.8014 71.2421 18.4311L71.2401 18.5482L71.238 18.6652C71.2051 18.7501 71.1732 18.8449 71.1405 18.942L71.1405 18.942L71.1405 18.942L71.1405 18.942C71.074 19.1396 71.0043 19.3466 70.917 19.498C70.6405 19.6644 70.2608 19.4489 69.9954 19.2981L69.9954 19.2981C69.9591 19.2775 69.9249 19.2581 69.8935 19.2411C69.8586 19.2326 69.8236 19.2242 69.7886 19.2158C69.7535 19.2074 69.7185 19.199 69.6836 19.1904L69.5548 19.0862L69.4262 18.9821C68.8844 18.6275 68.1519 18.123 67.7585 17.2638ZM73.7029 21.4846L73.8146 21.6723L73.8139 21.6806L73.8139 21.6807C73.8105 21.7239 73.8072 21.7666 73.8043 21.8098C73.8306 21.8602 73.8571 21.9105 73.8836 21.9607L73.8838 21.9611L73.884 21.9614L73.8842 21.9618C73.9105 22.0117 73.9368 22.0616 73.963 22.1117L73.9645 22.1274L73.9645 22.1279V22.1279V22.1279C73.9707 22.1907 73.9769 22.2531 73.9826 22.3159L74.1449 22.5139C74.3181 22.8871 74.6603 23.5581 75.0573 23.6981C75.7252 23.3327 76.1237 22.8752 76.4747 22.3789L77.0532 21.5369C77.1293 21.3941 77.1677 21.2479 77.2059 21.1028L77.2059 21.1028L77.2059 21.1028L77.2059 21.1028L77.2059 21.1028L77.2059 21.1028L77.2059 21.1028L77.2059 21.1028C77.2296 21.0125 77.2533 20.9226 77.2858 20.8343C77.6182 19.9282 77.6078 19.0297 77.2455 17.9783L77.2051 17.7436L77.1426 17.6614L77.08 17.5792C77.0609 17.5001 77.0418 17.4205 77.0232 17.3414C76.9831 17.2856 76.9432 17.2297 76.9033 17.1737C76.8633 17.1178 76.8234 17.0618 76.7833 17.006L76.7411 16.8885L76.6991 16.7713C76.5755 16.6339 76.4515 16.4964 76.3278 16.3594L76.2969 16.3252C76.2331 16.2572 76.1845 16.1967 76.1413 16.1431L76.1413 16.1431C76.0475 16.0265 75.98 15.9426 75.8405 15.8853L75.7557 15.9116C75.6138 16.0013 75.5406 16.102 75.4666 16.2039C75.4394 16.2412 75.4122 16.2787 75.3814 16.3159C75.3278 16.3807 75.2741 16.4447 75.221 16.5082L75.221 16.5082L75.2209 16.5082L75.2209 16.5082L75.2209 16.5082L75.2209 16.5082L75.2209 16.5082L75.2209 16.5082C75.0116 16.7581 74.8093 16.9995 74.6432 17.2484L74.1361 18.0005L74.0229 18.4658L73.9242 18.6681L73.8255 18.8705L73.8167 19.0212L73.8079 19.1719C73.5639 19.9028 73.6042 20.4927 73.7246 21.298C73.7164 21.3594 73.7097 21.4218 73.703 21.4843V21.4843L73.7029 21.4846ZM75.756 24.7171C75.7063 24.821 75.6497 24.9144 75.5941 25.0062C75.5127 25.1406 75.4335 25.2713 75.3812 25.4258C75.3548 25.5041 75.3416 25.5942 75.3285 25.684L75.3285 25.6841L75.3285 25.6841L75.3285 25.6841L75.3285 25.6841L75.3285 25.6841L75.3285 25.6841L75.3285 25.6841L75.3285 25.6841L75.3285 25.6842C75.3151 25.7753 75.3018 25.8662 75.2747 25.9443C75.2396 26.0451 75.1279 26.3734 75.1243 26.4628C75.1193 26.581 75.1296 26.6894 75.1399 26.7985C75.1497 26.9028 75.1597 27.0077 75.1564 27.1224L75.1052 27.3297L75.1858 27.5375L75.1871 27.7245L75.1884 27.9123L75.2492 28.0464L75.3099 28.1806L75.3365 28.3514L75.3631 28.5222C75.3818 28.6334 75.5151 28.9244 75.6232 28.9751C75.7485 29.0333 76.0466 28.9293 76.2109 28.8721L76.2373 28.8629C76.8452 28.652 77.6883 28.1464 78.214 27.6559C79.4216 26.529 79.9809 24.7585 79.5648 23.31C79.5462 23.245 79.5497 23.1804 79.5531 23.1178C79.5555 23.0725 79.5579 23.0282 79.5518 22.9854C79.5265 22.8029 79.1729 21.95 79.0122 21.8761C78.8501 21.9075 78.6721 22.0221 78.4926 22.1377C78.3115 22.2543 78.129 22.3719 77.9597 22.4059C76.8229 23.126 76.1675 23.858 75.756 24.7171ZM63.9546 40.7857C64.0379 40.9532 64.1211 41.1206 64.2043 41.2886L64.2276 41.5631C64.5181 42.3975 65.6367 43.5848 66.209 43.8583C66.2798 43.8922 66.3442 43.9415 66.4068 43.9894C66.5774 44.1199 66.7347 44.2403 66.9715 44.0108C67.033 43.8346 67.146 43.6714 67.2593 43.5078C67.3534 43.3719 67.4478 43.2356 67.5132 43.0912L67.5137 43.0881L67.5137 43.088C67.5249 43.0188 67.5361 42.9495 67.5478 42.8803C67.7918 42.2481 67.8533 41.8898 67.8642 41.2101L67.9092 40.9056L67.9083 40.9031L67.9083 40.903L67.9083 40.903L67.9082 40.9029L67.9082 40.9029L67.9082 40.9028C67.8827 40.8288 67.8571 40.7548 67.8316 40.6813C67.8466 40.6089 67.8616 40.536 67.8761 40.4636L67.8208 40.3168C67.7955 40.2495 67.7702 40.1823 67.7448 40.1152L67.7182 39.9009L67.6915 39.6867L67.6864 39.6764C67.6297 39.5635 67.573 39.4507 67.5163 39.3383C67.4398 39.054 67.339 38.7257 67.1255 38.4068C67.0597 38.3084 66.9943 38.2062 66.9286 38.1034C66.7181 37.7745 66.5041 37.4399 66.2607 37.2059L65.9221 36.964L65.8033 36.8289L65.8031 36.8288L65.8031 36.8287C65.7187 36.7329 65.6345 36.6371 65.5504 36.5412C65.4375 36.4743 65.3316 36.4753 65.2111 36.4764H65.2109H65.2108H65.2107C65.1878 36.4766 65.1645 36.4768 65.1405 36.4765C65.0318 36.5496 65.0022 36.6246 64.9718 36.7018C64.9581 36.7365 64.9442 36.7717 64.9229 36.8074C64.8231 36.9211 64.7233 37.0348 64.6236 37.148C64.6174 37.1788 64.611 37.2094 64.6047 37.24C64.5984 37.2707 64.592 37.3013 64.5858 37.3321L64.5041 37.429L64.4225 37.5259C64.4075 37.5983 64.3925 37.6712 64.378 37.7435L64.3313 37.8111C64.2799 37.8856 64.2285 37.9598 64.1769 38.0341L64.152 38.1421C64.0475 38.5942 63.9482 39.0242 63.9123 39.4964L63.8815 39.6034L63.8508 39.7105C63.849 39.8711 63.88 40.0152 63.9119 40.1635L63.9119 40.1635C63.9351 40.2711 63.9587 40.3809 63.9707 40.5008C63.9737 40.5375 63.9667 40.5764 63.9596 40.6165C63.9496 40.6718 63.9393 40.7293 63.9546 40.7857ZM72.0037 41.8244C72.1175 41.771 72.2342 41.7162 72.3486 41.6643L72.5181 41.5681L72.6882 41.4715C73.5861 41.2069 74.7751 41.0595 75.5815 41.258L75.6849 41.2482L75.7883 41.2384L75.8699 41.2721L75.9511 41.3056L76.0969 41.2823C76.1532 41.2854 76.4644 41.3955 76.527 41.4209C76.6521 41.6621 76.3779 42.2324 76.1965 42.6098C76.1493 42.7079 76.1084 42.793 76.0824 42.8559C75.6947 43.7925 74.6252 44.9432 73.2987 45.2865C73.1207 45.3596 72.9427 45.4333 72.7647 45.5069L72.7591 45.5093L72.6169 45.472C72.5449 45.4643 72.4822 45.4946 72.4147 45.5272C72.3692 45.5491 72.3216 45.5721 72.2674 45.5853L71.9656 45.5511C71.8742 45.5527 71.787 45.5632 71.7007 45.5737C71.5844 45.5877 71.4697 45.6016 71.3484 45.593L71.108 45.5186C71.04 45.5128 70.9714 45.5083 70.9028 45.5038L70.9023 45.5038L70.9019 45.5037L70.9014 45.5037L70.901 45.5037L70.9005 45.5036C70.6354 45.4862 70.3683 45.4685 70.1217 45.3821C70.04 45.3335 69.9588 45.2854 69.8777 45.2374C69.8223 45.214 69.7684 45.2088 69.7173 45.2039C69.6014 45.1928 69.5001 45.1831 69.4305 44.9649C69.405 44.8139 69.5056 44.6205 69.5947 44.4492C69.6337 44.3742 69.6705 44.3035 69.6936 44.2423L69.7024 44.1353L69.7112 44.0283C69.7389 43.9931 69.7667 43.9581 69.7945 43.923C69.8223 43.888 69.85 43.853 69.8777 43.8179C70.0043 43.531 70.2276 43.1593 70.4701 42.9086C70.5523 42.8453 70.6343 42.7818 70.7164 42.7184C70.7985 42.6549 70.8805 42.5914 70.9627 42.5281C70.9844 42.5049 71.0062 42.4806 71.0285 42.4556L71.0285 42.4556L71.0285 42.4556C71.1095 42.3651 71.198 42.2662 71.3163 42.1807L71.6663 41.9807C71.7718 41.9332 71.8861 41.8796 72.0035 41.8245L72.0037 41.8244ZM72.1075 30.1417C72.1041 30.198 72.1008 30.2526 72.1132 30.3025C72.1536 30.4209 72.1939 30.5393 72.2347 30.6582C72.2328 30.6826 72.2215 30.7078 72.21 30.7334C72.1969 30.7626 72.1836 30.7923 72.1836 30.822L72.2104 30.9058L72.2373 30.9895C72.2537 31.0607 72.2384 31.1197 72.2232 31.1784C72.214 31.2139 72.2048 31.2493 72.2027 31.2873L72.243 31.522C72.2224 31.5692 72.2014 31.6161 72.1804 31.6631L72.1613 31.706C72.1582 31.7449 72.1555 31.784 72.1528 31.8231C72.1347 32.0824 72.1164 32.3442 71.983 32.576C71.7457 32.7114 70.8979 32.4018 70.6545 32.3015L70.5598 32.2912L70.4648 32.2808L70.214 32.1263L70.0006 32.0921L69.7602 31.8874C69.7307 31.8802 69.7014 31.8728 69.672 31.8655C69.6427 31.8581 69.6134 31.8507 69.5839 31.8435L69.2996 31.5948L69.1248 31.4988L68.9507 31.4031C68.3883 30.9389 67.6801 29.8476 67.4438 29.1596C67.4202 29.0908 67.4237 29.0204 67.427 28.9526C67.4297 28.8986 67.4323 28.8463 67.4211 28.7977C67.4046 28.7599 67.3879 28.7222 67.3713 28.6845L67.3368 28.6065C67.3192 28.532 67.3246 28.4633 67.3299 28.3965C67.3332 28.3556 67.3364 28.3155 67.3342 28.2751C67.3279 28.1609 67.3114 28.0567 67.2952 27.9548C67.2729 27.8147 67.2513 27.6791 67.2582 27.5282L67.3265 27.324C67.3192 27.0448 67.3632 26.1898 67.6315 26.0089C67.6853 25.9884 67.7392 25.9673 67.7931 25.9463L67.7933 25.9462L67.7943 25.9458C68.6312 26.2332 69.4759 26.5899 70.2461 27.1942L70.4204 27.399L70.5945 27.6036C71.1941 28.1443 71.6449 28.7688 71.8915 29.5354L71.9945 29.7434L72.0972 29.951C72.1153 30.0136 72.1113 30.0787 72.1075 30.1417ZM71.2944 21.787L71.4829 22.2425L71.6718 22.6989L71.9385 23.1615L71.9584 23.3223L71.9783 23.483C72.0419 23.6249 72.1057 23.7667 72.1694 23.9084L72.275 24.1432L72.2867 24.3296L72.2978 24.505L72.4901 24.9005C72.5454 25.256 72.6165 25.6135 72.6879 25.9727L72.6879 25.9728L72.6879 25.9728L72.6879 25.9728L72.6879 25.9729L72.6879 25.9729L72.6879 25.9729C72.7372 26.221 72.7867 26.47 72.8312 26.7195C72.8598 26.8797 72.8581 27.1486 72.857 27.3385V27.3386L72.8566 27.4127C72.8561 27.5565 72.8846 27.6959 72.9131 27.8356L72.9131 27.8356C72.943 27.9817 72.9729 28.1282 72.9698 28.2802C72.9651 28.4929 72.9588 28.7066 72.9525 28.9208L72.9525 28.921C72.9388 29.3915 72.9249 29.8647 72.9274 30.336L72.8796 30.4832L72.8318 30.6306C72.8397 30.7841 72.8195 30.9158 72.799 31.0491C72.7875 31.1241 72.7759 31.1997 72.7692 31.2799L72.7842 31.4006L72.7992 31.5213C72.7958 31.6522 72.77 31.7871 72.7441 31.9226C72.7227 32.0343 72.7013 32.1465 72.6922 32.2574C72.6627 32.3298 72.6332 32.4022 72.6033 32.475L72.6095 32.6591C72.598 32.7323 72.5703 32.8089 72.5425 32.8859C72.5076 32.9822 72.4726 33.0792 72.4689 33.1708C72.4623 33.3444 72.4169 33.4905 72.3688 33.6452C72.3529 33.6964 72.3367 33.7486 72.3215 33.803L72.3107 34.0274C72.264 34.1588 72.2217 34.2886 72.1795 34.4183L72.1794 34.4184L72.1794 34.4185L72.1794 34.4185L72.1794 34.4186L72.1793 34.4186C72.1229 34.5919 72.0665 34.7649 72 34.9408L71.9979 35.0362L71.9959 35.1316C71.9319 35.339 71.8547 35.5406 71.7776 35.7416L71.7776 35.7416C71.6684 36.0265 71.5597 36.3101 71.4903 36.6069C71.4381 36.6891 71.3859 36.7718 71.3337 36.8545C71.3042 36.932 71.2786 37.0191 71.2528 37.1071C71.2203 37.218 71.1873 37.3304 71.1455 37.4267L71.1011 37.4935L71.101 37.4936C71.0647 37.5482 71.0285 37.6026 70.9925 37.6573L70.9646 37.878L70.9643 37.8785C70.9111 37.9517 70.858 38.025 70.8049 38.0987C70.7769 38.1707 70.7488 38.2516 70.72 38.334C70.677 38.4575 70.6327 38.5846 70.5862 38.6906L70.4161 38.9181C70.4064 38.9579 70.3967 38.9978 70.3871 39.0378L70.387 39.0382L70.3869 39.0385L70.3868 39.0389L70.3868 39.0392C70.3771 39.0792 70.3675 39.1191 70.3577 39.159L70.1809 39.3761C70.1716 39.435 70.1623 39.4944 70.1535 39.5534L69.9597 39.8108C69.9156 39.8926 69.8759 39.9944 69.8355 40.0977C69.7873 40.2212 69.7383 40.3468 69.68 40.443L69.4795 40.6901L69.4143 40.9212L69.4116 40.924C69.3489 40.9887 69.2863 41.0534 69.2241 41.1181L69.1863 41.2368L69.1486 41.3554C69.0662 41.5246 68.9593 41.6593 68.8482 41.7993L68.8482 41.7993L68.8481 41.7994L68.8481 41.7994L68.8481 41.7994L68.8481 41.7994C68.778 41.8877 68.7063 41.9781 68.6379 42.0806C68.5984 42.1403 68.5769 42.2063 68.5559 42.271C68.5392 42.3224 68.5228 42.373 68.4978 42.4187L68.4945 42.4222L68.4943 42.4223C68.4319 42.4868 68.3695 42.5512 68.3076 42.6157L68.3061 42.6193L68.306 42.6194C68.2714 42.704 68.2368 42.7885 68.2016 42.8731L68.0876 42.9765L67.9736 43.0799C67.9473 43.1458 67.9208 43.2117 67.8944 43.2775L67.8475 43.3942C67.7488 43.5022 67.6501 43.6102 67.5518 43.7183L67.4495 43.9592L67.2014 44.2228L67.0649 44.5004C67.0113 44.5724 66.9478 44.6322 66.8866 44.6898L66.8866 44.6898C66.7968 44.7743 66.712 44.8542 66.6705 44.9615C66.6336 45.0568 66.5581 45.134 66.4798 45.2141C66.4263 45.2688 66.3715 45.3249 66.3267 45.389L66.1561 45.7033C66.0863 45.7612 66.0164 45.8195 65.9469 45.8776L65.9464 45.8779L65.9116 45.907L65.5813 46.3986C65.5329 46.4521 65.4811 46.5021 65.4309 46.5506C65.2634 46.7125 65.1121 46.8586 65.1522 47.0706C65.1925 47.2815 65.526 47.4691 65.6495 47.527C65.6985 47.5501 65.7387 47.5727 65.7758 47.5935C65.8584 47.64 65.9254 47.6777 66.0393 47.6919C66.2861 47.5255 66.4154 47.3272 66.5352 47.1435C66.5672 47.0944 66.5985 47.0464 66.6312 47.0003C66.7537 46.8767 66.8762 46.7532 66.9982 46.6296L67.0003 46.6259C67.0508 46.5357 67.1012 46.4454 67.1517 46.3557L67.2859 46.2388L67.42 46.122C67.4663 46.0676 67.4911 45.9997 67.5147 45.9354C67.5287 45.8971 67.5422 45.8601 67.5596 45.8279L67.7349 45.6407L67.9101 45.4536L67.9115 45.4502C67.9405 45.379 67.9695 45.3077 67.999 45.236L68.1167 45.1154L68.2337 44.9956L68.2344 44.9942C68.3045 44.8665 68.3745 44.7387 68.4451 44.611C68.4874 44.5687 68.5298 44.5265 68.5723 44.4843L68.5725 44.4841L68.5737 44.483C68.6158 44.4411 68.6579 44.3992 68.6999 44.3572L68.7359 44.2468L68.7718 44.1365C68.8718 43.9859 68.9726 43.8621 69.0718 43.7404L69.0718 43.7404C69.1813 43.606 69.2888 43.474 69.3911 43.3109L69.4456 43.1737L69.5001 43.0364L69.6139 42.9113L69.7281 42.7857C69.7472 42.7201 69.7669 42.6539 69.7865 42.5883L69.9804 42.3743L70.0206 42.2686L70.0206 42.2686C70.0391 42.2201 70.0574 42.1717 70.076 42.1236L70.2936 41.8796L70.3758 41.6087L70.4627 41.5084L70.5495 41.4081L70.551 41.4048L70.5511 41.4045L70.5512 41.4043L70.5513 41.4041C70.6008 41.2907 70.6504 41.1773 70.6994 41.0638C70.7527 41.0049 70.8059 40.946 70.8591 40.8865L70.9615 40.5588C71.6656 39.2846 72.2099 38.0357 72.7346 36.733L72.7382 36.6291L72.7418 36.5252C72.7969 36.386 72.8511 36.2531 72.9048 36.1213C72.9773 35.9437 73.0489 35.7681 73.1207 35.5818C73.1279 35.5048 73.1347 35.4278 73.1414 35.3507L73.1421 35.3498C73.1703 35.3124 73.1985 35.2749 73.2267 35.237L73.2205 35.053L73.3399 34.8591C73.3554 34.7926 73.3597 34.7187 73.364 34.6443C73.3695 34.5477 73.3752 34.4502 73.4055 34.367C73.7017 33.5559 73.8718 32.5293 73.9245 31.666L73.94 31.6319C73.9565 31.5954 73.973 31.559 73.9892 31.5223C74.0429 31.2101 74.0424 30.8586 74.0326 30.5381C74.0293 30.4307 74.0612 30.3095 74.0924 30.1906C74.115 30.1047 74.1373 30.02 74.1458 29.9426L74.1055 29.7519C74.1013 29.527 74.1298 29.283 74.1582 29.0654L74.0946 28.7738C74.094 28.6641 74.0967 28.5555 74.0994 28.4471C74.1074 28.1276 74.1155 27.8091 74.0367 27.4644L74.0372 27.4545C74.0417 27.3632 74.0462 27.2714 74.0512 27.1796L74.0127 27.002L73.9742 26.8245C73.983 26.6151 73.9561 26.3096 73.9287 26.1013L73.9271 26.0965C73.8827 25.9585 73.8382 25.8206 73.7943 25.6826L73.8046 25.5671L73.815 25.4515L73.6971 25.1667C73.6848 25.1075 73.6883 25.0501 73.6919 24.9916C73.6957 24.9294 73.6996 24.866 73.6847 24.7981C73.6252 24.6585 73.5658 24.519 73.5058 24.3794L73.4965 24.1251C73.4371 23.9855 73.3776 23.8459 73.3177 23.7064L73.251 23.2577L73.0215 22.8286C72.9825 22.7329 72.9569 22.645 72.9306 22.555L72.9306 22.5549C72.8997 22.4489 72.868 22.3399 72.8126 22.2119C72.7974 22.1766 72.7793 22.1342 72.7589 22.0861C72.5581 21.6132 72.1261 20.5961 71.8305 20.4652L71.8294 20.4656C71.7755 20.4867 71.7215 20.5077 71.6676 20.5283L71.3164 20.7801L70.9646 21.0323C70.9613 21.2276 71.0349 21.344 71.1295 21.4934C71.1813 21.5752 71.2393 21.667 71.2944 21.787ZM66.7886 31.4223L66.7885 31.4222C66.6366 31.3379 66.4965 31.26 66.3088 31.2498C66.0953 31.454 66.0345 31.7851 65.9814 32.0744C65.9639 32.1697 65.9472 32.2604 65.9262 32.3406C65.6352 33.4494 65.6838 35.2152 66.9498 36.5081L67.2354 36.8353L67.521 37.1625L67.7479 37.2602L67.8425 37.3577L67.9371 37.4551C67.989 37.496 68.0493 37.512 68.1076 37.5274C68.1451 37.5374 68.1817 37.5471 68.2147 37.5631L68.3739 37.691L68.5326 37.8185C68.8185 37.9446 69.1762 38.0733 69.4812 38.139C69.513 38.1458 69.5526 38.1595 69.5965 38.1748C69.755 38.2298 69.9707 38.3047 70.088 38.1472C70.1509 38.0474 70.1713 37.9179 70.1901 37.7992C70.2028 37.7187 70.2147 37.6432 70.2385 37.5853C71.003 35.7301 69.5902 32.8544 67.4967 31.7761C67.4135 31.7099 67.3297 31.6437 67.2465 31.5781C67.1916 31.5684 67.1365 31.5592 67.0811 31.55L67.017 31.5393C66.9341 31.5031 66.86 31.462 66.7886 31.4223ZM65.7919 21.4346L65.8229 21.1534C65.7992 21.0836 65.7759 21.0135 65.7526 20.9436L65.7526 20.9435L65.7356 20.8924C65.7221 20.7135 65.7903 19.6641 65.8782 19.5535C66.4608 19.5477 66.9646 19.729 67.4804 19.9146L67.4804 19.9146C67.6987 19.9931 67.9191 20.0724 68.1486 20.1387L68.2502 20.2242L68.3517 20.3098C68.4205 20.3388 68.4889 20.3681 68.5574 20.3975L68.6195 20.424L68.777 20.56L68.9343 20.6959C68.9853 20.7162 69.0361 20.7365 69.0869 20.7569L69.0869 20.7569L69.087 20.757L69.1954 20.8004L69.3745 21.0017L69.5536 21.203C70.0137 21.6042 70.6123 22.2219 70.8614 22.9105L70.8966 23.0829L70.9317 23.2553L71.124 23.6941C71.122 23.7779 71.1194 23.8616 71.1168 23.9454C71.1244 23.9953 71.1329 24.0478 71.1416 24.1021C71.2187 24.5803 71.3196 25.2067 71.0754 25.5659C70.5937 25.6869 70.055 25.5794 69.6208 25.4315C69.52 25.3973 69.4058 25.3798 69.2926 25.3624C69.2072 25.3493 69.1224 25.3363 69.0444 25.3163L68.8108 25.1648C68.7372 25.1309 68.6484 25.1009 68.5569 25.07L68.5569 25.07C68.4087 25.02 68.2533 24.9676 68.1434 24.8919L68.0046 24.7727L67.8658 24.6536C67.7975 24.6247 67.7294 24.5956 67.6612 24.5663L67.6603 24.566L67.5981 24.5393C67.5068 24.4316 67.415 24.3239 67.3232 24.2162L67.3231 24.2162L67.321 24.2136C67.2633 24.1718 67.2058 24.1297 67.1482 24.0877L67.1476 24.0873C67.0904 24.0454 67.0331 24.0036 66.9757 23.9619C66.3217 23.4165 65.8922 22.0353 65.7919 21.4346ZM79.9299 29.2294L79.9293 29.2275C79.9147 29.184 79.9 29.1404 79.8856 29.0968C79.8767 29.0359 79.8801 28.9769 79.8834 28.9198C79.8926 28.7605 79.9009 28.6162 79.6395 28.4899C79.1138 28.6522 78.5617 28.8187 78.0344 28.9613L77.2399 29.3945C76.4697 29.8923 75.9786 30.4289 75.5878 30.9975C75.4891 31.1056 75.3904 31.2136 75.2921 31.3216C75.2771 31.394 75.2622 31.4669 75.2477 31.5393L75.1694 31.6411L75.091 31.7429C75.0817 31.8019 75.0724 31.8613 75.0636 31.9202L74.982 32.0389L74.9003 32.1575L74.8967 32.2614L74.8931 32.3653C74.8731 32.4294 74.8437 32.494 74.814 32.5589C74.766 32.6641 74.7175 32.7703 74.7085 32.8771L74.7178 33.1314C74.6816 33.2922 74.6403 33.5108 74.6418 33.6737L74.7023 33.9383C74.6953 33.9717 74.6885 34.0052 74.6816 34.0387C74.6748 34.0721 74.6679 34.1056 74.661 34.1389C74.7013 34.2428 74.7416 34.3467 74.7824 34.4506C74.791 34.4871 74.788 34.5195 74.7851 34.5521C74.7811 34.5967 74.777 34.6418 74.8021 34.6982C75.7253 34.8864 77.2968 34.3757 78.3048 33.4483C78.3886 33.3836 78.4726 33.319 78.5566 33.2545C78.6403 33.1901 78.7241 33.1257 78.8078 33.0611C79.4012 32.3384 79.9083 31.3035 79.9063 30.4589C79.906 30.3644 79.9293 30.262 79.9527 30.1593C79.9781 30.0478 80.0036 29.9359 79.9993 29.8329L79.9388 29.655L79.9729 29.3583C79.9587 29.3153 79.9443 29.2724 79.9299 29.2294ZM78.4658 35.1106C78.5268 35.1282 78.5878 35.1463 78.6488 35.1644C78.6874 35.1663 78.7424 35.1644 78.8068 35.1621C79.0849 35.1525 79.5377 35.1367 79.5973 35.399C79.6449 35.6153 79.4483 36.1708 79.3393 36.4789C79.3238 36.5227 79.3101 36.5615 79.2991 36.5937C79.2733 36.6691 79.2509 36.7535 79.2281 36.8398C79.1906 36.9817 79.1517 37.1286 79.0938 37.2491L78.8762 37.5365C78.8659 37.5722 78.8557 37.608 78.8454 37.6437C78.8352 37.6793 78.825 37.7149 78.8147 37.7506C78.7184 37.8565 78.6216 37.9624 78.5248 38.0684L78.519 38.0747C78.4975 38.1078 78.4764 38.145 78.4546 38.1836C78.4072 38.2672 78.356 38.3577 78.2874 38.4288L77.6284 38.9328C77.4149 39.1277 77.1476 39.2693 76.9015 39.3794L76.3717 39.6828L75.8966 39.7619C75.8328 39.787 75.7688 39.8119 75.7049 39.8369C75.6409 39.8618 75.5769 39.8868 75.5131 39.9118C75.4454 39.8979 75.3776 39.8844 75.3099 39.871C75.1853 39.9046 75.0613 39.9377 74.9367 39.9708C74.7998 39.9852 74.6469 39.9647 74.5013 39.9453C74.4325 39.9361 74.3654 39.9272 74.3024 39.9222C74.2447 39.9175 74.1702 39.9137 74.0859 39.9093C73.7371 39.8913 73.2206 39.8647 73.0349 39.7382C72.7599 39.5505 73.0799 38.6614 73.1978 38.4727C73.2223 38.4335 73.2176 38.3923 73.2129 38.3514C73.2093 38.32 73.2057 38.2888 73.2153 38.2587C73.2481 38.1555 73.3146 38.0411 73.3762 37.935C73.4087 37.879 73.4398 37.8253 73.464 37.7769C73.5259 37.7124 73.5884 37.6479 73.6508 37.5834L73.6542 37.58C73.6728 37.5317 73.6912 37.4833 73.7096 37.4349C73.723 37.3997 73.7364 37.3645 73.7498 37.3293C73.8084 37.2303 73.9008 37.1545 73.9979 37.0749C74.055 37.0281 74.1137 36.98 74.168 36.925L74.3758 36.6443C74.614 36.399 74.9366 36.1954 75.2687 35.9859C75.2927 35.9707 75.3168 35.9555 75.3409 35.9403L75.694 35.7671C75.906 35.6843 76.1181 35.6017 76.3303 35.519C76.4824 35.4598 76.6346 35.4005 76.7868 35.3411C76.8292 35.3424 76.8716 35.3436 76.914 35.3448C76.9563 35.3459 76.9987 35.3471 77.0411 35.3484L77.3601 35.2119C77.4115 35.2119 77.4629 35.212 77.5144 35.2122C77.5658 35.2123 77.6172 35.2124 77.6687 35.2124C77.7276 35.198 77.7864 35.1836 77.8452 35.1693C77.904 35.1549 77.9628 35.1406 78.0217 35.1261C78.0495 35.1346 78.0772 35.1431 78.1049 35.1515C78.1325 35.1599 78.1601 35.1682 78.1877 35.1768C78.2339 35.1656 78.2803 35.1547 78.3267 35.1437C78.3731 35.1327 78.4195 35.1217 78.4658 35.1106Z" fill="white"/>
<path fill-rule="evenodd" clip-rule="evenodd" d="M8.7572 18.4314L8.75926 18.5485L8.76133 18.6655C8.79422 18.7504 8.82614 18.8452 8.85884 18.9424C8.92534 19.1399 8.99502 19.3469 9.08235 19.4983C9.35817 19.6644 9.73671 19.4498 10.002 19.2994C10.039 19.2784 10.0738 19.2587 10.1059 19.2414C10.1408 19.2329 10.1758 19.2245 10.2108 19.2161C10.2458 19.2077 10.2808 19.1993 10.3157 19.1907L10.4445 19.0866L10.5732 18.9824C11.1149 18.6278 11.8474 18.1233 12.2403 17.2641C12.6724 16.3192 12.9107 15.4668 12.9149 14.6206L12.9784 14.3724L12.9493 14.2087L12.92 14.0447L12.9324 13.5893L12.9092 13.5368L12.9092 13.5368C12.8839 13.4795 12.8587 13.4224 12.8337 13.3649C12.8238 13.3004 12.8164 13.2225 12.8085 13.1391V13.1391C12.7869 12.9123 12.7615 12.6444 12.6719 12.4913L12.6499 12.4696L12.628 12.4479C11.8986 12.4934 11.4582 12.7389 10.8089 13.169C10.765 13.1838 10.7209 13.1984 10.6768 13.213C10.6327 13.2276 10.5887 13.2422 10.5447 13.2569C10.4755 13.3275 10.4061 13.3979 10.3367 13.4683C10.2673 13.5388 10.1979 13.6092 10.1286 13.6798C9.75074 13.9522 9.19452 14.5937 8.96914 15.1659L8.94409 15.3232L8.919 15.4807L8.79597 15.7622L8.67294 16.0437L8.67359 16.0569L8.67359 16.0569C8.67803 16.1471 8.68249 16.2378 8.68742 16.328C8.54423 17.0419 8.50597 17.8018 8.7572 18.4314ZM2.9458 21.536L3.52425 22.378C3.87524 22.8743 4.27432 23.3318 4.94167 23.6972C5.33919 23.5572 5.6814 22.8862 5.85405 22.513L6.01637 22.315L6.01796 22.2988C6.02415 22.236 6.0303 22.1736 6.03601 22.1108C6.06237 22.0604 6.08887 22.0101 6.11536 21.9598C6.14185 21.9096 6.16835 21.8593 6.19471 21.8089L6.19395 21.7992L6.19394 21.7991C6.19058 21.7564 6.18725 21.7141 6.18437 21.6714C6.22159 21.6088 6.2588 21.5463 6.29551 21.4837L6.28517 21.3899L6.27483 21.2961C6.39476 20.4912 6.4356 19.9009 6.19161 19.17L6.18283 19.0194L6.17404 18.8686L6.07532 18.6663L5.97657 18.4638L5.86335 17.9986L5.35625 17.2465C5.1916 16.9997 4.99142 16.7607 4.78406 16.5131C4.72906 16.4474 4.67355 16.3811 4.61807 16.3139C4.5873 16.2768 4.56005 16.2393 4.53292 16.202L4.53291 16.2019C4.45888 16.1001 4.38567 15.9993 4.24381 15.9097L4.15904 15.8833C4.01881 15.9408 3.95124 16.0249 3.85719 16.1419L3.85719 16.1419L3.85719 16.142L3.85718 16.142C3.81429 16.1953 3.7659 16.2556 3.70259 16.3232C3.58068 16.4588 3.45834 16.5943 3.33636 16.7295L3.30042 16.7693L3.2583 16.8867L3.21616 17.004C3.1761 17.0599 3.13617 17.1158 3.09623 17.1718C3.0563 17.2277 3.01637 17.2837 2.9763 17.3395C2.95718 17.4186 2.93805 17.4982 2.91944 17.5773L2.85688 17.6595L2.79434 17.7417L2.75402 17.9764C2.39217 19.0278 2.38184 19.9262 2.71371 20.8324C2.74579 20.9204 2.76918 21.0098 2.79267 21.0996L2.79267 21.0996C2.83086 21.2456 2.8693 21.3926 2.9458 21.536ZM3.76119 28.8642L3.7892 28.874C3.95384 28.9314 4.25043 29.0349 4.37531 28.9764C4.48335 28.9262 4.61671 28.6347 4.63532 28.5235L4.66195 28.3527L4.68857 28.1819L4.74934 28.0477L4.81005 27.9136L4.81133 27.7266L4.81263 27.5388L4.89327 27.331L4.8421 27.1237C4.83881 27.009 4.84873 26.9041 4.85859 26.7998L4.85859 26.7998C4.86891 26.6907 4.87917 26.5823 4.87414 26.4641C4.87052 26.3742 4.75835 26.0464 4.72372 25.9456C4.69666 25.8673 4.68335 25.7764 4.67002 25.6853L4.67001 25.6853C4.65686 25.5955 4.64368 25.5054 4.61723 25.4271C4.56499 25.2723 4.48572 25.1415 4.40428 25.0072C4.34872 24.9155 4.29214 24.8222 4.24246 24.7184C3.83098 23.8588 3.17551 23.1273 2.0393 22.4072C1.86987 22.3732 1.68712 22.2555 1.50588 22.1389C1.32659 22.0235 1.14878 21.909 0.986827 21.8774C0.826061 21.9518 0.472486 22.8047 0.447156 22.9867C0.441095 23.0294 0.443554 23.0735 0.446068 23.1187C0.449559 23.1815 0.453158 23.2461 0.434228 23.3113C0.0180995 24.7603 0.577421 26.5303 1.78497 27.6572C2.31069 28.1477 3.1538 28.6533 3.76119 28.8642ZM5.19712 34.6991C4.2744 34.8873 2.70241 34.3766 1.6944 33.4492L1.19194 33.063C0.598508 32.3399 0.0919163 31.3055 0.0934671 30.4608C0.0937157 30.3661 0.0704145 30.2635 0.0470185 30.1605L0.0470174 30.1605C0.021763 30.0493 -0.00360161 29.9376 0.000423433 29.8348L0.0608986 29.657L0.0435811 29.5081L0.0262636 29.3592C0.0407377 29.3156 0.0553418 29.272 0.0699459 29.2285L0.0701067 29.228L0.0701479 29.2279L0.070157 29.2278L0.0701605 29.2278C0.084693 29.1845 0.099225 29.1411 0.113628 29.0977C0.122655 29.0367 0.119306 28.9774 0.116065 28.9201C0.107059 28.7609 0.0988993 28.6166 0.359686 28.4908C0.885404 28.6531 1.43748 28.8196 1.96475 28.9622L2.75927 29.3954C3.5295 29.8932 4.02058 30.4298 4.41138 30.9984C4.5096 31.1065 4.60834 31.2145 4.70707 31.3225C4.72154 31.3949 4.73653 31.4678 4.75153 31.5402L4.82974 31.6419L4.90815 31.7438C4.91694 31.8028 4.92625 31.8622 4.93555 31.9211L5.01723 32.0398L5.0989 32.1584L5.10252 32.2623L5.10614 32.3662C5.12612 32.4299 5.15538 32.494 5.18481 32.5585C5.23303 32.6641 5.28169 32.7707 5.29068 32.878L5.28138 33.1323C5.31756 33.2931 5.35892 33.5117 5.35737 33.6746L5.29688 33.9392C5.30386 33.9726 5.31071 34.006 5.31755 34.0395C5.32441 34.073 5.33126 34.1065 5.33824 34.1398C5.2974 34.2437 5.25708 34.3476 5.21676 34.4515C5.20824 34.488 5.21117 34.5204 5.21411 34.553C5.21813 34.5977 5.2222 34.6427 5.19712 34.6991ZM1.18346 37.749L1.1862 37.752L1.18624 37.7521C1.28405 37.8591 1.38186 37.9661 1.47915 38.0731C1.49988 38.1054 1.52022 38.1414 1.54134 38.1788C1.58923 38.2636 1.64114 38.3555 1.71074 38.4272L2.36982 38.9312C2.58331 39.1261 2.85057 39.2678 3.09662 39.3779L3.62648 39.6813L4.10154 39.7604C4.22922 39.81 4.35741 39.8602 4.48509 39.9103C4.55281 39.8969 4.62053 39.8834 4.68825 39.8695C4.81283 39.9026 4.93689 39.9356 5.06147 39.9692C5.19834 39.9836 5.35093 39.9632 5.49627 39.9438L5.4963 39.9438H5.49632H5.49634H5.49636C5.56508 39.9346 5.63218 39.9256 5.69523 39.9206C5.75292 39.916 5.82741 39.9122 5.91166 39.9078L5.91184 39.9078H5.91186C6.2609 39.8898 6.77747 39.8632 6.96274 39.7366C7.23826 39.549 6.91829 38.6604 6.79991 38.4712C6.77533 38.432 6.78007 38.3908 6.78478 38.3498C6.78839 38.3185 6.79198 38.2872 6.78233 38.2572C6.74935 38.1545 6.68352 38.041 6.62233 37.9354C6.58952 37.8788 6.55805 37.8245 6.53369 37.7754L6.53018 37.7718C6.46777 37.7073 6.40536 37.6429 6.34346 37.5784L6.30323 37.4729L6.30304 37.4724L6.30296 37.4721L6.30288 37.4719C6.28457 37.4238 6.26628 37.3757 6.24783 37.3277C6.18926 37.2291 6.0969 37.1533 5.99988 37.0736L5.99986 37.0736C5.94275 37.0267 5.88403 36.9785 5.82964 36.9235L5.62183 36.6428C5.38475 36.398 5.06266 36.1949 4.73133 35.9858L4.65671 35.9387L4.30365 35.7656L3.84575 35.5871C3.63401 35.5047 3.42235 35.4222 3.21086 35.3396L3.0837 35.3432L2.95653 35.3469C2.85004 35.3014 2.74356 35.2559 2.63759 35.2104L2.48329 35.2106L2.32898 35.2109C2.26387 35.1948 2.1986 35.1789 2.13325 35.163L1.97592 35.1246L1.8928 35.1499L1.80999 35.1752C1.76372 35.1641 1.71733 35.1531 1.67093 35.1421C1.62453 35.1312 1.57814 35.1202 1.53187 35.1091L1.53126 35.1092C1.47047 35.1273 1.40968 35.1453 1.34889 35.1628C1.31039 35.1648 1.25543 35.1628 1.19106 35.1606H1.19101H1.19097H1.19092H1.19088H1.19083H1.19078H1.19074C0.912768 35.1509 0.459792 35.1351 0.399795 35.3965C0.35228 35.6128 0.548788 36.1682 0.657795 36.4763C0.673311 36.5201 0.687055 36.559 0.698069 36.5911C0.7238 36.6665 0.746075 36.7507 0.76883 36.8367C0.806421 36.9788 0.845324 37.1258 0.903284 37.2466L1.12091 37.534C1.13628 37.5852 1.15088 37.6359 1.16542 37.6865L1.16543 37.6865L1.18346 37.749ZM7.84704 31.8232L7.84704 31.8231C7.84431 31.784 7.84158 31.7449 7.83847 31.7061C7.81107 31.6451 7.78368 31.5836 7.75731 31.5215L7.79763 31.2868C7.79549 31.2489 7.78631 31.2136 7.77711 31.1781C7.76187 31.1195 7.74656 31.0606 7.763 30.9891L7.78989 30.9053L7.81676 30.8216C7.81676 30.792 7.80349 30.7625 7.79043 30.7334C7.7789 30.7078 7.76753 30.6825 7.76559 30.6577L7.88654 30.3026C7.89896 30.2527 7.89567 30.1982 7.89227 30.142C7.88846 30.079 7.88453 30.014 7.90257 29.9511L8.00549 29.7432L8.10831 29.5355C8.35437 28.7689 8.80513 28.1444 9.40529 27.6037L9.57949 27.399L9.7537 27.1943C10.5234 26.59 11.3686 26.2328 12.2055 25.9459L12.2869 25.9775L12.3683 26.009C12.6366 26.1899 12.6806 27.0449 12.6733 27.3241L12.7416 27.5282C12.7487 27.6797 12.7271 27.8155 12.7047 27.9558C12.6885 28.0573 12.6719 28.1613 12.6656 28.2752C12.6634 28.3156 12.6666 28.3556 12.6699 28.3963V28.3964V28.3964V28.3964V28.3964V28.3964V28.3964C12.6752 28.4632 12.6806 28.5318 12.663 28.6066C12.6465 28.6445 12.6298 28.6822 12.6131 28.7198L12.5787 28.7978C12.5675 28.8464 12.5701 28.8987 12.5727 28.9527C12.5761 29.0205 12.5796 29.0909 12.556 29.1597C12.3197 29.8477 11.6115 30.9384 11.0491 31.4032L10.875 31.4989L10.7002 31.5949C10.6357 31.6517 10.5709 31.7082 10.5063 31.7647L10.4159 31.8436C10.3864 31.8508 10.3571 31.8582 10.3277 31.8655C10.2984 31.8729 10.2691 31.8803 10.2396 31.8875L9.99924 32.0922L9.78575 32.1263L9.53504 32.2809L9.43999 32.2913L9.34532 32.3016C9.10185 32.4019 8.25408 32.7115 8.01681 32.5761C7.88341 32.3443 7.86514 32.0825 7.84704 31.8232ZM11.6474 20.3084L11.5847 20.3352L11.5845 20.3353C11.5162 20.3646 11.4481 20.3937 11.3797 20.4226L11.2224 20.5584L11.0648 20.6945L10.9563 20.738L10.9556 20.7383L10.9543 20.7388C10.9042 20.7589 10.8541 20.779 10.8038 20.7989L10.6245 21.0005L10.4456 21.2016C9.98549 21.6028 9.38688 22.2205 9.13772 22.9091L9.10261 23.0812L9.06742 23.2538L8.87512 23.6927C8.87771 23.7765 8.88029 23.8602 8.88236 23.9439C8.87468 23.9947 8.86612 24.0481 8.85724 24.1035C8.78063 24.5812 8.6805 25.2055 8.92371 25.5645C9.40549 25.6855 9.94413 25.578 10.3784 25.4301C10.4789 25.3959 10.5932 25.3784 10.7066 25.361L10.7066 25.361L10.7066 25.361C10.792 25.3479 10.8768 25.3348 10.9547 25.3148L11.1884 25.1634C11.262 25.1294 11.3508 25.0995 11.4423 25.0686L11.4423 25.0686C11.5905 25.0186 11.7458 24.9662 11.8557 24.8904L11.9947 24.7712L12.1333 24.6521L12.1945 24.6259C12.2634 24.5964 12.3321 24.567 12.4011 24.5379C12.4936 24.4293 12.5862 24.3208 12.6782 24.2122C12.7358 24.1704 12.7933 24.1284 12.8508 24.0864C12.9083 24.0444 12.9658 24.0024 13.0235 23.9605C13.6774 23.4151 14.107 22.0334 14.2073 21.4332L14.1762 21.152C14.1907 21.1085 14.2052 21.0651 14.2198 21.0217L14.2199 21.0212C14.2345 20.9777 14.2491 20.9341 14.2636 20.8904C14.2776 20.7111 14.2093 19.6617 14.1209 19.5516C13.5372 19.5458 13.0331 19.7272 12.5167 19.9131C12.2991 19.9914 12.0794 20.0706 11.8506 20.1368C11.7829 20.1941 11.7151 20.2515 11.6474 20.3084ZM10.4018 38.1735C10.2434 38.2286 10.0272 38.3037 9.9097 38.1461C9.8471 38.0467 9.82658 37.9178 9.80769 37.7991C9.79477 37.7179 9.78261 37.6415 9.75824 37.5827C8.9937 35.7274 10.4065 32.8517 12.5 31.7734C12.5833 31.7078 12.667 31.6416 12.7502 31.5754L12.9808 31.5382C13.064 31.5019 13.1384 31.4607 13.21 31.4209L13.21 31.4209C13.3617 31.3368 13.5015 31.2593 13.689 31.2487C13.9025 31.4533 13.9633 31.7842 14.0164 32.0734C14.0339 32.1686 14.0505 32.2593 14.0715 32.3394C14.3625 33.4483 14.3139 35.2141 13.048 36.5069L12.7626 36.8339L12.4768 37.1614L12.2498 37.2591L12.1554 37.3563L12.0606 37.454C12.0083 37.4955 11.9476 37.5116 11.8889 37.5271C11.852 37.5369 11.8158 37.5464 11.7831 37.562L11.6241 37.6897L11.4651 37.8174C11.1793 37.9435 10.8216 38.0722 10.5166 38.1379C10.4849 38.1447 10.4456 38.1583 10.4019 38.1735L10.4018 38.1735ZM13.0713 38.1026L13.0712 38.1026C13.0054 38.2056 12.9398 38.3081 12.8739 38.4068C12.6604 38.7257 12.5596 39.054 12.4831 39.3383C12.4246 39.4546 12.3662 39.5709 12.3078 39.6867L12.2812 39.901L12.2546 40.1152L12.1993 40.262C12.174 40.3293 12.1487 40.3966 12.1233 40.4636C12.1383 40.536 12.1533 40.6089 12.1677 40.6813L12.1673 40.6824C12.1416 40.757 12.1159 40.8315 12.0902 40.9056L12.1352 41.2101C12.146 41.8898 12.2075 42.2476 12.4515 42.8803L12.4515 42.8804L12.4516 42.8805L12.4516 42.8807C12.4629 42.9508 12.4743 43.021 12.4862 43.0912C12.5515 43.236 12.646 43.3724 12.7403 43.5085L12.7403 43.5085C12.8534 43.6718 12.9662 43.8346 13.0279 44.0108C13.265 44.2403 13.4221 44.12 13.5926 43.9894C13.6552 43.9415 13.7196 43.8922 13.7904 43.8583C14.3621 43.5854 15.4807 42.3975 15.7718 41.5631L15.795 41.2887C15.8782 41.1212 15.9615 40.9537 16.0447 40.7857C16.0599 40.7294 16.05 40.6724 16.0405 40.6175C16.0335 40.5771 16.0267 40.5379 16.0302 40.5009C16.0422 40.3811 16.0658 40.2715 16.089 40.164C16.1211 40.0155 16.1523 39.8713 16.1502 39.7105L16.1194 39.6035L16.0886 39.4965C16.0527 39.0243 15.9534 38.5943 15.8489 38.1423L15.824 38.0341L15.7759 37.9645C15.7249 37.8907 15.674 37.8171 15.6229 37.7436C15.6079 37.6712 15.5929 37.5983 15.5784 37.5259L15.4968 37.4291L15.4151 37.3321C15.4122 37.3177 15.4093 37.3033 15.4063 37.289C15.403 37.2729 15.3997 37.2568 15.3963 37.2406L15.3962 37.2401C15.3899 37.2094 15.3835 37.1788 15.3773 37.148L15.3761 37.1466L15.3759 37.1464C15.2766 37.0333 15.1773 36.9201 15.078 36.8074C15.0564 36.7715 15.0424 36.736 15.0286 36.7009C14.9983 36.6239 14.9688 36.549 14.8604 36.4766C14.8366 36.4768 14.8134 36.4766 14.7907 36.4764C14.6696 36.4754 14.5637 36.4745 14.4505 36.5412L14.332 36.6758L14.3315 36.6764C14.2472 36.7723 14.1629 36.868 14.0788 36.964C13.9732 37.0381 13.8684 37.1131 13.7641 37.1878L13.7387 37.2059C13.4951 37.4397 13.2814 37.7739 13.0713 38.1026ZM6.18398 25.4521L6.30184 25.1673C6.31394 25.109 6.3107 25.0523 6.3074 24.9947C6.30379 24.9318 6.30012 24.8678 6.31631 24.7992C6.37627 24.6596 6.43573 24.5201 6.49517 24.3805L6.50448 24.1262C6.56404 23.9876 6.62308 23.8489 6.68212 23.7103L6.68215 23.7102L6.68217 23.7102L6.68333 23.7075L6.75002 23.2588L6.97953 22.8297C7.01847 22.734 7.0441 22.6461 7.07036 22.556C7.10126 22.45 7.13303 22.341 7.18838 22.213C7.20399 22.1769 7.2225 22.1334 7.24349 22.084L7.24351 22.0839C7.44495 21.6098 7.87515 20.5974 8.17054 20.4663C8.22482 20.487 8.2791 20.5082 8.33338 20.5294L9.0364 21.0334C9.0394 21.2282 8.96578 21.3444 8.87136 21.4935C8.81946 21.5754 8.76127 21.6673 8.70608 21.7876L8.51715 22.2441L8.32872 22.6995L8.06199 23.1621L8.04209 23.3229L8.02218 23.4836L7.9174 23.7166C7.85339 23.8589 7.78932 24.0013 7.72547 24.1438L7.71446 24.319L7.70272 24.5056L7.51043 24.9011C7.45509 25.2566 7.38402 25.6142 7.31262 25.9734L7.31262 25.9734L7.31261 25.9734C7.26329 26.2216 7.21381 26.4705 7.16925 26.7201C7.14067 26.8803 7.14235 27.1492 7.14354 27.3391L7.14392 27.4133C7.14443 27.5568 7.11591 27.6959 7.08734 27.8354C7.05733 27.9818 7.02727 28.1285 7.03071 28.2807C7.0354 28.4935 7.04166 28.7073 7.04794 28.9216C7.06172 29.3923 7.07558 29.8656 7.0731 30.3366L7.12091 30.4839L7.16873 30.6312C7.16046 30.7848 7.18079 30.9165 7.20137 31.0499C7.21294 31.1248 7.22458 31.2003 7.23128 31.2805L7.21629 31.4011L7.2013 31.5219C7.2047 31.6527 7.23043 31.7873 7.25632 31.9226C7.2777 32.0344 7.29919 32.1467 7.3083 32.258C7.33828 32.3309 7.36775 32.4033 7.39721 32.4756L7.39101 32.6597C7.40226 32.7327 7.42992 32.8092 7.45774 32.8862C7.49257 32.9826 7.52765 33.0798 7.5311 33.1714C7.53773 33.3459 7.58328 33.4924 7.63167 33.648C7.64737 33.6985 7.66336 33.7499 7.67843 33.8036L7.68928 34.028C7.73492 34.1571 7.77654 34.2847 7.8181 34.4122C7.87539 34.5878 7.93255 34.7631 7.99995 34.9414L8.00176 35.0367L8.00357 35.1321C8.0675 35.3395 8.14479 35.5412 8.22182 35.7422L8.22183 35.7422C8.33103 36.0271 8.43972 36.3107 8.50913 36.6075C8.56134 36.6902 8.61355 36.7729 8.66576 36.8551C8.69536 36.9328 8.72109 37.0204 8.74706 37.1088C8.7796 37.2195 8.81253 37.3316 8.85393 37.4273C8.89023 37.4825 8.92679 37.5374 8.96342 37.5925L9.00693 37.6579L9.03485 37.8786C9.0878 37.9521 9.14075 38.0251 9.1937 38.0981L9.19414 38.0987L9.19458 38.0993C9.22251 38.1713 9.25069 38.2522 9.27941 38.3346C9.32246 38.4581 9.36674 38.5852 9.41325 38.6912L9.58331 38.9186C9.59313 38.9587 9.60281 38.9988 9.6125 39.039C9.61778 39.0609 9.62305 39.0828 9.62835 39.1046C9.63279 39.123 9.63725 39.1413 9.64173 39.1595L9.81852 39.3767C9.8273 39.4356 9.83661 39.495 9.84591 39.554L10.0398 39.8114C10.0838 39.893 10.1235 39.9948 10.1638 40.0981C10.212 40.2217 10.2611 40.3476 10.3194 40.4436L10.52 40.6907L10.5851 40.9218C10.648 40.9872 10.7113 41.0526 10.7747 41.118L10.7754 41.1187L10.8131 41.2373L10.8508 41.356C10.9332 41.5252 11.0401 41.6599 11.1513 41.7999C11.2214 41.8882 11.2932 41.9786 11.3616 42.0812C11.4014 42.1409 11.4228 42.2072 11.4438 42.272C11.4604 42.3234 11.4767 42.3738 11.5016 42.4193C11.5647 42.485 11.6283 42.5506 11.6919 42.6163C11.7275 42.7021 11.7627 42.7879 11.7978 42.8737L11.9116 42.9769L12.0258 43.0805L12.0728 43.1975C12.0992 43.2632 12.1257 43.329 12.1519 43.3947C12.249 43.5015 12.3465 43.6082 12.4441 43.715L12.4476 43.7189L12.55 43.9598L12.7981 44.2234L12.9346 44.501C12.9884 44.5735 13.0521 44.6334 13.1134 44.6911C13.203 44.7754 13.2876 44.855 13.329 44.9621C13.3661 45.0569 13.4414 45.1341 13.5195 45.2143L13.5196 45.2143C13.573 45.2691 13.6278 45.3254 13.6727 45.3896L13.8433 45.7039L13.8767 45.7317C13.9468 45.7903 14.0173 45.8491 14.0878 45.9076L14.4182 46.3992C14.4666 46.4527 14.5183 46.5027 14.5685 46.5512L14.5686 46.5512C14.7361 46.713 14.8874 46.8592 14.8472 47.0712C14.8074 47.2821 14.4735 47.4697 14.3499 47.5276C14.3005 47.5507 14.2599 47.5735 14.2225 47.5945L14.2224 47.5945L14.2224 47.5945C14.1402 47.6407 14.0731 47.6783 13.9602 47.6925C13.7134 47.5261 13.5841 47.3278 13.4643 47.1441C13.4323 47.095 13.401 47.047 13.3683 47.0009C13.248 46.8791 13.1273 46.7573 13.0065 46.6355L13.0013 46.6302C12.9502 46.5395 12.8992 46.4483 12.8482 46.3571L12.8477 46.3562L12.7136 46.2394L12.5794 46.1226C12.5335 46.0685 12.5086 46.0007 12.485 45.9363C12.4709 45.8979 12.4573 45.8607 12.4399 45.8285C12.323 45.7034 12.2062 45.5788 12.0894 45.4542C12.0594 45.3813 12.0299 45.3089 12.0005 45.2366L11.8832 45.1165L11.7658 44.9962C11.6954 44.8687 11.6254 44.7412 11.5555 44.6137L11.5544 44.6116C11.5119 44.5692 11.4693 44.5268 11.4268 44.4845L11.4258 44.4836L11.4226 44.4804C11.3815 44.4396 11.3405 44.3987 11.2995 44.3578L11.2636 44.2476L11.2277 44.1371C11.1277 43.9865 11.0269 43.8627 10.9277 43.741C10.8182 43.6065 10.7106 43.4745 10.6084 43.3115L10.5539 43.1743L10.4993 43.037L10.3853 42.9117L10.2713 42.7863C10.2615 42.7535 10.2518 42.7206 10.2422 42.6877C10.2325 42.6547 10.2228 42.6217 10.2129 42.5889L10.0191 42.3748C10.0005 42.3266 9.98207 42.2781 9.96362 42.2296L9.92346 42.1241L9.70582 41.8801L9.62363 41.6093L9.53695 41.5092L9.44995 41.4087C9.40072 41.2949 9.35097 41.181 9.30123 41.0672L9.30119 41.0671L9.30116 41.067L9.30003 41.0644C9.24679 41.005 9.19355 40.9461 9.14031 40.8871L9.03796 40.5594C8.3339 39.2857 7.78956 38.0362 7.26488 36.7336L7.26126 36.6296L7.25765 36.5258C7.20259 36.3866 7.14838 36.2537 7.09461 36.1219C7.02217 35.9443 6.95054 35.7687 6.87874 35.5824L6.86814 35.4669L6.85754 35.3513L6.81489 35.2945L6.77224 35.2376L6.77845 35.0536L6.65904 34.8597C6.64353 34.7932 6.63926 34.7192 6.63496 34.6447C6.62939 34.548 6.62377 34.4505 6.59339 34.3676C6.29719 33.5565 6.12712 32.5299 6.07439 31.6666C6.0583 31.6301 6.04192 31.594 6.02546 31.5576L6.02533 31.5573L6.02525 31.5571L6.00978 31.5229C5.95602 31.2107 5.95653 30.8592 5.96636 30.5387C5.96996 30.4312 5.93799 30.3102 5.90661 30.1913L5.9066 30.1913C5.88395 30.1054 5.86159 30.0208 5.85314 29.9432L5.89347 29.7524C5.8976 29.5276 5.86917 29.2831 5.84074 29.066L5.90432 28.7744C5.90497 28.6649 5.90229 28.5566 5.89961 28.4485C5.89169 28.1287 5.8838 27.81 5.96221 27.465C5.95728 27.3743 5.95282 27.2835 5.94838 27.1932L5.94774 27.1802L5.98625 27.0026L6.02476 26.8251C6.01598 26.6162 6.04234 26.3107 6.07025 26.1019C6.11445 25.9631 6.15915 25.8244 6.20386 25.6856L6.20466 25.6832L6.19431 25.5676L6.18398 25.4521ZM10.1208 43.818C10.1761 43.8878 10.2319 43.9581 10.2872 44.0284C10.2904 44.0676 10.2937 44.107 10.2969 44.1462C10.2996 44.1783 10.3023 44.2103 10.3048 44.2419C10.328 44.3034 10.365 44.3745 10.4042 44.4497C10.4934 44.621 10.5938 44.8137 10.5679 44.9646C10.4983 45.183 10.3971 45.1926 10.2812 45.2036C10.2301 45.2085 10.1762 45.2136 10.1208 45.237C10.0705 45.2666 10.0204 45.2964 9.9704 45.3261C9.93918 45.3447 9.90799 45.3632 9.8768 45.3817C9.63007 45.4682 9.36319 45.4858 9.0978 45.5033C9.02847 45.5078 8.95924 45.5124 8.89051 45.5182L8.65014 45.5926C8.52877 45.6012 8.41404 45.5873 8.29775 45.5733C8.21146 45.5628 8.1243 45.5523 8.03292 45.5507L7.73103 45.5849C7.67754 45.5717 7.63023 45.5489 7.58502 45.5271C7.51709 45.4943 7.4539 45.4639 7.38158 45.4717L7.23943 45.5089C7.06045 45.4353 6.88146 45.3613 6.70248 45.2872L6.69975 45.2861C5.37331 44.9428 4.30327 43.7922 3.91609 42.8555C3.89006 42.7926 3.84914 42.7075 3.80196 42.6094C3.62047 42.232 3.34639 41.6621 3.47153 41.4205C3.53407 41.3952 3.84527 41.2845 3.90161 41.2819L4.04739 41.3052C4.07453 41.2941 4.10167 41.2828 4.12882 41.2716C4.15595 41.2604 4.18309 41.2491 4.21022 41.238C4.2446 41.2414 4.2791 41.2446 4.3136 41.2478C4.34811 41.2511 4.38261 41.2543 4.41699 41.2576C5.22392 41.0586 6.41234 41.206 7.31025 41.4711C7.36675 41.5034 7.42324 41.5355 7.47974 41.5676C7.53645 41.5999 7.59316 41.6321 7.64987 41.6645C7.76431 41.7164 7.88101 41.7711 7.99478 41.8245C8.11227 41.8796 8.22665 41.9333 8.33222 41.9808L8.68218 42.1809C8.80051 42.2664 8.88897 42.3652 8.96998 42.4557C8.99232 42.4807 9.01408 42.505 9.03576 42.5283C9.11795 42.5916 9.20001 42.655 9.28208 42.7185C9.36414 42.7819 9.4462 42.8454 9.52839 42.9087C9.77083 43.1594 9.99415 43.5311 10.1208 43.818Z" fill="white"/>
<path fill-rule="evenodd" clip-rule="evenodd" d="M63.4312 46.4624H16.5646V58.9871H63.4312V46.4624ZM15.2815 49.274H2.01968L8.82713 55.7465L2.01968 62.2189H21.0805V60.3766H15.2815V49.274ZM64.8556 49.274V60.3766H59.0567V62.2189H78.1175L71.31 55.7465L78.1175 49.274H64.8556Z" fill="white"/>
<path d="M36.5098 53.798V55.5824H35.6885V50.6024H37.6596C38.227 50.6024 38.665 50.7343 38.9736 50.9981C39.2872 51.2619 39.444 51.6552 39.444 52.1778C39.444 52.6955 39.2872 53.0962 38.9736 53.3799C38.665 53.6586 38.227 53.798 37.6596 53.798H36.5098ZM36.5098 53.0962H37.555C37.8437 53.0962 38.0603 53.0538 38.2046 52.9692C38.3539 52.8846 38.4535 52.7751 38.5033 52.6407C38.558 52.5013 38.5854 52.357 38.5854 52.2077C38.5854 52.0534 38.558 51.9065 38.5033 51.7672C38.4535 51.6278 38.3539 51.5158 38.2046 51.4312C38.0603 51.3416 37.8437 51.2968 37.555 51.2968H36.5098V53.0962Z" fill="#384250"/>
<path d="M40.4278 55.5824V50.6024H42.1749C42.9813 50.6024 43.5811 50.8115 43.9743 51.2296C44.3675 51.6477 44.5641 52.2674 44.5641 53.0887C44.5641 53.915 44.3675 54.5372 43.9743 54.9553C43.5811 55.3734 42.9813 55.5824 42.1749 55.5824H40.4278ZM41.2491 54.8881H42.0928C42.6503 54.8881 43.0609 54.7462 43.3247 54.4625C43.5886 54.1738 43.7205 53.7159 43.7205 53.0887C43.7205 52.4665 43.5886 52.0111 43.3247 51.7224C43.0609 51.4337 42.6503 51.2893 42.0928 51.2893H41.2491V54.8881Z" fill="#384250"/>
<rect x="23.8373" y="41.6143" width="32.3218" height="3.23218" fill="white"/>
<path d="M58.6237 2.88685H53.4909C53.5095 2.31833 53.5199 1.74645 53.5199 1.17183C53.5199 0.524577 52.995 0 52.348 0H27.2446C26.5977 0 26.0728 0.524577 26.0728 1.17183C26.0728 1.74645 26.0832 2.31833 26.1018 2.88685H20.9689C20.3217 2.88685 19.7971 3.41143 19.7971 4.05868C19.7971 9.30934 21.1694 14.2631 23.6611 18.0077C26.1241 21.7097 29.4049 23.833 32.9491 24.0396C33.7526 24.9139 34.6018 25.6268 35.4865 26.1706V31.3788H33.5206C31.144 31.3788 29.2108 33.3123 29.2108 35.6887V37.6545H29.1275C28.4802 37.6545 27.9557 38.1794 27.9557 38.8264C27.9557 39.4736 28.4802 39.9982 29.1275 39.9982H50.4652C51.1124 39.9982 51.637 39.4736 51.637 38.8264C51.637 38.1794 51.1124 37.6545 50.4652 37.6545H50.3819V35.6887C50.3819 33.3123 48.4487 31.3788 46.072 31.3788H44.1062V26.1706C44.9908 25.6271 45.8404 24.9139 46.6439 24.0396C50.1878 23.833 53.4686 21.7097 55.9319 18.0077C58.4236 14.2631 59.7956 9.30934 59.7956 4.05868C59.7956 3.41143 59.271 2.88685 58.6237 2.88685ZM25.6123 16.7096C23.557 13.621 22.3495 9.58124 22.1655 5.23052H26.2327C26.6553 10.5788 27.9108 15.5225 29.873 19.4466C30.1855 20.0716 30.5123 20.6621 30.8514 21.2181C28.9023 20.482 27.0984 18.9434 25.6123 16.7096ZM48.0382 35.6887V37.6548H31.5545V35.6887C31.5545 34.6047 32.4364 33.7225 33.5206 33.7225H46.072C47.1563 33.7225 48.0382 34.6047 48.0382 35.6887ZM41.7625 31.3788H37.8302V27.1889C38.4744 27.3586 39.1308 27.4468 39.7963 27.4468C40.4619 27.4468 41.1183 27.3586 41.7625 27.1889V31.3788ZM42.4882 24.4009C42.4354 24.4226 42.3847 24.4488 42.3362 24.4778C41.508 24.8898 40.6569 25.1031 39.7963 25.1031C38.9361 25.1031 38.0853 24.8898 37.2574 24.4784C37.2082 24.4488 37.1573 24.4226 37.1039 24.4003C36.185 23.9145 35.2961 23.1809 34.4553 22.2169C34.4111 22.1537 34.3614 22.0954 34.3061 22.0423C33.4715 21.0514 32.6863 19.8326 31.9692 18.3984C29.8156 14.0916 28.5718 8.42864 28.4302 2.34366H51.1625C51.0206 8.42864 49.7767 14.0919 47.6235 18.3984C46.9064 19.8326 46.1212 21.0514 45.2868 22.0423C45.2313 22.0954 45.181 22.154 45.137 22.2172C44.2963 23.1815 43.407 23.9148 42.4882 24.4009ZM53.9804 16.7096C52.4942 18.9434 50.6904 20.482 48.7413 21.2181C49.0803 20.6621 49.4072 20.0716 49.7197 19.4466C51.6819 15.5225 52.937 10.5788 53.36 5.23052H57.4272C57.2432 9.58124 56.0356 13.621 53.9804 16.7096Z" fill="white"/>
<path d="M42.2338 11.505L46.0586 8.5806L41.2586 8.54222L39.7212 4.04019L38.2588 8.54222L33.5339 8.50368L37.2838 11.4666L35.8589 16.1609L39.8337 13.275L43.4711 15.9301L42.2338 11.505Z" fill="white"/>
</svg>
