<svg width="80" height="64" viewBox="0 0 80 64" fill="none" xmlns="http://www.w3.org/2000/svg">
<path d="M48.0641 3.11925L42.8759 0.0405061H53.0091L48.0641 3.11925ZM50.6987 12.5175L44.7809 28.2758L57.6704 12.5175H50.6987ZM56.6571 10.2895L49.2801 5.63086L50.8608 10.2895H56.6571ZM40.0791 10.1275L46.8076 4.132L40.0791 0.121531L33.3506 4.132L40.0791 10.1275ZM29.3379 10.2895L30.9186 5.63086L23.5417 10.2895H29.3379ZM32.3778 5.18526L30.6349 10.33H38.1335L32.3778 5.18526ZM42.0652 10.2895H49.5638L47.8209 5.14474L42.0652 10.2895ZM65.9796 10.2895L59.5754 4.05098L59.8186 10.2895H65.9796ZM58.6026 9.80337L58.3189 2.83569L55.5627 0.162037L49.4422 4.01047L58.6026 9.80337ZM43.0785 29.2481L49.3611 12.5175H40.6465L43.0785 29.2481ZM39.998 16.0014L37.7687 31.5976L39.998 42.0492L42.2273 31.5976L39.998 16.0014ZM14.0164 12.5175L28.3651 27.4656L20.5827 12.5175H14.0164ZM24.3118 17.0141L31.4456 30.7469L38.5794 40.2262L36.6338 32.1243L24.3118 17.0141ZM35.2151 28.2758L29.2973 12.5175H22.3257L35.2151 28.2758ZM43.3623 32.0838L41.4167 40.1857L48.5505 30.7064L55.6843 16.9736L43.3623 32.0838ZM51.631 27.5062L65.9796 12.558H59.4133L51.631 27.5062ZM39.2684 12.5175H30.5538L36.877 29.2481L39.2684 12.5175ZM24.5955 0.162037L21.8393 2.83569L21.5555 9.80337L30.716 4.01047L24.5955 0.162037ZM37.3229 0H27.1896L32.1346 3.07874L37.3229 0ZM20.6233 4.05098L14.2191 10.2895H20.3801L20.6233 4.05098Z" fill="white"/>
<path fill-rule="evenodd" clip-rule="evenodd" d="M64.5603 47.1461H15.2906V60.313H64.5603V47.1461ZM13.9419 50.1018H0L7.15652 56.9062L0 63.7106H20.0381V61.7737H13.9419V50.1018ZM66.0583 50.1018V61.7737H59.962V63.7106H80.0002L72.8437 56.9062L80.0002 50.1018H66.0583Z" fill="white"/>
<path d="M36.6141 54.6631V56.4903H35.7731V51.3909H37.7914C38.3725 51.3909 38.821 51.526 39.137 51.7961C39.4581 52.0663 39.6187 52.4689 39.6187 53.0041C39.6187 53.5342 39.4581 53.9445 39.137 54.235C38.821 54.5204 38.3725 54.6631 37.7914 54.6631H36.6141ZM36.6141 53.9445H37.6844C37.98 53.9445 38.2017 53.9011 38.3495 53.8145C38.5024 53.7278 38.6044 53.6157 38.6554 53.4781C38.7114 53.3354 38.7394 53.1876 38.7394 53.0347C38.7394 52.8767 38.7114 52.7263 38.6554 52.5836C38.6044 52.4409 38.5024 52.3262 38.3495 52.2396C38.2017 52.1478 37.98 52.1019 37.6844 52.1019H36.6141V53.9445Z" fill="#384250"/>
<path d="M40.626 56.4903V51.3909H42.8891C43.4191 51.3909 43.8269 51.5209 44.1123 51.7808C44.3977 52.0357 44.5404 52.4205 44.5404 52.9353C44.5404 53.2921 44.4411 53.6106 44.2423 53.8909C44.0486 54.1662 43.7759 54.342 43.4242 54.4185L44.7851 56.4903H43.7377L42.545 54.5637H41.467V56.4903H40.626ZM41.467 53.8757H42.6521C43.3197 53.8757 43.6536 53.5775 43.6536 52.9812C43.6536 52.7059 43.5873 52.4919 43.4548 52.3389C43.3223 52.1809 43.1006 52.1019 42.7897 52.1019H41.467V53.8757Z" fill="#384250"/>
<rect x="22.9359" y="42.1296" width="33.9791" height="3.39791" fill="white"/>
</svg>
