<svg width="80" height="60" viewBox="0 0 80 60" fill="none" xmlns="http://www.w3.org/2000/svg">
<path d="M48.064 3.11925L42.8758 0.0405061H53.0091L48.064 3.11925ZM50.6987 12.5175L44.7809 28.2758L57.6703 12.5175H50.6987ZM56.657 10.2895L49.28 5.63086L50.8608 10.2895H56.657ZM40.0791 10.1275L46.8075 4.132L40.0791 0.121531L33.3506 4.132L40.0791 10.1275ZM29.3378 10.2895L30.9186 5.63086L23.5416 10.2895H29.3378ZM32.3778 5.18526L30.6349 10.33H38.1335L32.3778 5.18526ZM42.0652 10.2895H49.5638L47.8208 5.14474L42.0652 10.2895ZM65.9796 10.2895L59.5754 4.05098L59.8186 10.2895H65.9796ZM58.6026 9.80337L58.3189 2.83569L55.5626 0.162037L49.4422 4.01047L58.6026 9.80337ZM43.0785 29.2481L49.3611 12.5175H40.6465L43.0785 29.2481ZM39.998 16.0014L37.7687 31.5976L39.998 42.0492L42.2273 31.5976L39.998 16.0014ZM14.0164 12.5175L28.365 27.4656L20.5827 12.5175H14.0164ZM24.3117 17.0141L31.4455 30.7469L38.5793 40.2262L36.6338 32.1243L24.3117 17.0141ZM35.2151 28.2758L29.2973 12.5175H22.3256L35.2151 28.2758ZM43.3622 32.0838L41.4166 40.1857L48.5504 30.7064L55.6842 16.9736L43.3622 32.0838ZM51.6309 27.5062L65.9796 12.558H59.4133L51.6309 27.5062ZM39.2684 12.5175H30.5538L36.877 29.2481L39.2684 12.5175ZM24.5955 0.162037L21.8392 2.83569L21.5555 9.80337L30.7159 4.01047L24.5955 0.162037ZM37.3228 0H27.1896L32.1346 3.07874L37.3228 0ZM20.6233 4.05098L14.2191 10.2895H20.3801L20.6233 4.05098Z" fill="white"/>
<path fill-rule="evenodd" clip-rule="evenodd" d="M64.5603 42.8989H15.2906V56.0658H64.5603V42.8989ZM13.9419 45.8546H0L7.15652 52.659L0 59.4634H20.0381V57.5266H13.9419V45.8546ZM66.0583 45.8546V57.5266H59.962V59.4634H80.0002L72.8437 52.659L80.0002 45.8546H66.0583Z" fill="white"/>
<path d="M36.9986 50.4156V52.2428H36.1576V47.1434H38.176C38.757 47.1434 39.2055 47.2785 39.5215 47.5486C39.8426 47.8188 40.0032 48.2214 40.0032 48.7566C40.0032 49.2867 39.8426 49.697 39.5215 49.9875C39.2055 50.2729 38.757 50.4156 38.176 50.4156H36.9986ZM36.9986 49.697H38.0689C38.3645 49.697 38.5863 49.6536 38.7341 49.567C38.887 49.4803 38.9889 49.3682 39.0399 49.2306C39.0959 49.0879 39.124 48.9401 39.124 48.7872C39.124 48.6292 39.0959 48.4788 39.0399 48.3361C38.9889 48.1934 38.887 48.0787 38.7341 47.9921C38.5863 47.9003 38.3645 47.8544 38.0689 47.8544H36.9986V49.697Z" fill="#384250"/>
<path d="M42.5702 52.3269C42.3154 52.3269 42.0911 52.3117 41.8974 52.2811C41.7088 52.2556 41.533 52.2123 41.3699 52.1511C41.2119 52.0899 41.0488 52.016 40.8806 51.9294V51.0884C41.0794 51.2464 41.3189 51.3764 41.5993 51.4783C41.8847 51.5802 42.1905 51.6312 42.5167 51.6312C42.8327 51.6312 43.0672 51.5675 43.2201 51.4401C43.3781 51.3076 43.4571 51.1266 43.4571 50.8973C43.4571 50.7189 43.3985 50.5762 43.2812 50.4691C43.1691 50.357 43.0187 50.2627 42.8302 50.1863C42.6416 50.1098 42.4402 50.0334 42.2262 49.9569C42.007 49.8804 41.7955 49.7912 41.5916 49.6893C41.3877 49.5823 41.2195 49.437 41.087 49.2535C40.9596 49.07 40.8959 48.8177 40.8959 48.4966C40.8959 48.2673 40.9545 48.043 41.0717 47.8239C41.189 47.5996 41.3724 47.4161 41.6222 47.2734C41.877 47.1256 42.2134 47.0517 42.6314 47.0517C42.8352 47.0517 43.0111 47.0644 43.1589 47.0899C43.3118 47.1154 43.4545 47.1562 43.587 47.2122C43.7247 47.2632 43.8725 47.3269 44.0305 47.4034V48.2291C43.8368 48.1067 43.638 47.9972 43.4341 47.9003C43.2303 47.8035 42.9882 47.7525 42.7078 47.7474C42.3918 47.7423 42.1548 47.8035 41.9968 47.9309C41.8388 48.0583 41.7598 48.2189 41.7598 48.4125C41.7598 48.5909 41.8057 48.7336 41.8974 48.8407C41.9892 48.9426 42.114 49.0293 42.272 49.1006C42.4351 49.1669 42.6237 49.2331 42.8378 49.2994C43.0875 49.381 43.3245 49.4778 43.5488 49.5899C43.7782 49.7021 43.9642 49.8524 44.1069 50.041C44.2496 50.2296 44.321 50.4819 44.321 50.7979C44.321 51.0629 44.2598 51.3127 44.1375 51.5471C44.0203 51.7765 43.8317 51.9651 43.5717 52.1129C43.3169 52.2556 42.9831 52.3269 42.5702 52.3269Z" fill="#384250"/>
</svg>
