<svg width="80" height="66" viewBox="0 0 80 66" fill="none" xmlns="http://www.w3.org/2000/svg">
<path fill-rule="evenodd" clip-rule="evenodd" d="M64.5603 48.8448H15.2906V62.0117H64.5603V48.8448ZM13.9419 51.8005H0L7.15652 58.6049L0 65.4093H20.0381V63.4725H13.9419V51.8005ZM66.0583 51.8005V63.4725H59.962V65.4093H80.0002L72.8437 58.6049L80.0002 51.8005H66.0583Z" fill="white"/>
<path d="M37.5232 58.2733C37.2684 58.2733 37.0441 58.258 36.8504 58.2274C36.6619 58.202 36.486 58.1586 36.3229 58.0975C36.1649 58.0363 36.0018 57.9624 35.8336 57.8758V57.0348C36.0324 57.1928 36.2719 57.3227 36.5523 57.4247C36.8377 57.5266 37.1435 57.5776 37.4697 57.5776C37.7857 57.5776 38.0202 57.5139 38.1731 57.3865C38.3311 57.2539 38.4101 57.073 38.4101 56.8436C38.4101 56.6652 38.3515 56.5225 38.2342 56.4155C38.1221 56.3034 37.9718 56.2091 37.7832 56.1326C37.5946 56.0562 37.3933 55.9797 37.1792 55.9033C36.96 55.8268 36.7485 55.7376 36.5446 55.6357C36.3408 55.5286 36.1726 55.3834 36.04 55.1999C35.9126 55.0164 35.8489 54.7641 35.8489 54.443C35.8489 54.2137 35.9075 53.9894 36.0248 53.7702C36.142 53.546 36.3255 53.3625 36.5752 53.2198C36.8301 53.072 37.1664 52.998 37.5844 52.998C37.7883 52.998 37.9641 53.0108 38.1119 53.0363C38.2648 53.0618 38.4075 53.1025 38.5401 53.1586C38.6777 53.2096 38.8255 53.2733 38.9835 53.3497V54.1754C38.7898 54.0531 38.591 53.9435 38.3872 53.8467C38.1833 53.7498 37.9412 53.6989 37.6608 53.6938C37.3448 53.6887 37.1078 53.7498 36.9498 53.8773C36.7918 54.0047 36.7128 54.1652 36.7128 54.3589C36.7128 54.5373 36.7587 54.68 36.8504 54.787C36.9422 54.889 37.0671 54.9756 37.2251 55.047C37.3882 55.1132 37.5767 55.1795 37.7908 55.2458C38.0406 55.3273 38.2776 55.4242 38.5018 55.5363C38.7312 55.6484 38.9172 55.7988 39.0599 55.9874C39.2026 56.1759 39.274 56.4282 39.274 56.7442C39.274 57.0093 39.2128 57.259 39.0905 57.4935C38.9733 57.7228 38.7847 57.9114 38.5248 58.0592C38.2699 58.202 37.9361 58.2733 37.5232 58.2733Z" fill="#384250"/>
<path d="M40.279 58.1892V53.0898H42.068C42.8937 53.0898 43.5079 53.3039 43.9105 53.732C44.3132 54.1601 44.5145 54.7947 44.5145 55.6357C44.5145 56.4818 44.3132 57.1189 43.9105 57.547C43.5079 57.9751 42.8937 58.1892 42.068 58.1892H40.279ZM41.12 57.4782H41.9839C42.5548 57.4782 42.9752 57.3329 43.2454 57.0424C43.5155 56.7468 43.6506 56.2779 43.6506 55.6357C43.6506 54.9986 43.5155 54.5322 43.2454 54.2366C42.9752 53.941 42.5548 53.7932 41.9839 53.7932H41.12V57.4782Z" fill="#384250"/>
<rect x="22.9359" y="43.7481" width="33.9791" height="3.39791" fill="white"/>
<path d="M59.5061 3.03488H54.11C54.1296 2.43721 54.1405 1.83601 54.1405 1.23192C54.1405 0.551476 53.5887 0 52.9086 0H26.5179C25.8378 0 25.286 0.551476 25.286 1.23192C25.286 1.83601 25.2969 2.43721 25.3165 3.03488H19.9204C19.24 3.03488 18.6885 3.58636 18.6885 4.2668C18.6885 9.7867 20.1312 14.9944 22.7506 18.9311C25.3399 22.8229 28.789 25.0551 32.5149 25.2723C33.3596 26.1914 34.2524 26.9408 35.1824 27.5125V32.9878H33.1158C30.6173 32.9878 28.5849 35.0205 28.5849 37.5187V39.5853H28.4974C27.8169 39.5853 27.2654 40.1371 27.2654 40.8173C27.2654 41.4977 27.8169 42.0492 28.4974 42.0492H50.9292C51.6096 42.0492 52.1611 41.4977 52.1611 40.8173C52.1611 40.1371 51.6096 39.5853 50.9292 39.5853H50.8416V37.5187C50.8416 35.0205 48.8093 32.9878 46.3108 32.9878H44.2441V27.5125C45.1741 26.9412 46.0673 26.1914 46.912 25.2723C50.6376 25.0551 54.0866 22.8229 56.6762 18.9311C59.2956 14.9944 60.738 9.7867 60.738 4.2668C60.738 3.58636 60.1865 3.03488 59.5061 3.03488ZM24.8019 17.5664C22.6412 14.3195 21.3718 10.0725 21.1783 5.49872H25.4541C25.8985 11.1213 27.2183 16.3184 29.2811 20.4438C29.6096 21.1008 29.9532 21.7216 30.3096 22.3061C28.2606 21.5323 26.3643 19.9147 24.8019 17.5664ZM48.3778 37.5187V39.5857H31.0488V37.5187C31.0488 36.3791 31.9759 35.4517 33.1158 35.4517H46.3108C47.4506 35.4517 48.3778 36.3791 48.3778 37.5187ZM41.7803 32.9878H37.6463V28.5831C38.3235 28.7615 39.0136 28.8542 39.7133 28.8542C40.413 28.8542 41.103 28.7615 41.7803 28.5831V32.9878ZM42.5432 25.6521C42.4877 25.6749 42.4344 25.7025 42.3834 25.733C41.5127 26.1661 40.618 26.3903 39.7133 26.3903C38.8089 26.3903 37.9145 26.1661 37.0441 25.7336C36.9925 25.7025 36.9389 25.6749 36.8827 25.6515C35.9168 25.1408 34.9823 24.3695 34.0984 23.3561C34.0519 23.2897 33.9996 23.2284 33.9415 23.1726C33.0641 22.1309 32.2387 20.8496 31.4848 19.3418C29.2208 14.8141 27.9132 8.86083 27.7643 2.46384H51.6622C51.5131 8.86083 50.2054 14.8145 47.9418 19.3418C47.1879 20.8496 46.3624 22.1309 45.4853 23.1726C45.4269 23.2284 45.374 23.29 45.3278 23.3564C44.444 24.3702 43.5091 25.1411 42.5432 25.6521ZM54.6246 17.5664C53.0623 19.9147 51.1659 21.5323 49.1169 22.3061C49.4733 21.7216 49.8169 21.1008 50.1454 20.4438C52.2083 16.3184 53.5278 11.1213 53.9724 5.49872H58.2482C58.0547 10.0725 56.7853 14.3195 54.6246 17.5664Z" fill="white"/>
</svg>
