<svg width="80" height="67" viewBox="0 0 80 67" fill="none" xmlns="http://www.w3.org/2000/svg">
<path fill-rule="evenodd" clip-rule="evenodd" d="M52.7718 13.1115C52.7718 20.3414 46.8408 26.2229 39.5508 26.2229C32.2608 26.2229 26.3298 20.3414 26.3298 13.1115C26.3298 5.88155 32.2608 0 39.5508 0C46.8408 0 52.7718 5.88155 52.7718 13.1115ZM50.3494 13.112C50.3494 7.20705 45.5052 2.40271 39.5508 2.40271C33.5964 2.40271 28.7522 7.20652 28.7516 13.112C28.7516 19.0169 33.5964 23.8213 39.5508 23.8213C45.5052 23.8213 50.3494 19.0169 50.3494 13.112ZM41.653 29.2917L40.2903 30.9373L42.7504 38.6087L39.5666 41.8408L39.5682 41.8759L39.5507 41.8605L39.5337 41.8828L39.5358 41.86L36.351 38.647L38.8111 31.0154L37.4489 29.2917L38.2055 28.0587H38.2465H40.8549H40.8959L41.653 29.2917ZM47.4418 27.2683C46.7982 27.7302 46.7034 28.4566 46.6029 29.2262L46.6028 29.2271C46.4896 30.0964 46.3343 31.2868 45.4496 32.6533C45.0492 33.2722 44.4622 33.7363 44.1656 33.8974C43.5786 34.2154 43.3633 34.9454 43.6844 35.5276C44.0055 36.1092 44.7414 36.3235 45.3284 36.0045C45.9191 35.6839 46.8394 34.9539 47.4886 33.9506C48.6668 32.1301 48.879 30.5058 49.0055 29.5354L49.0073 29.522C49.008 29.5168 49.0087 29.5116 49.0093 29.5062C55.0599 30.9668 58.3154 36.3613 58.3154 40.6361C58.3154 40.9184 58.2654 42.9432 58.1926 42.9432H60.6437C60.725 42.4115 60.7378 40.6493 60.7378 40.6361C60.7378 37.3864 59.4102 34.0968 57 31.5925C54.8233 29.3307 51.8368 27.6421 48.8056 27.0652C48.1548 26.9413 47.705 27.0796 47.4418 27.2683ZM20.6857 40.636C20.6857 40.9183 20.7357 42.9431 20.8086 42.9431L18.358 42.9426C18.2772 42.4109 18.2639 40.6488 18.2639 40.6355C18.2639 37.3858 19.5915 33.9766 22.0017 31.4718C24.1784 29.21 27.1649 27.582 30.1961 27.0046C30.8463 26.8817 31.2967 27.0801 31.5593 27.2688C32.2029 27.7306 32.2977 28.4575 32.3982 29.2269L32.3983 29.2281L32.3989 29.2326C32.5126 30.1015 32.6684 31.2913 33.5516 32.6548C33.9519 33.2737 34.5389 33.74 34.8356 33.9011C35.4226 34.2196 35.6379 34.9528 35.3168 35.535C34.9956 36.1166 34.2598 36.3384 33.6728 36.0193C33.0821 35.6993 32.1617 34.9841 31.5125 33.9808C30.3338 32.1603 30.1222 30.5658 29.9956 29.5955C29.9951 29.5907 29.9944 29.6008 29.9938 29.6109C29.9931 29.6212 29.9924 29.6314 29.9919 29.6263C23.9413 31.0869 20.6857 36.3612 20.6857 40.636ZM64.5603 49.7058H15.2906V62.8727H64.5603V49.7058ZM13.9419 52.6615H0L7.15652 59.4659L0 66.2703H20.0381V64.3335H13.9419V52.6615ZM66.0583 52.6615V64.3335H59.962V66.2703H80.0002L72.8437 59.4659L80.0002 52.6615H66.0583ZM61.1624 44.5976H18.2638V47.9955H61.1624V44.5976Z" fill="white"/>
<path d="M36.6207 59.1339C36.3658 59.1339 36.1416 59.1186 35.9479 59.088C35.7593 59.0625 35.5835 59.0192 35.4204 58.9581C35.2624 58.8969 35.0993 58.823 34.9311 58.7363V57.8954C35.1298 58.0534 35.3694 58.1833 35.6497 58.2853C35.9351 58.3872 36.241 58.4382 36.5672 58.4382C36.8832 58.4382 37.1176 58.3745 37.2705 58.247C37.4285 58.1145 37.5075 57.9336 37.5075 57.7042C37.5075 57.5258 37.4489 57.3831 37.3317 57.2761C37.2196 57.164 37.0692 57.0697 36.8806 56.9932C36.692 56.9168 36.4907 56.8403 36.2766 56.7639C36.0575 56.6874 35.8459 56.5982 35.6421 56.4963C35.4382 56.3892 35.27 56.244 35.1375 56.0605C35.0101 55.877 34.9464 55.6247 34.9464 55.3036C34.9464 55.0742 35.005 54.85 35.1222 54.6308C35.2394 54.4066 35.4229 54.2231 35.6727 54.0804C35.9275 53.9325 36.2639 53.8586 36.6818 53.8586C36.8857 53.8586 37.0616 53.8714 37.2094 53.8969C37.3623 53.9224 37.505 53.9631 37.6375 54.0192C37.7751 54.0702 37.9229 54.1339 38.0809 54.2103V55.036C37.8872 54.9137 37.6885 54.8041 37.4846 54.7073C37.2807 54.6104 37.0386 54.5595 36.7583 54.5544C36.4423 54.5493 36.2053 54.6104 36.0473 54.7379C35.8893 54.8653 35.8103 55.0258 35.8103 55.2195C35.8103 55.3979 35.8561 55.5406 35.9479 55.6476C36.0396 55.7496 36.1645 55.8362 36.3225 55.9076C36.4856 55.9738 36.6742 56.0401 36.8883 56.1064C37.138 56.1879 37.375 56.2848 37.5993 56.3969C37.8286 56.509 38.0147 56.6594 38.1574 56.848C38.3001 57.0365 38.3714 57.2888 38.3714 57.6048C38.3714 57.8699 38.3103 58.1196 38.188 58.3541C38.0707 58.5834 37.8821 58.772 37.6222 58.9198C37.3674 59.0625 37.0335 59.1339 36.6207 59.1339Z" fill="#384250"/>
<path d="M39.3764 59.0498V53.9504H40.2557L41.8612 56.3128L43.5049 53.9504H44.3688V59.0498H43.5278V55.166L41.8229 57.5131L40.1945 55.1813V59.0498H39.3764Z" fill="#384250"/>
</svg>
