<svg width="810" height="677.07902" xmlns="http://www.w3.org/2000/svg">
 <title>cookie love</title>

 <g>
  <title>background</title>
  <rect fill="none" id="canvas_background" height="679.07902" width="812" y="-1" x="-1"/>
 </g>
 <g>
  <title>Layer 1</title>
  <circle id="svg_3" fill="#3f3d56" r="11" cy="175.07902" cx="550"/>
  <circle id="svg_4" fill="#3f3d56" r="11" cy="262.07902" cx="550"/>
  <circle id="svg_5" fill="#3f3d56" r="11" cy="284.07902" cx="660"/>
  <path id="svg_7" fill="#3f3d56" d="m641.916,332.23492c-4.59357,-7.57657 -20.63912,-7.381 -20.63912,-7.381c-14.609,21.70578 -49.7257,-1.351 -49.7257,-1.351c-26.08227,11.66883 -41.9963,-25.51693 -41.9963,-25.51693c-35.09529,-5.24782 -29.67333,-42.10652 -29.67333,-42.10652c-17.46047,-3.50561 -12.56124,-35.074 -12.56124,-35.074s9.68846,-7.94625 4.92075,-13.7593c-3.03112,-3.69565 -3.21921,-14.302 -2.95455,-21.54257a240.94768,240.94768 0 0 0 -70.28651,-10.42458c-133.10061,0 -241,107.89939 -241,241s107.89939,241 241,241s241,-107.89939 241,-241a240.44549,240.44549 0 0 0 -15.31224,-84.67451c-1.23711,1.39608 -2.19614,1.77982 -2.77176,0.83041z"/>
  <path id="svg_8" opacity="0.1" d="m641.916,332.23492c-4.59357,-7.57657 -20.63912,-7.381 -20.63912,-7.381c-14.609,21.70578 -49.7257,-1.351 -49.7257,-1.351c-26.08227,11.66883 -41.9963,-25.51693 -41.9963,-25.51693c-35.09529,-5.24782 -29.67333,-42.10652 -29.67333,-42.10652c-17.46047,-3.50561 -12.56124,-35.074 -12.56124,-35.074s9.68846,-7.94625 4.92075,-13.7593c-3.03112,-3.69565 -3.21921,-14.302 -2.95455,-21.54257a240.94768,240.94768 0 0 0 -70.28651,-10.42458c-133.10061,0 -241,107.89939 -241,241s107.89939,241 241,241s241,-107.89939 241,-241a240.44549,240.44549 0 0 0 -15.31224,-84.67451c-1.23711,1.39608 -2.19614,1.77982 -2.77176,0.83041z"/>
  <path id="svg_9" fill="#3f3d56" d="m627.6334,332.28323c-4.36871,-7.20568 -19.62881,-7.01971 -19.62881,-7.01971c-13.89387,20.64326 -47.29158,-1.28486 -47.29158,-1.28486c-24.80552,11.09762 -39.94053,-24.26786 -39.94053,-24.26786c-33.37734,-4.99093 -28.2208,-40.04535 -28.2208,-40.04535c-16.60576,-3.334 -11.94635,-33.35708 -11.94635,-33.35708s9.2142,-7.55727 4.67987,-13.08577c-2.88274,-3.51474 -3.06162,-13.60194 -2.80992,-20.488a229.1527,229.1527 0 0 0 -66.84591,-9.91429c-126.5852,0 -229.2028,102.6176 -229.2028,229.2028s102.6176,229.2028 229.2028,229.2028s229.2028,-102.61761 229.2028,-229.2028a228.6756,228.6756 0 0 0 -14.56269,-80.52963c-1.17655,1.32773 -2.08864,1.69269 -2.63608,0.78975z"/>
  <path id="svg_10" fill="#22aaec" d="m388.26211,317.31651s-39.52476,-25.15213 -77.25295,0c-13.20487,8.80324 -19.8073,21.34786 -22.81141,33.9365c-5.34136,22.38287 0.51635,45.9798 14.79957,64.02176l85.35157,107.81251a25.371,25.371 0 0 0 25.29931,9.21923q0.27712,-0.06206 0.55792,-0.12947a25.44142,25.44142 0 0 0 16.08466,-12.21275l59.35867,-104.23962a100.95414,100.95414 0 0 0 12.82323,-62.7946c-2.7836,-21.43746 -13.07807,-44.03507 -42.34736,-51.78283c0,0.00001 -34.13502,-14.37263 -71.86321,16.16927z"/>
  <path id="svg_11" opacity="0.1" d="m388.26211,317.31651s-39.52476,-25.15213 -77.25295,0c-13.20487,8.80324 -19.8073,21.34786 -22.81141,33.9365c-5.34136,22.38287 0.51635,45.9798 14.79957,64.02176l85.35157,107.81251a25.371,25.371 0 0 0 25.29931,9.21923q0.27712,-0.06206 0.55792,-0.12947a25.44142,25.44142 0 0 0 16.08466,-12.21275l59.35867,-104.23962a100.95414,100.95414 0 0 0 12.82323,-62.7946c-2.7836,-21.43746 -13.07807,-44.03507 -42.34736,-51.78283c0,0.00001 -34.13502,-14.37263 -71.86321,16.16927z"/>
  <path id="svg_12" fill="#22aaec" d="m388.66434,323.38671s-37.07693,-23.5944 -72.46854,0c-12.38706,8.25805 -18.58059,20.02576 -21.39865,31.83476c-5.01056,20.99665 0.48437,43.13218 13.883,60.05677l80.06559,101.13548a23.79971,23.79971 0 0 0 23.73248,8.6483q0.26,-0.05822 0.52336,-0.12145a23.86582,23.86582 0 0 0 15.08851,-11.45639l55.68248,-97.78387a94.70188,94.70188 0 0 0 12.02906,-58.90561c-2.61121,-20.1098 -12.26812,-41.3079 -39.72471,-48.57582c0,0 -32.02098,-13.48251 -67.41258,15.16783z"/>
  <path id="svg_13" opacity="0.1" d="m390.1073,363.84351s-18.03892,-11.47931 -35.25788,0a24.90439,24.90439 0 0 0 -10.411,15.48846a34.40329,34.40329 0 0 0 6.75445,29.21923s46.18249,54.37968 50.50054,53.41275q0.12648,-0.02832 0.25463,-0.05909c3.11123,-0.74714 34.432,-53.14831 34.432,-53.14831a46.07506,46.07506 0 0 0 5.85246,-28.65916c-1.27042,-9.784 -5.96877,-20.0974 -19.32713,-23.63344c-0.00004,-0.00005 -15.57911,-6.55965 -32.79807,7.37956z"/>
  <polyline id="svg_14" opacity="0.1" points="277.434 449.785 282.49 458.212 292.601 475.065 295.972 486.862 289.231 496.974 297.657 517.198 301.028 528.995 294.287 535.736 307.769 545.848"/>
  <polyline id="svg_15" opacity="0.1" points="525.175 375.631 525.175 389.114 516.748 411.023 511.692 422.82 520.119 437.988 523.49 448.1 536.972 453.156 542.028 461.583 542.028 481.806"/>
  <path id="svg_16" opacity="0.1" d="m611.12587,389.11399l-13.48251,8.42657s-6.74126,3.37063 -6.74126,5.05594l0,13.48252"/>
  <polyline id="svg_17" opacity="0.1" points="550.455 341.925 553.825 358.778 550.455 370.576"/>
  <polyline id="svg_18" opacity="0.1" points="563.937 493.604 553.825 508.771 542.028 518.883 542.028 525.624 548.769 534.051 548.769 544.163 543.713 554.275"/>
  <polyline id="svg_19" opacity="0.1" points="467.874 207.1 451.021 207.1 437.538 218.897 415.629 230.694 405.517 239.121 405.517 242.492 383.608 254.289 376.867 266.086"/>
  <path id="svg_20" opacity="0.1" d="m285.86014,235.75035l-15.16783,30.33567l-5.05595,11.7972l-11.7972,15.16783s-8.42657,15.16783 -10.11189,16.85315s-13.48251,5.05594 -13.48251,5.05594l16.85314,16.85315"/>
  <polyline id="svg_21" opacity="0.1" points="218.448 352.037 215.077 373.946 218.448 387.429 218.448 411.023 208.336 454.841 218.448 466.638 230.245 481.806"/>
  <polyline id="svg_22" opacity="0.1" points="243.727 362.149 253.839 367.205 260.58 389.114 274.063 385.743 280.804 397.541"/>
  <polyline id="svg_23" opacity="0.1" points="429.112 581.24 456.077 577.869 467.874 566.072 484.727 566.072"/>
  <polyline id="svg_24" opacity="0.1" points="265.636 545.848 275.748 557.645 292.601 562.701 304.399 566.072 307.769 584.61"/>
  <polyline id="svg_25" opacity="0.1" points="464.503 488.548 476.301 480.121 481.357 466.638 491.469 464.953 496.524 448.1"/>
  <path id="svg_26" fill="#2f2e41" d="m161.83748,65.079l28.21816,0a33.5923,33.5923 0 0 1 33.5923,33.5923l0,61.8105a0,0 0 0 1 0,0l-95.40276,0a0,0 0 0 1 0,0l0,-61.81047a33.5923,33.5923 0 0 1 33.5923,-33.59233z"/>
  <path id="svg_27" fill="#fbbebe" d="m190.80789,595.16057s-3,19 -8,22s26,10 26,10l5,-30l-23,-2z"/>
  <path id="svg_28" fill="#2f2e41" d="m227.80789,378.16057l11,13l-5,45l-4,89s8,77 0,79s-44,1 -43,-4s2,-9 4,-16s-2,-32 -2,-32l5,-28l-18,-121l52,-25z"/>
  <path id="svg_29" fill="#2f2e41" d="m191.80789,614.16057s-11,-2 -12,0s-20,23 -23,23s-25,20 -2,21s61,-17 61,-17s-5.59226,-25.44648 -5.29613,-24.22324s-18.70387,2.22324 -18.70387,-2.77676z"/>
  <path id="svg_30" fill="#fbbebe" d="m179.80789,568.16057s28,31 29,34s16,0 16,0l6,-20l-5,-7l-28,-23l-18,16z"/>
  <path id="svg_31" fill="#2f2e41" d="m219.80789,591.16057l-14.5,13.64811s18.5,28.35189 18.5,31.35189s1,28 11,24s11,-44 11,-44s-1,-41 -7,-44s-19.15048,-2.05218 -19.15048,-2.05218s8.15048,20.05218 0.15048,21.05218z"/>
  <path id="svg_32" fill="#2f2e41" d="m136.80789,289.16057s-5,16 -6,20s-7,15 -7,32s2,37 0,39s-34,114 -20,126s60,52 63,57s4,17 10,15s29,-22 30,-26s-13,-11 -13,-11s-28,-41 -35,-40s-6,-5 -5,-8s3,-5 0,-5s-1,-8 0,-12s24,-58 24,-58l61,-27s-3,-73 -25,-93l-5,-12s-56,-4 -72,3z"/>
  <path id="svg_33" fill="#fbbebe" d="m161.80789,131.16057s5,35 -7,37s-22,1 -22,2s30,32 30,32l28,-2l25,-27s-23,-4 -23,-18s-1,-24 -1,-24l-30,0z"/>
  <path id="svg_34" opacity="0.1" d="m161.80789,131.16057s5,35 -7,37s-22,1 -22,2s30,32 30,32l28,-2l25,-27s-23,-4 -23,-18s-1,-24 -1,-24l-30,0z"/>
  <circle id="svg_35" fill="#fbbebe" r="31" cy="114.66057" cx="177.30789"/>
  <path id="svg_36" fill="#ff6584" d="m149.80789,165.16057s-39,5 -42,18s20,94 23,101s2,12 2,12a39.56624,39.56624 0 0 1 32,-7c19,4 46,2 46,2s9,-37 11,-41s10,-26 10,-32s12,-31 12,-31s-6,-18 -28,-17c0,0 -9.59619,-4.29506 -12.2981,-1.14753s-17.7019,17.14753 -36.7019,11.14753s-17,-15 -17,-15z"/>
  <path id="svg_37" fill="#ff6584" d="m118.80789,182.16057l-11,0l-6,79s22,6 25,2s-8,-81 -8,-81z"/>
  <path id="svg_38" fill="#ff6584" d="m224.80789,182.16057l19,5s14,51 15,52s2,7 2,7s0,1 2,4s5,1 3,5s-5,2 -3,6s1,15 1,15s-5,-19 -23,-14l-12,-54l-4,-26z"/>
  <polygon id="svg_39" fill="#2f2e41" points="201.511 107.121 153.343 107.121 142.438 82.057 209.69 82.057 201.511 107.121"/>
  <ellipse id="svg_40" fill="#ffb9b9" transform="rotate(-16.160120010375977 -245.76846313476565,-7.652719974517813) " ry="6.46798" rx="2.42549" cy="223.05616" cx="94.45518"/>
  <ellipse id="svg_41" fill="#ffb9b9" transform="rotate(-73.83988189697266 -124.41400146484368,443.90087890625006) " ry="2.42549" rx="6.46798" cy="674.60976" cx="280.44699"/>
  <circle id="svg_42" fill="#3f3d56" r="18" cy="234.07902" cx="204"/>
  <circle id="svg_43" opacity="0.1" r="18" cy="234.07902" cx="204"/>
  <circle id="svg_44" fill="#3f3d56" r="16.21488" cy="234.07902" cx="204"/>
  <path id="svg_45" opacity="0.1" d="m203.285,224.91281s-4.13136,-2.629 -8.07492,0a5.70371,5.70371 0 0 0 -2.38438,3.54723a7.87922,7.87922 0 0 0 1.54694,6.69192l8.92143,11.26917a2.65191,2.65191 0 0 0 2.64442,0.96365l0.05832,-0.01353a2.65929,2.65929 0 0 0 1.68126,-1.27655l6.2045,-10.89571a10.55224,10.55224 0 0 0 1.34036,-6.56365a5.89607,5.89607 0 0 0 -4.42638,-5.41263s-3.56803,-1.50231 -7.51155,1.6901z"/>
  <path id="svg_46" fill="#22aaec" d="m203.327,225.5473s-3.87549,-2.46622 -7.57482,0a5.35048,5.35048 0 0 0 -2.23671,3.32755a7.39123,7.39123 0 0 0 1.45113,6.27747l8.36891,10.57126a2.48768,2.48768 0 0 0 2.48065,0.904l0.05471,-0.01269a2.4946,2.4946 0 0 0 1.57713,-1.19749l5.82025,-10.22092a9.89875,9.89875 0 0 0 1.25734,-6.15715a5.53091,5.53091 0 0 0 -4.15225,-5.07742s-3.34701,-1.4093 -7.04634,1.58539z"/>
  <path id="svg_47" opacity="0.1" d="m203.47783,229.77607a3.55652,3.55652 0 0 0 -3.68536,0a2.60318,2.60318 0 0 0 -1.08822,1.61894a3.596,3.596 0 0 0 0.706,3.05416s4.82725,5.68407 5.2786,5.583l0.02661,-0.00617c0.32521,-0.0781 3.599,-5.55537 3.599,-5.55537a4.816,4.816 0 0 0 0.61173,-2.99561a2.69092,2.69092 0 0 0 -2.02018,-2.4703a3.503,3.503 0 0 0 -3.42818,0.77135z"/>
  <circle id="svg_48" fill="#3f3d56" r="18" cy="244.07902" cx="188"/>
  <circle id="svg_49" opacity="0.1" r="18" cy="244.07902" cx="188"/>
  <circle id="svg_50" fill="#3f3d56" r="16.21488" cy="244.07902" cx="188"/>
  <path id="svg_51" opacity="0.1" d="m187.285,234.91281s-4.13136,-2.629 -8.07492,0a5.70371,5.70371 0 0 0 -2.38438,3.54723a7.87922,7.87922 0 0 0 1.54694,6.69192l8.92143,11.26917a2.65191,2.65191 0 0 0 2.64442,0.96365l0.05832,-0.01353a2.65929,2.65929 0 0 0 1.68126,-1.27655l6.2045,-10.89571a10.55224,10.55224 0 0 0 1.34036,-6.56365a5.89607,5.89607 0 0 0 -4.42638,-5.41263s-3.56803,-1.50231 -7.51155,1.6901z"/>
  <path id="svg_52" fill="#22aaec" d="m187.327,235.5473s-3.87549,-2.46622 -7.57482,0a5.35048,5.35048 0 0 0 -2.23671,3.32755a7.39123,7.39123 0 0 0 1.45113,6.27747l8.36891,10.57126a2.48768,2.48768 0 0 0 2.48065,0.904l0.05471,-0.01269a2.4946,2.4946 0 0 0 1.57713,-1.19749l5.82025,-10.22092a9.89875,9.89875 0 0 0 1.25734,-6.15715a5.53091,5.53091 0 0 0 -4.15225,-5.07742s-3.34701,-1.4093 -7.04634,1.58539z"/>
  <path id="svg_53" opacity="0.1" d="m187.47783,239.77607a3.55652,3.55652 0 0 0 -3.68536,0a2.60318,2.60318 0 0 0 -1.08822,1.61894a3.596,3.596 0 0 0 0.706,3.05416s4.82725,5.68407 5.2786,5.583l0.02661,-0.00617c0.32521,-0.0781 3.599,-5.55537 3.599,-5.55537a4.816,4.816 0 0 0 0.61173,-2.99561a2.69092,2.69092 0 0 0 -2.02018,-2.4703a3.503,3.503 0 0 0 -3.42818,0.77135z"/>
  <path id="svg_54" fill="#3f3d56" d="m174.27414,199.0773c-0.43839,-0.72307 -1.96971,-0.70441 -1.96971,-0.70441c-1.39422,2.07151 -4.7456,-0.12893 -4.7456,-0.12893c-2.48918,1.11362 -4.00795,-2.43523 -4.00795,-2.43523c-3.34934,-0.50083 -2.83189,-4.01846 -2.83189,-4.01846c-1.66636,-0.33456 -1.19879,-3.34731 -1.19879,-3.34731s0.92462,-0.75836 0.46961,-1.31313a4.03794,4.03794 0 0 1 -0.282,-2.05593a22.985,22.985 0 1 0 14.83083,13.92415c-0.11804,0.13324 -0.20956,0.16986 -0.2645,0.07925z"/>
  <path id="svg_55" opacity="0.1" d="m174.27414,199.0773c-0.43839,-0.72307 -1.96971,-0.70441 -1.96971,-0.70441c-1.39422,2.07151 -4.7456,-0.12893 -4.7456,-0.12893c-2.48918,1.11362 -4.00795,-2.43523 -4.00795,-2.43523c-3.34934,-0.50083 -2.83189,-4.01846 -2.83189,-4.01846c-1.66636,-0.33456 -1.19879,-3.34731 -1.19879,-3.34731s0.92462,-0.75836 0.46961,-1.31313a4.03794,4.03794 0 0 1 -0.282,-2.05593a22.985,22.985 0 1 0 14.83083,13.92415c-0.11804,0.13324 -0.20956,0.16986 -0.2645,0.07925z"/>
  <path id="svg_56" fill="#3f3d56" d="m172.91107,198.98651c-0.41693,-0.68768 -1.87329,-0.66993 -1.87329,-0.66993c-1.326,1.9701 -4.5133,-0.12262 -4.5133,-0.12262c-2.36733,1.0591 -3.81175,-2.316 -3.81175,-2.316c-3.18539,-0.47632 -2.69327,-3.82176 -2.69327,-3.82176c-1.58479,-0.31818 -1.14011,-3.18346 -1.14011,-3.18346s0.87936,-0.72123 0.44662,-1.24884a3.84044,3.84044 0 0 1 -0.26816,-1.95529a21.85989,21.85989 0 1 0 14.10484,13.24254c-0.11229,0.12667 -0.19933,0.1615 -0.25158,0.07536z"/>
  <path id="svg_57" fill="#22aaec" d="m150.06651,197.65351s-3.77207,-2.40041 -7.37269,0a5.20767,5.20767 0 0 0 -2.177,3.23875a7.194,7.194 0 0 0 1.4124,6.11l8.14559,10.28916a2.4213,2.4213 0 0 0 2.41446,0.87984l0.05324,-0.01235a2.42805,2.42805 0 0 0 1.53505,-1.16553l5.66494,-9.94818a9.63466,9.63466 0 0 0 1.22379,-5.99285a5.38331,5.38331 0 0 0 -4.04145,-4.94193s-3.25772,-1.37165 -6.85833,1.54309z"/>
  <path id="svg_58" opacity="0.1" d="m150.06651,197.65351s-3.77207,-2.40041 -7.37269,0a5.20767,5.20767 0 0 0 -2.177,3.23875a7.194,7.194 0 0 0 1.4124,6.11l8.14559,10.28916a2.4213,2.4213 0 0 0 2.41446,0.87984l0.05324,-0.01235a2.42805,2.42805 0 0 0 1.53505,-1.16553l5.66494,-9.94818a9.63466,9.63466 0 0 0 1.22379,-5.99285a5.38331,5.38331 0 0 0 -4.04145,-4.94193s-3.25772,-1.37165 -6.85833,1.54309z"/>
  <path id="svg_59" fill="#22aaec" d="m150.1049,198.23287s-3.53847,-2.25175 -6.91609,0a4.88513,4.88513 0 0 0 -2.04219,3.03817a6.74844,6.74844 0 0 0 1.32493,5.73156l7.64111,9.65193a2.27135,2.27135 0 0 0 2.26493,0.82536l0.05,-0.01159a2.27765,2.27765 0 0 0 1.44,-1.09335l5.31409,-9.33207a9.03793,9.03793 0 0 0 1.148,-5.6217a5.04992,5.04992 0 0 0 -3.79116,-4.63586s-3.056,-1.28672 -6.43362,1.44755z"/>
  <path id="svg_60" opacity="0.1" d="m150.24261,202.09389a3.24721,3.24721 0 0 0 -3.36486,0a2.37674,2.37674 0 0 0 -0.99359,1.47815a3.28328,3.28328 0 0 0 0.64462,2.78855s4.40746,5.18977 4.81955,5.09749l0.0243,-0.00564a57.85673,57.85673 0 0 0 3.286,-5.07225a4.39723,4.39723 0 0 0 0.55854,-2.7351a2.457,2.457 0 0 0 -1.8445,-2.25548a3.19839,3.19839 0 0 0 -3.13006,0.70428z"/>
  <polyline id="svg_61" opacity="0.1" points="139.49 210.296 139.972 211.1 140.937 212.708 141.259 213.834 140.615 214.799 141.42 216.729 141.741 217.855 141.098 218.499 142.385 219.464"/>
  <polyline id="svg_62" opacity="0.1" points="163.133 203.219 163.133 204.506 162.329 206.597 161.846 207.722 162.65 209.17 162.972 210.135 164.259 210.617 164.741 211.422 164.741 213.352"/>
  <path id="svg_63" opacity="0.1" d="m171.33566,204.5056l-1.28671,0.80419s-0.64336,0.32168 -0.64336,0.48252l0,1.28671"/>
  <polyline id="svg_64" opacity="0.1" points="165.545 200.002 165.867 201.61 165.545 202.736"/>
  <polyline id="svg_65" opacity="0.1" points="166.832 214.478 165.867 215.925 164.741 216.89 164.741 217.534 165.385 218.338 165.385 219.303 164.902 220.268"/>
  <polyline id="svg_66" opacity="0.1" points="157.664 187.135 156.056 187.135 154.769 188.261 152.678 189.387 151.713 190.191 151.713 190.513 149.622 191.638 148.979 192.764"/>
  <path id="svg_67" opacity="0.1" d="m140.29371,189.86923l-1.44756,2.89511l-0.48251,1.12587l-1.12588,1.44755s-0.80419,1.44756 -0.965,1.6084a6.62107,6.62107 0 0 1 -1.28672,0.48251l1.6084,1.60839"/>
  <polyline id="svg_68" opacity="0.1" points="133.86 200.967 133.538 203.058 133.86 204.345 133.86 206.597 132.895 210.778 133.86 211.904 134.986 213.352"/>
  <polyline id="svg_69" opacity="0.1" points="136.273 201.932 137.238 202.415 137.881 204.506 139.168 204.184 139.811 205.31"/>
  <polyline id="svg_70" opacity="0.1" points="153.965 222.841 156.538 222.52 157.664 221.394 159.273 221.394"/>
  <polyline id="svg_71" opacity="0.1" points="138.364 219.464 139.329 220.59 140.937 221.072 142.063 221.394 142.385 223.163"/>
  <polyline id="svg_72" opacity="0.1" points="157.343 213.995 158.469 213.191 158.951 211.904 159.916 211.743 160.399 210.135"/>
  <path id="svg_73" fill="#ff6584" d="m104.80789,253.16057l-3,8s-2,26 10,25s19,-16 19,-16s-7,-19 -15,-17s-11,0 -11,0z"/>
  <path id="svg_74" fill="#fbbebe" d="m114.80789,258.16057s-6,18 1,18s20,-11 21,-20s19,-43 6,-40s-19,28 -19,28l-9,14z"/>
  <path id="svg_75" fill="#fbbebe" d="m257.80789,259.16057l6.24722,10.44031s2.75278,19.55969 -11.24722,19.55969s-34,-19 -34,-19s-10,-4 -16,-3s-39,0 -25,-17s38,0 38,0l25,12l13,-7l4,4z"/>
  <path id="svg_76" fill="#ff6584" d="m249.30789,245.66057l-10,16s23,3 25,8s-9,-26 -9,-26l-6,2z"/>
 </g>
</svg>