<svg width="334" height="186" viewBox="0 0 334 186" fill="none" xmlns="http://www.w3.org/2000/svg">
<path d="M313.186 135.031C309.419 134.089 305.483 134.026 301.689 134.905C297.328 125.49 297.47 115.762 292.826 106.535C287.361 95.7395 281.924 84.9439 276.459 74.1483C271.9 65.1414 267.313 56.0405 260.857 47.8496C249.87 33.8843 233.503 22.8062 214.729 16.5924C208.273 14.4584 201.477 12.8893 194.54 12.7324C187.801 12.5754 181.146 13.7994 174.718 15.4627C143.202 23.7163 116.953 44.4602 105.4 69.9116C98.6038 66.1143 90.9301 63.9489 82.8316 63.9489C54.5435 63.9489 31.6355 90.0279 31.6355 122.195C31.6355 124.392 32.7965 128.691 32.2019 130.668C31.2108 133.932 31.5789 132.206 28.7473 134.089C25.236 136.411 21.1018 137.51 17.5906 140.083C10.9646 144.979 5.44286 151.789 1.95994 159.76C0.402536 163.275 -0.758437 167.449 0.60075 171.058C2.15815 175.138 6.34898 177.021 10.1151 178.496C17.6755 181.446 23.2256 181.697 31.0409 181.822C69.2964 182.481 107.58 183.172 145.836 183.831C172.764 184.301 199.665 184.772 226.594 185.243C247.18 185.494 267.681 184.207 288.267 183.705C295.176 183.517 308.598 183.14 315.253 181.132C322.247 179.029 323.125 178.37 329.439 174.385C331.28 173.223 332.299 168.798 333.262 166.727C334.026 165.064 334.055 163.087 333.913 161.204C333.234 152.887 329.213 144.948 323.153 139.989C320.18 137.635 316.753 135.941 313.186 135.031Z" fill="#E3E8ED"/>
<path opacity="0.3" d="M166.837 185.275C252.352 185.275 321.675 182.51 321.675 179.099C321.675 175.688 252.352 172.923 166.837 172.923C81.323 172.923 12 175.688 12 179.099C12 182.51 81.323 185.275 166.837 185.275Z" fill="#43457B"/>
<g clip-path="url(#clip0)">
<path fill-rule="evenodd" clip-rule="evenodd" d="M332.659 119.549C333.547 121.866 330.224 125.125 328.542 126.583C328.933 126.414 329.332 126.255 329.74 126.104C329.933 126.029 330.157 126.134 330.231 126.327C330.306 126.521 330.201 126.744 330.008 126.819C329.338 127.066 328.692 127.337 328.069 127.632C329.472 127.293 332.778 126.678 333.731 128.144C334.943 130.006 331.932 131.765 327.535 127.894C325.592 128.877 323.888 130.1 322.422 131.56C323.757 131.299 326.946 130.847 327.787 132.285C328.838 134.08 325.997 135.618 322.07 131.921C320.411 133.663 319.076 135.726 318.066 138.105C318.951 137.513 322.028 135.601 323.41 136.679C325.017 137.932 322.944 140.369 317.971 138.333C317.221 140.153 316.659 142.154 316.285 144.336C317.265 143.453 319.7 141.48 321.116 142.264C322.893 143.225 321.294 145.897 316.206 144.815C315.815 147.307 315.663 150.027 315.753 152.975C316.06 163.07 319.247 172.248 319.397 172.68L319.402 172.696C319.477 172.904 319.373 173.113 319.179 173.187C319.164 173.187 319.149 173.191 319.134 173.195C319.119 173.198 319.104 173.202 319.09 173.202C318.926 173.217 318.747 173.113 318.687 172.949L318.682 172.933C318.526 172.487 315.3 163.225 314.993 153.019C314.874 149.227 315.169 145.764 315.866 142.663C315.115 142.125 310.807 138.916 311.583 136.589C312.391 134.122 316.133 135.498 316.002 142.085C316.417 140.388 316.955 138.802 317.615 137.335C317.791 136.944 317.976 136.561 318.169 136.187C317.665 135.648 313.904 131.504 315.156 129.334C316.476 127.061 319.947 129.264 318.305 135.928C319.462 133.763 320.919 131.887 322.669 130.309C322.055 129.17 319.522 124.17 321.338 122.275C323.344 120.197 326.427 123.363 323.135 129.902C324.463 128.777 325.951 127.814 327.593 127.017C326.833 118.544 331.496 116.519 332.659 119.549Z" fill="#FFAEBD"/>
<path d="M315.752 153.509C315.663 153.286 315.573 153.063 315.469 152.839C314.054 149.667 311.596 147.253 309.064 145.481C308.915 145.377 308.781 145.287 308.632 145.183C305.251 142.904 301.855 141.757 300.812 141.444C300.589 141.385 300.485 141.34 300.485 141.34C300.455 141.459 300.41 141.578 300.38 141.698C298.816 147.06 298.787 151.379 299.636 154.835C299.68 155.029 299.725 155.207 299.785 155.401C302.451 164.919 311.879 167.749 313.726 168.226C313.935 168.27 314.039 168.3 314.039 168.3C314.084 168.196 314.129 168.107 314.188 168.017C317.167 162.044 317.182 157.278 315.752 153.509Z" fill="#D1B4FF"/>
<path d="M314.188 168.017L311.835 163.34L315.752 153.524C315.663 153.301 315.573 153.077 315.469 152.854L311.537 162.744L306.025 151.796L309.064 145.481C308.915 145.377 308.781 145.287 308.632 145.183L305.713 151.201L300.797 141.444C300.574 141.385 300.47 141.34 300.47 141.34C300.44 141.459 300.395 141.578 300.365 141.698L308.081 157.04L299.606 154.835C299.65 155.029 299.695 155.207 299.755 155.401L308.379 157.65L313.696 168.226C313.905 168.27 314.009 168.3 314.009 168.3C314.099 168.211 314.143 168.107 314.188 168.017Z" fill="#A080E9"/>
<path d="M315.202 154.002C315.336 153.793 315.47 153.585 315.604 153.391C317.585 150.531 320.445 148.61 323.26 147.344C323.424 147.269 323.573 147.21 323.737 147.135C327.475 145.526 331.02 145.035 332.123 144.901C332.346 144.871 332.465 144.871 332.465 144.871C332.48 144.99 332.495 145.124 332.495 145.243C333.031 150.799 332.271 155.044 330.797 158.292C330.722 158.47 330.633 158.649 330.544 158.813C326.165 167.675 316.364 168.703 314.457 168.822C314.248 168.837 314.129 168.837 314.129 168.837C314.099 168.733 314.07 168.629 314.04 168.524C312.238 162.12 313.102 157.428 315.202 154.002Z" fill="#FDE3A7"/>
<path d="M314.055 168.54L317.243 164.384L315.217 154.017C315.351 153.808 315.485 153.6 315.619 153.406L317.66 163.848L325.107 154.106L323.275 147.359C323.439 147.284 323.588 147.225 323.752 147.15L325.51 153.6L332.138 144.916C332.361 144.886 332.481 144.886 332.481 144.886C332.495 145.005 332.51 145.139 332.51 145.259L322.069 158.888L330.797 158.292C330.723 158.471 330.634 158.649 330.544 158.813L321.652 159.424L314.457 168.823C314.249 168.838 314.13 168.838 314.13 168.838C314.1 168.748 314.085 168.644 314.055 168.54Z" fill="#F5AB35"/>
<path d="M310.569 179.1H320.415L321.621 169.299H309.363L310.569 179.1Z" fill="url(#paint0_linear)"/>
<path d="M308.856 169.82H322.128C322.679 169.82 323.126 169.373 323.126 168.822V167.675C323.126 167.124 322.679 166.677 322.128 166.677H308.856C308.305 166.677 307.858 167.124 307.858 167.675V168.822C307.858 169.373 308.305 169.82 308.856 169.82Z" fill="url(#paint1_linear)"/>
</g>
<path d="M132.861 175.637H207.989C212.233 175.637 215.695 172.195 215.695 167.931V18.4762C215.695 14.2318 212.253 10.7697 207.989 10.7697H132.861C128.616 10.7697 125.154 14.2122 125.154 18.4762V167.931C125.154 172.175 128.597 175.637 132.861 175.637Z" fill="#2C325E"/>
<path d="M212.512 18.4193V163.844C212.512 165.957 210.791 167.678 208.678 167.678H132.161C130.049 167.678 128.328 165.957 128.328 163.844V18.4193C128.328 16.4242 129.951 14.8008 131.946 14.8008H208.913C210.908 14.8008 212.512 16.4242 212.512 18.4193Z" fill="#F7E9D4"/>
<path d="M169.05 13.0589C169.05 13.8021 169.657 14.428 170.42 14.428C171.163 14.428 171.789 13.8217 171.789 13.0589C171.789 12.296 171.182 11.6897 170.42 11.6897C169.676 11.7093 169.05 12.3156 169.05 13.0589Z" fill="white"/>
<g opacity="0.5">
<path opacity="0.73" d="M178.254 14.7804L212.503 55.3077V75.0824L161.551 14.7804H178.254Z" fill="#E5EBF1"/>
<path opacity="0.73" d="M196.451 14.7804L212.51 33.7727V40.9119L190.427 14.7804H196.451Z" fill="#E5EBF1"/>
<path opacity="0.5" d="M159.994 14.7812L212.512 76.9219V79.5233L157.804 14.7812H159.994Z" fill="#E6E6E6"/>
</g>
<path fill-rule="evenodd" clip-rule="evenodd" d="M135.208 152.816V151.288H138.264V152.816H135.208ZM224.233 26.1959H222.705V23.1232H224.233V26.1959ZM224.233 18.5389H222.705V15.4662H224.233V18.5389ZM224.134 10.7669C224.003 9.69883 223.724 8.59793 223.296 7.61205L221.883 8.20358C222.245 9.09088 222.491 10.011 222.606 10.964L224.134 10.7669ZM220.585 3.56995C219.813 2.79767 218.926 2.14042 217.989 1.59819L217.233 2.92912C218.071 3.40563 218.827 3.98073 219.501 4.65441L220.585 3.56995ZM213.355 0.0865022C212.304 -0.0285172 211.252 0.00434548 210.201 0.00434548V1.53246C211.186 1.53246 212.189 1.4996 213.175 1.59819L213.355 0.0865022ZM205.6 0.00434548V1.53246H202.527V0.00434548H205.6ZM197.943 0.00434548V1.53246H194.87V0.00434548H197.943ZM190.269 0.00434548V1.53246H187.197V0.00434548H190.269ZM182.612 0.00434548V1.53246H179.54V0.00434548H182.612ZM174.939 0.00434548V1.53246H171.866V0.00434548H174.939ZM167.282 0.00434548V1.53246H164.209V0.00434548H167.282ZM159.609 0.00434548V1.53246H156.536V0.00434548H159.609ZM151.952 0.00434548V1.53246H148.879V0.00434548H151.952ZM144.278 0.00434548V1.53246H141.222V0.00434548H144.278ZM136.621 0.00434548V1.53246H133.548V0.00434548H136.621ZM128.948 0.00434548V1.53246H125.875V0.00434548H128.948ZM121.209 0.0536395C120.124 0.152228 119.04 0.382266 118.021 0.776618L118.563 2.20614C119.467 1.87752 120.387 1.66391 121.34 1.58175L121.209 0.0536395ZM113.897 3.33991C113.091 4.09575 112.418 4.93375 111.826 5.8539L113.124 6.65904C113.634 5.83747 114.225 5.11449 114.932 4.44081L113.897 3.33991ZM110.15 10.4382C109.969 11.5391 110.002 12.4757 110.002 13.6095H111.53C111.53 12.5579 111.498 11.687 111.645 10.6683L110.15 10.4382ZM110.002 18.2103H111.53V21.2829H110.002V18.2103ZM110.002 25.8837H111.53V28.9564H110.002V25.8837ZM110.002 33.5407H111.53V36.6134H110.002V33.5407ZM110.002 41.2141H111.53V44.2868H110.002V41.2141ZM110.002 48.8711H111.53V51.9438H110.002V48.8711ZM110.002 56.5446H111.53V59.6172H110.002V56.5446ZM110.002 64.2016H111.53V67.2742H110.002V64.2016ZM110.002 71.875H111.53V74.9312H110.002V71.875ZM110.002 79.532H111.53V82.6047H110.002V79.532ZM110.002 87.2054H111.53V90.2781H110.002V87.2054ZM110.002 94.8624H111.53V97.9351H110.002V94.8624ZM110.002 102.536H111.53V105.609H110.002V102.536ZM110.002 110.209H111.53V113.282H110.002V110.209ZM110.002 117.866H111.53V120.939H110.002V117.866ZM110.002 125.54H111.53V128.612H110.002V125.54ZM110.002 133.197H111.53V136.269H110.002V133.197ZM110.002 140.887C110.035 141.889 110.2 143.171 110.528 144.107L111.991 143.647C111.711 142.727 111.563 141.79 111.53 140.837L110.002 140.887ZM112.861 148.396C113.584 149.25 114.357 149.957 115.26 150.598L116.131 149.332C115.359 148.79 114.636 148.116 114.028 147.41L112.861 148.396ZM119.73 152.536C120.88 152.766 121.767 152.799 122.934 152.799V151.271C121.882 151.271 121.077 151.255 120.042 151.041L119.73 152.536ZM127.535 152.816V151.288H130.607V152.816H127.535Z" fill="#FFB74F"/>
<path fill-rule="evenodd" clip-rule="evenodd" d="M144.711 23.8207H179.956L202.336 46.2002V100.095C202.336 103.562 199.46 106.437 195.993 106.437H144.711C141.244 106.437 138.368 103.578 138.368 100.095V30.1632C138.352 26.6797 141.211 23.8207 144.711 23.8207Z" fill="#ECF4FC"/>
<path fill-rule="evenodd" clip-rule="evenodd" d="M202.336 52.1976H181.862C177.837 52.1976 174.551 48.9113 174.551 44.8857V23.8371L179.973 23.8207L202.287 46.6274L202.336 52.1976Z" fill="#D4E2F1"/>
<path fill-rule="evenodd" clip-rule="evenodd" d="M202.333 48.4348H184.554C181.071 48.4348 178.212 45.5758 178.212 42.0923V23.8371V23.8207H179.937L202.333 46.2002V48.4348Z" fill="white"/>
<path fill-rule="evenodd" clip-rule="evenodd" d="M146.584 66.6062H194.12C194.843 66.6062 195.434 67.1977 195.434 67.9207V70.1389C195.434 70.8619 194.843 71.4535 194.12 71.4535H146.584C145.861 71.4535 145.269 70.8619 145.269 70.1389V67.9207C145.269 67.1977 145.861 66.6062 146.584 66.6062Z" fill="#D4E2F1"/>
<path fill-rule="evenodd" clip-rule="evenodd" d="M146.584 77.3687H194.12C194.843 77.3687 195.434 77.9602 195.434 78.6832V80.9014C195.434 81.6244 194.843 82.2159 194.12 82.2159H146.584C145.861 82.2159 145.269 81.6244 145.269 80.9014V78.6832C145.269 77.9602 145.861 77.3687 146.584 77.3687Z" fill="#D4E2F1"/>
<path fill-rule="evenodd" clip-rule="evenodd" d="M146.584 88.1324H194.12C194.843 88.1324 195.434 88.7239 195.434 89.4469V91.6651C195.434 92.3881 194.843 92.9796 194.12 92.9796H146.584C145.861 92.9796 145.269 92.3881 145.269 91.6651V89.4469C145.269 88.7239 145.861 88.1324 146.584 88.1324Z" fill="#D4E2F1"/>
<path d="M146.663 56.6609C145.975 56.6609 145.419 56.1053 145.419 55.4174V34.4888C145.419 33.8009 145.975 33.2453 146.663 33.2453H167.6C168.288 33.2453 168.844 33.8009 168.844 34.4888V55.4174C168.844 56.1053 168.288 56.6609 167.6 56.6609H146.663Z" fill="#FE5D7C"/>
<rect x="138.823" y="99.1613" width="63.7889" height="63.7889" rx="30" fill="#FFAEBD"/>
<path d="M187.374 125.612L179.971 118.208C179.884 118.121 179.743 118.121 179.656 118.208C179.569 118.295 179.569 118.436 179.656 118.523L187.06 125.927C187.146 126.014 187.287 126.014 187.374 125.927C187.461 125.84 187.461 125.699 187.374 125.612Z" fill="white" stroke="white" stroke-width="3"/>
<path d="M187.06 118.209L179.656 125.612C179.569 125.699 179.569 125.84 179.656 125.927C179.743 126.014 179.884 126.014 179.971 125.927L187.374 118.524C187.461 118.437 187.461 118.296 187.374 118.209C187.287 118.122 187.146 118.122 187.06 118.209Z" fill="white" stroke="white" stroke-width="3"/>
<path d="M161.485 125.612L154.082 118.208C153.995 118.121 153.854 118.121 153.767 118.208C153.68 118.295 153.68 118.436 153.767 118.523L161.171 125.927C161.258 126.014 161.399 126.014 161.485 125.927C161.572 125.84 161.572 125.699 161.485 125.612Z" fill="white" stroke="white" stroke-width="3"/>
<path d="M161.171 118.209L153.767 125.612C153.68 125.699 153.68 125.84 153.767 125.927C153.854 126.014 153.995 126.014 154.082 125.927L161.485 118.524C161.572 118.437 161.572 118.296 161.485 118.209C161.399 118.122 161.258 118.122 161.171 118.209Z" fill="white" stroke="white" stroke-width="3"/>
<path d="M185.359 144.146H156.654C156.414 144.146 156.22 144.341 156.22 144.581C156.22 144.821 156.414 145.016 156.654 145.016H185.359C185.599 145.016 185.794 144.821 185.794 144.581C185.794 144.341 185.599 144.146 185.359 144.146Z" fill="white" stroke="white" stroke-width="3"/>
<path fill-rule="evenodd" clip-rule="evenodd" d="M163.928 40.9143C164.514 40.3285 164.514 39.3788 163.928 38.793C163.343 38.2072 162.393 38.2072 161.807 38.793L157.587 43.0133L153.367 38.7934C152.781 38.2076 151.831 38.2076 151.245 38.7934C150.66 39.3791 150.66 40.3289 151.245 40.9147L155.465 45.1347L151.627 48.973C151.041 49.5588 151.041 50.5085 151.627 51.0943C152.213 51.6801 153.162 51.6801 153.748 51.0943L157.587 47.256L161.425 51.0947C162.011 51.6805 162.961 51.6805 163.547 51.0947C164.132 50.5089 164.132 49.5592 163.547 48.9734L159.708 45.1347L163.928 40.9143Z" fill="white"/>
<path d="M272.708 167.747L271.69 173.368L271.604 176.307C271.571 177.35 272.534 178.213 273.725 178.213H279.299C279.894 178.213 280.435 177.89 280.652 177.407C280.825 177.018 281.453 177.028 281.615 177.426C281.778 177.824 282.21 178.089 282.687 178.089H284.451C285.284 178.089 285.944 177.492 285.923 176.762L285.847 174.535C285.825 173.88 285.447 173.274 284.83 172.904L281.734 171.065L280.132 168.259C280.132 168.259 280.717 165.197 279.256 164.941C277.795 164.685 276.636 168.003 276.636 168.003L275.76 167.88L272.708 167.747Z" fill="#393E5C"/>
<path d="M251.283 158.257L249.389 169.112L243.122 168.515L245.601 157.025L251.283 158.257Z" fill="#FCC5B6"/>
<path d="M278.98 159.073V168.647L278.818 168.666C276.804 168.903 274.77 168.818 272.789 168.41L272.713 168.392L273.005 158.694L278.98 159.073Z" fill="#FCC5B6"/>
<path d="M276.209 91.9172C276.479 92.287 278.568 96.1358 280.267 99.3116C281.761 102.08 282.486 105.123 282.4 108.175L280.722 136.094L279.845 160.353C277.821 161.016 275.613 161.054 273.557 160.476L272.67 160.22L271.739 109.796L269.866 109.673L257.733 136.226L251.716 159.206L250.861 159.414C248.815 159.917 246.629 159.452 245.081 158.182L249.464 133.923L257.037 101.027L259.64 92.2964L263.232 92.7989C266.901 93.1496 270.613 92.979 274.217 92.2964L276.209 91.9172Z" fill="#393E5C"/>
<path d="M276.283 110.375C276.327 110.375 276.359 110.346 276.37 110.308C276.381 110.261 276.348 110.223 276.305 110.214C272.939 109.541 269.378 109.522 266.012 110.157C265.958 110.166 265.926 110.214 265.936 110.252C265.947 110.299 266.001 110.327 266.045 110.318C269.389 109.692 272.928 109.711 276.262 110.375C276.273 110.375 276.283 110.375 276.283 110.375Z" fill="white"/>
<path d="M249.973 167.491L251.78 176.051C251.975 176.981 251.164 177.834 250.092 177.834H244.724L244.345 177.635C243.241 177.056 241.855 177.075 240.773 177.682L240.503 177.834H232.428C231.541 177.834 230.87 177.142 231.021 176.374L231.357 174.601C231.519 173.757 232.169 173.046 233.089 172.724L238.619 170.809L242.115 167.614C242.115 167.614 240.07 165.576 241.682 164.808C243.284 164.04 244.789 167.747 244.789 167.747C246.271 168.164 247.862 168.145 249.334 167.69L249.973 167.491Z" fill="#393E5C"/>
<path d="M278.968 134.018C279.011 134.018 279.054 133.989 279.054 133.951C279.065 133.904 279.033 133.866 278.979 133.856C277.485 133.619 275.948 133.563 274.433 133.695C274.379 133.695 274.346 133.743 274.346 133.781C274.346 133.828 274.4 133.856 274.444 133.856C275.937 133.733 277.452 133.79 278.935 134.018C278.957 134.018 278.968 134.018 278.968 134.018Z" fill="white"/>
<path d="M257.555 134.217C257.598 134.217 257.631 134.189 257.641 134.151C257.652 134.103 257.62 134.065 257.576 134.056L253.648 133.269C253.593 133.26 253.55 133.288 253.539 133.326C253.529 133.373 253.561 133.411 253.604 133.421L257.533 134.208C257.544 134.208 257.555 134.217 257.555 134.217Z" fill="white"/>
<path d="M261.269 51.6573C261.269 51.6573 259.631 55.0192 259.423 58.0631L258.103 61.1682L259.093 61.9628C259.093 61.9628 258.702 66.6694 261.036 67.2195L262.98 67.5007L262.613 71.6204L268.86 72.5128L269.068 67.9285L271.831 60.8504L272.723 54.6035L267.455 49.897L261.269 51.6573Z" fill="#FCC5B6"/>
<path d="M265.39 64.2246C263.593 62.2319 262.31 59.8481 260.843 57.5987C259.987 56.2907 259.034 54.8726 259.168 53.32C259.266 52.2198 259.938 51.2174 260.831 50.5572C261.723 49.8971 262.823 49.567 263.924 49.4326C267.029 49.0536 270.293 50.2883 272.371 52.6477C274.425 54.9826 275.244 58.3811 274.461 61.4251C274.119 62.7698 273.483 64.0045 273.043 65.3126C272.725 66.2294 272.664 67.4886 271.527 67.7086C269.364 68.1243 266.674 65.6549 265.39 64.2246Z" fill="#5C49D8"/>
<path d="M278.642 78.8698L276.356 87.9283L276.882 92.7082L268.556 94.6764L259.449 93.1972L259.999 88.0995L258.104 86.0457C256.906 84.7499 256.796 82.7939 257.823 81.3636L260.329 77.8918L257.701 73.1119L269.045 69.1511L279.534 73.6009L278.642 78.8698Z" fill="#A6BDFF"/>
<path d="M252.866 88.2578L258.722 94.6025C259.272 95.2015 259.48 96.0328 259.284 96.8152L258.099 101.534L254.541 107.512L254.492 107.463C254.187 107.157 254.089 106.681 254.26 106.277L255.47 103.392L256.179 101.742L254.725 103.575L252.475 105.825L251.974 104.578C251.815 104.187 251.864 103.747 252.096 103.392L252.879 102.243L253.869 100.263L254.529 96.4729L255.275 95.5438L249.48 89.9326L252.866 88.2578Z" fill="#FCC5B6"/>
<path d="M266.573 69.1503L257.845 71.2896L242.833 80.1893C241.024 81.265 240.718 83.7589 242.222 85.2381L246.317 89.2478C246.855 89.7735 247.539 90.1158 248.273 90.238L249.116 90.3725L250.926 91.8517L251.195 91.7295C252.405 91.1671 253.42 90.2258 254.055 89.0522L253.065 87.732L253.151 86.8395C253.199 86.2528 253.065 85.6537 252.747 85.1525L252.405 84.6146L265.424 79.0279L268.383 72.4387L266.573 69.1503Z" fill="#A6BDFF"/>
<path d="M284.56 57.7449L279.731 51.2291L275.208 48.7353L271.418 48.7108L268.032 50.1289C268.105 50.8257 268.741 50.8135 269.425 50.6546L271.809 49.9822L273.435 50.4834C273.936 50.5934 274.071 51.6448 273.704 51.9871L273.044 52.5861L271.381 52.7328C270.746 52.6716 270.306 52.7572 270.073 53.3562L273.936 54.4198L277.665 54.0775L283.044 61.7669L284.56 57.7449Z" fill="#FCC5B6"/>
<path d="M268.554 69.151L276.622 69.64L283.37 65.7036L281.488 62.7575C280.999 61.9873 280.693 61.1193 280.608 60.2147L280.583 59.9458L279.764 58.2954C280.51 57.3297 281.537 56.6084 282.698 56.2172L283.383 55.9849L284.862 56.9751L285.473 57.0852C286.243 57.2319 286.952 57.6475 287.441 58.2587L292.71 64.8846C293.383 65.7281 293.737 66.7794 293.737 67.8552C293.737 69.4811 292.869 70.9847 291.475 71.7916L278.603 79.2854L268.554 69.151Z" fill="#A6BDFF"/>
<path d="M278.59 63.014C279.813 66.4492 279.776 70.2267 279.03 73.7963C278.7 75.3978 278.187 77.0237 277.075 78.2095C275.876 79.4931 274.092 80.1165 272.331 80.2877C269.471 80.5566 266.476 79.6764 264.422 77.6716C262.503 75.8134 261.525 73.1239 261.39 70.4467C261.243 67.7817 261.879 65.1167 262.796 62.6106C263.701 60.1412 265.009 57.6718 267.246 56.2782C268.322 55.6058 269.752 55.129 271.035 55.1779C272.099 55.2268 273.016 55.9481 273.847 56.5471C276.048 58.1363 277.686 60.4591 278.59 63.014Z" fill="#5C49D8"/>
<path d="M283.293 65.7521C283.305 65.7521 283.33 65.7521 283.342 65.7399L285.799 64.493C285.848 64.4685 285.872 64.4074 285.848 64.3463C285.824 64.2974 285.762 64.2729 285.701 64.2974L283.244 65.5443C283.195 65.5688 283.171 65.6299 283.195 65.691C283.22 65.7399 283.256 65.7521 283.293 65.7521Z" fill="white"/>
<path d="M257.194 82.5128C257.206 82.5128 257.218 82.5128 257.231 82.5005L260.03 81.278C260.079 81.2536 260.104 81.1925 260.079 81.1436C260.055 81.0947 259.994 81.0702 259.945 81.0947L257.145 82.3172C257.096 82.3416 257.072 82.4027 257.096 82.4516C257.108 82.4883 257.145 82.5128 257.194 82.5128Z" fill="white"/>
<path d="M249.964 85.6784C249.976 85.6784 249.988 85.6784 250 85.6661L252.519 84.6026C252.568 84.5781 252.592 84.517 252.58 84.4681C252.555 84.4192 252.494 84.3948 252.445 84.407L249.927 85.4705C249.878 85.495 249.854 85.5561 249.866 85.605C249.89 85.6539 249.927 85.6784 249.964 85.6784Z" fill="white"/>
<path d="M256.655 101.51L257.694 98.9185L258.843 96.9503C258.868 96.9014 258.855 96.8402 258.806 96.8036C258.757 96.7791 258.696 96.7913 258.66 96.8402L257.498 98.8329L256.569 101.168C256.178 100.789 256.044 100.239 256.203 99.7131L256.557 98.5517L256.545 98.5273C256.545 98.5028 256.068 96.5835 256.704 95.4711C256.728 95.4222 256.716 95.361 256.667 95.3244C256.618 95.2999 256.557 95.3121 256.52 95.361C255.885 96.4735 256.276 98.2828 256.337 98.5395L255.995 99.6397C255.799 100.288 256.007 100.997 256.545 101.425L256.655 101.51Z" fill="#382A73"/>
<path d="M252.504 104.908C252.528 104.908 252.565 104.896 252.577 104.871L254.24 103.05L255.389 101.241C255.426 101.192 255.401 101.131 255.352 101.094C255.303 101.057 255.242 101.082 255.205 101.131L254.056 102.94L252.418 104.749C252.382 104.798 252.382 104.859 252.43 104.896C252.455 104.896 252.479 104.908 252.504 104.908Z" fill="#382A73"/>
<path d="M252.332 104.248C252.369 104.248 252.394 104.236 252.418 104.199L253.579 102.537L254.57 100.556C254.594 100.507 254.57 100.446 254.521 100.41C254.472 100.385 254.411 100.41 254.374 100.459L253.384 102.427L252.235 104.065C252.198 104.114 252.21 104.175 252.259 104.212C252.296 104.236 252.308 104.248 252.332 104.248Z" fill="#382A73"/>
<path d="M256.534 102.17C256.571 102.17 256.595 102.157 256.619 102.133C256.656 102.084 256.644 102.023 256.607 101.986L254.309 100.14C254.26 100.104 254.199 100.116 254.162 100.153C254.126 100.201 254.138 100.263 254.174 100.299L256.473 102.145C256.497 102.17 256.509 102.17 256.534 102.17Z" fill="#382A73"/>
<path d="M267.956 94.9815C270.866 94.9815 273.763 94.6269 276.587 93.9057C276.648 93.8935 276.672 93.8323 276.66 93.7834C276.648 93.7223 276.587 93.6979 276.538 93.7101C271.134 95.0793 265.426 95.1282 259.998 93.8568C259.937 93.8446 259.888 93.8812 259.875 93.9301C259.863 93.9913 259.9 94.0402 259.949 94.0524C262.577 94.6758 265.267 94.9815 267.956 94.9815Z" fill="white"/>
<path d="M98.0245 152.567C98.8015 153.995 100.464 153.001 100.464 153.001C100.464 153.001 100.374 152.531 99.6146 152.134C99.0545 151.845 98.2594 152.079 97.9703 152.188L97.0487 152.17H97.0307C96.8319 152.188 96.6151 152.188 96.4163 152.224C99.0364 151.303 97.8077 148.195 97.8077 148.195C97.8077 148.195 96.9765 148.231 96.1091 149.387C95.4044 150.327 95.6755 151.917 95.7658 152.296C94.7178 152.441 93.7059 152.712 92.7301 153.055C92.8566 152.929 92.9831 152.802 93.1096 152.64C94.1034 151.447 93.6697 149.17 93.6697 149.17C90.0739 149.64 90.7966 153.001 91.0135 153.778C89.839 154.338 88.7548 155.007 87.779 155.711C88.032 155.368 88.303 154.862 88.4837 154.157C88.9355 152.477 87.4176 150.363 87.4176 150.363C83.8941 152.567 86.4238 155.766 86.9298 156.344C86.2973 156.832 85.7191 157.32 85.1951 157.79C84.6168 158.314 84.0928 158.819 83.623 159.325C83.8037 158.856 83.9483 158.115 83.8037 157.049C83.5507 155.151 81.1294 153.67 81.1294 153.67C78.5635 157.302 82.2317 159.452 83.099 159.886C81.4727 161.656 80.5331 163.03 80.515 163.066L80.8403 163.283C80.8584 163.265 81.4727 162.361 82.5569 161.078C83.9121 165.379 88.5922 163.192 88.5922 163.192C88.5922 163.192 88.4837 162.018 86.7491 160.861C85.6287 160.12 83.9663 160.319 83.0809 160.5C83.7495 159.759 84.5626 158.91 85.4842 158.079C85.7914 157.808 86.1166 157.518 86.4599 157.229C87.6706 161.295 92.0073 159.253 92.0073 159.253C92.0073 159.253 91.8989 158.187 90.3088 157.121C89.315 156.452 87.8332 156.615 87.002 156.778C88.0139 155.983 89.1523 155.206 90.3991 154.537C91.14 158.368 95.2237 156.832 95.2237 156.832C95.2237 156.832 95.2056 155.874 93.8685 154.826C92.9831 154.139 91.5917 154.212 90.8689 154.302C92.2242 153.615 93.7059 153.073 95.2598 152.784C95.1876 156.272 98.9641 155.585 98.9641 155.585C98.9641 155.585 99.0906 154.772 98.1329 153.67C97.374 152.82 95.8381 152.748 95.3863 152.748C95.9284 152.658 96.4886 152.585 97.0668 152.549L98.0245 152.567Z" fill="url(#paint2_linear)"/>
<path d="M67.5917 173.257C67.5917 173.257 59.7675 155.603 65.4233 139.196C71.0791 122.788 84.7578 118 84.7578 118C84.7578 118 76.6446 127.396 81.3607 142.051C85.8059 155.91 77.3131 173.275 77.3131 173.275H67.5917V173.257Z" fill="url(#paint3_linear)"/>
<path opacity="0.3" d="M70.3562 173.257C70.3562 173.257 68.3505 137.335 76.8251 127.884C69.1094 139.792 72.3258 173.257 72.3258 173.257H70.3562Z" fill="white"/>
<path d="M83.7847 173.257H75.4185C75.7437 171.775 76.9544 167.33 79.9539 163.969C83.604 159.885 88.2117 160.283 88.2117 160.283C88.2117 160.283 85.7001 163.03 85.3206 167.963C85.176 169.932 84.5075 171.775 83.7847 173.257Z" fill="#BB6BD9"/>
<path d="M64.4495 153.724C70.539 161.656 71.9123 172.01 72.0569 173.257H60.2213C57.2217 170.492 53.5535 166.011 53.5174 160.644C53.4632 151.031 49 145.339 49 145.339C49 145.339 57.9625 145.267 64.4495 153.724Z" fill="url(#paint4_linear)"/>
<path opacity="0.3" d="M78.1454 173.257H77.513C78.7056 170.529 81.7413 164.132 84.5782 162.831C81.7955 164.71 79.2477 170.492 78.1454 173.257Z" fill="white"/>
<path opacity="0.3" d="M68.2988 173.257H67.0701C65.6245 168.487 61.2155 155.205 55.6501 150.833C61.4143 154.013 66.781 168.758 68.2988 173.257Z" fill="white"/>
<path d="M53.3663 174.665H88.6743V173.255H53.3663V174.665Z" fill="#43457B"/>
<path d="M37.7778 162.301C37.4559 161.901 37.0949 161.521 36.89 161.052C36.6169 160.389 36.7047 159.628 36.9193 158.945C37.1339 158.262 37.4559 157.609 37.6412 156.916C38.09 155.209 37.6217 153.297 36.4413 151.99C36.1779 151.697 35.8852 151.443 35.6608 151.112C35.1536 150.36 35.1536 149.375 35.2901 148.478C35.4267 147.58 35.6804 146.692 35.6218 145.785C35.5535 144.693 35.017 143.639 34.178 142.937C33.3488 142.254 32.2367 142.02 31.1636 142C31.1538 142 31.1441 142 31.1343 142C31.1245 142 31.1148 142 31.105 142C30.0319 142 28.9198 142.234 28.0808 142.898C27.2321 143.58 26.676 144.634 26.598 145.727C26.5297 146.634 26.7736 147.522 26.9004 148.429C27.0272 149.326 27.0077 150.312 26.5004 151.053C26.2761 151.375 25.9834 151.638 25.7102 151.921C24.5103 153.209 24.0128 155.121 24.4518 156.838C24.6274 157.531 24.9396 158.184 25.1444 158.867C25.3493 159.55 25.4273 160.311 25.1444 160.974C24.9396 161.443 24.5688 161.813 24.2469 162.213C23.0372 163.706 22.5202 165.92 23.5543 167.511C23.964 168.145 24.5786 168.623 25.2225 169.032C26.2175 169.667 27.3004 170.184 28.4613 170.428C28.9686 170.535 29.4954 170.642 30.0027 170.506C30.3441 170.418 30.5977 170.467 30.9587 170.467C31.3197 170.467 31.583 170.428 31.9147 170.515C32.422 170.652 32.9488 170.554 33.4561 170.447C34.617 170.213 35.7096 169.715 36.7047 169.081C37.3485 168.681 37.9631 168.203 38.3826 167.579C39.446 166.018 38.9484 163.794 37.7778 162.301Z" fill="url(#paint5_linear)"/>
<path opacity="0.3" d="M31.5154 167.345C32.4811 166.057 36.4614 160.76 36.4614 160.76L31.4958 166.086L31.3202 155.628C32.0714 154.633 35.0468 150.673 35.0468 150.673L31.3007 154.672L31.1934 148.312C31.5154 147.883 33.8859 144.732 33.8859 144.732L31.1837 147.629L31.1056 143.161L31.0178 148.897L28.4326 146.068C28.4326 146.068 30.5008 148.887 31.0081 149.58L30.9105 156.038L27.2132 151.99C27.2132 151.99 30.1886 156.038 30.891 157.004L30.7252 167.598L25.6718 162.067C25.6718 162.067 30.1789 168.213 30.6959 168.915L30.6666 170.476H30.6764V172.184H31.5641V170.476H31.5544L31.5154 167.345Z" fill="white"/>
<path d="M27.1929 172.203H35.0851L33.6022 178.446H28.6952L27.1929 172.203Z" fill="#43457B"/>
<path d="M35.0851 171.735H27.1929V172.213H35.0851V171.735Z" fill="url(#paint6_linear)"/>
<defs>
<linearGradient id="paint0_linear" x1="321.621" y1="174.204" x2="309.363" y2="174.204" gradientUnits="userSpaceOnUse">
<stop stop-color="#E2E2E2"/>
<stop offset="0.1153" stop-color="#E6E6E6"/>
<stop offset="1" stop-color="white"/>
</linearGradient>
<linearGradient id="paint1_linear" x1="323.132" y1="168.246" x2="307.853" y2="168.246" gradientUnits="userSpaceOnUse">
<stop stop-color="#F7F7F7"/>
<stop offset="1" stop-color="white"/>
</linearGradient>
<linearGradient id="paint2_linear" x1="100.478" y1="155.954" x2="80.2538" y2="155.954" gradientUnits="userSpaceOnUse">
<stop stop-color="#FFB682"/>
<stop offset="1" stop-color="#EE5379"/>
</linearGradient>
<linearGradient id="paint3_linear" x1="84.7509" y1="145.628" x2="63.3693" y2="145.628" gradientUnits="userSpaceOnUse">
<stop stop-color="#FC89B5"/>
<stop offset="0.9985" stop-color="#FDA5B0"/>
</linearGradient>
<linearGradient id="paint4_linear" x1="72.0477" y1="159.297" x2="48.9993" y2="159.297" gradientUnits="userSpaceOnUse">
<stop stop-color="#6443D7"/>
<stop offset="1" stop-color="#AC5DF9"/>
</linearGradient>
<linearGradient id="paint5_linear" x1="23.0008" y1="156.304" x2="38.9676" y2="156.304" gradientUnits="userSpaceOnUse">
<stop stop-color="#FB7DB7"/>
<stop offset="1" stop-color="#FDACAF"/>
</linearGradient>
<linearGradient id="paint6_linear" x1="33.2289" y1="174.059" x2="29.0467" y2="169.877" gradientUnits="userSpaceOnUse">
<stop stop-color="#FB7DB7"/>
<stop offset="1" stop-color="#FDACAF"/>
</linearGradient>
<clipPath id="clip0">
<rect width="34.9141" height="60.8762" fill="white" transform="matrix(-1 0 0 1 334 118.224)"/>
</clipPath>
</defs>
</svg>
