<svg width="402" height="213" viewBox="0 0 402 213" fill="none" xmlns="http://www.w3.org/2000/svg">
<path d="M378.601 157.173C374.49 156.145 370.193 156.076 366.05 157.036C361.289 146.757 361.444 136.136 356.374 126.063C350.407 114.277 344.472 102.491 338.505 90.7045C333.528 80.8713 328.52 70.9353 321.471 61.9929C309.477 46.7463 291.608 34.6518 271.112 27.8679C264.063 25.5381 256.644 23.825 249.07 23.6537C241.712 23.4824 234.447 24.8186 227.43 26.6345C193.022 35.6454 164.364 58.2926 151.751 86.0791C144.332 81.9334 135.954 79.5693 127.112 79.5693C96.2289 79.5693 71.2191 108.041 71.2191 143.16C71.2191 145.558 72.4866 150.252 71.8374 152.41C70.7554 155.974 71.1573 154.089 68.0658 156.145C64.2325 158.68 59.719 159.88 55.8856 162.689C48.6516 168.034 42.6233 175.469 38.8208 184.171C37.1205 188.009 35.853 192.565 37.3369 196.506C39.0372 200.96 43.6125 203.015 47.7241 204.626C55.9783 207.846 62.0375 208.12 70.5699 208.257C112.335 208.977 154.132 209.731 195.897 210.45C225.297 210.964 254.665 211.478 284.065 211.992C306.54 212.266 328.922 210.861 351.397 210.313C358.94 210.108 373.593 209.697 380.858 207.504C388.494 205.208 389.452 204.489 396.346 200.137C398.356 198.87 399.469 194.039 400.52 191.777C401.354 189.962 401.385 187.803 401.231 185.747C400.489 176.668 396.099 168 389.483 162.586C386.237 160.017 382.497 158.166 378.601 157.173Z" fill="#E3E8ED"/>
<path d="M161.365 151.456L116.25 149.661V98.157H161.365V151.456Z" fill="url(#paint0_linear)"/>
<path d="M179.66 148.446L161.366 151.456V98.157H179.66V148.446Z" fill="url(#paint1_linear)"/>
<path opacity="0.5" d="M144.074 150.769L137.131 150.479V98.157H144.074V150.769Z" fill="white"/>
<path d="M121.899 78.7542C121.899 78.7542 142.015 75.9823 144.074 98.1572C137.131 98.1572 137.131 98.1572 137.131 98.1572C137.131 98.1572 133.594 80.1533 121.899 78.7542Z" fill="url(#paint2_linear)"/>
<path d="M117.491 81.394C119.286 79.3349 121.371 78.5166 123.483 78.7014C122.797 79.0446 122.111 79.5197 121.424 80.1269C115.194 85.7498 131.852 95.2269 137.079 97.9988C137.079 98.0516 137.105 98.1043 137.105 98.1571C137.131 98.1571 111.129 88.7064 117.491 81.394Z" fill="url(#paint3_linear)"/>
<path d="M165.377 78.7542C165.377 78.7542 145.262 75.9823 143.203 98.1572C150.145 98.1572 150.145 98.1572 150.145 98.1572C150.145 98.1572 153.656 80.1797 165.377 78.7542Z" fill="url(#paint4_linear)"/>
<path d="M169.786 81.394C167.991 79.3349 165.906 78.5166 163.794 78.7014C164.48 79.0446 165.167 79.5197 165.853 80.1269C172.083 85.7498 155.425 95.2269 150.199 97.9988C150.199 98.0516 150.172 98.1043 150.172 98.1571C150.146 98.1571 176.148 88.7328 169.786 81.394Z" fill="url(#paint5_linear)"/>
<path d="M197.926 151.456L165.852 150.162V113.521H197.926V151.456Z" fill="url(#paint6_linear)"/>
<path d="M210.941 149.318L197.926 151.456V113.521H210.941V149.318Z" fill="url(#paint7_linear)"/>
<path opacity="0.5" d="M185.625 150.954L180.688 150.77V113.521H185.625V150.954Z" fill="white"/>
<path d="M169.839 99.741C169.839 99.741 184.147 97.7611 185.625 113.547C180.689 113.547 180.689 113.547 180.689 113.547C180.689 113.547 178.181 100.744 169.839 99.741Z" fill="url(#paint8_linear)"/>
<path d="M166.724 101.616C167.991 100.164 169.469 99.583 171 99.6886C170.499 99.9262 170.024 100.269 169.548 100.692C165.113 104.678 176.966 111.436 180.689 113.416C180.689 113.442 180.689 113.495 180.715 113.521C180.689 113.548 162.183 106.816 166.724 101.616Z" fill="url(#paint9_linear)"/>
<path d="M200.777 99.741C200.777 99.741 186.469 97.7611 184.991 113.547C189.928 113.547 189.928 113.547 189.928 113.547C189.928 113.547 192.462 100.744 200.777 99.741Z" fill="url(#paint10_linear)"/>
<path d="M203.918 101.615C202.651 100.164 201.173 99.5828 199.642 99.6884C200.143 99.926 200.618 100.269 201.093 100.692C205.528 104.678 193.675 111.436 189.953 113.416C189.953 113.442 189.953 113.495 189.927 113.521C189.953 113.548 208.459 106.842 203.918 101.615Z" fill="url(#paint11_linear)"/>
<path d="M128.894 151.456L104.449 150.479V122.576H128.894V151.456Z" fill="url(#paint12_linear)"/>
<path d="M138.793 149.819L128.893 151.456V122.575H138.793V149.819Z" fill="url(#paint13_linear)"/>
<path opacity="0.5" d="M119.522 151.086L115.747 150.928V122.575H119.522V151.086Z" fill="white"/>
<path d="M107.512 111.937C107.512 111.937 118.415 110.432 119.523 122.444C115.748 122.444 115.748 122.444 115.748 122.444C115.748 122.444 113.848 112.703 107.512 111.937Z" fill="url(#paint14_linear)"/>
<path d="M105.11 113.495C106.086 112.386 107.195 111.937 108.357 112.043C107.987 112.228 107.617 112.492 107.248 112.808C103.869 115.844 112.897 120.992 115.722 122.497C115.722 122.523 115.722 122.549 115.722 122.576C115.748 122.576 101.651 117.455 105.11 113.495Z" fill="url(#paint15_linear)"/>
<path d="M131.058 111.963C131.058 111.963 120.156 110.459 119.047 122.47C122.822 122.47 122.822 122.47 122.822 122.47C122.822 122.47 124.723 112.729 131.058 111.963Z" fill="url(#paint16_linear)"/>
<path d="M133.46 113.389C132.484 112.281 131.375 111.832 130.213 111.937C130.583 112.122 130.953 112.386 131.322 112.703C134.701 115.739 125.673 120.886 122.848 122.391C122.848 122.418 122.848 122.444 122.848 122.47C122.822 122.47 136.919 117.349 133.46 113.389Z" fill="url(#paint17_linear)"/>
<path d="M377 204H60V207H377V204Z" fill="#43457B"/>
<path d="M122.016 204.502C126.7 204.502 130.498 200.705 130.498 196.021C130.498 191.337 126.7 187.539 122.016 187.539C117.332 187.539 113.535 191.337 113.535 196.021C113.535 200.705 117.332 204.502 122.016 204.502Z" fill="#131147"/>
<path d="M116.323 196.021C116.323 192.888 118.883 190.328 122.016 190.328C125.149 190.328 127.709 192.888 127.709 196.021C127.709 199.154 125.149 201.713 122.016 201.713C118.883 201.713 116.323 199.154 116.323 196.021Z" fill="#807DFB"/>
<path d="M217.682 184.941H109.332V186.431H217.682V184.941Z" fill="#DDE2F8"/>
<path d="M111.051 186.469C111.853 187.73 119.8 200.491 123.391 198.16C126.792 195.982 121.749 186.469 121.749 186.469C121.099 186.469 111.051 186.469 111.051 186.469Z" fill="#DDE2F8"/>
<path d="M109.332 184.941C108.415 184.941 107.689 184.215 107.689 183.298C107.689 182.381 108.415 181.655 109.332 181.655H214.282V174.97C214.091 173.289 206.22 162.973 204.539 162.247C202.209 162.056 169.887 159.496 155.942 158.427L155.102 158.35C154.185 158.274 153.535 157.51 153.612 156.593C153.688 155.714 154.376 155.065 155.255 155.065H155.407C155.866 155.103 202.973 158.771 205.036 158.962C207.405 159.191 217.567 171.417 217.567 174.931V183.26C217.567 184.177 216.841 184.903 215.924 184.903H109.332V184.941Z" fill="#BBC0E6"/>
<path d="M122.016 197.014C122.565 197.014 123.009 196.57 123.009 196.021C123.009 195.472 122.565 195.028 122.016 195.028C121.467 195.028 121.023 195.472 121.023 196.021C121.023 196.57 121.467 197.014 122.016 197.014Z" fill="#423EAF"/>
<path d="M207.672 196.021C207.672 191.322 211.492 187.539 216.153 187.539C220.853 187.539 224.635 191.36 224.635 196.021C224.635 200.72 220.814 204.502 216.153 204.502C211.492 204.502 207.672 200.72 207.672 196.021Z" fill="#131147"/>
<path d="M210.499 196.021C210.499 192.888 213.059 190.328 216.192 190.328C219.325 190.328 221.884 192.888 221.884 196.021C221.884 199.154 219.325 201.713 216.192 201.713C213.021 201.713 210.499 199.154 210.499 196.021Z" fill="#807DFB"/>
<path d="M205.189 186.469C205.991 187.73 213.938 200.491 217.529 198.16C220.929 195.982 215.886 186.469 215.886 186.469C215.275 186.469 205.189 186.469 205.189 186.469Z" fill="#DDE2F8"/>
<path d="M215.198 196.021C215.198 195.486 215.619 195.028 216.192 195.028C216.727 195.028 217.185 195.448 217.185 196.021C217.185 196.556 216.765 197.014 216.192 197.014C215.619 196.976 215.198 196.556 215.198 196.021Z" fill="#423EAF"/>
<path d="M206.067 159.267C206.029 159.267 205.991 159.267 205.953 159.267L109.217 151.817C108.453 151.741 107.842 151.206 107.727 150.442L100.889 107.537C100.812 107.117 100.927 106.659 101.194 106.315C101.462 105.971 101.844 105.742 102.264 105.665L231.168 86.2954C232.887 81.4815 234.951 78.96 239.268 76.3239C240.032 75.8654 241.063 76.0946 241.522 76.8587C241.98 77.6228 241.751 78.6544 240.987 79.1128C237.243 81.4051 235.715 83.3154 234.225 87.5562C234.148 87.709 234.072 87.9764 233.957 88.2821C233.957 88.3203 233.919 88.3585 233.919 88.3967C230.672 97.2221 208.627 155.638 207.634 158.198C207.366 158.847 206.755 159.267 206.067 159.267ZM110.784 148.646L204.998 155.905C207.939 148.111 224.979 102.991 229.907 89.8103L104.442 108.684L110.784 148.646Z" fill="white"/>
<path d="M120.488 152.123C119.915 152.123 119.456 151.703 119.418 151.13L114.91 105.36C114.834 104.749 115.292 104.214 115.903 104.176C116.515 104.137 117.049 104.558 117.088 105.169L121.596 150.939C121.672 151.55 121.214 152.085 120.602 152.123C120.564 152.123 120.526 152.123 120.488 152.123Z" fill="white"/>
<path d="M130.689 152.925C130.077 152.925 129.581 152.429 129.581 151.817V103.067C129.581 102.456 130.077 101.959 130.689 101.959C131.3 101.959 131.797 102.456 131.797 103.067V151.817C131.797 152.429 131.3 152.925 130.689 152.925Z" fill="white"/>
<path d="M141.539 153.727C141.5 153.727 141.5 153.727 141.462 153.727C140.851 153.689 140.392 153.154 140.431 152.581L143.946 100.813C143.984 100.202 144.519 99.7817 145.092 99.7817C145.703 99.8199 146.161 100.355 146.123 100.928L142.608 152.696C142.57 153.307 142.112 153.727 141.539 153.727Z" fill="white"/>
<path d="M152.045 154.568C152.007 154.568 151.931 154.568 151.893 154.568C151.281 154.492 150.861 153.919 150.976 153.345L158.464 98.5974C158.54 97.9861 159.113 97.5659 159.686 97.6805C160.298 97.7569 160.718 98.33 160.603 98.9031L153.115 153.651C153.039 154.148 152.58 154.568 152.045 154.568Z" fill="white"/>
<path d="M162.666 155.37C162.59 155.37 162.513 155.37 162.437 155.332C161.864 155.218 161.444 154.644 161.597 154.033L173.135 96.2669C173.249 95.6938 173.822 95.2736 174.434 95.4264C175.007 95.541 175.427 96.1141 175.274 96.7254L163.736 154.492C163.621 155.026 163.163 155.37 162.666 155.37Z" fill="white"/>
<path d="M173.555 156.211C173.479 156.211 173.402 156.211 173.288 156.173C172.714 156.02 172.332 155.447 172.485 154.874L186.965 94.2038C187.118 93.6307 187.691 93.2487 188.264 93.4015C188.837 93.5543 189.219 94.1274 189.066 94.7005L174.587 155.37C174.51 155.867 174.052 156.211 173.555 156.211Z" fill="white"/>
<path d="M183.679 156.975C183.565 156.975 183.488 156.975 183.374 156.937C182.801 156.784 182.457 156.173 182.648 155.561L201.483 91.9115C201.636 91.3385 202.247 90.9946 202.858 91.1856C203.431 91.3384 203.775 91.9497 203.584 92.561L184.711 156.211C184.596 156.669 184.138 156.975 183.679 156.975Z" fill="white"/>
<path d="M194.491 157.815C194.377 157.815 194.262 157.815 194.147 157.777C193.574 157.586 193.269 156.975 193.46 156.402L215.619 89.8102C215.81 89.2371 216.421 88.9315 216.994 89.1225C217.567 89.3136 217.873 89.9248 217.682 90.4979L195.523 157.09C195.37 157.51 194.95 157.815 194.491 157.815Z" fill="white"/>
<path d="M105.053 124.348C104.518 124.348 104.06 123.966 103.983 123.393C103.907 122.781 104.327 122.246 104.938 122.17L224.941 106.238C225.552 106.162 226.087 106.582 226.163 107.194C226.24 107.805 225.82 108.34 225.208 108.416L105.206 124.348C105.168 124.348 105.091 124.348 105.053 124.348Z" fill="white"/>
<path d="M107.001 136.574C106.39 136.574 105.932 136.077 105.893 135.504C105.893 134.893 106.39 134.396 106.963 134.396L214.625 133.708C215.237 133.708 215.695 134.205 215.733 134.778C215.733 135.389 215.237 135.886 214.664 135.886L107.001 136.574Z" fill="white"/>
<path d="M248.857 69.2176L240.452 73.4202C238.619 74.3371 237.854 76.5912 238.771 78.4251C239.688 80.2589 241.942 81.023 243.776 80.1061L252.181 75.9035C254.015 74.9866 254.779 72.7325 253.862 70.8987C252.907 69.0266 250.691 68.3007 248.857 69.2176Z" fill="#423EAF"/>
<path d="M380.107 173.386C379.451 172.573 378.717 171.787 378.298 170.843C377.721 169.507 377.931 167.934 378.35 166.545C378.77 165.156 379.451 163.819 379.818 162.404C380.736 158.918 379.792 155.012 377.355 152.365C376.83 151.789 376.201 151.238 375.782 150.583C374.76 149.037 374.76 147.045 375.022 145.21C375.284 143.375 375.808 141.567 375.703 139.706C375.572 137.478 374.471 135.329 372.742 133.913C371.064 132.524 368.784 132.026 366.608 132C366.582 132 366.556 132 366.53 132C366.504 132 366.477 132 366.451 132C364.249 132 361.995 132.472 360.292 133.835C358.562 135.224 357.435 137.373 357.278 139.601C357.147 141.436 357.645 143.27 357.907 145.105C358.169 146.94 358.143 148.932 357.094 150.452C356.649 151.107 356.02 151.631 355.495 152.208C353.032 154.829 352.036 158.734 352.927 162.22C353.294 163.636 353.923 164.972 354.342 166.361C354.761 167.751 354.919 169.323 354.342 170.66C353.923 171.63 353.163 172.39 352.507 173.202C350.07 176.216 349.021 180.725 351.144 183.975C351.983 185.285 353.241 186.255 354.552 187.094C356.57 188.404 358.798 189.426 361.157 189.95C362.179 190.186 363.253 190.37 364.302 190.108C364.983 189.924 365.508 190.029 366.268 190.029C367.002 190.029 367.526 189.95 368.233 190.134C369.256 190.396 370.33 190.213 371.379 190.003C373.738 189.505 375.965 188.509 378.01 187.225C379.32 186.412 380.578 185.442 381.443 184.158C383.514 180.934 382.518 176.426 380.107 173.386Z" fill="url(#paint18_linear)"/>
<path opacity="0.3" d="M367.369 183.659C369.335 181.038 377.46 170.24 377.46 170.24L367.343 181.091L366.976 159.756C368.496 157.738 374.577 149.639 374.577 149.639L366.95 157.816L366.74 144.842C367.395 143.951 372.218 137.53 372.218 137.53L366.714 143.427L366.556 134.306L366.373 145.996L361.105 140.229C361.105 140.229 365.325 145.969 366.347 147.385L366.137 160.568L358.589 152.312C358.589 152.312 364.643 160.568 366.085 162.534L365.744 184.131L355.443 172.861C355.443 172.861 364.643 185.389 365.691 186.831L365.639 190.028H365.665V193.514H367.474V190.028H367.448L367.369 183.659Z" fill="white"/>
<path d="M358.536 193.568H374.629L371.615 206.28H361.602L358.536 193.568Z" fill="#43457B"/>
<path d="M374.629 192.597H358.536V193.567H374.629V192.597Z" fill="url(#paint19_linear)"/>
<path d="M4.85279 163.655C3.32852 166.486 0 164.495 0 164.495C0 164.495 0.186646 163.561 1.67981 162.784C2.79969 162.193 4.38618 162.69 4.94612 162.877L6.78147 162.815H6.81257C7.21697 162.846 7.62137 162.877 8.02577 162.908C2.79969 161.073 5.25719 154.914 5.25719 154.914C5.25719 154.914 6.9059 154.976 8.61682 157.309C10.0167 159.175 9.45673 162.317 9.30119 163.095C11.3854 163.406 13.4074 163.935 15.305 164.619C15.0561 164.37 14.8072 164.121 14.5584 163.81C12.5675 161.415 13.4385 156.904 13.4385 156.904C20.5622 157.807 19.1312 164.526 18.7268 166.05C21.0599 167.17 23.2063 168.508 25.1661 169.876C24.6684 169.192 24.1395 168.197 23.7662 166.766C22.8641 163.406 25.8816 159.238 25.8816 159.238C32.8497 163.624 27.8413 169.97 26.8459 171.121C28.0902 172.085 29.2412 173.049 30.2989 174.014C31.4187 175.04 32.4764 176.067 33.4407 177.062C33.0985 176.129 32.7875 174.636 33.0674 172.52C33.5652 168.756 38.3557 165.801 38.3557 165.801C43.4263 173.018 36.1782 177.28 34.4673 178.151C37.7025 181.666 39.5689 184.404 39.6 184.435L38.9779 184.87C38.9468 184.839 37.7336 183.035 35.556 180.515C32.8497 189.039 23.5796 184.715 23.5796 184.715C23.5796 184.715 23.7974 182.382 27.2503 180.111C29.4589 178.649 32.7564 179.022 34.5606 179.395C33.223 177.902 31.6365 176.253 29.8011 174.605C29.2101 174.045 28.5568 173.485 27.8725 172.925C25.4772 180.982 16.8603 176.938 16.8603 176.938C16.8603 176.938 17.0781 174.822 20.22 172.707C22.2109 171.401 25.135 171.681 26.7837 172.023C24.7928 170.467 22.5219 168.912 20.0333 167.574C18.5713 175.196 10.4522 172.116 10.4522 172.116C10.4522 172.116 10.4833 170.219 13.1585 168.134C14.9006 166.766 17.6691 166.921 19.1312 167.108C16.4559 165.739 13.5007 164.65 10.4211 164.09C10.5455 170.996 3.07966 169.659 3.07966 169.659C3.07966 169.659 2.79969 168.041 4.72836 165.863C6.22153 164.184 9.27008 164.028 10.1722 164.028C9.08343 163.841 7.96356 163.717 6.84368 163.655H4.85279Z" fill="url(#paint20_linear)"/>
<path d="M65.2959 204.717C65.2959 204.717 80.8186 169.658 69.5887 137.089C58.3589 104.519 31.2019 95 31.2019 95C31.2019 95 47.3157 113.633 37.9523 142.719C29.1177 170.218 45.978 204.686 45.978 204.686H65.2959V204.717Z" fill="url(#paint21_linear)"/>
<path opacity="0.3" d="M59.7908 204.717C59.7908 204.717 63.7726 133.418 46.9434 114.66C62.2483 138.302 55.8713 204.717 55.8713 204.717H59.7908Z" fill="white"/>
<path d="M33.13 204.717H49.7415C49.0882 201.793 46.6929 192.958 40.7203 186.27C33.4722 178.182 24.3265 178.96 24.3265 178.96C24.3265 178.96 29.3038 184.404 30.0503 194.202C30.3925 198.122 31.6991 201.793 33.13 204.717Z" fill="url(#paint22_linear)"/>
<path d="M71.517 165.957C59.4161 181.728 56.7098 202.29 56.4298 204.717H79.9472C85.8888 199.211 93.1991 190.345 93.2302 179.675C93.3235 160.606 102.189 149.283 102.189 149.283C102.189 149.283 84.3956 149.159 71.517 165.957Z" fill="url(#paint23_linear)"/>
<path opacity="0.3" d="M44.3601 204.717H45.6044C43.2402 199.304 37.2053 186.612 31.5748 184.03C37.0809 187.732 42.1514 199.211 44.3601 204.717Z" fill="white"/>
<path opacity="0.3" d="M63.864 204.717H66.2904C69.1523 195.26 77.8936 168.881 88.9368 160.202C77.5514 166.517 66.9126 195.758 63.864 204.717Z" fill="white"/>
<path d="M93.5413 204.717H23.4558V207.485H93.5413V204.717Z" fill="#43457B"/>
<path d="M342.13 149.366L336.583 150.958L337.572 145L342.13 149.366Z" fill="#2F80ED"/>
<path d="M337.573 144.999L336.584 150.985C336.584 150.985 337.408 114.547 337.408 114.739L337.573 144.999Z" fill="#2F80ED"/>
<path d="M322.908 117.513C323.018 117.513 323.1 117.431 323.1 117.321C323.128 116.607 325.599 101.175 328.482 100.982C328.51 100.982 328.537 100.982 328.537 100.982C331.366 100.982 333.151 112.323 333.617 116.744C333.617 116.854 333.727 116.936 333.837 116.909C333.947 116.909 334.029 116.799 334.002 116.689C334.002 116.662 333.562 112.598 332.711 108.616C331.53 103.179 330.103 100.461 328.455 100.571C325.05 100.79 322.688 117.129 322.688 117.293C322.688 117.403 322.798 117.513 322.908 117.513Z" fill="#003B6F"/>
<path d="M337.407 114.74H341.581L342.13 149.366L337.572 145L337.407 114.74Z" fill="#22AAEC"/>
<path d="M309.783 114.712L337.38 114.135V114.739C337.38 114.547 336.556 150.986 336.556 150.986L308.959 149.97L309.783 114.712Z" fill="#67CDFD"/>
<path d="M328.071 116.799C328.071 117.074 328.29 117.293 328.565 117.293C328.84 117.293 329.059 117.074 329.059 116.799C329.059 116.525 328.84 116.305 328.565 116.305C328.29 116.305 328.071 116.525 328.071 116.799Z" fill="white"/>
<path d="M317.141 117.403C317.141 117.677 317.361 117.897 317.635 117.897C317.91 117.897 318.13 117.677 318.13 117.403C318.13 117.128 317.91 116.908 317.635 116.908C317.361 116.908 317.141 117.128 317.141 117.403Z" fill="url(#paint24_linear)"/>
<path d="M317.746 117.513C317.855 117.513 317.938 117.431 317.938 117.321C317.965 116.607 320.437 101.175 323.32 100.982C323.347 100.982 323.375 100.982 323.375 100.982C326.203 100.982 327.988 112.323 328.455 116.744C328.455 116.854 328.565 116.936 328.674 116.909C328.784 116.909 328.867 116.799 328.839 116.689C328.839 116.662 328.4 112.598 327.549 108.616C326.368 103.179 324.94 100.461 323.292 100.571C319.887 100.79 317.526 117.129 317.526 117.293C317.526 117.403 317.636 117.513 317.746 117.513Z" fill="#003B6F"/>
<path d="M301.984 192.726L301.846 200.964C302.176 200.936 308.464 197.421 308.464 197.421L308.491 192.726H301.984Z" fill="#F8AC9B"/>
<path d="M308.41 197.119C308.41 197.119 308.767 199.151 308.767 200.771C308.767 202.391 308.767 204.807 307.064 204.972C305.362 205.164 301.6 205.164 301.078 204.972C300.529 204.78 299.815 202.556 299.458 201.814C299.101 201.073 298.662 200.579 298.497 199.508C298.305 198.437 298.579 196.103 299.65 196.103C300.721 196.103 301.435 197.311 301.875 197.146C302.314 196.954 308.41 197.119 308.41 197.119Z" fill="#2C325E"/>
<path d="M288.09 164.99L291.138 179.461L293.582 191.187L283.888 193.768L270.159 157.274L285.042 153.595L288.09 164.99Z" fill="url(#paint25_linear)"/>
<path d="M315.906 166.72L310.332 193.438H300.282L300.556 154.638L315.906 154.913V166.72Z" fill="url(#paint26_linear)"/>
<path d="M326.917 87.3086C326.917 87.3086 327.851 93.6792 329.196 95.0796C330.542 96.48 331.393 99.0887 331.091 101.011C330.789 102.906 329.718 107.299 327.988 106.887C326.258 106.475 324.144 107.052 324.034 104.8C323.924 102.576 325.297 96.535 324.281 94.805C323.265 93.0751 320.546 88.2971 320.546 88.2971L326.917 87.3086Z" fill="#F8AC9B"/>
<path d="M292.098 27.6663C292.098 27.6663 292.401 25.7167 290.918 25.4147C289.462 25.1126 289.49 26.1011 287.348 25.7167C285.206 25.3323 284.3 22.5863 283.97 20.0601C283.641 17.7535 283.119 15.694 283.202 12.3714C283.311 9.0763 284.794 7.12669 284.794 7.12669C284.794 7.12669 286.744 4.60043 289.078 7.12669C291.412 9.65296 289.572 14.0465 290.643 14.3211C291.714 14.6231 292.208 9.73534 293.554 12.4813C294.927 15.1998 293.746 17.726 292.785 18.2203C291.824 18.7146 291.137 18.3301 291.824 19.4834C292.51 20.6642 298.634 20.8564 298.936 21.9273C299.238 22.9982 299.705 27.0897 299.705 27.0897L292.098 27.6663Z" fill="#F8AC9B"/>
<path d="M292.401 26.156C292.401 26.156 280.017 29.2589 277.71 33.7348C275.404 38.2107 265.381 72.8645 265.381 72.8645L255.221 94.7496L263.706 97.523L276.694 70.5579L268.649 164.222C268.649 164.222 307.476 172.899 320.629 164.222C330.323 145.495 314.369 64.05 314.369 64.05L320.3 91.3172L327 88.1868C327 88.1868 322.359 37.3594 318.899 33.2131C315.412 29.0392 307.531 26.0462 292.401 26.156Z" fill="#BB6BD9"/>
<path d="M288.063 19.0992C288.117 18.9894 288.145 18.8521 288.145 18.7148C290.506 11.6303 284.548 7.70358 284.548 7.70358C284.548 7.70358 285.042 3.85927 289.6 1.68997C293.637 -0.232186 300.254 -1.66007 304.428 4.07895C308.575 9.84542 303.632 14.4586 310.909 20.5821C318.185 26.7055 324.199 29.3691 325.929 35.822C327.659 42.3024 335.403 51.1993 324.419 54.0825C313.435 56.9658 295.065 45.0758 293.445 38.3757C291.824 31.6757 295.284 24.6186 291.934 22.312C290.726 21.4882 289.957 20.8841 289.353 20.2251C288.117 22.2845 285.756 21.9276 285.756 21.9276C285.756 21.9276 287.458 20.6919 288.063 19.0992Z" fill="url(#paint27_linear)"/>
<path d="M282.982 197.888C282.982 197.888 285.179 186.986 285.701 186.135C286.25 185.284 289.682 184.433 291.824 185.806C293.966 187.179 293.664 189.018 293.664 189.018L282.982 197.888Z" fill="url(#paint28_linear)"/>
<path d="M281.883 201.403C282.926 197.558 283.64 196.597 284.382 193.796C285.563 193.796 287.018 193.796 288.528 193.796C290.395 193.796 291.796 194.538 292.647 195.169C292.455 195.444 292.263 195.719 292.043 195.993C292.043 195.993 290.752 196.762 291.576 199.755C292.427 202.748 294.707 205.11 289.132 205.659C283.558 206.153 280.647 205.906 281.883 201.403Z" fill="#2C325E"/>
<path d="M284.383 193.796C284.521 193.301 284.658 192.78 284.768 192.148C285.674 187.947 288.53 185.613 290.507 186.491C292.401 187.343 296.383 189.677 292.649 195.141C291.797 194.51 290.397 193.768 288.53 193.768C287.047 193.796 285.564 193.796 284.383 193.796Z" fill="url(#paint29_linear)"/>
<path d="M269.171 154.008L263.596 155.601L264.585 149.615L269.171 154.008Z" fill="#2F80ED"/>
<path d="M264.586 149.614L263.597 155.6C263.597 155.6 264.421 119.162 264.421 119.354L264.586 149.614Z" fill="#2F80ED"/>
<path d="M249.921 122.128C250.031 122.128 250.113 122.045 250.113 121.936C250.14 121.222 252.612 105.789 255.495 105.597C255.522 105.597 255.55 105.597 255.55 105.597C258.378 105.597 260.163 116.938 260.63 121.359C260.63 121.469 260.74 121.551 260.85 121.524C260.959 121.524 261.042 121.414 261.014 121.304C261.014 121.277 260.575 117.213 259.724 113.231C258.543 107.794 257.115 105.075 255.468 105.185C252.063 105.405 249.701 121.743 249.701 121.908C249.729 122.045 249.811 122.128 249.921 122.128Z" fill="#003B6F"/>
<path d="M264.42 119.355H268.594L269.171 154.009L264.585 149.615L264.42 119.355Z" fill="#22AAEC"/>
<path d="M236.824 119.326L264.42 118.75V119.354C264.42 119.162 263.597 155.6 263.597 155.6L236 154.584L236.824 119.326Z" fill="#67CDFD"/>
<path d="M255.084 121.441C255.084 121.716 255.304 121.936 255.578 121.936C255.853 121.936 256.073 121.716 256.073 121.441C256.073 121.167 255.853 120.947 255.578 120.947C255.304 120.947 255.084 121.167 255.084 121.441Z" fill="white"/>
<path d="M244.155 122.017C244.155 122.292 244.375 122.512 244.65 122.512C244.924 122.512 245.144 122.292 245.144 122.017C245.144 121.743 244.924 121.523 244.65 121.523C244.375 121.523 244.155 121.743 244.155 122.017Z" fill="white"/>
<path d="M244.759 122.128C244.869 122.128 244.951 122.045 244.951 121.936C244.979 121.222 247.45 105.789 250.333 105.597C250.361 105.597 250.388 105.597 250.388 105.597C253.216 105.597 255.001 116.938 255.468 121.359C255.468 121.469 255.578 121.551 255.688 121.524C255.798 121.524 255.88 121.414 255.853 121.304C255.853 121.277 255.413 117.213 254.562 113.231C253.381 107.794 251.953 105.075 250.306 105.185C246.901 105.405 244.539 121.743 244.539 121.908C244.567 122.045 244.649 122.128 244.759 122.128Z" fill="#003B6F"/>
<path d="M256.127 95.0527C256.127 95.0527 254.178 101.204 252.612 102.357C251.075 103.51 249.784 105.954 249.784 107.876C249.784 109.798 250.114 114.302 251.871 114.192C253.628 114.055 255.633 114.961 256.1 112.764C256.594 110.567 256.21 104.389 257.473 102.851C258.763 101.313 262.196 97.0298 262.196 97.0298L256.127 95.0527Z" fill="#F8AC9B"/>
<defs>
<linearGradient id="paint0_linear" x1="161.356" y1="124.795" x2="116.256" y2="124.795" gradientUnits="userSpaceOnUse">
<stop stop-color="#3393EB"/>
<stop offset="0.9985" stop-color="#37BEDF"/>
</linearGradient>
<linearGradient id="paint1_linear" x1="179.664" y1="124.795" x2="161.357" y2="124.795" gradientUnits="userSpaceOnUse">
<stop stop-color="#3393EB"/>
<stop offset="0.9985" stop-color="#37BEDF"/>
</linearGradient>
<linearGradient id="paint2_linear" x1="121.894" y1="88.3945" x2="144.075" y2="88.3945" gradientUnits="userSpaceOnUse">
<stop stop-color="#3393EB"/>
<stop offset="0.9985" stop-color="#37BEDF"/>
</linearGradient>
<linearGradient id="paint3_linear" x1="116.489" y1="88.4074" x2="137.124" y2="88.4074" gradientUnits="userSpaceOnUse">
<stop stop-color="#3393EB"/>
<stop offset="0.9985" stop-color="#37BEDF"/>
</linearGradient>
<linearGradient id="paint4_linear" x1="143.199" y1="88.4074" x2="165.38" y2="88.4074" gradientUnits="userSpaceOnUse">
<stop stop-color="#3393EB"/>
<stop offset="0.9985" stop-color="#37BEDF"/>
</linearGradient>
<linearGradient id="paint5_linear" x1="150.15" y1="88.4202" x2="170.785" y2="88.4202" gradientUnits="userSpaceOnUse">
<stop stop-color="#3393EB"/>
<stop offset="0.9985" stop-color="#37BEDF"/>
</linearGradient>
<linearGradient id="paint6_linear" x1="197.92" y1="132.49" x2="165.841" y2="132.49" gradientUnits="userSpaceOnUse">
<stop stop-color="#A2ED94"/>
<stop offset="1" stop-color="#69C7B3"/>
</linearGradient>
<linearGradient id="paint7_linear" x1="210.941" y1="132.49" x2="197.92" y2="132.49" gradientUnits="userSpaceOnUse">
<stop stop-color="#A2ED94"/>
<stop offset="1" stop-color="#69C7B3"/>
</linearGradient>
<linearGradient id="paint8_linear" x1="169.851" y1="106.598" x2="185.628" y2="106.598" gradientUnits="userSpaceOnUse">
<stop stop-color="#A2ED94"/>
<stop offset="1" stop-color="#69C7B3"/>
</linearGradient>
<linearGradient id="paint9_linear" x1="166.007" y1="106.608" x2="180.684" y2="106.608" gradientUnits="userSpaceOnUse">
<stop stop-color="#A2ED94"/>
<stop offset="1" stop-color="#69C7B3"/>
</linearGradient>
<linearGradient id="paint10_linear" x1="185.005" y1="106.608" x2="200.782" y2="106.608" gradientUnits="userSpaceOnUse">
<stop stop-color="#A2ED94"/>
<stop offset="1" stop-color="#69C7B3"/>
</linearGradient>
<linearGradient id="paint11_linear" x1="189.948" y1="106.617" x2="204.626" y2="106.617" gradientUnits="userSpaceOnUse">
<stop stop-color="#A2ED94"/>
<stop offset="1" stop-color="#69C7B3"/>
</linearGradient>
<linearGradient id="paint12_linear" x1="128.886" y1="137.005" x2="104.449" y2="137.005" gradientUnits="userSpaceOnUse">
<stop stop-color="#FFB682"/>
<stop offset="1" stop-color="#EE5379"/>
</linearGradient>
<linearGradient id="paint13_linear" x1="138.805" y1="137.005" x2="128.886" y2="137.005" gradientUnits="userSpaceOnUse">
<stop stop-color="#FFB682"/>
<stop offset="1" stop-color="#EE5379"/>
</linearGradient>
<linearGradient id="paint14_linear" x1="107.504" y1="117.174" x2="119.523" y2="117.174" gradientUnits="userSpaceOnUse">
<stop stop-color="#FFB682"/>
<stop offset="1" stop-color="#EE5379"/>
</linearGradient>
<linearGradient id="paint15_linear" x1="104.576" y1="117.288" x2="115.757" y2="117.288" gradientUnits="userSpaceOnUse">
<stop stop-color="#FFB682"/>
<stop offset="1" stop-color="#EE5379"/>
</linearGradient>
<linearGradient id="paint16_linear" x1="119.047" y1="117.181" x2="131.066" y2="117.181" gradientUnits="userSpaceOnUse">
<stop stop-color="#FFB682"/>
<stop offset="1" stop-color="#EE5379"/>
</linearGradient>
<linearGradient id="paint17_linear" x1="122.813" y1="117.188" x2="133.994" y2="117.188" gradientUnits="userSpaceOnUse">
<stop stop-color="#FFB682"/>
<stop offset="1" stop-color="#EE5379"/>
</linearGradient>
<linearGradient id="paint18_linear" x1="349.991" y1="161.141" x2="382.55" y2="161.141" gradientUnits="userSpaceOnUse">
<stop stop-color="#A2ED94"/>
<stop offset="1" stop-color="#69C7B3"/>
</linearGradient>
<linearGradient id="paint19_linear" x1="370.848" y1="197.347" x2="362.32" y2="188.819" gradientUnits="userSpaceOnUse">
<stop stop-color="#A2ED94"/>
<stop offset="1" stop-color="#69C7B3"/>
</linearGradient>
<linearGradient id="paint20_linear" x1="40.1515" y1="170.361" x2="0" y2="170.361" gradientUnits="userSpaceOnUse">
<stop stop-color="#5E6398"/>
<stop offset="0.9995" stop-color="#292E6F"/>
</linearGradient>
<linearGradient id="paint21_linear" x1="31.2171" y1="149.863" x2="73.6661" y2="149.863" gradientUnits="userSpaceOnUse">
<stop stop-color="#A2ED94"/>
<stop offset="1" stop-color="#69C7B3"/>
</linearGradient>
<linearGradient id="paint22_linear" x1="48.4656" y1="180.929" x2="32.2416" y2="196.425" gradientUnits="userSpaceOnUse">
<stop stop-color="#3393EB"/>
<stop offset="0.9985" stop-color="#37BEDF"/>
</linearGradient>
<linearGradient id="paint23_linear" x1="56.4403" y1="176.999" x2="102.198" y2="176.999" gradientUnits="userSpaceOnUse">
<stop stop-color="#AE77F0"/>
<stop offset="0.9985" stop-color="#EC8CDD"/>
</linearGradient>
<linearGradient id="paint24_linear" x1="318.131" y1="117.4" x2="317.138" y2="117.4" gradientUnits="userSpaceOnUse">
<stop stop-color="#3CB453"/>
<stop offset="1" stop-color="#A4CD3B"/>
</linearGradient>
<linearGradient id="paint25_linear" x1="270.171" y1="173.687" x2="293.591" y2="173.687" gradientUnits="userSpaceOnUse">
<stop stop-color="#3A3C63"/>
<stop offset="1" stop-color="#40447B"/>
</linearGradient>
<linearGradient id="paint26_linear" x1="300.282" y1="174.038" x2="315.894" y2="174.038" gradientUnits="userSpaceOnUse">
<stop stop-color="#3A3C63"/>
<stop offset="1" stop-color="#40447B"/>
</linearGradient>
<linearGradient id="paint27_linear" x1="333.06" y1="67.333" x2="290.958" y2="11.0306" gradientUnits="userSpaceOnUse">
<stop stop-color="#5E6398"/>
<stop offset="0.9995" stop-color="#292E6F"/>
</linearGradient>
<linearGradient id="paint28_linear" x1="297.392" y1="188.752" x2="274.495" y2="194.083" gradientUnits="userSpaceOnUse">
<stop stop-color="#3A3C63"/>
<stop offset="1" stop-color="#40447B"/>
</linearGradient>
<linearGradient id="paint29_linear" x1="284.387" y1="190.724" x2="294.206" y2="190.724" gradientUnits="userSpaceOnUse">
<stop stop-color="#3A3C63"/>
<stop offset="1" stop-color="#40447B"/>
</linearGradient>
</defs>
</svg>
